<svg width="903" height="398" viewBox="0 0 903 398" fill="none" xmlns="http://www.w3.org/2000/svg">
<rect width="876" height="398" rx="6" fill="#222630"/>
<rect width="876" height="398" rx="6" fill="url(#paint0_linear_507_1306)"/>
<mask id="mask0_507_1306" style="mask-type:alpha" maskUnits="userSpaceOnUse" x="0" y="0" width="903" height="398">
<rect y="0.5" width="902.101" height="397.5" rx="16" fill="url(#paint1_radial_507_1306)"/>
</mask>
<g mask="url(#mask0_507_1306)">
<mask id="mask1_507_1306" style="mask-type:alpha" maskUnits="userSpaceOnUse" x="-97" y="114" width="236" height="341">
<path fill-rule="evenodd" clip-rule="evenodd" d="M77.7621 137.054C91.2619 155.886 105.678 174.604 115.149 195.071C119.959 205.461 124.117 216.051 128.48 226.566C131.601 234.093 134.456 241.558 135.824 249.447C137.223 257.518 137.33 265.745 136.197 273.841C135.089 281.768 132.748 289.583 129.297 297.055C125.56 305.149 120.264 312.621 114.814 320.022C104.578 333.925 93.1506 347.206 82.3319 360.809C76.932 367.597 71.5441 374.438 66.768 381.532C63.1881 386.849 59.9915 392.33 56.9117 397.846C50.936 408.548 45.5086 419.533 38.2062 429.707C32.1188 438.193 24.2028 446.659 12.6571 450.526C2.45018 453.943 -9.60426 453.701 -19.1289 449.104C-29.6005 444.052 -38.2847 436.491 -46.1525 429.068C-55.4864 420.263 -63.9128 410.808 -71.571 401.008C-77.801 393.031 -83.8661 384.725 -88.1145 375.911C-94.8498 361.938 -95.6404 345.94 -93.4886 331.196C-88.5098 297.09 -65.9477 267.43 -42.7858 239.499C-31.857 226.322 -20.8286 213.036 -12.9556 198.445C-9.08523 191.272 -5.99342 183.813 -4.17512 176.118C-2.28807 168.136 -1.95637 159.94 0.869049 152.11C5.38388 139.604 15.1268 127.58 28.8517 120.477C33.3597 118.145 38.4674 116.41 43.8622 116.174C50.0252 115.905 55.8479 117.687 60.7992 120.576C68.0209 124.788 73.3229 130.912 77.7621 137.054C78.3653 137.889 79.9722 137.133 79.3673 136.295C72.1593 126.323 61.1138 114.725 45.3557 114.643C33.7464 114.582 23.5274 120.825 15.9861 127.403C9.70622 132.88 4.78751 139.318 1.38979 146.258C-2.40837 154.016 -3.39658 162.03 -4.84882 170.217C-7.7722 186.685 -15.8979 201.741 -26.2955 215.981C-36.7981 230.364 -49.0811 243.825 -59.96 258.014C-71.0743 272.511 -80.9874 287.727 -87.6934 303.941C-94.5731 320.572 -97.9639 338.393 -95.6129 355.903C-94.7175 362.563 -93.1587 369.328 -90.2353 375.617C-88.3895 379.587 -86.0917 383.422 -83.6564 387.176C-77.2064 397.119 -69.6479 406.615 -61.4947 415.696C-53.2298 424.903 -44.2758 433.86 -33.9778 441.64C-26.9486 446.951 -18.3744 452.892 -8.4734 453.935C4.21178 455.269 16.2971 452.411 25.7358 445.377C35.5509 438.059 41.8961 428.047 47.5125 418.409C54.143 407.037 59.8591 395.315 67.1203 384.183C76.4267 369.913 87.9484 356.579 98.9184 343.132C104.648 336.106 110.299 329.037 115.653 321.818C121.104 314.464 126.454 307.036 130.34 299.038C137.648 283.999 140.325 267.53 138.005 251.478C136.819 243.284 134.148 235.497 130.909 227.699C128.257 221.319 125.638 214.928 122.976 208.55C119.442 200.097 115.818 191.657 111.301 183.508C106.183 174.276 100.042 165.433 93.8639 156.645C89.0792 149.839 84.2224 143.067 79.3673 136.295C78.7657 135.459 77.1588 136.215 77.7621 137.054Z" fill="white"/>
</mask>
<g mask="url(#mask1_507_1306)">
<path fill-rule="evenodd" clip-rule="evenodd" d="M77.7621 137.054C91.2619 155.886 105.678 174.604 115.149 195.071C119.959 205.461 124.117 216.051 128.48 226.566C131.601 234.093 134.456 241.558 135.824 249.447C137.223 257.518 137.33 265.745 136.197 273.841C135.089 281.768 132.748 289.583 129.297 297.055C125.56 305.149 120.264 312.621 114.814 320.022C104.578 333.925 93.1506 347.206 82.3319 360.809C76.932 367.597 71.5441 374.438 66.768 381.532C63.1881 386.849 59.9915 392.33 56.9117 397.846C50.936 408.548 45.5086 419.533 38.2062 429.707C32.1188 438.193 24.2028 446.659 12.6571 450.526C2.45018 453.943 -9.60426 453.701 -19.1289 449.104C-29.6005 444.052 -38.2847 436.491 -46.1525 429.068C-55.4864 420.263 -63.9128 410.808 -71.571 401.008C-77.801 393.031 -83.8661 384.725 -88.1145 375.911C-94.8498 361.938 -95.6404 345.94 -93.4886 331.196C-88.5098 297.09 -65.9477 267.43 -42.7858 239.499C-31.857 226.322 -20.8286 213.036 -12.9556 198.445C-9.08523 191.272 -5.99342 183.813 -4.17512 176.118C-2.28807 168.136 -1.95637 159.94 0.869049 152.11C5.38388 139.604 15.1268 127.58 28.8517 120.477C33.3597 118.145 38.4674 116.41 43.8622 116.174C50.0252 115.905 55.8479 117.687 60.7992 120.576C68.0209 124.788 73.3229 130.912 77.7621 137.054C78.3653 137.889 79.9722 137.133 79.3673 136.295C72.1593 126.323 61.1138 114.725 45.3557 114.643C33.7464 114.582 23.5274 120.825 15.9861 127.403C9.70622 132.88 4.78751 139.318 1.38979 146.258C-2.40837 154.016 -3.39658 162.03 -4.84882 170.217C-7.7722 186.685 -15.8979 201.741 -26.2955 215.981C-36.7981 230.364 -49.0811 243.825 -59.96 258.014C-71.0743 272.511 -80.9874 287.727 -87.6934 303.941C-94.5731 320.572 -97.9639 338.393 -95.6129 355.903C-94.7175 362.563 -93.1587 369.328 -90.2353 375.617C-88.3895 379.587 -86.0917 383.422 -83.6564 387.176C-77.2064 397.119 -69.6479 406.615 -61.4947 415.696C-53.2298 424.903 -44.2758 433.86 -33.9778 441.64C-26.9486 446.951 -18.3744 452.892 -8.4734 453.935C4.21178 455.269 16.2971 452.411 25.7358 445.377C35.5509 438.059 41.8961 428.047 47.5125 418.409C54.143 407.037 59.8591 395.315 67.1203 384.183C76.4267 369.913 87.9484 356.579 98.9184 343.132C104.648 336.106 110.299 329.037 115.653 321.818C121.104 314.464 126.454 307.036 130.34 299.038C137.648 283.999 140.325 267.53 138.005 251.478C136.819 243.284 134.148 235.497 130.909 227.699C128.257 221.319 125.638 214.928 122.976 208.55C119.442 200.097 115.818 191.657 111.301 183.508C106.183 174.276 100.042 165.433 93.8639 156.645C89.0792 149.839 84.2224 143.067 79.3673 136.295C78.7657 135.459 77.1588 136.215 77.7621 137.054Z" fill="white" fill-opacity="0.08"/>
<path fill-rule="evenodd" clip-rule="evenodd" d="M77.7621 137.054C91.2619 155.886 105.678 174.604 115.149 195.071C119.959 205.461 124.117 216.051 128.48 226.566C131.601 234.093 134.456 241.558 135.824 249.447C137.223 257.518 137.33 265.745 136.197 273.841C135.089 281.768 132.748 289.583 129.297 297.055C125.56 305.149 120.264 312.621 114.814 320.022C104.578 333.925 93.1506 347.206 82.3319 360.809C76.932 367.597 71.5441 374.438 66.768 381.532C63.1881 386.849 59.9915 392.33 56.9117 397.846C50.936 408.548 45.5086 419.533 38.2062 429.707C32.1188 438.193 24.2028 446.659 12.6571 450.526C2.45018 453.943 -9.60426 453.701 -19.1289 449.104C-29.6005 444.052 -38.2847 436.491 -46.1525 429.068C-55.4864 420.263 -63.9128 410.808 -71.571 401.008C-77.801 393.031 -83.8661 384.725 -88.1145 375.911C-94.8498 361.938 -95.6404 345.94 -93.4886 331.196C-88.5098 297.09 -65.9477 267.43 -42.7858 239.499C-31.857 226.322 -20.8286 213.036 -12.9556 198.445C-9.08523 191.272 -5.99342 183.813 -4.17512 176.118C-2.28807 168.136 -1.95637 159.94 0.869049 152.11C5.38388 139.604 15.1268 127.58 28.8517 120.477C33.3597 118.145 38.4674 116.41 43.8622 116.174C50.0252 115.905 55.8479 117.687 60.7992 120.576C68.0209 124.788 73.3229 130.912 77.7621 137.054C78.3653 137.889 79.9722 137.133 79.3673 136.295C72.1593 126.323 61.1138 114.725 45.3557 114.643C33.7464 114.582 23.5274 120.825 15.9861 127.403C9.70622 132.88 4.78751 139.318 1.38979 146.258C-2.40837 154.016 -3.39658 162.03 -4.84882 170.217C-7.7722 186.685 -15.8979 201.741 -26.2955 215.981C-36.7981 230.364 -49.0811 243.825 -59.96 258.014C-71.0743 272.511 -80.9874 287.727 -87.6934 303.941C-94.5731 320.572 -97.9639 338.393 -95.6129 355.903C-94.7175 362.563 -93.1587 369.328 -90.2353 375.617C-88.3895 379.587 -86.0917 383.422 -83.6564 387.176C-77.2064 397.119 -69.6479 406.615 -61.4947 415.696C-53.2298 424.903 -44.2758 433.86 -33.9778 441.64C-26.9486 446.951 -18.3744 452.892 -8.4734 453.935C4.21178 455.269 16.2971 452.411 25.7358 445.377C35.5509 438.059 41.8961 428.047 47.5125 418.409C54.143 407.037 59.8591 395.315 67.1203 384.183C76.4267 369.913 87.9484 356.579 98.9184 343.132C104.648 336.106 110.299 329.037 115.653 321.818C121.104 314.464 126.454 307.036 130.34 299.038C137.648 283.999 140.325 267.53 138.005 251.478C136.819 243.284 134.148 235.497 130.909 227.699C128.257 221.319 125.638 214.928 122.976 208.55C119.442 200.097 115.818 191.657 111.301 183.508C106.183 174.276 100.042 165.433 93.8639 156.645C89.0792 149.839 84.2224 143.067 79.3673 136.295C78.7657 135.459 77.1588 136.215 77.7621 137.054Z" fill="url(#paint2_linear_507_1306)"/>
</g>
<mask id="mask2_507_1306" style="mask-type:alpha" maskUnits="userSpaceOnUse" x="-66" y="138" width="179" height="296">
<path fill-rule="evenodd" clip-rule="evenodd" d="M79.5502 180.856C85.9347 192.061 92.8627 203.078 98.7054 214.481C104.106 225.018 108.614 236.012 110.025 247.413C111.48 259.171 109.285 270.741 104.211 281.795C99.4708 292.131 92.8111 301.81 85.6699 311.172C71.5352 329.701 55.0735 347.409 45.7977 368.04C40.655 379.473 38.4243 391.724 32.0019 402.788C27.3047 410.88 21.8937 419.405 14.0559 425.82C10.5196 428.715 6.09932 431.344 0.949753 431.803C-4.58164 432.298 -9.70884 429.906 -13.8901 427.226C-18.6767 424.159 -22.784 420.44 -26.7795 416.727C-30.6494 413.131 -34.7171 409.646 -38.4356 405.951C-56.1581 388.347 -65.2412 365.417 -63.5058 342.782C-61.6362 318.411 -48.408 295.758 -33.9534 274.732C-19.6313 253.9 -3.42926 233.728 6.78902 211.249C9.28124 205.766 11.3951 200.167 12.9843 194.467C14.694 188.35 15.5883 182.15 16.5034 175.931C17.9791 165.92 20.3027 155.736 27.0966 147.077C29.6318 143.848 33.1319 140.472 38.0459 139.772C41.8212 139.234 45.4864 140.375 48.5738 142.068C52.767 144.369 56.1639 147.619 59.1446 150.892C63.0231 155.149 66.3564 159.725 69.4661 164.369C73.0798 169.761 76.3752 175.288 79.5502 180.856C80.0508 181.732 81.6538 180.969 81.1567 180.097C75.0491 169.386 68.6388 158.41 59.7053 149.011C54.8224 143.87 47.5985 137.455 38.7012 138.191C28.5396 139.031 23.0994 148.804 20 155.531C14.8952 166.618 14.9158 178.511 12.231 190.019C6.49146 214.602 -9.02602 236.677 -24.3268 258.091C-39.5209 279.36 -55.2138 301.051 -62.1367 325.21C-65.4597 336.804 -66.5449 348.786 -64.5739 360.604C-62.694 371.871 -58.2289 382.843 -51.5108 392.834C-48.1912 397.771 -44.3127 402.457 -39.9406 406.824C-36.0621 410.699 -31.8052 414.351 -27.7512 418.109C-23.668 421.892 -19.4507 425.655 -14.511 428.728C-10.4433 431.256 -5.55858 433.476 -0.269699 433.372C10.5041 433.159 18.3558 424.928 23.6618 418.284C30.7429 409.418 36.2038 399.769 39.8501 389.646C42.0327 383.585 43.8507 377.436 46.3017 371.439C48.529 365.992 51.3154 360.706 54.4681 355.569C60.6754 345.45 68.2312 335.926 75.8128 326.455C90.9673 307.521 107.825 287.495 111.574 264.615C115.477 240.789 103.451 218.323 91.1634 197.262C87.8267 191.541 84.4298 185.843 81.1567 180.097C80.6562 179.219 79.0515 179.982 79.5502 180.856Z" fill="white"/>
</mask>
<g mask="url(#mask2_507_1306)">
<path fill-rule="evenodd" clip-rule="evenodd" d="M79.5502 180.856C85.9347 192.061 92.8627 203.078 98.7054 214.481C104.106 225.018 108.614 236.012 110.025 247.413C111.48 259.171 109.285 270.741 104.211 281.795C99.4708 292.131 92.8111 301.81 85.6699 311.172C71.5352 329.701 55.0735 347.409 45.7977 368.04C40.655 379.473 38.4243 391.724 32.0019 402.788C27.3047 410.88 21.8937 419.405 14.0559 425.82C10.5196 428.715 6.09932 431.344 0.949753 431.803C-4.58164 432.298 -9.70884 429.906 -13.8901 427.226C-18.6767 424.159 -22.784 420.44 -26.7795 416.727C-30.6494 413.131 -34.7171 409.646 -38.4356 405.951C-56.1581 388.347 -65.2412 365.417 -63.5058 342.782C-61.6362 318.411 -48.408 295.758 -33.9534 274.732C-19.6313 253.9 -3.42926 233.728 6.78902 211.249C9.28124 205.766 11.3951 200.167 12.9843 194.467C14.694 188.35 15.5883 182.15 16.5034 175.931C17.9791 165.92 20.3027 155.736 27.0966 147.077C29.6318 143.848 33.1319 140.472 38.0459 139.772C41.8212 139.234 45.4864 140.375 48.5738 142.068C52.767 144.369 56.1639 147.619 59.1446 150.892C63.0231 155.149 66.3564 159.725 69.4661 164.369C73.0798 169.761 76.3752 175.288 79.5502 180.856C80.0508 181.732 81.6538 180.969 81.1567 180.097C75.0491 169.386 68.6388 158.41 59.7053 149.011C54.8224 143.87 47.5985 137.455 38.7012 138.191C28.5396 139.031 23.0994 148.804 20 155.531C14.8952 166.618 14.9158 178.511 12.231 190.019C6.49146 214.602 -9.02602 236.677 -24.3268 258.091C-39.5209 279.36 -55.2138 301.051 -62.1367 325.21C-65.4597 336.804 -66.5449 348.786 -64.5739 360.604C-62.694 371.871 -58.2289 382.843 -51.5108 392.834C-48.1912 397.771 -44.3127 402.457 -39.9406 406.824C-36.0621 410.699 -31.8052 414.351 -27.7512 418.109C-23.668 421.892 -19.4507 425.655 -14.511 428.728C-10.4433 431.256 -5.55858 433.476 -0.269699 433.372C10.5041 433.159 18.3558 424.928 23.6618 418.284C30.7429 409.418 36.2038 399.769 39.8501 389.646C42.0327 383.585 43.8507 377.436 46.3017 371.439C48.529 365.992 51.3154 360.706 54.4681 355.569C60.6754 345.45 68.2312 335.926 75.8128 326.455C90.9673 307.521 107.825 287.495 111.574 264.615C115.477 240.789 103.451 218.323 91.1634 197.262C87.8267 191.541 84.4298 185.843 81.1567 180.097C80.6562 179.219 79.0515 179.982 79.5502 180.856Z" fill="white" fill-opacity="0.08"/>
<path fill-rule="evenodd" clip-rule="evenodd" d="M79.5502 180.856C85.9347 192.061 92.8627 203.078 98.7054 214.481C104.106 225.018 108.614 236.012 110.025 247.413C111.48 259.171 109.285 270.741 104.211 281.795C99.4708 292.131 92.8111 301.81 85.6699 311.172C71.5352 329.701 55.0735 347.409 45.7977 368.04C40.655 379.473 38.4243 391.724 32.0019 402.788C27.3047 410.88 21.8937 419.405 14.0559 425.82C10.5196 428.715 6.09932 431.344 0.949753 431.803C-4.58164 432.298 -9.70884 429.906 -13.8901 427.226C-18.6767 424.159 -22.784 420.44 -26.7795 416.727C-30.6494 413.131 -34.7171 409.646 -38.4356 405.951C-56.1581 388.347 -65.2412 365.417 -63.5058 342.782C-61.6362 318.411 -48.408 295.758 -33.9534 274.732C-19.6313 253.9 -3.42926 233.728 6.78902 211.249C9.28124 205.766 11.3951 200.167 12.9843 194.467C14.694 188.35 15.5883 182.15 16.5034 175.931C17.9791 165.92 20.3027 155.736 27.0966 147.077C29.6318 143.848 33.1319 140.472 38.0459 139.772C41.8212 139.234 45.4864 140.375 48.5738 142.068C52.767 144.369 56.1639 147.619 59.1446 150.892C63.0231 155.149 66.3564 159.725 69.4661 164.369C73.0798 169.761 76.3752 175.288 79.5502 180.856C80.0508 181.732 81.6538 180.969 81.1567 180.097C75.0491 169.386 68.6388 158.41 59.7053 149.011C54.8224 143.87 47.5985 137.455 38.7012 138.191C28.5396 139.031 23.0994 148.804 20 155.531C14.8952 166.618 14.9158 178.511 12.231 190.019C6.49146 214.602 -9.02602 236.677 -24.3268 258.091C-39.5209 279.36 -55.2138 301.051 -62.1367 325.21C-65.4597 336.804 -66.5449 348.786 -64.5739 360.604C-62.694 371.871 -58.2289 382.843 -51.5108 392.834C-48.1912 397.771 -44.3127 402.457 -39.9406 406.824C-36.0621 410.699 -31.8052 414.351 -27.7512 418.109C-23.668 421.892 -19.4507 425.655 -14.511 428.728C-10.4433 431.256 -5.55858 433.476 -0.269699 433.372C10.5041 433.159 18.3558 424.928 23.6618 418.284C30.7429 409.418 36.2038 399.769 39.8501 389.646C42.0327 383.585 43.8507 377.436 46.3017 371.439C48.529 365.992 51.3154 360.706 54.4681 355.569C60.6754 345.45 68.2312 335.926 75.8128 326.455C90.9673 307.521 107.825 287.495 111.574 264.615C115.477 240.789 103.451 218.323 91.1634 197.262C87.8267 191.541 84.4298 185.843 81.1567 180.097C80.6562 179.219 79.0515 179.982 79.5502 180.856Z" fill="url(#paint3_linear_507_1306)"/>
</g>
<mask id="mask3_507_1306" style="mask-type:alpha" maskUnits="userSpaceOnUse" x="8" y="177" width="76" height="131">
<path fill-rule="evenodd" clip-rule="evenodd" d="M56.4481 182.887C64.0809 191.157 69.062 200.662 72.2672 210.595C75.5155 220.675 77.1017 231.041 78.7517 241.349C80.4552 251.992 82.9345 262.63 81.4914 273.395C80.1396 283.48 75.2155 293.189 65.3895 299.806C56.6636 305.684 44.7825 308.321 33.9428 304.807C23.5703 301.445 16.0703 293.461 12.8771 285.019C8.68573 273.935 11.0409 261.975 14.8547 251.055C18.7479 239.912 24.3289 229.153 27.1531 217.772C29.4376 208.563 29.8066 198.901 34.1531 190.09C35.879 186.593 38.398 182.997 41.9308 180.468C43.9618 179.015 47.0515 178.194 49.8343 178.795C52.5981 179.392 54.7619 181.101 56.4481 182.887C57.1654 183.647 58.7843 182.9 58.0567 182.13C55.0067 178.896 50.5463 176.209 45.2653 177.368C42.4394 177.989 40.3773 179.435 38.529 181.192C30.66 188.68 28.9186 198.808 27.2186 208.18C26.2479 213.523 25.1462 218.81 23.3996 224.031C21.4496 229.863 18.991 235.572 16.6513 241.308C12.0271 252.642 7.76331 264.517 9.04263 276.578C10.0823 286.405 15.2427 296.047 25.0117 302.277C29.4376 305.097 34.6514 307.09 40.2687 307.715C46.0584 308.359 51.8877 307.541 57.2205 305.663C68.4551 301.71 76.5965 293.536 80.4672 284.314C84.9724 273.582 84.1983 262.079 82.231 251.037C80.3017 240.22 78.9896 229.32 76.4034 218.584C73.9051 208.208 70.0896 197.945 63.4775 188.751C61.8309 186.461 60.0171 184.253 58.0567 182.13C57.3498 181.362 55.7309 182.11 56.4481 182.887Z" fill="white"/>
</mask>
<g mask="url(#mask3_507_1306)">
<path fill-rule="evenodd" clip-rule="evenodd" d="M56.4481 182.887C64.0809 191.157 69.062 200.662 72.2672 210.595C75.5155 220.675 77.1017 231.041 78.7517 241.349C80.4552 251.992 82.9345 262.63 81.4914 273.395C80.1396 283.48 75.2155 293.189 65.3895 299.806C56.6636 305.684 44.7825 308.321 33.9428 304.807C23.5703 301.445 16.0703 293.461 12.8771 285.019C8.68573 273.935 11.0409 261.975 14.8547 251.055C18.7479 239.912 24.3289 229.153 27.1531 217.772C29.4376 208.563 29.8066 198.901 34.1531 190.09C35.879 186.593 38.398 182.997 41.9308 180.468C43.9618 179.015 47.0515 178.194 49.8343 178.795C52.5981 179.392 54.7619 181.101 56.4481 182.887C57.1654 183.647 58.7843 182.9 58.0567 182.13C55.0067 178.896 50.5463 176.209 45.2653 177.368C42.4394 177.989 40.3773 179.435 38.529 181.192C30.66 188.68 28.9186 198.808 27.2186 208.18C26.2479 213.523 25.1462 218.81 23.3996 224.031C21.4496 229.863 18.991 235.572 16.6513 241.308C12.0271 252.642 7.76331 264.517 9.04263 276.578C10.0823 286.405 15.2427 296.047 25.0117 302.277C29.4376 305.097 34.6514 307.09 40.2687 307.715C46.0584 308.359 51.8877 307.541 57.2205 305.663C68.4551 301.71 76.5965 293.536 80.4672 284.314C84.9724 273.582 84.1983 262.079 82.231 251.037C80.3017 240.22 78.9896 229.32 76.4034 218.584C73.9051 208.208 70.0896 197.945 63.4775 188.751C61.8309 186.461 60.0171 184.253 58.0567 182.13C57.3498 181.362 55.7309 182.11 56.4481 182.887Z" fill="white" fill-opacity="0.08"/>
<path fill-rule="evenodd" clip-rule="evenodd" d="M56.4481 182.887C64.0809 191.157 69.062 200.662 72.2672 210.595C75.5155 220.675 77.1017 231.041 78.7517 241.349C80.4552 251.992 82.9345 262.63 81.4914 273.395C80.1396 283.48 75.2155 293.189 65.3895 299.806C56.6636 305.684 44.7825 308.321 33.9428 304.807C23.5703 301.445 16.0703 293.461 12.8771 285.019C8.68573 273.935 11.0409 261.975 14.8547 251.055C18.7479 239.912 24.3289 229.153 27.1531 217.772C29.4376 208.563 29.8066 198.901 34.1531 190.09C35.879 186.593 38.398 182.997 41.9308 180.468C43.9618 179.015 47.0515 178.194 49.8343 178.795C52.5981 179.392 54.7619 181.101 56.4481 182.887C57.1654 183.647 58.7843 182.9 58.0567 182.13C55.0067 178.896 50.5463 176.209 45.2653 177.368C42.4394 177.989 40.3773 179.435 38.529 181.192C30.66 188.68 28.9186 198.808 27.2186 208.18C26.2479 213.523 25.1462 218.81 23.3996 224.031C21.4496 229.863 18.991 235.572 16.6513 241.308C12.0271 252.642 7.76331 264.517 9.04263 276.578C10.0823 286.405 15.2427 296.047 25.0117 302.277C29.4376 305.097 34.6514 307.09 40.2687 307.715C46.0584 308.359 51.8877 307.541 57.2205 305.663C68.4551 301.71 76.5965 293.536 80.4672 284.314C84.9724 273.582 84.1983 262.079 82.231 251.037C80.3017 240.22 78.9896 229.32 76.4034 218.584C73.9051 208.208 70.0896 197.945 63.4775 188.751C61.8309 186.461 60.0171 184.253 58.0567 182.13C57.3498 181.362 55.7309 182.11 56.4481 182.887Z" fill="url(#paint4_linear_507_1306)"/>
</g>
<mask id="mask4_507_1306" style="mask-type:alpha" maskUnits="userSpaceOnUse" x="-49" y="322" width="84" height="76">
<path fill-rule="evenodd" clip-rule="evenodd" d="M-45.5062 358.269C-42.1694 368.239 -33.7504 376.326 -25.8618 384.175C-19.1317 390.869 -9.63978 398.951 2.17596 396.582C7.45155 395.525 11.7261 392.505 15.1091 389.185C18.8737 385.494 21.9367 381.32 24.892 377.19C31.2233 368.338 37.2467 357.77 33.8894 347.334C30.8144 337.777 20.5164 331.325 9.73084 327.686C3.3293 325.525 -3.42646 324.179 -10.148 322.865C-10.8701 322.725 -11.5871 322.64 -12.3246 322.564C-15.451 322.249 -18.6286 322.187 -21.7704 322.37C-26.3495 322.637 -30.9286 323.434 -35.0492 325.114C-39.707 327.013 -43.4648 330.113 -45.5713 333.99C-48.6411 339.642 -48.4135 346.078 -47.1849 352.05C-46.7554 354.145 -46.177 356.217 -45.5062 358.269C-45.2016 359.2 -43.4152 358.805 -43.7215 357.869C-45.8057 351.491 -47.2551 344.491 -45.2872 337.964C-44.0671 333.921 -41.3395 330.272 -37.1043 327.855C-33.4646 325.779 -29.1507 324.662 -24.7786 324.132C-21.3289 323.713 -17.785 323.674 -14.3079 323.9C-13.7466 323.938 -13.1854 323.982 -12.6258 324.035C-12.4872 324.049 -11.8506 324.117 -12.1843 324.078C-12.0235 324.097 -11.8626 324.115 -11.7035 324.135C-8.84579 324.487 -6.00351 325.215 -3.21599 325.817C8.39612 328.325 20.5592 332.13 27.7958 340.366C31.2559 344.301 33.056 348.94 32.9927 353.774C32.9242 358.902 30.9547 363.918 28.3674 368.554C25.7783 373.196 22.5493 377.6 19.2057 381.907C16.3566 385.575 13.2405 389.243 9.07033 392.016C4.95835 394.752 -0.277882 396.16 -5.56202 395.179C-10.9745 394.172 -15.4629 391.167 -19.2464 388.012C-23.3276 384.606 -26.9467 380.8 -30.547 377.065C-34.3151 373.156 -37.8897 369.074 -40.5831 364.605C-41.8871 362.442 -42.9429 360.193 -43.7215 357.869C-44.0329 356.939 -45.8177 357.336 -45.5062 358.269Z" fill="white"/>
</mask>
<g mask="url(#mask4_507_1306)">
<path fill-rule="evenodd" clip-rule="evenodd" d="M-45.5062 358.269C-42.1694 368.239 -33.7504 376.326 -25.8618 384.175C-19.1317 390.869 -9.63978 398.951 2.17596 396.582C7.45155 395.525 11.7261 392.505 15.1091 389.185C18.8737 385.494 21.9367 381.32 24.892 377.19C31.2233 368.338 37.2467 357.77 33.8894 347.334C30.8144 337.777 20.5164 331.325 9.73084 327.686C3.3293 325.525 -3.42646 324.179 -10.148 322.865C-10.8701 322.725 -11.5871 322.64 -12.3246 322.564C-15.451 322.249 -18.6286 322.187 -21.7704 322.37C-26.3495 322.637 -30.9286 323.434 -35.0492 325.114C-39.707 327.013 -43.4648 330.113 -45.5713 333.99C-48.6411 339.642 -48.4135 346.078 -47.1849 352.05C-46.7554 354.145 -46.177 356.217 -45.5062 358.269C-45.2016 359.2 -43.4152 358.805 -43.7215 357.869C-45.8057 351.491 -47.2551 344.491 -45.2872 337.964C-44.0671 333.921 -41.3395 330.272 -37.1043 327.855C-33.4646 325.779 -29.1507 324.662 -24.7786 324.132C-21.3289 323.713 -17.785 323.674 -14.3079 323.9C-13.7466 323.938 -13.1854 323.982 -12.6258 324.035C-12.4872 324.049 -11.8506 324.117 -12.1843 324.078C-12.0235 324.097 -11.8626 324.115 -11.7035 324.135C-8.84579 324.487 -6.00351 325.215 -3.21599 325.817C8.39612 328.325 20.5592 332.13 27.7958 340.366C31.2559 344.301 33.056 348.94 32.9927 353.774C32.9242 358.902 30.9547 363.918 28.3674 368.554C25.7783 373.196 22.5493 377.6 19.2057 381.907C16.3566 385.575 13.2405 389.243 9.07033 392.016C4.95835 394.752 -0.277882 396.16 -5.56202 395.179C-10.9745 394.172 -15.4629 391.167 -19.2464 388.012C-23.3276 384.606 -26.9467 380.8 -30.547 377.065C-34.3151 373.156 -37.8897 369.074 -40.5831 364.605C-41.8871 362.442 -42.9429 360.193 -43.7215 357.869C-44.0329 356.939 -45.8177 357.336 -45.5062 358.269Z" fill="white" fill-opacity="0.08"/>
<path fill-rule="evenodd" clip-rule="evenodd" d="M-45.5062 358.269C-42.1694 368.239 -33.7504 376.326 -25.8618 384.175C-19.1317 390.869 -9.63978 398.951 2.17596 396.582C7.45155 395.525 11.7261 392.505 15.1091 389.185C18.8737 385.494 21.9367 381.32 24.892 377.19C31.2233 368.338 37.2467 357.77 33.8894 347.334C30.8144 337.777 20.5164 331.325 9.73084 327.686C3.3293 325.525 -3.42646 324.179 -10.148 322.865C-10.8701 322.725 -11.5871 322.64 -12.3246 322.564C-15.451 322.249 -18.6286 322.187 -21.7704 322.37C-26.3495 322.637 -30.9286 323.434 -35.0492 325.114C-39.707 327.013 -43.4648 330.113 -45.5713 333.99C-48.6411 339.642 -48.4135 346.078 -47.1849 352.05C-46.7554 354.145 -46.177 356.217 -45.5062 358.269C-45.2016 359.2 -43.4152 358.805 -43.7215 357.869C-45.8057 351.491 -47.2551 344.491 -45.2872 337.964C-44.0671 333.921 -41.3395 330.272 -37.1043 327.855C-33.4646 325.779 -29.1507 324.662 -24.7786 324.132C-21.3289 323.713 -17.785 323.674 -14.3079 323.9C-13.7466 323.938 -13.1854 323.982 -12.6258 324.035C-12.4872 324.049 -11.8506 324.117 -12.1843 324.078C-12.0235 324.097 -11.8626 324.115 -11.7035 324.135C-8.84579 324.487 -6.00351 325.215 -3.21599 325.817C8.39612 328.325 20.5592 332.13 27.7958 340.366C31.2559 344.301 33.056 348.94 32.9927 353.774C32.9242 358.902 30.9547 363.918 28.3674 368.554C25.7783 373.196 22.5493 377.6 19.2057 381.907C16.3566 385.575 13.2405 389.243 9.07033 392.016C4.95835 394.752 -0.277882 396.16 -5.56202 395.179C-10.9745 394.172 -15.4629 391.167 -19.2464 388.012C-23.3276 384.606 -26.9467 380.8 -30.547 377.065C-34.3151 373.156 -37.8897 369.074 -40.5831 364.605C-41.8871 362.442 -42.9429 360.193 -43.7215 357.869C-44.0329 356.939 -45.8177 357.336 -45.5062 358.269Z" fill="url(#paint5_linear_507_1306)"/>
</g>
<mask id="mask5_507_1306" style="mask-type:alpha" maskUnits="userSpaceOnUse" x="180" y="356" width="182" height="179">
<path fill-rule="evenodd" clip-rule="evenodd" d="M284.943 357.111C289.099 356.76 293.302 356.841 297.436 357.343C302.855 358.003 308.13 359.476 312.843 361.746C318.806 364.622 323.716 368.718 327.468 373.418C332.76 380.044 335.798 387.715 337.649 395.41C338.728 399.947 339.679 404.502 340.534 409.071C341.789 415.783 343.032 422.443 345.663 428.915C349.529 438.429 356.199 447.04 359.728 456.656C361.407 461.229 362.289 466.043 361.64 470.808C361.045 475.181 359.232 479.375 356.52 483.178C350.957 490.977 342.038 497.049 332.415 501.402C320.813 506.649 307.98 509.747 295.611 513.548C289.232 515.512 283.005 517.721 276.992 520.339C271.146 522.885 265.478 525.685 259.705 528.337C254.902 530.545 249.991 532.642 244.921 534.385L240.466 534.384C241.156 534.177 241.84 533.963 242.517 533.741C254.645 529.777 265.476 523.715 276.985 518.768C288.606 513.773 301.109 510.567 313.374 506.807C324.672 503.343 335.772 499.201 344.793 492.56C352.819 486.651 359.182 478.81 360.034 469.867C360.967 460.055 355.564 450.891 350.629 442.213C348.119 437.801 345.608 433.365 343.787 428.733C342.556 425.604 341.56 422.418 340.803 419.192C338.979 411.419 337.842 403.553 335.994 395.779C335.019 391.732 333.728 387.73 331.946 383.863C329.179 377.853 325.161 372.12 319.457 367.613C315.217 364.264 310.098 361.689 304.485 360.148C299.981 358.911 295.244 358.315 290.492 358.285C287.3 358.265 284.248 358.471 281.235 358.947C276.863 359.64 272.653 360.892 268.852 362.789C259.702 367.358 253.259 374.871 248.901 382.683C243.669 392.055 241.501 402.33 238.528 412.263C236.977 417.446 235.222 422.605 232.78 427.566C230.426 432.343 227.431 436.891 224.063 441.248C217.273 450.038 209.09 458.041 201.723 466.508C194.474 474.838 187.831 483.774 184.585 493.703C181.832 502.118 181.938 511.092 185.842 519.27C188.939 525.757 194.526 531.193 201.973 534.385L198.535 534.385C196.584 533.388 194.745 532.217 193.051 530.863C185.641 524.935 181.864 516.556 181.088 508.262C180.186 498.635 183.704 489.179 189 480.646C194.018 472.559 200.615 465.244 207.287 458.01L210.448 454.587C218.309 446.055 226.125 437.285 231.051 427.345C236.106 417.144 238.199 406.223 241.656 395.643C244.622 386.558 248.833 377.719 256.124 370.296C262.012 364.298 269.662 359.822 278.902 357.953C280.887 357.552 282.907 357.285 284.943 357.111ZM335.976 395.652L335.993 395.78C336.194 396.612 337.697 396.319 337.666 395.538L337.648 395.41C337.451 394.578 335.948 394.871 335.976 395.652Z" fill="white"/>
</mask>
<g mask="url(#mask5_507_1306)">
<path fill-rule="evenodd" clip-rule="evenodd" d="M-678.453 534.385H608.934V-159.854H-678.453V534.385Z" fill="white" fill-opacity="0.08"/>
<path fill-rule="evenodd" clip-rule="evenodd" d="M-678.453 534.385H608.934V-159.854H-678.453V534.385Z" fill="url(#paint6_linear_507_1306)"/>
</g>
<mask id="mask6_507_1306" style="mask-type:alpha" maskUnits="userSpaceOnUse" x="98" y="311" width="446" height="224">
<path fill-rule="evenodd" clip-rule="evenodd" d="M261.361 325.756C272.781 316.763 288.436 309.816 304.856 311.563C317.845 312.945 328.119 319.84 335.206 328.425C350.811 347.33 351.714 371.28 366.846 390.373C374.262 399.724 385.375 407.387 399.654 407.901C417.575 408.547 432.912 398.876 445.683 389.872C457.314 381.672 469.482 372.216 484.931 369.172C496.935 366.806 511.676 368.134 520.29 375.999C527.086 382.204 527.651 390.045 527.68 397.962L527.68 399.212L527.676 401.087L527.676 402.335C527.686 405.658 527.786 408.943 528.402 412.074C530.906 424.796 544.902 434.548 543.588 447.977C542.955 454.423 539.383 460.376 535.308 465.831C530.897 471.734 525.873 477.316 521.545 483.264C512.72 495.388 505.681 508.346 500.527 521.782C498.931 525.942 497.517 530.145 496.286 534.383L494.517 534.384C497.307 524.718 501.042 515.233 505.688 506.053C512.025 493.534 520.202 481.952 529.426 470.698C534.066 465.034 538.783 459.131 540.91 452.481C543.118 445.578 541.303 439.113 537.476 432.841C534.02 427.177 529.609 421.801 527.573 415.638C526.065 411.066 525.947 406.328 525.953 401.611L525.959 399.726C525.963 398.784 525.964 397.844 525.954 396.908C525.884 390.398 525.224 383.517 520.23 378.122C516.18 373.744 509.918 371.165 503.392 370.101C488.043 367.598 473.845 373.141 461.95 380.551C448.809 388.737 437.531 398.962 422.438 404.938C409.29 410.145 394.112 411.135 381.382 404.612C370.502 399.034 363.43 389.665 358.35 380.331C352.873 370.269 349.959 359.569 345.5 349.223C341.072 338.945 335.178 328.311 325.066 320.841C320.186 317.238 314.325 314.615 307.873 313.408C299.603 311.862 290.929 312.922 283.134 315.475C266.575 320.895 255.156 332.59 244.932 343.926C223.962 367.179 203.141 390.545 183.215 414.396C163.398 438.116 144.528 462.387 127.763 487.613C117.636 502.85 108.298 518.437 100.023 534.383L98.1543 534.383C109.887 511.707 123.769 489.777 138.989 468.505C157.025 443.295 176.919 418.991 197.52 395.116C207.837 383.159 218.334 371.306 228.889 359.488C234.122 353.626 239.335 347.749 244.628 341.923C249.773 336.259 255.122 330.67 261.361 325.756Z" fill="white"/>
<path fill-rule="evenodd" clip-rule="evenodd" d="M261.361 325.756C272.781 316.763 288.436 309.816 304.856 311.563C317.845 312.945 328.119 319.84 335.206 328.425C350.811 347.33 351.714 371.28 366.846 390.373C374.262 399.724 385.375 407.387 399.654 407.901C417.575 408.547 432.912 398.876 445.683 389.872C457.314 381.672 469.482 372.216 484.931 369.172C496.935 366.806 511.676 368.134 520.29 375.999C527.086 382.204 527.651 390.045 527.68 397.962L527.68 399.212L527.676 401.087L527.676 402.335C527.686 405.658 527.786 408.943 528.402 412.074C530.906 424.796 544.902 434.548 543.588 447.977C542.955 454.423 539.383 460.376 535.308 465.831C530.897 471.734 525.873 477.316 521.545 483.264C512.72 495.388 505.681 508.346 500.527 521.782C498.931 525.942 497.517 530.145 496.286 534.383L494.517 534.384C497.307 524.718 501.042 515.233 505.688 506.053C512.025 493.534 520.202 481.952 529.426 470.698C534.066 465.034 538.783 459.131 540.91 452.481C543.118 445.578 541.303 439.113 537.476 432.841C534.02 427.177 529.609 421.801 527.573 415.638C526.065 411.066 525.947 406.328 525.953 401.611L525.959 399.726C525.963 398.784 525.964 397.844 525.954 396.908C525.884 390.398 525.224 383.517 520.23 378.122C516.18 373.744 509.918 371.165 503.392 370.101C488.043 367.598 473.845 373.141 461.95 380.551C448.809 388.737 437.531 398.962 422.438 404.938C409.29 410.145 394.112 411.135 381.382 404.612C370.502 399.034 363.43 389.665 358.35 380.331C352.873 370.269 349.959 359.569 345.5 349.223C341.072 338.945 335.178 328.311 325.066 320.841C320.186 317.238 314.325 314.615 307.873 313.408C299.603 311.862 290.929 312.922 283.134 315.475C266.575 320.895 255.156 332.59 244.932 343.926C223.962 367.179 203.141 390.545 183.215 414.396C163.398 438.116 144.528 462.387 127.763 487.613C117.636 502.85 108.298 518.437 100.023 534.383L98.1543 534.383C109.887 511.707 123.769 489.777 138.989 468.505C157.025 443.295 176.919 418.991 197.52 395.116C207.837 383.159 218.334 371.306 228.889 359.488C234.122 353.626 239.335 347.749 244.628 341.923C249.773 336.259 255.122 330.67 261.361 325.756Z" stroke="white"/>
</mask>
<g mask="url(#mask6_507_1306)">
<path fill-rule="evenodd" clip-rule="evenodd" d="M-678.482 534.384H609.185V-160.059H-678.482V534.384Z" fill="white" fill-opacity="0.08"/>
<path fill-rule="evenodd" clip-rule="evenodd" d="M-678.482 534.384H609.185V-160.059H-678.482V534.384Z" fill="url(#paint7_linear_507_1306)"/>
</g>
<mask id="mask7_507_1306" style="mask-type:alpha" maskUnits="userSpaceOnUse" x="57" y="288" width="519" height="247">
<path fill-rule="evenodd" clip-rule="evenodd" d="M298.426 288.982C313.221 288.015 328.751 290.266 341.289 296.943C355.003 304.245 362.61 316.067 369.172 327.847C369.767 328.915 370.361 329.988 370.957 331.062L371.854 332.674C377.705 343.15 384.028 353.606 394.983 361.252C401.044 365.481 408.446 368.483 416.498 369.001C423.796 369.468 430.962 367.949 437.582 365.553C443.257 363.502 448.586 360.932 453.879 358.308L457.406 356.555C463.286 353.638 469.206 350.782 475.589 348.625C489.951 343.77 505.105 344.507 518.805 350.492C533.687 356.994 544.199 367.988 551.459 380.134C559.349 393.34 564.47 407.805 569.341 421.894C574.44 436.646 577.639 451.996 573.177 467.137C569.175 480.708 560.282 492.914 551.111 504.573C543.92 513.715 535.636 523.784 529.179 534.385L527.149 534.386C531.257 527.537 536.208 520.926 541.311 514.409L542.552 512.83C543.796 511.251 545.045 509.678 546.29 508.108L547.533 506.538C551.256 501.831 554.912 497.142 558.234 492.416C567.094 479.813 573.763 466.214 573.682 451.511C573.591 435.58 567.107 420.105 561.26 405.07C555.854 391.168 549.677 376.897 538.179 365.437C527.861 355.149 512.487 346.978 495.712 346.655C481.933 346.391 469.84 352.014 458.404 357.671L456.883 358.425C456.124 358.801 455.368 359.177 454.615 359.549L453.185 360.255C442.183 365.669 430.145 371.151 416.858 370.411C402.001 369.584 390.397 361.16 382.312 351.639C377.326 345.766 373.642 339.337 370.059 332.861L368.527 330.084C365.971 325.456 363.379 320.842 360.314 316.426C356.257 310.586 351.324 305.105 344.909 300.817C338.878 296.787 331.731 293.944 324.222 292.235C309.188 288.815 292.821 289.754 278.122 293.798C247.787 302.141 224.724 322.412 204.141 341.799L202.477 343.368C201.095 344.674 199.724 345.975 198.362 347.266C175.19 369.225 153.878 392.462 134.507 416.712C115.251 440.821 97.915 465.926 82.5565 491.801C74.2561 505.783 66.5422 519.989 59.4132 534.385L57.5625 534.384C68.0359 513.198 79.7745 492.421 92.7548 472.166C109.361 446.249 127.998 421.182 148.601 397.218C168.92 373.582 191.104 350.899 215.243 329.739C237.448 310.274 264.336 291.21 298.426 288.982Z" fill="white"/>
<path fill-rule="evenodd" clip-rule="evenodd" d="M298.426 288.982C313.221 288.015 328.751 290.266 341.289 296.943C355.003 304.245 362.61 316.067 369.172 327.847C369.767 328.915 370.361 329.988 370.957 331.062L371.854 332.674C377.705 343.15 384.028 353.606 394.983 361.252C401.044 365.481 408.446 368.483 416.498 369.001C423.796 369.468 430.962 367.949 437.582 365.553C443.257 363.502 448.586 360.932 453.879 358.308L457.406 356.555C463.286 353.638 469.206 350.782 475.589 348.625C489.951 343.77 505.105 344.507 518.805 350.492C533.687 356.994 544.199 367.988 551.459 380.134C559.349 393.34 564.47 407.805 569.341 421.894C574.44 436.646 577.639 451.996 573.177 467.137C569.175 480.708 560.282 492.914 551.111 504.573C543.92 513.715 535.636 523.784 529.179 534.385L527.149 534.386C531.257 527.537 536.208 520.926 541.311 514.409L542.552 512.83C543.796 511.251 545.045 509.678 546.29 508.108L547.533 506.538C551.256 501.831 554.912 497.142 558.234 492.416C567.094 479.813 573.763 466.214 573.682 451.511C573.591 435.58 567.107 420.105 561.26 405.07C555.854 391.168 549.677 376.897 538.179 365.437C527.861 355.149 512.487 346.978 495.712 346.655C481.933 346.391 469.84 352.014 458.404 357.671L456.883 358.425C456.124 358.801 455.368 359.177 454.615 359.549L453.185 360.255C442.183 365.669 430.145 371.151 416.858 370.411C402.001 369.584 390.397 361.16 382.312 351.639C377.326 345.766 373.642 339.337 370.059 332.861L368.527 330.084C365.971 325.456 363.379 320.842 360.314 316.426C356.257 310.586 351.324 305.105 344.909 300.817C338.878 296.787 331.731 293.944 324.222 292.235C309.188 288.815 292.821 289.754 278.122 293.798C247.787 302.141 224.724 322.412 204.141 341.799L202.477 343.368C201.095 344.674 199.724 345.975 198.362 347.266C175.19 369.225 153.878 392.462 134.507 416.712C115.251 440.821 97.915 465.926 82.5565 491.801C74.2561 505.783 66.5422 519.989 59.4132 534.385L57.5625 534.384C68.0359 513.198 79.7745 492.421 92.7548 472.166C109.361 446.249 127.998 421.182 148.601 397.218C168.92 373.582 191.104 350.899 215.243 329.739C237.448 310.274 264.336 291.21 298.426 288.982Z" stroke="white"/>
</mask>
<g mask="url(#mask7_507_1306)">
<path fill-rule="evenodd" clip-rule="evenodd" d="M-387.998 473.929H391.148V-50.3848H-387.998V473.929Z" fill="white" fill-opacity="0.08"/>
<path fill-rule="evenodd" clip-rule="evenodd" d="M-387.998 473.929H391.148V-50.3848H-387.998V473.929Z" fill="url(#paint8_linear_507_1306)"/>
</g>
<mask id="mask8_507_1306" style="mask-type:alpha" maskUnits="userSpaceOnUse" x="21" y="244" width="579" height="291">
<path fill-rule="evenodd" clip-rule="evenodd" d="M301.415 244.789C318.816 242.926 337.306 245.514 351.315 254.488C362.801 261.845 369.891 272.182 376.999 282.38L378.185 284.078C379.965 286.622 381.763 289.146 383.645 291.602C393.975 305.077 408.626 317.656 429.677 317.336C439.216 317.19 448.438 314.852 457.457 312.456L459.708 311.857L460.831 311.559C469.534 309.251 478.242 307.173 487.343 306.222C503.145 304.57 520.234 305.218 535.088 310.237C541.645 312.453 547.798 315.65 552.418 320.073C557.219 324.668 560.353 330.309 562.987 335.888C569.132 348.899 572.382 362.65 578.01 375.8C584.633 391.272 591.696 406.685 596.126 422.696C600.195 437.408 601.559 452.187 597.371 466.976C593.215 481.655 586.415 495.968 578.57 509.598C574.235 517.131 569.601 524.405 567.102 532.528C566.912 533.145 566.733 533.764 566.566 534.384L564.831 534.385C567.087 526.208 571.284 518.562 575.658 510.963L576.93 508.76C579.477 504.355 582.026 499.95 584.232 495.45C590.939 481.775 597.462 467.058 598.3 452.224C599.224 435.874 594.053 419.569 588.077 404.089C582.62 389.947 575.829 376.173 570.963 361.883C566.571 348.982 562.938 334.688 553.464 323.474C544.172 312.478 526.998 308.294 511.366 307.18C503.379 306.609 495.294 306.776 487.343 307.614C477.687 308.629 468.483 310.994 459.259 313.438C449.833 315.938 440.182 318.479 430.18 318.715C421.25 318.925 412.626 316.969 405.155 313C392.069 306.046 383.947 295.051 376.342 284.216L375.283 282.706L374.229 281.2C373.702 280.449 373.176 279.7 372.649 278.956C367.869 272.203 362.78 265.479 356.066 259.856C349.34 254.223 341.069 250.114 331.801 247.854C313.876 243.482 293.951 245.671 277.097 251.89C258.592 258.715 243.106 269.737 229.055 281.444C214.852 293.274 201.405 305.749 188.315 318.389C161.915 343.884 137.405 370.655 114.822 398.452C92.3715 426.086 71.8221 454.728 53.1862 484.164C42.7405 500.666 32.9014 517.417 23.663 534.383L21.791 534.385C35.174 509.767 49.8187 485.6 65.7332 461.991C85.6299 432.473 107.504 403.826 131.337 376.288C155.004 348.945 180.596 322.691 208.065 297.79C208.568 297.334 209.073 296.877 209.578 296.418L211.1 295.04C235.519 272.95 263.405 248.857 301.415 244.789Z" fill="white"/>
<path fill-rule="evenodd" clip-rule="evenodd" d="M301.415 244.789C318.816 242.926 337.306 245.514 351.315 254.488C362.801 261.845 369.891 272.182 376.999 282.38L378.185 284.078C379.965 286.622 381.763 289.146 383.645 291.602C393.975 305.077 408.626 317.656 429.677 317.336C439.216 317.19 448.438 314.852 457.457 312.456L459.708 311.857L460.831 311.559C469.534 309.251 478.242 307.173 487.343 306.222C503.145 304.57 520.234 305.218 535.088 310.237C541.645 312.453 547.798 315.65 552.418 320.073C557.219 324.668 560.353 330.309 562.987 335.888C569.132 348.899 572.382 362.65 578.01 375.8C584.633 391.272 591.696 406.685 596.126 422.696C600.195 437.408 601.559 452.187 597.371 466.976C593.215 481.655 586.415 495.968 578.57 509.598C574.235 517.131 569.601 524.405 567.102 532.528C566.912 533.145 566.733 533.764 566.566 534.384L564.831 534.385C567.087 526.208 571.284 518.562 575.658 510.963L576.93 508.76C579.477 504.355 582.026 499.95 584.232 495.45C590.939 481.775 597.462 467.058 598.3 452.224C599.224 435.874 594.053 419.569 588.077 404.089C582.62 389.947 575.829 376.173 570.963 361.883C566.571 348.982 562.938 334.688 553.464 323.474C544.172 312.478 526.998 308.294 511.366 307.18C503.379 306.609 495.294 306.776 487.343 307.614C477.687 308.629 468.483 310.994 459.259 313.438C449.833 315.938 440.182 318.479 430.18 318.715C421.25 318.925 412.626 316.969 405.155 313C392.069 306.046 383.947 295.051 376.342 284.216L375.283 282.706L374.229 281.2C373.702 280.449 373.176 279.7 372.649 278.956C367.869 272.203 362.78 265.479 356.066 259.856C349.34 254.223 341.069 250.114 331.801 247.854C313.876 243.482 293.951 245.671 277.097 251.89C258.592 258.715 243.106 269.737 229.055 281.444C214.852 293.274 201.405 305.749 188.315 318.389C161.915 343.884 137.405 370.655 114.822 398.452C92.3715 426.086 71.8221 454.728 53.1862 484.164C42.7405 500.666 32.9014 517.417 23.663 534.383L21.791 534.385C35.174 509.767 49.8187 485.6 65.7332 461.991C85.6299 432.473 107.504 403.826 131.337 376.288C155.004 348.945 180.596 322.691 208.065 297.79C208.568 297.334 209.073 296.877 209.578 296.418L211.1 295.04C235.519 272.95 263.405 248.857 301.415 244.789Z" stroke="white"/>
</mask>
<g mask="url(#mask8_507_1306)">
<path fill-rule="evenodd" clip-rule="evenodd" d="M-401.869 462.931H376.941V-61.5215H-401.869V462.931Z" fill="white" fill-opacity="0.08"/>
<path fill-rule="evenodd" clip-rule="evenodd" d="M-401.869 462.931H376.941V-61.5215H-401.869V462.931Z" fill="url(#paint9_linear_507_1306)"/>
</g>
<mask id="mask9_507_1306" style="mask-type:alpha" maskUnits="userSpaceOnUse" x="-91" y="-162" width="437" height="250">
<path fill-rule="evenodd" clip-rule="evenodd" d="M345.752 -161.005C340.947 -146.717 332.761 -133.091 323.102 -120.63C307.027 -99.8935 286.113 -82.0497 265.989 -63.9015C255.681 -54.6064 245.496 -45.1973 236.171 -35.2391C227.128 -25.5812 219.159 -15.3978 212.155 -4.69322C209.231 -0.224258 206.416 4.32063 203.598 8.87471L202.06 11.3593C192.307 27.0954 182.267 42.7966 167.291 55.7118C148.799 71.6582 123.573 82.3017 96.9778 85.9978C70.8608 89.6257 44.0459 86.2146 20.494 76.4177C-2.7535 66.7459 -22.2961 51.2665 -34.0986 32.3594C-47.4176 11.0211 -51.0125 -13.0292 -54.5318 -36.4484C-56.3697 -48.6807 -58.1938 -60.9379 -61.364 -73.002C-64.6822 -85.6248 -70.0634 -97.6694 -75.6458 -109.731C-75.7609 -109.98 -75.876 -110.229 -75.9912 -110.478L-76.682 -111.98C-76.9121 -112.481 -77.142 -112.985 -77.3715 -113.489L-78.0583 -115.007C-84.6719 -129.694 -90.7141 -145.442 -90.4631 -161.006L-88.7133 -161.005C-89.0627 -143.88 -82.0755 -127.69 -74.7127 -111.691L-73.7332 -109.567L-72.2636 -106.385C-69.9825 -101.438 -67.7393 -96.5006 -65.7412 -91.5519C-56.4883 -68.6401 -54.4372 -44.6009 -50.3626 -20.8745C-46.4669 1.79959 -40.1934 24.8018 -23.5872 43.8132C-8.48029 61.1093 13.679 74.3299 38.4859 81.0757C63.9547 88.0008 91.6739 87.5324 116.985 80.364C129.829 76.7263 141.993 71.4053 152.709 64.6108C163.756 57.6065 172.951 49.0439 180.681 39.5959C196.59 20.1508 206.67 -1.94096 222.224 -21.5598C238.241 -41.7597 258.634 -59.3158 278.385 -77.1095C298.338 -95.0854 317.773 -113.599 331.398 -135.254C336.562 -143.464 340.879 -152.112 343.892 -161.005L345.752 -161.005Z" fill="white"/>
<path fill-rule="evenodd" clip-rule="evenodd" d="M345.752 -161.005C340.947 -146.717 332.761 -133.091 323.102 -120.63C307.027 -99.8935 286.113 -82.0497 265.989 -63.9015C255.681 -54.6064 245.496 -45.1973 236.171 -35.2391C227.128 -25.5812 219.159 -15.3978 212.155 -4.69322C209.231 -0.224258 206.416 4.32063 203.598 8.87471L202.06 11.3593C192.307 27.0954 182.267 42.7966 167.291 55.7118C148.799 71.6582 123.573 82.3017 96.9778 85.9978C70.8608 89.6257 44.0459 86.2146 20.494 76.4177C-2.7535 66.7459 -22.2961 51.2665 -34.0986 32.3594C-47.4176 11.0211 -51.0125 -13.0292 -54.5318 -36.4484C-56.3697 -48.6807 -58.1938 -60.9379 -61.364 -73.002C-64.6822 -85.6248 -70.0634 -97.6694 -75.6458 -109.731C-75.7609 -109.98 -75.876 -110.229 -75.9912 -110.478L-76.682 -111.98C-76.9121 -112.481 -77.142 -112.985 -77.3715 -113.489L-78.0583 -115.007C-84.6719 -129.694 -90.7141 -145.442 -90.4631 -161.006L-88.7133 -161.005C-89.0627 -143.88 -82.0755 -127.69 -74.7127 -111.691L-73.7332 -109.567L-72.2636 -106.385C-69.9825 -101.438 -67.7393 -96.5006 -65.7412 -91.5519C-56.4883 -68.6401 -54.4372 -44.6009 -50.3626 -20.8745C-46.4669 1.79959 -40.1934 24.8018 -23.5872 43.8132C-8.48029 61.1093 13.679 74.3299 38.4859 81.0757C63.9547 88.0008 91.6739 87.5324 116.985 80.364C129.829 76.7263 141.993 71.4053 152.709 64.6108C163.756 57.6065 172.951 49.0439 180.681 39.5959C196.59 20.1508 206.67 -1.94096 222.224 -21.5598C238.241 -41.7597 258.634 -59.3158 278.385 -77.1095C298.338 -95.0854 317.773 -113.599 331.398 -135.254C336.562 -143.464 340.879 -152.112 343.892 -161.005L345.752 -161.005Z" stroke="white"/>
</mask>
<g mask="url(#mask9_507_1306)">
<path fill-rule="evenodd" clip-rule="evenodd" d="M-679.686 534.01H609.743V-161.004H-679.686V534.01Z" fill="white" fill-opacity="0.08"/>
<path fill-rule="evenodd" clip-rule="evenodd" d="M-679.686 534.01H609.743V-161.004H-679.686V534.01Z" fill="url(#paint10_linear_507_1306)"/>
</g>
<mask id="mask10_507_1306" style="mask-type:alpha" maskUnits="userSpaceOnUse" x="-49" y="-162" width="356" height="219">
<path fill-rule="evenodd" clip-rule="evenodd" d="M306.742 -160.907C303.949 -156.457 300.859 -152.14 297.569 -147.987C282.878 -129.439 263.446 -113.843 244.582 -98.1102C235.029 -90.1455 225.547 -82.11 216.753 -73.5849C207.696 -64.8067 199.613 -55.4834 192.587 -45.562C178.601 -25.8083 168.121 -4.44696 152.357 14.4834C138.964 30.567 121.458 45.3684 98.7928 52.6544C78.1618 59.2867 54.8615 58.0809 34.8343 50.5975C24.9445 46.9024 15.8838 41.6622 8.52234 35.1578C0.533123 28.1013 -5.09115 19.5971 -8.73919 10.5269C-16.9004 -9.78175 -15.4522 -31.5728 -17.4319 -52.6004C-18.5 -63.9473 -20.889 -75.0034 -25.0203 -85.8927C-29.3426 -97.2827 -34.9084 -108.329 -39.523 -119.64C-44.8672 -132.736 -48.938 -147.014 -48.005 -160.907L-46.3276 -160.907C-47.8007 -140.759 -38.5177 -121.083 -30.1596 -102.389C-25.3144 -91.5571 -20.6516 -80.6164 -18.1818 -69.2431C-15.9493 -58.9643 -15.275 -48.5215 -14.704 -38.1134C-13.5706 -17.4807 -13.003 4.3201 -0.314819 22.8583C10.3575 38.4524 29.6022 49.4293 50.8437 53.6918C61.4283 55.8168 72.5857 56.2897 83.3475 54.7724C94.8472 53.1523 105.692 49.2415 115.32 43.9582C136.071 32.5697 150.796 15.4597 162.677 -2.08553C176.148 -21.9797 186.915 -43.1255 203.222 -61.6985C215.707 -75.9219 230.643 -88.5064 245.646 -100.994L249.247 -103.99C251.647 -105.987 254.043 -107.985 256.427 -109.99C274.932 -125.552 292.72 -141.797 304.954 -161.148L304.799 -160.906L306.742 -160.907Z" fill="white"/>
<path fill-rule="evenodd" clip-rule="evenodd" d="M306.742 -160.907C303.949 -156.457 300.859 -152.14 297.569 -147.987C282.878 -129.439 263.446 -113.843 244.582 -98.1102C235.029 -90.1455 225.547 -82.11 216.753 -73.5849C207.696 -64.8067 199.613 -55.4834 192.587 -45.562C178.601 -25.8083 168.121 -4.44696 152.357 14.4834C138.964 30.567 121.458 45.3684 98.7928 52.6544C78.1618 59.2867 54.8615 58.0809 34.8343 50.5975C24.9445 46.9024 15.8838 41.6622 8.52234 35.1578C0.533123 28.1013 -5.09115 19.5971 -8.73919 10.5269C-16.9004 -9.78175 -15.4522 -31.5728 -17.4319 -52.6004C-18.5 -63.9473 -20.889 -75.0034 -25.0203 -85.8927C-29.3426 -97.2827 -34.9084 -108.329 -39.523 -119.64C-44.8672 -132.736 -48.938 -147.014 -48.005 -160.907L-46.3276 -160.907C-47.8007 -140.759 -38.5177 -121.083 -30.1596 -102.389C-25.3144 -91.5571 -20.6516 -80.6164 -18.1818 -69.2431C-15.9493 -58.9643 -15.275 -48.5215 -14.704 -38.1134C-13.5706 -17.4807 -13.003 4.3201 -0.314819 22.8583C10.3575 38.4524 29.6022 49.4293 50.8437 53.6918C61.4283 55.8168 72.5857 56.2897 83.3475 54.7724C94.8472 53.1523 105.692 49.2415 115.32 43.9582C136.071 32.5697 150.796 15.4597 162.677 -2.08553C176.148 -21.9797 186.915 -43.1255 203.222 -61.6985C215.707 -75.9219 230.643 -88.5064 245.646 -100.994L249.247 -103.99C251.647 -105.987 254.043 -107.985 256.427 -109.99C274.932 -125.552 292.72 -141.797 304.954 -161.148L304.799 -160.906L306.742 -160.907Z" stroke="white"/>
</mask>
<g mask="url(#mask10_507_1306)">
<path fill-rule="evenodd" clip-rule="evenodd" d="M-680.607 534.451H609.363V-160.906H-680.607V534.451Z" fill="white" fill-opacity="0.08"/>
<path fill-rule="evenodd" clip-rule="evenodd" d="M-680.607 534.451H609.363V-160.906H-680.607V534.451Z" fill="url(#paint11_linear_507_1306)"/>
</g>
<mask id="mask11_507_1306" style="mask-type:alpha" maskUnits="userSpaceOnUse" x="-13" y="-162" width="294" height="195">
<path fill-rule="evenodd" clip-rule="evenodd" d="M280.507 -161.006C279.752 -160.13 278.986 -159.262 278.21 -158.401C264.922 -143.681 248.531 -131.234 231.404 -119.497C213.946 -107.532 195.84 -96.1266 179.547 -83.095C171.313 -76.5111 163.556 -69.5101 156.76 -61.9169C149.722 -54.0485 143.875 -45.5517 138.438 -36.9047C137.042 -34.6853 135.671 -32.4558 134.309 -30.2227L130.234 -23.519C127.515 -19.0513 124.768 -14.595 121.868 -10.202C116.467 -2.02359 110.609 6.09232 103.071 13.1155C89.9042 25.3811 69.2406 36.4373 48.4842 30.3274C29.3099 24.6833 19.8275 7.71883 17.5308 -7.62881C16.3044 -15.8163 16.6177 -24.0587 16.9755 -32.2878L17.1088 -35.3729C17.1736 -36.915 17.2334 -38.4563 17.2783 -39.9965C17.5755 -50.1754 16.787 -60.289 14.8716 -70.3539C11.8636 -86.1545 6.61089 -101.574 1.23972 -116.943L-0.296293 -121.334C-1.06407 -123.528 -1.83014 -125.722 -2.58829 -127.917C-6.36434 -138.846 -9.96553 -149.86 -12.6367 -161.006L-10.91 -161.005C-7.13777 -145.374 -1.53387 -130.052 3.7934 -114.731C10.2249 -96.2308 16.361 -77.5175 18.3846 -58.3052C19.4719 -47.9956 18.8501 -37.7263 18.5014 -27.4042C18.1664 -17.4963 18.2214 -7.32158 21.6948 2.26791C24.4622 9.90002 29.303 17.2638 36.547 22.7286C43.8976 28.2769 53.6136 31.231 63.6851 30.5679C74.3339 29.8659 84.1375 25.3978 92.1648 19.9108C100.766 14.0303 107.543 6.81104 113.382 -0.935074C118.996 -8.38263 123.847 -16.1621 128.607 -23.9812L131.775 -29.1966C136.528 -37.0189 141.341 -44.816 146.886 -52.2954C158.526 -67.9948 173.957 -81.3294 190.744 -93.4963C207.552 -105.681 225.483 -116.804 242.295 -128.986C255.604 -138.63 268.11 -149.177 278.423 -161.005L280.507 -161.006Z" fill="white"/>
<path fill-rule="evenodd" clip-rule="evenodd" d="M280.507 -161.006C279.752 -160.13 278.986 -159.262 278.21 -158.401C264.922 -143.681 248.531 -131.234 231.404 -119.497C213.946 -107.532 195.84 -96.1266 179.547 -83.095C171.313 -76.5111 163.556 -69.5101 156.76 -61.9169C149.722 -54.0485 143.875 -45.5517 138.438 -36.9047C137.042 -34.6853 135.671 -32.4558 134.309 -30.2227L130.234 -23.519C127.515 -19.0513 124.768 -14.595 121.868 -10.202C116.467 -2.02359 110.609 6.09232 103.071 13.1155C89.9042 25.3811 69.2406 36.4373 48.4842 30.3274C29.3099 24.6833 19.8275 7.71883 17.5308 -7.62881C16.3044 -15.8163 16.6177 -24.0587 16.9755 -32.2878L17.1088 -35.3729C17.1736 -36.915 17.2334 -38.4563 17.2783 -39.9965C17.5755 -50.1754 16.787 -60.289 14.8716 -70.3539C11.8636 -86.1545 6.61089 -101.574 1.23972 -116.943L-0.296293 -121.334C-1.06407 -123.528 -1.83014 -125.722 -2.58829 -127.917C-6.36434 -138.846 -9.96553 -149.86 -12.6367 -161.006L-10.91 -161.005C-7.13777 -145.374 -1.53387 -130.052 3.7934 -114.731C10.2249 -96.2308 16.361 -77.5175 18.3846 -58.3052C19.4719 -47.9956 18.8501 -37.7263 18.5014 -27.4042C18.1664 -17.4963 18.2214 -7.32158 21.6948 2.26791C24.4622 9.90002 29.303 17.2638 36.547 22.7286C43.8976 28.2769 53.6136 31.231 63.6851 30.5679C74.3339 29.8659 84.1375 25.3978 92.1648 19.9108C100.766 14.0303 107.543 6.81104 113.382 -0.935074C118.996 -8.38263 123.847 -16.1621 128.607 -23.9812L131.775 -29.1966C136.528 -37.0189 141.341 -44.816 146.886 -52.2954C158.526 -67.9948 173.957 -81.3294 190.744 -93.4963C207.552 -105.681 225.483 -116.804 242.295 -128.986C255.604 -138.63 268.11 -149.177 278.423 -161.005L280.507 -161.006Z" stroke="white"/>
</mask>
<g mask="url(#mask11_507_1306)">
<path fill-rule="evenodd" clip-rule="evenodd" d="M-679.041 534.088H609.323V-161.004H-679.041V534.088Z" fill="white" fill-opacity="0.08"/>
<path fill-rule="evenodd" clip-rule="evenodd" d="M-679.041 534.088H609.323V-161.004H-679.041V534.088Z" fill="url(#paint12_linear_507_1306)"/>
</g>
<mask id="mask12_507_1306" style="mask-type:alpha" maskUnits="userSpaceOnUse" x="259" y="382" width="55" height="66">
<path fill-rule="evenodd" clip-rule="evenodd" d="M303.291 396.034C305.667 402.565 308.396 409.028 310.187 415.69C311.747 421.498 312.97 427.916 311.327 433.806C310.578 436.495 309.114 439.048 306.673 441.016C304.24 442.977 301.082 444.187 297.8 444.931C294.483 445.682 291.047 446 287.622 446.216C284.825 446.392 282.014 446.548 279.207 446.513C274.076 446.452 268.619 445.655 265.051 442.416C259.875 437.719 260.847 431.09 262.019 425.388C264.516 413.227 270.294 401.542 278.787 391.292C279.839 390.022 280.932 388.774 282.067 387.549C283.234 386.289 284.448 385.165 286.21 384.432C288.111 383.638 290.349 383.432 292.414 383.874C296.884 384.834 299.604 388.424 301.34 391.614C302.12 393.049 302.74 394.535 303.291 396.034C303.551 396.74 304.927 396.439 304.665 395.727C303.06 391.357 300.639 386.255 295.567 383.738C291.379 381.66 285.989 382.335 282.592 385.2C281.28 386.305 280.202 387.637 279.112 388.885C277.914 390.253 276.765 391.651 275.667 393.073C273.502 395.877 271.534 398.778 269.774 401.76C266.279 407.677 263.586 413.902 261.804 420.296C260.917 423.47 260.256 426.686 259.822 429.921C259.376 433.239 259.629 436.547 261.272 439.646C263.581 444.004 268.309 446.555 274.015 447.31C276.779 447.678 279.589 447.713 282.382 447.624C285.673 447.521 288.977 447.333 292.24 446.982C299.189 446.231 306.323 444.337 310.178 439.27C314.023 434.218 313.836 427.798 312.985 422.123C311.897 414.869 309.238 407.867 306.597 400.901C305.944 399.178 305.293 397.455 304.665 395.727C304.408 395.02 303.033 395.321 303.291 396.034Z" fill="white"/>
</mask>
<g mask="url(#mask12_507_1306)">
<path fill-rule="evenodd" clip-rule="evenodd" d="M303.291 396.034C305.667 402.565 308.396 409.028 310.187 415.69C311.747 421.498 312.97 427.916 311.327 433.806C310.578 436.495 309.114 439.048 306.673 441.016C304.24 442.977 301.082 444.187 297.8 444.931C294.483 445.682 291.047 446 287.622 446.216C284.825 446.392 282.014 446.548 279.207 446.513C274.076 446.452 268.619 445.655 265.051 442.416C259.875 437.719 260.847 431.09 262.019 425.388C264.516 413.227 270.294 401.542 278.787 391.292C279.839 390.022 280.932 388.774 282.067 387.549C283.234 386.289 284.448 385.165 286.21 384.432C288.111 383.638 290.349 383.432 292.414 383.874C296.884 384.834 299.604 388.424 301.34 391.614C302.12 393.049 302.74 394.535 303.291 396.034C303.551 396.74 304.927 396.439 304.665 395.727C303.06 391.357 300.639 386.255 295.567 383.738C291.379 381.66 285.989 382.335 282.592 385.2C281.28 386.305 280.202 387.637 279.112 388.885C277.914 390.253 276.765 391.651 275.667 393.073C273.502 395.877 271.534 398.778 269.774 401.76C266.279 407.677 263.586 413.902 261.804 420.296C260.917 423.47 260.256 426.686 259.822 429.921C259.376 433.239 259.629 436.547 261.272 439.646C263.581 444.004 268.309 446.555 274.015 447.31C276.779 447.678 279.589 447.713 282.382 447.624C285.673 447.521 288.977 447.333 292.24 446.982C299.189 446.231 306.323 444.337 310.178 439.27C314.023 434.218 313.836 427.798 312.985 422.123C311.897 414.869 309.238 407.867 306.597 400.901C305.944 399.178 305.293 397.455 304.665 395.727C304.408 395.02 303.033 395.321 303.291 396.034Z" fill="white" fill-opacity="0.08"/>
<path fill-rule="evenodd" clip-rule="evenodd" d="M303.291 396.034C305.667 402.565 308.396 409.028 310.187 415.69C311.747 421.498 312.97 427.916 311.327 433.806C310.578 436.495 309.114 439.048 306.673 441.016C304.24 442.977 301.082 444.187 297.8 444.931C294.483 445.682 291.047 446 287.622 446.216C284.825 446.392 282.014 446.548 279.207 446.513C274.076 446.452 268.619 445.655 265.051 442.416C259.875 437.719 260.847 431.09 262.019 425.388C264.516 413.227 270.294 401.542 278.787 391.292C279.839 390.022 280.932 388.774 282.067 387.549C283.234 386.289 284.448 385.165 286.21 384.432C288.111 383.638 290.349 383.432 292.414 383.874C296.884 384.834 299.604 388.424 301.34 391.614C302.12 393.049 302.74 394.535 303.291 396.034C303.551 396.74 304.927 396.439 304.665 395.727C303.06 391.357 300.639 386.255 295.567 383.738C291.379 381.66 285.989 382.335 282.592 385.2C281.28 386.305 280.202 387.637 279.112 388.885C277.914 390.253 276.765 391.651 275.667 393.073C273.502 395.877 271.534 398.778 269.774 401.76C266.279 407.677 263.586 413.902 261.804 420.296C260.917 423.47 260.256 426.686 259.822 429.921C259.376 433.239 259.629 436.547 261.272 439.646C263.581 444.004 268.309 446.555 274.015 447.31C276.779 447.678 279.589 447.713 282.382 447.624C285.673 447.521 288.977 447.333 292.24 446.982C299.189 446.231 306.323 444.337 310.178 439.27C314.023 434.218 313.836 427.798 312.985 422.123C311.897 414.869 309.238 407.867 306.597 400.901C305.944 399.178 305.293 397.455 304.665 395.727C304.408 395.02 303.033 395.321 303.291 396.034Z" fill="url(#paint13_linear_507_1306)"/>
</g>
<mask id="mask13_507_1306" style="mask-type:alpha" maskUnits="userSpaceOnUse" x="263" y="-69" width="159" height="204">
<path fill-rule="evenodd" clip-rule="evenodd" d="M420.852 -44.5C420.37 -51.4672 418.816 -59.6278 412.493 -64.8222C409.314 -67.4368 404.887 -68.915 400.339 -68.765C394.828 -68.583 389.623 -66.256 385.857 -63.0787C379.999 -58.1329 377.468 -51.3408 374.677 -45.0377C372.525 -40.1808 370.375 -35.3253 368.225 -30.4671C366.324 -26.1742 364.627 -21.8341 362.756 -17.5316C359.311 -9.61138 355.356 -1.83843 351.069 5.80671C341.687 22.5446 330.782 38.7657 318.438 54.1963C312.479 61.6455 306.163 68.9197 299.342 75.8688C292.981 82.3442 286.096 88.3375 278.816 94.1363C270.913 100.435 262.583 108.076 263.635 117.716C264.085 121.865 266.416 125.6 270.549 128.132C275.045 130.885 280.815 132.191 286.246 133.173C306.92 136.915 328.595 133.49 347.282 125.799C366.75 117.787 382.824 105.328 394.115 90.2533C406.575 73.6182 413.398 54.6464 417.112 35.5426C421.177 14.6327 422.073 -6.74671 421.598 -27.8816C421.474 -33.4248 421.222 -38.9652 420.852 -44.5C420.792 -45.4197 419.017 -45.4267 419.078 -44.5C420.512 -22.9942 420.303 -1.30217 417.73 20.1467C415.467 39.031 410.971 58.014 401.546 75.4798C396.961 83.9794 391.232 92.1733 384.146 99.4794C377.679 106.148 370.016 112.08 361.535 117.054C344.779 126.88 324.43 133.297 303.566 133.279C298.39 133.275 293.218 132.873 288.145 132.037C282.876 131.167 277.3 130.016 272.741 127.629C267.996 125.142 265.447 121.095 265.332 116.558C265.219 112.141 267.18 107.98 270.161 104.339C273.494 100.271 277.896 96.869 282.188 93.475C285.602 90.777 288.906 87.9971 292.074 85.1088C298.818 78.9627 305.042 72.4443 310.917 65.7439C323.692 51.1677 334.902 35.6746 344.811 19.7147C349.594 12.014 354.059 4.18266 358.127 -3.78201C361.662 -10.6992 364.65 -17.7275 367.604 -24.8127C370.628 -32.0744 373.999 -39.2514 377.19 -46.4672C380.885 -54.8251 385.546 -64.825 397.569 -67.027C402.262 -67.8883 407.196 -66.877 410.724 -64.2137C413.954 -61.7756 415.836 -58.3913 417.042 -55.0098C418.259 -51.5909 418.833 -48.0454 419.078 -44.5C419.142 -43.5817 420.918 -43.5762 420.852 -44.5Z" fill="white"/>
</mask>
<g mask="url(#mask13_507_1306)">
<path fill-rule="evenodd" clip-rule="evenodd" d="M420.852 -44.5C420.37 -51.4672 418.816 -59.6278 412.493 -64.8222C409.314 -67.4368 404.887 -68.915 400.339 -68.765C394.828 -68.583 389.623 -66.256 385.857 -63.0787C379.999 -58.1329 377.468 -51.3408 374.677 -45.0377C372.525 -40.1808 370.375 -35.3253 368.225 -30.4671C366.324 -26.1742 364.627 -21.8341 362.756 -17.5316C359.311 -9.61138 355.356 -1.83843 351.069 5.80671C341.687 22.5446 330.782 38.7657 318.438 54.1963C312.479 61.6455 306.163 68.9197 299.342 75.8688C292.981 82.3442 286.096 88.3375 278.816 94.1363C270.913 100.435 262.583 108.076 263.635 117.716C264.085 121.865 266.416 125.6 270.549 128.132C275.045 130.885 280.815 132.191 286.246 133.173C306.92 136.915 328.595 133.49 347.282 125.799C366.75 117.787 382.824 105.328 394.115 90.2533C406.575 73.6182 413.398 54.6464 417.112 35.5426C421.177 14.6327 422.073 -6.74671 421.598 -27.8816C421.474 -33.4248 421.222 -38.9652 420.852 -44.5C420.792 -45.4197 419.017 -45.4267 419.078 -44.5C420.512 -22.9942 420.303 -1.30217 417.73 20.1467C415.467 39.031 410.971 58.014 401.546 75.4798C396.961 83.9794 391.232 92.1733 384.146 99.4794C377.679 106.148 370.016 112.08 361.535 117.054C344.779 126.88 324.43 133.297 303.566 133.279C298.39 133.275 293.218 132.873 288.145 132.037C282.876 131.167 277.3 130.016 272.741 127.629C267.996 125.142 265.447 121.095 265.332 116.558C265.219 112.141 267.18 107.98 270.161 104.339C273.494 100.271 277.896 96.869 282.188 93.475C285.602 90.777 288.906 87.9971 292.074 85.1088C298.818 78.9627 305.042 72.4443 310.917 65.7439C323.692 51.1677 334.902 35.6746 344.811 19.7147C349.594 12.014 354.059 4.18266 358.127 -3.78201C361.662 -10.6992 364.65 -17.7275 367.604 -24.8127C370.628 -32.0744 373.999 -39.2514 377.19 -46.4672C380.885 -54.8251 385.546 -64.825 397.569 -67.027C402.262 -67.8883 407.196 -66.877 410.724 -64.2137C413.954 -61.7756 415.836 -58.3913 417.042 -55.0098C418.259 -51.5909 418.833 -48.0454 419.078 -44.5C419.142 -43.5817 420.918 -43.5762 420.852 -44.5Z" fill="white" fill-opacity="0.08"/>
<path fill-rule="evenodd" clip-rule="evenodd" d="M420.852 -44.5C420.37 -51.4672 418.816 -59.6278 412.493 -64.8222C409.314 -67.4368 404.887 -68.915 400.339 -68.765C394.828 -68.583 389.623 -66.256 385.857 -63.0787C379.999 -58.1329 377.468 -51.3408 374.677 -45.0377C372.525 -40.1808 370.375 -35.3253 368.225 -30.4671C366.324 -26.1742 364.627 -21.8341 362.756 -17.5316C359.311 -9.61138 355.356 -1.83843 351.069 5.80671C341.687 22.5446 330.782 38.7657 318.438 54.1963C312.479 61.6455 306.163 68.9197 299.342 75.8688C292.981 82.3442 286.096 88.3375 278.816 94.1363C270.913 100.435 262.583 108.076 263.635 117.716C264.085 121.865 266.416 125.6 270.549 128.132C275.045 130.885 280.815 132.191 286.246 133.173C306.92 136.915 328.595 133.49 347.282 125.799C366.75 117.787 382.824 105.328 394.115 90.2533C406.575 73.6182 413.398 54.6464 417.112 35.5426C421.177 14.6327 422.073 -6.74671 421.598 -27.8816C421.474 -33.4248 421.222 -38.9652 420.852 -44.5C420.792 -45.4197 419.017 -45.4267 419.078 -44.5C420.512 -22.9942 420.303 -1.30217 417.73 20.1467C415.467 39.031 410.971 58.014 401.546 75.4798C396.961 83.9794 391.232 92.1733 384.146 99.4794C377.679 106.148 370.016 112.08 361.535 117.054C344.779 126.88 324.43 133.297 303.566 133.279C298.39 133.275 293.218 132.873 288.145 132.037C282.876 131.167 277.3 130.016 272.741 127.629C267.996 125.142 265.447 121.095 265.332 116.558C265.219 112.141 267.18 107.98 270.161 104.339C273.494 100.271 277.896 96.869 282.188 93.475C285.602 90.777 288.906 87.9971 292.074 85.1088C298.818 78.9627 305.042 72.4443 310.917 65.7439C323.692 51.1677 334.902 35.6746 344.811 19.7147C349.594 12.014 354.059 4.18266 358.127 -3.78201C361.662 -10.6992 364.65 -17.7275 367.604 -24.8127C370.628 -32.0744 373.999 -39.2514 377.19 -46.4672C380.885 -54.8251 385.546 -64.825 397.569 -67.027C402.262 -67.8883 407.196 -66.877 410.724 -64.2137C413.954 -61.7756 415.836 -58.3913 417.042 -55.0098C418.259 -51.5909 418.833 -48.0454 419.078 -44.5C419.142 -43.5817 420.918 -43.5762 420.852 -44.5Z" fill="url(#paint14_linear_507_1306)"/>
</g>
<mask id="mask14_507_1306" style="mask-type:alpha" maskUnits="userSpaceOnUse" x="307" y="31" width="86" height="79">
<path fill-rule="evenodd" clip-rule="evenodd" d="M391.905 47.0166C391.667 43.7686 391.027 40.4133 389.04 37.5362C387.063 34.6759 383.708 32.6831 379.699 32.1252C370.533 30.852 363.006 35.8334 357.235 40.946C343.644 52.9785 331.318 66.0542 320.121 79.5914C317.312 82.9859 314.57 86.418 311.922 89.8947C309.532 93.0339 307.075 96.6431 307.198 100.446C307.294 103.555 309.381 106.262 312.685 107.81C315.827 109.285 319.607 109.752 323.191 109.782C331.784 109.853 340.54 107.942 348.277 105.012C352.295 103.489 356.115 101.629 359.658 99.4685C363.265 97.2707 366.34 94.6837 369.621 92.1957C383.11 81.9678 391.135 67.432 391.944 52.5197C392.043 50.6858 392.024 48.8491 391.905 47.0166C391.848 46.138 390.15 46.1325 390.209 47.0166C391.128 61.0295 385.457 75.2501 374.394 86.0902C371.458 88.9673 368.074 91.511 364.783 94.1147C361.788 96.4855 358.499 98.6067 354.977 100.445C347.969 104.101 340.084 106.637 331.862 107.779C328.055 108.307 324.091 108.624 320.236 108.268C316.873 107.959 313.261 107.073 310.977 104.935C307.981 102.129 308.71 98.2817 310.373 95.1286C312.186 91.6867 314.934 88.5405 317.428 85.4055C327.819 72.3507 339.296 59.8636 351.769 48.0612C354.737 45.2525 357.695 42.4005 360.935 39.7899C363.974 37.3424 367.465 35.0594 371.608 33.987C375.372 33.0122 379.737 32.9466 383.247 34.5797C386.728 36.2002 388.546 39.2125 389.424 42.2709C389.871 43.83 390.092 45.4198 390.209 47.0166C390.273 47.8938 391.968 47.8994 391.905 47.0166Z" fill="white"/>
</mask>
<g mask="url(#mask14_507_1306)">
<path fill-rule="evenodd" clip-rule="evenodd" d="M391.905 47.0166C391.667 43.7686 391.027 40.4133 389.04 37.5362C387.063 34.6759 383.708 32.6831 379.699 32.1252C370.533 30.852 363.006 35.8334 357.235 40.946C343.644 52.9785 331.318 66.0542 320.121 79.5914C317.312 82.9859 314.57 86.418 311.922 89.8947C309.532 93.0339 307.075 96.6431 307.198 100.446C307.294 103.555 309.381 106.262 312.685 107.81C315.827 109.285 319.607 109.752 323.191 109.782C331.784 109.853 340.54 107.942 348.277 105.012C352.295 103.489 356.115 101.629 359.658 99.4685C363.265 97.2707 366.34 94.6837 369.621 92.1957C383.11 81.9678 391.135 67.432 391.944 52.5197C392.043 50.6858 392.024 48.8491 391.905 47.0166C391.848 46.138 390.15 46.1325 390.209 47.0166C391.128 61.0295 385.457 75.2501 374.394 86.0902C371.458 88.9673 368.074 91.511 364.783 94.1147C361.788 96.4855 358.499 98.6067 354.977 100.445C347.969 104.101 340.084 106.637 331.862 107.779C328.055 108.307 324.091 108.624 320.236 108.268C316.873 107.959 313.261 107.073 310.977 104.935C307.981 102.129 308.71 98.2817 310.373 95.1286C312.186 91.6867 314.934 88.5405 317.428 85.4055C327.819 72.3507 339.296 59.8636 351.769 48.0612C354.737 45.2525 357.695 42.4005 360.935 39.7899C363.974 37.3424 367.465 35.0594 371.608 33.987C375.372 33.0122 379.737 32.9466 383.247 34.5797C386.728 36.2002 388.546 39.2125 389.424 42.2709C389.871 43.83 390.092 45.4198 390.209 47.0166C390.273 47.8938 391.968 47.8994 391.905 47.0166Z" fill="white" fill-opacity="0.08"/>
<path fill-rule="evenodd" clip-rule="evenodd" d="M391.905 47.0166C391.667 43.7686 391.027 40.4133 389.04 37.5362C387.063 34.6759 383.708 32.6831 379.699 32.1252C370.533 30.852 363.006 35.8334 357.235 40.946C343.644 52.9785 331.318 66.0542 320.121 79.5914C317.312 82.9859 314.57 86.418 311.922 89.8947C309.532 93.0339 307.075 96.6431 307.198 100.446C307.294 103.555 309.381 106.262 312.685 107.81C315.827 109.285 319.607 109.752 323.191 109.782C331.784 109.853 340.54 107.942 348.277 105.012C352.295 103.489 356.115 101.629 359.658 99.4685C363.265 97.2707 366.34 94.6837 369.621 92.1957C383.11 81.9678 391.135 67.432 391.944 52.5197C392.043 50.6858 392.024 48.8491 391.905 47.0166C391.848 46.138 390.15 46.1325 390.209 47.0166C391.128 61.0295 385.457 75.2501 374.394 86.0902C371.458 88.9673 368.074 91.511 364.783 94.1147C361.788 96.4855 358.499 98.6067 354.977 100.445C347.969 104.101 340.084 106.637 331.862 107.779C328.055 108.307 324.091 108.624 320.236 108.268C316.873 107.959 313.261 107.073 310.977 104.935C307.981 102.129 308.71 98.2817 310.373 95.1286C312.186 91.6867 314.934 88.5405 317.428 85.4055C327.819 72.3507 339.296 59.8636 351.769 48.0612C354.737 45.2525 357.695 42.4005 360.935 39.7899C363.974 37.3424 367.465 35.0594 371.608 33.987C375.372 33.0122 379.737 32.9466 383.247 34.5797C386.728 36.2002 388.546 39.2125 389.424 42.2709C389.871 43.83 390.092 45.4198 390.209 47.0166C390.273 47.8938 391.968 47.8994 391.905 47.0166Z" fill="url(#paint15_linear_507_1306)"/>
</g>
<mask id="mask15_507_1306" style="mask-type:alpha" maskUnits="userSpaceOnUse" x="171" y="-162" width="439" height="352">
<path fill-rule="evenodd" clip-rule="evenodd" d="M382.574 -161.005C369.187 -141.886 357.842 -121.84 347.186 -101.641C343.041 -93.7818 338.997 -85.8871 334.971 -77.9863L330.142 -68.5042C322.091 -52.7022 313.975 -36.9224 305.125 -21.398C290.41 4.4155 273.553 29.5967 251.846 52.0487C240.243 64.0522 226.967 74.6591 213.712 85.4467C200.095 96.5275 186.365 108.484 179.134 123.215C172.711 136.3 170.748 152.001 178.885 164.91C187.435 178.48 205.356 185.111 223.262 187.094C241.328 189.095 260.334 188.735 278.551 187.286C297.442 185.784 316.161 182.768 334.284 178.194C354.008 173.216 372.795 166.176 390.84 158.075C407.076 150.788 422.73 142.289 435.557 131.339C449.574 119.373 457.964 104.808 465.403 89.6531C465.804 88.8357 466.205 88.0174 466.605 87.1986L467.806 84.7411C474.023 72.0411 480.466 59.3368 490.879 48.4454C501.146 37.7051 515.182 28.8171 532.199 26.8439C548.799 24.9207 564.723 29.3383 580.265 33.8244L582.335 34.4225C585.782 35.418 589.21 36.4031 592.623 37.3091C597.99 38.7336 603.661 40.0211 609.426 40.89L609.426 42.2858C600.301 40.9074 591.449 38.4479 582.625 35.9349L580.152 35.2298C575.619 33.9378 571.088 32.657 566.525 31.5269C556.084 28.9408 545.117 27.0704 534.15 28.0362C524.926 28.8477 516.258 31.8006 508.738 36.1446C486.784 48.8278 477.484 68.7136 467.855 88.3753L466.978 90.1619C462.294 99.6849 457.44 109.102 450.936 117.568C441.289 130.126 427.729 140.325 412.808 148.731C397.048 157.609 379.701 164.988 362.135 171.239C328.354 183.256 291.406 189.361 254.538 189.766C235.041 189.98 213.153 189.539 195.94 181.27C180.874 174.035 172.46 161.477 171.865 147.443C171.25 132.973 177.927 118.988 188.031 107.25C196.18 97.7848 206.147 89.5541 216.235 81.4377L219.119 79.1208C222.003 76.8051 224.884 74.4901 227.722 72.1495C240.609 61.5217 252.262 50.0185 262.682 37.7496C282.99 13.8426 298.688 -12.3724 312.924 -38.9196C327.424 -65.9685 340.469 -93.5162 355.478 -120.389C363.181 -134.182 371.43 -147.816 380.624 -161.006L382.574 -161.005Z" fill="white"/>
<path fill-rule="evenodd" clip-rule="evenodd" d="M382.574 -161.005C369.187 -141.886 357.842 -121.84 347.186 -101.641C343.041 -93.7818 338.997 -85.8871 334.971 -77.9863L330.142 -68.5042C322.091 -52.7022 313.975 -36.9224 305.125 -21.398C290.41 4.4155 273.553 29.5967 251.846 52.0487C240.243 64.0522 226.967 74.6591 213.712 85.4467C200.095 96.5275 186.365 108.484 179.134 123.215C172.711 136.3 170.748 152.001 178.885 164.91C187.435 178.48 205.356 185.111 223.262 187.094C241.328 189.095 260.334 188.735 278.551 187.286C297.442 185.784 316.161 182.768 334.284 178.194C354.008 173.216 372.795 166.176 390.84 158.075C407.076 150.788 422.73 142.289 435.557 131.339C449.574 119.373 457.964 104.808 465.403 89.6531C465.804 88.8357 466.205 88.0174 466.605 87.1986L467.806 84.7411C474.023 72.0411 480.466 59.3368 490.879 48.4454C501.146 37.7051 515.182 28.8171 532.199 26.8439C548.799 24.9207 564.723 29.3383 580.265 33.8244L582.335 34.4225C585.782 35.418 589.21 36.4031 592.623 37.3091C597.99 38.7336 603.661 40.0211 609.426 40.89L609.426 42.2858C600.301 40.9074 591.449 38.4479 582.625 35.9349L580.152 35.2298C575.619 33.9378 571.088 32.657 566.525 31.5269C556.084 28.9408 545.117 27.0704 534.15 28.0362C524.926 28.8477 516.258 31.8006 508.738 36.1446C486.784 48.8278 477.484 68.7136 467.855 88.3753L466.978 90.1619C462.294 99.6849 457.44 109.102 450.936 117.568C441.289 130.126 427.729 140.325 412.808 148.731C397.048 157.609 379.701 164.988 362.135 171.239C328.354 183.256 291.406 189.361 254.538 189.766C235.041 189.98 213.153 189.539 195.94 181.27C180.874 174.035 172.46 161.477 171.865 147.443C171.25 132.973 177.927 118.988 188.031 107.25C196.18 97.7848 206.147 89.5541 216.235 81.4377L219.119 79.1208C222.003 76.8051 224.884 74.4901 227.722 72.1495C240.609 61.5217 252.262 50.0185 262.682 37.7496C282.99 13.8426 298.688 -12.3724 312.924 -38.9196C327.424 -65.9685 340.469 -93.5162 355.478 -120.389C363.181 -134.182 371.43 -147.816 380.624 -161.006L382.574 -161.005Z" stroke="white"/>
</mask>
<g mask="url(#mask15_507_1306)">
<path fill-rule="evenodd" clip-rule="evenodd" d="M-680.004 533.803H609.425V-161.004H-680.004V533.803Z" fill="white" fill-opacity="0.08"/>
<path fill-rule="evenodd" clip-rule="evenodd" d="M-680.004 533.803H609.425V-161.004H-680.004V533.803Z" fill="url(#paint16_linear_507_1306)"/>
</g>
<mask id="mask16_507_1306" style="mask-type:alpha" maskUnits="userSpaceOnUse" x="191" y="-162" width="419" height="331">
<path fill-rule="evenodd" clip-rule="evenodd" d="M415.815 -161.006C396.569 -144.763 382.147 -124.9 370.639 -104.519C354.366 -75.7011 343.409 -45.1617 327.971 -16.0669C313.131 11.9018 293.063 37.5209 269.589 61.2506C257.958 73.007 245.611 84.2879 232.866 95.256C226.484 100.748 219.959 106.124 213.462 111.525C207.149 116.775 200.881 122.304 196.948 128.979C193.012 135.657 191.543 143.955 195.553 150.842C199.081 156.899 206.27 160.633 213.84 162.819C221.383 164.996 229.428 165.901 237.355 166.583C245.482 167.283 253.664 167.585 261.838 167.488C294.185 167.103 326.257 160.361 354.856 148.146C383.749 135.804 408.983 117.996 427.991 96.4864C447.037 74.9353 454.439 48.0663 473.843 26.6891C492.137 6.53664 524.667 -2.27649 554.691 -1.74539C563.703 -1.5869 572.382 -0.243866 580.962 1.9695C590.06 4.31493 598.861 7.34161 607.936 9.73431C608.43 9.86443 608.927 9.99258 609.426 10.1185L609.427 11.5052C601.016 9.41502 592.769 6.69351 584.488 4.38167C575.337 1.82629 566.076 -0.0228119 556.37 -0.316162C548.255 -0.559464 540.104 -0.0909424 532.112 1.06441C516.212 3.35979 500.515 8.34821 487.922 16.6622C475.398 24.9317 467.436 36.531 460.426 48.1053C452.908 60.5179 446.553 73.3962 438.374 85.5447C430.625 97.055 420.478 107.436 409.234 116.839C386.816 135.584 359.141 150.116 328.808 158.962C298.061 167.931 264.786 170.931 232.367 167.495C218.163 165.988 200.526 162.971 193.912 151.273C186.345 137.895 196.924 123.916 207.888 114.254C214.142 108.743 220.788 103.52 227.168 98.1033C233.73 92.5337 240.196 86.8863 246.524 81.1402C259.29 69.5493 271.513 57.5524 282.797 44.9896C293.927 32.6006 304.147 19.6625 313.02 6.12788C322.394 -8.17276 330.052 -23.1407 337.124 -38.2686C350.626 -67.1452 362.213 -96.8225 380.773 -123.935C389.868 -137.218 400.663 -149.941 413.532 -161.006L415.815 -161.006Z" fill="white"/>
<path fill-rule="evenodd" clip-rule="evenodd" d="M415.815 -161.006C396.569 -144.763 382.147 -124.9 370.639 -104.519C354.366 -75.7011 343.409 -45.1617 327.971 -16.0669C313.131 11.9018 293.063 37.5209 269.589 61.2506C257.958 73.007 245.611 84.2879 232.866 95.256C226.484 100.748 219.959 106.124 213.462 111.525C207.149 116.775 200.881 122.304 196.948 128.979C193.012 135.657 191.543 143.955 195.553 150.842C199.081 156.899 206.27 160.633 213.84 162.819C221.383 164.996 229.428 165.901 237.355 166.583C245.482 167.283 253.664 167.585 261.838 167.488C294.185 167.103 326.257 160.361 354.856 148.146C383.749 135.804 408.983 117.996 427.991 96.4864C447.037 74.9353 454.439 48.0663 473.843 26.6891C492.137 6.53664 524.667 -2.27649 554.691 -1.74539C563.703 -1.5869 572.382 -0.243866 580.962 1.9695C590.06 4.31493 598.861 7.34161 607.936 9.73431C608.43 9.86443 608.927 9.99258 609.426 10.1185L609.427 11.5052C601.016 9.41502 592.769 6.69351 584.488 4.38167C575.337 1.82629 566.076 -0.0228119 556.37 -0.316162C548.255 -0.559464 540.104 -0.0909424 532.112 1.06441C516.212 3.35979 500.515 8.34821 487.922 16.6622C475.398 24.9317 467.436 36.531 460.426 48.1053C452.908 60.5179 446.553 73.3962 438.374 85.5447C430.625 97.055 420.478 107.436 409.234 116.839C386.816 135.584 359.141 150.116 328.808 158.962C298.061 167.931 264.786 170.931 232.367 167.495C218.163 165.988 200.526 162.971 193.912 151.273C186.345 137.895 196.924 123.916 207.888 114.254C214.142 108.743 220.788 103.52 227.168 98.1033C233.73 92.5337 240.196 86.8863 246.524 81.1402C259.29 69.5493 271.513 57.5524 282.797 44.9896C293.927 32.6006 304.147 19.6625 313.02 6.12788C322.394 -8.17276 330.052 -23.1407 337.124 -38.2686C350.626 -67.1452 362.213 -96.8225 380.773 -123.935C389.868 -137.218 400.663 -149.941 413.532 -161.006L415.815 -161.006Z" stroke="white"/>
</mask>
<g mask="url(#mask16_507_1306)">
<path fill-rule="evenodd" clip-rule="evenodd" d="M-679.223 534.147H609.426V-161.004H-679.223V534.147Z" fill="white" fill-opacity="0.08"/>
<path fill-rule="evenodd" clip-rule="evenodd" d="M-679.223 534.147H609.426V-161.004H-679.223V534.147Z" fill="url(#paint17_linear_507_1306)"/>
</g>
<mask id="mask17_507_1306" style="mask-type:alpha" maskUnits="userSpaceOnUse" x="420" y="61" width="190" height="295">
<path fill-rule="evenodd" clip-rule="evenodd" d="M570.098 62.6828C583.185 60.5158 596.434 60.9533 609.427 62.8923L609.426 64.3082C590.967 61.5672 571.737 61.8691 554.365 68.1927C544.914 71.6321 536.556 76.7668 530.261 83.4385C524.819 89.2055 520.973 95.8354 518.03 102.656C511.913 116.818 509.344 131.784 503.462 146.003C500.661 152.773 497.089 159.397 492.069 165.299C486.222 172.17 478.454 177.621 470.173 182.513C466.28 184.814 462.188 187.062 458.101 189.366L456.467 190.291C443.404 197.717 430.674 205.858 424.982 218.242C421.541 225.728 421.887 233.92 426.415 241.053C430.718 247.831 437.967 253.14 445.954 257.043C460.639 264.221 477.481 265.989 494.23 267.733L496.68 267.989L499.127 268.248C503.202 268.684 507.259 269.151 511.264 269.725C522.112 271.28 532.609 273.798 542.402 277.92C551.057 281.562 559.023 286.241 566.182 291.59C587.813 307.752 600.734 328.788 609.426 351.089L609.426 355.84C598.897 327.134 581.489 299.466 549.524 282.871C540.525 278.198 530.706 274.765 520.323 272.679C508.41 270.286 496.15 269.422 484.027 268.01C464.065 265.687 443.29 261.052 429.965 247.897C424.192 242.198 420.643 235.161 420.898 227.73C421.173 219.769 425.627 212.396 431.62 206.223C445.131 192.301 465.913 185.305 481.47 173.209C496.052 161.875 501.883 147.196 506.538 132.012L507.103 130.151C507.569 128.598 508.027 127.041 508.483 125.482L509.031 123.612L509.581 121.742C512.894 110.525 516.49 99.3788 523.373 89.4292C527.919 82.8604 533.975 77.0614 541.508 72.6034C549.943 67.6119 559.886 64.374 570.098 62.6828Z" fill="white"/>
<path fill-rule="evenodd" clip-rule="evenodd" d="M570.098 62.6828C583.185 60.5158 596.434 60.9533 609.427 62.8923L609.426 64.3082C590.967 61.5672 571.737 61.8691 554.365 68.1927C544.914 71.6321 536.556 76.7668 530.261 83.4385C524.819 89.2055 520.973 95.8354 518.03 102.656C511.913 116.818 509.344 131.784 503.462 146.003C500.661 152.773 497.089 159.397 492.069 165.299C486.222 172.17 478.454 177.621 470.173 182.513C466.28 184.814 462.188 187.062 458.101 189.366L456.467 190.291C443.404 197.717 430.674 205.858 424.982 218.242C421.541 225.728 421.887 233.92 426.415 241.053C430.718 247.831 437.967 253.14 445.954 257.043C460.639 264.221 477.481 265.989 494.23 267.733L496.68 267.989L499.127 268.248C503.202 268.684 507.259 269.151 511.264 269.725C522.112 271.28 532.609 273.798 542.402 277.92C551.057 281.562 559.023 286.241 566.182 291.59C587.813 307.752 600.734 328.788 609.426 351.089L609.426 355.84C598.897 327.134 581.489 299.466 549.524 282.871C540.525 278.198 530.706 274.765 520.323 272.679C508.41 270.286 496.15 269.422 484.027 268.01C464.065 265.687 443.29 261.052 429.965 247.897C424.192 242.198 420.643 235.161 420.898 227.73C421.173 219.769 425.627 212.396 431.62 206.223C445.131 192.301 465.913 185.305 481.47 173.209C496.052 161.875 501.883 147.196 506.538 132.012L507.103 130.151C507.569 128.598 508.027 127.041 508.483 125.482L509.031 123.612L509.581 121.742C512.894 110.525 516.49 99.3788 523.373 89.4292C527.919 82.8604 533.975 77.0614 541.508 72.6034C549.943 67.6119 559.886 64.374 570.098 62.6828Z" stroke="white"/>
</mask>
<g mask="url(#mask17_507_1306)">
<path fill-rule="evenodd" clip-rule="evenodd" d="M-680.965 533.89H609.424V-160.93H-680.965V533.89Z" fill="white" fill-opacity="0.08"/>
<path fill-rule="evenodd" clip-rule="evenodd" d="M-680.965 533.89H609.424V-160.93H-680.965V533.89Z" fill="url(#paint18_linear_507_1306)"/>
</g>
<mask id="mask18_507_1306" style="mask-type:alpha" maskUnits="userSpaceOnUse" x="453" y="80" width="157" height="229">
<path fill-rule="evenodd" clip-rule="evenodd" d="M592.441 82.3917C598.008 81.3246 603.727 80.7938 609.427 80.8363L609.427 82.2047C599.488 82.1368 589.507 83.8619 580.444 87.1143C566.017 92.2933 554.279 101.252 547.736 112.914C540.846 125.202 538.947 138.824 535.184 151.847C531.584 164.3 525.906 176.873 513.103 185.065C498.333 194.516 478.143 196.687 464.72 207.704C458.506 212.807 453.558 219.858 455.087 227.254C456.607 234.599 463.96 239.97 471.975 242.987C481.59 246.608 492.473 247.112 502.786 248.525C511.078 249.66 519.243 251.384 527.179 253.634C542.98 258.118 557.861 264.668 571.189 272.86C584.538 281.063 596.345 290.87 606.061 301.925C607.215 303.238 608.337 304.568 609.429 305.914L609.427 308.47C605.266 303.146 600.616 298.071 595.549 293.298C584.381 282.78 571.182 273.681 556.551 266.456C541.879 259.211 525.779 253.862 508.97 250.906C504.883 250.187 500.514 249.674 496.072 249.141L494.589 248.962C480.232 247.222 465.359 245.014 456.985 234.79C452.18 228.921 452.108 221.733 455.756 215.461C459.574 208.899 466.614 203.619 474.235 199.956C482.537 195.966 491.732 193.382 500.33 189.864C508.5 186.521 515.87 182.219 521.238 176.142C529.088 167.259 532.378 156.486 535.073 145.858L535.518 144.088C535.591 143.793 535.664 143.499 535.737 143.205L536.173 141.443C536.39 140.564 536.607 139.688 536.826 138.816C540.056 125.946 543.682 112.503 553.878 101.919C563.398 92.0359 577.44 85.267 592.441 82.3917Z" fill="white"/>
<path fill-rule="evenodd" clip-rule="evenodd" d="M592.441 82.3917C598.008 81.3246 603.727 80.7938 609.427 80.8363L609.427 82.2047C599.488 82.1368 589.507 83.8619 580.444 87.1143C566.017 92.2933 554.279 101.252 547.736 112.914C540.846 125.202 538.947 138.824 535.184 151.847C531.584 164.3 525.906 176.873 513.103 185.065C498.333 194.516 478.143 196.687 464.72 207.704C458.506 212.807 453.558 219.858 455.087 227.254C456.607 234.599 463.96 239.97 471.975 242.987C481.59 246.608 492.473 247.112 502.786 248.525C511.078 249.66 519.243 251.384 527.179 253.634C542.98 258.118 557.861 264.668 571.189 272.86C584.538 281.063 596.345 290.87 606.061 301.925C607.215 303.238 608.337 304.568 609.429 305.914L609.427 308.47C605.266 303.146 600.616 298.071 595.549 293.298C584.381 282.78 571.182 273.681 556.551 266.456C541.879 259.211 525.779 253.862 508.97 250.906C504.883 250.187 500.514 249.674 496.072 249.141L494.589 248.962C480.232 247.222 465.359 245.014 456.985 234.79C452.18 228.921 452.108 221.733 455.756 215.461C459.574 208.899 466.614 203.619 474.235 199.956C482.537 195.966 491.732 193.382 500.33 189.864C508.5 186.521 515.87 182.219 521.238 176.142C529.088 167.259 532.378 156.486 535.073 145.858L535.518 144.088C535.591 143.793 535.664 143.499 535.737 143.205L536.173 141.443C536.39 140.564 536.607 139.688 536.826 138.816C540.056 125.946 543.682 112.503 553.878 101.919C563.398 92.0359 577.44 85.267 592.441 82.3917Z" stroke="white"/>
</mask>
<g mask="url(#mask18_507_1306)">
<path fill-rule="evenodd" clip-rule="evenodd" d="M-680.545 534.188H609.426V-161.344H-680.545V534.188Z" fill="white" fill-opacity="0.08"/>
<path fill-rule="evenodd" clip-rule="evenodd" d="M-680.545 534.188H609.426V-161.344H-680.545V534.188Z" fill="url(#paint19_linear_507_1306)"/>
</g>
<mask id="mask19_507_1306" style="mask-type:alpha" maskUnits="userSpaceOnUse" x="491" y="101" width="119" height="178">
<path fill-rule="evenodd" clip-rule="evenodd" d="M609.427 101.266L609.428 102.693C604.615 103.675 599.948 105.131 595.57 107.02C590.265 109.307 585.385 112.223 581.182 115.708C576.603 119.505 573.008 123.962 570.175 128.741C565.943 135.881 563.414 143.53 561.012 151.194L560.213 153.749L559.412 156.3C558.873 158 558.323 159.694 557.745 161.379C554.467 170.933 549.922 180.552 542.064 188.286C538.189 192.1 533.45 195.355 528 197.592C521.404 200.299 514.093 201.55 507.399 204.061C501.881 206.132 496.379 209.453 494.038 214.169C491.561 219.163 493.919 224.349 498.472 227.984C503.628 232.102 510.731 233.756 517.62 234.968C524.153 236.118 530.662 237.192 537.064 238.778C549.177 241.78 560.842 245.984 571.741 251.217C582.691 256.478 592.889 262.786 602.032 269.969C604.582 271.973 607.049 274.045 609.427 276.183L609.429 278.26C604.265 273.512 598.662 269.077 592.701 264.993C582.761 258.185 571.79 252.362 560.124 247.689C548.475 243.024 536.127 239.54 523.416 237.362C516.229 236.129 508.679 235.178 502.266 232.087C497.109 229.602 492.53 225.508 491.508 220.578C490.475 215.614 493.346 210.964 497.727 207.608C502.687 203.808 509.035 201.86 515.388 200.099C522.096 198.239 528.692 196.323 534.262 192.653C539.133 189.443 543.047 185.397 546.204 181.02C552.947 171.663 556.123 161.121 559.406 150.721C562.849 139.812 566.653 128.546 575.077 119.376C582.261 111.555 592.49 105.78 603.825 102.602C605.666 102.086 607.536 101.64 609.427 101.266Z" fill="white"/>
<path fill-rule="evenodd" clip-rule="evenodd" d="M609.427 101.266L609.428 102.693C604.615 103.675 599.948 105.131 595.57 107.02C590.265 109.307 585.385 112.223 581.182 115.708C576.603 119.505 573.008 123.962 570.175 128.741C565.943 135.881 563.414 143.53 561.012 151.194L560.213 153.749L559.412 156.3C558.873 158 558.323 159.694 557.745 161.379C554.467 170.933 549.922 180.552 542.064 188.286C538.189 192.1 533.45 195.355 528 197.592C521.404 200.299 514.093 201.55 507.399 204.061C501.881 206.132 496.379 209.453 494.038 214.169C491.561 219.163 493.919 224.349 498.472 227.984C503.628 232.102 510.731 233.756 517.62 234.968C524.153 236.118 530.662 237.192 537.064 238.778C549.177 241.78 560.842 245.984 571.741 251.217C582.691 256.478 592.889 262.786 602.032 269.969C604.582 271.973 607.049 274.045 609.427 276.183L609.429 278.26C604.265 273.512 598.662 269.077 592.701 264.993C582.761 258.185 571.79 252.362 560.124 247.689C548.475 243.024 536.127 239.54 523.416 237.362C516.229 236.129 508.679 235.178 502.266 232.087C497.109 229.602 492.53 225.508 491.508 220.578C490.475 215.614 493.346 210.964 497.727 207.608C502.687 203.808 509.035 201.86 515.388 200.099C522.096 198.239 528.692 196.323 534.262 192.653C539.133 189.443 543.047 185.397 546.204 181.02C552.947 171.663 556.123 161.121 559.406 150.721C562.849 139.812 566.653 128.546 575.077 119.376C582.261 111.555 592.49 105.78 603.825 102.602C605.666 102.086 607.536 101.64 609.427 101.266Z" stroke="white"/>
</mask>
<g mask="url(#mask19_507_1306)">
<path fill-rule="evenodd" clip-rule="evenodd" d="M-675.203 533.938H609.426V-160.301H-675.203V533.938Z" fill="white" fill-opacity="0.08"/>
<path fill-rule="evenodd" clip-rule="evenodd" d="M-675.203 533.938H609.426V-160.301H-675.203V533.938Z" fill="url(#paint20_linear_507_1306)"/>
</g>
<mask id="mask20_507_1306" style="mask-type:alpha" maskUnits="userSpaceOnUse" x="587" y="155" width="23" height="77">
<path fill-rule="evenodd" clip-rule="evenodd" d="M609.426 155.27L609.425 157.555C605.499 161.816 601.786 166.199 598.598 170.851C593.822 177.817 590.293 185.449 589.379 193.419C588.528 200.863 590.145 208.299 594.563 214.898C598.293 220.469 603.494 225.174 609.426 229.28L609.426 231.027C608.53 230.424 607.647 229.809 606.778 229.179C600.476 224.613 594.919 219.218 591.457 212.94C587.561 205.873 586.676 198.123 588.101 190.514C590.597 177.212 599.528 165.848 609.426 155.27V155.27Z" fill="white"/>
<path fill-rule="evenodd" clip-rule="evenodd" d="M609.426 155.27L609.425 157.555C605.499 161.816 601.786 166.199 598.598 170.851C593.822 177.817 590.293 185.449 589.379 193.419C588.528 200.863 590.145 208.299 594.563 214.898C598.293 220.469 603.494 225.174 609.426 229.28L609.426 231.027C608.53 230.424 607.647 229.809 606.778 229.179C600.476 224.613 594.919 219.218 591.457 212.94C587.561 205.873 586.676 198.123 588.101 190.514C590.597 177.212 599.528 165.848 609.426 155.27V155.27Z" stroke="white"/>
</mask>
<g mask="url(#mask20_507_1306)">
<path fill-rule="evenodd" clip-rule="evenodd" d="M-680.545 533.55H609.426V-159.725H-680.545V533.55Z" fill="white" fill-opacity="0.08"/>
<path fill-rule="evenodd" clip-rule="evenodd" d="M-680.545 533.55H609.426V-159.725H-680.545V533.55Z" fill="url(#paint21_linear_507_1306)"/>
</g>
</g>
<defs>
<linearGradient id="paint0_linear_507_1306" x1="22.9358" y1="414.583" x2="1057.61" y2="171.195" gradientUnits="userSpaceOnUse">
<stop stop-color="#0F1116"/>
<stop offset="0.892528" stop-color="#0C1326" stop-opacity="0"/>
</linearGradient>
<radialGradient id="paint1_radial_507_1306" cx="0" cy="0" r="1" gradientUnits="userSpaceOnUse" gradientTransform="translate(606.634 236.741) rotate(112.427) scale(1350.66 1019.68)">
<stop stop-color="#1A3DCA"/>
<stop offset="0.405234" stop-color="#001E95"/>
<stop offset="1" stop-color="#090B14"/>
</radialGradient>
<linearGradient id="paint2_linear_507_1306" x1="157.417" y1="274.765" x2="91.8634" y2="278.75" gradientUnits="userSpaceOnUse">
<stop stop-color="#1C202C"/>
<stop offset="0.60318" stop-opacity="0"/>
</linearGradient>
<linearGradient id="paint3_linear_507_1306" x1="126.392" y1="277.336" x2="76.7636" y2="279.961" gradientUnits="userSpaceOnUse">
<stop stop-color="#1C202C"/>
<stop offset="0.60318" stop-opacity="0"/>
</linearGradient>
<linearGradient id="paint4_linear_507_1306" x1="89.7208" y1="238.782" x2="68.7965" y2="239.835" gradientUnits="userSpaceOnUse">
<stop stop-color="#1C202C"/>
<stop offset="0.60318" stop-opacity="0"/>
</linearGradient>
<linearGradient id="paint5_linear_507_1306" x1="41.4061" y1="357.505" x2="18.4346" y2="359.741" gradientUnits="userSpaceOnUse">
<stop stop-color="#1C202C"/>
<stop offset="0.60318" stop-opacity="0"/>
</linearGradient>
<linearGradient id="paint6_linear_507_1306" x1="710.754" y1="167.472" x2="359.868" y2="224.587" gradientUnits="userSpaceOnUse">
<stop stop-color="#1C202C"/>
<stop offset="0.60318" stop-opacity="0"/>
</linearGradient>
<linearGradient id="paint7_linear_507_1306" x1="711.027" y1="167.363" x2="360.063" y2="224.487" gradientUnits="userSpaceOnUse">
<stop stop-color="#1C202C"/>
<stop offset="0.60318" stop-opacity="0"/>
</linearGradient>
<linearGradient id="paint8_linear_507_1306" x1="452.771" y1="196.824" x2="238.43" y2="224.782" gradientUnits="userSpaceOnUse">
<stop stop-color="#1C202C"/>
<stop offset="0.60318" stop-opacity="0"/>
</linearGradient>
<linearGradient id="paint9_linear_507_1306" x1="438.537" y1="185.752" x2="224.284" y2="213.68" gradientUnits="userSpaceOnUse">
<stop stop-color="#1C202C"/>
<stop offset="0.60318" stop-opacity="0"/>
</linearGradient>
<linearGradient id="paint10_linear_507_1306" x1="711.724" y1="166.688" x2="360.291" y2="223.919" gradientUnits="userSpaceOnUse">
<stop stop-color="#1C202C"/>
<stop offset="0.60318" stop-opacity="0"/>
</linearGradient>
<linearGradient id="paint11_linear_507_1306" x1="711.387" y1="166.947" x2="359.805" y2="224.198" gradientUnits="userSpaceOnUse">
<stop stop-color="#1C202C"/>
<stop offset="0.60318" stop-opacity="0"/>
</linearGradient>
<linearGradient id="paint12_linear_507_1306" x1="711.22" y1="166.724" x2="360.059" y2="223.857" gradientUnits="userSpaceOnUse">
<stop stop-color="#1C202C"/>
<stop offset="0.60318" stop-opacity="0"/>
</linearGradient>
<linearGradient id="paint13_linear_507_1306" x1="317.75" y1="413.24" x2="302.76" y2="414.328" gradientUnits="userSpaceOnUse">
<stop stop-color="#1C202C"/>
<stop offset="0.60318" stop-opacity="0"/>
</linearGradient>
<linearGradient id="paint14_linear_507_1306" x1="434.223" y1="27.1584" x2="390.176" y2="30.1639" gradientUnits="userSpaceOnUse">
<stop stop-color="#1C202C"/>
<stop offset="0.60318" stop-opacity="0"/>
</linearGradient>
<linearGradient id="paint15_linear_507_1306" x1="398.715" y1="68.6338" x2="375.201" y2="70.8822" gradientUnits="userSpaceOnUse">
<stop stop-color="#1C202C"/>
<stop offset="0.60318" stop-opacity="0"/>
</linearGradient>
<linearGradient id="paint16_linear_507_1306" x1="711.406" y1="166.59" x2="359.978" y2="223.837" gradientUnits="userSpaceOnUse">
<stop stop-color="#1C202C"/>
<stop offset="0.60318" stop-opacity="0"/>
</linearGradient>
<linearGradient id="paint17_linear_507_1306" x1="711.346" y1="166.752" x2="360.11" y2="223.905" gradientUnits="userSpaceOnUse">
<stop stop-color="#1C202C"/>
<stop offset="0.60318" stop-opacity="0"/>
</linearGradient>
<linearGradient id="paint18_linear_507_1306" x1="711.482" y1="166.67" x2="359.805" y2="223.999" gradientUnits="userSpaceOnUse">
<stop stop-color="#1C202C"/>
<stop offset="0.60318" stop-opacity="0"/>
</linearGradient>
<linearGradient id="paint19_linear_507_1306" x1="711.45" y1="166.592" x2="359.862" y2="223.829" gradientUnits="userSpaceOnUse">
<stop stop-color="#1C202C"/>
<stop offset="0.60318" stop-opacity="0"/>
</linearGradient>
<linearGradient id="paint20_linear_507_1306" x1="711.028" y1="167.025" x2="360.855" y2="223.902" gradientUnits="userSpaceOnUse">
<stop stop-color="#1C202C"/>
<stop offset="0.60318" stop-opacity="0"/>
</linearGradient>
<linearGradient id="paint21_linear_507_1306" x1="711.45" y1="167.147" x2="359.922" y2="224.561" gradientUnits="userSpaceOnUse">
<stop stop-color="#1C202C"/>
<stop offset="0.60318" stop-opacity="0"/>
</linearGradient>
</defs>
</svg>
