<svg width="20" height="36" viewBox="0 0 20 36" fill="none" xmlns="http://www.w3.org/2000/svg">
<path d="M2.15055 8.83201C2.15055 5.98837 2.83636 3.81382 4.208 2.30836C5.57964 0.769454 7.60364 0 10.28 0C12.9564 0 14.9804 0.769454 16.352 2.30836C17.7236 3.81382 18.4095 5.98837 18.4095 8.83201V9.93601H13.1906V8.48073C13.1906 6.17237 12.2706 5.01818 10.4306 5.01818C8.59055 5.01818 7.67055 6.17237 7.67055 8.48073C7.67055 9.45091 7.87128 10.3709 8.27273 11.2407C8.67419 12.1106 9.19273 12.8967 9.82837 13.5993C10.464 14.3018 11.1666 15.0044 11.936 15.7069C12.7055 16.376 13.4582 17.0953 14.1942 17.8647C14.9636 18.6007 15.6662 19.4037 16.3018 20.2735C16.9375 21.1098 17.456 22.1135 17.8575 23.2844C18.2589 24.4553 18.4597 25.7266 18.4597 27.0982C18.4597 29.9418 17.7571 32.1331 16.352 33.672C14.9469 35.1775 12.9062 35.9302 10.2298 35.9302C7.55346 35.9302 5.51273 35.1775 4.10764 33.672C2.70255 32.1331 2 29.9418 2 27.0982V24.9404H7.21891V27.4495C7.21891 29.7244 8.17237 30.8618 10.0793 30.8618C11.9862 30.8618 12.9396 29.7244 12.9396 27.4495C12.9396 26.1447 12.5716 24.9237 11.8356 23.7862C11.0996 22.6153 10.1964 21.5615 9.12582 20.6247C8.08873 19.688 7.03491 18.7178 5.96437 17.7142C4.89382 16.6771 3.99055 15.4058 3.25455 13.9004C2.51855 12.3615 2.15055 10.672 2.15055 8.83201Z" fill="url(#paint0_linear_507_1472)"/>
<mask id="mask0_507_1472" style="mask-type:alpha" maskUnits="userSpaceOnUse" x="2" y="0" width="17" height="36">
<path d="M2.15055 8.83201C2.15055 5.98837 2.83636 3.81382 4.208 2.30836C5.57964 0.769454 7.60364 0 10.28 0C12.9564 0 14.9804 0.769454 16.352 2.30836C17.7236 3.81382 18.4095 5.98837 18.4095 8.83201V9.93601H13.1906V8.48073C13.1906 6.17237 12.2706 5.01818 10.4306 5.01818C8.59055 5.01818 7.67055 6.17237 7.67055 8.48073C7.67055 9.45091 7.87128 10.3709 8.27273 11.2407C8.67419 12.1106 9.19273 12.8967 9.82837 13.5993C10.464 14.3018 11.1666 15.0044 11.936 15.7069C12.7055 16.376 13.4582 17.0953 14.1942 17.8647C14.9636 18.6007 15.6662 19.4037 16.3018 20.2735C16.9375 21.1098 17.456 22.1135 17.8575 23.2844C18.2589 24.4553 18.4597 25.7266 18.4597 27.0982C18.4597 29.9418 17.7571 32.1331 16.352 33.672C14.9469 35.1775 12.9062 35.9302 10.2298 35.9302C7.55346 35.9302 5.51273 35.1775 4.10764 33.672C2.70255 32.1331 2 29.9418 2 27.0982V24.9404H7.21891V27.4495C7.21891 29.7244 8.17237 30.8618 10.0793 30.8618C11.9862 30.8618 12.9396 29.7244 12.9396 27.4495C12.9396 26.1447 12.5716 24.9237 11.8356 23.7862C11.0996 22.6153 10.1964 21.5615 9.12582 20.6247C8.08873 19.688 7.03491 18.7178 5.96437 17.7142C4.89382 16.6771 3.99055 15.4058 3.25455 13.9004C2.51855 12.3615 2.15055 10.672 2.15055 8.83201Z" fill="url(#paint1_linear_507_1472)"/>
</mask>
<g mask="url(#mask0_507_1472)">
<rect x="-2.00781" y="19.8633" width="24.5682" height="20.0379" fill="url(#paint2_linear_507_1472)"/>
<path d="M8.5335 11.7614C5.13578 6.18567 5.48426 2.09097 7.22665 0.435666L6.61684 -0.435547L0.605469 3.31067L1.21532 20.1251L12.1926 24.394C16.2002 30.4054 14.9224 34.5001 13.7608 35.3713L14.1093 36.1554L19.685 32.2349V20.9963L8.5335 11.7614Z" fill="url(#paint3_linear_507_1472)"/>
</g>
<defs>
<linearGradient id="paint0_linear_507_1472" x1="17.7055" y1="6.78372" x2="4.4278" y2="8.36661" gradientUnits="userSpaceOnUse">
<stop stop-color="#78111D"/>
<stop offset="1" stop-color="#E92139"/>
</linearGradient>
<linearGradient id="paint1_linear_507_1472" x1="17.7055" y1="6.78372" x2="4.4278" y2="8.36661" gradientUnits="userSpaceOnUse">
<stop stop-color="#78111D"/>
<stop offset="1" stop-color="#E92139"/>
</linearGradient>
<linearGradient id="paint2_linear_507_1472" x1="18.8228" y1="30.2276" x2="-0.107969" y2="38.0194" gradientUnits="userSpaceOnUse">
<stop stop-color="#78111D"/>
<stop offset="1" stop-color="#F01A34"/>
</linearGradient>
<linearGradient id="paint3_linear_507_1472" x1="14.6439" y1="27.4784" x2="-1.19897" y2="18.277" gradientUnits="userSpaceOnUse">
<stop stop-color="#F01A34"/>
<stop offset="1" stop-color="#77111D"/>
</linearGradient>
</defs>
</svg>
