 <svg width="56" height="48" viewBox="0 0 56 48" fill="none" xmlns="http://www.w3.org/2000/svg">
                            <g clip-path="url(#clip0_2125_33522)">
                                <path fill-rule="evenodd" clip-rule="evenodd"
                                    d="M55.4799 6V6.62609V41.3739V42H0.697266V41.5304V6.62609V6H54.8538H55.4799ZM1.32335 41.3739H54.9321C54.9321 41.3739 54.932 6.62609 55.1668 6.62609H1.32335V41.3739ZM53.8366 7.7998H2.57568V12.4172H53.8366V7.7998ZM53.8366 35.5044H2.57568V40.1218H53.8366V35.5044ZM45.3843 17.5825H42.6451C41.9408 17.5825 41.4712 17.8956 41.2365 18.4434L36.3843 30.2608H39.8278L40.5321 28.3825H44.7582L45.0712 30.2608H48.2017L45.3843 17.5825ZM41.4712 25.7999L43.2712 21.026L44.3669 25.7999H41.4712ZM24.4886 17.5825H27.6191L24.8799 30.4173H21.7495L24.4886 17.5825ZM36.5407 26.1133C36.5407 24.0918 34.8746 23.1999 33.544 22.4876C32.6595 22.0142 31.9233 21.6201 31.9233 21.0263C31.9233 20.635 32.3929 20.1655 33.332 19.9307C33.8016 19.8524 35.2103 19.8524 36.5407 20.5568L37.0885 17.8176L36.9839 17.7795C36.1453 17.4737 35.1568 17.1133 33.8799 17.1133C30.6712 17.1133 28.4016 18.9133 28.3233 21.4176C28.3233 23.2176 29.8885 24.3133 31.1407 24.9394C32.3929 25.5655 32.9407 25.9568 32.9407 26.5046C32.9407 27.3655 31.9233 27.6785 30.9842 27.6785C29.419 27.6785 28.3233 27.2089 27.619 26.8959L27.1494 29.7133C27.932 30.0263 29.3407 30.4176 30.7494 30.4176C34.2712 30.4959 36.5407 28.7742 36.5407 26.1133ZM14.784 18.9131L16.1927 26.2696L19.4796 17.5044H22.9231L17.6796 30.3392H14.2362L11.5753 20.1653C11.4188 19.4609 11.2622 19.3044 10.7927 19.0696C10.0101 18.6783 8.7579 18.2087 7.58398 17.974L7.66224 17.7392H13.297C14.0014 17.7392 14.7057 18.1305 14.784 18.9131Z"
                                    fill="#8F9395">
                                </path>
                            </g>
                            <defs>
                                <clippath id="clip0_2125_33522">
                                    <rect width="54.7826" height="48" fill="white" transform="translate(0.697266)">
                                    </rect>
                                </clippath>
                            </defs>
                        </svg>