<svg width="58" height="48" viewBox="0 0 58 48" fill="none" xmlns="http://www.w3.org/2000/svg">
                            <g clip-path="url(#clip0_2125_33540)">
                                <path fill-rule="evenodd" clip-rule="evenodd"
                                    d="M54.2858 3.13291L54.2238 3.07087C53.3553 2.12483 53.712 0.434365 55.1078 0.0776605C55.2164 0.0466428 55.3404 0.015625 55.449 0.015625H55.6506C56.3795 0.0466428 57.0774 0.542927 57.3101 1.27184C57.8219 2.79171 56.2089 4.18751 54.7666 3.47411C54.596 3.39656 54.4409 3.288 54.3168 3.16393L54.2858 3.13291ZM56.6122 0.604963C56.4416 0.465383 56.2244 0.35682 55.9918 0.279276C54.9992 -0.0153928 53.9601 0.77556 53.9601 1.83016C53.9601 2.7607 54.6736 3.38105 55.449 3.44309H55.48H55.6661H55.6816C56.0539 3.41207 56.4261 3.25698 56.7207 2.9468C56.9999 2.65213 57.155 2.27992 57.1705 1.92322C57.186 1.92322 57.186 1.92322 57.186 1.90771V1.76813V1.75262C57.1705 1.41142 57.0464 1.07023 56.8138 0.806578L56.8293 0.822087C56.8293 0.822087 56.7828 0.760051 56.7207 0.698016C56.6587 0.63598 56.5967 0.573945 56.5812 0.573945L56.6122 0.604963ZM54.8908 1.87664V1.86113H54.8442V0.791016H55.356C55.8058 0.791016 55.9454 0.806525 56.0539 0.915087C56.147 1.02365 56.1935 1.17874 56.209 1.33383C56.209 1.53544 56.116 1.75257 55.9764 1.83011L55.8678 1.89215L55.9764 1.93867C56.116 2.01622 56.178 2.17131 56.178 2.5125C56.178 2.66759 56.209 2.83819 56.2245 2.90022L56.2711 3.00879H56.116H56.1005C55.8833 3.00879 55.8523 2.96226 55.8523 2.55903V2.45047V2.3419V2.3264C55.8213 2.14029 55.7438 2.06274 55.6042 2.03173H55.5732H55.3871H55.294H55.2475V2.04724V2.5125L55.232 2.99328H55.0769H55.0614H54.8908V1.87664ZM55.263 1.00814H55.2475V1.36484V1.72155L55.4181 1.73706C55.4505 1.74787 55.4829 1.74361 55.5101 1.74003C55.5219 1.73848 55.5327 1.73706 55.5421 1.73706H55.5577C55.6197 1.73706 55.6662 1.72155 55.7127 1.69053C55.7748 1.67502 55.8058 1.644 55.8368 1.59748C55.9454 1.4579 55.9454 1.27179 55.8058 1.1167L55.7903 1.10119C55.7127 1.00814 55.6817 1.00814 55.4646 1.00814H55.3715L55.263 0.992631V1.00814ZM57.3724 11.9264C57.1552 14.2683 55.7905 15.7571 53.2935 16.3465C50.4709 17.0288 49.1527 16.0053 48.8425 12.8415V12.7639V12.7019L48.8373 12.6657C48.8237 12.5721 48.8115 12.488 48.8115 12.3917V12.2521V12.2366C48.8115 12.1493 48.8074 12.066 48.8034 11.9847C48.7997 11.9072 48.796 11.8315 48.796 11.7558V11.5077V11.4922C48.7856 11.3578 48.7891 11.2234 48.7925 11.0891V11.0889C48.7942 11.0217 48.796 10.9545 48.796 10.8873V10.8718V10.6857C48.9666 7.04113 50.7501 5.16455 54.3016 4.83887H54.3947H54.5032H54.5187H54.8444H54.984H55.0771C55.1081 4.85438 55.1546 4.85438 55.1856 4.85438C56.6124 5.00946 57.3414 5.98652 57.3879 7.83208L57.4034 8.25082L55.9921 8.59202C55.2942 8.74711 54.7048 8.88669 54.5963 8.9177C54.5859 8.90736 54.5825 8.87635 54.5768 8.82467C54.5739 8.79881 54.5704 8.76779 54.5653 8.7316C54.5653 8.68845 54.5619 8.64198 54.5584 8.59217L54.5583 8.59202C54.5542 8.53444 54.5498 8.4724 54.5498 8.40591V8.3904V8.18879C54.5342 8.15777 54.5342 8.17328 54.5342 8.2198C54.5032 7.77005 54.4102 7.44436 54.2706 7.24274L54.3171 7.28927L54.2241 7.18071C54.1465 7.10316 54.1155 7.07215 54.1155 7.08766C53.8984 6.93257 53.5882 6.91706 53.1695 7.05664C52.3165 7.3358 51.9132 8.00268 51.8047 9.56908V9.53806C51.7892 9.52255 51.7892 9.55355 51.7892 9.61556V9.6156C51.7892 9.66213 51.8047 9.69315 51.8047 9.67764C51.7892 9.89476 51.7737 10.1274 51.7737 10.3755C51.7582 10.298 51.7582 10.3755 51.7582 10.5461C51.7582 10.6857 51.7737 10.7478 51.7737 10.7167C51.7737 10.8372 51.7773 10.9612 51.7811 11.0889C51.7851 11.2244 51.7892 11.364 51.7892 11.5077C51.7966 11.6117 51.8005 11.7087 51.8042 11.8019C51.808 11.8968 51.8116 11.9878 51.8187 12.0787C51.8047 12.0526 51.8047 12.0841 51.8047 12.1591C51.8047 12.2366 51.8202 12.2676 51.8202 12.2366V12.1746C51.8822 13.2757 52.0683 13.8185 52.4405 14.0201C52.5646 14.0977 52.7352 14.1287 52.9213 14.1287H52.9368C53.9449 14.1287 54.4412 13.5704 54.5342 12.3607C54.5342 12.4382 54.5498 12.4537 54.5498 12.4227V12.2831L54.5342 12.2676C54.5498 12.2211 54.5498 12.1746 54.5498 12.1125V12.0195L54.5653 11.5387L54.6893 11.5077C55.0771 11.4146 57.3414 10.8873 57.3724 10.8873C57.4189 10.8873 57.4189 11.3371 57.3879 11.7558V11.8179C57.3724 11.8489 57.3724 11.8954 57.3724 11.9264ZM51.8187 12.0787L51.8202 12.0815V12.097L51.8187 12.0787ZM13.4118 47.9846C10.3646 47.9692 10.333 47.969 10.0391 47.9071C7.89885 47.4108 6.37898 45.86 5.92922 43.7197L5.89821 43.5491C5.89045 43.5104 5.88657 43.4716 5.8827 43.4328C5.87882 43.394 5.87494 43.3553 5.86719 43.3165V43.2079V43.1924V34.8021V26.9546C5.86719 26.6743 5.87468 26.454 5.87925 26.3196L5.87925 26.3196C5.88126 26.2607 5.8827 26.2183 5.8827 26.1947L5.94473 26.0396C6.17737 25.4193 6.67365 24.9695 7.2785 24.8144C7.94538 24.6438 8.62777 24.8454 9.10855 25.3107H9.12405C9.34118 25.5278 9.49627 25.7915 9.60483 26.0861L9.65136 26.2257C9.66686 26.2878 9.68237 26.3808 9.68237 26.4739L9.69788 31.1731C9.71339 35.8102 9.7289 36.0583 9.77543 36.1359C9.96153 36.4151 10.3648 36.3995 10.5043 36.1049C10.5664 35.9963 10.5664 35.9188 10.5664 33.1272V29.2189C10.5819 28.7227 10.5819 28.428 10.5819 28.428C10.6439 28.428 15.6378 31.8554 15.7929 32.0105C16.1496 32.3517 16.4287 32.879 16.5218 33.3753C16.5373 33.4994 16.5528 35.7172 16.5528 40.773V48.0002H16.1186L13.4355 47.9847L13.4118 47.9846ZM39.3818 11.942L39.4355 11.9317C39.5486 11.9101 39.7747 11.8671 40.0332 11.8025C40.2684 11.7411 40.6182 11.6595 40.9404 11.5844L40.9404 11.5844C41.1069 11.5456 41.2659 11.5085 41.398 11.4768L42.0959 11.3062L42.1114 11.1511V11.1046L42.1269 10.8874V10.8719C42.2044 9.9724 42.6077 9.49163 43.4452 9.32103C43.5227 9.30552 43.6002 9.29001 43.6778 9.29001H43.7088H43.7864H43.9104C44.3292 9.33654 44.5618 9.6157 44.5773 10.0965V10.112V10.2826V10.2981C44.5773 10.3291 44.5734 10.3562 44.5696 10.3833L44.5696 10.3834C44.5657 10.4105 44.5618 10.4377 44.5618 10.4687C44.5308 10.6858 44.4687 10.8719 44.3602 11.0425C44.3757 11.0425 44.3757 11.027 44.3757 11.027C44.3912 11.027 44.3292 11.089 44.2516 11.1666C44.1741 11.2441 44.112 11.3062 44.0965 11.3062C43.7864 11.5698 43.2591 11.818 42.3906 12.1902C39.9401 13.2293 39.1492 14.0357 38.9476 15.6642C38.7149 17.6028 39.5989 18.921 41.1033 19.0451H41.1654H41.491H41.5531C41.7082 19.0296 41.8633 19.0141 42.0183 18.9831C43.2435 18.7349 44.2051 18.068 44.7169 17.153C44.7789 17.0445 44.8255 16.9979 44.8255 17.0134C44.841 17.0445 44.8875 17.184 44.934 17.3391C45.1201 17.8974 45.1666 17.944 45.2752 17.913C45.3372 17.8974 45.9266 17.7579 46.5935 17.6028L46.6244 17.5957C47.6101 17.3691 47.8237 17.32 47.8301 17.2516C47.8318 17.2327 47.8177 17.2123 47.7998 17.1863L47.7877 17.1685C47.6171 16.8894 47.5395 16.6102 47.493 15.6952V15.7262C47.493 15.7572 47.4775 15.7417 47.4775 15.6797C47.4775 15.6176 47.4775 15.5866 47.493 15.6021C47.462 14.9352 47.4465 13.9737 47.4465 12.4848L47.4442 12.1187V12.1185C47.4307 9.95379 47.4261 9.22187 47.3379 8.82475C47.3069 8.71618 47.2759 8.62313 47.2448 8.53008C47.2332 8.50682 47.2216 8.48453 47.21 8.46224C47.1751 8.39535 47.1402 8.32847 47.1053 8.23541C46.8106 7.67709 46.1902 7.28937 45.4458 7.1653C45.2132 7.14979 44.9185 7.13428 44.6704 7.13428C44.6471 7.13428 44.6238 7.13815 44.6006 7.14203C44.5773 7.14591 44.554 7.14979 44.5308 7.14979C44.5067 7.14979 44.4536 7.15809 44.3886 7.16825L44.3885 7.16827L44.3884 7.16827C44.3278 7.17775 44.2569 7.18883 44.1896 7.19631C41.9408 7.49098 40.1573 8.62313 39.6145 10.0965C39.5214 10.3601 39.4128 10.9495 39.3508 11.3837V11.5233C39.3508 11.5543 39.3353 11.5543 39.3353 11.5078C39.3353 11.5388 39.3353 11.5853 39.3198 11.6163C39.3293 11.6687 39.3374 11.7152 39.3444 11.7559C39.3603 11.8477 39.3711 11.9098 39.3818 11.942ZM44.5618 13.7876C44.5618 14.0978 44.5618 14.3304 44.5463 14.501V14.6406L44.5463 14.6434L44.5462 14.6479L44.5461 14.6493C44.5459 14.6509 44.5455 14.6518 44.5448 14.6521C44.5431 14.6529 44.5393 14.6491 44.5308 14.6406L44.5308 14.6406C44.5308 14.7336 44.5153 14.8267 44.4998 14.8887C44.2516 16.2845 42.8713 16.9669 42.1889 16.4861V16.5016C42.1889 16.5016 42.1424 16.4706 42.0959 16.4086L42.0804 16.3931L42.0649 16.3776C42.0028 16.3155 41.9718 16.269 41.9718 16.269C41.8477 16.0984 41.7702 15.8503 41.7857 15.5401C41.7857 14.6871 42.1424 14.2373 43.3056 13.6325C43.6003 13.4774 43.988 13.2603 44.1741 13.1362C44.3602 13.0121 44.5153 12.9191 44.5308 12.9191V12.9346C44.5463 12.9346 44.5463 12.9191 44.5463 12.9191C44.5618 12.9191 44.5618 13.2913 44.5463 13.71C44.5618 13.7566 44.5618 13.7721 44.5618 13.7876ZM9.54272 16.7964V16.8274C9.54272 16.8274 9.54272 16.7964 9.52721 16.7499C9.5117 16.6723 9.5117 16.5172 9.5117 16.2226C9.5117 15.7573 9.49619 15.6332 9.46517 15.6487C9.45708 15.6568 9.28034 15.6986 9.00748 15.7632C8.75705 15.8224 8.42564 15.9009 8.06937 15.9899L6.70459 16.3156V20.1618C6.70459 23.8219 6.70459 24.0235 6.75112 23.9925C7.51105 23.6668 8.61218 23.8064 9.37212 24.3182L9.60475 24.4733C9.63286 24.4592 9.6355 24.3433 9.64728 23.8255L9.65128 23.6513V22.2865V21.9764V20.2549C9.66647 18.964 9.69652 18.8777 9.81427 18.5397L9.82188 18.5179C10.2871 17.1686 11.7915 16.6878 12.1947 17.7579L12.2723 17.944V18.1457V18.1612V18.2697V18.2852V18.828C12.2878 19.4329 12.2878 20.4253 12.2878 22.0691V22.0694C12.2878 23.6823 12.2878 24.7835 12.3033 25.3263C12.3033 25.6054 12.3188 25.714 12.3343 25.714C12.3411 25.714 12.4773 25.6809 12.695 25.628L12.6951 25.628C12.9719 25.5607 13.3806 25.4614 13.8232 25.3573L15.281 25.0161V23.0465V20.8442L15.2779 19.9013C15.2684 16.8809 15.2672 16.4979 15.1623 16.1458C15.1471 16.0946 15.1296 16.0442 15.1097 15.9864L15.1097 15.9863L15.0949 15.9434C14.8157 15.0749 14.2109 14.6096 13.3424 14.5786H13.1098C12.9081 14.5786 12.7065 14.6096 12.4739 14.6562C11.2487 14.9198 10.1941 15.6642 9.65128 16.6568C9.60475 16.7499 9.57373 16.7964 9.54272 16.7964ZM38.6685 9.01091C38.6685 8.77828 38.653 8.6542 38.6375 8.60768C38.6375 8.59217 38.622 8.57666 38.622 8.57666H38.6065H38.4204H38.2963L38.2556 8.58242C38.1572 8.59622 38.0484 8.6115 37.9396 8.6387C37.0246 8.87133 36.1716 9.63126 35.6443 10.6549L35.5202 10.903V10.2206V10.1896L35.5047 9.53821V9.5227C35.4892 9.5227 34.8999 9.66228 34.1865 9.83288C33.8298 9.91817 33.4964 9.99571 33.2463 10.0539L33.2461 10.0539L33.2457 10.054C32.9959 10.1121 32.8294 10.1508 32.8062 10.1586L32.7441 10.1741V15.5246C32.7441 18.9831 32.7441 20.3634 32.7752 20.7511C32.7752 20.8047 32.7826 20.8361 32.7871 20.8555L32.7872 20.8557C32.7884 20.8608 32.7894 20.865 32.79 20.8686C32.7904 20.8711 32.7907 20.8733 32.7907 20.8752C32.818 20.8752 33.0539 20.8217 33.4011 20.743L33.4014 20.7429C33.6453 20.6876 33.9441 20.6199 34.264 20.5495L35.6598 20.2238C35.6753 20.2083 35.6908 20.1773 35.6908 20.0377V17.1065C35.6908 15.6299 35.6908 14.7482 35.706 14.1589C35.7062 14.155 35.7063 14.1501 35.7063 14.1443L35.706 14.1589C35.7036 14.1973 35.6908 14.1512 35.6908 14.0668C35.6908 13.9582 35.6908 13.9117 35.7063 13.9582V14.0358C35.7374 13.2914 35.8149 13.1053 35.9855 12.7641C36.0941 12.5314 36.2647 12.3143 36.4818 12.1282L36.5128 12.0972C36.5283 12.0817 36.5438 12.07 36.5593 12.0584C36.5748 12.0468 36.5903 12.0351 36.6059 12.0196C36.6214 12.0041 36.6369 11.9886 36.6679 11.9731C37.1797 11.5699 37.8776 11.3217 38.56 11.3217H38.6685H38.684V9.95695C38.6685 9.52281 38.6685 9.22818 38.6685 9.01107V9.01091ZM36.527 12.0494L36.5271 12.0493L36.5271 12.0493C36.5546 12.0167 36.5593 12.0111 36.5593 12.0196C36.5593 12.0196 36.4973 12.0972 36.4042 12.1902C36.4669 12.1206 36.5046 12.076 36.527 12.0494ZM0.671875 30.1647C0.671875 29.9941 0.702893 29.808 0.764928 29.6374C0.778858 29.5997 0.78966 29.5663 0.799402 29.5361C0.817494 29.48 0.831929 29.4352 0.855952 29.3964C0.950798 29.2432 1.19509 29.1825 2.40391 28.8821C2.55958 28.8434 2.73125 28.8007 2.92066 28.7534C3.36702 28.6513 3.78453 28.5545 4.12362 28.4759L4.12384 28.4759L4.12385 28.4759L4.12528 28.4756C4.61001 28.3632 4.93408 28.2881 4.95233 28.2881C4.96784 28.2881 4.98334 28.6913 4.99885 29.2031V29.8235V31.1262C4.99885 31.2503 4.99885 31.3278 4.98334 31.3278C4.85927 31.4054 2.61049 31.8861 2.36234 31.8861C1.4163 31.8861 0.702893 31.1262 0.671875 30.2577V30.1647ZM4.71943 10.2815C4.88088 10.2435 4.97769 10.2207 4.98336 10.2207C4.99886 10.2207 5.01437 10.748 4.99886 12.4075V18.7971V23.3878V27.4046L3.46349 27.7613C2.6105 27.9629 1.9126 28.1335 1.9126 28.1335V19.5415V10.9341L3.43247 10.5774C3.96381 10.4593 4.43896 10.3475 4.71931 10.2815L4.71938 10.2815L4.71943 10.2815ZM0.671875 37.9657V38.1673C0.733911 39.0047 1.43181 39.7802 2.36234 39.7802C2.61049 39.7802 4.85927 39.3149 4.98334 39.2219C4.99885 39.2219 4.99885 39.1443 4.99885 39.0203V37.7175V37.0972C4.98334 36.5854 4.96784 36.1821 4.95233 36.1821C4.93406 36.1821 4.60932 36.2574 4.12373 36.37L4.12254 36.3702L4.11662 36.3716C3.77879 36.4499 3.36395 36.5461 2.92066 36.6474L0.935526 37.1127L0.888999 37.2212C0.853763 37.2682 0.827422 37.3241 0.80324 37.3754L0.803216 37.3754C0.795476 37.3918 0.787957 37.4078 0.780437 37.4228C0.754453 37.4748 0.739353 37.5377 0.726019 37.5932L0.718402 37.6245V37.64C0.687384 37.764 0.671875 37.8571 0.671875 37.9657ZM21.0505 23.5427L21.0815 23.5892C21.097 23.6202 21.097 23.6357 21.066 23.6512L21.0195 23.6667C20.8082 23.7219 19.8026 23.9565 19.008 24.1419C18.4611 24.2695 18.0142 24.3738 17.9953 24.3801C17.9177 24.3957 17.8402 24.2561 17.7316 23.8528C17.499 22.9688 17.4679 22.2399 17.4679 18.7349C17.4679 16.8118 17.4679 16.207 17.4524 16.0364V15.9898C17.4524 15.9743 17.4524 15.9743 17.4369 15.9743C17.3904 15.9898 16.4133 16.2225 16.1342 16.2845L16.0721 16.3L16.0566 16.2845V15.1989V14.1133L16.77 13.9272L17.4835 13.7566V13.7411V12.5624V12.5314C17.4835 11.7094 17.499 11.3992 17.5145 11.3372L17.7781 11.2751C17.9487 11.2441 18.5845 11.089 19.2204 10.934L19.2205 10.9339C19.8563 10.7789 20.3991 10.6548 20.4301 10.6548C20.4348 10.6548 20.438 10.6548 20.4407 10.656C20.447 10.6589 20.4503 10.6686 20.4612 10.7013L20.4612 10.7013C20.4767 10.8409 20.4767 11.2286 20.4767 11.849C20.4767 12.5624 20.4767 12.857 20.4922 12.9656C20.5077 13.0121 20.5077 13.0432 20.5077 13.0432V13.0276C20.5166 13.0366 20.5204 13.0404 20.525 13.042C20.5263 13.0424 20.5277 13.0427 20.5294 13.0429C20.5318 13.0432 20.5348 13.0432 20.5387 13.0432C20.6007 13.0276 22.5704 12.5624 22.5859 12.5624V13.648L22.5704 14.7336L21.5158 14.9818L20.4922 15.2299V15.2454H20.4767V18.1921C20.4767 19.0296 20.4767 19.7275 20.4922 20.3168V20.4409C20.4922 20.9062 20.5077 21.1078 20.5077 20.8596V20.7976C20.5542 22.5966 20.6938 23.1084 21.0505 23.5427ZM0.65625 34.2748C0.733794 35.1278 1.49373 35.8878 2.4863 35.8257C2.74995 35.8102 4.71958 35.3915 4.98323 35.2984C4.99874 35.2984 5.01425 35.1588 5.01425 34.9417V33.7941V32.9566C4.99874 32.5533 4.98323 32.2432 4.96772 32.2432C4.9367 32.2432 4.02168 32.4603 2.93606 32.7239L0.950919 33.1892L0.873374 33.3133C0.780321 33.4684 0.718286 33.6235 0.687268 33.7785C0.671759 33.8096 0.671759 33.8561 0.671759 33.8871V33.9336V34.0112V34.0267V34.2438C0.671759 34.2593 0.671759 34.2748 0.65625 34.2748ZM28.3554 11.0269C28.619 11.0269 28.9292 11.0424 29.1618 11.0734C30.294 11.275 31.1004 12.0349 31.4571 13.2601C31.5192 13.4928 31.5657 13.7719 31.5967 14.0666C31.6432 14.6404 31.6743 15.5089 31.6587 15.9897V15.8036C31.6432 15.7105 31.6432 15.8036 31.6432 16.0052V16.2223C31.6383 16.2471 31.6349 16.2686 31.6321 16.2866C31.6262 16.3248 31.6228 16.3464 31.6122 16.3464C31.6122 16.3464 30.356 16.6566 28.8051 17.0133C28.6047 17.0594 28.4086 17.1045 28.2192 17.148C26.9425 17.4415 25.963 17.6667 25.936 17.6802L25.9205 17.6957L25.8739 17.7112V17.8197C25.8274 18.223 25.9825 19.3396 26.1686 19.7118C26.1996 19.7894 26.2461 19.8514 26.2927 19.9134C26.2772 19.8979 26.2772 19.8979 26.2772 19.9134C26.2772 19.929 26.3237 19.9755 26.3857 20.022L26.4788 20.1151L26.4323 20.053C26.5718 20.1771 26.7269 20.2546 26.9285 20.2702H26.944H27.1457H27.1612C27.3007 20.2546 27.4558 20.2236 27.6264 20.1771C27.8591 20.1151 28.0607 20.0065 28.2158 19.8669L28.1848 19.8979L28.2933 19.8049C28.3864 19.7273 28.4019 19.6963 28.3864 19.6963C28.619 19.4172 28.7276 19.0294 28.7586 18.5332L28.7597 18.5107C28.7741 18.2215 28.7756 18.1916 28.8361 18.1765C28.8549 18.1671 29.0835 18.1123 29.4157 18.0328C29.6328 17.9808 29.8941 17.9182 30.1699 17.8508L31.2865 17.5871C31.3641 17.5716 31.4106 17.5716 31.4416 17.5716L31.4571 17.8353C31.4571 18.0059 31.4571 18.1765 31.4416 18.347C31.4261 18.347 31.4261 18.3626 31.4261 18.4091V18.4401V18.4866C31.3796 18.7658 31.3176 19.076 31.2555 19.3086C30.7592 20.9215 29.3169 22.0692 27.1457 22.5189C26.8665 22.5655 26.5873 22.612 26.3237 22.6275H26.0445C25.8429 22.6275 25.6568 22.612 25.4862 22.5965C24.0904 22.4104 23.2529 21.3868 22.9893 19.5567C22.9815 19.487 22.9738 19.421 22.966 19.3551C22.9583 19.2892 22.9505 19.2233 22.9428 19.1535V19.0605V19.0449C22.9428 18.9925 22.9391 18.94 22.9354 18.8858C22.9314 18.8278 22.9272 18.7679 22.9272 18.7038V18.5176V18.5021V17.6491V17.463V17.432V17.2459C22.935 17.1684 22.9389 17.0947 22.9428 17.021C22.9466 16.9474 22.9505 16.8737 22.9583 16.7962V16.7807V16.7806C22.9583 16.6876 22.9583 16.61 22.9738 16.517C23.2839 13.1826 24.9744 11.3836 28.1072 11.0424H28.2158C28.2623 11.0269 28.3088 11.0269 28.3554 11.0269ZM26.8166 15.6549C26.9866 15.6144 27.1714 15.5704 27.3628 15.5244L28.8206 15.1987L28.8051 14.687V14.5474V14.5319V14.3923C28.7896 14.3613 28.7896 14.3613 28.7896 14.4078C28.7431 13.7254 28.588 13.3842 28.2468 13.2136C28.0297 13.0895 27.5334 13.105 27.1767 13.2291C26.6959 13.3997 26.2772 13.896 26.0911 14.5164C25.998 14.7955 25.9205 15.3073 25.905 15.6175C25.8894 15.633 25.8894 15.664 25.8894 15.726C25.8739 15.8191 25.8894 15.8811 25.905 15.8811C25.9166 15.8695 26.2978 15.7786 26.8166 15.6549Z"
                                    fill="#8F9395">
                                </path>
                            </g>
                            <defs>
                                <clippath id="clip0_2125_33540">
                                    <rect width="56.747" height="48" fill="white" transform="translate(0.65625)">
                                    </rect>
                                </clippath>
                            </defs>
                        </svg>