<svg width="70" height="48" viewBox="0 0 70 48" fill="none" xmlns="http://www.w3.org/2000/svg">
                            <g clip-path="url(#clip0_2125_33589)">
                                <path
                                    d="M55.5896 14.9817L61.2296 13.9017V36.3417H55.5896V14.9817ZM63.8696 14.9817V36.3417H69.6296V13.9017L63.8696 14.9817ZM47.5496 36.4617H53.1896V20.0217H47.5496V36.4617ZM9.86961 22.3017C9.14961 22.3017 7.46961 22.1817 7.46961 20.6217C7.46961 18.8217 9.86961 18.8217 10.8296 18.8217C12.3896 18.8217 14.4296 19.3017 15.8696 19.7817C15.8696 19.7817 16.7096 20.1417 17.4296 20.3817H17.5496V20.2617V15.2217H17.4296C15.6296 14.6217 13.7096 14.0217 9.98961 14.0217C3.50961 14.0217 1.34961 17.8617 1.34961 21.1017C1.34961 23.0217 2.18961 27.4617 9.50961 27.9417C10.1096 27.9417 11.7896 28.0617 11.7896 29.6217C11.7896 30.9417 10.4696 31.6617 8.18961 31.6617C5.66961 31.6617 3.26961 31.0617 1.82961 30.3417V35.6217C3.98961 36.2217 6.50961 36.4617 9.38961 36.4617C15.6296 36.4617 18.5096 32.8617 18.5096 29.2617C18.2696 25.3017 15.1496 22.6617 9.86961 22.3017ZM44.3096 19.7817C39.0296 20.0217 36.3896 22.4217 36.3896 27.2217V36.4617H42.1496V28.9017C42.1496 26.0217 42.5096 24.8217 45.8696 24.7017V19.9017C45.2696 19.6617 44.3096 19.7817 44.3096 19.7817ZM28.8296 20.0217C28.7096 20.3817 27.7496 23.0217 25.5896 25.7817V14.0217L19.7096 15.2217V36.4617H25.5896V29.8617C27.2696 32.5017 28.1096 36.4617 28.1096 36.4617H35.1896C34.4696 33.4617 31.4696 27.9417 31.4696 27.9417C34.2296 24.3417 35.4296 20.6217 35.5496 20.0217H28.8296ZM50.3096 18.4617C51.8696 18.4617 53.0696 17.1417 53.0696 15.5817C53.0696 14.0217 51.7496 12.7017 50.3096 12.7017C48.8696 12.7017 47.5496 14.0217 47.5496 15.5817C47.5496 17.1417 48.7496 18.4617 50.3096 18.4617Z"
                                    fill="#8F9395">
                                </path>
                            </g>
                            <defs>
                                <clippath id="clip0_2125_33589">
                                    <rect width="68.4" height="48" fill="white" transform="translate(0.625)">
                                    </rect>
                                </clippath>
                            </defs>
                        </svg>