<svg width="121" height="48" viewBox="0 0 121 48" fill="none" xmlns="http://www.w3.org/2000/svg">
                            <g clip-path="url(#clip0_2125_33575)">
                                <path fill-rule="evenodd" clip-rule="evenodd"
                                    d="M12.2015 12C14.0368 12 15.7309 12.3529 17.425 13.2C17.5773 13.2508 17.8026 13.3746 17.9697 13.4663C18.0349 13.5022 18.0912 13.5331 18.1309 13.5529L17.0721 14.5412L15.4485 12.9176L12.625 15.3882L10.9309 13.6235L5.98971 18.2118L9.16618 21.8824L7.89559 23.0118L11.0721 26.6824L9.80147 27.8824L14.3897 33.0353L17.0721 30.4235L19.4721 33.1765C18.9074 33.5294 18.4132 33.8824 17.9191 34.3059C16.225 35.2941 14.3191 35.8588 12.2721 35.8588C5.91912 35.9294 0.625 30.5647 0.625 23.9294C0.625 17.2941 5.84853 12 12.2015 12ZM10.1544 23.2941L12.9779 20.6824L15.4485 23.5765L12.625 26.1176L10.1544 23.2941ZM14.9544 25.5529L17.425 28.4471L14.6015 31.0588L12.1309 28.1647L14.9544 25.5529ZM8.24853 18.3529L11.0721 15.7412L13.5426 18.6353L10.7191 21.2471L8.24853 18.3529ZM13.2603 17.0118L15.3074 15.1765L17.1426 17.2941L15.0956 19.3412L13.2603 17.0118ZM16.9309 25.7647L18.9779 23.9294L20.8132 26.1176L18.7662 27.9529L16.9309 25.7647ZM18.6956 30.0706L20.7426 28.2353L22.5779 30.3529L20.5309 32.2588L18.6956 30.0706ZM19.6132 20.3294L21.025 19.0588L22.2956 20.4706L20.9544 21.7412L19.6132 20.3294ZM17.8485 15.9529L19.1897 14.6824L20.4603 16.0941L19.1191 17.3647L17.8485 15.9529ZM21.3074 24.4941L22.6485 23.2235L23.9191 24.6353L22.5074 25.9059L21.3074 24.4941ZM15.0956 21.2471L17.1426 19.4118L18.9779 21.5294L16.9309 23.3647L15.0956 21.2471ZM37.7045 17.5079H39.3986L42.0104 27.955H42.1515L44.0574 17.5079H46.2457L43.2104 31.4844H41.2339L38.6221 21.6726H38.4809L35.9398 31.4844H34.0339L30.8574 17.5079H33.0457L35.0927 27.955H35.2339L37.7045 17.5079ZM53.2837 25.5531H48.9778C49.119 23.506 50.0367 22.5884 51.2367 22.659C52.2249 22.659 53.2131 23.4354 53.2837 25.5531ZM54.8367 30.7766V29.2943C53.8484 29.9296 52.8602 30.3531 51.8014 30.2119C49.8955 30.2119 48.9072 29.2237 48.9072 26.8237H55.119V26.1884C55.119 22.9413 53.7072 21.3884 51.3072 21.3884C48.4837 21.3884 47.0719 23.5766 47.0719 26.5413C47.0719 29.5766 48.3425 31.6943 51.519 31.6943C52.8602 31.6943 54.0602 31.2707 54.8367 30.7766ZM59.4955 30.0707C60.1308 30.3531 60.7661 30.3531 61.2602 30.3531C62.6719 30.3531 63.7308 29.4354 63.7308 26.259C63.7308 23.7884 62.9543 22.9413 61.5425 22.9413C60.8367 22.9413 60.2014 23.1531 59.4955 23.506V30.0707ZM59.4955 22.1648C60.0602 21.8825 61.119 21.459 62.0367 21.459C64.4367 21.459 65.6367 23.1531 65.6367 26.3296C65.6367 30.0001 63.9425 31.7648 61.1896 31.7648C60.1308 31.7648 58.6484 31.4825 57.4484 30.7766V17.0825L59.4249 16.5884V22.1648H59.4955ZM73.4014 31.4825H74.5308L78.4837 21.3178H78.6249V31.4825H80.672V17.506H78.2719L74.319 28.5178H74.1778L69.9425 17.506H67.6837V31.4825H69.4484V21.6001H69.519L73.4014 31.4825ZM88.9308 26.6119C88.9308 23.9296 87.872 22.8001 86.5308 22.8001C85.2602 22.8001 84.1308 23.9296 84.1308 26.6119C84.1308 29.2943 85.1896 30.4237 86.5308 30.4237C88.0837 30.3531 88.9308 29.2943 88.9308 26.6119ZM82.3661 26.6119C82.3661 23.0825 84.2014 21.459 86.672 21.459C89.1425 21.459 91.119 23.1531 91.119 26.6119C91.119 30.0001 89.3543 31.7649 86.8131 31.7649C84.1308 31.7649 82.3661 29.7884 82.3661 26.6119ZM97.3308 21.2472C95.2131 21.2472 93.3072 22.2354 92.4602 22.8001V31.3413H94.4366V23.6472C95.0014 23.2943 96.0602 22.9413 96.7661 22.9413C97.7543 22.9413 98.4602 23.1531 98.4602 24.706V31.4119H100.437V24.2119C100.437 22.1648 99.6602 21.2472 97.3308 21.2472ZM104.601 25.5531H108.907C108.837 23.4354 107.848 22.659 106.86 22.659C105.731 22.5884 104.813 23.506 104.601 25.5531ZM110.46 29.2943V30.7766C109.684 31.2707 108.484 31.6943 107.072 31.6943C103.895 31.6943 102.625 29.5766 102.625 26.5413C102.625 23.5766 104.037 21.3884 106.931 21.3884C109.331 21.3178 110.813 22.9413 110.813 26.1178V26.9648H104.601C104.601 29.3648 105.59 30.3531 107.495 30.3531C108.484 30.3531 109.401 29.9296 110.46 29.2943ZM120.625 21.3178H118.578L116.39 28.659H116.319L113.848 21.3884H111.801L115.331 31.2707C114.907 32.6119 114.201 33.7413 112.86 33.7413V35.2943C114.978 35.2943 116.248 33.8825 117.166 31.2001L120.625 21.3178Z"
                                    fill="#8F9395">
                                </path>
                            </g>
                            <defs>
                                <clippath id="clip0_2125_33575">
                                    <rect width="120" height="48" fill="white" transform="translate(0.625)">
                                    </rect>
                                </clippath>
                            </defs>
                        </svg>