  <svg width="73" height="48" viewBox="0 0 73 48" fill="none" xmlns="http://www.w3.org/2000/svg">
                            <g clip-path="url(#clip0_2125_33604)">
                                <path fill-rule="evenodd" clip-rule="evenodd"
                                    d="M10.2833 17.4353L8.37741 24.4941L6.82447 25.0588L6.33035 27.0353L7.8833 26.5412L6.82447 30.7765H17.7656L18.4715 28.0941H11.7656L12.6127 24.9176L14.3774 24.1412L14.8715 22.1647L13.1774 22.7294L14.5186 17.5059L10.2833 17.4353ZM12.4009 12C19.1068 12 24.5421 17.4353 24.5421 24C24.5421 30.5647 19.1068 36 12.4009 36C5.69506 36 0.259766 30.6353 0.259766 24C0.259766 17.3647 5.69506 12 12.4009 12ZM33.3657 19.5529C33.3657 19.9765 33.0127 20.3294 32.5186 20.4C32.0951 20.4 31.7421 20.0471 31.6715 19.5529C31.6715 19.1294 32.0245 18.7765 32.5186 18.7059C33.0127 18.7765 33.3657 19.1294 33.3657 19.5529ZM64.2833 19.5529C64.2833 19.9765 63.9304 20.3294 63.4362 20.4C63.0127 20.4 62.6598 20.0471 62.5892 19.5529C62.5892 19.1294 62.9421 18.7765 63.4362 18.7059C63.9304 18.7765 64.2833 19.1294 64.2833 19.5529ZM28.9892 18.2824H30.048V29.5765H28.9892V18.2824ZM38.0245 22.3059V23.2235H36.4715V29.5765H35.3421V23.2235H34.1421V22.1647H35.4127V19.4118H36.4715V22.1647L38.0245 22.3059ZM41.3421 22.1647C42.4009 21.8824 43.6009 22.0941 44.448 22.6588C45.5774 23.5059 46.0715 24.9882 45.7892 26.2588H39.5068C39.5774 26.9647 39.9304 27.6 40.5656 27.9529C41.7656 28.8 43.6009 28.5882 44.448 27.4588L44.5892 27.3176C44.9421 27.3882 45.2951 27.4588 45.648 27.6C45.2951 28.3765 44.5892 28.9412 43.8833 29.2941C42.9656 29.7176 41.8362 29.7176 40.848 29.3647C39.8598 29.0118 39.2245 28.3059 38.8009 27.3882C38.3774 26.2588 38.3774 25.0588 38.8715 23.9294C39.3657 23.1529 40.2833 22.4471 41.3421 22.1647ZM40.2833 23.9294C39.8598 24.3529 39.5774 24.8471 39.5068 25.4824H44.6598C44.5892 24.5647 43.9539 23.7176 43.0362 23.3647C42.1186 22.9412 41.0598 23.2235 40.2833 23.9294ZM47.6951 23.2941C49.0362 21.7412 51.7186 21.6706 53.2715 23.0118L52.5656 23.8588C51.5068 22.9412 49.8127 22.9412 48.6833 23.8588C47.4127 24.9176 47.4833 27.1059 48.7539 28.0941C49.8127 28.9412 51.4362 28.8706 52.4245 28.0235L53.2009 28.8C51.7186 30.0706 49.3186 30.1412 47.9068 28.8706C46.4951 27.4588 46.2833 24.8471 47.6951 23.2941ZM66.9657 23.3647C67.3892 22.5176 68.448 22.0941 69.4362 22.0941C69.8598 22.0941 70.3539 22.1647 70.7068 22.3765C71.4833 22.7294 71.9068 23.2941 72.048 24.0706C72.1186 24.4941 72.1892 24.9176 72.1892 25.3412V29.5059H71.1304V25.3412C71.1304 24.7059 71.0598 24.0706 70.6362 23.6471C70.2127 23.2235 69.5068 23.1529 68.9421 23.2235C68.2362 23.2941 67.6009 23.7176 67.3186 24.3529C67.1774 24.7059 67.0362 25.2 67.0362 25.6235V29.6471H65.9774V22.3059H67.0362L66.9657 23.3647ZM56.8009 22.1647C57.8598 22.0235 59.0598 22.1647 59.9068 22.6588C60.7539 23.1529 61.248 24.1412 61.4598 25.0588C61.6009 26.1176 61.4598 27.1059 60.8951 27.9529C60.1892 29.0118 58.9892 29.5765 57.7186 29.5765C56.6598 29.6471 55.6009 29.2235 54.8951 28.4471C53.6951 27.3176 53.5539 25.3412 54.2598 23.9294C54.7539 23.0824 55.7421 22.3765 56.8009 22.1647ZM56.9421 23.2941C56.0951 23.4353 55.3186 24.1412 55.0362 24.9176C54.6127 26.0471 54.9656 27.4588 55.9539 28.1647C57.1539 29.0118 59.0598 28.8706 59.9068 27.6706C60.4715 26.8235 60.6127 25.6235 60.048 24.6353C59.5539 23.3647 58.1421 22.9412 56.9421 23.2941ZM31.9539 29.5765V22.3059H33.0127V29.6471H31.9539V29.5765ZM64.0009 29.5765H62.9421V22.1647H64.0009V29.5765Z"
                                    fill="#8F9395">
                                </path>
                            </g>
                            <defs>
                                <clippath id="clip0_2125_33604">
                                    <rect width="72" height="48" fill="white" transform="translate(0.259766)">
                                    </rect>
                                </clippath>
                            </defs>
                        </svg>