  <svg width="89" height="48" viewBox="0 0 89 48" fill="none" xmlns="http://www.w3.org/2000/svg">
                            <g clip-path="url(#clip0_2125_33591)">
                                <path
                                    d="M8.43566 24.1177L7.90625 26.5294C8.67096 26.7059 10.671 27.4118 11.0239 26.1177C11.2592 24.7059 9.0239 24.2941 8.43566 24.1177Z"
                                    fill="#5B6064">
                                </path>
                                <path
                                    d="M9.14246 20.8235L8.67188 23C9.20129 23.1765 10.966 23.8235 11.3189 22.4706C11.5542 21.2941 9.67188 21 9.14246 20.8235Z"
                                    fill="#5B6064">
                                </path>
                                <path
                                    d="M11.4364 14.2941C6.49519 13 1.49518 16.1765 0.318714 21.5882C-0.975404 26.8823 2.08342 32.4118 7.0246 33.7059C11.9658 35 16.9658 31.8235 18.2599 26.4118C19.3187 21.1176 16.3775 15.5882 11.4364 14.2941ZM13.2599 22.5882C13.0834 23.5882 12.6128 24 11.9658 24.1765C12.907 24.7059 13.3187 25.4706 12.907 26.8823C12.3775 28.5882 11.0834 28.7059 9.31872 28.3529L8.96577 30.1765L7.96577 29.8823L8.31872 28.0588C8.0246 27.9412 7.7893 27.8823 7.49519 27.8823L7.14224 29.7059L6.14224 29.4118L6.61283 27.5882C6.31872 27.4706 6.14224 27.4706 5.84813 27.4118L4.55401 27.1176L5.0246 25.8235L5.7893 26C6.08342 26.1176 6.14224 25.8823 6.25989 25.8235L6.90695 22.9412H7.0246H6.90695L7.37754 20.8235C7.37754 20.6471 7.25989 20.2941 6.90695 20.2353L6.14224 20.0588L6.43636 18.8824L7.7893 19.2941C7.96577 19.2941 8.20107 19.2941 8.43636 19.4118L8.7893 17.5882L9.7893 17.8824L9.43636 19.5882C9.73048 19.7059 9.96577 19.7059 10.2599 19.7647L10.6128 18L11.6128 18.2941L11.2599 20.1765C12.554 20.4706 13.4364 21.2941 13.2599 22.5882Z"
                                    fill="#5B6064">
                                </path>
                                <path fill-rule="evenodd" clip-rule="evenodd"
                                    d="M26.9658 20.1176C27.7305 20.1176 28.3187 20.2941 28.9069 20.5294C29.4364 20.8235 29.9069 21.2353 30.2599 21.7059C30.6128 22.2353 30.9069 22.8235 31.0834 23.4118C31.2599 24.1176 31.3775 24.8235 31.3775 25.5294C31.3775 26.7059 31.2011 27.8235 30.7305 28.8235C30.2599 29.8235 29.7893 30.7059 29.0834 31.5294C28.3187 32.3529 27.6128 32.9412 26.6716 33.3529C25.7305 33.7647 24.7305 34.0588 23.6128 34.0588H22.8481H22.8481C22.4952 34.0588 22.0834 34.0588 21.6716 33.9412C21.4129 33.8765 21.1542 33.8296 20.8856 33.7809C20.6658 33.7411 20.4394 33.7 20.2011 33.6471C19.6716 33.5294 19.2011 33.3529 18.7305 33.0588L22.8481 14.5882L26.4952 14L25.0246 20.4706C25.3187 20.2941 25.6716 20.1765 25.9658 20.1765C26.3187 20.1176 26.6128 20.1176 26.9658 20.1176ZM23.9658 30.8824C24.4952 30.8824 25.0834 30.7059 25.554 30.4706C26.0246 30.1765 26.4952 29.7647 26.7305 29.2941C27.0834 28.8235 27.3775 28.2941 27.554 27.7059C27.7305 27.1176 27.8481 26.4118 27.8481 25.8235C27.8481 25 27.7305 24.4118 27.4952 23.9412C27.2599 23.4706 26.7305 23.2353 26.1422 23.2353C25.8481 23.2353 25.6716 23.2353 25.3187 23.3529C24.9658 23.4706 24.6716 23.6471 24.3775 23.8824L22.7893 30.7647C22.9069 30.7647 22.9658 30.7647 23.0834 30.8824H23.3775H23.6716H23.9658ZM35.0829 33.7057H31.6123L34.5535 20.4116H38.0241L35.0829 33.7057ZM36.7888 18.7057C36.3182 18.7057 35.8476 18.5292 35.4947 18.2351C35.1417 17.941 34.9652 17.4116 34.9652 16.8234C34.9652 16.6058 35.0296 16.324 35.0869 16.073L35.0869 16.0729L35.0869 16.0729C35.1071 15.9845 35.1264 15.8999 35.1417 15.8234C35.1915 15.7404 35.2366 15.6574 35.281 15.5757C35.394 15.3679 35.5022 15.1687 35.6711 14.9998C35.9064 14.7645 36.1417 14.5881 36.4358 14.4704C36.73 14.3528 37.0829 14.2939 37.377 14.2939C37.8476 14.2939 38.3182 14.4704 38.6711 14.7645C39.0241 15.0587 39.2005 15.5881 39.2005 16.1763C39.2005 16.3938 39.1362 16.6757 39.0789 16.9268C39.0587 17.0152 39.0394 17.0997 39.0241 17.1763C38.9192 17.4385 38.7208 17.7007 38.5539 17.9212L38.4947 17.9998C38.3888 18.0633 38.2982 18.1345 38.2118 18.2023C38.0583 18.3228 37.9182 18.4328 37.7299 18.4704C37.377 18.7057 37.0829 18.7057 36.7888 18.7057ZM44.6125 16.4116L41.0242 16.9999L38.6125 27.3528C38.5752 27.6509 38.5321 27.9312 38.4905 28.2014C38.4007 28.7842 38.3183 29.3195 38.3183 29.8822C38.2595 30.7057 38.3183 31.4116 38.6125 31.9999C38.9066 32.5881 39.2595 33.1175 39.9066 33.4116C40.436 33.7057 41.2595 33.8822 42.3772 33.8822C43.1419 33.8822 43.7889 33.8234 44.3183 33.7057C44.5317 33.6417 44.7373 33.5855 44.9352 33.5313L44.9359 33.5311L44.936 33.5311C45.2834 33.4361 45.6069 33.3475 45.9066 33.2352L45.6125 30.3528C45.436 30.4116 45.2448 30.4557 45.0536 30.4999C44.8625 30.544 44.6713 30.5881 44.4948 30.6469C44.1419 30.7646 43.7301 30.7646 43.3772 30.7646C42.9066 30.7646 42.6713 30.7057 42.3772 30.5881C42.3414 30.5523 42.3057 30.519 42.2704 30.4861L42.2703 30.4861C42.1316 30.3567 42.0004 30.2343 41.9066 29.9999C41.7889 29.7057 41.7889 29.4116 41.7889 29.1175V29.1175C41.7889 28.8234 41.8478 28.4116 41.9654 27.9999L42.9654 23.4116H46.8478L47.5536 20.294H43.6713L44.6125 16.4116ZM47.4951 28.2941C47.4951 27.1176 47.6716 26.1176 48.0245 24.9999C48.3775 23.9999 48.8481 23.1176 49.4951 22.2941C50.1422 21.4705 50.8481 20.9999 51.7892 20.4705C52.7304 20.0588 53.7304 19.7646 54.8481 19.7646C55.3985 19.7646 55.827 19.8256 56.2214 19.8817C56.3749 19.9035 56.5233 19.9246 56.6716 19.9411C56.7967 19.9828 56.9252 20.0213 57.053 20.0595C57.466 20.1831 57.8727 20.3048 58.1422 20.5294L56.9657 23.4117C56.8601 23.3695 56.747 23.3197 56.629 23.2677C56.4183 23.175 56.192 23.0754 55.9657 22.9999C55.6128 22.8823 55.201 22.8235 54.7892 22.8235C53.6128 22.8235 52.6716 23.2352 52.0245 24.1176C51.3775 24.9999 51.0245 26.1176 51.0245 27.5882C51.0245 28.4705 51.201 29.1764 51.5539 29.7058C51.9069 30.2352 52.5539 30.5294 53.4951 30.5294C53.8546 30.5294 54.2141 30.4607 54.5212 30.4021L54.5213 30.402L54.5218 30.4019C54.6164 30.3839 54.7061 30.3667 54.7892 30.3529C54.8541 30.3367 54.9167 30.3216 54.9772 30.307C55.356 30.2157 55.6533 30.144 55.9069 29.9411L56.201 32.9411C55.924 33.045 55.6469 33.1285 55.3578 33.2156L55.3578 33.2157L55.3577 33.2157L55.3577 33.2157C55.1558 33.2765 54.9481 33.3391 54.7304 33.4117C54.201 33.5294 53.5539 33.5882 52.7892 33.5882C51.8481 33.5882 51.0245 33.4117 50.3186 33.1176C49.5539 32.8235 49.1422 32.4117 48.6716 31.9411C48.201 31.4117 47.9069 30.8235 47.7304 30.1176C47.5539 29.8235 47.4951 29.1176 47.4951 28.2941ZM60.7303 33.588C61.2597 33.8821 62.0244 33.9998 62.8479 33.9998C63.9068 33.9998 64.9068 33.8233 65.9656 33.1762C66.7891 32.7057 67.5538 31.9998 68.0832 31.1762C68.6127 30.3527 69.0832 29.4704 69.3774 28.4704C69.6715 27.4704 69.848 26.4704 69.848 25.4704C69.848 24.7057 69.7303 23.9998 69.5538 23.2939C69.3774 22.7057 68.9656 22.0586 68.6127 21.588C68.1421 21.1762 67.6715 20.7645 67.0244 20.4704C66.495 20.1762 65.7303 20.0586 64.9068 20.0586C63.7891 20.0586 62.7891 20.3527 61.9656 20.8821C61.1421 21.3527 60.3774 22.0586 59.8479 22.8821C59.2597 23.7057 58.7891 24.588 58.495 25.588C58.2009 26.588 58.0244 27.588 58.0244 28.588C58.0244 29.3527 58.1421 30.0586 58.3185 30.7645C58.4815 31.3078 58.8453 31.8511 59.178 32.3481L59.2597 32.4704C59.6127 32.8821 60.0832 33.2939 60.7303 33.588ZM63.2009 23.6468C63.6127 23.3527 64.0244 23.1762 64.5538 23.1762C65.2009 23.1762 65.6715 23.4115 65.9068 23.8233C66.1421 24.3527 66.2597 24.9998 66.2597 25.8233V25.8233C66.2597 26.4116 66.2597 26.941 66.0832 27.5292C65.9068 28.1174 65.7303 28.588 65.4362 29.1174C65.2009 29.588 64.7891 29.9998 64.4362 30.2939C64.0244 30.6468 63.6127 30.8233 63.0832 30.8233C62.495 30.8233 61.9656 30.588 61.7303 30.1174C61.495 29.6468 61.3774 28.9409 61.3774 28.1174V28.1174C61.3774 27.5292 61.3774 26.9998 61.5538 26.4115C61.7303 25.8233 61.9068 25.2939 62.2009 24.8233C62.4362 24.3527 62.8479 23.9409 63.2009 23.6468ZM73.495 33.706H70.0244L72.9656 20.4119H76.4362L73.495 33.706ZM75.1421 18.706C74.6715 18.706 74.2009 18.5295 73.8479 18.2354C73.495 17.9413 73.3185 17.4119 73.3185 16.8236C73.3185 16.6061 73.3829 16.3242 73.4402 16.0732L73.4402 16.0732C73.4604 15.9848 73.4797 15.9002 73.495 15.8236C73.5538 15.5295 73.7891 15.2354 74.0244 15.0001C74.2597 14.7648 74.495 14.5883 74.7891 14.5295C74.8776 14.5118 74.9713 14.4888 75.0672 14.4653C75.2902 14.4106 75.5246 14.353 75.7303 14.353C76.2009 14.353 76.6715 14.5295 77.0244 14.8824C77.3774 15.1766 77.5538 15.706 77.5538 16.2942C77.5538 16.5117 77.4895 16.7936 77.4322 17.0446L77.4322 17.0446C77.412 17.133 77.3927 17.2176 77.3774 17.2942C77.323 17.5661 77.1178 17.838 76.9477 18.0634L76.9068 18.1177C76.8009 18.1813 76.7103 18.2524 76.6239 18.3202C76.4704 18.4407 76.3303 18.5507 76.1421 18.5883C75.7891 18.706 75.495 18.706 75.1421 18.706ZM79.3186 20.7353C79.1862 20.7794 79.0539 20.8235 78.9068 20.8824L76.2598 33.5294H79.7304L82.0245 23.2353C82.1445 23.2181 82.2695 23.196 82.3981 23.1732C82.7106 23.1179 83.044 23.0588 83.3774 23.0588C83.848 23.0588 84.0833 23.1765 84.3774 23.3529C84.6167 23.5444 84.7002 23.7747 84.7864 24.0123C84.8062 24.0668 84.8261 24.1216 84.848 24.1765C84.9657 24.4706 84.9657 24.8824 84.848 25.2941C84.7892 25.5 84.7451 25.7206 84.7009 25.9412C84.6568 26.1618 84.6127 26.3824 84.5539 26.5882L82.9657 33.5882H86.4362L88.0245 26.4118C88.4951 24.4118 88.3186 22.8235 87.6715 21.7059C87.0245 20.5882 85.7304 20 83.9068 20C83.5671 20 83.2436 20.0324 82.9362 20.0632C82.6583 20.0911 82.3936 20.1176 82.1421 20.1176C81.6715 20.1176 81.2009 20.1765 80.848 20.2941C80.7041 20.3301 80.5712 20.3606 80.4477 20.3889C80.1671 20.4532 79.9345 20.5066 79.7304 20.5882C79.5833 20.6471 79.4509 20.6912 79.3186 20.7353Z"
                                    fill="#8F9395">
                                </path>
                            </g>
                            <defs>
                                <clippath id="clip0_2125_33591">
                                    <rect width="88.2353" height="48" fill="white" transform="translate(0.0253906)">
                                    </rect>
                                </clippath>
                            </defs>
                        </svg>