<svg width="123" height="48" viewBox="0 0 123 48" fill="none" xmlns="http://www.w3.org/2000/svg">
                            <g clip-path="url(#clip0_2125_33556)">
                                <path fill-rule="evenodd" clip-rule="evenodd"
                                    d="M28.0735 6.10667C27.0957 4.54222 25.7268 3.17333 23.9668 2C22.109 3.17333 20.8379 4.64 19.8601 6.10667C18.8823 7.67111 18.4912 9.23556 18.3935 11.0933C18.3935 11.2889 18.3935 11.68 18.4912 12.0711V12.1689C18.6868 14.5156 19.469 16.7644 20.9357 19.0133C21.9135 18.5244 22.8912 18.4267 23.869 18.4267C24.8468 18.5244 25.8246 18.8178 26.7046 19.3067C28.269 16.96 29.149 14.7111 29.3446 12.2667V12.1689C29.4423 11.9733 29.4423 11.5822 29.4423 11.1911C29.4423 9.43111 28.9535 7.57333 28.0735 6.10667ZM6.95345 15.4933C7.44234 16.6667 8.12679 17.6444 9.00679 18.6222V18.72C9.00679 18.72 9.00679 18.8178 9.10457 18.8178L10.0823 19.7956C12.2335 21.36 14.8735 22.4356 17.8068 22.7289C18.0023 21.6533 18.7846 20.6756 19.6646 19.8933C18.1001 17.5467 17.2201 15.0044 17.0246 12.56C14.6779 10.8978 11.1579 9.92 6.17123 9.92C5.97568 11.8756 6.26901 13.7333 6.95345 15.4933ZM19.5668 28.1067C16.5357 29.9644 13.309 30.9422 10.1801 30.9422H10.0823C8.61568 32.9956 7.73568 35.9289 7.44234 39.7422C9.59346 39.9378 11.549 39.9378 13.4068 39.5467C14.9712 39.0578 16.4379 38.3733 17.709 37.2V37.1022L18.1001 36.9067H18.1979C20.1535 34.9511 21.5223 32.4089 22.109 29.4756C21.0335 29.0844 20.1535 28.6933 19.5668 28.1067ZM18.4912 26.9333C15.8512 28.4978 13.0157 29.28 10.0823 29.3778L9.59345 29.5733C7.83345 29.3778 6.26901 29.0844 4.80234 28.1067C3.04234 27.1289 1.4779 25.76 0.402344 24.1956C3.2379 22.0444 5.78012 20.6756 8.12679 20.0889C8.23153 20.1936 8.32225 20.2914 8.40646 20.3821L8.40655 20.3822L8.40658 20.3822C8.63674 20.6302 8.81825 20.8257 9.10456 20.9689C11.3535 22.7289 14.2868 23.8044 17.6112 24.2933C17.8068 25.2711 18.0023 26.0533 18.4912 26.9333ZM26.4112 29.0844C27.8779 31.3333 28.5623 33.5822 28.9535 35.9289C29.0064 36.1936 29.0307 36.4869 29.0573 36.8089C29.0799 37.0817 29.1042 37.375 29.149 37.6889C29.149 37.6889 29.149 37.7867 29.2468 37.8844C28.9535 39.2533 28.5623 40.6222 27.8779 41.7956C26.9001 43.5556 25.4335 45.0222 23.869 46.0978C21.3268 42.9689 19.8601 40.3289 19.3712 37.8844C21.5223 35.6356 22.989 32.9956 23.6735 29.6711H23.7712C24.5535 29.6711 25.5312 29.5733 26.4112 29.0844Z"
                                    fill="#5B6064">
                                </path>
                                <path fill-rule="evenodd" clip-rule="evenodd"
                                    d="M40.5879 31.6269C40.5879 31.8224 40.4901 32.1157 40.3923 32.2135C40.2945 32.3113 40.0012 32.4091 39.8057 32.4091C39.6101 32.4091 39.3168 32.3113 39.219 32.2135C39.1212 32.1157 39.0234 31.8224 39.0234 31.6269V16.3735C39.0234 16.178 39.1212 15.8846 39.219 15.7869C39.3168 15.6891 39.6101 15.5913 39.8057 15.5913H44.3034C45.379 15.5913 46.3568 15.7869 47.2368 16.2758C48.2145 16.7646 48.8012 17.3513 49.2901 18.2313C49.779 19.1113 49.9745 19.8935 49.9745 21.0669C49.9745 22.1424 49.779 23.0224 49.2901 23.9024C48.8012 24.7824 48.2145 25.3691 47.2368 25.858C46.3568 26.3469 45.379 26.5424 44.3034 26.5424H40.6857C40.5879 26.5424 40.5879 31.6269 40.5879 31.6269ZM44.2057 24.8802C44.8901 24.8802 45.6723 24.7824 46.259 24.3913C46.8457 24.0002 47.3345 23.5113 47.7257 23.0224C48.1168 22.4358 48.2145 21.8491 48.2145 21.0669C48.2145 20.2846 48.1168 19.6002 47.7257 19.1113L47.6607 19.0135C47.3001 18.4701 46.9973 18.0138 46.259 17.6446C45.6723 17.2535 45.0857 17.1558 44.2057 17.1558H40.5879V24.8802H44.2057ZM52.8102 21.3598C52.8102 21.1643 52.908 20.8709 53.0057 20.7732C53.1035 20.6754 53.3968 20.5776 53.5924 20.5776C53.788 20.5776 54.0813 20.6754 54.1791 20.7732C54.2768 20.8709 54.3746 21.1643 54.3746 21.3598V31.6265C54.3746 31.8221 54.2768 32.1154 54.1791 32.2132C54.0813 32.3109 53.788 32.4087 53.5924 32.4087C53.3968 32.4087 53.1035 32.3109 53.0057 32.2132C52.908 32.1154 52.8102 31.8221 52.8102 31.6265V21.3598ZM53.788 15.8843C54.112 15.8843 54.3018 15.9514 54.5241 16.03L54.5242 16.03C54.5702 16.0463 54.6176 16.0631 54.668 16.0798C54.8635 16.2754 55.0591 16.5687 55.0591 16.9598C55.0591 17.3509 54.9613 17.5465 54.668 17.8398C54.4724 18.0354 54.1791 18.2309 53.6902 18.2309C53.2991 18.2309 53.1035 18.1332 52.7124 17.8398C52.5168 17.6443 52.3213 17.3509 52.3213 16.9598C52.3213 16.5687 52.4191 16.3732 52.7124 16.0798C52.9477 16.1387 53.183 16.0559 53.397 15.9807C53.5387 15.9308 53.6711 15.8843 53.788 15.8843ZM68.1614 21.2623C67.1837 20.5779 65.9126 20.3823 64.837 20.3823C63.6637 20.3823 62.5881 20.6757 62.2948 21.2623C61.317 21.6534 60.5348 22.3379 59.9481 23.3157C59.4592 24.2934 59.2637 25.2712 59.2637 26.3468C59.2637 27.4223 59.4592 28.4001 59.9481 29.3779C60.5348 30.2579 61.1214 30.8445 62.0992 31.4312C63.077 32.1157 64.1526 32.3112 65.2281 32.3112C66.2059 32.3112 67.1837 32.2134 67.8681 31.7245C68.6503 31.2357 69.3348 30.7468 69.8237 30.0623V31.4312C69.8237 31.6268 69.9214 31.9201 70.0192 32.0179C70.117 32.1157 70.4103 32.2134 70.6059 32.2134C70.8014 32.2134 71.0948 32.1157 71.1926 32.0179C71.2903 31.9201 71.3881 31.6268 71.3881 31.4312V26.3468C71.3881 25.2712 71.0948 24.2934 70.5081 23.3157C70.0192 22.4357 69.1392 21.7512 68.1614 21.2623ZM67.1837 30.4534C66.4015 30.8445 65.717 31.0401 64.837 31.0401C64.0548 31.0401 63.1748 30.7468 62.3926 30.4534C61.8059 30.0623 61.2192 29.5734 60.8281 28.889C60.437 28.1068 60.2415 27.4223 60.2415 26.5423C60.2415 25.6623 60.437 24.7823 60.8281 24.1957C61.2192 23.609 61.7081 23.1201 62.3926 22.6312C63.2726 22.2401 63.957 22.0445 64.837 22.0445C65.717 22.0445 66.4992 22.1423 67.1837 22.6312C67.7703 23.0223 68.357 23.5112 68.7481 24.1957C69.1392 24.9779 69.3348 25.6623 69.3348 26.5423C69.3348 27.4223 69.1392 28.2045 68.7481 28.889C68.357 29.4757 67.9659 30.0623 67.1837 30.4534ZM78.9171 20.3823C79.8949 20.3823 80.7749 20.4801 81.5571 20.8712C82.2415 21.0668 82.926 21.5557 83.4149 22.2401C83.5126 22.4357 83.5126 22.6312 83.5126 22.729C83.5126 22.9245 83.4149 23.2179 83.1215 23.3157C83.0237 23.4134 82.926 23.4134 82.7304 23.4134C82.3393 23.4134 82.1437 23.3157 82.046 23.2179C81.3615 22.3379 80.1882 22.0445 79.0149 22.0445C78.1349 22.0445 77.5482 22.1423 77.0593 22.5334C76.5704 22.729 76.3749 23.2179 76.3749 23.7068C76.3749 24.1957 76.5704 24.6845 77.0593 24.8801C77.1029 24.8975 77.1496 24.9165 77.1993 24.9367C77.7067 25.1431 78.5241 25.4755 79.5037 25.5645C81.0682 25.7601 82.3393 26.249 82.926 26.7379C83.6104 27.3245 84.0015 28.1068 84.0015 28.7912C84.0015 29.3779 83.806 29.9645 83.4149 30.4534C83.0238 30.9423 82.4371 31.4312 81.5571 31.6268C81.4804 31.6487 81.4013 31.6718 81.3199 31.6956L81.3198 31.6956C80.6743 31.8844 79.8831 32.1157 79.0149 32.1157C78.0371 32.1157 77.1571 32.0179 76.3749 31.6268C75.4949 31.4312 74.8104 30.9423 74.3215 30.4534C74.2238 30.3557 74.126 30.0623 74.126 29.9645C74.126 29.769 74.2238 29.4757 74.5171 29.3779C74.6149 29.2801 74.9082 29.1823 75.1038 29.1823C75.2993 29.1823 75.5926 29.2801 75.6904 29.3779C76.0316 29.8043 76.4471 30.0076 76.9371 30.2472C77.0088 30.2823 77.0822 30.3182 77.1571 30.3557C77.7438 30.5512 78.3304 30.5512 79.1126 30.5512C80.1882 30.5512 80.9704 30.4534 81.5571 30.0623C82.046 29.6712 82.2415 29.1823 82.2415 28.6934C82.2415 28.2045 82.046 27.7157 81.5571 27.3245C81.1066 26.9641 80.324 26.7698 79.2857 26.512L79.0149 26.4445C77.5482 26.249 76.3749 25.8579 75.6904 25.2712C75.006 24.6845 74.6149 24.0979 74.6149 23.2179C74.6149 22.1423 75.006 21.3601 75.7882 20.7734C76.1249 20.7734 76.4979 20.701 76.9228 20.6184C77.4848 20.5092 78.1375 20.3823 78.9171 20.3823ZM92.8989 30.9423C92.7033 30.8445 92.5078 30.7467 92.3122 30.7467L92.41 30.5512H91.9211C91.1389 30.5512 90.5522 30.3556 90.0633 29.8667C89.5744 29.5734 89.3789 28.889 89.3789 28.2045V22.4356H91.9211C92.1167 22.4356 92.41 22.3379 92.5078 22.2401C92.6056 22.1423 92.7033 22.0445 92.7033 21.7512C92.7033 21.4579 92.6056 21.3601 92.5078 21.2623C92.3122 21.1645 92.1167 21.0667 91.9211 21.0667H89.2811V17.6445C89.2811 17.449 89.1833 17.1556 89.0855 17.0579C88.9878 16.9601 88.6944 16.8623 88.4989 16.8623C88.3033 16.8623 88.01 16.9601 87.9122 17.0579C87.8144 17.1556 87.7167 17.449 87.7167 17.6445V20.969H86.25C86.0544 20.969 85.7611 21.0668 85.6633 21.1645C85.5656 21.1645 85.4678 21.3601 85.4678 21.6534C85.4678 21.9468 85.5656 22.0445 85.6633 22.1423C85.8589 22.2401 86.0544 22.3379 86.25 22.3379H87.7167V28.1068C87.7167 28.7912 87.8144 29.5734 88.2056 30.1601C88.5967 30.8445 89.0856 31.3334 89.6722 31.7245C90.2589 32.1156 91.1389 32.3112 91.8233 32.3112H92.2144C92.5078 32.3112 92.8011 32.2134 92.8989 32.1156C92.9967 32.0179 93.0944 31.7245 93.0944 31.529C93.0944 31.3334 92.9967 31.0401 92.8989 30.9423ZM101.699 20.3823C102.286 20.3823 102.775 20.4801 103.166 20.5779C103.557 20.6757 103.753 21.0668 103.753 21.1645V21.3601C103.73 21.4047 103.713 21.4493 103.696 21.4927C103.639 21.6398 103.588 21.7735 103.361 21.849C103.264 21.9468 102.97 21.9468 102.873 21.9468C102.775 21.9468 102.481 21.9468 102.188 21.849H101.699C100.624 21.849 99.6459 22.0445 98.8636 22.729C98.1792 23.3157 97.7881 24.0979 97.7881 25.0757V31.529C97.7881 31.7245 97.6903 32.0179 97.5925 32.1157C97.4947 32.2134 97.2014 32.3112 97.0059 32.3112C96.8103 32.3112 96.517 32.2134 96.4192 32.1157C96.3214 32.0179 96.2236 31.7245 96.2236 31.529V21.3601C96.2236 21.1645 96.3214 20.8712 96.4192 20.7734C96.517 20.6757 96.8103 20.5779 97.0059 20.5779C97.2014 20.5779 97.4947 20.6757 97.5925 20.7734C97.6903 20.8712 97.7881 21.1645 97.7881 21.3601V22.3379C98.1792 21.7512 98.7659 21.2623 99.4503 20.8712C99.5791 20.8344 99.7114 20.7941 99.8465 20.753C100.429 20.5756 101.064 20.3823 101.699 20.3823ZM107.175 20.7732C107.077 20.8709 106.979 21.1643 106.979 21.3598V31.6265C106.979 31.8221 107.077 32.1154 107.175 32.2132C107.273 32.3109 107.566 32.4087 107.762 32.4087C107.957 32.4087 108.25 32.3109 108.348 32.2132C108.446 32.1154 108.544 31.8221 108.544 31.6265V21.3598C108.544 21.1643 108.446 20.8709 108.348 20.7732C108.25 20.6754 107.957 20.5776 107.762 20.5776C107.566 20.5776 107.273 20.6754 107.175 20.7732ZM108.498 16.03C108.275 15.9514 108.086 15.8843 107.762 15.8843C107.645 15.8843 107.512 15.9308 107.371 15.9807C107.157 16.0559 106.921 16.1387 106.686 16.0798C106.393 16.3732 106.295 16.5687 106.295 16.9598C106.295 17.3509 106.49 17.6443 106.686 17.8398C107.077 18.1332 107.273 18.2309 107.664 18.2309C108.153 18.2309 108.446 18.0354 108.642 17.8398C108.935 17.5465 109.033 17.3509 109.033 16.9598C109.033 16.5687 108.837 16.2754 108.642 16.0798C108.591 16.0631 108.544 16.0463 108.498 16.03ZM122.428 31.1378C122.526 31.3333 122.623 31.6266 122.623 31.7244C122.623 31.8222 122.526 32.1155 122.428 32.2133C122.33 32.3111 122.037 32.4089 121.939 32.4089C121.89 32.4089 121.792 32.3844 121.694 32.36C121.597 32.3355 121.499 32.3111 121.45 32.3111C121.39 32.2507 121.329 32.2276 121.246 32.1957C121.194 32.176 121.134 32.1529 121.059 32.1155L117.441 27.6178L113.53 32.2133C113.432 32.3111 113.139 32.4089 112.943 32.4089C112.748 32.4089 112.552 32.3111 112.357 32.2133C112.259 32.1155 112.161 32.0178 112.161 31.7244C112.161 31.4311 112.259 31.2355 112.357 31.1378L116.268 26.5422L112.65 22.0444C112.552 21.9466 112.454 21.6533 112.454 21.4578C112.454 21.2622 112.552 20.9689 112.65 20.8711C112.748 20.7733 113.041 20.6755 113.237 20.6755C113.628 20.6755 113.726 20.7733 113.823 20.8711L117.441 25.3689L121.059 20.9689C121.254 20.7733 121.548 20.48 121.743 20.48C121.939 20.48 122.134 20.5778 122.33 20.6755C122.428 20.7733 122.526 20.8711 122.526 21.1644C122.526 21.4578 122.428 21.6533 122.33 21.7511L118.517 26.2489L122.428 31.1378ZM22.0101 19.9422C22.0346 19.9177 22.059 19.8933 22.1079 19.8933C22.3035 19.8933 22.499 19.7955 22.499 19.7955L22.499 19.7955C22.5968 19.6977 22.5968 19.6977 22.6946 19.6977C23.7701 19.4044 24.7479 19.7955 25.7257 20.2844C26.7035 20.7733 27.2901 21.6533 27.6812 22.6311C27.9746 23.7066 27.8768 24.6844 27.4857 25.6622C27.1924 26.5422 26.3124 27.2266 25.3346 27.7155C24.8841 27.9407 24.4913 27.993 24.0676 28.0494C23.9395 28.0665 23.8086 28.0839 23.6724 28.1066H23.5746C23.0857 28.1066 22.499 28.1066 22.0101 27.9111C21.9175 27.9111 21.8688 27.9111 21.8223 27.9007C21.7707 27.8891 21.722 27.8648 21.619 27.8133C21.5443 27.7759 21.4839 27.7528 21.4323 27.7331C21.3488 27.7012 21.2883 27.6782 21.2279 27.6177C21.1864 27.6177 21.1625 27.6177 21.1412 27.6102C21.1125 27.6001 21.0886 27.5762 21.0324 27.5199C20.4457 27.0311 19.859 26.3466 19.4679 25.4666C19.4679 25.2711 19.4679 25.1733 19.3701 25.0755C19.3701 24.9609 19.3366 24.8799 19.3088 24.8128C19.2891 24.7654 19.2724 24.7249 19.2724 24.6844C19.1746 23.5111 19.2724 22.7288 19.7612 21.8488C20.2501 20.9688 20.9346 20.3822 21.9124 19.9911C21.9612 19.9911 21.9857 19.9666 22.0101 19.9422Z"
                                    fill="#8F9395">
                                </path>
                            </g>
                            <defs>
                                <clippath id="clip0_2125_33556">
                                    <rect width="122.222" height="48" fill="white" transform="translate(0.402344)">
                                    </rect>
                                </clippath>
                            </defs>
                        </svg>