 <svg width="154" height="48" viewBox="0 0 154 48" fill="none" xmlns="http://www.w3.org/2000/svg">
                            <g clip-path="url(#clip0_2125_33531)">
                                <path fill-rule="evenodd" clip-rule="evenodd"
                                    d="M23.3725 12.1411C29.1372 8.35284 36.9607 9.67049 41.1607 15.3528C43.1372 17.7411 44.0431 20.8705 44.0431 23.9175C44.0431 31.5764 38.0313 37.9175 30.6195 37.9175C28.0666 37.9175 25.5137 37.094 23.3725 35.694C29.8784 30.0117 30.6196 20.5411 25.1019 13.8705C24.6078 13.294 24.1137 12.7175 23.3725 12.1411ZM15.796 23.9999C15.796 19.4705 17.8548 15.2705 21.149 12.2234C15.3843 8.43519 7.56073 9.75284 3.36073 15.3528C-1.33339 21.3646 -0.262802 30.1764 5.66661 34.9528C10.1137 38.7411 16.2901 38.9058 21.0666 35.7764C17.7725 32.7293 15.796 28.3646 15.796 23.9999ZM22.3843 34.9528C19.1725 32.3999 17.2784 28.2823 17.2784 23.9999C17.2784 19.7175 19.0901 15.5999 22.3843 12.9646C23.2078 13.7058 23.9489 14.5293 24.6901 15.3528L24.6901 15.3528L24.6901 15.3528L24.6901 15.3528C29.2195 21.3646 28.3137 30.1764 22.3843 34.9528ZM66.855 30.0943V24.2472C66.855 22.0237 65.5373 20.459 63.3138 20.459C62.0785 20.3766 60.8432 21.0355 60.1844 22.106C59.4432 21.0355 58.455 20.3766 57.302 20.459C56.2315 20.459 55.2432 20.8708 54.7491 21.859V20.706H52.855V30.0943H54.9138V25.0708C54.9138 23.4237 55.8197 22.6002 57.2197 22.6002C58.5373 22.6002 59.1138 23.5884 59.1138 25.0708V30.259H61.1726V25.0708C61.1726 23.4237 62.0785 22.6002 63.4785 22.6002C64.8785 22.6002 65.5373 23.5884 65.5373 25.0708V30.259H66.855V30.0943ZM95.8432 20.8708H92.7962V18.0708H90.7373V20.8708H89.0079V22.6825H90.7373V26.8825C90.7373 29.106 91.5609 30.4237 93.8667 30.4237C94.7726 30.4237 95.5138 30.1766 96.3373 29.6825L95.6785 27.9531C95.3332 28.1833 94.9074 28.2929 94.5137 28.3942C94.344 28.4378 94.1803 28.48 94.0314 28.5296C92.9609 28.5296 92.7138 27.9531 92.7138 27.0472V22.8472H95.8432V20.8708ZM112.479 20.6237C111.408 20.6237 110.584 21.0355 110.09 22.0237V20.8708H108.196V30.259H110.09V24.9884C110.09 23.506 110.831 22.5178 111.984 22.5178C112.396 22.5178 112.808 22.6002 113.22 22.7649L113.714 20.9531C113.384 20.7884 112.973 20.6237 112.479 20.6237ZM87.4432 21.6119C86.2903 20.8708 85.055 20.5413 83.7373 20.6237C81.4314 20.6237 80.0314 21.7766 80.0314 23.6708C80.0314 25.1531 81.1844 26.1413 83.1609 26.4708L84.0667 26.5531C85.2197 26.6355 85.6315 26.9649 85.6315 27.5413C85.6315 28.2825 84.8903 28.6943 83.5726 28.6943C82.4197 28.6943 81.4314 28.3649 80.6079 27.706L79.702 29.3531C80.855 30.1766 82.1726 30.6708 83.655 30.506C86.2079 30.506 87.6903 29.1884 87.6903 27.459C87.6903 25.8119 86.455 24.9884 84.5609 24.659L83.655 24.5766C82.7491 24.4943 82.0903 24.2472 82.0903 23.5884C82.0903 22.8472 82.8315 22.5178 83.7373 22.5178C84.8079 22.5178 85.6314 22.7649 86.5373 23.3413L87.4432 21.6119ZM139.49 20.6237C138.42 20.6237 137.596 21.0355 137.102 22.0237V20.8708H135.208V30.259H137.102V24.9884C137.102 23.506 137.843 22.5178 138.996 22.5178C139.408 22.5178 139.82 22.6002 140.231 22.7649L140.726 20.9531C140.396 20.7884 139.984 20.6237 139.49 20.6237ZM114.455 25.4825C114.455 28.2825 116.349 30.4237 119.314 30.4237C120.467 30.506 121.702 30.0943 122.608 29.2708L121.702 27.6237C120.961 28.2002 120.22 28.4472 119.314 28.4472C117.749 28.4472 116.596 27.2943 116.596 25.4002C116.596 23.6708 117.749 22.5178 119.314 22.3531C120.22 22.3531 120.961 22.6825 121.702 23.1766L122.608 21.5296C121.702 20.706 120.549 20.3766 119.314 20.3766C116.349 20.6237 114.455 22.6825 114.455 25.4825ZM132.655 20.8708H130.761V22.0237C130.02 21.0355 129.114 20.6237 127.961 20.6237C125.49 20.6237 123.514 22.7649 123.514 25.5649C123.514 28.3649 125.573 30.506 127.961 30.506C129.114 30.506 130.102 30.0943 130.761 29.106V30.259H132.655V25.4825V20.8708ZM128.126 22.4355C129.69 22.4355 130.843 23.7531 130.843 25.4825C130.843 27.2119 129.69 28.5296 128.126 28.5296C126.479 28.3649 125.408 27.1296 125.408 25.4825C125.408 23.8355 126.479 22.4355 128.126 22.4355ZM101.937 20.6237C99.3844 20.6237 97.4903 22.6002 97.4903 25.5649C97.4903 28.5296 99.3844 30.506 102.184 30.506C103.502 30.506 104.902 30.0943 105.89 29.1884L104.82 27.706C103.996 28.2825 103.173 28.6943 102.267 28.6943C101.031 28.6943 99.8785 28.1178 99.5491 26.306H106.137V25.4825C106.055 22.6002 104.408 20.6237 101.937 20.6237ZM101.937 22.5178C103.173 22.5178 103.996 23.3413 104.243 24.7413H99.5491C99.6315 23.259 100.455 22.5178 101.937 22.5178ZM150.773 25.4825V17.0825H148.879V22.0237C148.137 21.0355 147.231 20.6237 146.079 20.6237C143.608 20.6237 141.631 22.7649 141.631 25.5649C141.631 28.3649 143.69 30.506 146.079 30.506C147.231 30.506 148.22 30.0943 148.879 29.106V30.259H150.773V25.4825ZM153.079 29.2708H153.326C153.36 29.2708 153.38 29.2849 153.403 29.3014C153.436 29.3249 153.476 29.3531 153.573 29.3531C153.573 29.3531 153.655 29.4355 153.655 29.6002C153.737 29.6825 153.737 29.9296 153.655 30.0119C153.655 30.046 153.641 30.066 153.624 30.0894C153.601 30.1225 153.573 30.1625 153.573 30.259C153.573 30.259 153.49 30.3413 153.326 30.3413H153.079C152.831 30.3413 152.667 30.259 152.584 30.0119C152.506 29.9338 152.502 29.7075 152.572 29.6141C152.544 29.7096 152.548 29.8196 152.584 29.9296C152.584 29.9296 152.584 30.0119 152.667 30.0119L152.749 30.0943C152.939 30.2206 152.983 30.25 153.03 30.2569C153.035 30.2576 153.039 30.258 153.044 30.2583C153.049 30.2587 153.055 30.2588 153.06 30.2589L153.079 30.259H153.326C153.326 30.259 153.408 30.259 153.408 30.1766C153.655 29.9296 153.655 29.7649 153.408 29.4355L153.326 29.3531H153.079H152.831L152.914 29.2708H153.079ZM152.831 29.3531C152.694 29.3988 152.608 29.4952 152.572 29.6141C152.576 29.6091 152.58 29.6044 152.584 29.6002L152.831 29.3531ZM153.079 29.6002H153.161C153.161 29.6002 153.243 29.6825 153.161 29.6825V29.7649C153.126 29.7649 153.106 29.7649 153.088 29.7586C153.064 29.75 153.044 29.7299 152.996 29.6825V29.7649H153.079V30.0119H152.831V29.4355L153.079 29.6002ZM153.202 29.8884L153.079 29.7649H153.161L153.202 29.8884ZM153.202 29.8884L153.326 30.0119H153.243L153.202 29.8884ZM146.161 22.4355C147.726 22.4355 148.879 23.7531 148.879 25.4825C148.879 27.2119 147.726 28.5296 146.161 28.5296C144.431 28.3649 143.443 27.1296 143.443 25.4825C143.443 23.8355 144.514 22.4355 146.161 22.4355ZM77.8079 25.4825V20.8708H75.9138V22.0237C75.1726 21.0355 74.2667 20.6237 73.1138 20.6237C70.6432 20.6237 68.6667 22.7649 68.6667 25.5649C68.6667 28.3649 70.7256 30.506 73.1138 30.506C74.2667 30.506 75.255 30.0943 75.9138 29.106V30.259H77.8079V25.4825ZM70.5609 25.4825C70.5609 23.8355 71.6315 22.4355 73.2785 22.4355C74.8432 22.4355 75.9962 23.7531 75.9962 25.4825C75.9962 27.2119 74.8432 28.5296 73.2785 28.5296C71.6315 28.3649 70.5609 27.1296 70.5609 25.4825Z"
                                    fill="#8F9395">
                                </path>
                            </g>
                            <defs>
                                <clippath id="clip0_2125_33531">
                                    <rect width="153.176" height="48" fill="white" transform="translate(0.478516)">
                                    </rect>
                                </clippath>
                            </defs>
                        </svg>