<svg width="102" height="48" viewBox="0 0 102 48" fill="none" xmlns="http://www.w3.org/2000/svg">
                            <g clip-path="url(#clip0_2125_33606)">
                                <path
                                    d="M25.2772 21.8087C23.2076 21.8087 21.6859 23.8174 21.6859 26.1304C21.6859 28.3217 23.2076 30.4522 25.2772 30.4522C26.4945 30.4522 27.7119 29.8435 28.3815 28.6261C28.3815 28.6261 28.3815 28.5043 28.3815 28.4435C28.3815 28.2609 28.2598 28.1391 28.0772 28.1391C27.9554 28.1391 27.8946 28.2609 27.7728 28.3217C27.225 29.2957 26.3728 29.8435 25.2163 29.8435C23.6337 29.8435 22.3554 28.2609 22.2945 26.6174H28.5032C28.6859 26.6174 28.8685 26.4957 28.8685 26.1913C28.8685 23.8783 27.3467 21.8087 25.2772 21.8087ZM22.3554 25.8261C22.538 24.1217 23.6945 22.6 25.2772 22.6C26.8598 22.6 28.138 24.1826 28.1989 25.8261H22.3554ZM36.7206 22.4174C36.7206 22.6 36.5989 22.7217 36.4163 22.7217H34.8337V29.9043C34.8337 30.087 34.7119 30.2087 34.5293 30.2087C34.3467 30.2087 34.225 30.0261 34.225 29.9043V22.7217H32.6424C32.4598 22.7217 32.338 22.6 32.338 22.4174C32.338 22.2348 32.4598 22.113 32.6424 22.113H34.225V19.4348C34.225 19.2522 34.3467 19.1304 34.5293 19.0087C34.7119 19.0087 34.8946 19.1304 34.8946 19.313V21.9304H36.4772C36.5989 21.9913 36.7206 22.1739 36.7206 22.4174ZM46.6424 25.5217V29.9043C46.6424 30.087 46.4598 30.2087 46.338 30.2087C46.1554 30.2087 46.0337 30.087 46.0337 29.9043V25.5217C46.0337 24 45.3032 22.6 43.7815 22.6C41.8946 22.6 41.0424 24.4261 41.1641 26.313V26.6174V29.9043C41.1641 30.087 41.0424 30.2087 40.8598 30.3304C40.6772 30.3304 40.4945 30.2087 40.4945 30.0261V15.4783C40.6163 15.2957 40.6772 15.1739 40.8598 15.1739C41.0424 15.1739 41.1641 15.3565 41.1641 15.4783V23.5739C41.7119 22.6 42.6859 21.7478 43.7206 21.7478C45.6076 21.8696 46.6424 23.5739 46.6424 25.5217ZM54.1902 21.8087C52.1206 21.8087 50.5989 23.8174 50.5989 26.1304C50.5989 28.3217 52.1206 30.4522 54.1902 30.4522C55.4076 30.4522 56.625 29.8435 57.2945 28.6261C57.2945 28.6261 57.2945 28.5043 57.2945 28.4435C57.2945 28.2609 57.1728 28.1391 56.9902 28.1391C56.8685 28.1391 56.8076 28.2609 56.6859 28.3217C56.138 29.2957 55.2859 29.8435 54.1293 29.8435C52.5467 29.8435 51.2685 28.2609 51.2076 26.6174H57.4772C57.6598 26.6174 57.8424 26.4957 57.8424 26.1913C57.6598 23.8783 56.138 21.8087 54.1902 21.8087ZM51.1467 25.8261C51.3293 24.1217 52.4859 22.6 54.0685 22.6C55.6511 22.6 56.9293 24.1826 56.9902 25.8261H51.1467ZM65.3293 22.2957C65.3293 22.4783 65.2076 22.6 65.025 22.7217C63.2598 23.0261 62.4076 24.6087 62.4076 26.6174V29.9043C62.4076 30.087 62.2859 30.2087 62.1032 30.3304C61.9206 30.3304 61.738 30.2087 61.738 30.0261V22.4783C61.738 22.2957 61.8598 22.1739 62.0424 22.0522C62.225 22.0522 62.4076 22.1739 62.4076 22.3565V23.8783C62.8946 22.9043 63.9293 21.9913 64.9641 21.9913C65.2076 21.9913 65.3293 22.113 65.3293 22.2957ZM71.9641 21.8087C69.8946 21.8087 68.3728 23.8174 68.3728 26.1304C68.3728 28.3217 69.8946 30.4522 71.9641 30.4522C73.1815 30.4522 74.3989 29.8435 75.0685 28.6261C75.0685 28.6261 75.0685 28.5043 75.0685 28.4435C75.0685 28.2609 74.9467 28.1391 74.7641 28.1391C74.6424 28.1391 74.5815 28.2609 74.4598 28.3217C73.9119 29.2957 73.0598 29.8435 71.9032 29.8435C70.3206 29.8435 69.0424 28.2609 68.9815 26.6174H75.1902C75.3728 26.6174 75.5554 26.4957 75.5554 26.1913C75.6163 23.8783 74.0337 21.8087 71.9641 21.8087ZM68.9815 25.8261C69.1641 24.1217 70.3206 22.6 71.9032 22.6C73.4859 22.6 74.7641 24.1826 74.825 25.8261H68.9815ZM85.5989 22.4174V24.7913V29.9043C85.5989 30.087 85.4163 30.2087 85.2945 30.2087C85.1119 30.2087 84.9902 30.087 84.9902 29.9043V28.5043C84.5033 29.6 83.5902 30.3913 82.4337 30.3913C80.5467 30.3913 79.5728 28.5652 79.5728 26.8V22.4174C79.5728 22.2348 79.6946 22.113 79.8772 22.113C80.0598 22.113 80.1815 22.2957 80.1815 22.4174V26.8C80.1815 28.3217 80.9119 29.7217 82.4337 29.7217C84.5033 29.7217 84.9902 27.5304 84.9902 25.2174V22.4174C84.9902 22.2348 85.1728 21.9913 85.4772 22.113C85.538 22.113 85.5989 22.2957 85.5989 22.4174ZM101.303 25.5217V29.9043C101.303 30.087 101.121 30.2087 100.999 30.2087C100.816 30.2087 100.695 30.087 100.695 29.9043V25.5217C100.695 24 99.9641 22.6 98.4424 22.6C96.5554 22.6 95.8859 24.7913 95.8859 26.4957V29.9043C95.8859 30.087 95.7033 30.2087 95.5815 30.2087C95.3989 30.2087 95.2772 30.087 95.2772 29.9043V25.5217C95.2772 24 94.5467 22.6 93.025 22.6C91.138 22.6 90.4076 24.1826 90.4685 26.3739C90.4685 26.3739 90.4685 26.4957 90.4685 26.5565V29.8435C90.4685 30.0261 90.3467 30.1478 90.1641 30.2696C89.9815 30.2696 89.7989 30.1478 89.7989 29.9652V22.4783C89.7989 22.2957 89.9206 22.1739 90.1033 22.0522C90.2859 22.0522 90.4685 22.1739 90.4685 22.3565V23.6348C91.0163 22.6609 91.9902 21.8087 93.025 21.8087C94.3641 21.8087 95.2772 22.7217 95.6424 24C96.1293 22.7217 97.1641 21.8087 98.5032 21.8087C100.268 21.8696 101.303 23.5739 101.303 25.5217ZM7.9902 29.2957L0.259766 24.3043L7.9902 10L15.7206 24.3043L7.9902 29.2957ZM0.259766 25.887L7.9902 38L15.7206 25.887L7.9902 31L0.259766 25.887Z"
                                    fill="#8F9395">
                                </path>
                            </g>
                            <defs>
                                <clippath id="clip0_2125_33606">
                                    <rect width="101.043" height="48" fill="white" transform="translate(0.259766)">
                                    </rect>
                                </clippath>
                            </defs>
                        </svg>