<?xml version="1.0" encoding="utf-8"?>
<!-- Generator: Adobe Illustrator 22.1.0, SVG Export Plug-In . SVG Version: 6.00 Build 0)  -->
<svg version="1.1" id="Слой_1" xmlns="http://www.w3.org/2000/svg" xmlns:xlink="http://www.w3.org/1999/xlink" x="0px" y="0px"
	 width="100px" height="33px" viewBox="0 0 100 33" style="enable-background:new 0 0 100 33;" xml:space="preserve">
<style type="text/css">
	.st0{fill:#FFFFFF;}
	.st1{fill:#D13832;}
</style>
<title>743CEEC9-2564-40D2-900E-D8F91EEE2054</title>
<desc>Created with sketchtool.</desc>
<path class="st0" d="M34.4,18.3l-5.7,14.6h2.7c0.3,0,0.5-0.1,0.7-0.2c0.2-0.2,0.3-0.3,0.4-0.5l0.9-2.6h5.6l0.9,2.5
	c0.1,0.2,0.2,0.4,0.4,0.5s0.4,0.2,0.7,0.2h2.6l-5.7-14.6H34.4z M34.1,27.3l1.3-4c0.1-0.3,0.2-0.6,0.3-0.9c0.1-0.3,0.2-0.7,0.3-1.1
	c0.1,0.4,0.2,0.8,0.3,1.1c0.1,0.3,0.2,0.6,0.3,0.9l1.4,4H34.1z"/>
<path class="st0" d="M19.8,22.2c0.4-0.4,0.8-0.7,1.3-0.9c0.5-0.2,1.1-0.3,1.7-0.3c0.3,0,0.7,0,0.9,0.1s0.5,0.1,0.8,0.2
	s0.5,0.2,0.7,0.3c0.2,0.1,0.5,0.3,0.8,0.4c0.3,0.2,0.5,0.2,0.8,0.2c0.2-0.1,0.4-0.2,0.6-0.4l1-1.5c-0.3-0.3-0.6-0.5-1-0.8
	c-0.4-0.2-0.8-0.4-1.2-0.6s-0.9-0.3-1.5-0.4c-0.5-0.1-1.1-0.1-1.7-0.1c-1.2,0-2.3,0.2-3.2,0.6s-1.8,0.9-2.4,1.5
	c-0.7,0.7-1.2,1.4-1.6,2.4s-0.5,1.9-0.5,3c0,1.1,0.2,2.1,0.6,3c0.4,0.9,0.9,1.7,1.6,2.4c0.7,0.7,1.6,1.2,2.5,1.6s2.1,0.6,3.3,0.6
	c0.9,0,1.8-0.1,2.7-0.4c0.9-0.2,1.7-0.6,2.4-1.2v-6.2h-5.2v1.9c0,0.2,0.1,0.3,0.2,0.4s0.3,0.2,0.5,0.2h1.5v2.2
	c-0.3,0.1-0.6,0.2-1,0.3c-0.3,0.1-0.7,0.1-1.1,0.1c-0.7,0-1.3-0.1-1.8-0.3c-0.5-0.2-1-0.5-1.4-0.9c-0.4-0.4-0.7-0.9-0.9-1.5
	c-0.2-0.6-0.3-1.3-0.3-2.1c0-0.7,0.1-1.3,0.3-1.9C19.2,23.1,19.5,22.6,19.8,22.2z"/>
<path class="st1" d="M59.8,0.2c-0.1,0-0.2,0-0.3,0.1c-0.1,0-0.2,0.1-0.2,0.2c-0.1,0.1-0.1,0.2-0.2,0.3L55.3,8
	c-0.1,0.3-0.3,0.5-0.4,0.8c-0.1,0.3-0.2,0.6-0.4,0.9c-0.1-0.3-0.2-0.6-0.4-0.8c-0.1-0.3-0.3-0.5-0.4-0.8L50,0.7
	c-0.1-0.1-0.1-0.2-0.2-0.3c-0.1-0.1-0.1-0.1-0.2-0.2c-0.1,0-0.2-0.1-0.3-0.1c-0.1,0-0.2,0-0.4,0h-2.6v14.6h3V6.4c0-0.2,0-0.4,0-0.6
	c0-0.2,0-0.5-0.1-0.7l3.9,7.5c0.1,0.2,0.3,0.4,0.5,0.5c0.2,0.1,0.4,0.2,0.7,0.2h0.5c0.3,0,0.5-0.1,0.7-0.2s0.4-0.3,0.5-0.5L59.9,5
	c0,0.2,0,0.5-0.1,0.7c0,0.2,0,0.4,0,0.6v8.4h3V0.2h-2.6C60.1,0.2,59.9,0.2,59.8,0.2z"/>
<path class="st1" d="M19.8,14.6c0.1,0,0.8,0,1.1,0c0.3,0,0.6-0.1,0.9-0.2c0.4-0.1,0.8-0.3,0.8-0.3c0,0,0,0,0.1,0
	c0.1,0,0.2-0.1,0.3-0.1c0,0,0.1,0,0.1-0.1c0.1,0,0.2-0.1,0.3-0.1c0,0,0.1,0,0.1-0.1c0.3-0.1,0.5-0.3,0.8-0.5c0,0,0.1-0.1,0.1-0.1
	c0.1-0.1,0.2-0.1,0.3-0.2c0,0,0.1-0.1,0.1-0.1c0.1-0.1,0.2-0.1,0.3-0.2c0,0,0.1-0.1,0.1-0.1c0.1-0.1,0.2-0.2,0.3-0.2
	c0,0,0.1,0,0.1-0.1c0,0,0,0,0.1,0c0.2-0.1,0.3-0.3,0.5-0.4c0,0,0.1-0.1,0.1-0.1c0.1-0.1,0.3-0.2,0.4-0.3c0.1-0.1,0.1-0.1,0.2-0.1
	c0,0,0.1,0,0.1-0.1c0.1-0.1,0.2-0.2,0.3-0.3c0.1-0.1,1.5-1.5,2.5-2.7s2.1-2.6,3.2-3.9c0.9-1,2.1-1.6,3.6-1.6c1.1,0,2.2,0.4,3,1.1
	l-1.1,0.8l5.2,2.4l-0.5-5.6l-1.3,0.9C40.5,0.8,38.7,0,36.7,0c-2.3,0-4.3,1-5.6,2.6v0c-0.1,0.1-4.1,5-5.8,6.6
	c-0.1,0.1-0.2,0.2-0.3,0.2c0,0,0,0-0.1,0c-0.1,0.1-0.2,0.2-0.4,0.3c0,0-0.1,0-0.1,0.1c-0.1,0.1-0.2,0.2-0.3,0.3c0,0-0.1,0-0.1,0.1
	c-0.1,0.1-0.1,0.1-0.2,0.2c0,0-0.1,0-0.1,0.1c0,0-0.1,0-0.1,0.1c-0.1,0.1-0.2,0.1-0.3,0.2c0,0-0.1,0-0.1,0.1L23.1,11c0,0,0,0-0.1,0
	c-0.1,0.1-0.2,0.1-0.2,0.1c0,0-0.1,0-0.1,0.1c-0.1,0-0.1,0.1-0.2,0.1c-0.5,0.3-0.9,0.4-1.2,0.5S20.6,12,20.1,12
	c-2.6-0.1-4.7-2.4-4.5-5c0.2-2.3,2.1-4.2,4.4-4.3c1.5-0.1,2.8,0.5,3.8,1.5c0.2,0.2,1.5,1.6,1.8,1.9c0.5-0.5,1.7-1.9,1.8-2
	c-0.2-0.3-1.2-1.4-1.3-1.4c-1.4-1.6-3.5-2.6-5.8-2.6c-3.8,0.1-7,3.1-7.2,6.9C12.8,11,15.9,14.4,19.8,14.6z"/>
<path class="st0" d="M58.2,18.3c-0.1,0-0.2,0-0.3,0.1c-0.1,0-0.2,0.1-0.2,0.2c-0.1,0.1-0.1,0.2-0.2,0.3l-3.8,7.4
	c-0.1,0.3-0.3,0.5-0.4,0.8c-0.1,0.3-0.2,0.6-0.4,0.9c-0.1-0.3-0.2-0.6-0.4-0.8c-0.1-0.3-0.3-0.5-0.4-0.8l-3.8-7.4
	c-0.1-0.1-0.1-0.2-0.2-0.3c-0.1-0.1-0.1-0.1-0.2-0.2c-0.1,0-0.2-0.1-0.3-0.1s-0.2,0-0.4,0h-2.6v14.6h3v-8.4c0-0.2,0-0.4,0-0.6
	c0-0.2,0-0.5-0.1-0.7l3.9,7.5c0.1,0.2,0.3,0.4,0.5,0.5c0.2,0.1,0.4,0.2,0.7,0.2h0.5c0.3,0,0.5-0.1,0.7-0.2c0.2-0.1,0.4-0.3,0.5-0.5
	l3.9-7.5c0,0.2,0,0.5-0.1,0.7s0,0.4,0,0.6v8.4h3V18.3h-2.6C58.5,18.3,58.4,18.3,58.2,18.3z"/>
<path class="st1" d="M36.7,12h-0.1c-0.3,0-0.7,0-1.6-0.4c-0.9-0.4-1.1-0.6-1.7-1.1c-0.4-0.3-0.9-0.8-1.4-1.3c-0.5,0.6-1.7,1.9-1.8,2
	c0.5,0.5,1.6,1.4,2,1.8L32,12.9c1,0.8,2.2,1.4,3.5,1.6c0.4,0.1,0.8,0.1,1.1,0.1c0.4,0,0.7,0,1-0.1c2.9-0.4,5.4-2.4,6.2-5.2l-2.4-1.1
	C40.9,10.4,39,12,36.7,12z"/>
<path class="st1" d="M94.7,9c0,0.2,0.1,0.3,0.2,0.4s0.3,0.2,0.5,0.2h1.5v2.2c-0.3,0.1-0.6,0.2-1,0.3c-0.3,0.1-0.7,0.1-1.1,0.1
	c-0.7,0-1.3-0.1-1.8-0.3c-0.5-0.2-1-0.5-1.4-0.9c-0.4-0.4-0.7-0.9-0.9-1.5c-0.2-0.6-0.3-1.3-0.3-2.1c0-0.7,0.1-1.3,0.3-1.9
	C90.8,5,91,4.5,91.4,4.1c0.4-0.4,0.8-0.7,1.3-0.9c0.5-0.2,1.1-0.3,1.7-0.3c0.3,0,0.7,0,0.9,0.1s0.5,0.1,0.8,0.2
	c0.3,0.1,0.5,0.2,0.7,0.3c0.2,0.1,0.5,0.3,0.8,0.4c0.3,0.2,0.5,0.2,0.8,0.2c0.2-0.1,0.4-0.2,0.6-0.4l1-1.5c-0.3-0.3-0.6-0.5-1-0.8
	c-0.4-0.2-0.8-0.4-1.2-0.6s-0.9-0.3-1.5-0.4C95.7,0.1,95.2,0,94.5,0c-1.2,0-2.3,0.2-3.2,0.6c-1,0.4-1.8,0.9-2.4,1.5
	c-0.7,0.7-1.2,1.4-1.6,2.4c-0.4,0.9-0.5,1.9-0.5,3c0,1.1,0.2,2.1,0.6,3s0.9,1.7,1.6,2.4c0.7,0.7,1.6,1.2,2.5,1.6
	c1,0.4,2.1,0.6,3.3,0.6c0.9,0,1.8-0.1,2.7-0.4c0.9-0.2,1.7-0.6,2.4-1.2V7.2h-5.2V9z"/>
<rect x="65.7" y="0.2" class="st1" width="3.4" height="14.6"/>
<path class="st1" d="M8.5,7.2C9,7,9.4,6.8,9.7,6.6c0.3-0.2,0.6-0.5,0.8-0.7c0.2-0.3,0.3-0.6,0.4-0.9C11,4.7,11,4.4,11,4.1
	c0-0.6-0.1-1.1-0.3-1.6c-0.2-0.5-0.5-0.9-1-1.2C9.3,0.9,8.7,0.6,8,0.4C7.3,0.2,6.4,0.2,5.4,0.2H0v14.6h5.9c0.9,0,1.7-0.1,2.3-0.3
	c0.7-0.2,1.3-0.5,1.7-0.9c0.5-0.4,0.8-0.9,1.1-1.4c0.2-0.5,0.4-1.1,0.4-1.7c0-0.8-0.2-1.5-0.7-2C10.2,7.8,9.5,7.4,8.5,7.2z M3.4,2.7
	L3.4,2.7l2,0c0.4,0,0.7,0,1,0.1c0.3,0.1,0.5,0.2,0.7,0.3c0.2,0.1,0.3,0.3,0.4,0.6c0.1,0.2,0.1,0.5,0.1,0.9c0,0.4-0.1,0.6-0.2,0.9
	C7.3,5.6,7.2,5.8,7,5.9C6.8,6.1,6.5,6.2,6.2,6.2s-0.6,0.1-1,0.1H3.4V2.7z M7.9,11c-0.1,0.2-0.2,0.4-0.3,0.6
	c-0.2,0.2-0.4,0.3-0.7,0.4c-0.3,0.1-0.7,0.2-1.1,0.2H3.4V8.6h2.4c0.4,0,0.8,0,1.1,0.1C7.1,8.8,7.4,8.9,7.5,9
	c0.2,0.1,0.3,0.3,0.4,0.5C8,9.8,8,10,8,10.3C8,10.5,8,10.7,7.9,11z"/>
<path class="st1" d="M75,6.9c0-0.2,0-0.4,0-0.7s0-0.5-0.1-0.8l6.9,8.7c0.2,0.2,0.4,0.4,0.5,0.4c0.2,0.1,0.4,0.1,0.7,0.1h1.8V0.2h-3
	v7.7c0,0.2,0,0.5,0,0.7c0,0.3,0,0.5,0.1,0.8l-7-8.8c-0.1-0.1-0.2-0.2-0.3-0.3c-0.1-0.1-0.1-0.1-0.2-0.2c-0.1,0-0.2-0.1-0.3-0.1
	c-0.1,0-0.2,0-0.4,0h-1.8v14.6h3V6.9z"/>
<path class="st0" d="M83.8,25.5c-0.3-0.3-0.7-0.6-1.1-0.7c-0.4-0.2-0.8-0.4-1.2-0.5c-0.4-0.1-0.8-0.3-1.2-0.4
	c-0.4-0.1-0.7-0.2-1.1-0.4s-0.6-0.3-0.7-0.5c-0.2-0.2-0.3-0.4-0.3-0.7c0-0.5,0.2-0.8,0.5-1.1c0.3-0.3,0.8-0.4,1.4-0.4
	c0.4,0,0.7,0.1,1,0.1c0.3,0.1,0.5,0.2,0.8,0.3c0.2,0.1,0.4,0.2,0.6,0.3c0.2,0.1,0.3,0.1,0.5,0.1c0.2,0,0.3,0,0.4-0.1
	c0.1-0.1,0.2-0.2,0.3-0.4l0.9-1.6c-0.3-0.2-0.6-0.5-0.9-0.6s-0.7-0.4-1.1-0.5c-0.4-0.1-0.8-0.2-1.2-0.3s-0.9-0.1-1.3-0.1
	c-0.8,0-1.5,0.1-2.1,0.4c-0.6,0.2-1.2,0.6-1.6,1s-0.8,0.9-1,1.4c-0.2,0.5-0.3,1.1-0.3,1.6c0,0.7,0.1,1.3,0.3,1.7
	c0.2,0.5,0.4,0.9,0.7,1.2c0.3,0.3,0.7,0.6,1,0.7s0.8,0.3,1.2,0.5c0.4,0.1,0.8,0.2,1.2,0.4c0.4,0.1,0.7,0.2,1,0.4
	c0.3,0.1,0.6,0.3,0.7,0.5s0.3,0.5,0.3,0.8c0,0.6-0.2,1-0.5,1.3c-0.3,0.3-0.8,0.4-1.4,0.4c-0.5,0-0.9-0.1-1.2-0.2
	c-0.3-0.1-0.6-0.3-0.9-0.4c-0.3-0.2-0.5-0.3-0.7-0.4c-0.2-0.1-0.4-0.2-0.6-0.2c-0.2,0-0.3,0-0.4,0.1c-0.1,0.1-0.2,0.2-0.3,0.3
	l-1,1.6c0.3,0.3,0.6,0.5,1,0.8c0.4,0.2,0.8,0.4,1.3,0.6c0.4,0.2,0.9,0.3,1.4,0.4c0.5,0.1,0.9,0.1,1.4,0.1c0.8,0,1.6-0.1,2.2-0.4
	c0.7-0.2,1.2-0.6,1.7-1c0.4-0.4,0.8-0.9,1-1.5c0.2-0.6,0.4-1.2,0.4-1.9c0-0.6-0.1-1.1-0.3-1.6C84.3,26.2,84.1,25.8,83.8,25.5z"/>
<polygon class="st0" points="64.1,32.8 73.5,32.8 73.5,30.2 67.5,30.2 67.5,26.8 72.1,26.8 72.1,24.3 67.5,24.3 67.5,20.9 
	73.5,20.9 73.5,18.3 64.1,18.3 "/>
</svg>
