<svg width="73" height="36" viewBox="0 0 73 36" fill="none" xmlns="http://www.w3.org/2000/svg">
<path d="M25.018 19.3091L20.8726 29.9273H22.8362C23.0544 29.9273 23.1998 29.8538 23.3453 29.7818C23.4907 29.6364 23.5635 29.5636 23.6362 29.4182L24.2907 27.5265H28.3635L29.018 29.3447C29.0907 29.4902 29.1635 29.6356 29.3089 29.7084C29.4544 29.7818 29.5998 29.8538 29.818 29.8538H31.7089L27.5635 19.2356H25.018V19.3091ZM24.7998 25.8545L25.7453 22.9455C25.818 22.7273 25.8907 22.5091 25.9635 22.2916C26.0362 22.0727 26.1089 21.7825 26.1817 21.4909C26.2544 21.7818 26.3271 22.0727 26.3998 22.2916C26.4726 22.5098 26.5453 22.728 26.618 22.9455L27.6362 25.8545H24.7998Z" fill="white"/>
<path d="M14.4002 22.1455C14.6911 21.8545 14.982 21.6364 15.3456 21.4909C15.7093 21.3455 16.1456 21.2727 16.582 21.2727C16.8002 21.2727 17.0911 21.2727 17.2365 21.3455C17.382 21.4189 17.6002 21.4189 17.8183 21.4909C18.0365 21.5644 18.182 21.6364 18.3274 21.7091C18.4729 21.7818 18.6911 21.9273 18.9093 22C19.1274 22.1455 19.2729 22.1455 19.4911 22.1455C19.6365 22.072 19.782 22 19.9274 21.8545L20.6547 20.7636C20.4365 20.5455 20.2183 20.4 19.9274 20.1818C19.6365 20.0364 19.3456 19.8909 19.0547 19.7455C18.7638 19.6 18.4002 19.5265 17.9638 19.4545C17.6002 19.3818 17.1638 19.3818 16.7274 19.3818C15.8547 19.3818 15.0547 19.5265 14.4002 19.8182C13.7456 20.1091 13.0911 20.4727 12.6547 20.9091C12.1456 21.4182 11.782 21.9273 11.4911 22.6545C11.2002 23.3818 11.1274 24.0356 11.1274 24.8364C11.1274 25.6364 11.2729 26.3636 11.5638 27.0182C11.8547 27.672 12.2184 28.2538 12.7274 28.7629C13.2365 29.272 13.8911 29.6356 14.5456 29.9273C15.2002 30.2175 16.0729 30.3636 16.9456 30.3636C17.6002 30.3636 18.2547 30.2909 18.9093 30.0727C19.5638 29.928 20.1456 29.6364 20.6547 29.2007V24.6916H16.8729V26.0727C16.8729 26.2182 16.9456 26.2916 17.0183 26.3636C17.0911 26.4356 17.2365 26.5091 17.382 26.5091H18.4729V28.1091C18.2547 28.1818 18.0365 28.2538 17.7456 28.3273C17.5274 28.4 17.2365 28.4 16.9456 28.4C16.4365 28.4 16.0002 28.3273 15.6365 28.1818C15.2729 28.0364 14.9093 27.8182 14.6183 27.5273C14.3274 27.2371 14.1093 26.8735 13.9638 26.4364C13.8184 26 13.7456 25.4909 13.7456 24.9091C13.7456 24.4 13.8184 23.9636 13.9638 23.5273C13.9638 22.8 14.182 22.4364 14.4002 22.1455Z" fill="white"/>
<path d="M43.491 6.14545C43.4183 6.14545 43.3456 6.14545 43.2729 6.21818C43.2001 6.21818 43.1274 6.29091 43.1274 6.36364C43.0547 6.43636 43.0547 6.50909 42.9819 6.58182L40.2183 11.8182C40.1456 12.0364 40.0001 12.1818 39.9274 12.4C39.8539 12.6182 39.7819 12.8364 39.6365 13.0545C39.5638 12.8364 39.491 12.6182 39.3456 12.4727C39.2729 12.2545 39.1274 12.1091 39.0547 11.8909L36.3638 6.50909C36.291 6.43636 36.291 6.36364 36.2183 6.29091C36.1456 6.21818 36.1456 6.21818 36.0729 6.14545C36.0001 6.14545 35.9274 6.07273 35.8547 6.07273C35.7819 6.07273 35.7092 6.07273 35.5638 6.07273H33.6729V16.6909H35.8547V10.6545C35.8547 10.5091 35.8547 10.3636 35.8547 10.2182C35.8547 10.0727 35.8547 9.85455 35.7819 9.70909L38.6176 15.1636C38.691 15.3091 38.8365 15.4545 38.9812 15.5273C39.1267 15.6 39.2721 15.6727 39.4903 15.6727H39.8539C40.0721 15.6727 40.2176 15.6 40.363 15.5273C40.5085 15.4545 40.6539 15.3091 40.7267 15.1636L43.5638 9.63636C43.5638 9.78182 43.5638 10 43.4903 10.1455C43.4903 10.2909 43.4903 10.4364 43.4903 10.5818V16.6909H45.6721V6.14545H43.7812C43.7092 6.14545 43.5638 6.14545 43.491 6.14545Z" fill="#D13832"/>
<path d="M14.4 16.6182C14.4728 16.6182 14.9818 16.6182 15.2 16.6182C15.4182 16.6182 15.6364 16.5455 15.8546 16.4727C16.1455 16.4 16.4364 16.2545 16.4364 16.2545C16.4364 16.2545 16.4364 16.2545 16.5091 16.2545C16.5818 16.2545 16.6546 16.1818 16.7273 16.1818C16.7273 16.1818 16.8 16.1818 16.8 16.1091C16.8728 16.1091 16.9455 16.0364 17.0182 16.0364C17.0182 16.0364 17.0909 16.0364 17.0909 15.9636C17.3091 15.8909 17.4546 15.7455 17.6728 15.6L17.7455 15.5273C17.8182 15.4545 17.8909 15.4545 17.9637 15.3818L18.0364 15.3091C18.1091 15.2364 18.1818 15.2364 18.2546 15.1636L18.3273 15.0909C18.4 15.0182 18.4728 14.9455 18.5455 14.9455C18.5455 14.9455 18.6182 14.9455 18.6182 14.8727C18.6182 14.8727 18.6182 14.8727 18.6909 14.8727C18.8364 14.8 18.9091 14.6545 19.0546 14.5818L19.1273 14.5091C19.2 14.4364 19.3455 14.3636 19.4182 14.2909C19.4909 14.2182 19.4909 14.2182 19.5637 14.2182C19.5637 14.2182 19.6364 14.2182 19.6364 14.1455C19.7091 14.0727 19.7818 14 19.8546 13.9273C19.9273 13.8545 20.9455 12.8364 21.6728 11.9636C22.4 11.0909 23.2 10.0727 24 9.12727C24.6546 8.4 25.5273 7.96364 26.6182 7.96364C27.4182 7.96364 28.2182 8.25455 28.8 8.76364L28 9.34545L31.7818 11.0909L31.4182 7.01818L30.4728 7.67273C29.4546 6.58182 28.1455 6 26.6909 6C25.0182 6 23.5637 6.72727 22.6182 7.89091C22.5455 7.96364 19.6364 11.5273 18.4 12.6909C18.3273 12.7636 18.2546 12.8364 18.1818 12.8364C18.1818 12.8364 18.1818 12.8364 18.1091 12.8364C18.0364 12.9091 17.9637 12.9818 17.8182 13.0545C17.8182 13.0545 17.7455 13.0545 17.7455 13.1273C17.6728 13.2 17.6 13.2727 17.5273 13.3455C17.5273 13.3455 17.4546 13.3455 17.4546 13.4182C17.3818 13.4909 17.3818 13.4909 17.3091 13.5636C17.3091 13.5636 17.2364 13.5636 17.2364 13.6364C17.2364 13.6364 17.1637 13.6364 17.1637 13.7091C17.0909 13.7818 17.0182 13.7818 16.9455 13.8545C16.9455 13.8545 16.8728 13.8545 16.8728 13.9273L16.8 14C16.8 14 16.8 14 16.7273 14C16.6546 14.0727 16.5818 14.0727 16.5818 14.0727C16.5818 14.0727 16.5091 14.0727 16.5091 14.1455C16.4364 14.1455 16.4364 14.2182 16.3637 14.2182C16 14.4364 15.7091 14.5091 15.4909 14.5818C15.2728 14.6545 14.9818 14.7273 14.6182 14.7273C12.7273 14.6545 11.2 12.9818 11.3455 11.0909C11.4909 9.41818 12.8728 8.03636 14.5455 7.96364C15.6364 7.89091 16.5818 8.32727 17.3091 9.05455C17.4546 9.2 18.4 10.2182 18.6182 10.4364C18.9818 10.0727 19.8546 9.05455 19.9273 8.98182C19.7818 8.76364 19.0546 7.96364 18.9818 7.96364C17.9637 6.8 16.4364 6.07273 14.7637 6.07273C12 6.14545 9.67276 8.32727 9.5273 11.0909C9.30912 14 11.5637 16.4727 14.4 16.6182Z" fill="#D13832"/>
<path d="M42.3274 19.3091C42.254 19.3091 42.182 19.3091 42.1093 19.3825C42.0358 19.3825 41.9638 19.4553 41.9638 19.5273C41.8911 19.6 41.8911 19.6727 41.8183 19.7455L39.0547 25.1273C38.9813 25.3455 38.8365 25.4909 38.7638 25.7091C38.6911 25.9273 38.6183 26.1455 38.4729 26.3636C38.3994 26.1455 38.3274 25.9273 38.182 25.7818C38.1093 25.5636 37.9638 25.4182 37.8911 25.2L35.1274 19.8182C35.0547 19.7455 35.0547 19.6727 34.982 19.6C34.9093 19.5273 34.9093 19.5273 34.8365 19.4545C34.7638 19.4545 34.6911 19.3818 34.6183 19.3818C34.5456 19.3818 34.4729 19.3818 34.3274 19.3818H32.4365V30H34.6183V23.8909C34.6183 23.7462 34.6183 23.6007 34.6183 23.4545C34.6183 23.3084 34.6183 23.0909 34.5456 22.9455L37.382 28.4C37.4547 28.5455 37.6002 28.6909 37.7456 28.7636C37.8911 28.8364 38.0365 28.9091 38.2547 28.9091H38.6183C38.8373 28.9091 38.982 28.8364 39.1274 28.7636C39.2729 28.6909 39.4183 28.5455 39.4911 28.4L42.3274 22.9455C42.3274 23.0909 42.3274 23.3091 42.254 23.4545C42.1813 23.6 42.254 23.7455 42.254 23.8909V30H44.4358V19.3091H42.5449C42.5456 19.3091 42.4729 19.3091 42.3274 19.3091Z" fill="white"/>
<path d="M26.6909 14.7273H26.6181C26.4 14.7273 26.109 14.7273 25.4545 14.4364C24.8 14.1455 24.6545 14 24.2181 13.6364C23.9272 13.4182 23.5636 13.0545 23.2 12.6909C22.8363 13.1273 21.9636 14.0727 21.8909 14.1455C22.2545 14.5091 23.0545 15.1636 23.3454 15.4545L23.2727 15.3818C24 15.9636 24.8727 16.4 25.8181 16.5455C26.109 16.6182 26.4 16.6182 26.6181 16.6182C26.909 16.6182 27.1272 16.6182 27.3454 16.5455C29.4545 16.2545 31.2727 14.8 31.8545 12.7636L30.109 11.9636C29.7454 13.5636 28.3636 14.7273 26.6909 14.7273Z" fill="#D13832"/>
<path d="M68.8729 12.5455C68.8729 12.6909 68.9456 12.7636 69.0184 12.8364C69.0911 12.9091 69.2365 12.9818 69.382 12.9818H70.4729V14.5818C70.254 14.6545 70.0358 14.7273 69.7456 14.8C69.5267 14.8727 69.2365 14.8727 68.9449 14.8727C68.4358 14.8727 67.9994 14.8 67.6358 14.6545C67.2722 14.5091 66.9085 14.2909 66.6176 14C66.3274 13.7091 66.1093 13.3455 65.9638 12.9091C65.8183 12.4727 65.7456 11.9636 65.7456 11.3818C65.7456 10.8727 65.8183 10.4364 65.9638 10C66.0365 9.63636 66.182 9.27273 66.4729 8.98182C66.7631 8.69091 67.0547 8.47273 67.4183 8.32727C67.782 8.18182 68.2184 8.10909 68.6547 8.10909C68.8729 8.10909 69.1631 8.10909 69.3085 8.18182C69.454 8.25455 69.6722 8.25455 69.8904 8.32727C70.1093 8.4 70.254 8.47273 70.3994 8.54545C70.5449 8.61818 70.7631 8.76364 70.9813 8.83636C71.2002 8.98182 71.3456 8.98182 71.5638 8.98182C71.7093 8.90909 71.8547 8.83636 72.0002 8.69091L72.7274 7.6C72.5093 7.38182 72.2911 7.23636 72.0002 7.01818C71.7093 6.87273 71.4184 6.72727 71.1274 6.58182C70.8365 6.43636 70.4729 6.36364 70.0365 6.29091C69.6002 6.07273 69.2365 6 68.7274 6C67.8547 6 67.0547 6.14545 66.4002 6.43636C65.6729 6.72727 65.0911 7.09091 64.6554 7.52727C64.1463 8.03636 63.7827 8.54545 63.4911 9.27273C63.2009 9.92727 63.1274 10.6545 63.1274 11.4545C63.1274 12.2545 63.2729 12.9818 63.5645 13.6364C63.8547 14.2909 64.2183 14.8727 64.7282 15.3818C65.2373 15.8909 65.8918 16.2545 66.5463 16.5455C67.2736 16.8364 68.0736 16.9818 68.9464 16.9818C69.6009 16.9818 70.2554 16.9091 70.91 16.6909C71.5645 16.5455 72.1464 16.2545 72.6554 15.8182V11.2364H68.8736V12.5455H68.8729Z" fill="#D13832"/>
<path d="M50.2537 6.14545H47.7817V16.7636H50.2537V6.14545Z" fill="#D13832"/>
<path d="M6.18182 11.2364C6.54545 11.0909 6.83636 10.9455 7.05455 10.8C7.27273 10.6545 7.49091 10.4364 7.63636 10.2909C7.78182 10.0727 7.85455 9.85455 7.92727 9.63636C8 9.41818 8 9.2 8 8.98182C8 8.54545 7.92727 8.18182 7.78182 7.81818C7.63636 7.45455 7.41818 7.16364 7.05455 6.94545C6.76364 6.65455 6.32727 6.43636 5.81818 6.29091C5.30909 6.14545 4.65455 6.14545 3.92727 6.14545H0V16.7636H4.29091C4.94545 16.7636 5.52727 16.6909 5.96364 16.5455C6.47273 16.4 6.90909 16.1818 7.2 15.8909C7.56364 15.6 7.78182 15.2364 8 14.8727C8.14545 14.5091 8.29091 14.0727 8.29091 13.6364C8.29091 13.0545 8.14545 12.5455 7.78182 12.1818C7.41818 11.6727 6.90909 11.3818 6.18182 11.2364ZM2.47273 7.96364H3.92727C4.21818 7.96364 4.43636 7.96364 4.65455 8.03636C4.87273 8.10909 5.01818 8.18182 5.16364 8.25455C5.30909 8.32727 5.38182 8.47273 5.45455 8.69091C5.52727 8.83636 5.52727 9.05455 5.52727 9.34545C5.52727 9.63636 5.45455 9.78182 5.38182 10C5.30909 10.0727 5.23636 10.2182 5.09091 10.2909C4.94545 10.4364 4.72727 10.5091 4.50909 10.5091C4.29091 10.5091 4.07273 10.5818 3.78182 10.5818H2.47273V7.96364ZM5.74545 14C5.67273 14.1455 5.6 14.2909 5.52727 14.4364C5.38182 14.5818 5.23636 14.6545 5.01818 14.7273C4.8 14.8 4.50909 14.8727 4.21818 14.8727H2.47273V12.2545H4.21818C4.50909 12.2545 4.8 12.2545 5.01818 12.3273C5.16364 12.4 5.38182 12.4727 5.45455 12.5455C5.6 12.6182 5.67273 12.7636 5.74545 12.9091C5.81818 13.1273 5.81818 13.2727 5.81818 13.4909C5.81818 13.6364 5.81818 13.7818 5.74545 14Z" fill="#D13832"/>
<path d="M54.5456 11.0182C54.5456 10.8727 54.5456 10.7273 54.5456 10.5091C54.5456 10.2909 54.5456 10.1455 54.4728 9.92727L59.4903 16.2545C59.6357 16.4 59.7812 16.5455 59.8539 16.5455C59.9994 16.6182 60.1448 16.6182 60.363 16.6182H61.6721V6.14545H59.4903V11.7455C59.4903 11.8909 59.4903 12.1091 59.4903 12.2545C59.4903 12.4727 59.4903 12.6182 59.5637 12.8364L54.4728 6.43636C54.4001 6.36364 54.3274 6.29091 54.2546 6.21818C54.1819 6.14545 54.1819 6.14545 54.1099 6.07273C54.0365 6.07273 53.9637 6 53.891 6C53.8183 6 53.7456 6 53.6001 6H52.291V16.6182H54.4728V11.0182H54.5456Z" fill="#D13832"/>
<path d="M60.9453 24.5455C60.7271 24.3273 60.4362 24.1091 60.1453 24.0364C59.8544 23.8909 59.5635 23.7462 59.2725 23.6727C58.9816 23.6 58.6907 23.4545 58.3998 23.3825C58.1096 23.3091 57.8907 23.2371 57.5998 23.0916C57.3089 22.9462 57.1627 22.8735 57.0907 22.728C56.9453 22.5825 56.8725 22.4371 56.8725 22.2189C56.8725 21.8553 57.018 21.6371 57.2362 21.4189C57.4544 21.2007 57.818 21.128 58.2536 21.128C58.5445 21.128 58.7627 21.2015 58.9809 21.2015C59.1998 21.2727 59.3453 21.3455 59.5635 21.4182C59.7082 21.4909 59.8536 21.5636 59.9998 21.6364C60.146 21.7091 60.218 21.7091 60.3635 21.7091C60.5089 21.7091 60.5816 21.7091 60.6544 21.6364C60.7271 21.5636 60.7991 21.4909 60.8725 21.3455L61.5264 20.1818C61.3089 20.0364 61.0907 19.8182 60.8725 19.7455C60.6544 19.6727 60.3635 19.4545 60.0725 19.3818C59.7816 19.3091 59.4907 19.2364 59.1998 19.1636C58.9089 19.0909 58.5453 19.0909 58.2544 19.0909C57.6725 19.0909 57.1635 19.1636 56.7271 19.3818C56.2907 19.5265 55.8544 19.8182 55.5635 20.1091C55.2726 20.4 54.9816 20.7636 54.8362 21.1273C54.6907 21.4909 54.618 21.9273 54.618 22.2909C54.618 22.7993 54.6915 23.2364 54.8369 23.5265C54.9816 23.8909 55.1271 24.1818 55.3453 24.4C55.5642 24.6182 55.8544 24.8371 56.0725 24.9091C56.2915 24.9818 56.6551 25.1273 56.9453 25.2727C57.2362 25.3455 57.5271 25.4182 57.818 25.5636C58.1089 25.6364 58.3271 25.7084 58.5453 25.8538C58.7635 25.9273 58.9816 26.072 59.0544 26.2175C59.1271 26.3629 59.2725 26.5811 59.2725 26.7993C59.2725 27.2364 59.1271 27.5265 58.9089 27.7455C58.6907 27.9636 58.3271 28.0356 57.8907 28.0356C57.5271 28.0356 57.2369 27.9629 57.0187 27.8902C56.7998 27.8182 56.5816 27.6727 56.3635 27.6C56.1453 27.4545 55.9998 27.3818 55.8544 27.3091C55.7089 27.2364 55.5642 27.1636 55.418 27.1636C55.2718 27.1636 55.1998 27.1636 55.1271 27.2371C55.0544 27.3098 54.9816 27.3825 54.9089 27.4553L54.1816 28.6189C54.3998 28.8378 54.618 28.9825 54.9089 29.2015C55.1998 29.3462 55.4907 29.4916 55.8544 29.6378C56.1453 29.7833 56.5089 29.856 56.8725 29.9287C57.2362 30 57.5271 30 57.8907 30C58.4733 30 59.0551 29.9273 59.4907 29.7091C59.9998 29.5644 60.3635 29.2727 60.7271 28.9818C61.018 28.6916 61.3089 28.328 61.4544 27.8909C61.5998 27.4545 61.7453 27.0189 61.7453 26.5098C61.7453 26.0727 61.6725 25.7091 61.5271 25.3455C61.3089 25.0545 61.1635 24.7636 60.9453 24.5455Z" fill="white"/>
<path d="M46.6182 29.8545H53.4545V27.9636H49.0909V25.4909H52.4363V23.6727H49.0909V21.2H53.4545V19.3091H46.6182V29.8545Z" fill="white"/>
</svg>
