<svg width="114" height="36" viewBox="0 0 114 36" fill="none" xmlns="http://www.w3.org/2000/svg">
<path d="M3.70495 27.2772C3.59151 27.731 3.47806 27.9579 3.36461 28.1848C2.34358 26.4831 1.2091 24.7814 0.41496 22.9662C-0.379176 21.3779 0.074616 19.5628 0.868753 17.9745C0.868753 18.8821 0.868752 19.6762 0.982201 20.5838C1.2091 22.1721 1.66289 23.7604 2.68392 25.0083C3.02427 25.4621 3.47806 25.8024 3.93185 26.1428L4.0453 26.0293C3.59151 25.1217 3.13771 24.1007 2.79737 23.1931C2.45703 22.1721 2.23013 21.151 1.88979 20.0166C2.34358 20.13 2.68392 20.2435 3.02427 20.3569C2.68392 19.2224 2.45703 18.2014 2.11668 17.1804H2.23013C2.79737 18.2014 3.47806 19.109 4.0453 20.13C4.15875 20.2435 4.0453 20.5838 3.93185 20.6973C3.59151 21.2645 3.59151 21.8317 3.8184 22.399C4.38564 23.5335 4.95288 24.5545 5.52012 25.5755C5.63357 24.5545 5.63357 23.5335 5.06633 22.6259C4.61254 21.8317 4.49909 21.2645 5.06633 20.4704C5.17978 20.3569 5.29323 20.3569 5.29323 20.2435C5.40668 19.109 6.42771 18.9955 7.1084 18.5417C7.33529 18.4283 7.56219 18.2014 7.90253 18.088C7.90253 17.9745 7.90253 17.9745 7.90253 17.8611C7.56219 17.8611 7.22184 17.7476 6.99495 17.8611C6.54116 17.9745 6.20081 18.2014 5.86047 18.4283C4.83944 18.9955 4.38564 18.7686 4.38564 17.6342C4.83944 17.4073 5.40668 17.1804 5.97392 16.84C5.17978 16.3862 4.0453 16.84 4.15875 15.5921C4.49909 15.7055 4.72599 15.7055 5.06633 15.819C4.61254 15.0249 4.15875 14.3442 3.93185 13.6635C3.70495 12.8693 3.8184 12.0752 3.70495 11.2811C3.59151 11.2811 3.59151 11.1676 3.47806 11.1676C3.13771 11.508 2.79737 11.8483 2.45703 12.3021C1.77634 11.9618 1.09565 11.9618 1.09565 10.9407C1.32254 11.0542 1.54944 11.1676 2.00323 11.2811C1.77634 10.9407 1.66289 10.7138 1.43599 10.4869C0.528408 9.57935 0.301512 8.44486 0.301512 7.31038C0.301512 6.51625 0.982201 6.1759 1.77634 6.4028C3.13771 6.85659 4.61254 7.31038 6.08736 7.76418C6.6546 7.87762 7.22184 7.87762 7.78908 7.87762C6.42771 8.67176 4.95288 7.99107 3.47806 7.99107V8.10452C3.8184 8.21797 4.0453 8.44486 4.27219 8.55831C4.15875 8.78521 4.0453 9.01211 4.15875 9.12555C4.38564 9.91969 4.49909 10.8273 4.27219 11.8483C4.0453 12.7559 4.49909 13.4366 5.17978 14.0038C5.63357 14.4576 6.08736 14.9114 6.54116 15.3652C7.33529 16.1593 8.35633 16.4997 9.60425 16.2728C9.37736 15.7055 8.81012 15.4786 8.35633 15.3652C6.8815 14.9114 5.97392 13.8904 5.29323 12.529C5.06633 12.1887 5.06633 11.7349 4.95288 11.2811C5.17978 11.2811 5.17978 11.2811 5.17978 11.3945C5.52012 12.4155 6.20081 12.7559 7.33529 12.7559C8.35633 12.7559 9.15046 13.2097 9.60425 14.1173C9.83115 14.5711 10.1715 15.1383 10.8522 15.3652C10.9656 14.9114 11.0791 14.4576 11.0791 14.0038C11.0791 13.7769 10.9656 13.6635 10.7387 13.4366C10.3984 12.9828 9.9446 12.6424 9.60425 12.1887C9.9446 12.0752 10.1715 11.8483 10.3984 11.7349V11.6214C9.83115 11.6214 9.15046 11.6214 8.58322 11.6214V11.508C9.15046 11.2811 9.7177 11.0542 10.2849 10.8273C9.15046 10.0331 7.90253 10.4869 6.6546 10.26C8.12943 9.80624 9.60425 9.35245 10.9656 8.89866C10.9656 8.78521 10.9656 8.78521 10.9656 8.67176C10.1715 8.67176 9.26391 8.67176 8.46977 8.67176C9.15046 8.10452 9.9446 7.65073 10.8522 7.65073C12.2136 7.65073 13.6884 7.53728 15.0498 7.65073C15.9573 7.76418 16.7515 8.10452 17.6591 8.33142C17.6591 8.44486 17.6591 8.44486 17.6591 8.55831C16.8649 8.55831 15.9573 8.55831 15.1632 8.55831C15.1632 8.67176 15.1632 8.67176 15.1632 8.78521C16.5246 9.239 17.7725 9.69279 19.2473 10.1466C17.9994 10.3735 16.8649 10.0331 15.8439 10.7138C15.8439 10.8273 15.8439 10.8273 15.8439 10.9407C16.4111 11.1676 16.8649 11.2811 17.4322 11.508C16.8649 11.508 16.2977 11.508 15.7304 11.508V11.6214C15.9573 11.7349 16.1842 11.9618 16.5246 12.0752C16.1842 12.529 15.7304 12.8693 15.3901 13.3231C15.1632 13.55 15.0498 13.7769 15.2767 14.1173C15.3901 14.3442 15.2767 14.798 15.2767 15.2517C15.9573 14.9114 16.4111 14.3442 16.7515 13.6635C17.2053 12.8693 17.886 12.4155 18.7935 12.3021C19.8146 12.1887 20.8356 12.1887 21.0625 10.8273C21.176 10.8273 21.176 10.9407 21.2894 10.9407C21.176 11.2811 21.176 11.7349 21.0625 12.0752C20.4953 13.55 19.3608 14.4576 17.7725 15.0249C17.4322 15.1383 17.0918 15.3652 16.638 15.5921C16.638 15.7055 16.638 15.7055 16.638 15.819C17.0918 15.819 17.6591 15.9324 18.1129 15.819C19.1339 15.5921 20.0415 14.9114 20.6087 14.0038C20.9491 13.4366 21.4029 12.7559 21.7432 12.0752C21.7432 11.9618 21.8566 11.8483 21.8566 11.7349C21.7432 11.1676 21.4029 10.3735 21.6297 10.0331C22.0835 9.4659 21.8566 8.89866 22.0835 8.33142C21.8566 8.33142 21.6297 8.44486 21.5163 8.44486V8.33142C21.9701 8.10452 22.3104 7.99107 22.7642 7.76418C22.0835 7.42383 21.4029 7.53728 20.7222 7.65073C19.928 7.76418 19.1339 7.99107 18.3398 7.42383C20.4953 7.53728 22.3104 6.97004 24.2391 6.1759C25.1466 5.72211 25.8273 6.1759 25.8273 7.19694C25.8273 8.33142 25.6004 9.4659 24.6928 10.26C24.5794 10.3735 24.466 10.6004 24.2391 10.9407C24.6928 10.8273 24.9197 10.7138 25.1466 10.6004C25.1466 11.3945 24.8063 11.7349 23.6718 11.9618C23.5584 11.7349 23.4449 11.3945 23.218 11.1676C23.1046 11.0542 22.8777 10.9407 22.6508 10.9407C22.5373 10.9407 22.4239 11.1676 22.3104 11.3945C22.3104 11.508 22.3104 11.6214 22.3104 11.7349C22.5373 13.0962 22.4239 14.4576 21.0625 15.2517C21.0625 15.3652 21.176 15.3652 21.176 15.4786C21.5163 15.4786 21.8566 15.4786 22.0835 15.5921C22.0835 16.6131 21.2894 16.4997 20.6087 16.4997C20.7222 16.9535 20.7222 16.9535 21.8566 17.4073C21.8566 17.5207 21.7432 17.7476 21.7432 17.8611C21.5163 18.5417 21.176 18.6552 20.6087 18.3148C19.928 17.8611 19.1339 17.5207 18.1129 17.8611C19.0204 18.4283 19.8146 18.8821 20.6087 19.3359C20.3818 19.7897 20.4953 20.13 20.8356 20.3569C21.2894 20.6973 21.4029 21.6048 21.0625 22.2855C20.4953 23.3066 20.6087 24.3276 20.6087 25.4621C20.6087 25.3486 20.7222 25.3486 20.7222 25.2352C21.0625 24.1007 21.5163 23.0797 22.197 22.0586C22.5373 21.6048 22.7642 20.9242 22.197 20.2435C22.197 20.13 22.0835 20.0166 22.197 19.9031C22.6508 18.8821 23.218 17.8611 23.6718 16.84C23.7853 16.84 23.7853 16.9535 23.8987 16.9535C23.5584 17.9745 23.218 19.109 22.8777 20.2435C23.3315 20.13 23.6718 20.0166 24.1256 19.7897C23.6718 21.9452 22.8777 23.8738 21.8566 25.8024C22.5373 25.8024 22.9911 25.3486 23.3315 24.8948C24.5794 23.3066 25.0332 21.4914 25.1466 19.5628C25.1466 18.9955 25.1466 18.4283 25.2601 17.7476C25.9408 18.7686 26.1677 21.8317 25.8273 22.9662C25.8273 23.0797 25.7139 23.1931 25.6004 23.3066C24.6928 24.7814 23.7853 26.1428 22.8777 27.6176C22.8777 27.6176 22.7642 27.6176 22.7642 27.731C22.6508 27.5041 22.6508 27.2772 22.4239 26.9369C21.8566 27.9579 21.4029 28.7521 20.9491 29.6597H20.8356C20.8356 28.979 20.8356 28.2983 20.8356 27.6176C20.8356 27.3907 20.4953 27.1638 20.3818 26.9369C20.1549 27.1638 19.928 27.3907 19.928 27.6176C19.8146 28.0714 19.928 28.4117 19.928 28.979C19.4742 28.7521 19.0204 28.5252 18.6801 28.2983C17.9994 27.9579 17.3187 27.9579 16.7515 28.5252C16.4111 28.8655 15.7304 29.0924 15.1632 29.0924C14.1422 29.2059 13.0077 29.0924 11.9867 29.2059C11.306 29.2059 10.7387 29.0924 10.3984 28.6386C9.7177 27.9579 9.03701 27.9579 8.24288 28.4117C7.90253 28.6386 7.56219 28.7521 7.22184 28.979C7.1084 28.5252 7.1084 27.9579 6.99495 27.6176C6.8815 27.3907 6.6546 27.2772 6.42771 27.0503C6.31426 27.2772 6.08736 27.5041 6.08736 27.731C6.08736 28.4117 6.08736 29.2059 5.97392 30C4.72599 29.2059 4.27219 28.4117 3.70495 27.2772ZM17.9994 27.9579C17.6591 26.4831 16.638 25.3486 15.1632 25.0083C13.9153 24.6679 12.5539 24.5545 11.1925 24.8948C10.5118 25.0083 9.7177 25.3486 9.15046 25.8024C8.46977 26.1428 7.90253 26.8235 7.90253 27.8445C8.24288 27.5041 8.58322 27.2772 8.92357 27.0503C9.26391 26.8235 9.60425 26.9369 9.60425 27.3907C9.60425 27.6176 9.60425 27.8445 9.83115 28.0714C10.6253 28.7521 12.2136 28.7521 13.0077 28.1848C13.2346 28.2983 13.348 28.5252 13.5749 28.5252C14.4825 28.6386 15.2767 28.4117 16.0708 27.9579C16.1842 27.8445 16.2977 27.6176 16.2977 27.5041C16.2977 26.9369 16.5246 26.8235 16.9784 27.0503C17.2053 27.2772 17.5456 27.6176 17.9994 27.9579ZM16.1842 16.84C16.1842 17.2938 16.1842 17.7476 16.1842 18.088C16.2977 18.6552 16.1842 19.109 15.7304 19.4493C15.1632 19.9031 14.596 20.4704 13.9153 20.6973C13.1211 21.0376 13.2346 21.6048 13.2346 22.1721C13.2346 22.7393 13.5749 22.9662 14.0287 23.0797C14.8229 23.3066 15.5036 23.6469 16.2977 23.8738C17.0918 24.1007 18.2263 23.6469 18.4532 22.8528C17.9994 22.7393 17.4322 22.7393 16.8649 22.6259C18.3398 21.9452 18.3398 21.9452 18.4532 21.4914C17.7725 21.6048 17.0918 21.8317 16.5246 21.9452C16.8649 21.6048 17.3187 21.3779 17.6591 21.0376C18.1129 20.8107 18.3398 20.3569 18.3398 19.7897C17.6591 20.13 17.2053 20.9242 16.1842 20.6973C16.8649 20.13 17.4322 19.6762 17.886 19.3359C17.6591 18.8821 17.2053 18.4283 17.2053 18.088C17.2053 17.5207 16.8649 17.1804 16.1842 16.84ZM9.60425 22.7393C9.60425 22.8528 9.60425 22.8528 9.60425 22.9662C8.81012 22.9662 8.12943 22.9662 7.33529 22.9662C7.67564 23.7604 8.69667 24.2141 9.4908 23.9873C10.3984 23.7604 11.306 23.42 12.1001 23.0797C12.327 22.9662 12.4405 22.8528 12.5539 22.6259C12.8942 21.8317 12.5539 20.9242 11.7598 20.6973C10.1715 20.0166 9.49081 19.109 9.7177 17.2938C9.7177 17.1804 9.7177 16.9535 9.7177 16.84C9.03701 16.84 8.58322 17.2938 8.69667 18.088C8.69667 18.5417 8.69667 18.9955 8.12943 19.2224C8.58322 19.7897 9.03701 20.3569 9.4908 20.9242C8.46977 21.151 8.01598 20.2435 7.33529 20.0166C7.44874 20.3569 7.56219 20.6973 7.78908 20.9242C8.01598 21.151 8.35633 21.3779 8.58322 21.4914C8.81012 21.7183 9.15046 21.8317 9.37736 22.0586V22.1721C8.69667 22.0586 8.01598 21.8317 7.22184 21.6048C7.67564 22.6259 8.81012 22.2855 9.60425 22.7393ZM10.7387 17.7476C10.6253 17.7476 10.6253 17.7476 10.5118 17.7476C10.5118 18.088 10.2849 18.4283 10.3984 18.6552C10.5118 18.8821 10.8522 19.109 11.0791 19.109C12.2136 19.2224 13.348 19.109 14.4825 19.109C14.9363 19.109 15.2767 18.9955 15.3901 18.6552C15.3901 18.3148 15.2767 17.9745 15.0498 17.5207C14.4825 18.8821 13.4615 18.6552 12.5539 18.6552C11.9867 18.7686 11.0791 18.7686 10.7387 17.7476ZM7.67564 13.3231C7.56219 13.3231 7.56219 13.3231 7.44874 13.4366C7.44874 13.6635 7.33529 13.8904 7.33529 14.1173C7.33529 14.5711 7.67564 14.9114 8.01598 14.9114C8.24288 14.9114 8.46977 14.4576 8.69667 14.2307C8.46977 13.8904 8.12943 13.55 7.67564 13.3231ZM18.2263 13.55C17.6591 13.4366 17.2053 13.6635 16.9784 14.1173C16.8649 14.2307 16.9784 14.6845 17.2053 14.798C17.4322 14.9114 17.7725 14.9114 17.886 14.798C18.3398 14.4576 18.4532 14.0038 18.2263 13.55Z" fill="#C22C27"/>
<path d="M91.5141 15.2514C90.493 15.7052 89.472 16.159 88.451 16.4993C88.3375 16.3859 88.2241 16.159 88.2241 16.0455C87.0896 14.1169 84.5938 14.0035 83.2324 15.8186C82.0979 17.2935 82.0979 19.5624 83.1189 21.1507C84.0265 22.5121 85.7282 22.9659 87.0896 22.2852C87.8837 21.8314 88.3375 21.2641 88.2241 20.3566C87.43 20.3566 86.5224 20.3566 85.7282 20.3566C85.7282 19.449 85.7282 18.6548 85.7282 17.8607C87.8837 17.8607 89.9258 17.8607 91.9679 17.8607C92.3082 22.2852 89.472 25.6886 84.7072 25.1214C81.871 24.781 79.8289 23.0793 79.1483 20.5834C78.3541 17.6338 79.2617 14.6842 81.4172 13.0959C84.2534 10.9404 88.5644 11.3942 90.6065 14.0035C91.0603 14.3438 91.2872 14.7976 91.5141 15.2514Z" fill="#C22C27"/>
<path d="M48.5166 24.6684C48.5166 20.4708 48.5166 16.3867 48.5166 12.1891C50.1049 12.1891 51.6931 12.0756 53.2814 12.1891C54.189 12.1891 55.0966 12.416 55.8907 12.7563C58.5 13.8908 59.9748 16.8405 59.2942 19.6767C58.7269 22.5129 56.2311 24.5549 53.3949 24.6684C51.8066 24.6684 50.2183 24.6684 48.5166 24.6684ZM51.8066 21.9456C53.5083 22.286 54.9831 21.6053 55.7773 20.4708C56.5714 19.2229 56.458 17.2943 55.5504 16.1598C54.7562 15.1387 53.0545 14.5715 51.8066 15.0253C51.8066 17.2943 51.8066 19.5632 51.8066 21.9456Z" fill="#C22C27"/>
<path d="M113.296 24.6673C111.934 24.6673 110.8 24.6673 109.552 24.6673C109.439 24.6673 109.212 24.4404 109.098 24.2135C108.304 22.9656 107.51 21.7176 106.716 20.4697C106.602 20.2428 106.489 20.1294 106.262 19.789C106.262 21.4907 106.262 23.079 106.262 24.6673C105.128 24.6673 104.106 24.6673 103.085 24.6673C103.085 20.5831 103.085 16.3856 103.085 12.188C104.22 12.188 105.354 12.188 106.375 12.188C107.51 12.188 108.644 12.188 109.665 12.4149C111.367 12.8687 112.161 14.1166 112.161 15.8183C112.161 17.7469 111.367 18.768 109.665 19.4487C109.552 19.4487 109.552 19.4487 109.439 19.5621C110.686 21.2638 111.934 22.9656 113.296 24.6673ZM106.149 17.8604C106.489 17.8604 106.602 17.8604 106.829 17.8604C107.056 17.8604 107.396 17.8604 107.623 17.7469C108.304 17.6335 108.758 17.0663 108.758 16.3856C108.758 15.5914 108.531 15.0242 107.737 14.7973C107.283 14.6838 106.829 14.6838 106.375 14.5704C106.262 14.5704 106.035 14.7973 106.035 14.7973C106.149 15.8183 106.149 16.8394 106.149 17.8604Z" fill="#C22C27"/>
<path d="M93.7822 12.188C96.1646 12.188 98.4336 12.188 100.816 12.188C100.816 13.0956 100.816 13.8897 100.816 14.7973C99.5681 14.7973 98.3202 14.7973 97.0722 14.7973C97.0722 15.5914 97.0722 16.2721 97.0722 16.9528C98.3202 16.9528 99.4546 16.9528 100.703 16.9528C100.703 17.8604 100.703 18.6545 100.703 19.6756C99.4546 19.6756 98.3202 19.6756 97.0722 19.6756C97.0722 20.4697 97.0722 21.1504 97.0722 21.9445C98.3202 21.9445 99.5681 21.9445 100.816 21.9445C100.816 22.8521 100.816 23.7597 100.816 24.6673C98.5471 24.6673 96.1646 24.6673 93.8957 24.6673C93.7822 20.5831 93.7822 16.3856 93.7822 12.188Z" fill="#C22C27"/>
<path d="M73.0221 12.3022C73.0221 13.2098 73.0221 14.004 73.0221 14.9116C72.1145 14.9116 71.3204 14.9116 70.4128 14.9116C70.4128 18.2015 70.4128 21.3781 70.4128 24.6681C69.2783 24.6681 68.2573 24.6681 67.2363 24.6681C67.2363 21.4915 67.2363 18.2015 67.2363 14.9116C66.3287 14.9116 65.4211 14.9116 64.627 14.9116C64.627 14.004 64.627 13.2098 64.627 12.3022C67.2363 12.3022 70.0725 12.3022 73.0221 12.3022Z" fill="#C22C27"/>
<path d="M77.4465 24.6681C76.4255 24.6681 75.4045 24.6681 74.27 24.6681C74.27 20.584 74.27 16.3864 74.27 12.3022C75.291 12.3022 76.3121 12.3022 77.4465 12.3022C77.4465 16.3864 77.4465 20.4705 77.4465 24.6681Z" fill="#C22C27"/>
<path d="M38.306 24.6673C36.9447 24.6673 35.8102 24.6673 34.5622 24.6673C34.4488 24.6673 34.2219 24.4404 34.1085 24.2135C33.3143 22.9656 32.5202 21.7176 31.726 20.4697C31.6126 20.2428 31.4991 20.1294 31.2723 19.789C31.2723 21.4907 31.2723 23.079 31.2723 24.6673C30.1378 24.6673 29.1167 24.6673 28.0957 24.6673C28.0957 20.5831 28.0957 16.3856 28.0957 12.188C29.2302 12.188 30.3647 12.188 31.3857 12.188C32.5202 12.188 33.6547 12.188 34.6757 12.4149C36.3774 12.8687 37.1715 14.1166 37.1715 15.8183C37.1715 17.7469 36.3774 18.768 34.6757 19.4487C34.5622 19.4487 34.5622 19.4487 34.4488 19.5621C35.8102 21.2638 37.0581 22.9656 38.306 24.6673ZM31.1588 17.8604C31.4991 17.8604 31.6126 17.8604 31.8395 17.8604C32.0664 17.8604 32.4067 17.8604 32.6336 17.7469C33.3143 17.6335 33.7681 17.0663 33.7681 16.3856C33.7681 15.5914 33.5412 15.0242 32.7471 14.7973C32.2933 14.6838 31.8395 14.6838 31.3857 14.5704C31.2723 14.5704 31.0454 14.7973 31.0454 14.7973C31.1588 15.8183 31.1588 16.8394 31.1588 17.8604Z" fill="#C22C27"/>
<path d="M39.4409 12.188C41.8233 12.188 44.0923 12.188 46.4747 12.188C46.4747 13.0956 46.4747 13.8897 46.4747 14.7973C45.2268 14.7973 43.9788 14.7973 42.7309 14.7973C42.7309 15.5914 42.7309 16.2721 42.7309 16.9528C43.9788 16.9528 45.1133 16.9528 46.3613 16.9528C46.3613 17.8604 46.3613 18.6545 46.3613 19.6756C45.1133 19.6756 43.9788 19.6756 42.7309 19.6756C42.7309 20.4697 42.7309 21.1504 42.7309 21.9445C43.9788 21.9445 45.2268 21.9445 46.4747 21.9445C46.4747 22.8521 46.4747 23.7597 46.4747 24.6673C44.2057 24.6673 41.8233 24.6673 39.5544 24.6673C39.4409 20.5831 39.4409 16.3856 39.4409 12.188Z" fill="#C22C27"/>
</svg>
