<svg width="49" height="36" viewBox="0 0 1024 744" fill="none" xmlns="http://www.w3.org/2000/svg">
<path d="M512.346 0.284483C514.639 0.28561 514.639 0.28561 516.978 0.286759C540.649 0.340217 563.385 1.30855 586.592 6.32782C588.016 6.63119 589.44 6.93456 590.907 7.24713C620.658 13.7718 648.996 23.4023 676.379 36.7172C677.465 37.242 678.55 37.7668 679.669 38.3076C709.375 52.8439 737.112 71.7976 761.342 94.3069C764.366 97.1082 767.441 99.8194 770.569 102.503C779.991 110.714 788.541 119.687 796.555 129.266C797.124 129.94 797.693 130.614 798.28 131.307C817.015 153.602 832.94 177.987 846.283 203.858C846.763 204.782 847.242 205.705 847.737 206.657C861.428 233.365 870.45 261.987 877.333 291.12C877.834 293.649 877.834 293.649 879.435 295.026C883.745 295.136 888.024 295.156 892.333 295.118C893.688 295.111 895.042 295.105 896.437 295.098C899.389 295.083 902.34 295.066 905.292 295.046C909.958 295.016 914.625 294.996 919.291 294.98C932.563 294.933 945.835 294.876 959.106 294.79C967.213 294.738 975.32 294.706 983.427 294.687C986.524 294.676 989.62 294.657 992.716 294.631C997.042 294.594 1001.37 294.583 1005.69 294.578C1006.98 294.561 1008.27 294.544 1009.6 294.526C1011.36 294.532 1011.36 294.532 1013.16 294.537C1014.19 294.532 1015.21 294.526 1016.26 294.52C1019.72 295.172 1020.95 296.435 1023.09 299.17C1023.61 302.053 1023.61 302.053 1023.61 305.408C1023.62 306.667 1023.63 307.925 1023.63 309.222C1023.62 311.255 1023.62 311.255 1023.6 313.329C1023.6 314.724 1023.6 316.119 1023.6 317.555C1023.59 320.505 1023.58 323.454 1023.56 326.403C1023.53 330.924 1023.53 335.443 1023.54 339.963C1023.53 342.826 1023.52 345.69 1023.51 348.553C1023.51 349.909 1023.51 351.264 1023.51 352.661C1023.5 353.919 1023.49 355.178 1023.47 356.474C1023.47 357.581 1023.46 358.688 1023.45 359.829C1023.09 362.712 1023.09 362.712 1020.33 366.856C1016.35 368.183 1013.87 368.398 1009.74 368.372C1008.51 368.368 1007.27 368.363 1006 368.359C1004.72 368.347 1003.44 368.335 1002.11 368.323C1000.17 368.314 1000.17 368.314 998.179 368.305C994.972 368.288 991.766 368.266 988.56 368.237C988.57 369.387 988.579 370.538 988.588 371.723C988.671 382.556 988.734 393.39 988.775 404.223C988.797 409.793 988.826 415.363 988.873 420.933C988.918 426.306 988.943 431.68 988.954 437.054C988.961 439.106 988.976 441.157 988.999 443.209C989.029 446.079 989.033 448.949 989.031 451.82C989.04 453.455 989.049 455.09 989.059 456.775C988.56 460.787 988.561 460.786 986.889 463.387C983.609 465.435 981.404 465.448 977.545 465.445C975.45 465.458 975.45 465.458 973.312 465.471C971.806 465.458 970.299 465.445 968.747 465.432C967.199 465.433 965.651 465.434 964.056 465.434C960.782 465.431 957.507 465.418 954.233 465.395C949.212 465.362 944.193 465.366 939.172 465.376C935.994 465.368 932.816 465.358 929.638 465.346C928.131 465.347 926.625 465.348 925.073 465.35C923.676 465.337 922.279 465.323 920.84 465.31C919.61 465.304 918.38 465.297 917.113 465.291C913.968 464.93 913.968 464.93 909.824 462.168C909.326 458.27 909.326 458.27 909.354 453.232C909.353 452.315 909.353 451.399 909.352 450.454C909.355 447.419 909.387 444.385 909.42 441.351C909.428 439.249 909.433 437.147 909.438 435.045C909.453 429.508 909.494 423.972 909.54 418.435C909.582 412.788 909.601 407.14 909.622 401.492C909.667 390.407 909.739 379.322 909.824 368.237C901.619 368.237 893.414 368.237 884.96 368.237C885.009 370.361 885.057 372.486 885.106 374.674C885.954 428.281 874.063 481.645 850.427 529.853C849.822 531.09 849.216 532.328 848.593 533.603C836.014 559.04 821.267 582.366 803.462 604.445C801.846 606.486 801.846 606.486 800.197 608.568C784.125 628.264 765.803 647.186 745.446 662.461C743.795 663.751 742.146 665.043 740.498 666.335C689.372 706.035 629.472 729.504 565.872 739.816C563.588 740.202 563.588 740.202 561.257 740.595C545.805 742.958 530.455 743.185 514.849 743.183C512.763 743.186 512.763 743.186 510.635 743.189C485.59 743.16 461.911 740.906 437.408 735.672C436.091 735.399 434.774 735.126 433.417 734.845C425.432 733.151 417.602 731.102 409.782 728.765C407.884 728.203 407.884 728.203 405.948 727.629C366.593 715.742 329.724 697.738 296.512 673.512C295.341 672.658 295.341 672.658 294.146 671.787C268.451 652.873 244.187 631.145 224.683 605.826C223.297 604.081 221.911 602.336 220.523 600.593C193.376 566.162 154.235 510.463 154.235 464.93C152.918 464.93 151.6 464.93 150.243 464.93C135.458 464.93 120.673 464.93 105.888 464.93C103.513 464.951 101.138 464.973 98.7633 464.996C90.6838 465.071 82.6043 465.119 74.5245 465.158C71.0302 465.179 67.5359 465.207 64.0418 465.243C59.0116 465.293 53.982 465.317 48.9516 465.335C47.3846 465.357 45.8176 465.378 44.2031 465.4C42.7511 465.4 41.299 465.401 39.803 465.401C37.8847 465.415 37.8847 465.415 35.9276 465.429C32.6778 464.931 32.6778 464.93 30.3112 463.526C27.54 459.255 26.9635 454.575 26.1222 449.64C25.8113 447.934 25.8112 447.934 25.494 446.193C24.81 442.418 24.1494 438.639 23.4887 434.86C23.0138 432.213 22.5374 429.566 22.0596 426.92C20.8006 419.924 19.5612 412.924 18.326 405.924C17.0861 398.916 15.8286 391.912 14.5721 384.908C13.1499 376.972 11.7296 369.037 10.3219 361.099C10.1061 359.883 9.8902 358.666 9.66782 357.413C9.241 355.004 8.81535 352.594 8.39086 350.185C7.26049 343.79 6.09308 337.406 4.87809 331.027C4.62185 329.666 4.3656 328.306 4.1016 326.904C3.61128 324.307 3.11315 321.712 2.6056 319.119C1.24691 311.885 0.410689 305.154 0.907136 297.789C3.6698 295.026 3.66982 295.026 6.29648 294.687C7.9123 294.69 7.91228 294.69 9.56075 294.694C11.4145 294.689 11.4145 294.689 13.3056 294.683C14.6648 294.693 16.0241 294.703 17.4245 294.713C18.853 294.712 20.2815 294.712 21.7533 294.712C26.4921 294.714 31.2306 294.735 35.9693 294.757C39.2481 294.762 42.527 294.766 45.8058 294.769C54.4489 294.779 63.0918 294.806 71.7349 294.837C80.5492 294.865 89.3635 294.878 98.1778 294.892C115.482 294.921 132.787 294.968 150.091 295.026C150.303 293.275 150.515 291.524 150.734 289.72C151.242 285.527 151.935 281.547 153.08 277.474C153.399 276.336 153.718 275.199 154.047 274.027C154.567 272.242 154.567 272.242 155.098 270.421C155.469 269.151 155.839 267.881 156.22 266.573C172.377 212.17 200.189 163.232 238.421 121.362C240.853 118.666 243.182 115.923 245.489 113.122C249.133 108.843 253.151 105.245 257.436 101.618C259.679 99.6734 261.869 97.666 264.019 95.6181C284.574 76.0472 307.766 60.3045 332.427 46.3865C333.396 45.8283 334.364 45.27 335.362 44.6949C372.571 23.3356 414.551 10.4185 456.747 3.56515C458.325 3.30696 459.902 3.04877 461.527 2.78275C478.429 0.336039 495.292 0.253 512.346 0.284483Z" fill="#FCF9FA"/>
<path d="M512.691 25.4077C513.736 25.4095 514.781 25.4112 515.857 25.4131C612.623 25.7222 699.014 67.2096 766.65 135.023C773.434 141.936 779.614 149.201 785.504 156.893C786.084 157.644 786.663 158.394 787.26 159.167C815.388 195.764 835.512 236.435 848.441 280.695C848.789 281.881 849.137 283.067 849.495 284.289C851.176 290.328 852.208 295.6 851.808 301.933C850.656 301.467 849.504 301 848.317 300.52C845.985 299.596 845.985 299.596 843.606 298.653C842.084 298.044 840.561 297.435 838.993 296.807C826.967 292.643 816.085 291.867 803.375 292.005C801.811 292.006 800.246 292.007 798.635 292.008C790.451 292.051 782.544 292.407 774.453 293.645C774.167 292.606 773.88 291.566 773.585 290.494C769.859 277.651 764.887 265.695 759.259 253.587C758.504 251.945 757.749 250.303 756.971 248.612C725.984 183.861 667.38 137.432 600.831 113.164C587.191 108.473 573.143 105.554 558.965 103.021C557.966 102.838 556.967 102.655 555.937 102.466C522.511 96.6638 484.072 97.6841 451.221 105.784C449.825 106.126 448.429 106.467 446.99 106.819C403.507 117.906 364.347 139.379 331.045 169.325C330.287 169.993 329.529 170.66 328.748 171.348C318.318 180.532 309.08 189.987 300.656 201.096C300.084 201.826 299.511 202.557 298.922 203.309C283.797 222.611 271.619 243.69 261.892 266.191C261.398 267.335 260.904 268.478 260.394 269.656C256.953 277.935 254.494 286.338 252.309 295.027C226.889 296.091 201.756 296.679 176.336 295.027C188.558 229.896 224.16 174.113 268.885 126.504C269.733 125.598 270.58 124.691 271.454 123.758C277.152 117.856 283.4 112.723 289.794 107.592C292.3 105.571 294.782 103.52 297.23 101.43C356.509 51.0737 435.514 25.2745 512.691 25.4077Z" fill="#D62E2D"/>
<path d="M208.107 325.416C208.563 325.416 209.019 325.416 209.488 325.416C209.944 371 210.4 416.584 210.87 463.549C226.368 464.005 241.867 464.461 257.835 464.931C259.658 469.29 261.482 473.649 263.36 478.14C291.994 545.217 345.357 597.449 413.042 624.921C479.947 650.908 555.752 649.318 621.744 621.197C638.534 613.785 654.625 605.619 669.472 594.776C670.842 593.798 672.211 592.821 673.622 591.814C686.082 582.727 697.266 572.525 708.15 561.624C709.691 560.179 709.691 560.179 711.263 558.705C738.667 532.599 756.047 498.125 770.31 463.549C774.133 464.153 777.934 464.784 781.714 465.619C790.185 467.479 798.248 468.224 806.915 468.211C808.216 468.213 809.517 468.215 810.857 468.217C823.593 468.028 835.433 465.551 847.664 462.168C840.764 497.531 822.277 533.487 802.08 563.005C801.522 563.832 800.964 564.658 800.388 565.509C750.583 638.785 673.249 691.104 586.592 709.427C585.348 709.692 584.104 709.958 582.823 710.231C579.132 711.013 575.439 711.779 571.743 712.535C570.642 712.76 569.541 712.986 568.406 713.218C567.349 713.427 566.292 713.636 565.203 713.851C564.296 714.032 563.388 714.212 562.453 714.398C552.592 715.965 542.866 716.563 532.888 716.614C531.615 716.624 530.342 716.633 529.031 716.643C449.221 717.116 375.58 699.205 310.326 651.411C309.534 650.836 308.743 650.261 307.927 649.669C295.974 640.936 285.059 631.292 274.411 621.021C273.521 620.169 272.632 619.317 271.715 618.439C259.042 606.249 247.51 593.764 237.115 579.581C236.235 578.402 236.235 578.402 235.337 577.198C226.333 565.119 218.35 552.594 210.87 539.523C209.963 537.972 209.057 536.421 208.123 534.823C180.48 485.575 180.48 485.575 180.48 463.549C182.532 462.182 182.532 462.182 184.624 460.787C185.87 456.437 185.87 456.437 186.599 451.204C186.759 450.233 186.918 449.262 187.082 448.261C187.602 445.072 188.099 441.879 188.596 438.685C189.317 434.224 190.049 429.764 190.781 425.304C190.962 424.192 191.143 423.079 191.329 421.934C192.832 412.74 194.6 403.612 196.452 394.483C199.818 377.68 202.2 360.759 204.5 343.783C204.639 342.767 204.778 341.751 204.922 340.704C205.301 337.924 205.673 335.142 206.045 332.36C206.726 328.179 206.726 328.179 208.107 325.416Z" fill="#D72E2E"/>
<path d="M655.275 444.076C657.559 444.1 657.559 444.1 659.889 444.124C661.415 444.137 662.941 444.149 664.513 444.162C665.694 444.178 666.874 444.194 668.091 444.211C668.358 445.375 668.625 446.54 668.9 447.739C669.26 449.253 669.619 450.767 669.99 452.326C670.519 454.586 670.519 454.586 671.058 456.891C671.943 460.93 671.943 460.93 674.997 463.549C678.884 464.064 678.884 464.064 683.426 464.121C685.099 464.175 686.773 464.228 688.498 464.283C690.253 464.326 692.009 464.369 693.818 464.413C695.584 464.466 697.351 464.519 699.171 464.574C703.545 464.705 707.919 464.823 712.293 464.931C688.027 517.123 645.161 557.089 591.081 577.164C537.138 596.47 476.999 596.837 424.372 572.696C418.95 570.1 413.662 567.29 408.4 564.387C406.927 563.591 405.455 562.795 403.938 561.975C388.263 553.195 374.444 542.191 361.435 529.853C360.197 528.689 358.96 527.524 357.684 526.324C340.267 509.469 326.081 489.726 315.851 467.693C315.851 466.782 315.851 465.87 315.851 464.931C317.837 464.9 317.837 464.9 319.864 464.87C324.772 464.79 329.678 464.683 334.584 464.568C336.709 464.522 338.834 464.483 340.959 464.452C344.012 464.406 347.062 464.334 350.114 464.256C351.543 464.243 351.543 464.243 353.001 464.229C355.974 464.184 355.974 464.184 360.053 463.549C360.965 462.182 361.877 460.814 362.816 459.405C363.728 459.405 364.639 459.405 365.579 459.405C366.49 460.773 367.402 462.14 368.341 463.549C372.21 463.88 375.792 463.959 379.656 463.868C381.983 463.865 384.309 463.864 386.636 463.865C390.298 463.845 393.958 463.809 397.619 463.734C420.633 463.326 420.633 463.326 428.159 470.159C429.881 472.082 431.585 474.021 433.264 475.981C446.35 485.983 461.871 493.056 477.467 498.083C478.752 498.501 480.038 498.919 481.362 499.351C515.997 508.981 553.226 499.845 583.851 482.704C590.783 478.367 598.42 473.413 603.485 466.886C607.119 463.981 610.101 464.375 614.699 464.321C616.418 464.284 618.137 464.248 619.908 464.21C621.706 464.192 623.504 464.173 625.356 464.154C628.912 464.106 632.468 464.047 636.023 463.976C637.603 463.958 639.182 463.941 640.81 463.924C644.806 463.935 644.806 463.935 647.371 460.787C648.261 457.161 648.261 457.161 648.838 453.103C650.23 444.257 650.23 444.257 655.275 444.076Z" fill="#D72D2C"/>
<path d="M9.19434 301.933C29.2513 301.933 49.3083 301.933 69.973 301.933C74.8816 358.587 74.8816 358.587 74.117 379.288C75.0287 379.288 75.9404 379.288 76.8797 379.288C76.8724 377.975 76.8652 376.662 76.8577 375.31C76.7345 350.8 76.7887 326.411 78.261 301.933C96.9504 301.933 115.64 301.933 134.896 301.933C136.191 328.092 136.191 328.092 136.59 336.272C136.699 338.45 136.809 340.628 136.919 342.807C136.998 344.456 136.998 344.456 137.078 346.139C137.134 347.231 137.19 348.323 137.248 349.448C137.294 350.378 137.34 351.307 137.387 352.265C137.796 357.602 138.449 362.917 139.04 368.237C140.407 346.357 141.775 324.476 143.184 301.933C163.696 301.933 184.209 301.933 205.344 301.933C202.154 327.448 202.154 327.448 200.595 337.287C200.422 338.394 200.248 339.502 200.07 340.643C199.709 342.936 199.347 345.229 198.983 347.521C198.432 351.005 197.889 354.489 197.347 357.974C196.991 360.23 196.635 362.485 196.279 364.741C196.12 365.762 195.962 366.784 195.799 367.837C194.891 373.501 193.679 378.974 192.239 384.532C190.766 390.859 189.88 397.298 188.892 403.715C188.403 406.82 187.915 409.925 187.427 413.031C186.668 417.899 185.91 422.768 185.153 427.637C184.419 432.355 183.677 437.071 182.935 441.788C182.709 443.257 182.483 444.726 182.25 446.239C181.932 448.26 181.932 448.26 181.607 450.321C181.422 451.511 181.237 452.702 181.047 453.929C180.48 456.642 180.48 456.642 179.098 458.024C177.021 458.152 174.937 458.186 172.855 458.181C170.864 458.18 170.864 458.18 168.833 458.18C167.39 458.173 165.946 458.166 164.459 458.159C162.99 458.157 161.52 458.155 160.006 458.153C155.29 458.145 150.575 458.128 145.86 458.11C142.672 458.103 139.484 458.097 136.296 458.091C128.462 458.076 120.628 458.053 112.794 458.024C112.193 450.192 111.603 442.36 111.024 434.527C110.826 431.873 110.625 429.22 110.421 426.566C109.137 409.85 108.35 393.292 108.65 376.525C107.739 376.525 106.827 376.525 105.888 376.525C105.895 377.673 105.902 378.822 105.91 380.005C105.933 384.322 105.951 388.64 105.964 392.957C105.974 395.722 105.991 398.487 106.009 401.252C106.014 403.019 106.018 404.786 106.023 406.607C106.03 408.22 106.037 409.833 106.044 411.495C105.864 417.355 105.154 423.189 104.506 429.016C104.05 438.588 103.595 448.161 103.125 458.024C80.7888 458.024 58.4527 458.024 35.4397 458.024C34.528 452.098 33.6163 446.172 32.677 440.066C31.6574 434.837 31.6574 434.837 30.5991 429.615C29.3662 423.562 28.303 417.479 27.2164 411.398C26.9665 410.007 26.7166 408.615 26.459 407.182C25.6525 402.69 24.8479 398.198 24.0437 393.705C22.9311 387.493 21.8179 381.28 20.7036 375.068C20.4287 373.535 20.1538 372.002 19.8705 370.422C18.2177 361.224 16.5361 352.032 14.8222 342.844C14.4314 340.739 14.0406 338.634 13.6499 336.529C12.9458 332.736 12.2312 328.946 11.5105 325.156C11.2002 323.485 10.8899 321.813 10.5703 320.09C10.3022 318.671 10.0341 317.251 9.75786 315.789C9.19434 311.602 9.19434 311.602 9.19434 301.933Z" fill="#020202"/>
<path d="M297.894 301.933C321.141 301.933 344.389 301.933 368.342 301.933C370.066 306.245 371.52 309.976 372.664 314.377C372.936 315.414 373.208 316.451 373.488 317.519C373.771 318.619 374.055 319.718 374.347 320.851C374.647 321.996 374.946 323.142 375.254 324.322C376.206 327.966 377.152 331.612 378.097 335.258C379.048 338.913 380.001 342.568 380.955 346.223C381.547 348.493 382.137 350.764 382.726 353.035C383.816 357.225 384.929 361.365 386.299 365.474C386 363.781 385.701 362.088 385.392 360.343C382.141 340.672 381.821 321.88 382.155 301.933C401.756 301.933 421.357 301.933 441.552 301.933C441.552 353.443 441.552 404.953 441.552 458.024C418.304 458.024 395.057 458.024 371.104 458.024C364.55 436.722 364.55 436.722 362.126 427.462C361.84 426.378 361.555 425.294 361.261 424.177C358.133 412.067 355.604 399.836 353.147 387.576C353.861 394.595 354.778 401.49 355.985 408.441C357.594 418.692 357.599 428.764 357.464 439.117C357.407 445.356 357.35 451.595 357.291 458.024C337.69 458.024 318.089 458.024 297.894 458.024C297.894 406.514 297.894 355.004 297.894 301.933Z" fill="#030103"/>
<path d="M621.125 301.933C646.652 301.933 672.179 301.933 698.48 301.933C705.83 323.985 712.392 346.187 718.335 368.658C720.952 378.486 723.78 388.223 726.797 397.936C730.428 409.645 733.79 421.41 736.984 433.246C737.397 434.767 737.809 436.287 738.234 437.854C738.615 439.284 738.997 440.714 739.391 442.187C739.727 443.446 740.064 444.705 740.41 446.002C741.357 449.969 742.012 454.001 742.682 458.024C721.258 458.024 699.833 458.024 677.76 458.024C673.616 442.829 673.616 442.829 673.616 437.304C664.499 437.304 655.382 437.304 645.989 437.304C645.562 439.953 645.134 442.603 644.694 445.333C643.981 449.751 643.261 453.775 641.845 458.024C620.876 458.024 599.908 458.024 578.304 458.024C579.179 451.897 580.018 446.542 581.595 440.671C581.977 439.245 582.359 437.82 582.753 436.351C583.371 434.088 583.371 434.088 584.002 431.778C584.432 430.191 584.862 428.604 585.305 426.968C588.451 415.464 591.859 404.058 595.396 392.669C598.914 381.255 602 369.743 605.052 358.196C608.161 346.52 611.574 334.959 615.173 323.425C615.551 322.212 615.928 320.999 616.317 319.75C616.646 318.706 616.976 317.661 617.315 316.585C618.724 311.739 619.901 306.829 621.125 301.933Z" fill="#040204"/>
<path d="M806.742 297.444C808.224 297.415 809.705 297.387 811.232 297.358C827.648 297.278 843.6 301.643 856.103 312.827C865.473 323.018 870.019 333.383 869.852 347.258C869.839 348.606 869.827 349.954 869.814 351.343C869.798 352.36 869.782 353.376 869.766 354.424C862.169 354.56 854.574 354.661 846.977 354.727C844.392 354.755 841.807 354.793 839.223 354.841C835.509 354.908 831.797 354.939 828.083 354.963C826.926 354.992 825.769 355.02 824.577 355.05C821.309 355.051 821.309 355.051 815.894 354.424C813.255 351.661 813.255 351.661 811.75 348.899C808.602 348.233 808.602 348.233 805.275 348.553C803.6 348.628 803.6 348.628 801.891 348.704C801.042 348.768 800.193 348.832 799.318 348.899C800.001 351.634 800.001 351.634 800.699 354.424C801.673 354.646 802.646 354.868 803.65 355.097C808.137 356.127 812.619 357.175 817.102 358.223C818.634 358.572 820.165 358.921 821.743 359.28C838.253 363.165 855.953 367.991 866.14 382.569C867.393 384.672 868.606 386.801 869.766 388.957C870.236 389.791 870.706 390.624 871.19 391.482C876.156 402.059 875.609 416.444 872.356 427.462C867.216 440.062 859.771 448.876 847.664 455.261C824.078 464.477 795.413 466.27 771.691 456.643C767.246 454.683 763.258 452.49 759.259 449.736C758.296 449.073 757.332 448.411 756.34 447.729C745.33 439.186 739.416 425.992 737.158 412.44C737.051 408.752 737.119 405.08 737.158 401.389C744.95 401.219 752.742 401.093 760.537 401.01C763.188 400.975 765.84 400.928 768.492 400.868C772.301 400.784 776.109 400.745 779.92 400.715C781.107 400.679 782.294 400.643 783.517 400.607C786.635 400.605 789.382 400.649 792.411 401.389C795.091 404.798 795.091 404.798 796.555 408.296C799.878 409.957 802.011 409.816 805.706 409.764C806.835 409.751 807.964 409.739 809.127 409.726C809.993 409.71 810.858 409.694 811.75 409.677C812.433 406.942 812.433 406.942 813.131 404.152C804.752 400.051 796.452 398.488 787.317 396.814C771.189 393.623 756.575 390.283 745.904 376.73C738.357 364.558 737.014 349.016 738.539 335.085C743.018 321.423 750.784 311.546 763.489 304.955C777.854 298.347 791.124 297.518 806.742 297.444Z" fill="#030203"/>
<path d="M508.737 152.285C512.361 152.318 515.984 152.313 519.608 152.304C532.08 152.325 543.961 152.887 556.203 155.512C557.184 155.692 558.165 155.871 559.176 156.056C599.985 163.535 638.993 185.545 668.091 214.909C668.091 215.365 668.091 215.821 668.091 216.291C652.592 216.291 637.094 216.291 621.126 216.291C620.67 211.732 620.214 207.174 619.744 202.477C603.334 202.477 586.924 202.477 570.016 202.477C569.561 218.432 569.105 234.386 568.635 250.824C567.267 250.824 565.9 250.824 564.491 250.824C564.463 251.964 564.434 253.103 564.405 254.277C562.284 262.194 557.31 267.644 550.473 272.094C541.944 276.314 534.126 277.513 525.015 274.517C514.896 270.048 509.801 263.778 504.576 254.277C503.344 249.352 503.54 244.845 503.712 239.773C502.801 239.773 501.889 239.773 500.95 239.773C501.165 238.956 501.381 238.139 501.603 237.297C501.871 236.205 502.14 235.114 502.417 233.989C502.69 232.915 502.962 231.842 503.243 230.735C503.768 226.942 503.156 224.148 502.331 220.435C499.927 220.446 499.927 220.446 497.473 220.457C491.522 220.482 485.57 220.498 479.618 220.511C477.043 220.518 474.468 220.527 471.892 220.539C468.189 220.556 464.486 220.564 460.783 220.57C459.633 220.577 458.483 220.584 457.299 220.591C456.221 220.591 455.142 220.591 454.032 220.592C453.087 220.595 452.142 220.598 451.169 220.601C448.276 220.424 445.735 219.778 442.934 219.053C429.172 217.714 429.172 217.714 416.516 221.989C415.205 222.843 413.895 223.698 412.544 224.579C408.918 223.715 408.918 223.715 405.638 221.816C399.999 219.091 395.387 218.681 389.148 218.708C387.512 218.701 385.875 218.694 384.189 218.687C379.391 219.054 375.579 220.095 371.104 221.816C369.485 216.068 368.784 211.17 369.723 205.24C374.33 199.359 380.106 195.457 386.299 191.427C388.441 189.979 388.441 189.979 390.626 188.502C426.443 165.432 466.02 151.872 508.737 152.285Z" fill="#D82D2E"/>
<path d="M469.179 301.933C508.837 301.933 548.495 301.933 589.355 301.933C589.355 320.623 589.355 339.312 589.355 358.568C571.121 358.568 552.888 358.568 534.101 358.568C534.101 360.847 534.101 363.126 534.101 365.474C549.6 365.474 565.098 365.474 581.067 365.474C581.067 381.885 581.067 398.295 581.067 415.202C565.568 415.202 550.07 415.202 534.101 415.202C534.101 429.333 534.101 443.465 534.101 458.024C512.677 458.024 491.252 458.024 469.179 458.024C469.179 406.514 469.179 355.004 469.179 301.933Z" fill="#060404"/>
<path d="M882.197 301.933C926.414 301.933 970.63 301.933 1016.19 301.933C1016.19 321.078 1016.19 340.224 1016.19 359.949C1004.79 359.949 993.395 359.949 981.653 359.949C981.653 392.314 981.653 424.678 981.653 458.024C960.229 458.024 938.804 458.024 916.731 458.024C916.731 425.659 916.731 393.294 916.731 359.949C905.335 359.949 893.939 359.949 882.197 359.949C882.197 340.804 882.197 321.659 882.197 301.933Z" fill="#050304"/>
<path d="M873.909 359.949C874.821 359.949 875.732 359.949 876.672 359.949C877.014 360.832 877.355 361.716 877.708 362.626C879.162 365.741 879.162 365.741 882.305 366.343C883.181 366.512 884.057 366.682 884.96 366.856C886.291 423.403 875.431 478.853 850.426 529.853C849.821 531.091 849.216 532.328 848.592 533.603C836.013 559.04 821.266 582.366 803.461 604.445C802.384 605.806 801.306 607.166 800.197 608.568C784.125 628.264 765.802 647.186 745.445 662.461C743.794 663.751 742.145 665.043 740.497 666.335C689.371 706.035 629.472 729.504 565.872 739.816C564.349 740.073 562.825 740.33 561.256 740.595C545.804 742.958 530.454 743.185 514.849 743.183C512.763 743.186 512.763 743.186 510.635 743.189C485.59 743.16 461.91 740.906 437.408 735.672C436.09 735.399 434.773 735.126 433.416 734.845C425.431 733.151 417.601 731.102 409.781 728.765C408.516 728.39 407.251 728.015 405.947 727.629C366.592 715.742 329.723 697.738 296.512 673.512C295.341 672.658 295.341 672.658 294.146 671.787C268.45 652.873 244.186 631.145 224.682 605.827C223.297 604.081 221.91 602.337 220.522 600.593C193.375 566.162 154.234 510.463 154.234 464.931C157.881 464.931 161.528 464.931 165.285 464.931C167.581 470.932 169.777 476.944 171.814 483.039C191.664 542.285 225.541 600.184 274.41 640.36C275.675 641.469 276.939 642.579 278.241 643.721C296.925 660.073 317.218 673.541 338.914 685.561C340.972 686.702 343.026 687.853 345.073 689.014C378.487 707.965 416.192 719.695 453.984 726.003C455.141 726.209 456.299 726.416 457.492 726.628C548.156 742.494 646.289 717.969 721.278 665.569C733.191 656.946 744.348 647.612 755.114 637.597C756.979 635.979 758.85 634.368 760.726 632.763C810.978 588.893 848.054 523.475 862.168 458.456C863.702 451.919 866.189 447.851 870.467 442.743C880.299 429.976 880.598 414.022 879.434 398.627C878.298 395.015 878.298 395.015 876.672 391.893C871.873 382.093 873.492 370.575 873.909 359.949Z" fill="#CE2C2C"/>
<path d="M512.345 0.284483C514.639 0.28561 514.639 0.28561 516.978 0.286759C540.649 0.340217 563.385 1.30855 586.592 6.32782C588.016 6.63119 589.44 6.93456 590.907 7.24713C620.658 13.7718 648.996 23.4023 676.379 36.7172C677.464 37.242 678.55 37.7668 679.668 38.3076C709.375 52.8439 737.112 71.7976 761.342 94.3069C764.366 97.1082 767.44 99.8194 770.568 102.503C779.991 110.714 788.541 119.687 796.555 129.266C797.124 129.94 797.693 130.614 798.279 131.307C817.015 153.602 832.939 177.987 846.283 203.858C846.762 204.782 847.242 205.705 847.736 206.657C859.582 229.766 868.102 254.518 874.773 279.573C875.132 280.908 875.491 282.242 875.861 283.618C876.175 284.856 876.489 286.094 876.812 287.37C877.225 288.993 877.225 288.993 877.647 290.649C878.098 293.975 877.571 295.962 876.672 299.17C876.473 301.663 876.332 304.161 876.235 306.66C876.148 308.783 876.148 308.783 876.06 310.95C875.978 313.153 875.978 313.153 875.895 315.401C875.836 316.892 875.776 318.382 875.714 319.917C875.568 323.592 875.427 327.266 875.291 330.941C874.379 330.485 873.467 330.029 872.528 329.56C871.493 326.07 870.631 322.662 869.852 319.113C869.487 317.518 869.487 317.518 869.114 315.89C867.602 309.165 866.346 302.427 865.19 295.631C855.536 241.025 829.215 190.497 795.173 147.224C793.598 145.221 793.598 145.221 791.99 143.177C775.929 123.514 757.616 104.316 737.157 89.2078C736.265 88.5381 735.372 87.8683 734.453 87.1783C720.644 76.8384 706.596 67.2984 691.573 58.8185C690.014 57.9175 688.454 57.0165 686.847 56.0882C633.594 26.0183 572.392 12.5631 511.655 12.8028C510.357 12.8049 509.058 12.8069 507.721 12.8091C488.153 12.8647 469.101 13.6704 449.84 17.3785C448.17 17.678 448.17 17.678 446.466 17.9835C411.258 24.3357 377.778 36.4929 346.24 53.2932C345.247 53.8164 344.254 54.3397 343.231 54.8789C301.233 77.1166 262.185 108.206 232.971 145.842C232.342 146.642 231.714 147.441 231.067 148.264C200.13 187.728 177.799 232.682 165.285 281.213C163.948 285.832 162.561 290.433 161.141 295.026C157.495 295.026 153.848 295.026 150.091 295.026C150.936 286.508 152.704 278.632 155.098 270.421C155.468 269.151 155.838 267.881 156.22 266.573C172.376 212.17 200.189 163.232 238.421 121.362C240.852 118.666 243.181 115.923 245.489 113.122C249.133 108.843 253.15 105.245 257.436 101.618C259.679 99.6734 261.869 97.666 264.018 95.6181C284.574 76.0472 307.766 60.3045 332.427 46.3865C333.395 45.8283 334.364 45.27 335.362 44.6949C372.571 23.3356 414.551 10.4185 456.747 3.56515C458.324 3.30696 459.902 3.04877 461.527 2.78275C478.429 0.336039 495.292 0.253 512.345 0.284483Z" fill="#CF2C2B"/>
<path d="M216.395 301.933C237.819 301.933 259.243 301.933 281.317 301.933C281.317 353.443 281.317 404.953 281.317 458.024C259.893 458.024 238.468 458.024 216.395 458.024C216.395 406.514 216.395 355.004 216.395 301.933Z" fill="#020103"/>
<path d="M600.405 250.824C604.508 250.824 608.61 250.824 612.837 250.824C614.006 253.567 615.175 256.31 616.345 259.053C619.362 263.272 621.716 264.183 626.651 266.019C632.765 266.591 638.849 266.5 644.986 266.424C647.635 266.415 647.635 266.415 650.339 266.406C655.013 266.387 659.685 266.349 664.359 266.303C669.137 266.261 673.915 266.242 678.693 266.221C688.052 266.176 697.41 266.106 706.768 266.019C712.963 278.014 719.016 289.796 723.085 302.711C723.677 304.538 723.677 304.538 724.281 306.403C731.181 328.266 733.237 349.679 733.1 372.468C733.093 374.474 733.086 376.481 733.081 378.487C733.066 383.359 733.042 388.23 733.013 393.102C730.251 391.72 730.251 391.72 729.33 389.173C729.058 388.06 728.787 386.947 728.508 385.801C728.193 384.543 727.877 383.284 727.553 381.988C727.218 380.613 726.883 379.237 726.538 377.821C723.607 366.186 720.513 354.625 717.128 343.115C716.528 341.071 716.528 341.071 715.915 338.986C713.914 332.205 711.885 325.433 709.838 318.666C709.452 317.387 709.065 316.108 708.667 314.79C707.936 312.375 707.2 309.962 706.46 307.55C704.005 299.472 704.005 299.472 704.005 296.408C702.498 296.442 702.498 296.442 700.961 296.477C691.432 296.675 681.905 296.784 672.374 296.798C667.474 296.809 662.58 296.851 657.682 296.972C623.333 297.78 623.333 297.78 615.313 291.116C611.336 286.865 608.742 282.139 605.931 277.07C602.677 273.695 602.677 273.695 599.456 271.113C598.567 270.377 597.678 269.642 596.763 268.884C596.142 268.394 595.52 267.905 594.88 267.4C596.247 266.489 597.615 265.577 599.024 264.638C599.828 261.288 599.828 261.288 599.974 257.558C600.11 255.673 600.11 255.673 600.249 253.749C600.3 252.784 600.352 251.819 600.405 250.824Z" fill="#D62E2E"/>
<path d="M415.307 264.637C417.881 264.987 420.442 265.434 422.991 265.932C425.087 266.336 425.087 266.336 427.226 266.747C428.307 266.962 429.388 267.178 430.502 267.4C425.225 273.731 419.751 279.636 413.829 285.368C410.989 288.098 410.989 288.098 408.886 291.848C403.959 296.669 399.161 296.001 392.515 295.976C390.169 295.999 387.824 296.033 385.479 296.079C383.926 296.078 383.926 296.078 382.341 296.077C379.006 296.451 376.763 297.516 373.867 299.171C372.955 298.259 372.044 297.347 371.104 296.408C368.316 295.952 368.316 295.952 365.085 295.967C363.84 295.94 362.596 295.913 361.314 295.884C359.969 295.868 358.623 295.852 357.237 295.836C355.861 295.809 354.485 295.782 353.068 295.755C348.663 295.672 344.257 295.608 339.852 295.545C336.87 295.492 333.887 295.438 330.905 295.383C323.585 295.25 316.265 295.132 308.944 295.027C309.623 287.519 311.538 282.314 315.247 275.774C316.132 274.195 317.017 272.615 317.928 270.988C318.951 269.212 318.951 269.212 319.995 267.4C329.154 267.199 338.313 267.003 347.472 266.81C350.575 266.744 353.679 266.677 356.782 266.609C361.292 266.51 365.801 266.414 370.311 266.321C371.784 266.29 373.256 266.259 374.774 266.228C385.277 266.025 395.774 265.97 406.278 266.105C408.827 266.125 411.377 266.079 413.926 266.019C414.382 265.563 414.837 265.107 415.307 264.637Z" fill="#D72D2D"/>
<path d="M545.573 218.946C552.497 222.969 558.116 228.406 561.728 235.629C562.767 245.279 562.672 253.052 556.785 261.022C550.269 268.434 543.433 271.488 533.67 272.235C525.866 272.037 520.402 268.443 514.763 263.256C512.384 260.091 510.914 257.219 509.237 253.587C508.782 252.675 508.326 251.763 507.856 250.824C506.708 243.135 507.172 237.047 511.309 230.363C519.87 219.108 531.608 213.36 545.573 218.946Z" fill="#FCF7F6"/>
<path d="M324.139 209.384C337.814 209.384 351.489 209.384 365.579 209.384C365.579 214.854 365.579 220.324 365.579 225.96C358.741 225.96 351.903 225.96 344.859 225.96C344.859 226.871 344.859 227.783 344.859 228.722C350.785 228.722 356.711 228.722 362.816 228.722C362.816 233.281 362.816 237.839 362.816 242.536C356.89 242.536 350.964 242.536 344.859 242.536C344.859 243.447 344.859 244.359 344.859 245.298C351.696 245.298 358.534 245.298 365.579 245.298C365.579 250.769 365.579 256.239 365.579 261.874C351.903 261.874 338.228 261.874 324.139 261.874C324.139 244.553 324.139 227.231 324.139 209.384Z" fill="#D63331"/>
<path d="M574.16 205.24C587.835 205.24 601.511 205.24 615.6 205.24C615.6 211.622 615.6 218.004 615.6 224.579C609.218 224.579 602.837 224.579 596.261 224.579C596.261 225.946 596.261 227.314 596.261 228.723C601.732 228.723 607.202 228.723 612.837 228.723C612.837 234.193 612.837 239.663 612.837 245.299C607.367 245.299 601.897 245.299 596.261 245.299C596.261 250.313 596.261 255.327 596.261 260.494C588.968 260.494 581.675 260.494 574.16 260.494C574.16 242.26 574.16 224.026 574.16 205.24Z" fill="#D92F30"/>
<path d="M364.198 632.072C372.96 633.656 372.96 633.656 376.63 637.598C376.975 642.001 376.975 642.001 376.63 645.886C377.541 643.606 378.453 641.327 379.392 638.979C380.313 639.353 381.233 639.727 382.182 640.112C387.069 642.046 391.992 643.88 396.918 645.713C403.196 648.054 409.451 650.424 415.652 652.965C423.237 656.046 431.002 658.565 438.79 661.08C438.13 662.977 438.13 662.977 437.457 664.911C435.943 669.63 435.282 674.131 434.646 679.038C434.205 680.884 433.749 682.727 433.264 684.563C424.883 683.13 417.465 681.331 409.782 677.656C411.163 667.395 411.163 667.395 412.544 662.462C409.809 662.006 407.074 661.55 404.256 661.08C404 662.619 404 662.619 403.738 664.188C402.937 667.713 401.857 670.372 400.112 673.512C396.067 672.645 392.707 671.321 389.062 669.368C389.823 663.913 390.981 659.217 393.206 654.174C391.382 653.718 389.559 653.262 387.68 652.792C387.68 651.881 387.68 650.969 387.68 650.03C383.578 657.551 383.578 657.551 379.392 665.224C373.272 663.555 369.749 661.748 365.579 656.936C364.667 657.392 363.756 657.848 362.816 658.318C360.081 656.494 357.346 654.671 354.528 652.792C355.478 647.743 357.643 643.788 360.14 639.324C361.275 637.284 361.275 637.284 362.433 635.202C363.307 633.653 363.307 633.653 364.198 632.072Z" fill="#EE9392"/>
<path d="M699.591 219.614C704.646 220.982 708.104 222.961 710.912 227.341C711.942 233.268 711.692 239.046 711.43 245.039C711.374 247.463 711.374 247.463 711.316 249.936C711.219 253.917 711.07 257.896 710.912 261.874C704.53 261.874 698.148 261.874 691.573 261.874C691.573 253.669 691.573 245.464 691.573 237.01C689.75 237.01 687.926 237.01 686.048 237.01C686.048 245.216 686.048 253.421 686.048 261.874C679.666 261.874 673.284 261.874 666.709 261.874C666.709 248.655 666.709 235.436 666.709 221.816C672.635 221.816 678.561 221.816 684.666 221.816C685.122 222.727 685.578 223.639 686.048 224.578C686.731 223.895 687.415 223.211 688.12 222.506C691.991 220.184 695.116 219.832 699.591 219.614Z" fill="#D63232"/>
<path d="M741.679 568.811C745.996 570.073 750.031 571.68 754.165 573.452C756.379 574.395 756.379 574.395 758.638 575.357C760.313 576.08 760.313 576.08 762.021 576.819C760.122 580.755 758.554 583.71 755.114 586.488C752.093 587.438 752.093 587.438 749.589 587.869C749.513 588.842 749.436 589.814 749.357 590.816C747.825 596.096 744.698 599.147 740.869 602.891C740.197 603.597 739.525 604.302 738.833 605.028C736.828 607.025 736.828 607.025 733.013 609.971C729.759 609.723 729.759 609.723 727.488 608.589C728.172 610.641 728.172 610.641 728.869 612.733C726.59 615.013 724.311 617.292 721.962 619.64C717.205 617.64 714.557 615.114 711.257 611.179C710.41 610.179 709.562 609.178 708.689 608.147C708.055 607.381 707.421 606.616 706.768 605.827C707.224 607.65 707.68 609.474 708.149 611.352C706.782 611.808 705.414 612.264 704.005 612.733C706.74 616.836 709.475 620.939 712.293 625.165C705.904 631.899 705.904 631.899 701.242 633.453C697.824 628.667 697.824 628.667 694.336 623.784C693.282 624.098 692.228 624.411 691.141 624.734C687.429 625.165 687.429 625.165 684.925 623.439C683.285 621.021 683.285 621.021 683.285 616.877C685.095 615.083 685.095 615.083 687.634 613.284C688.561 612.612 689.488 611.94 690.443 611.248C691.943 610.189 691.943 610.189 693.472 609.107C700.437 604.086 706.927 599.05 713.07 593.049C719.446 587.103 719.446 587.103 724.725 586.92C728.869 587.869 728.869 587.869 731.632 590.632C731.845 592.342 731.845 592.342 732.063 594.085C732.377 595.225 732.69 596.365 733.013 597.539C736.462 599.175 736.462 599.175 739.92 600.301C739.09 598.97 738.26 597.638 737.405 596.265C736.343 594.503 735.282 592.741 734.222 590.977C733.672 590.101 733.121 589.225 732.555 588.323C731.017 585.733 731.017 585.733 728.869 580.963C730.387 575.328 735.43 568.253 741.679 568.811Z" fill="#EF9595"/>
<path d="M618.362 221.816C624.744 221.816 631.126 221.816 637.701 221.816C637.701 230.021 637.701 238.226 637.701 246.68C639.068 246.224 640.436 245.768 641.845 245.299C642.301 237.549 642.757 229.8 643.226 221.816C649.608 221.816 655.99 221.816 662.565 221.816C662.565 235.035 662.565 248.255 662.565 261.875C657.095 261.875 651.625 261.875 645.989 261.875C645.533 260.507 645.077 259.14 644.608 257.731C643.837 258.4 643.066 259.07 642.271 259.759C638.609 262.188 636.615 262.512 632.262 262.565C631.11 262.608 629.958 262.651 628.771 262.695C623.271 261.407 621.554 259.66 618.362 254.968C617.522 249.274 617.713 243.699 617.931 237.96C617.962 236.41 617.993 234.86 618.025 233.263C618.106 229.447 618.23 225.631 618.362 221.816Z" fill="#D52F2E"/>
<path d="M455.365 224.579C461.747 224.579 468.129 224.579 474.704 224.579C475.615 230.047 476.253 234.244 476.172 239.601C476.159 240.68 476.147 241.759 476.134 242.87C476.118 243.672 476.102 244.473 476.085 245.299C476.997 245.299 477.909 245.299 478.848 245.299C479.304 238.461 479.76 231.623 480.229 224.579C486.611 224.579 492.993 224.579 499.568 224.579C488.904 262.252 488.904 262.252 481.611 267.4C474.55 270.762 467.194 270.785 459.509 270.163C457.323 267.976 457.648 265.493 457.351 262.479C457.235 261.338 457.119 260.196 457 259.02C456.875 257.698 456.875 257.698 456.747 256.349C459.026 255.893 461.305 255.438 463.653 254.968C462.634 248.909 460.737 243.231 458.732 237.442C455.365 227.712 455.365 227.712 455.365 224.579Z" fill="#D52E2B"/>
<path d="M390.011 222.593C392.497 222.467 392.497 222.467 395.034 222.339C400.795 223.313 403.701 224.693 407.898 228.675C411.662 234.292 411.148 240.646 411.076 247.198C411.098 248.61 411.121 250.022 411.144 251.477C411.192 254.942 411.183 258.409 411.163 261.875C405.692 261.875 400.222 261.875 394.587 261.875C394.587 260.507 394.587 259.14 394.587 257.731C393.675 257.731 392.763 257.731 391.824 257.731C391.824 258.642 391.824 259.554 391.824 260.493C388.26 262.275 385.529 262.157 381.55 262.22C379.544 262.273 379.544 262.273 377.498 262.328C373.867 261.875 373.867 261.875 371.357 260.116C369.031 256.723 368.975 253.477 369.183 249.448C369.723 246.68 369.723 246.68 372.14 242.622C378.806 238.392 385.448 238.528 393.205 238.392C392.749 237.48 392.293 236.569 391.824 235.629C389.027 234.728 389.027 234.728 386.299 234.248C386.299 235.16 386.299 236.071 386.299 237.011C380.828 237.011 375.358 237.011 369.723 237.011C371.238 229.431 371.992 228.689 378.011 224.579C382.001 222.584 385.564 222.749 390.011 222.593Z" fill="#D6312F"/>
<path d="M504.408 49.0146C506.499 49.0387 506.499 49.0387 508.633 49.0632C510.031 49.0757 511.429 49.0881 512.869 49.101C513.95 49.117 515.03 49.133 516.144 49.1495C517.534 52.5132 518.914 55.8804 520.288 59.2505C520.881 60.6808 520.881 60.6808 521.486 62.14C523.174 66.2994 524.432 69.4812 524.432 74.0135C520.329 74.0135 516.227 74.0135 512 74.0135C512 73.1019 512 72.1902 512 71.2509C509.721 71.2509 507.442 71.2509 505.093 71.2509C505.093 72.1626 505.093 73.0742 505.093 74.0135C491.418 74.6973 491.418 74.6973 477.467 75.3949C476.555 73.5715 475.643 71.7482 474.704 69.8695C474.704 72.1487 474.704 74.4279 474.704 76.7762C470.601 76.7762 466.499 76.7762 462.272 76.7762C461.816 69.0269 461.36 61.2777 460.891 53.2935C465.449 52.8377 470.007 52.3819 474.704 51.9122C475.16 52.8239 475.616 53.7356 476.085 54.6749C476.541 53.3074 476.997 51.9398 477.467 50.5309C481.113 50.5309 484.76 50.5309 488.517 50.5309C489.885 56.9126 491.252 63.2944 492.661 69.8695C493.144 68.4896 493.626 67.1096 494.124 65.6878C494.758 63.8873 495.393 62.0869 496.028 60.2865C496.346 59.3758 496.664 58.465 496.991 57.5266C499.942 49.1888 499.942 49.1888 504.408 49.0146Z" fill="#EE9493"/>
<path d="M433.264 222.42C434.211 222.405 435.158 222.39 436.134 222.375C443.094 222.474 447.405 224.118 452.602 228.723C452.602 230.546 452.602 232.369 452.602 234.248C450.415 234.286 448.228 234.312 446.041 234.334C444.214 234.358 444.214 234.358 442.35 234.383C439.09 234.259 436.379 233.791 433.264 232.867C433.264 233.778 433.264 234.69 433.264 235.629C434.181 235.848 435.098 236.067 436.043 236.293C443.664 238.307 449.275 239.93 453.984 246.68C454.761 250.91 454.761 250.91 453.984 254.968C451.405 258.149 449.347 260.049 445.696 261.875C441.847 262.12 438.065 262.258 434.213 262.306C433.164 262.346 432.114 262.387 431.033 262.428C425.641 262.489 422.835 262.244 418.096 259.43C415.352 256.4 414.355 254.832 413.925 250.824C416.314 250.786 418.702 250.76 421.091 250.738C422.421 250.722 423.751 250.706 425.121 250.689C428.921 250.817 432.331 251.347 436.026 252.205C436.026 251.294 436.026 250.382 436.026 249.443C434.501 249.114 434.501 249.114 432.945 248.779C418.62 245.354 418.62 245.354 413.925 238.392C412.975 234.248 412.975 234.248 413.925 230.104C419.995 223.773 424.424 222.113 433.264 222.42Z" fill="#D52F2E"/>
<path d="M228.826 469.075C232.716 472.631 233.528 474.91 234.352 480.125C234.808 480.581 235.263 481.037 235.733 481.507C238.353 485.976 238.496 488.642 238.496 493.939C239.407 493.939 240.319 493.939 241.258 493.939C242.916 497.067 244.553 500.204 246.179 503.349C246.889 504.681 246.889 504.681 247.612 506.039C248.823 508.4 249.885 510.837 250.928 513.277C249.069 518.853 245.597 519.983 240.654 522.515C239.827 522.958 239 523.4 238.148 523.856C231.989 527.091 231.989 527.091 228.826 527.091C224.682 519.321 224.682 519.321 224.682 514.659C230.153 511.924 235.623 509.189 241.258 506.371C234.421 507.282 227.583 508.194 220.538 509.133C216.394 500.845 216.394 500.845 216.394 496.701C217.762 495.79 219.13 494.878 220.538 493.939C218.715 494.395 216.892 494.85 215.013 495.32C212.203 490.168 210.869 487.489 210.869 481.507C213.836 479.045 216.624 477.003 219.848 474.945C220.704 474.377 221.561 473.809 222.443 473.224C224.56 471.824 226.692 470.447 228.826 469.075Z" fill="#EF9593"/>
<path d="M448.459 507.752C451.478 510.772 452.164 512.64 453.466 516.644C454.006 518.266 454.006 518.266 454.556 519.92C455.365 522.947 455.365 522.947 455.365 527.091C462.659 527.091 469.952 527.091 477.467 527.091C472.108 532.45 468.397 535.677 462.272 539.523C462.547 540.874 462.547 540.874 462.828 542.253C464.13 548.696 465.391 555.13 466.416 561.624C464.399 560.304 462.385 558.979 460.373 557.653C459.251 556.915 458.129 556.178 456.973 555.419C453.984 553.336 453.984 553.336 451.221 550.573C446.132 550.997 443.009 553.742 439.135 556.876C438.031 557.761 436.927 558.646 435.789 559.557C434.956 560.239 434.123 560.921 433.264 561.624C431.282 557.659 432.618 555.536 433.868 551.35C435.12 547.134 436.027 543.934 436.027 539.523C432.636 536.604 432.636 536.604 428.429 533.825C425.879 532.066 423.341 530.289 420.832 528.472C420.832 528.016 420.832 527.56 420.832 527.091C428.125 527.091 435.419 527.091 442.933 527.091C443.332 524.925 443.731 522.76 444.142 520.529C445.013 515.803 446.118 511.961 448.459 507.752Z" fill="#FBF4F3"/>
<path d="M576.923 507.752C582.054 513.769 582.517 519.418 583.829 527.091C591.123 527.091 598.416 527.091 605.931 527.091C600.572 532.45 596.861 535.677 590.736 539.523C591.167 541.911 591.599 544.3 592.031 546.688C592.271 548.018 592.512 549.349 592.759 550.719C593.433 554.361 594.143 557.994 594.88 561.624C592.863 560.304 590.849 558.979 588.837 557.653C587.715 556.915 586.593 556.178 585.437 555.419C582.448 553.336 582.448 553.336 579.685 550.573C574.596 550.997 571.472 553.742 567.599 556.876C566.495 557.761 565.391 558.646 564.253 559.557C563.42 560.239 562.586 560.921 561.728 561.624C560.347 558.861 560.347 558.861 561.118 556.115C561.924 553.985 562.729 551.856 563.536 549.726C564.64 545.913 565.193 543.458 564.491 539.523C561.163 536.317 561.163 536.317 556.893 533.652C554.349 531.943 551.813 530.221 549.296 528.472C549.296 528.016 549.296 527.56 549.296 527.091C556.589 527.091 563.883 527.091 571.397 527.091C571.796 525.182 572.195 523.273 572.606 521.306C573.653 516.564 574.916 512.194 576.923 507.752Z" fill="#FBF4F3"/>
<path d="M634.939 470.456C637.959 473.476 638.645 475.344 639.947 479.348C640.486 480.97 640.486 480.97 641.036 482.624C641.846 485.651 641.846 485.651 641.846 489.795C649.139 489.795 656.433 489.795 663.947 489.795C658.979 494.763 654.465 498.272 648.753 502.227C649.639 509.32 651.077 516.032 652.897 522.947C648.334 521.471 645.252 519.671 641.76 516.472C638.21 512.929 638.21 512.929 635.042 513.504C631.685 514.857 629.296 516.623 626.479 518.889C621.418 522.947 621.418 522.947 618.363 522.947C619.731 516.109 621.098 509.272 622.507 502.227C618.746 499.534 618.746 499.534 614.91 496.788C612.35 494.955 609.81 493.093 607.312 491.176C607.312 490.72 607.312 490.264 607.312 489.795C614.606 489.795 621.899 489.795 629.414 489.795C629.87 486.604 630.326 483.413 630.795 480.125C631.948 476.738 633.414 473.706 634.939 470.456Z" fill="#FBF5F5"/>
<path d="M391.824 470.456C396.584 475.216 397.091 482.003 398.731 488.413C406.024 488.869 413.317 489.325 420.832 489.795C415.864 494.763 411.349 498.272 405.637 502.227C405.837 503.594 406.036 504.962 406.242 506.371C407.031 511.888 407.721 517.415 408.4 522.947C407.567 522.364 406.733 521.782 405.875 521.182C404.771 520.426 403.667 519.669 402.529 518.889C400.895 517.759 400.895 517.759 399.227 516.607C395.091 514.084 395.091 514.084 390.443 513.277C387.152 515.229 387.152 515.229 384.054 518.026C378.257 522.947 378.257 522.947 375.248 522.947C375.547 521.798 375.846 520.65 376.154 519.466C376.539 517.965 376.924 516.464 377.32 514.918C377.897 512.682 377.897 512.682 378.485 510.401C379.543 506.385 379.543 506.385 379.392 502.227C376.001 499.308 376.001 499.308 371.795 496.529C369.244 494.77 366.706 492.993 364.197 491.176C364.197 490.72 364.197 490.264 364.197 489.795C371.035 489.339 377.872 488.883 384.917 488.413C387.196 482.487 389.476 476.562 391.824 470.456Z" fill="#FCF6F6"/>
<path d="M513.382 521.565C516.401 524.585 517.087 526.454 518.389 530.458C518.928 532.079 518.928 532.079 519.479 533.733C520.288 536.76 520.288 536.76 520.288 540.904C527.126 540.904 533.963 540.904 541.008 540.904C532.582 549.33 532.582 549.33 528.576 551.955C527.665 551.955 526.753 551.955 525.814 551.955C527.637 559.248 529.46 566.542 531.339 574.056C527.004 571.889 523.73 569.88 519.943 566.977C518.967 566.232 517.991 565.488 516.986 564.721C516.252 564.155 515.519 563.589 514.763 563.005C510.47 565.033 506.607 567.426 502.676 570.085C501.572 570.829 500.468 571.573 499.331 572.34C498.497 572.906 497.664 573.473 496.806 574.056C498.187 567.149 499.568 560.243 500.95 553.336C499.853 552.554 498.756 551.773 497.626 550.967C496.215 549.954 494.805 548.941 493.352 547.897C491.942 546.887 490.532 545.878 489.079 544.838C487.982 543.995 486.885 543.153 485.755 542.285C485.755 541.83 485.755 541.374 485.755 540.904C492.592 540.448 499.43 539.992 506.475 539.523C507.358 536.816 508.241 534.11 509.151 531.321C511.828 523.119 511.828 523.119 513.382 521.565Z" fill="#FCF7F7"/>
<path d="M641.845 76.7759C647.973 77.677 651.085 79.3238 657.04 82.3012C657.04 89.5947 657.04 96.8881 657.04 104.403C660.231 99.3883 663.421 94.3741 666.709 89.2079C670.996 90.2797 673.961 91.3169 677.76 93.3519C676.833 99.1446 673.815 103.578 670.853 108.547C671.964 108.917 673.075 109.287 674.22 109.669C675.388 110.21 676.556 110.751 677.76 111.309C679.141 115.453 679.141 115.453 677.846 118.475C677.12 119.714 677.12 119.714 676.378 120.979C671.014 118.994 666.269 116.476 661.356 113.554C656.727 110.807 652.1 108.094 647.37 105.525C643.499 103.186 640.701 100.856 637.701 97.4959C637.701 98.4076 637.701 99.3192 637.701 100.259C629.758 97.6685 629.758 97.6685 626.65 96.1145C628.328 89.1937 632.719 85.9943 638.009 81.6807C640.609 79.6858 640.609 79.6858 641.845 76.7759Z" fill="#EE9593"/>
<path d="M215.013 246.68C219.884 249.021 224.512 251.715 229.172 254.45C230.66 255.323 232.149 256.195 233.683 257.094C235.381 258.093 235.381 258.093 237.114 259.112C235.747 263.215 234.379 267.317 232.97 271.544C231.147 271.544 229.324 271.544 227.445 271.544C228.813 272.456 230.18 273.368 231.589 274.307C230.668 277.99 229.747 281.674 228.826 285.358C225.747 285.395 222.668 285.422 219.589 285.444C217.874 285.46 216.159 285.476 214.393 285.492C210.23 285.378 206.611 284.955 202.581 283.976C204.998 274.652 204.998 274.652 208.106 271.544C208.334 269.949 208.562 268.353 208.797 266.71C209.488 261.875 209.488 261.875 212.25 259.112C212.767 255.898 213.228 252.674 213.632 249.443C214.088 248.531 214.543 247.619 215.013 246.68Z" fill="#EE9393"/>
<path d="M237.115 203.859C245.356 206.028 252.073 210.421 259.216 214.91C258.364 216.957 257.498 219 256.626 221.039C256.145 222.177 255.664 223.315 255.169 224.487C253.691 227.342 253.691 227.342 250.928 228.723C249.937 231.461 249.018 234.226 248.165 237.011C247.709 237.923 247.254 238.834 246.784 239.774C238.542 237.605 231.825 233.212 224.683 228.723C228.56 219.005 228.56 219.005 230.208 216.291C231.575 215.835 232.943 215.379 234.352 214.91C233.896 213.998 233.44 213.086 232.971 212.147C234.261 209.341 235.64 206.573 237.115 203.859Z" fill="#EE9494"/>
<path d="M253.691 518.803C259.334 525.736 259.334 525.736 258.871 531.062C258.529 532.031 258.187 532.999 257.835 533.997C259.202 533.542 260.57 533.086 261.979 532.616C267.504 540.559 267.504 540.559 267.504 543.667C264.663 545.785 261.871 547.674 258.871 549.537C258.061 550.075 257.25 550.613 256.416 551.167C254.014 552.667 254.014 552.667 249.547 554.717C245.274 553.575 244.218 552.212 241.518 548.674C239.877 545.048 239.877 545.048 240.309 541.854C240.622 541.085 240.936 540.315 241.259 539.523C239.891 539.979 238.524 540.434 237.115 540.904C232.971 534.515 232.971 534.515 232.971 529.853C235.88 527.711 238.672 525.88 241.777 524.069C242.61 523.561 243.443 523.052 244.302 522.529C250.523 518.803 250.523 518.803 253.691 518.803Z" fill="#EE9594"/>
<path d="M369.723 82.3013C375.945 87.3709 379.072 94.3867 382.155 101.64C382.155 102.552 382.155 103.463 382.155 104.403C375.828 108.539 375.828 108.539 372.486 109.928C369.119 108.892 369.119 108.892 366.96 107.165C366.96 107.621 366.96 108.077 366.96 108.547C366.96 109.914 366.96 111.282 366.96 112.691C363.766 115.108 363.766 115.108 360.054 116.835C355.91 115.453 355.91 115.453 353.39 111.088C352.518 109.298 351.66 107.501 350.816 105.698C350.373 104.781 349.931 103.865 349.475 102.921C348.384 100.658 347.311 98.3873 346.24 96.1146C347.72 94.9135 349.22 93.7385 350.73 92.5749C351.563 91.9179 352.396 91.2608 353.255 90.5839C355.91 89.2079 355.91 89.2079 358.996 89.6882C359.801 89.9855 360.606 90.2829 361.435 90.5893C361.948 89.3072 361.948 89.3072 362.471 87.9993C364.483 84.5795 366.101 83.7499 369.723 82.3013Z" fill="#EF9595"/>
<path d="M796.554 219.053C799.697 222.101 801.945 224.552 803.461 228.723C802.943 231.831 802.943 231.831 802.08 234.248C803.447 234.248 804.815 234.248 806.224 234.248C810.368 242.191 810.368 242.191 810.368 245.299C806.978 246.952 803.582 248.59 800.18 250.22C798.733 250.929 798.733 250.929 797.256 251.652C794.758 252.841 792.205 253.913 789.648 254.968C785.429 252.859 784.594 249.509 782.741 245.299C782.741 241.155 782.741 241.155 785.504 238.392C784.136 238.848 782.769 239.304 781.36 239.773C777.216 233.806 777.216 233.806 777.216 230.147C779.437 225.636 783.151 224.779 787.662 222.852C790.143 221.773 790.143 221.773 792.675 220.672C794.595 219.871 794.595 219.871 796.554 219.053Z" fill="#EF9593"/>
<path d="M626.651 648.648C627.81 651.782 628.96 654.919 630.104 658.058C630.434 658.946 630.763 659.834 631.103 660.748C632.55 664.74 633.558 667.85 633.558 672.131C626.72 674.182 626.72 674.182 619.744 676.275C618.833 675.363 617.921 674.451 616.982 673.512C616.982 674.879 616.982 676.247 616.982 677.656C612.968 679.392 610.357 680.419 605.931 680.419C603.652 673.125 601.373 665.832 599.024 658.317C607.312 654.173 607.312 654.173 611.111 654.432C614.219 655.555 614.219 655.555 616.982 658.317C616.526 656.038 616.07 653.759 615.6 651.411C623.543 648.648 623.543 648.648 626.651 648.648Z" fill="#ED9493"/>
<path d="M784.122 499.464C789.847 500.104 794.085 502.259 799.058 505.076C800.406 505.832 801.754 506.589 803.143 507.369C804.159 507.951 805.176 508.533 806.224 509.133C805.793 510.209 805.362 511.284 804.918 512.392C804.02 514.64 803.13 516.892 802.252 519.148C800.698 521.565 800.698 521.565 797.763 522.601C796.481 522.772 796.481 522.772 795.173 522.947C796.085 523.402 796.996 523.858 797.936 524.328C796.9 528.386 796.9 528.386 795.173 532.616C792.885 533.868 792.885 533.868 789.648 533.997C786.353 532.537 783.415 531.052 780.324 529.249C779.492 528.781 778.661 528.314 777.804 527.832C775.758 526.679 773.723 525.506 771.69 524.328C773.153 519.627 774.466 516.021 777.216 511.896C781.532 511.637 781.532 511.637 785.504 511.896C783.68 510.984 781.857 510.073 779.978 509.133C782.568 501.018 782.568 501.018 784.122 499.464Z" fill="#EE9594"/>
<path d="M469.179 667.987C473.737 667.987 478.295 667.987 482.992 667.987C483.448 669.354 483.904 670.722 484.373 672.131C484.829 671.219 485.285 670.307 485.755 669.368C489.401 669.368 493.048 669.368 496.805 669.368C496.939 677.815 496.488 685.852 495.424 694.232C485.506 694.436 476.211 692.962 466.416 691.469C467.328 683.72 468.239 675.971 469.179 667.987Z" fill="#EE9494"/>
<path d="M594.88 661.08C598.776 663.36 599.878 664.933 601.22 669.19C602.259 674.425 602.222 676.886 599.542 681.627C593.871 686.701 588.479 688.088 580.98 687.832C578.304 687.325 578.304 687.325 574.16 684.649C570.481 679.015 570.048 674.547 571.397 667.986C577.203 659.979 585.723 660.044 594.88 661.08Z" fill="#EC8F8E"/>
<path d="M604.55 62.9629C610.719 63.8443 614.432 65.3011 619.744 68.4882C622.493 69.0271 625.256 69.4994 628.032 69.8696C628.944 70.3254 629.856 70.7812 630.795 71.2509C629.449 79.2649 628.015 86.2243 623.888 93.3522C619.575 92.6812 615.606 91.9728 611.456 90.5896C611.001 87.8545 610.545 85.1195 610.075 82.3016C609.619 84.1249 609.163 85.9483 608.694 87.8269C605.503 87.3711 602.312 86.9152 599.024 86.4456C597.079 80.1663 598.353 76.7172 601.01 70.8192C601.99 68.605 601.99 68.605 602.99 66.3461C603.505 65.2296 604.02 64.1132 604.55 62.9629Z" fill="#ED9494"/>
<path d="M582.265 55.4572C587.383 56.4979 591.955 58.6392 596.261 61.5815C598.497 66.0523 598.419 70.5621 597.643 75.3948C595.053 79.5388 595.053 79.5388 590.736 82.3015C584.958 83.4745 579.514 83.7171 574.236 80.8338C569.363 76.8793 567.435 74.2393 566.735 68.0565C567.253 62.9628 567.253 62.9628 570.016 58.9052C574.336 55.9353 577.023 55.1284 582.265 55.4572Z" fill="#ED9595"/>
<path d="M768.928 176.232C781.573 188.71 781.573 188.71 782.137 197.038C781.36 202.477 781.36 202.477 778.425 206.621C774.453 209.384 774.453 209.384 770.396 210.247C762.345 208.604 758.186 203.317 753.82 196.779C752.055 194.006 752.055 194.006 750.971 191.427C752.851 185.787 755.777 184.676 760.726 181.498C762.252 180.51 763.778 179.522 765.351 178.504C766.531 177.754 767.712 177.004 768.928 176.232Z" fill="#EE9191"/>
<path d="M765.129 542.544C770.309 543.667 770.309 543.667 773.763 545.652C776.328 550.034 776.931 553.083 776.763 558.133C774.9 565.141 769.641 570.245 764.784 575.437C759.484 573.574 755.596 571.186 751.23 567.667C750.138 566.795 749.047 565.922 747.922 565.023C746.696 564.025 746.696 564.025 745.445 563.005C748.516 554.274 754.86 543.006 765.129 542.544Z" fill="#ED9191"/>
<path d="M440.17 662.461C457.996 663.396 457.996 663.396 465.034 667.987C466.329 673.08 466.329 673.08 466.416 677.656C463.681 679.024 463.681 679.024 460.89 680.419C461.375 681.473 461.859 682.527 462.358 683.613C463.653 687.325 463.653 687.325 462.272 691.469C461.419 691.186 460.566 690.903 459.687 690.611C451.736 688.082 444.342 686.615 436.026 685.944C436.898 677.959 438.308 670.274 440.17 662.461Z" fill="#ED9391"/>
<path d="M808.987 252.205C814.683 256.04 818.425 259.246 820.037 266.019C820.555 271.026 820.555 271.026 820.037 275.688C818.214 277.056 816.391 278.423 814.512 279.832C812.689 275.274 810.865 270.715 808.987 266.019C807.163 266.475 805.34 266.93 803.461 267.4C805.285 267.4 807.108 267.4 808.987 267.4C810.354 271.958 811.722 276.517 813.131 281.213C809.028 282.125 804.925 283.037 800.699 283.976C795.796 278.42 792.578 273.578 792.313 265.992C792.634 260.913 793.453 258.118 796.814 254.277C801.507 251.774 803.744 251.242 808.987 252.205Z" fill="#EE9493"/>
<path d="M454.502 57.6961C456.746 60.1998 456.746 60.1998 457.092 63.5668C456.978 64.7349 456.864 65.903 456.746 67.1065C456.194 73.0462 456.194 73.0462 460.89 78.1571C456.332 79.0688 451.773 79.9805 447.077 80.9198C446.621 80.0081 446.165 79.0964 445.696 78.1571C445.24 79.5247 444.784 80.8922 444.314 82.3011C438.844 82.9849 438.844 82.9849 433.264 83.6825C431.44 75.9332 429.617 68.1839 427.738 60.1998C447.778 54.3345 447.778 54.3345 454.502 57.6961Z" fill="#EE9493"/>
<path d="M721.963 127.885C729.775 130.581 735.005 135.093 739.92 141.699C740.783 147.051 740.783 147.051 739.92 151.368C737.157 154.131 737.157 154.131 733.531 154.303C732.449 154.246 731.366 154.189 730.251 154.131C729.795 156.866 729.339 159.601 728.869 162.419C722.585 160.55 721.012 158.303 717.819 152.749C715.102 151.161 715.102 151.161 712.293 149.987C709.876 147.742 709.876 147.742 708.149 145.843C710.243 141.039 713.091 137.616 716.61 133.756C717.611 132.652 718.612 131.548 719.643 130.411C720.791 129.161 720.791 129.161 721.963 127.885Z" fill="#EE9593"/>
<path d="M800.181 473.046C801.263 473.103 802.346 473.16 803.461 473.219C803.034 474.7 802.607 476.182 802.166 477.708C801.157 481.27 800.181 484.815 799.317 488.413C801.597 488.869 803.876 489.325 806.224 489.795C804.401 488.883 802.577 487.971 800.699 487.032C802.066 482.929 803.434 478.827 804.843 474.6C809.489 475.374 813.119 476.559 817.275 478.744C816.835 488.64 815 494.832 807.778 502.054C803.691 504.218 801.121 504.26 796.555 503.608C792.373 501.47 790.224 499.818 788.72 495.288C787.731 489.489 787.883 485.401 790.77 480.212C795.738 473.257 795.738 473.257 800.181 473.046Z" fill="#EE9493"/>
<path d="M286.843 567.149C291.411 569.433 293.698 572.638 296.512 576.819C296.142 582.9 293.314 587.31 290.21 592.445C289.325 593.921 288.44 595.397 287.528 596.918C286.846 598.035 286.164 599.151 285.462 600.301C279.303 595.715 277.225 594.06 275.792 586.488C272.556 584.94 272.556 584.94 268.886 583.725C265.691 580.963 265.691 580.963 263.36 578.2C263.36 577.288 263.36 576.377 263.36 575.437C267.965 573.596 272.569 571.754 277.174 569.912C278.408 569.396 279.642 568.879 280.913 568.347C284.08 567.149 284.08 567.149 286.843 567.149Z" fill="#EE9492"/>
<path d="M295.303 137.382C296.613 137.439 297.924 137.496 299.274 137.555C299.274 139.378 299.274 141.201 299.274 143.08C302.465 143.992 305.656 144.903 308.944 145.843C309.529 151.699 309.548 155.489 305.836 160.088C300.255 165.542 300.255 165.542 296.512 166.563C292.022 166.045 292.022 166.045 288.224 165.181C288.679 163.358 289.135 161.534 289.605 159.656C288.266 159.456 286.927 159.257 285.547 159.052C281.317 158.275 281.317 158.275 279.936 156.893C280.168 150.855 280.674 147.965 284.684 143.339C285.852 142.342 287.02 141.345 288.224 140.317C290.986 137.555 290.986 137.555 295.303 137.382Z" fill="#E98686"/>
<path d="M755.114 156.893C759.172 160.606 759.172 160.606 762.021 165.181C761.112 173.183 755.204 180.546 750.97 187.283C747.035 185.376 744.022 183.875 741.301 180.376C740.351 176.664 740.351 176.664 739.92 173.469C738.723 173.299 738.723 173.299 737.502 173.124C733.491 171.787 731.58 169.758 728.869 166.563C728.869 165.651 728.869 164.739 728.869 163.8C731.942 162.421 735.018 161.05 738.101 159.694C740.45 158.652 742.781 157.569 745.1 156.462C749.199 155.209 751.114 155.293 755.114 156.893Z" fill="#EE9494"/>
<path d="M647.284 639.767C651.056 642.381 654.15 645.394 657.385 648.648C658.617 649.873 659.849 651.098 661.119 652.36C663.946 655.555 663.946 655.555 663.946 658.317C658.104 661.656 654.106 662.943 647.37 662.461C647.114 663.316 646.857 664.171 646.593 665.051C643.621 669.445 639.945 669.637 634.938 670.749C633.609 661.945 633.41 653.401 633.557 644.504C635.268 643.499 636.999 642.527 638.737 641.569C639.698 641.024 640.66 640.479 641.651 639.918C644.608 638.979 644.608 638.979 647.284 639.767Z" fill="#EE9492"/>
<path d="M268.886 161.037C277.497 163.233 285.687 165.562 293.75 169.325C292.733 170.921 291.692 172.5 290.642 174.073C289.776 175.396 289.776 175.396 288.893 176.744C286.466 179.407 284.825 179.844 281.318 180.376C281.232 181.373 281.147 182.37 281.059 183.397C279.601 188.443 276.787 190.623 273.03 194.189C270.907 191.094 268.811 187.986 266.727 184.865C266.123 183.989 265.518 183.113 264.895 182.21C260.494 175.557 260.494 175.557 261.024 171.937C262.656 167.473 265.755 164.569 268.886 161.037Z" fill="#EE9595"/>
<path d="M424.976 61.5815C426.607 66.6788 426.751 71.4564 426.357 76.7762C424.99 77.6879 423.622 78.5996 422.213 79.5389C424.948 79.083 427.683 78.6272 430.501 78.1575C430.957 80.4367 431.413 82.7159 431.882 85.0642C424.046 88.4542 416.939 91.2284 408.4 91.9709C407.494 89.8761 406.605 87.7737 405.723 85.6685C404.978 83.9137 404.978 83.9137 404.218 82.1235C402.685 77.5971 402.049 73.2257 401.493 68.4882C404.887 67.3321 408.283 66.1818 411.68 65.0349C412.646 64.7055 413.611 64.376 414.605 64.0366C421.9 61.5815 421.9 61.5815 424.976 61.5815Z" fill="#ED9492"/>
<path d="M505.094 670.75C510.564 670.75 516.034 670.75 521.67 670.75C522.829 673.884 523.979 677.02 525.123 680.16C525.452 681.047 525.782 681.935 526.121 682.85C527.569 686.841 528.576 689.951 528.576 694.232C524.474 694.232 520.371 694.232 516.144 694.232C516.144 693.32 516.144 692.409 516.144 691.47C513.865 691.47 511.586 691.47 509.238 691.47C509.238 692.381 509.238 693.293 509.238 694.232C505.135 694.232 501.033 694.232 496.806 694.232C497.663 691.353 498.528 688.475 499.396 685.599C499.876 683.996 500.357 682.394 500.853 680.743C502.331 676.275 502.331 676.275 505.094 670.75Z" fill="#EF9594"/>
<path d="M531.166 231.118C532.134 231.125 533.103 231.132 534.101 231.14C535.07 231.133 536.038 231.126 537.036 231.118C539.626 231.485 539.626 231.485 542.389 234.248C542.969 238.656 542.761 240.581 540.317 244.349C539.633 245.118 538.949 245.887 538.245 246.68C539.157 247.136 540.068 247.591 541.008 248.061C541.008 247.149 541.008 246.238 541.008 245.298C543.287 245.298 545.566 245.298 547.914 245.298C548.087 256.004 548.087 256.004 546.533 259.112C543.165 259.224 539.801 259.306 536.432 259.371C535.002 259.423 535.002 259.423 533.543 259.476C526.485 259.578 526.485 259.578 523.11 257.234C521.022 253.951 521.11 251.88 521.669 248.061C522.353 247.178 523.037 246.295 523.741 245.385C526.509 241.578 525.913 238.852 525.813 234.248C528.576 231.485 528.576 231.485 531.166 231.118Z" fill="#D22F2D"/>
<path d="M299.275 586.488C305.375 586.488 309.216 587.53 313.693 591.581C316.82 595.008 317.212 595.973 317.75 600.819C317.579 602.016 317.409 603.212 317.232 604.445C313.088 604.445 313.088 604.445 310.067 601.855C307.563 598.92 307.563 598.92 307.563 596.157C306.651 596.157 305.74 596.157 304.8 596.157C305.299 596.775 305.798 597.393 306.311 598.029C311.557 604.864 311.557 604.864 312.311 609.711C311.707 612.733 311.707 612.733 308.944 615.496C304.53 616.317 301.804 616.26 298.012 613.737C291.508 608.249 291.508 608.249 289.606 604.445C289.551 601.683 289.546 598.919 289.606 596.157C293.75 596.157 293.75 596.157 297.462 599.61C298.516 600.75 299.57 601.89 300.656 603.064C297.807 600.042 297.807 600.042 295.131 596.157C295.351 591.428 295.909 589.854 299.275 586.488Z" fill="#F09895"/>
<path d="M267.504 545.048C272.418 547.074 275.021 549.704 278.295 553.854C279.159 554.919 280.023 555.983 280.912 557.081C282.698 560.243 282.698 560.243 282.283 563.404C281.964 564.184 281.645 564.964 281.317 565.768C278.813 566.718 278.813 566.718 275.792 567.149C273.374 565.164 273.374 565.164 271.648 563.005C272.559 564.829 273.471 566.652 274.41 568.531C272.511 570.603 272.511 570.603 270.266 572.675C269.355 572.675 268.443 572.675 267.504 572.675C266.649 571.734 265.794 570.794 264.914 569.826C263.945 568.942 262.976 568.059 261.978 567.149C258.914 567.338 258.914 567.338 256.453 568.531C250.928 562.142 250.928 562.142 250.928 557.48C253.647 555.137 256.297 553.066 259.216 551.005C260.006 550.431 260.797 549.856 261.611 549.265C263.567 547.847 265.534 546.446 267.504 545.048Z" fill="#EF9596"/>
<path d="M253.691 180.376C257.11 181.743 257.11 181.743 260.597 183.139C259.044 187.244 257.527 190.507 255.072 194.189C255.984 194.189 256.895 194.189 257.835 194.189C258.746 191.91 259.658 189.631 260.597 187.283C264.016 188.65 264.016 188.65 267.504 190.045C264.914 196.607 264.914 196.607 263.36 199.715C264.728 200.17 266.095 200.626 267.504 201.096C266.676 205.732 264.954 208.525 261.979 212.147C256.605 210.23 252.357 207.705 247.734 204.377C246.514 203.504 245.294 202.632 244.038 201.733C243.121 201.067 242.204 200.401 241.259 199.715C243.398 195.091 246.081 191.086 249.029 186.937C249.901 185.705 250.774 184.473 251.673 183.203C252.672 181.804 252.672 181.804 253.691 180.376Z" fill="#EF9594"/>
<path d="M553.44 667.987C553.44 671.177 553.44 674.368 553.44 677.656C551.616 677.656 549.793 677.656 547.914 677.656C547.914 682.67 547.914 687.684 547.914 692.851C543.812 692.851 539.709 692.851 535.482 692.851C535.026 688.292 534.571 683.734 534.101 679.037C531.822 679.037 529.543 679.037 527.194 679.037C527.194 675.846 527.194 672.655 527.194 669.368C535.998 668.039 544.543 667.839 553.44 667.987Z" fill="#ED9190"/>
<path d="M400.112 72.6322C400.567 74.9114 401.023 77.1906 401.493 79.5388C400.125 79.9947 398.758 80.4505 397.349 80.9202C398.716 85.9344 400.084 90.9487 401.493 96.1148C395.339 98.1661 395.339 98.1661 389.061 100.259C387.238 96.1563 385.414 92.0537 383.536 87.8268C381.256 88.2827 378.977 88.7385 376.629 89.2082C375.717 86.0173 374.806 82.8264 373.866 79.5388C377.197 78.1095 380.535 76.7031 383.881 75.3085C384.823 74.9016 385.765 74.4948 386.735 74.0756C391.851 71.9647 394.84 70.9175 400.112 72.6322Z" fill="#EF9492"/>
<path d="M699.861 109.928C705.526 111.868 709.504 114.585 714.106 118.389C715.326 119.39 716.546 120.39 717.802 121.421C719.178 122.57 719.178 122.57 720.581 123.742C719.67 126.021 718.758 128.3 717.819 130.648C716.451 130.648 715.084 130.648 713.675 130.648C709.113 131.09 708.175 132 705.041 135.569C703.845 137.236 703.845 137.236 702.624 138.936C697.988 138.108 695.195 136.386 691.573 133.411C693.048 130.235 694.345 127.875 696.753 125.296C699.009 122.246 699.009 122.246 697.358 117.871C696.816 116.617 696.275 115.364 695.717 114.072C697.085 112.705 698.452 111.337 699.861 109.928Z" fill="#EF9694"/>
<path d="M319.995 601.683C325.773 602.454 329.7 605.888 334.153 609.366C334.919 609.953 335.685 610.54 336.473 611.144C338.354 612.587 340.226 614.04 342.096 615.496C341.184 617.775 340.273 620.054 339.333 622.403C333.808 622.403 333.808 622.403 329.664 621.021C329.322 621.819 328.98 622.617 328.628 623.439C326.671 626.961 324.309 629.334 321.376 632.072C318.641 629.793 315.906 627.514 313.088 625.165C314.754 620.423 316.382 617.563 319.995 614.115C319.995 613.203 319.995 612.291 319.995 611.352C319.083 610.896 318.171 610.44 317.232 609.971C317.931 606.975 318.613 604.446 319.995 601.683Z" fill="#EE9695"/>
<path d="M391.824 241.155C391.306 243.831 391.306 243.831 390.443 246.68C389.075 247.364 389.075 247.364 387.68 248.061C387.68 248.973 387.68 249.885 387.68 250.824C390.374 250.555 390.374 250.555 393.206 249.443C394.98 246.702 394.98 246.702 395.968 243.917C397.358 248.337 397.652 250.19 395.623 254.45C390.291 261.686 390.291 261.686 385.479 262.425C384.154 262.414 382.829 262.404 381.464 262.393C380.14 262.403 378.815 262.414 377.45 262.425C373.867 261.875 373.867 261.875 371.363 260.105C369.027 256.724 368.977 253.483 369.178 249.459C369.723 246.68 369.723 246.68 372.227 242.45C378.791 238.459 384.479 239.855 391.824 241.155Z" fill="#D52F2E"/>
<path d="M315.851 116.834C317.674 117.746 319.498 118.658 321.376 119.597C321.376 122.82 321.376 126.043 321.376 129.266C322.786 130.933 322.786 130.933 324.225 132.633C326.902 136.173 326.902 136.173 326.902 139.108C325.163 142.368 323.07 143.858 319.995 145.842C314.723 143.694 311.442 140.267 307.563 136.173C304.828 137.541 304.828 137.541 302.038 138.936C297.894 133.756 297.894 133.756 297.894 130.648C300.841 128.178 303.79 125.856 306.872 123.568C307.729 122.922 308.585 122.276 309.468 121.61C311.59 120.01 313.719 118.421 315.851 116.834Z" fill="#EF9694"/>
<path d="M524.432 49.1494C533.093 49.6053 541.754 50.0611 550.677 50.5307C550.677 53.7216 550.677 56.9125 550.677 60.2001C547.942 60.2001 545.207 60.2001 542.389 60.2001C542.389 64.7585 542.389 69.3169 542.389 74.0134C538.286 74.0134 534.184 74.0134 529.957 74.0134C529.957 68.9992 529.957 63.9849 529.957 58.8187C528.134 58.8187 526.31 58.8187 524.432 58.8187C524.432 55.6279 524.432 52.437 524.432 49.1494Z" fill="#EE9593"/>
<path d="M206.725 337.848C207.181 337.848 207.637 337.848 208.106 337.848C208.106 377.962 208.106 418.076 208.106 459.405C204.507 455.806 204.971 454.245 204.903 449.228C204.876 447.68 204.848 446.131 204.82 444.536C204.796 442.019 204.796 442.019 204.772 439.452C204.745 437.739 204.718 436.026 204.691 434.261C204.622 429.705 204.565 425.15 204.514 420.594C204.458 415.946 204.388 411.298 204.318 406.65C204.186 397.53 204.068 388.409 203.962 379.288C203.051 379.288 202.139 379.288 201.2 379.288C200.752 370.042 201.655 361.447 203.185 352.352C203.464 350.691 203.464 350.691 203.748 348.997C205.149 341 205.149 341 206.725 337.848Z" fill="#D1211F"/>
<path d="M663.947 629.31C667.631 632.748 670.242 635.711 672.235 640.36C673.289 639.904 674.343 639.449 675.429 638.979C679.141 637.598 679.141 637.598 683.285 637.598C684.197 640.333 685.109 643.068 686.048 645.886C683.898 647.251 681.737 648.6 679.573 649.943C678.371 650.696 677.169 651.45 675.931 652.226C672.309 654.134 669.357 654.981 665.328 655.555C663.479 652.624 661.638 649.688 659.803 646.749C659.276 645.916 658.749 645.082 658.206 644.224C654.277 637.911 654.277 637.911 654.277 634.835C657.468 633.012 660.659 631.188 663.947 629.31Z" fill="#EF9695"/>
<path d="M574.16 205.24C587.835 205.24 601.511 205.24 615.6 205.24C615.6 211.166 615.6 217.092 615.6 223.198C609.218 223.198 602.837 223.198 596.261 223.198C596.261 222.742 596.261 222.286 596.261 221.816C601.732 221.816 607.202 221.816 612.837 221.816C612.837 217.258 612.837 212.699 612.837 208.003C600.986 208.003 589.134 208.003 576.923 208.003C576.923 224.869 576.923 241.735 576.923 259.112C582.393 259.112 587.863 259.112 593.499 259.112C593.499 254.554 593.499 249.995 593.499 245.299C593.955 245.299 594.411 245.299 594.88 245.299C594.88 250.313 594.88 255.327 594.88 260.494C588.043 260.494 581.205 260.494 574.16 260.494C574.16 242.26 574.16 224.026 574.16 205.24Z" fill="#D03435"/>
<path d="M221.92 234.248C227.376 235.116 231.864 236.824 236.856 239.169C238.878 240.112 238.878 240.112 240.941 241.074C241.957 241.556 242.974 242.039 244.022 242.536C242.654 246.639 241.287 250.741 239.878 254.968C232.025 252.695 225.005 249.042 217.776 245.299C218.532 240.637 219.234 238.278 221.92 234.248Z" fill="#EE9492"/>
<path d="M340.714 98.8774C346.238 103.928 351.903 109.698 354.528 116.835C353.054 121.407 351.743 122.375 347.621 125.123C344.966 125.128 344.966 125.128 342.096 123.741C339.139 119.981 339.139 119.981 336.225 115.367C335.249 113.841 334.273 112.315 333.268 110.743C332.534 109.562 331.801 108.382 331.045 107.165C334.163 103.94 336.958 101.382 340.714 98.8774Z" fill="#EF9593"/>
<path d="M350.384 623.784C355.198 624.676 358.711 626.687 362.816 629.31C361.526 631.73 360.23 634.146 358.931 636.562C358.21 637.908 357.488 639.254 356.745 640.641C354.818 643.998 352.784 647.001 350.384 650.03C346.278 648.476 343.015 646.959 339.333 644.504C341.229 639.395 343.565 634.902 346.412 630.259C347.157 629.039 347.901 627.82 348.668 626.563C349.234 625.646 349.8 624.729 350.384 623.784Z" fill="#EE9796"/>
<path d="M768.928 525.709C773.665 527.943 777.993 530.649 782.396 533.479C784.436 534.788 784.436 534.788 786.518 536.123C787.551 536.789 788.584 537.455 789.648 538.141C787.608 545.962 787.608 545.962 783.95 548.329C783.095 548.614 782.24 548.899 781.36 549.192C778.621 547.416 775.888 545.63 773.158 543.839C771.636 542.846 770.113 541.852 768.545 540.829C764.784 538.141 764.784 538.141 763.402 535.379C764.476 532.994 764.476 532.994 766.079 530.371C767.019 528.833 767.959 527.295 768.928 525.709Z" fill="#F09696"/>
<path d="M789.648 203.859C791.471 207.506 793.295 211.152 795.173 214.91C792.273 216.763 789.366 218.602 786.454 220.435C785.632 220.962 784.81 221.489 783.963 222.032C777.685 225.96 777.685 225.96 773.072 225.96C770.582 222.759 768.889 220.521 768.998 216.377C771.027 211.969 774.338 210.67 778.511 208.348C780.005 207.501 781.499 206.653 783.038 205.78C786.885 203.859 786.885 203.859 789.648 203.859Z" fill="#EF9694"/>
<path d="M553.44 51.9121C557.543 52.3679 561.645 52.8238 565.872 53.2934C565.676 55.9126 565.473 58.5313 565.268 61.1498C565.156 62.6081 565.044 64.0664 564.928 65.569C564.54 69.3872 563.936 73.0319 563.11 76.7761C559.007 76.7761 554.905 76.7761 550.678 76.7761C550.396 67.9112 551.257 60.5095 553.44 51.9121Z" fill="#F09492"/>
<path d="M567.253 665.224C567.947 668.85 568.637 672.476 569.325 676.102C569.523 677.133 569.721 678.164 569.924 679.226C571.397 687.012 571.397 687.012 571.397 690.088C564.56 690.772 564.56 690.772 557.584 691.469C556.672 683.264 555.761 675.059 554.821 666.605C563.109 665.224 563.109 665.224 567.253 665.224Z" fill="#EE9594"/>
<path d="M307.562 144.461C308.944 145.843 308.944 145.843 309.462 150.246C308.776 157.216 306.989 158.96 302.037 163.8C298.183 166.659 296.892 166.606 292.022 166.045C290.142 165.617 290.142 165.617 288.224 165.181C290.25 159.84 293.02 158.261 297.893 155.512C298.349 154.6 298.805 153.689 299.274 152.749C296.995 153.661 294.716 154.573 292.368 155.512C296.183 145.973 297.199 144.02 307.562 144.461Z" fill="#EF9795"/>
<path d="M398.73 217.672C403.722 219.443 408.099 221.711 412.544 224.579C411.632 226.858 410.72 229.137 409.781 231.485C408.613 230.346 407.445 229.206 406.241 228.032C398.554 222.37 388.458 224.053 379.392 224.579C378.48 222.755 377.568 220.932 376.629 219.053C383.1 215.817 391.717 216.978 398.73 217.672Z" fill="#F9EEEE"/>
<path d="M506.475 237.011C506.931 237.011 507.387 237.011 507.856 237.011C507.892 237.88 507.928 238.749 507.964 239.644C508.61 249.382 509.927 257.591 517.504 264.303C524.158 269.052 530.234 271.469 538.246 272.925C538.246 273.381 538.246 273.837 538.246 274.307C528.584 275.396 522.49 274.262 514.644 268.398C509.162 263.464 505.328 257.837 504.91 250.258C504.914 249.048 504.917 247.839 504.921 246.594C504.917 245.381 504.914 244.169 504.91 242.919C505.094 239.773 505.094 239.773 506.475 237.011Z" fill="#CE2929"/>
<path d="M362.816 464.93C357.862 468.233 355.683 468.016 349.807 467.963C348.075 467.954 346.343 467.945 344.559 467.936C341.844 467.901 341.844 467.901 339.074 467.866C337.23 467.852 335.385 467.839 333.541 467.828C329.025 467.795 324.51 467.75 319.995 467.693C320.479 468.747 320.963 469.801 321.462 470.887C322.757 474.6 322.757 474.6 321.376 478.744C320.448 476.963 319.529 475.178 318.613 473.391C318.1 472.398 317.588 471.404 317.059 470.38C315.851 467.693 315.851 467.693 315.851 464.93C322.095 464.699 328.339 464.477 334.584 464.264C336.709 464.191 338.834 464.114 340.959 464.035C344.011 463.922 347.062 463.818 350.114 463.716C351.067 463.679 352.019 463.642 353.001 463.603C359.739 463.392 359.739 463.392 362.816 464.93Z" fill="#D12223"/>
<path d="M658.421 357.187C659.333 357.187 660.244 357.187 661.184 357.187C661.65 360.697 662.11 364.208 662.565 367.719C662.697 368.704 662.828 369.689 662.964 370.703C663.692 376.371 664.091 381.847 663.946 387.576C661.211 387.576 658.476 387.576 655.658 387.576C656.579 377.446 657.5 367.316 658.421 357.187Z" fill="#DFDEDF"/>
<path d="M528.576 231.486C536.94 231.216 536.94 231.216 539.627 231.486C542.39 234.248 542.39 234.248 542.908 237.529C542.39 241.155 542.39 241.155 539.972 244.349C536.864 246.68 536.864 246.68 531.339 246.68C531.339 245.769 531.339 244.857 531.339 243.918C533.618 243.462 535.897 243.006 538.246 242.536C536.422 242.536 534.599 242.536 532.72 242.536C532.264 240.713 531.808 238.889 531.339 237.011C530.427 237.011 529.515 237.011 528.576 237.011C528.576 236.099 528.576 235.188 528.576 234.248C530.4 234.248 532.223 234.248 534.102 234.248C532.278 233.337 530.455 232.425 528.576 231.486Z" fill="#D13030"/>
<path d="M514.762 25.494C516.924 25.5079 519.086 25.5205 521.248 25.5318C526.453 25.5617 531.658 25.6091 536.864 25.6667C536.864 26.1225 536.864 26.5784 536.864 27.048C522.277 27.048 507.69 27.048 492.661 27.048C492.661 27.9597 492.661 28.8714 492.661 29.8107C489.036 30.1162 485.411 30.4012 481.783 30.674C480.752 30.7631 479.721 30.8521 478.659 30.9438C475.965 31.138 473.26 31.1749 470.56 31.192C469.648 30.2803 468.736 29.3687 467.797 28.4294C483.545 26.0506 498.851 25.3124 514.762 25.494Z" fill="#D75D5C"/>
<path d="M560.347 259.112C560.01 263.664 558.683 264.913 555.34 268.177C546.786 274.76 539.106 276.332 528.576 275.688C531.339 271.544 531.339 271.544 534.895 270.524C536.314 270.262 537.733 270 539.195 269.731C546.409 268.12 550.636 266.04 555.782 260.779C557.584 259.112 557.584 259.112 560.347 259.112Z" fill="#CE2424"/>
<path d="M6.62337 294.694C8.45461 294.704 8.45461 294.704 10.3228 294.713C11.7054 294.713 13.088 294.713 14.5124 294.714C16.7572 294.735 16.7572 294.735 19.0472 294.757C21.3409 294.763 21.3409 294.763 23.6809 294.769C28.5791 294.784 33.477 294.819 38.3751 294.854C41.6899 294.868 45.0048 294.88 48.3196 294.892C56.4585 294.922 64.5971 294.968 72.7358 295.027C72.7358 295.482 72.7358 295.938 72.7358 296.408C71.9113 296.419 71.0867 296.43 70.2372 296.442C61.6776 296.56 53.1185 296.698 44.5594 296.846C41.3625 296.899 38.1654 296.947 34.9683 296.991C30.3804 297.054 25.7931 297.134 21.2056 297.217C19.7695 297.233 18.3335 297.249 16.8539 297.266C15.5266 297.293 14.1994 297.321 12.8319 297.349C11.0743 297.376 11.0743 297.376 9.28116 297.405C6.12531 297.537 6.12531 297.537 3.66911 300.552C3.11983 303.298 2.65003 306.063 2.28778 308.84C1.83194 308.84 1.3761 308.84 0.906445 308.84C0.636654 300.476 0.636654 300.476 0.906445 297.789C3.66911 295.027 3.66911 295.027 6.62337 294.694Z" fill="#C4C4C4"/>
<path d="M299.275 137.555C299.275 139.378 299.275 141.202 299.275 143.08C297.003 145.179 297.003 145.179 294.008 146.965C292.542 147.876 292.542 147.876 291.046 148.805C288.224 149.987 288.224 149.987 284.08 148.605C284.524 144.497 284.938 142.261 287.792 139.195C291.816 137.129 294.813 137.251 299.275 137.555Z" fill="#F19494"/>
<path d="M259.216 173.469C264.39 178.068 268.913 183.65 271.648 190.045C271.146 193.153 271.146 193.153 270.267 195.571C270.181 194.289 270.181 194.289 270.094 192.981C269.695 192.012 269.297 191.043 268.886 190.045C264.747 188.243 264.747 188.243 260.598 187.283C259.686 189.562 258.774 191.841 257.835 194.189C256.923 194.189 256.012 194.189 255.072 194.189C256.914 190.506 258.756 186.822 260.598 183.139C259.686 183.139 258.774 183.139 257.835 183.139C257.835 182.227 257.835 181.315 257.835 180.376C258.747 180.376 259.658 180.376 260.598 180.376C260.142 178.097 259.686 175.818 259.216 173.469Z" fill="#D33637"/>
<path d="M690.192 45.0054C696.434 47.2424 701.889 50.4081 707.545 53.8114C708.456 54.3456 709.366 54.8797 710.305 55.4301C715.283 58.4123 719.429 61.3622 723.344 65.7254C716.215 65.0278 711.164 61.4045 705.3 57.61C704.324 56.9922 703.347 56.3743 702.341 55.7377C697.697 52.7816 693.146 49.7874 688.811 46.3867C689.266 45.9309 689.722 45.475 690.192 45.0054Z" fill="#BE2726"/>
<path d="M384.917 192.808C386.284 193.264 387.652 193.72 389.061 194.189C386.226 197.294 384.908 198.337 380.773 199.715C374.926 205.385 373.767 211.309 372.485 219.053C374.308 218.598 376.132 218.142 378.01 217.672C376.111 219.744 376.111 219.744 373.866 221.816C372.955 221.816 372.043 221.816 371.104 221.816C369.603 216.094 368.831 211.12 369.722 205.24C374.005 199.908 378.874 196.011 384.917 192.808Z" fill="#CE2522"/>
<path d="M789.648 469.075C801.956 469.075 814.264 469.075 826.944 469.075C826.944 469.531 826.944 469.986 826.944 470.456C821.93 470.912 816.916 471.368 811.75 471.837C811.75 472.749 811.75 473.661 811.75 474.6C812.661 475.056 813.573 475.512 814.512 475.981C809.044 474.921 803.621 473.702 798.195 472.442C796.591 472.07 794.987 471.697 793.334 471.314C791.51 470.889 791.51 470.889 789.648 470.456C789.648 470 789.648 469.544 789.648 469.075Z" fill="#D02022"/>
<path d="M731.632 350.28C732.088 350.28 732.544 350.28 733.014 350.28C733.014 364.411 733.014 378.542 733.014 393.101C732.102 392.645 731.19 392.189 730.251 391.72C729.377 388.261 729.377 388.261 728.697 384.036C728.35 381.939 728.35 381.939 727.995 379.8C727.828 378.72 727.661 377.639 727.488 376.525C728.4 376.069 729.312 375.613 730.251 375.144C730.935 362.836 730.935 362.836 731.632 350.28Z" fill="#D14746"/>
<path d="M415.306 264.637C417.88 264.987 420.441 265.434 422.99 265.932C424.388 266.201 425.786 266.47 427.226 266.747C428.847 267.07 428.847 267.07 430.501 267.4C428.602 270.163 428.602 270.163 426.357 272.925C425.445 272.925 424.534 272.925 423.594 272.925C423.594 271.558 423.594 270.19 423.594 268.781C422.558 268.881 421.522 268.981 420.454 269.083C411.338 269.91 402.357 270.345 393.205 270.163C397.911 267.025 400.254 266.938 405.81 266.623C410.995 266.76 410.995 266.76 415.306 264.637Z" fill="#CD2420"/>
<path d="M105.888 376.525C106.799 376.525 107.711 376.525 108.65 376.525C109.106 386.098 109.562 395.671 110.032 405.533C108.664 405.533 107.297 405.533 105.888 405.533C105.888 395.961 105.888 386.388 105.888 376.525Z" fill="#B3B3B3"/>
<path d="M844.902 278.451C845.813 278.451 846.725 278.451 847.664 278.451C852.422 294.366 852.422 294.366 851.808 301.933C848.162 300.11 844.515 298.287 840.758 296.408C844.902 295.027 844.902 295.027 847.664 295.027C847.209 293.317 846.753 291.608 846.283 289.847C845.18 285.708 844.902 282.869 844.902 278.451Z" fill="#CF3D3B"/>
<path d="M659.802 209.384C664.169 211.276 665.318 212.131 668.09 216.29C653.503 216.29 638.917 216.29 623.888 216.29C623.888 215.835 623.888 215.379 623.888 214.909C640.982 214.225 640.982 214.225 658.421 213.528C658.877 212.16 659.333 210.793 659.802 209.384Z" fill="#CB282A"/>
<path d="M206.726 337.848C207.181 337.848 207.637 337.848 208.107 337.848C208.144 340.352 208.171 342.855 208.193 345.359C208.209 346.753 208.225 348.148 208.242 349.584C208.107 353.043 208.107 353.043 206.726 354.424C205.989 357.934 205.394 361.46 204.788 364.995C203.963 368.237 203.963 368.237 201.2 371C203.862 347.665 203.862 347.665 206.726 337.848Z" fill="#CC3030"/>
<path d="M292.368 585.106C293.922 590.286 293.922 590.286 292.368 593.394C293.28 593.394 294.192 593.394 295.131 593.394C296.912 595.51 296.912 595.51 298.757 598.229C299.373 599.127 299.989 600.024 300.624 600.949C301.324 601.996 301.324 601.996 302.038 603.064C301.582 603.975 301.126 604.887 300.656 605.826C300.074 605.128 299.492 604.43 298.892 603.711C297.757 602.365 297.757 602.365 296.599 600.992C295.845 600.094 295.092 599.197 294.316 598.272C293.673 597.574 293.031 596.876 292.368 596.157C291.912 596.157 291.457 596.157 290.987 596.157C290.531 598.892 290.075 601.627 289.606 604.445C288.694 604.445 287.782 604.445 286.843 604.445C286.062 596.632 288.619 591.7 292.368 585.106Z" fill="#D13536"/>
<path d="M873.909 299.171C874.365 299.171 874.821 299.171 875.29 299.171C875.29 309.655 875.29 320.14 875.29 330.942C872.528 329.56 872.528 329.56 871.664 327.316C870.976 322.954 870.98 318.773 871.146 314.366C871.602 313.91 872.058 313.454 872.528 312.984C872.849 310.661 873.098 308.327 873.305 305.991C873.42 304.722 873.536 303.452 873.655 302.144C873.739 301.163 873.823 300.182 873.909 299.171Z" fill="#CD1E1B"/>
<path d="M596.262 230.104C601.732 230.104 607.202 230.104 612.838 230.104C612.838 235.118 612.838 240.132 612.838 245.299C607.368 244.843 601.898 244.387 596.262 243.917C596.262 243.461 596.262 243.006 596.262 242.536C600.82 242.536 605.379 242.536 610.075 242.536C610.075 238.889 610.075 235.243 610.075 231.485C605.517 231.485 600.958 231.485 596.262 231.485C596.262 231.029 596.262 230.574 596.262 230.104Z" fill="#D42526"/>
<path d="M451.222 709.427C471.64 710.758 471.64 710.758 480.23 712.189C480.23 713.101 480.23 714.013 480.23 714.952C470.332 715.34 460.966 713.853 451.222 712.189C451.222 711.278 451.222 710.366 451.222 709.427Z" fill="#D33839"/>
<path d="M721.963 307.458C722.875 307.458 723.786 307.458 724.726 307.458C725.655 310.795 726.574 314.133 727.488 317.473C727.752 318.415 728.015 319.357 728.287 320.328C729.56 325.01 730.251 328.811 730.251 333.704C729.339 333.704 728.428 333.704 727.488 333.704C727.321 332.903 727.153 332.101 726.981 331.276C725.915 326.304 724.809 321.517 723.172 316.696C721.963 312.984 721.963 312.984 721.963 307.458Z" fill="#D23F3E"/>
<path d="M527.195 245.299C527.651 246.211 528.107 247.122 528.576 248.061C529.944 248.061 531.311 248.061 532.72 248.061C533.176 251.252 533.632 254.443 534.102 257.731C530.911 256.819 527.72 255.907 524.432 254.968C524.26 251.687 524.26 251.687 524.432 248.061C525.344 247.15 526.256 246.238 527.195 245.299Z" fill="#DC4E4B"/>
<path d="M803.461 264.637C806.569 264.551 806.569 264.551 810.368 266.019C812.707 269.979 814.332 274.133 815.893 278.451C817.261 278.451 818.628 278.451 820.037 278.451C818.214 280.274 816.391 282.097 814.512 283.976C812.689 283.064 810.865 282.153 808.987 281.213C810.354 281.213 811.722 281.213 813.131 281.213C812.447 279.703 811.763 278.193 811.059 276.638C808.987 271.544 808.987 271.544 808.987 267.4C806.708 267.856 804.428 268.312 802.08 268.781C802.536 267.414 802.992 266.046 803.461 264.637Z" fill="#D73D41"/>
<path d="M498.187 670.75C499.099 671.661 500.01 672.573 500.95 673.512C501.861 672.6 502.773 671.689 503.712 670.75C502.969 678.039 501.263 683.536 498.187 690.088C497.731 690.088 497.275 690.088 496.806 690.088C496.768 687.901 496.742 685.714 496.719 683.527C496.703 682.309 496.687 681.091 496.671 679.836C496.794 676.576 497.263 673.864 498.187 670.75Z" fill="#D22728"/>
<path d="M799.318 471.837C803.42 472.521 803.42 472.521 807.606 473.219C806.238 473.902 806.238 473.902 804.843 474.6C803.893 477.526 803.893 477.526 803.289 480.902C803.057 482.044 802.826 483.185 802.587 484.361C802.42 485.243 802.253 486.124 802.08 487.032C803.904 487.032 805.727 487.032 807.606 487.032C807.15 488.4 806.694 489.767 806.224 491.176C803.945 490.72 801.666 490.264 799.318 489.795C798.097 486.387 797.755 484.769 799.01 481.312C799.539 480.351 800.068 479.389 800.613 478.399C801.138 477.423 801.663 476.447 802.204 475.442C802.619 474.708 803.034 473.975 803.462 473.219C802.094 472.763 800.727 472.307 799.318 471.837Z" fill="#D74C4F"/>
<path d="M336.57 696.995C343.658 697.703 350.036 699.837 355.909 703.901C356.365 705.269 356.821 706.636 357.29 708.045C349.722 705.911 343.319 702.305 336.57 698.376C336.57 697.92 336.57 697.464 336.57 696.995Z" fill="#B32524"/>
<path d="M161.141 282.595C161.597 282.595 162.053 282.595 162.523 282.595C162.067 286.697 161.611 290.8 161.141 295.027C157.495 295.027 153.848 295.027 150.091 295.027C150.547 291.38 151.003 287.733 151.472 283.976C151.928 283.976 152.384 283.976 152.853 283.976C153.309 286.255 153.765 288.534 154.235 290.883C156.058 291.339 157.882 291.794 159.76 292.264C160.216 289.073 160.672 285.882 161.141 282.595Z" fill="#BD2220"/>
<path d="M553.44 676.274C556.203 679.037 556.203 679.037 556.375 682.663C556.319 683.746 556.262 684.828 556.203 685.944C555.291 684.576 554.379 683.209 553.44 681.8C552.528 681.8 551.617 681.8 550.677 681.8C550.677 685.446 550.677 689.093 550.677 692.85C547.465 687.83 547.69 683.498 547.915 677.656C550.505 676.792 550.505 676.792 553.44 676.274Z" fill="#D22725"/>
<path d="M882.198 372.381C882.654 372.381 883.109 372.381 883.579 372.381C883.849 375.92 884.106 379.46 884.356 383C884.434 383.997 884.511 384.993 884.591 386.019C884.96 391.407 884.973 396.156 883.579 401.389C883.18 400.506 882.781 399.623 882.37 398.713C881.054 395.654 881.054 395.654 878.054 394.483C878.492 393.749 878.93 393.015 879.381 392.26C881.144 388.204 881.392 384.728 881.68 380.324C881.783 378.835 881.886 377.347 881.993 375.813C882.06 374.681 882.128 373.548 882.198 372.381Z" fill="#DF302E"/>
<path d="M319.995 53.2935C320.907 53.7493 321.818 54.2051 322.758 54.6748C318.578 59.1757 314.31 62.7071 308.944 65.7255C307.121 65.2696 305.298 64.8138 303.419 64.3441C308.889 60.6974 314.359 57.0507 319.995 53.2935Z" fill="#B32624"/>
<path d="M433.264 231.485C439.645 232.397 446.027 233.309 452.602 234.248C453.058 233.336 453.514 232.425 453.984 231.485C453.984 232.853 453.984 234.22 453.984 235.629C447.146 236.085 440.308 236.541 433.264 237.011C433.264 235.187 433.264 233.364 433.264 231.485Z" fill="#EDCDCB"/>
<path d="M550.677 53.2935C551.133 53.2935 551.589 53.2935 552.059 53.2935C552.453 65.1335 552.453 65.1335 549.296 69.8695C549.296 67.5903 549.296 65.3111 549.296 62.9628C547.928 62.9628 546.561 62.9628 545.152 62.9628C545.152 66.6095 545.152 70.2562 545.152 74.0135C544.696 74.0135 544.24 74.0135 543.771 74.0135C543.771 69.4551 543.771 64.8967 543.771 60.2001C546.05 60.2001 548.329 60.2001 550.677 60.2001C550.677 57.9209 550.677 55.6417 550.677 53.2935Z" fill="#CF2523"/>
<path d="M242.64 506.371C237.17 509.106 231.7 511.841 226.064 514.659C226.52 513.291 226.976 511.924 227.446 510.515C226.078 509.603 224.711 508.691 223.302 507.752C225.745 507.25 228.192 506.764 230.64 506.284C232.002 506.012 233.364 505.74 234.768 505.459C238.496 504.989 238.496 504.989 242.64 506.371Z" fill="#D43A38"/>
<path d="M804.842 474.6C805.754 474.6 806.666 474.6 807.605 474.6C807.778 483.751 807.778 483.751 806.224 488.413C804.4 487.958 802.577 487.502 800.698 487.032C802.066 482.93 803.433 478.827 804.842 474.6Z" fill="#EF9B9A"/>
<path d="M502.331 230.104C504.61 232.383 506.889 234.662 509.237 237.011C508.326 237.011 507.414 237.011 506.475 237.011C506.019 241.569 505.563 246.127 505.093 250.824C504.637 250.824 504.182 250.824 503.712 250.824C503.712 247.177 503.712 243.531 503.712 239.773C502.8 239.773 501.889 239.773 500.949 239.773C501.405 236.582 501.861 233.392 502.331 230.104Z" fill="#D64C4C"/>
<path d="M245.403 625.166C246.958 626.488 248.512 627.812 250.065 629.137C250.93 629.874 251.796 630.611 252.687 631.371C254.462 632.921 256.169 634.55 257.835 636.216C257.379 637.584 256.923 638.951 256.453 640.36C252.351 636.258 248.248 632.155 244.021 627.928C244.477 627.017 244.933 626.105 245.403 625.166Z" fill="#B62625"/>
<path d="M593.498 536.76C594.866 537.216 596.234 537.671 597.642 538.141C596.275 540.192 596.275 540.192 594.88 542.285C594.341 545.034 593.869 547.797 593.498 550.573C589.955 547.029 589.989 544.389 589.354 539.522C590.722 538.611 592.09 537.699 593.498 536.76Z" fill="#CF2825"/>
<path d="M546.534 270.163C546.078 271.53 545.622 272.898 545.152 274.307C541.171 275.634 538.662 275.834 534.533 275.774C532.858 275.756 532.858 275.756 531.15 275.736C529.876 275.712 529.876 275.712 528.576 275.688C531.705 270.995 532.325 270.87 537.555 269.817C539.2 269.465 539.2 269.465 540.879 269.105C543.771 268.781 543.771 268.781 546.534 270.163Z" fill="#D65756"/>
<path d="M506.474 237.011C506.93 237.011 507.386 237.011 507.856 237.011C508.311 242.937 508.767 248.863 509.237 254.968C507.869 254.512 506.502 254.056 505.093 253.587C505.056 251.342 505.029 249.097 505.007 246.853C504.991 245.603 504.975 244.353 504.958 243.065C505.093 239.773 505.093 239.773 506.474 237.011Z" fill="#CB1B19"/>
<path d="M640.464 29.8105C640.92 30.7222 641.376 31.6339 641.845 32.5732C643.671 33.0948 645.517 33.5427 647.371 33.9545C649.683 34.8482 651.988 35.7635 654.277 36.7172C654.277 37.6289 654.277 38.5406 654.277 39.4799C645.989 36.7172 645.989 36.7172 637.701 33.9545C637.701 33.0429 637.701 32.1312 637.701 31.1919C638.613 30.736 639.525 30.2802 640.464 29.8105Z" fill="#D13A37"/>
<path d="M730.251 350.28C730.707 350.28 731.163 350.28 731.632 350.28C731.632 358.485 731.632 366.69 731.632 375.144C730.265 375.6 728.897 376.055 727.488 376.525C727.7 375.594 727.912 374.663 728.13 373.703C728.987 368.971 729.333 364.316 729.647 359.517C729.762 357.785 729.878 356.052 729.997 354.267C730.081 352.951 730.165 351.636 730.251 350.28Z" fill="#D12220"/>
<path d="M878.054 427.635C878.509 427.635 878.965 427.635 879.435 427.635C879.608 436.959 879.608 436.959 878.054 440.067C877.142 440.067 876.23 440.067 875.291 440.067C875.291 440.978 875.291 441.89 875.291 442.829C874.379 442.829 873.468 442.829 872.528 442.829C873.188 440.814 873.85 438.8 874.514 436.786C874.883 435.664 875.251 434.543 875.631 433.387C876.672 430.397 876.672 430.397 878.054 427.635Z" fill="#D53E3D"/>
<path d="M360.053 33.9546C358.422 37.2166 357.118 37.9224 354.01 39.7389C353.173 40.2428 352.336 40.7468 351.474 41.2659C349.002 42.2426 349.002 42.2426 344.858 40.8613C353.649 33.9546 353.649 33.9546 360.053 33.9546Z" fill="#B32624"/>
<path d="M753.733 569.912C754.502 570.339 755.271 570.767 756.064 571.207C759.431 572.754 762.521 573.449 766.165 574.056C766.165 574.968 766.165 575.879 766.165 576.819C765.253 576.819 764.342 576.819 763.402 576.819C762.946 577.73 762.491 578.642 762.021 579.581C762.021 578.67 762.021 577.758 762.021 576.819C758.83 575.907 755.639 574.995 752.352 574.056C752.807 572.689 753.263 571.321 753.733 569.912Z" fill="#D43638"/>
<path d="M380.773 78.1572C379.861 80.8923 378.95 83.6273 378.01 86.4452C379.378 86.9011 380.745 87.3569 382.154 87.8266C380.331 88.2824 378.507 88.7382 376.629 89.2079C375.717 86.017 374.806 82.8261 373.866 79.5386C378.01 78.1572 378.01 78.1572 380.773 78.1572Z" fill="#EF8A87"/>
<path d="M398.73 695.613C404.333 696.26 409.043 696.828 413.925 699.757C407.995 701.501 404.424 700.627 398.73 698.376C398.73 697.464 398.73 696.553 398.73 695.613Z" fill="#D23F3E"/>
<path d="M394.586 243.917C396.227 246.162 396.227 246.162 397.349 249.443C395.45 253.932 395.45 253.932 393.205 257.731C392.293 257.731 391.382 257.731 390.442 257.731C390.442 256.819 390.442 255.907 390.442 254.968C389.531 254.512 388.619 254.056 387.68 253.587C388.563 253.017 389.446 252.447 390.356 251.86C393.495 249.197 394.037 247.904 394.586 243.917Z" fill="#D42424"/>
<path d="M384.917 482.888C385.373 484.712 385.829 486.535 386.299 488.414C382.082 490.522 378.344 489.571 373.694 489.191C371.924 489.05 370.154 488.909 368.33 488.764C366.967 488.649 365.603 488.533 364.197 488.414C364.197 487.958 364.197 487.502 364.197 487.032C365.577 486.965 366.957 486.897 368.379 486.827C370.161 486.724 371.944 486.621 373.78 486.514C375.559 486.418 377.338 486.322 379.171 486.223C380.611 486.034 382.052 485.845 383.536 485.651C383.992 484.739 384.448 483.827 384.917 482.888Z" fill="#D52121"/>
<path d="M766.165 112.69C771.407 114.75 773.915 117.88 777.216 122.36C773.072 122.36 773.072 122.36 769.359 119.079C766.165 115.453 766.165 115.453 766.165 112.69Z" fill="#CD3B3F"/>
<path d="M407.019 724.621C410.251 725.018 413.475 725.477 416.688 726.002C416.688 726.914 416.688 727.826 416.688 728.765C417.6 729.221 418.512 729.677 419.451 730.146C410.3 729.11 410.3 729.11 405.638 726.002C406.094 725.547 406.549 725.091 407.019 724.621Z" fill="#B62626"/>
<path d="M821.418 574.056C821.874 575.424 822.33 576.791 822.8 578.2C821.424 580.72 821.424 580.72 819.433 583.294C818.779 584.154 818.126 585.014 817.452 585.9C816.938 586.55 816.423 587.2 815.893 587.869C815.437 586.502 814.981 585.134 814.512 583.725C815.888 581.206 815.888 581.206 817.879 578.632C818.532 577.772 819.186 576.912 819.859 576.026C820.374 575.376 820.888 574.726 821.418 574.056Z" fill="#BE2826"/>
<path d="M626.65 85.064C627.106 85.9756 627.562 86.8873 628.032 87.8266C628.943 88.2825 629.855 88.7383 630.794 89.208C628.971 91.4872 627.148 93.7664 625.269 96.1146C623.901 95.203 622.534 94.2913 621.125 93.352C622.037 92.8961 622.948 92.4403 623.888 91.9706C624.884 89.7002 625.813 87.3977 626.65 85.064Z" fill="#DA3E40"/>
<path d="M581.067 65.7251C582.434 65.7251 583.802 65.7251 585.211 65.7251C584.755 68.4601 584.299 71.1952 583.83 74.0131C582.462 73.5573 581.095 73.1014 579.686 72.6318C580.141 70.3526 580.597 68.0734 581.067 65.7251Z" fill="#D33133"/>
<path d="M186.006 455.261C187.56 457.592 187.56 457.592 188.768 460.787C187.56 464.585 187.56 464.585 186.006 467.693C184.182 467.237 182.359 466.782 180.48 466.312C180.48 465.4 180.48 464.489 180.48 463.549C181.848 462.638 183.216 461.726 184.624 460.787C185.624 457.942 185.624 457.942 186.006 455.261Z" fill="#D34949"/>
<path d="M393.205 245.299C392.75 247.578 392.294 249.857 391.824 252.205C390.001 251.75 388.177 251.294 386.299 250.824C386.755 249.457 387.211 248.089 387.68 246.68C390.443 245.299 390.443 245.299 393.205 245.299Z" fill="#FAF0EE"/>
<path d="M786.885 221.816C786.885 222.728 786.885 223.639 786.885 224.579C783 226.737 783 226.737 778.597 228.723C777.23 228.267 775.862 227.811 774.453 227.341C775.365 227.341 776.276 227.341 777.216 227.341C777.216 226.43 777.216 225.518 777.216 224.579C780.873 222.561 782.595 221.816 786.885 221.816Z" fill="#D0262A"/>
<path d="M771.69 636.216C769.766 640.867 767.575 643.103 763.402 645.885C763.402 641.741 763.402 641.741 765.992 638.719C768.928 636.216 768.928 636.216 771.69 636.216Z" fill="#C62927"/>
<path d="M596.261 633.453C594.894 633.453 593.526 633.453 592.117 633.453C592.117 634.821 592.117 636.188 592.117 637.597C588.47 637.141 584.824 636.685 581.066 636.216C586.591 633.358 590.134 631.552 596.261 633.453Z" fill="#D44C49"/>
<path d="M789.648 615.496C790.104 616.864 790.56 618.231 791.029 619.64C786.927 623.059 786.927 623.059 782.741 626.547C783.49 621.303 785.782 618.988 789.648 615.496Z" fill="#BC2825"/>
<path d="M527.194 670.75C529.929 670.75 532.664 670.75 535.482 670.75C533.659 671.205 531.836 671.661 529.957 672.131C530.413 673.954 530.869 675.778 531.338 677.656C529.971 678.112 528.603 678.568 527.194 679.038C527.194 676.302 527.194 673.567 527.194 670.75Z" fill="#F39A9B"/>
<path d="M188.768 547.811C191.879 551.524 194.13 554.229 195.674 558.861C194.307 558.861 192.939 558.861 191.53 558.861C189.093 554.596 188.768 553.014 188.768 547.811Z" fill="#B82725"/>
<path d="M600.406 470.456C601.317 470.912 602.229 471.368 603.168 471.837C598.382 475.94 598.382 475.94 593.499 480.125C592.587 479.67 591.676 479.214 590.736 478.744C593.927 476.009 597.118 473.274 600.406 470.456Z" fill="#CB2224"/>
<path d="M726.106 322.653C727.018 322.653 727.93 322.653 728.869 322.653C729.325 326.3 729.781 329.947 730.25 333.704C729.339 333.704 728.427 333.704 727.488 333.704C727.032 330.057 726.576 326.411 726.106 322.653Z" fill="#D34D4D"/>
<path d="M800.699 252.205C798.42 254.029 796.141 255.852 793.792 257.731C792.425 256.363 791.057 254.996 789.648 253.587C796.037 250.651 796.037 250.651 800.699 252.205Z" fill="#D03337"/>
<path d="M215.014 242.536C215.47 243.448 215.925 244.359 216.395 245.299C219.591 246.308 222.816 247.235 226.064 248.061C226.064 248.973 226.064 249.885 226.064 250.824C221.403 250.068 219.044 249.367 215.014 246.68C215.014 245.313 215.014 243.945 215.014 242.536Z" fill="#D32528"/>
<path d="M386.299 234.248C388.578 234.704 390.857 235.16 393.205 235.629C393.205 236.541 393.205 237.453 393.205 238.392C390.015 238.848 386.824 239.304 383.536 239.773C384.448 237.95 385.359 236.127 386.299 234.248Z" fill="#F4D9DA"/>
<path d="M528.576 234.248C531.995 234.932 531.995 234.932 535.483 235.629C535.483 237.453 535.483 239.276 535.483 241.155C534.115 241.611 532.748 242.066 531.339 242.536C531.339 240.713 531.339 238.889 531.339 237.011C530.427 237.011 529.515 237.011 528.576 237.011C528.576 236.099 528.576 235.187 528.576 234.248Z" fill="#E37A77"/>
</svg>
