<svg width="96" height="36" viewBox="0 0 96 36" fill="none" xmlns="http://www.w3.org/2000/svg">
<g clip-path="url(#clip0_6482_530803)">
<path d="M10.6 25.4C15.3 24.4 18.3001 19.7 17.2001 15.1C16.3001 11.1 12.9 8.40001 8.70005 8.30001C4.80005 8.20001 1.30005 10.7 0.200049 14.3C4.89205e-05 14.8 -0.0999512 15.3 -0.199951 15.8C-0.199951 16.6 -0.199951 17.3 -0.199951 18.1C-0.199951 18.2 -0.0999511 18.2 -0.0999511 18.3C0.800049 23.3 5.50005 26.5 10.6 25.4ZM8.60005 12C11.1 12 13.3 14.3 13.2 16.9C13.2 19.5 11 21.7 8.50005 21.7C6.00005 21.7 3.80005 19.5 3.80005 16.8C3.90005 14.3 6.10005 12 8.60005 12Z" fill="url(#paint0_linear_6482_530803)"/>
<path d="M32.9 8.4C32.9 14.1 32.9 19.7 32.9 25.4C34.2 25.3 35.4 25.1 36.6 25C36.6 19.3 36.6 13.7 36.6 8C35.3 8.1 34.1 8.2 32.9 8.4Z" fill="url(#paint1_linear_6482_530803)"/>
<path d="M39.7 28.7C39.6 28.9 39.5 29 39.5 29.3C39.7 29.3 39.8 29.3 40 29.3C40.9 29.4 41.8 29.5 42.7 29.6C43 29.6 43.2 29.6 43.5 29.6C43.5 29.6 43.5 29.5 43.6 29.5C46 24.2 48.3 19 50.7 13.7C50.8 13.6 50.8 13.4 50.9 13.2C49.7 12.9 48.5 12.6 47.3 12.3C46.3 14.7 45.3 17.1 44.3 19.6C43.3 17.1 42.3 14.7 41.3 12.3C40 12.6 38.9 12.9 37.6 13.2C37.7 13.4 37.8 13.6 37.9 13.8C39.3 17 40.7 20.2 42.2 23.4C42.3 23.7 42.3 24 42.2 24.3C41.1 25.8 40.4 27.2 39.7 28.7Z" fill="url(#paint2_linear_6482_530803)"/>
<path d="M89.6 19.7C88.6 17.2 87.6 14.8 86.6 12.4C85.3 12.7 84.1 13 82.9 13.3C83 13.6 83.1 13.8 83.2 14C84.6 17.1 86 20.3 87.4 23.4C87.6 23.8 87.6 24.1 87.4 24.4C86.7 25.8 86 27.3 85.2 28.7C85.1 28.9 85.1 29 85 29.2C85.2 29.2 85.3 29.2 85.4 29.2C86.3 29.3 87.2 29.4 88.1 29.5C88.4 29.5 88.7 29.5 89 29.5C89.1 29.3 89.1 29.2 89.2 29C90.7 25.6 92.2 22.3 93.7 18.9C94.6 17 95.4 15.1 96.3 13.1C95.1 12.8 93.9 12.5 92.7 12.2C91.6 14.8 90.6 17.2 89.6 19.7Z" fill="url(#paint3_linear_6482_530803)"/>
<path d="M19.1 12.7C19.1 16.9 19.1 21.1 19.1 25.4C20.4 25.3 21.6 25.1 22.8 25C22.8 24.8 22.8 24.6 22.8 24.4C22.8 22.3 22.8 20.1 22.8 18C22.8 17.1 23 16.3 23.9 16C25.3 15.5 26.5 16.3 26.5 17.8C26.5 20.1 26.5 22.5 26.5 24.8C26.5 25 26.5 25.2 26.5 25.5C27.8 25.4 29 25.2 30.2 25.1C30.2 25 30.3 25 30.3 24.9C30.3 22 30.3 19.1 30.2 16.2C30.1 14.6 29.3 13.2 27.7 12.7C25.8 12.1 24.1 12.3 22.8 14C22.8 14 22.7 14.1 22.6 14.2C22.6 13.6 22.6 13 22.6 12.4C21.3 12.5 20.2 12.6 19.1 12.7Z" fill="url(#paint4_linear_6482_530803)"/>
<path d="M75.6 17.1C74.3 17.3 73.3 17.8 72.6 18.9C71.5 20.5 71.8 23.1 73.2 24.5C74.1 25.4 75.2 25.6 76.3 25.7C77.5 25.7 78.6 25.4 79.4 24.2C79.4 24.7 79.4 25.1 79.4 25.5C80.5 25.4 81.6 25.2 82.6 25.1C82.6 25 82.6 24.9 82.6 24.8C82.6 22 82.6 19.1 82.6 16.3C82.6 14.6 81.6 13.3 79.9 12.8C78 12.2 76.1 12.4 74.2 12.9C74.1 12.9 73.9 13.1 73.9 13.2C73.7 14.2 73.6 15.2 73.4 16.4C74.7 15.9 75.8 15.6 77.1 15.7C78.6 15.8 79.2 16.5 79 18C78 17.2 76.9 16.8 75.6 17.1ZM79 21.6C78.8 22.3 78.1 22.6 77.2 22.6C75.9 22.6 75.1 21.6 75.4 20.5C75.7 19.6 76.9 19.2 77.9 19.5C78.9 19.9 79.3 20.7 79 21.6Z" fill="url(#paint5_linear_6482_530803)"/>
<path d="M66.3 8.4C66.3 14.1 66.3 19.7 66.3 25.4C67.5 25.3 68.7 25.2 70 25C70 19.3 70 13.7 70 8C68.8 8.1 67.6 8.2 66.3 8.4Z" fill="url(#paint6_linear_6482_530803)"/>
<path d="M50.9 12.7C50.9 13 50.9 13.2 50.9 13.4C50.9 17.9 50.9 22.5 50.9 27C50.9 27.9 50.9 28.7 50.9 29.6C51.1 29.6 51.3 29.6 51.6 29.6C52.6 29.5 53.6 29.3 54.7 29.2C54.7 27.6 54.7 25.9 54.7 24.3C55.1 24.6 55.4 24.9 55.8 25.1C57 25.7 58.2 25.7 59.5 25.4C61.9 24.8 64.7 22.2 64.4 18.6C64.2 15.9 63 13.8 60.4 12.7C58.3 11.8 55.9 12.3 54.6 14.3H54.5C54.5 13.6 54.5 13 54.5 12.2C53.2 12.5 52.1 12.6 50.9 12.7ZM57.5 15.7C59.1 15.7 60.6 17.2 60.5 18.9C60.5 20.6 59.1 22.1 57.5 22.1C55.9 22.1 54.4 20.6 54.4 18.9C54.5 17.3 55.9 15.7 57.5 15.7Z" fill="url(#paint7_linear_6482_530803)"/>
</g>
<defs>
<linearGradient id="paint0_linear_6482_530803" x1="8.57985" y1="33.1045" x2="8.57985" y2="3.59021" gradientUnits="userSpaceOnUse">
<stop offset="0.00181584" stop-color="#D205FA"/>
<stop offset="1" stop-color="#FEBD02"/>
</linearGradient>
<linearGradient id="paint1_linear_6482_530803" x1="34.7252" y1="33.1045" x2="34.7252" y2="3.5902" gradientUnits="userSpaceOnUse">
<stop offset="0.00181584" stop-color="#D205FA"/>
<stop offset="1" stop-color="#FEBD02"/>
</linearGradient>
<linearGradient id="paint2_linear_6482_530803" x1="44.0377" y1="33.1045" x2="44.0377" y2="3.59019" gradientUnits="userSpaceOnUse">
<stop offset="0.00181584" stop-color="#D205FA"/>
<stop offset="1" stop-color="#FEBD02"/>
</linearGradient>
<linearGradient id="paint3_linear_6482_530803" x1="89.5935" y1="33.1045" x2="89.5935" y2="3.59021" gradientUnits="userSpaceOnUse">
<stop offset="0.00181584" stop-color="#D205FA"/>
<stop offset="1" stop-color="#FEBD02"/>
</linearGradient>
<linearGradient id="paint4_linear_6482_530803" x1="24.6771" y1="33.1045" x2="24.6771" y2="3.59021" gradientUnits="userSpaceOnUse">
<stop offset="0.00181584" stop-color="#D205FA"/>
<stop offset="1" stop-color="#FEBD02"/>
</linearGradient>
<linearGradient id="paint5_linear_6482_530803" x1="77.2618" y1="33.1045" x2="77.2618" y2="3.59021" gradientUnits="userSpaceOnUse">
<stop offset="0.00181584" stop-color="#D205FA"/>
<stop offset="1" stop-color="#FEBD02"/>
</linearGradient>
<linearGradient id="paint6_linear_6482_530803" x1="68.1762" y1="33.1045" x2="68.1762" y2="3.5902" gradientUnits="userSpaceOnUse">
<stop offset="0.00181584" stop-color="#D205FA"/>
<stop offset="1" stop-color="#FEBD02"/>
</linearGradient>
<linearGradient id="paint7_linear_6482_530803" x1="57.6392" y1="33.1045" x2="57.6392" y2="3.59021" gradientUnits="userSpaceOnUse">
<stop offset="0.00181584" stop-color="#D205FA"/>
<stop offset="1" stop-color="#FEBD02"/>
</linearGradient>
<clipPath id="clip0_6482_530803">
<rect width="96" height="36" fill="white"/>
</clipPath>
</defs>
</svg>
