<svg width="82" height="36" viewBox="0 0 82 36" fill="none" xmlns="http://www.w3.org/2000/svg">
<g clip-path="url(#clip0_481_13784)">
<path d="M61.6909 19.9636H60.4636V26.2636H63.4909V25.1182H61.6909V19.9636Z" fill="white"/>
<path d="M58.6637 20.2091C58.172 20.0455 57.6819 19.9636 57.1091 20.0455H55.8V26.3455H57.0273V23.6455C57.4364 23.6455 57.9273 23.6455 58.3364 23.5628C58.7455 23.481 59.0728 23.2364 59.3182 22.9901C59.5637 22.6636 59.7273 22.2546 59.6455 21.8455C59.6455 21.5182 59.5629 21.1091 59.3992 20.7818C59.2364 20.5364 58.991 20.2909 58.6637 20.2091ZM58.4182 22.1727C58.3364 22.2546 58.2546 22.3364 58.1728 22.4182C57.9273 22.5 57.7637 22.5 57.5182 22.5H57.1091V21.1909H57.4364C57.6819 21.1909 58.0091 21.1909 58.2546 21.3537C58.4182 21.4364 58.581 21.681 58.581 21.9265C58.5 21.9273 58.5 22.0909 58.4182 22.1727Z" fill="white"/>
<path d="M68.7273 18.9C72.8182 18.6546 70.6909 13.6645 66.6 13.9091C62.7545 14.1546 64.4727 19.1455 68.7273 18.9Z" fill="#E99D31"/>
<path d="M70.8545 19.9636H69.5454L71.4272 23.5636V26.2636H72.6545V23.5636L74.5363 19.9636H73.2272L72 22.2545L70.8545 19.9636Z" fill="white"/>
<path d="M81.4091 20.0454H81L80.5091 21.6L79.9363 20.0454H79.5273L79.1182 22.2545H79.6091L79.8545 20.8636L80.2636 22.2545H80.6727L81.1636 20.8636L81.4091 22.2545H81.8182L81.4091 20.0454Z" fill="white"/>
<path d="M77.7273 20.4545H78.1364V22.2545H78.6273V20.4545H79.0364V20.0454H77.7273V20.4545Z" fill="white"/>
<path d="M48.7637 20.8636C49.5 20.8636 50.2372 21.1909 50.8091 21.7636L51.7099 20.9454C50.9736 20.1273 49.9099 19.6364 48.8463 19.6364C48.1918 19.6364 47.619 19.8 47.0463 20.1273C46.0645 20.619 45.4918 21.6008 45.3281 22.5818C45.1637 23.6454 45.5728 24.7091 46.3091 25.4454C46.9637 26.1 47.8637 26.4273 48.8455 26.3454C49.3364 26.3454 49.8273 26.2628 50.3182 26.1C50.8091 25.8537 51.3 25.5273 51.7091 25.1182L50.8909 24.2174C50.6455 24.5446 50.2364 24.7901 49.9091 24.9537C49.5819 25.1174 49.2546 25.1992 48.9273 25.1174C48.5182 25.1174 48.1091 25.0347 47.7827 24.7901C47.4554 24.6264 47.1273 24.2992 46.9645 23.9719C46.8 23.6454 46.6364 23.2364 46.7182 22.8273V22.7454C46.5546 21.7636 47.6182 20.8636 48.7637 20.8636Z" fill="white"/>
<path d="M69.5454 11.7C64.8817 9.81818 59.5635 10.8818 55.9635 14.4C52.3635 17.9182 51.3817 23.3182 53.3454 27.9818C55.3082 32.6455 59.8908 35.5909 64.8817 35.5909C71.6726 35.5909 77.2371 30.0273 77.1545 23.1545C77.2363 18.1636 74.209 13.6636 69.5454 11.7ZM64.9635 34.2818C58.8272 34.2 53.9181 29.2909 53.9181 23.1545C53.9181 17.0182 58.8272 12.1091 64.9635 12.0273C71.0999 12.0273 76.0908 17.0182 76.0908 23.1545C76.0908 29.2909 71.0999 34.2818 64.9635 34.2818Z" fill="#E99D31"/>
<path d="M66.6818 19.9636L64.2273 26.2628H65.5364L66.0281 24.9537H68.6463L69.1372 26.2628H70.4463L67.9917 19.9636H66.6818ZM66.4364 23.8091L67.3364 21.6818L68.1546 23.8091H66.4364Z" fill="white"/>
<path d="M8.50918 22.7455C8.75463 22.419 8.83645 22.0909 8.83645 21.6818C8.83645 21.2727 8.75463 20.9455 8.591 20.6182C8.42736 20.3727 8.18191 20.1265 7.85463 19.9636C7.36373 19.8 6.791 19.7182 6.30009 19.8H4.90918V26.2636H6.13645V23.5636H6.21827L7.691 26.2636H9.08191L7.52736 23.4C7.93645 23.3182 8.26372 23.0727 8.50918 22.7455ZM6.54554 22.3364H6.13645V21.0273H6.54554C6.791 21.0273 6.95463 21.0273 7.20009 21.1091C7.44554 21.1917 7.60918 21.4364 7.60918 21.6818C7.60918 21.8455 7.52736 22.0909 7.36372 22.1727C7.11827 22.3364 6.87282 22.4182 6.54554 22.3364Z" fill="white"/>
<path d="M2.86364 20.0455C2.37273 19.8818 1.8 19.8 1.30909 19.8818H0V26.3455H1.22727V23.6455C1.63636 23.6455 2.12727 23.6455 2.53636 23.5628C2.94545 23.4818 3.27273 23.2364 3.51818 22.9091C3.76364 22.5818 3.92727 22.1727 3.84545 21.7636C3.84545 21.4372 3.76364 21.0281 3.6 20.7C3.43636 20.3727 3.19091 20.1273 2.86364 20.0455ZM2.53636 22.0909C2.45455 22.1727 2.37273 22.2546 2.20909 22.3364C1.96364 22.4182 1.8 22.4182 1.55455 22.4182H1.22727V21.1091H1.63636C1.88182 21.1091 2.12727 21.1091 2.37273 21.1917C2.53636 21.2727 2.7 21.5182 2.7 21.7636C2.7 21.8455 2.61818 22.0091 2.53636 22.0909Z" fill="white"/>
<path d="M58.0909 11.2909C59.8909 10.1455 62.0181 9.49091 64.1454 9.49091C63.8991 8.67273 62.9999 5.31818 64.5545 2.12727C62.8355 3.43636 61.9363 5.56364 62.0999 7.77273C62.0999 7.77273 60.2999 2.94545 57.8454 0C57.5181 3.76364 58.6636 8.83636 58.6636 8.83636C57.5999 6.95455 55.7173 5.64545 53.509 5.56364C56.6999 7.28182 57.8454 10.4727 58.0909 11.2909Z" fill="#E99D31"/>
<path d="M43.1182 19.8818V26.2636H44.3454V19.8818H43.1182Z" fill="white"/>
<path d="M12.4363 19.8818L9.8999 26.3454H11.209L11.7817 25.0355H14.3999L14.8908 26.3454H16.1999L13.6635 19.8818H12.4363ZM12.1908 23.8091L13.0908 21.6L13.9908 23.8083H12.1908V23.8091Z" fill="white"/>
<path d="M34.8545 19.8818L32.3181 26.3454H33.5454L34.1181 25.0355H36.8181L37.309 26.3454H38.6181L36.0817 19.8818H34.8545ZM34.609 23.8091L35.509 21.6008L36.409 23.8091H34.609Z" fill="white"/>
<path d="M38.4546 21.0273H39.6V26.2636H40.9091V21.0273H42.1364V19.8818H38.4546V21.0273Z" fill="white"/>
<path d="M29.2091 19.8818L27.6545 24.3818L26.1818 19.8818H24.9545L23.8091 26.3454H25.0364L25.7727 22.2545L27.0818 26.2636H28.2273L29.6182 22.1727L30.2727 26.2636H31.5L30.4364 19.8818H29.2091Z" fill="white"/>
<path d="M19.8819 24.2182H21.7637C21.6001 24.5454 21.3546 24.8735 21.0274 25.0364C20.7001 25.2 20.291 25.2826 19.9637 25.2826C19.3092 25.2826 18.7365 25.0364 18.3274 24.6273C17.9183 24.2182 17.6728 23.6454 17.6728 23.0727C17.6728 22.5 17.9183 21.9273 18.3274 21.5182C18.7365 21.1091 19.3092 20.8636 19.9637 20.8636C20.7001 20.8636 21.4365 21.1909 21.9274 21.7636L22.8274 20.9454C22.5001 20.5364 22.091 20.2099 21.6001 20.0454C21.1092 19.8 20.5365 19.7182 19.9637 19.7182C18.9819 19.7182 18.0001 20.1273 17.3456 20.8636C16.7728 21.4364 16.4456 22.2545 16.4456 23.0727C16.4456 23.6454 16.6092 24.3 16.9365 24.7909C17.2637 25.2826 17.6728 25.7727 18.1637 26.0182C18.7365 26.3454 19.391 26.4273 19.9637 26.4273C20.5365 26.4273 21.1092 26.2636 21.6001 26.0182C22.5819 25.4454 23.1546 24.3818 23.2365 23.2372V22.9909H19.9637V24.2182H19.8819Z" fill="white"/>
</g>
<defs>
<clipPath id="clip0_481_13784">
<rect width="81.8182" height="36" fill="white"/>
</clipPath>
</defs>
</svg>
