<svg width="113" height="36" viewBox="0 0 113 36" fill="none" xmlns="http://www.w3.org/2000/svg">
<mask id="mask0_6482_530286" style="mask-type:luminance" maskUnits="userSpaceOnUse" x="0" y="8" width="113" height="20">
<path d="M113 8H0V28H113V8Z" fill="white"/>
</mask>
<g mask="url(#mask0_6482_530286)">
<path fill-rule="evenodd" clip-rule="evenodd" d="M33.9042 8H39.9114C39.6663 8.20913 39.4669 8.47375 39.3548 8.84934C38.528 8.88775 37.6971 9.00726 36.8704 9.21639C35.944 9.45113 35.138 10.0188 35.138 10.9962C35.138 11.312 35.2211 11.6108 35.3624 11.8711L35.3541 11.6662L35.4787 11.6022C35.5909 11.5425 35.7113 11.4913 35.8277 11.44C36.1268 11.312 36.4384 11.2053 36.7499 11.1157C38.5779 10.5864 41.2699 10.5864 43.0979 11.1157C43.4095 11.2053 43.721 11.3163 44.0202 11.44C44.1365 11.487 44.257 11.5425 44.3691 11.6022L44.4938 11.6662L44.4855 11.8711C44.6267 11.6108 44.7098 11.312 44.7098 10.9962C44.7098 10.0188 43.9038 9.4426 42.9774 9.21639C42.0967 9.00299 41.2159 8.87494 40.3352 8.84507C40.518 8.60606 40.8005 8.45241 41.083 8.30303C41.2616 8.20487 41.4403 8.11097 41.6023 8H45.9436C46.5336 8 47.0155 8.49509 47.0155 9.10115V26.8946C47.0155 27.5007 46.5336 27.9958 45.9436 27.9958H33.9042C33.3142 27.9958 32.8323 27.5007 32.8323 26.8946V9.10115C32.8282 8.49509 33.3101 8 33.9042 8ZM40.8213 16.6641C42.3459 15.7721 43.0439 14.7435 43.1311 13.0406C42.5121 15.1234 41.6064 16.1306 40.8213 16.6641ZM35.6781 14.0009C35.8941 16.9885 39.0349 17.2403 39.9239 18.9305C40.813 17.2403 43.9537 16.9842 44.1697 14.0009L44.2694 11.7985C42.1216 10.6504 37.7304 10.6504 35.5825 11.7985L35.6781 14.0009Z" fill="url(#paint0_linear_6482_530286)"/>
<path fill-rule="evenodd" clip-rule="evenodd" d="M17.4859 8H29.5254C30.1153 8 30.5972 8.49509 30.5972 9.10115V26.8946C30.5972 27.5007 30.1153 27.9958 29.5254 27.9958H17.4859C16.896 27.9958 16.4141 27.5007 16.4141 26.8946V9.10115C16.4141 8.49509 16.896 8 17.4859 8ZM24.4695 21.6876C25.9942 20.7956 26.6921 19.767 26.7793 18.064C26.1603 20.1468 25.2547 21.1541 24.4695 21.6876ZM19.264 19.1865C19.48 22.1741 22.6208 22.4302 23.5098 24.1161C24.3989 22.426 27.5396 22.1698 27.7556 19.1865L27.8553 16.9842C25.7075 15.8361 21.3163 15.8361 19.1685 16.9842L19.264 19.1865ZM22.9407 14.035C22.1139 14.0734 21.2831 14.1929 20.4563 14.4021C19.5299 14.6368 18.7239 15.2044 18.7239 16.1818C18.7239 16.4977 18.807 16.7964 18.9483 17.0568L18.94 16.8519L19.0646 16.7879C19.1768 16.7282 19.2972 16.6769 19.4136 16.6257C19.7127 16.4977 20.0243 16.391 20.3359 16.3013C22.1638 15.7721 24.8559 15.7721 26.6838 16.3013C26.9954 16.391 27.307 16.5019 27.6061 16.6257C27.7224 16.6727 27.8429 16.7282 27.955 16.7879L28.0797 16.8519L28.0714 17.0568C28.2126 16.7964 28.2957 16.4977 28.2957 16.1818C28.2957 15.2044 27.4897 14.6283 26.5633 14.4021C25.6826 14.1887 24.8018 14.0606 23.9211 14.0307C24.1039 13.7917 24.3864 13.6381 24.6689 13.4887C25.2921 13.1515 25.8986 12.8229 25.9734 11.8796C24.8185 12.029 25.4001 11.9735 24.2618 12.6948C23.7134 12.9936 23.1525 13.2966 22.9407 14.035Z" fill="url(#paint1_linear_6482_530286)"/>
<path fill-rule="evenodd" clip-rule="evenodd" d="M1.07184 8H2.80423L2.84577 8.9347C3.0618 11.9223 6.20255 12.1741 7.0916 13.8643C7.9806 12.1741 11.1214 11.9181 11.3374 8.9347L11.379 8H13.1113C13.7013 8 14.1832 8.49509 14.1832 9.10115V26.8946C14.1832 27.5007 13.7013 27.9958 13.1113 27.9958H11.3831L11.4371 26.8135C9.28925 25.6654 4.89805 25.6654 2.75022 26.8135L2.80423 27.9958H1.07184C0.481912 28 0 27.5007 0 26.8946V9.10115C0 8.49509 0.481912 8 1.07184 8ZM10.3819 8C9.7712 9.77977 8.94445 10.6803 8.21745 11.1711C9.60085 10.3602 10.3029 9.43406 10.4858 8H10.3819ZM6.5266 23.8686C5.69985 23.9069 4.86897 24.0264 4.04224 24.2356C3.11581 24.4704 2.30985 25.038 2.30985 26.0154C2.30985 26.3312 2.39294 26.63 2.53419 26.8903L2.52588 26.6854L2.65052 26.6215C2.76269 26.5617 2.88316 26.5105 2.99949 26.4592C3.2986 26.3312 3.61019 26.2245 3.92177 26.1348C5.7497 25.6056 8.44175 25.6056 10.2697 26.1348C10.5813 26.2245 10.8929 26.3354 11.192 26.4592C11.3083 26.5062 11.4288 26.5617 11.5409 26.6215L11.6656 26.6854L11.6573 26.8903C11.7985 26.63 11.8816 26.3312 11.8816 26.0154C11.8816 25.038 11.0757 24.4618 10.1493 24.2356C9.2685 24.0222 8.38775 23.8941 7.507 23.8643C7.6898 23.6252 7.9723 23.4716 8.2548 23.3223C8.878 22.9851 9.4845 22.6564 9.5593 21.7132C8.4044 21.8625 8.986 21.8071 7.8477 22.5284C7.2993 22.8229 6.73845 23.1259 6.5266 23.8686Z" fill="url(#paint2_linear_6482_530286)"/>
<path fill-rule="evenodd" clip-rule="evenodd" d="M58.6435 19.5024C61.0575 19.5024 62.5405 17.9616 62.5405 15.866V15.8362C62.5405 13.7705 61.103 12.9766 59.6325 12.7205L62.3705 10.0359V8.19214H55.0545V10.2877H59.3085L56.7245 12.9553L57.094 14.5131H58.083C59.4125 14.5131 60.2015 15.021 60.2015 15.9258V15.9557C60.2015 16.7837 59.566 17.3044 58.6685 17.3044C57.572 17.3044 56.799 16.8264 56.0555 15.9685L54.423 17.5818C55.3495 18.7086 56.6955 19.5024 58.6435 19.5024Z" fill="white"/>
<path fill-rule="evenodd" clip-rule="evenodd" d="M74.634 19.5023C77.974 19.5023 80.4005 16.9116 80.4005 13.7491V13.7192C80.4005 10.5566 78.003 8 74.663 8C71.323 8 68.8965 10.5907 68.8965 13.7491V13.7789C68.8965 16.9458 71.294 19.5023 74.634 19.5023ZM74.663 17.2445C72.7435 17.2445 71.385 15.6568 71.385 13.7491V13.7192C71.385 11.8114 72.7145 10.2578 74.634 10.2578C76.5535 10.2578 77.912 11.8455 77.912 13.7533V13.7832C77.912 15.691 76.5825 17.2445 74.663 17.2445Z" fill="white"/>
<path fill-rule="evenodd" clip-rule="evenodd" d="M80.895 19.3104H83.321L84.3095 16.8179H88.888L89.8765 19.3104H92.365L87.733 8.11108H85.5355L80.895 19.3104ZM85.1655 14.6582L86.603 11.0518L88.0405 14.6582H85.1655Z" fill="white"/>
<path fill-rule="evenodd" clip-rule="evenodd" d="M94.0396 19.3104H96.4241V15.913L97.6746 14.5771L101.031 19.3104H103.89L99.2821 12.9083L103.69 8.19214H100.815L96.4241 13.0535V8.19214H94.0396V19.3104Z" fill="white"/>
<path fill-rule="evenodd" clip-rule="evenodd" d="M109.024 19.4725C111.359 19.4725 113 18.2348 113 16.0239V15.9941C113 14.0563 111.762 13.2455 109.568 12.6565C107.699 12.1656 107.233 11.9266 107.233 11.1968V11.1626C107.233 10.6206 107.711 10.1938 108.625 10.1938C109.539 10.1938 110.482 10.6078 111.438 11.2907L112.676 9.4469C111.579 8.54208 110.233 8.03418 108.654 8.03418C106.444 8.03418 104.865 9.37007 104.865 11.3846V11.4145C104.865 13.621 106.274 14.2442 108.455 14.8161C110.266 15.2941 110.636 15.61 110.636 16.2288V16.2587C110.636 16.9117 110.05 17.3086 109.074 17.3086C107.836 17.3086 106.818 16.7836 105.842 15.9599L104.433 17.6927C105.73 18.8835 107.387 19.4725 109.024 19.4725Z" fill="white"/>
<path fill-rule="evenodd" clip-rule="evenodd" d="M56.799 27.9999C57.626 27.9999 58.2655 27.667 58.731 27.2615V25.247H56.766V26.1305H57.767V26.792C57.5135 26.9798 57.194 27.0694 56.8325 27.0694C56.0305 27.0694 55.4655 26.4463 55.4655 25.597V25.5842C55.4655 24.7946 56.039 24.1373 56.762 24.1373C57.2855 24.1373 57.597 24.308 57.9415 24.6068L58.569 23.83C58.0995 23.4203 57.605 23.1941 56.795 23.1941C55.428 23.1941 54.427 24.2739 54.427 25.597V25.6098C54.423 26.9841 55.391 27.9999 56.799 27.9999Z" fill="white"/>
<path fill-rule="evenodd" clip-rule="evenodd" d="M65.4985 27.919H66.512L66.9235 26.8776H68.8345L69.246 27.919H70.2845L68.3485 23.2412H67.4305L65.4985 27.919ZM67.281 25.977L67.883 24.4704L68.4855 25.977H67.281Z" fill="white"/>
<path fill-rule="evenodd" clip-rule="evenodd" d="M77.193 27.919H78.165V24.9058L79.424 26.8733H79.453L80.7245 24.8887V27.919H81.713V23.2754H80.6415L79.453 25.2387L78.265 23.2754H77.193V27.919Z" fill="white"/>
<path d="M90.0385 23.2754H89.0455V27.919H90.0385V23.2754Z" fill="white"/>
<path fill-rule="evenodd" clip-rule="evenodd" d="M97.371 27.919H98.3555V24.9655L100.545 27.919H101.388V23.2754H100.408V26.1349L98.289 23.2754H97.371V27.919Z" fill="white"/>
<path fill-rule="evenodd" clip-rule="evenodd" d="M110.852 27.9999C111.679 27.9999 112.319 27.667 112.784 27.2615V25.247H110.819V26.1305H111.82V26.792C111.567 26.9798 111.247 27.0694 110.885 27.0694C110.084 27.0694 109.514 26.4463 109.514 25.597V25.5842C109.514 24.7946 110.088 24.1373 110.811 24.1373C111.334 24.1373 111.646 24.308 111.99 24.6068L112.618 23.83C112.148 23.4203 111.654 23.1941 110.844 23.1941C109.477 23.1941 108.476 24.2739 108.476 25.597V25.6098C108.476 26.9841 109.448 27.9999 110.852 27.9999Z" fill="white"/>
</g>
<defs>
<linearGradient id="paint0_linear_6482_530286" x1="46.3185" y1="8.78395" x2="33.2111" y2="26.6784" gradientUnits="userSpaceOnUse">
<stop stop-color="#F8B900"/>
<stop offset="1" stop-color="#E67508"/>
</linearGradient>
<linearGradient id="paint1_linear_6482_530286" x1="29.904" y1="8.78399" x2="16.7965" y2="26.6784" gradientUnits="userSpaceOnUse">
<stop stop-color="#F8B900"/>
<stop offset="1" stop-color="#E67508"/>
</linearGradient>
<linearGradient id="paint2_linear_6482_530286" x1="13.4894" y1="8.78395" x2="0.381925" y2="26.6784" gradientUnits="userSpaceOnUse">
<stop stop-color="#F8B900"/>
<stop offset="1" stop-color="#E67508"/>
</linearGradient>
</defs>
</svg>
