<?xml version="1.0" encoding="utf-8"?>
<!-- Generator: Adobe Illustrator 24.1.3, SVG Export Plug-In . SVG Version: 6.00 Build 0)  -->
<svg version="1.1" id="Слой_1" xmlns="http://www.w3.org/2000/svg" xmlns:xlink="http://www.w3.org/1999/xlink" x="0px" y="0px"
	 viewBox="0 0 100 33" style="enable-background:new 0 0 100 33;" xml:space="preserve">
<style type="text/css">
	.st0{fill:#A1D0EE;}
	.st1{fill:#030422;}
	.st2{fill:#06158A;}
	.st3{fill:#294FBA;}
	.st4{fill:#555F8C;}
	.st5{fill:#388CD5;}
	.st6{fill:#96ABD2;}
	.st7{fill:#F3F4F9;}
</style>
<desc>Created with sketchtool.</desc>
<g id="Icons">
	<g id="Artboard" transform="translate(-580.000000, -145.000000)">
		<g id="Group-22" transform="translate(580.000000, 145.000000)">
			<path id="Combined-Shape" class="st0" d="M44.5,8.6h4.4V9c0,0.8-0.1,1.5-0.3,2.1s-0.5,1.1-0.9,1.6c-1,1.1-2.2,1.7-3.8,1.7
				c-1.5,0-2.8-0.5-3.8-1.6c-1.1-1.1-1.6-2.4-1.6-3.9c0-1.6,0.5-2.9,1.6-4s2.4-1.6,3.9-1.6c0.8,0,1.6,0.2,2.3,0.5s1.4,0.9,2,1.7
				l-1.1,1.1c-0.9-1.2-1.9-1.8-3.2-1.8c-1,0-2,0.4-2.7,1.2c-0.8,0.8-1.1,1.7-1.1,2.9s0.4,2.2,1.3,2.9c0.8,0.7,1.7,1.1,2.6,1.1
				c0.8,0,1.5-0.3,2.1-0.8s1-1.2,1.1-1.9h-2.7L44.5,8.6L44.5,8.6z M56.7,5h-4.3v2.6h4.1v1.5h-4.1v3.6h4.3v1.5h-5.9V3.5h5.9V5z
				 M58.7,14.2V2.8l7.8,8.2V3.5h1.6v11.4l-7.8-8.2v7.5H58.7z M76.4,5h-4.3v2.6h4.1v1.5h-4.1v3.6h4.3v1.5h-5.9V3.5h5.9V5z M84.4,5.1
				l-1.3,0.8c-0.2-0.4-0.5-0.7-0.7-0.8c-0.2-0.1-0.5-0.2-0.9-0.2S80.7,5,80.4,5.3C80.1,5.4,80,5.8,80,6.1c0,0.5,0.4,0.9,1.2,1.3
				l1.1,0.4c0.9,0.4,1.5,0.8,1.9,1.3s0.6,1.1,0.6,1.9c0,1-0.3,1.8-1,2.4s-1.5,1-2.4,1s-1.7-0.3-2.3-0.8c-0.6-0.6-1-1.3-1.1-2.3
				l1.6-0.4c0.1,0.6,0.2,1.1,0.4,1.3c0.3,0.5,0.8,0.7,1.4,0.7c0.5,0,0.9-0.2,1.2-0.5c0.3-0.3,0.5-0.8,0.5-1.3c0-0.2,0-0.4-0.1-0.6
				c-0.1-0.2-0.1-0.3-0.3-0.5c-0.1-0.1-0.3-0.3-0.5-0.4s-0.4-0.2-0.7-0.4l-1-0.4c-1.5-0.6-2.2-1.5-2.2-2.7c0-0.8,0.3-1.5,0.9-2
				s1.4-0.8,2.3-0.8C82.8,3.3,83.7,3.9,84.4,5.1z M88.1,3.5v10.7h-1.6V3.5H88.1z M96.6,5.1l-1.3,0.8C95,5.4,94.8,5.2,94.6,5
				c-0.2-0.1-0.5-0.2-0.9-0.2s-0.8,0.1-1.1,0.4c-0.3,0.2-0.4,0.6-0.4,0.9c0,0.5,0.4,0.9,1.2,1.3l1.1,0.4c0.9,0.4,1.5,0.8,1.9,1.3
				S97,10.2,97,11c0,1-0.3,1.8-1,2.4c-0.7,0.6-1.5,1-2.4,1s-1.7-0.3-2.3-0.8c-0.6-0.6-1-1.3-1.1-2.3l1.6-0.4
				c0.1,0.6,0.2,1.1,0.4,1.3c0.3,0.5,0.8,0.7,1.4,0.7c0.5,0,0.9-0.2,1.2-0.5c0.3-0.3,0.5-0.8,0.5-1.3c0-0.2,0-0.4-0.1-0.6
				c-0.1-0.2-0.1-0.3-0.3-0.5c-0.1-0.1-0.3-0.3-0.5-0.4S94,9.4,93.7,9.3l-1-0.4c-1.5-0.6-2.2-1.5-2.2-2.7c0-0.8,0.3-1.5,0.9-2
				s1.4-0.8,2.3-0.8C94.9,3.3,95.9,3.9,96.6,5.1z M44.5,22.9h4.4v0.4c0,0.8-0.1,1.5-0.3,2.1s-0.5,1.1-0.9,1.6
				c-1,1.1-2.2,1.7-3.8,1.7c-1.5,0-2.8-0.5-3.8-1.6c-1.1-1.1-1.6-2.4-1.6-3.9c0-1.6,0.5-2.9,1.6-4s2.4-1.6,3.9-1.6
				c0.8,0,1.6,0.2,2.3,0.5s1.4,0.9,2,1.7l-1.1,1.1c-0.9-1.2-1.9-1.8-3.2-1.8c-1.1,0-2.1,0.4-2.8,1.2c-0.8,0.8-1.1,1.7-1.1,2.9
				c0,1.2,0.4,2.2,1.3,2.9c0.8,0.7,1.7,1.1,2.6,1.1c0.8,0,1.5-0.3,2.1-0.8s1-1.2,1.1-1.9h-2.7V22.9z M56.6,25.8H52l-1.2,2.6h-1.7
				L54.4,17l5.1,11.4h-1.8L56.6,25.8z M55.9,24.3l-1.6-3.6l-1.7,3.6H55.9z M60.3,28.4l2.2-11.5l3.6,8.3l3.8-8.3l2,11.5h-1.6l-1-6.5
				l-3.1,7l-3.1-7L62,28.4H60.3z M75.8,17.7v10.7h-1.6V17.7H75.8z M78.2,28.4V17l7.8,8.2v-7.4h1.6v11.4L79.8,21v7.5h-1.6V28.4z
				 M95.6,22.9h4.4v0.4c0,0.8-0.1,1.5-0.3,2.1c-0.2,0.6-0.5,1.1-0.9,1.6c-1,1.1-2.2,1.7-3.8,1.7c-1.5,0-2.8-0.5-3.8-1.6
				c-1.1-1.1-1.6-2.4-1.6-3.9c0-1.6,0.5-2.9,1.6-4s2.4-1.6,3.9-1.6c0.8,0,1.6,0.2,2.3,0.5c0.7,0.3,1.4,0.9,2,1.7l-1.1,1.1
				c-0.9-1.2-1.9-1.8-3.2-1.8c-1.1,0-2.1,0.4-2.8,1.2c-0.8,0.8-1.1,1.7-1.1,2.9c0,1.2,0.4,2.2,1.3,2.9c0.8,0.7,1.7,1.1,2.6,1.1
				c0.8,0,1.5-0.3,2.1-0.8s1-1.2,1.1-1.9h-2.7V22.9z"/>
		</g>
	</g>
</g>
<g>
	<path class="st1" d="M14.7,32.8c-3.7-0.5-7-2-9.6-4.6C1.6,25-0.2,20.6,0,15.8c0.1-2.7,0.6-4.4,1.7-6.8C4,4.5,8.4,1.2,13.5,0.3
		C15.1,0,18,0,19.6,0.3c1.7,0.4,2.9,0.8,4.3,1.5c4.6,2.3,7.8,6.7,8.7,11.8c0.3,1.5,0.3,4.2,0,5.6c-1.2,6.8-6.4,12-13.1,13.4
		C18.5,32.8,15.5,32.9,14.7,32.8z"/>
	<path class="st2" d="M14.7,32.8c-3.7-0.5-7-2-9.6-4.6c-1.5-1.4-2.5-2.8-3.4-4.7C0.5,21.2,0,18.9,0,16.3v-1.4l0.1,1.5
		c0.1,1.5,0.2,2,0.2,1c0-0.5,0.4-2.8,0.7-3.8c0.1-0.2,0.1-0.6,0.1-0.8C1.2,11,2.6,8,4.3,6.1C4.9,5.5,5,5.3,4.6,5.6
		C3.7,6.3,3.1,6.9,2.8,7.3C2.6,7.7,2.4,7.9,2.4,7.9C2.1,7.9,4,5.6,5.1,4.6c2.3-2.2,5.3-3.7,8.4-4.3C15.1,0,18,0,19.6,0.3
		C23,1,25.8,2.6,28.2,5c0.6,0.6,1.2,1.3,1.4,1.6c0.3,0.4,0.3,0.4,0,0.1c-0.7-0.9-1.5-1.6-1.6-1.6S27.7,5,27.5,4.8
		c-0.2-0.2,0,0,0.4,0.5c1.8,1.8,3.1,4.1,3.6,6.1c0.2,1,0.4,1.8,0.9,3.3c0.1,0.4,0.2,0.8,0.3,1c0.1,0.3,0.1,0.3,0.2,0.2
		c0.2-0.2,0,2.2-0.2,3.5c-1.1,6.6-6.4,11.9-13.1,13.2C18.5,32.8,15.5,32.9,14.7,32.8z M7.3,27c0-0.1-0.3-0.3-0.6-0.5l-0.5-0.4
		l0.5,0.5C7.3,27.1,7.4,27.2,7.3,27z M6.1,25.9c0,0-0.2-0.2-0.4-0.4l-0.4-0.3l0.3,0.4C5.9,25.8,6.1,26,6.1,25.9z M25.9,4.9
		c0-0.1-1.5-1-2.3-1.4C22.7,3,20.7,2.4,20,2.3c-0.3,0,0,0.1,0.6,0.2c0.6,0.2,1.5,0.4,2,0.7c1.1,0.4,2.7,1.4,2.9,1.6
		C25.4,4.9,25.9,5,25.9,4.9z M15.8,2c-0.2,0-0.4,0-0.5,0c-0.2,0,0,0,0.3,0C15.8,2.1,15.9,2.1,15.8,2z M18.2,2c-0.2,0-0.5,0-0.7,0
		s0,0,0.3,0C18.2,2.1,18.4,2.1,18.2,2z"/>
	<path class="st3" d="M14.7,32.8c-3.7-0.5-7-2-9.6-4.6c-2.7-2.5-4.3-5.8-4.9-9.4C0,17.1,0,16.5,0.3,18.1c0.6,3.4,2.1,6.4,4.6,8.9
		c2.4,2.4,5.3,4,8.7,4.6c1.5,0.3,4.4,0.3,5.9,0c6.8-1.3,12-6.6,13.2-13.4c0.1-0.8,0.2-0.8,0.2-0.3c0,1.5-0.7,4.2-1.7,6.2
		c-2.3,4.5-6.5,7.7-11.5,8.6C18.5,32.8,15.5,32.9,14.7,32.8z"/>
	<path class="st3" d="M15.3,30.3c-0.2,0-0.7-0.1-1.2-0.2c-2.9-0.4-6.2-2.2-8.2-4.6C1.1,20,1.2,11.8,6.3,6.5C9.1,3.6,12.6,2,16.6,2
		C19,2,21,2.4,22.9,3.3c1,0.4,2.4,1.2,2.4,1.4c0,0-0.9,0.4-2.1,0.8l-2.1,0.8L20.3,6c-2.3-0.8-5.2-0.5-7.4,0.7
		C11.4,7.6,10,9,9.2,10.5c-0.5,0.9-0.4,0.8,1.1-0.7c2.3-2.4,4.4-3.4,7.2-3.4c1.2,0,1.6,0.1,2.6,0.3L21.3,7l1.6-0.5
		C25,5.8,26,5.3,26.1,5c0.1-0.5-2.6-2-4.7-2.7s-5-0.9-7.2-0.6C8.2,2.8,3.1,7.8,2.1,14c-0.1,0.6-0.2,1.3-0.2,1.6s0,0.4-0.1,0.4
		c-0.3,0-0.6-3-0.4-4.3c0.3-1.7,1.6-4,3.4-6c0.6-0.7,1-1.2,0.9-1.2C5.6,4.3,7.4,3.2,9,2.3c2.9-1.4,4.8-1.8,8.1-1.7
		c2.2,0.1,3,0.2,4.7,0.8c1.2,0.4,3.1,1.3,4.2,2c0.9,0.6,1.4,1.1,0.9,0.8c-0.2-0.1,0.1,0.2,0.6,0.7c1.6,1.5,2.8,3.3,3.6,5.2
		c0.3,0.8,0.4,1.2,0.4,2.3c0.1,1.4,0,2.8-0.2,2.5c0-0.1-0.1-0.6-0.2-1c-0.3-1.8-1.1-3.9-2.3-5.6c-0.7-1-0.9-1.1-1.6-0.9
		c-0.3,0.1-0.6,0.2-0.7,0.4c-0.1,0.1-0.4,0.3-0.6,0.4c-0.2,0.1-0.4,0.2-0.4,0.2s0.2,0,0.4-0.1C26,8.2,26.5,8,27,7.9l0.8-0.2l0.5,0.7
		c2.8,4.3,3.1,9.5,0.9,14c-2.1,4.4-6.2,7.3-11.1,7.9C17.1,30.4,15.9,30.4,15.3,30.3z M27.3,13.8c-0.1-0.4-0.2-0.8-0.2-0.9
		c-0.1,0-1.1,0.2-1.1,0.3c0,0.1,0.3,0.7,0.4,0.6c0,0,0.2,0,0.4,0c0.3,0,0.3-0.1,0.5,1.7l0.1,0.7v-0.8C27.4,15,27.4,14.2,27.3,13.8z"
		/>
	<path class="st3" d="M32.8,16.5c0-0.4,0-0.5,0-0.3s0,0.5,0,0.7C32.8,17.1,32.8,16.9,32.8,16.5z"/>
	<path class="st3" d="M3.7,6C4,5.6,4.6,5,5,4.6C5.7,4,5.6,4,4.8,5C3.3,6.5,3.2,6.6,3.7,6z"/>
	<path class="st3" d="M4.9,5.1c0.3-0.4,0.8-0.7,0.8-0.6c0,0-0.2,0.3-0.6,0.5C4.6,5.5,4.6,5.5,4.9,5.1z"/>
	<path class="st3" d="M28,4.8l-0.6-0.6L28,4.8c0.6,0.5,0.7,0.6,0.6,0.6C28.6,5.4,28.3,5.1,28,4.8z"/>
	<path class="st3" d="M27.4,4.7c-0.2-0.2-0.3-0.3-0.2-0.3c0.1,0,0.2,0.1,0.4,0.3C27.9,5,27.9,5,27.4,4.7z"/>
	<path class="st3" d="M26.9,3.9l-0.3-0.4L26.9,3.9c0.2,0.2,0.4,0.3,0.4,0.3C27.3,4.3,27.2,4.2,26.9,3.9z"/>
	<path class="st3" d="M8.5,2.1c0-0.1,1-0.6,1-0.5c0,0-0.2,0.2-0.5,0.3C8.7,2,8.5,2.1,8.5,2.1z"/>
	<path class="st3" d="M14.4,0.1c0.1,0,0.4,0,0.5,0s0,0.1-0.3,0C14.3,0.2,14.3,0.2,14.4,0.1z"/>
	<path class="st3" d="M18.1,0.1c0.1,0,0.4,0,0.5,0s0,0.1-0.3,0C18,0.2,17.9,0.2,18.1,0.1z"/>
	<path class="st3" d="M15.9,0c0.3,0,0.7,0,1,0s0,0-0.5,0C15.9,0.1,15.7,0,15.9,0z"/>
	<path class="st4" d="M13.8,32.6c-2.1-0.3-4.6-1.3-6.1-2.3c-1-0.7-2.7-2.5-3.3-3.4C4.3,26.8,4.6,27,5,27.4c2.6,2.3,4.8,3.4,7.8,4.2
		c1.4,0.3,4.5,0.4,6,0.2c3.6-0.6,6.5-2.1,9.1-4.7c1.4-1.4,1.5-1.4,0.4,0.1c-1.7,2.5-4.8,4.4-8.4,5.3C18.5,32.8,15.4,32.9,13.8,32.6z
		"/>
	<path class="st4" d="M15.3,30.3c-0.2,0-0.7-0.1-1.2-0.2c-2.9-0.4-6.2-2.2-8.2-4.6C1.1,20,1.2,11.8,6.3,6.5C9.1,3.6,12.6,2,16.6,2
		C19,2,21,2.4,22.9,3.3c1,0.5,2.4,1.3,2.4,1.4c0,0.2-4.1,1.6-4.3,1.5c-0.1,0-0.7-0.2-1.2-0.3c-1.3-0.3-3.3-0.3-4.6,0
		c-3.3,0.8-5.7,3.2-6.7,6.4c-0.2,0.8-0.3,1.1-0.3,2.5c0,1.5,0,1.8,0.3,2.5l0.3,0.9l-0.1-0.8c0-0.4-0.1-1.3-0.1-2c0-1,0-1.3,0.3-1.8
		C9,13.3,9.2,13,9.3,12.9c0.1,0,0.3-0.4,0.5-0.8c0.8-1.8,2.8-3.6,4.9-4.4c0.7-0.3,1-0.3,2.5-0.3c1.6,0,1.8,0,2.8,0.3
		c0.6,0.2,1,0.4,1,0.4s-0.4,0.6-1,1c-0.6,0.4-1.1,0.7-1.1,0.8c0,0,0.2,0.1,0.4,0.2c0.2,0,0.3,0.1,0.3,0.2c-0.1,0.1,0,0.1,0.1,0
		s0.2-0.1,0.3,0.1c0.1,0.1,0.1,0.1,0.1,0c-0.1-0.1,0-0.1,0.1-0.1c0.1,0.1,0,0.2-0.2,0.4c-0.3,0.2-0.2,0.2,0.5-0.1
		c1.9-0.9,4.9-2.1,6.6-2.6l0.8-0.2l0.5,0.7c2.8,4.3,3.1,9.5,0.9,14c-2.1,4.4-6.2,7.3-11.1,7.9C17.1,30.4,15.9,30.4,15.3,30.3z
		 M26.4,19.3c0.6-1.1,0.9-2.3,1-3.6s-0.1-2.8-0.4-2.8c-0.2,0-2.1,0.7-3.2,1.1c-0.8,0.3-1,0.5-0.9,0.6s0.2,0.2,0.2,0.3
		c0,0.2,0.1,0.2,1.2,0c0.3-0.1,0.4,0,0.4,0.1s0.1,0.2,0.1,0.2c0.1,0,0.1,0,0-0.1c0-0.1,0-0.1,0.1-0.1s0.4,0,0.7-0.1l0.6-0.2v0.8
		c0,0.4-0.1,1.2-0.2,1.7s-0.2,1.3-0.2,1.8s0,0.9-0.1,0.9s-0.1,0,0,0.1c0,0,0,0.2-0.1,0.3c-0.1,0.1-0.2,0.3-0.2,0.4
		C25.4,20.9,26,20.1,26.4,19.3z"/>
	<path class="st4" d="M1.5,15.4c-0.2-0.9-0.3-2.8-0.1-3.8c0.4-2,1.8-4.3,3.9-6.4C6.5,4.1,6.6,3.9,6,4.3C5.7,4.5,5.5,4.6,5.6,4.5
		C6.5,3.6,9.4,2,11.3,1.4c2-0.7,2.9-0.8,5.3-0.8s3.4,0.2,5.2,0.7c1.9,0.6,4.3,2,5.7,3.2c0.6,0.5,0.4,0.4-0.6-0.4
		c-0.7-0.5-1.2-0.9-1.2-0.8c0,0,0.2,0.2,0.4,0.3c1.3,0.9,3.2,3,4.1,4.6c0.8,1.4,1.1,2.6,1.2,4s0,2.8-0.2,2.5c0-0.1-0.1-0.6-0.2-1
		c-0.3-1.8-1.1-3.9-2.3-5.6c-0.7-1-0.9-1.1-1.6-0.9c-0.3,0.1-0.5,0.2-0.6,0.3c-0.1,0.1-0.2,0.1-0.3-0.1C26.1,7.3,26,7.1,26,7.1
		s0-0.1,0,0c-0.1,0-0.2,0-0.4-0.1c-0.2-0.1-0.4-0.1-0.8,0c-0.6,0.2-0.8,0.1-0.2-0.1c0.2-0.1,0.5-0.2,0.6-0.3
		c0.2-0.2,0.2-0.2-0.1-0.1c-0.3,0-0.3,0-0.2-0.1c0.1-0.1,0.1-0.2,0-0.1c-0.1,0-0.2,0-0.3-0.1c-0.2-0.1-0.1-0.2,0.6-0.6
		c1.1-0.6,1.1-0.7,0-1.5c-2.6-1.7-5.3-2.5-8.5-2.5c-1.9,0-3,0.2-4.6,0.7C6.9,4.1,3,8.6,2.1,14c-0.1,0.6-0.2,1.3-0.2,1.6
		C1.9,16.1,1.7,16.1,1.5,15.4z"/>
	<path class="st5" d="M13.8,32.6c-2.1-0.3-4.6-1.3-6.1-2.3c-1-0.7-2.7-2.5-3.3-3.4C4.3,26.8,4.6,27,5,27.4c2.6,2.3,4.8,3.4,7.8,4.2
		c1.4,0.3,4.5,0.4,6,0.2c3.6-0.6,6.5-2.1,9.1-4.7c1.4-1.4,1.5-1.4,0.4,0.1c-1.7,2.5-4.8,4.4-8.4,5.3C18.5,32.8,15.4,32.9,13.8,32.6z
		"/>
	<path class="st5" d="M15.2,30.3C9.5,29.8,4.4,25.6,2.9,20C0.8,12.3,5.3,4.6,13.1,2.5c1.1-0.3,1.3-0.3,3.6-0.3s2.6,0,3.6,0.3
		c1.8,0.5,3.9,1.4,4.8,2.1c0.1,0.1-0.4,0.3-1.9,0.9l-2,0.8L20.4,6c-1.7-0.5-3.6-0.5-5.3-0.1C14.8,6,14,6.3,13.3,6.6
		c-1.1,0.5-1.4,0.7-2.4,1.7c-1.3,1.3-1.9,2.3-2.4,4c-0.2,0.8-0.3,1.1-0.3,2.5c0,1.5,0,1.8,0.3,2.5l0.3,0.9l-0.1-0.8
		c0-0.4-0.1-1.3-0.1-2c0-1,0-1.3,0.3-1.8C9,13.3,9.2,13,9.3,12.9c0.1,0,0.3-0.4,0.5-0.8c0.8-1.8,2.8-3.6,4.9-4.4
		c0.7-0.3,1-0.3,2.5-0.3c1.6,0,1.8,0,2.8,0.3c0.6,0.2,1,0.4,1,0.4s-0.5,0.4-1.1,0.8c-0.6,0.4-1.1,0.7-1.1,0.8c0,0,0.2,0.1,0.4,0.2
		c0.2,0,0.3,0.1,0.3,0.2c-0.1,0.1,0,0.1,0.1,0s0.2-0.1,0.3,0.1c0.1,0.1,0.1,0.1,0.1,0c-0.1-0.1,0-0.1,0.1-0.1c0.1,0.1,0,0.2-0.2,0.4
		c-0.3,0.2-0.2,0.2,0.5-0.1c1.9-0.9,6.6-2.7,7.2-2.7c0.2,0,1,1.2,1.5,2.2c1.7,3.4,1.9,7.8,0.5,11.4c-1.5,3.9-4.5,6.8-8.4,8.2
		C19.4,30.2,17.4,30.4,15.2,30.3z M26.4,19.3c0.6-1.1,0.9-2.3,1-3.6s-0.1-2.8-0.4-2.8s-2,0.6-3.1,1.1c-0.8,0.3-1,0.5-0.9,0.6
		s0.2,0.2,0.2,0.3c0,0.2,0.1,0.2,1.2,0c0.3-0.1,0.4,0,0.4,0.1s0.1,0.2,0.1,0.2c0.1,0,0.1,0,0-0.1c0-0.1,0-0.1,0.1-0.1s0.4,0,0.7-0.1
		l0.6-0.2v0.8c0,0.4-0.1,1.2-0.2,1.7s-0.2,1.3-0.2,1.8s0,0.9-0.1,0.9s-0.1,0,0,0.1c0,0,0,0.2-0.1,0.3c-0.1,0.1-0.2,0.3-0.2,0.4
		C25.4,20.9,26,20.1,26.4,19.3z"/>
	<path class="st5" d="M1.4,12.9c0-1.7,0.5-3.2,1.9-5.2c0.7-1,2.8-3.3,3.6-3.9l0.4-0.3L6.8,3.8C6.4,4,6.3,4,6.6,3.8
		C7.2,3.3,8.7,2.5,9.8,2c4.3-1.9,9.2-1.9,13.4-0.1c1,0.4,2.6,1.3,3.1,1.8c0.3,0.2,0.2,0.2-0.2-0.1c-0.3-0.2-0.7-0.4-0.8-0.5L25,3
		l0.3,0.2c1.5,1.1,3.1,2.7,4.1,4c0.6,0.9,1.6,3,1.7,3.6c0.1,0.5,0,0.5-0.1,0.2c-1.3-2.8-1.9-3.8-3.3-5.2c-1.9-2-4-3.3-6.4-3.9
		C16.2,0.7,10.6,1.6,7.2,4.3C6.1,5.2,4.6,6.8,4,7.7C3.2,8.9,2.4,10.6,2,12c-0.2,0.7-0.4,1.3-0.5,1.5C1.5,13.7,1.4,13.5,1.4,12.9z"/>
	<path class="st6" d="M15.2,30.3C9.5,29.8,4.4,25.6,2.9,20C0.8,12.3,5.3,4.6,13.1,2.5c1.1-0.3,1.3-0.3,3.6-0.3s2.6,0,3.6,0.3
		c1.8,0.5,3.9,1.4,4.8,2.1c0.1,0.1-0.4,0.3-1.9,0.9l-2,0.8L20.4,6c-1.7-0.5-3.6-0.5-5.3-0.1C14.8,6,14,6.3,13.3,6.6
		c-1.1,0.5-1.4,0.7-2.4,1.7s-1.2,1.3-1.7,2.4c-1.3,2.7-1.3,5.5,0,8.2c1.2,2.4,3.1,4,5.8,4.9c1.1,0.4,1.2,0.4,3,0.4
		c2,0,2.7-0.1,4.2-0.8c1.1-0.5,2.6-1.6,3.3-2.5c0.7-0.8,1.6-2.5,1.8-3.5c0.4-1.5,0.3-4.6-0.2-4.6c-0.3,0-2.3,0.7-3.6,1.3
		c-2.6,1.1-5.8,3.3-7.9,5.3l-1,1l-0.7-0.6c-0.8-0.7-1.4-1.3-2-2.2L11.3,17l1-0.9c2.8-2.7,6.9-5.2,11-6.8c1.3-0.5,4-1.4,4.3-1.4
		c0.2,0,1,1.2,1.5,2.2c1.7,3.4,1.9,7.8,0.5,11.4c-1.5,3.9-4.5,6.8-8.4,8.2C19.4,30.2,17.4,30.4,15.2,30.3z"/>
	<path class="st6" d="M19.4,20.5c0-1.3,0.1-1.8,0.2-2c0.5-0.6,4.6-2.9,5.5-3.1l0.4-0.1l-0.1,0.8c-0.3,3-2.7,5.6-5.5,6l-0.5,0.1V20.5
		z"/>
	<path class="st6" d="M9.8,15c0-1.3,0.2-2.4,0.7-3.4c0.4-0.8,1.4-2.2,1.7-2.2c0.1,0,0.1,0,0,0.1c0,0.1,0,0.2,0.1,0.2s0.1,0,0.1,0
		c0-0.1,0-0.1,0-0.1c0.1,0,0.1,0,0.1-0.1c-0.1-0.2,0-0.1,0.3,0.2C13,9.9,13,10,12.9,10.1c-0.1,0-0.1,0-0.1-0.1s0-0.1,0,0
		c-0.1,0-0.1,0.2-0.1,0.4s0,0.3-0.1,0.2s-0.1,0,0,0.1c0,0.1,0.1,0.3,0.1,0.6c0,0.2,0.1,0.4,0.1,0.5c0,0,0-0.1,0-0.2
		c0-0.2,0-0.3,0-0.3c0.2,0,0.1,0.6-0.1,0.7c-0.1,0.1-0.2,0.1-0.2,0s-0.1,0-0.1,0.1c-0.1,0.2-0.1,0.2-0.1,0c0-0.1,0.1-0.2,0.2-0.1
		c0.1,0,0.1,0,0.1,0c-0.2-0.2-0.4-0.1-0.4,0.1c0,0.1,0.1,0.3,0.2,0.5c0.1,0.2,0.2,0.3,0.2,0.4c0,0.1,0,0.1,0.1,0.2
		c0.1,0,0.1,0,0.1,0c0-0.1,0-0.1,0-0.1c0.1,0,0.1,0.1,0.1,0.3s0,0.2,0.1,0s0.1-0.2,0.1,0c0,0.1-0.3,0.5-0.7,0.8
		c-0.4,0.4-1,0.9-1.4,1.3c-0.4,0.4-0.8,0.8-1,0.9L9.8,16V15z"/>
	<path class="st6" d="M1.4,12.9c0-1.7,0.5-3.2,1.9-5.2c0.7-1,2.6-3.1,3.5-3.8l0.4-0.3L6.8,3.8C6.4,4,6.3,4,6.6,3.8
		C7.2,3.3,8.7,2.5,9.8,2c4.3-1.9,9.2-1.9,13.4-0.1c1,0.4,2.6,1.3,3.1,1.8c0.3,0.2,0.2,0.2-0.2-0.1c-0.3-0.2-0.7-0.4-0.8-0.5L25,3
		l0.3,0.2c1.5,1.1,3.1,2.7,4.1,4c0.6,0.9,1.6,3,1.7,3.6c0.1,0.5,0,0.5-0.1,0.2c-1.3-2.8-1.9-3.8-3.3-5.2c-1.9-2-4-3.3-6.4-3.9
		C17.7,1,14.1,1.1,10.7,2.3C8.8,3,7.2,4.1,5.5,5.9C3.9,7.6,2.7,9.6,2,12c-0.2,0.7-0.4,1.3-0.5,1.5C1.5,13.7,1.4,13.5,1.4,12.9z"/>
	<path class="st6" d="M13,11.2c0-0.1-0.1-0.2-0.2-0.3c-0.2-0.1-0.2-0.1,0-0.1C13,10.8,13.1,10.9,13,11.2c0.1,0.1,0.1,0.2,0.1,0.2
		S13,11.3,13,11.2z"/>
	<path class="st0" d="M13.6,29.7c-2.9-0.6-6.1-2.4-7.8-4.4C1.9,20.7,1.3,14.2,4.4,9.1c1.5-2.6,3.4-4.3,6.1-5.6c2-1,3.3-1.3,5.6-1.4
		c2.1-0.1,3.6,0.1,5.3,0.7c1,0.3,2.8,1.2,3.5,1.7c0.3,0.2,0.3,0.2,0.1,0.2c-0.4-0.1-0.4-0.1-2.3,0.6L20.9,6l-0.5-0.2
		c-0.6-0.2-2.3-0.5-3.2-0.5c-1,0-2.7,0.3-3.6,0.7c-2.3,0.9-3.9,2.5-5,4.8C8,12.1,7.8,13,7.8,14.6c0,2,0.5,3.7,1.6,5.3
		c0.5,0.8,2.2,2.4,3.1,3c5.3,3.6,12.7,1.2,14.6-4.8c0.4-1.2,0.5-3.1,0.3-4.4c-0.1-0.5-0.2-0.9-0.1-1.1c0-0.3-0.2-0.2-2.2,0.5
		c-3.6,1.3-6.6,3.2-9.9,6.1l-1,0.9l-0.5-0.4c-0.6-0.4-1.1-1-1.8-2L11.4,17l0.4-0.5c0.7-0.7,2.8-2.5,4.1-3.3c2.9-2,6.2-3.6,9.7-4.8
		c0.8-0.3,1.6-0.5,1.8-0.5l0.4-0.1l0.8,1.6c1.3,2.6,1.7,4.4,1.6,7.2c-0.1,3.5-1.4,6.4-3.8,9c-2.1,2.2-4.8,3.7-7.7,4.2
		C17.4,30,14.7,30,13.6,29.7z"/>
	<path class="st0" d="M19.4,20.5c0-1.2,0.1-1.8,0.2-2c0.5-0.6,3.3-2.2,5.1-2.9l0.6-0.2v0.5c0,2.8-2.6,5.9-5.4,6.3l-0.5,0.1
		L19.4,20.5z"/>
	<path class="st0" d="M7.9,3c0-0.1,2.4-1.2,3.4-1.5c1.9-0.6,3.2-0.8,5.2-0.8c2.2,0,3.8,0.3,5.6,0.9C23.1,2,25,2.8,25,2.9
		c0,0-0.3-0.1-0.6-0.2c-3-1.5-7.6-2-11.5-1.3c-1.1,0.2-3.1,0.9-4.2,1.4C8.3,2.9,7.9,3,7.9,3z"/>
	<path class="st7" d="M13.8,29.8c-2.5-0.4-4.6-1.4-6.8-3.1c-1.2-1-2.4-2.6-3.3-4.3c-0.9-1.9-1.3-3.7-1.3-6c0-3,0.7-5.5,2.3-7.9
		c2.2-3.3,6-5.6,9.9-6.2c2-0.3,4.8,0,6.7,0.6c1.2,0.4,4.2,2,3.3,1.7c-0.2,0-1,0.2-2.1,0.6c-1.8,0.7-1.9,0.7-2.2,0.5
		c-1.2-0.5-3.5-0.7-5.1-0.4C10,6.4,6.6,11.7,8,16.9c0.3,1.1,1.1,2.7,1.8,3.5c1,1.2,2.5,2.4,3.9,3.1c1.3,0.7,2.5,0.9,4.1,0.9
		c2.2,0,3.8-0.5,5.5-1.6c1.9-1.3,3.3-3.3,3.9-5.5c0.2-1,0.3-2.8,0.1-3.8c-0.1-0.4-0.1-0.8-0.1-1s0.1-0.3,0-0.3s-2.9,1-3.7,1.4
		c-2.9,1.3-6.2,3.4-8.7,5.7L14.1,20l-0.6-0.4c-0.6-0.4-1.4-1.4-1.9-2.2L11.3,17l0.9-0.8c2.8-2.6,6.3-4.8,9.9-6.3
		c2-0.9,5.6-2,5.6-1.8c0,0.1,0.3,0.7,0.7,1.4c1.2,2.3,1.6,4.2,1.6,6.7c0,3.2-0.9,5.8-2.8,8.3c-1.4,1.8-2.9,3.1-5,4.1
		C19.6,29.8,16.6,30.2,13.8,29.8z"/>
	<path class="st7" d="M8.2,2.9c0,0,0.4-0.3,1-0.5c3.8-1.8,7.6-2.2,11.4-1.2c1.1,0.3,3.6,1.2,3.5,1.3c0,0-0.5-0.1-1-0.3
		c-1.3-0.5-3.2-0.9-5-1.1C15,0.8,11.7,1.4,8.9,2.7C8.5,2.8,8.2,2.9,8.2,2.9z"/>
</g>
</svg>
