<?xml version="1.0" encoding="utf-8"?>
<!-- Generator: Adobe Illustrator 22.1.0, SVG Export Plug-In . SVG Version: 6.00 Build 0)  -->
<svg version="1.1" id="Слой_1" xmlns="http://www.w3.org/2000/svg" xmlns:xlink="http://www.w3.org/1999/xlink" x="0px" y="0px"
	 width="100px" height="20px" viewBox="0 0 100 20" style="enable-background:new 0 0 100 20;" xml:space="preserve">
<style type="text/css">
	.st0{fill:#FFFFFF;}
	.st1{fill:#FFA110;}
	.st2{fill:#FF0004;}
	.st3{fill:#00AA95;}
	.st4{fill:#FFE400;}
	.st5{fill:#009FEE;}
	.st6{fill:#FF007B;}
</style>
<title>485B665F-23FE-4E57-BF24-10CEDAF4E61D</title>
<desc>Created with sketchtool.</desc>
<polygon class="st0" points="36,9.5 32.3,5 31.1,5 35.4,10.8 35.4,14.3 36.5,14.3 36.5,10.8 40.9,5 39.6,5 "/>
<path class="st0" d="M49.6,5h-6.3c-0.4,0-0.8,0.2-1.1,0.5c-0.3,0.3-0.5,0.7-0.5,1.1v2.1c0,0.4,0.2,0.8,0.5,1.1
	c0.3,0.3,0.7,0.5,1.1,0.5h6.3c0.1,0,0.3,0,0.4,0.1c0.1,0.1,0.2,0.2,0.2,0.4v2.1c0,0.1-0.1,0.3-0.2,0.4c-0.1,0.1-0.2,0.1-0.4,0.1
	h-6.3c-0.1,0-0.3,0-0.4-0.1s-0.2-0.2-0.2-0.4v-0.4h-1.1v0.4c0,0.4,0.2,0.8,0.5,1.1c0.3,0.3,0.7,0.5,1.1,0.5h6.3
	c0.4,0,0.8-0.2,1.1-0.5c0.3-0.3,0.5-0.7,0.5-1.1v-2.1c0-0.4-0.2-0.8-0.5-1.1s-0.7-0.5-1.1-0.5h-6.3c-0.1,0-0.3,0-0.4-0.1
	s-0.2-0.2-0.2-0.4V6.5c0-0.1,0.1-0.3,0.2-0.4S43.1,6,43.3,6h6.3c0.1,0,0.3,0,0.4,0.1c0.1,0.1,0.2,0.2,0.2,0.4v0.4h1.1V6.5
	c0-0.4-0.2-0.8-0.5-1.1S50.1,5,49.6,5z"/>
<polygon class="st0" points="11.5,5 10.5,5 10.5,14.3 20,14.3 20,13.3 11.5,13.3 "/>
<path class="st0" d="M28.7,5h-6.3c-0.4,0-0.8,0.2-1.1,0.5c-0.3,0.3-0.5,0.7-0.5,1.1v7.8h1.1v-3.4h7.4v3.4h1.1V6.5
	c0-0.4-0.2-0.8-0.5-1.1S29.1,5,28.7,5z M29.2,9.9h-7.4V6.5c0-0.1,0.1-0.3,0.2-0.4S22.2,6,22.3,6h6.3c0.1,0,0.3,0,0.4,0.1
	c0.1,0.1,0.2,0.2,0.2,0.4V9.9z"/>
<path class="st0" d="M7.9,5H0v9.3h1.1v-3.5c0.3,0,0.4,0.1,0.5,0.1h6.3c0.4,0,0.8-0.2,1.1-0.5s0.5-0.7,0.5-1.1V6.5
	c0-0.4-0.2-0.8-0.5-1.1S8.4,5,7.9,5z M8.5,9.3c0,0.1-0.1,0.3-0.2,0.4C8.2,9.7,8.1,9.8,7.9,9.8H1.6c-0.1,0-0.3,0-0.4-0.1
	C1.1,9.5,1.1,9.4,1.1,9.3V6.5c0-0.1,0.1-0.3,0.2-0.4C1.3,6.1,1.4,6,1.6,6h6.3c0.1,0,0.3,0,0.4,0.1c0.1,0.1,0.2,0.2,0.2,0.4V9.3z"/>
<polygon class="st1" points="77.6,20 85.1,16.7 77.6,13.3 "/>
<polygon class="st2" points="77.6,6.7 77.6,13.3 85.1,10 "/>
<polygon class="st3" points="85.1,16.7 92.5,13.3 85.1,10 "/>
<polygon class="st4" points="92.5,6.7 92.5,13.3 100,10 "/>
<polygon class="st5" points="92.5,6.7 85.1,3.3 85.1,10 "/>
<path class="st0" d="M60.5,5h-6.3c-0.4,0-0.8,0.2-1.1,0.5s-0.5,0.7-0.5,1.1v6.2c0,0.4,0.2,0.8,0.5,1.1c0.3,0.3,0.7,0.5,1.1,0.5h6.3
	c0.4,0,0.8-0.2,1.1-0.5c0.3-0.3,0.5-0.7,0.5-1.1V6.5c0-0.4-0.2-0.8-0.5-1.1S61,5,60.5,5z M61,12.8c0,0.1-0.1,0.3-0.2,0.4
	c-0.1,0.1-0.2,0.1-0.4,0.1h-6.3c-0.1,0-0.3,0-0.4-0.1c-0.1-0.1-0.2-0.2-0.2-0.4V6.5c0-0.1,0.1-0.3,0.2-0.4C53.9,6.1,54,6,54.2,6h6.3
	c0.1,0,0.3,0,0.4,0.1C61,6.3,61,6.4,61,6.5V12.8z"/>
<polygon class="st0" points="72,13.1 65,5 63.5,5 63.5,14.3 64.6,14.3 64.6,6.2 71.6,14.3 73.1,14.3 73.1,5 72,5 "/>
<polygon class="st6" points="77.6,0 77.6,6.7 85.1,3.3 "/>
</svg>
