<svg width="120" height="36" viewBox="0 0 120 36" fill="none" xmlns="http://www.w3.org/2000/svg">
<path d="M8.10243 18.3544C8.10243 14.6354 11.5851 9.79196 17.5313 7.1973C27.8945 2.61338 33.8406 6.85134 35.3696 10.8298C36.8136 14.5488 33.9256 21.2085 29.0837 26.0519C32.5664 23.4573 35.4546 20.7761 37.4083 18.0949C40.0416 14.5488 41.1459 11.1758 40.1265 8.49463C38.6824 4.60263 32.8213 3.30529 25.5161 4.34316C18.2108 5.38103 12.6045 7.28379 8.10243 9.70547C3.00575 12.3002 0.457414 15.3273 0.0326911 18.8733C-0.476976 23.9762 4.95947 30.8953 17.2764 31.7602C23.7322 32.1926 30.0181 32.3656 41.9953 29.3385C40.5512 29.4249 8.0175 33.5764 8.10243 18.3544Z" fill="#A6CE39"/>
<path d="M20.0797 24.3222C23.9022 24.3222 27.1301 21.1221 27.1301 17.1435C27.1301 13.2515 23.9871 9.96497 20.0797 9.96497C16.2572 9.96497 13.0293 13.1651 13.0293 17.1435C13.1142 21.1221 16.2572 24.3222 20.0797 24.3222Z" fill="#A5CD39"/>
<path d="M46.3472 27.58H47.4594V20.871H46.3472V27.58Z" fill="#A6CE39"/>
<path d="M55.1701 20.871H56.2824V27.58H55.0758L51.343 22.6853V27.58H50.2307V20.871H51.343L55.1701 25.8812V20.871Z" fill="#A6CE39"/>
<path d="M61.5422 21.9078V27.5801H60.43V21.9078H58.4314V20.8709H63.5408V21.9078H61.5422Z" fill="#A6CE39"/>
<path d="M70.3183 20.871V21.9363H66.8021V23.7121H69.96V24.7199H66.8021V26.5145H70.4312V27.58H65.6897V20.871H70.3183Z" fill="#A6CE39"/>
<path d="M76.5771 23.9998C76.8035 23.8016 76.9164 23.4834 76.9164 23.0451C76.9164 22.6068 76.8 22.3059 76.5678 22.143C76.335 21.9797 75.92 21.8982 75.3236 21.8982H73.9093V24.2977H75.295C75.9235 24.2977 76.3507 24.1986 76.5771 23.9998ZM78.0571 23.0501C78.0571 24.157 77.5821 24.8541 76.6335 25.142L78.3586 27.5798H76.9443L75.3707 25.3245H73.9093V27.5798H72.7971V20.871H75.2478C76.2528 20.871 76.9728 21.0439 77.4064 21.3897C77.84 21.7348 78.0571 22.2883 78.0571 23.0501Z" fill="#A6CE39"/>
<path d="M84.3823 25.0079L83.1851 22.2437L81.988 25.0079H84.3823ZM81.5358 26.0539L80.8758 27.58H79.688L82.5916 20.871H83.7787L86.6823 27.58H85.4944L84.8344 26.0539H81.5358Z" fill="#A6CE39"/>
<path d="M91.5457 26.553C91.9293 26.553 92.2593 26.4877 92.5357 26.3564C92.8121 26.2253 93.1014 26.0155 93.4028 25.7276L94.1193 26.4763C93.4221 27.2634 92.5743 27.657 91.5785 27.657C90.5828 27.657 89.7564 27.3305 89.1 26.678C88.4428 26.0251 88.1143 25.1999 88.1143 24.2017C88.1143 23.2034 88.4493 22.3717 89.1185 21.7063C89.7878 21.0408 90.6328 20.7083 91.6543 20.7083C92.675 20.7083 93.5285 21.0918 94.2135 21.8597L93.5064 22.6467C93.1921 22.3394 92.895 22.1253 92.6157 22.0038C92.3357 21.8823 92.0078 21.8213 91.6307 21.8213C90.9643 21.8213 90.405 22.0408 89.9528 22.4786C89.5 22.917 89.2743 23.4769 89.2743 24.1583C89.2743 24.8397 89.4985 25.4092 89.9478 25.8668C90.3971 26.3243 90.93 26.553 91.5457 26.553Z" fill="#A6CE39"/>
<path d="M98.9078 21.9078V27.5801H97.7957V21.9078H95.7971V20.8709H100.906V21.9078H98.9078Z" fill="#A6CE39"/>
<path d="M103.055 27.58H104.168V20.871H103.055V27.58Z" fill="#A6CE39"/>
<path d="M109.946 27.58H108.702L106.053 20.8709H107.297L109.323 25.8811L111.351 20.8709H112.595L109.946 27.58Z" fill="#A6CE39"/>
<path d="M119.109 20.871V21.9363H115.592V23.7121H118.75V24.7199H115.592V26.5145H119.221V27.58H114.48V20.871H119.109Z" fill="#A6CE39"/>
<path d="M52.3613 13.1375L51.2181 10.2404L50.075 13.1375H52.3613ZM53.0981 15.0256H49.3382L48.6398 16.7846H46.074L49.999 7.73145H52.4758L56.4134 16.7846H53.7969L53.0981 15.0256Z" fill="#A6CE39"/>
<path d="M66.2573 16.7846L66.2319 11.9866L63.9457 15.8922H62.828L60.554 12.1157V16.7846H58.2297V7.73138H60.3002L63.4247 12.9564L66.4734 7.73138H68.544L68.5692 16.7846H66.2573Z" fill="#A6CE39"/>
<path d="M72.4751 15.8664C71.743 15.1336 71.3765 14.0945 71.3765 12.7495V7.73157H73.8915V12.6718C73.8915 14.1204 74.4544 14.8447 75.5808 14.8447C76.6987 14.8447 77.2572 14.1204 77.2572 12.6718V7.73157H79.7344V12.7495C79.7344 14.0945 79.368 15.1336 78.6358 15.8664C77.903 16.5994 76.8765 16.9657 75.5551 16.9657C74.2344 16.9657 73.2073 16.5994 72.4751 15.8664Z" fill="#A6CE39"/>
<path d="M83.5699 16.6941C82.892 16.5131 82.342 16.2716 81.9185 15.9699L82.7442 14.0816C83.142 14.349 83.6035 14.5645 84.1292 14.7283C84.6535 14.8921 85.1706 14.9741 85.6785 14.9741C86.6435 14.9741 87.1263 14.7283 87.1263 14.2367C87.1263 13.9781 86.9892 13.7864 86.7135 13.6612C86.4385 13.5363 85.9963 13.4048 85.3863 13.2668C84.717 13.1201 84.1585 12.963 83.7099 12.7948C83.2606 12.6267 82.8756 12.3572 82.5542 11.9865C82.232 11.6158 82.0713 11.1157 82.0713 10.4862C82.0713 9.93456 82.2192 9.43657 82.5156 8.99244C82.812 8.5485 83.2542 8.19715 83.8427 7.93838C84.4313 7.67961 85.1535 7.55042 86.0085 7.55042C86.5927 7.55042 87.1692 7.61731 87.7363 7.75092C88.3035 7.88471 88.8035 8.08061 89.2349 8.33938L88.4606 10.2405C87.6135 9.7749 86.792 9.542 85.9963 9.542C85.4963 9.542 85.132 9.61771 84.9035 9.76838C84.6749 9.91942 84.5606 10.1155 84.5606 10.3568C84.5606 10.5984 84.6956 10.7795 84.967 10.9001C85.2377 11.0208 85.6742 11.1458 86.2756 11.2752C86.9527 11.4218 87.5142 11.579 87.9585 11.7473C88.4035 11.9154 88.7885 12.1826 89.1142 12.5491C89.4399 12.9156 89.6035 13.4136 89.6035 14.0427C89.6035 14.586 89.4549 15.0774 89.1585 15.5171C88.8627 15.9569 88.4177 16.3082 87.8249 16.5712C87.232 16.8342 86.5127 16.9657 85.6656 16.9657C84.9456 16.9657 84.247 16.875 83.5699 16.6941Z" fill="#A6CE39"/>
<path d="M100.324 7.73145V16.7846H98.2535L94.3285 11.9605V16.7846H91.8643V7.73145H93.935L97.8593 12.5555V7.73145H100.324Z" fill="#A6CE39"/>
<path d="M110.346 14.8059V16.7846H103.207V7.73145H110.181V9.71018H105.697V11.2361H109.647V13.1504H105.697V14.8059H110.346Z" fill="#A6CE39"/>
<path d="M114.741 9.76194H112.01V7.73145H119.974V9.76194H117.256V16.7847H114.741V9.76194Z" fill="#A6CE39"/>
</svg>
