<svg width="152" height="33" viewBox="0 0 1529 334" fill="none" xmlns="http://www.w3.org/2000/svg">
<mask id="mask0_1327_202" style="mask-type:luminance" maskUnits="userSpaceOnUse" x="0" y="0" width="1529" height="334">
<path d="M0 0H1528.94V333.5H0V0Z" fill="white"/>
</mask>
<g mask="url(#mask0_1327_202)">
<path d="M183.494 93.9091C262.637 70.3683 324.113 128.977 328.823 218.645C340.598 138.859 310.925 77.4298 275.593 48.2486C258.869 46.6028 239.079 45.8923 222.594 44.2466C213.877 54.5996 192.675 83.5488 183.494 93.9091Z" fill="#86433C"/>
<path d="M320.112 115.086C284.07 43.3113 217.884 75.7913 184.196 97.9038C110.938 145.921 72.7866 40.4838 159.465 13.1803C210.579 -3.05967 301.504 42.6008 320.112 115.086Z" fill="#D24A43"/>
<path d="M216.702 217.232C199.036 297.018 117.539 321.494 35.5703 282.192C100.815 330.912 169.595 335.146 212.463 318.906C221.883 305.493 232.014 288.55 241.665 275.13C236.724 262.421 221.412 230.18 216.702 217.232Z" fill="#739657"/>
<path d="M131.67 324.793C212.936 328.324 216.001 255.831 212.936 216.057C205.871 129.681 317.99 147.806 300.085 235.589C289.491 287.608 205.16 343.853 131.67 324.793Z" fill="#ABCC56"/>
<path d="M89.2722 185.933C30.1436 128.977 52.056 47.7775 129.314 0C52.7661 28.71 12.7238 84.0275 3.76758 128.506C10.3616 143.564 19.3178 160.986 25.9118 176.284C39.8099 178.872 75.6132 183.352 89.2722 185.933Z" fill="#557398"/>
<path d="M41.6935 57.8984C-4.47903 123.801 56.2945 164.981 92.3368 183.345C170.537 223.119 95.3947 307.378 29.2083 245.949C-9.8919 209.699 -13.6599 109.207 41.6935 57.8984Z" fill="#6DABE1"/>
<path d="M861.633 235.828H903.798C904.501 235.828 905.211 235.828 905.682 235.596H908.979C919.109 235.596 925.232 237.481 927.819 241.244C930.174 245.007 931.355 250.654 931.355 258.187C931.355 268.308 928.761 274.427 923.348 276.544C917.928 278.661 909.211 279.843 897.197 279.843H861.394V235.828H861.633ZM861.633 332.558V290.667H907.327C912.979 290.667 918.399 290.196 923.819 289.485C929.147 288.793 934.19 286.68 938.42 283.366C941.014 281.249 943.13 278.661 944.311 275.841C945.485 273.013 946.427 270.186 946.898 267.134C946.898 265.72 947.137 264.306 947.137 263.132V252.539C946.671 248.518 945.722 244.567 944.311 240.773C942.898 237.003 940.072 233.711 936.065 230.884C933.71 228.999 930.884 227.824 927.587 227.114C924.408 226.399 921.179 225.928 917.928 225.707C916.515 225.707 914.863 225.475 913.689 225.475H847.264V332.797H861.633V332.558ZM819.236 300.317C819.236 309.959 816.881 316.318 812.171 318.906C807.453 321.494 799.214 322.676 787.2 322.676H772.592C761.288 322.676 753.752 321.262 749.513 318.435C745.506 315.607 743.39 309.495 743.39 300.31V225.011H728.079V300.078C728.079 315.614 732.789 325.025 742.209 328.084C751.629 331.144 764.585 332.797 781.077 332.797H788.613C791.2 332.797 793.562 332.558 796.149 332.558C811.229 332.086 821.351 329.266 826.532 324.322C831.721 319.145 834.547 311.141 834.547 300.078V225.004H819.467V300.317H819.236ZM627.024 260.304C627.263 248.537 629.618 241.237 633.625 238.416C637.625 235.589 645.632 234.182 657.414 234.182H662.356C676.725 234.182 686.856 235.357 692.747 237.474C698.631 239.83 701.457 247.363 701.457 260.536V278.19C701.457 281.249 701.457 284.077 701.225 287.136C701.225 290.196 700.986 293.016 700.986 295.844C700.754 309.024 697.218 316.796 691.095 319.377C684.74 321.965 673.899 323.147 658.827 323.147C645.4 323.147 636.683 321.494 632.683 317.963C628.908 314.44 626.792 307.61 626.553 297.257V280.075L627.024 260.304ZM611.242 291.138C611.242 294.669 611.242 298.2 611.481 301.723C612.423 315.375 616.901 324.09 624.669 327.852C632.444 331.622 643.987 333.507 659.059 333.507H661.885C662.827 333.507 663.769 333.507 664.95 333.739H670.842C687.798 333.739 699.341 331.144 705.703 325.967C712.058 320.791 715.594 311.612 715.826 298.432C716.065 292.081 716.065 285.723 716.065 279.364V260.304C716.065 243.361 711.355 233.24 702.167 229.47C692.979 225.707 679.32 224.061 661.182 224.061H654.588C632.683 224.061 619.959 228.767 616.43 238.416C612.662 247.834 611.01 260.072 611.01 274.666V291.138H611.242ZM511.607 235.596H560.606C571.671 235.596 578.504 237.481 580.859 241.476C583.214 245.478 584.395 251.358 584.395 258.89C584.395 267.126 582.04 272.542 577.562 275.13C573.084 277.719 565.548 279.132 555.418 279.132H511.607V235.596ZM511.607 332.558V289.253H557.302C566.019 289.253 572.381 290.667 576.62 293.255C580.859 295.844 582.743 300.788 582.743 307.85V332.558H598.293V305.261C598.293 299.374 596.641 294.43 593.105 290.906C589.808 287.136 584.156 285.251 576.388 284.78C588.163 283.134 594.996 279.604 596.88 274.659C598.764 269.722 599.938 263.603 599.938 256.302C599.938 244.775 596.88 236.771 590.518 232.065C584.395 227.353 574.265 225.236 560.135 225.236H496.535V332.558H511.607ZM427.045 289.725H469.681V299.135C469.681 309.256 467.797 315.614 463.79 318.435C459.79 321.262 451.544 322.437 438.588 322.437H425.639C423.755 322.437 422.11 322.437 420.226 322.205C418.574 322.205 416.69 322.205 414.806 321.965C412.922 321.965 411.27 321.733 409.386 321.494C399.495 320.32 393.843 317.028 391.959 311.38C390.075 305.965 389.365 299.846 389.365 293.487L389.133 278.19L389.365 264.306C389.604 251.597 391.72 243.593 395.256 240.062C398.792 236.531 407.741 234.886 422.11 234.886H436.008C440.718 234.886 445.189 235.118 449.667 235.357C458.855 235.589 464.507 237.713 466.391 241.244C468.514 245.007 469.449 249.944 469.449 256.302H484.297V252.3C484.297 243.6 481.934 236.771 477.224 232.065C472.514 227.353 464.268 224.765 452.732 224.525H436.704C434.117 224.525 431.284 224.293 428.697 224.293H420.69C402.792 224.293 390.539 227.353 383.945 233.472C377.351 239.591 374.046 249.712 374.046 263.835V278.429C374.046 281.017 373.814 283.366 373.814 285.723V293.016C373.814 309.495 377.822 320.32 385.589 325.496C393.365 330.68 408.197 333.036 429.639 333.036C434.349 333.036 439.059 333.036 443.537 332.797C448.015 332.797 452.725 332.558 457.196 332.086C469.92 330.912 477.688 327.149 480.514 320.32C483.579 313.497 484.992 306.197 484.992 297.961V284.309C484.992 282.424 484.76 280.539 484.521 278.429H427.045V289.725ZM1394.67 25.4186H1460.4C1472.41 25.4186 1482.77 27.0644 1491.02 30.1311C1499.26 33.1834 1504.21 40.4841 1506.09 52.0116C1507.03 57.8986 1507.74 63.7784 1507.98 69.6654C1508.21 75.5524 1508.21 81.4321 1508.21 87.5511V101.674C1508.21 104.03 1507.98 106.387 1507.98 108.736C1507.53 113.839 1506.59 118.885 1505.15 123.801C1503.75 128.361 1501.33 132.545 1498.08 136.039C1494.86 139.312 1490.78 141.598 1486.3 142.629C1481.59 143.804 1476.65 144.746 1471.46 144.978C1468.87 145.218 1466.28 145.45 1463.93 145.45H1395.62V25.4186H1394.67ZM1465.81 160.044C1495.02 160.044 1512.92 152.743 1519.28 138.388C1525.64 123.801 1528.71 107.322 1528.71 88.7257V74.3706C1528.71 53.4254 1524.23 37.6566 1515.51 26.8324C1506.79 16.0009 1488.19 10.5924 1460.4 10.5924H1373.95V160.044H1465.81ZM1336.26 10.3531V146.863L1230.97 10.3531H1196.82V160.044H1217.31V24.7154L1322.6 160.044H1356.76V10.3531H1336.26ZM1157.48 160.044H1178.68V10.3531H1157.48V160.044ZM1120.97 10.3531L1068.45 146.863L1018.27 10.3531H987.419L937.007 146.863L885.661 10.3531H864.227L921.464 160.044H952.789L1002.96 25.4186L1051.95 160.044H1083.99L1142.88 10.5924H1120.97V10.3531ZM830.54 10.3531L774.954 80.4896L719.362 10.3531H694.863L763.643 97.4402V160.044H784.606V97.4402L855.271 10.3531H830.54ZM532.81 10.3531V160.044H554.244V90.6106H572.852L658.117 160.044H686.856L590.989 82.8459L676.725 10.3531H648.936L572.613 75.5524H554.005V10.3531H532.81ZM513.259 49.4307C513.259 30.3631 506.897 18.8356 494.18 15.0656C481.463 11.2956 465.442 9.41064 445.892 9.41064H440.711C421.161 9.41064 405.85 11.7669 394.075 16.2401C382.292 20.7134 376.64 32.0089 376.64 50.1339C376.64 69.9047 383.945 81.9034 398.306 85.6734C412.683 89.4361 429.871 91.5531 449.428 92.2636H457.906C460.732 92.2636 463.558 92.4956 466.384 92.4956C478.398 92.9669 486.405 94.8519 490.173 98.1506C493.941 101.442 495.593 108.032 495.593 117.914C495.593 130.623 492.528 138.388 486.644 141.448C480.753 144.507 469.92 145.921 454.37 145.921H436.704C419.509 145.921 408.444 143.804 403.734 139.57C399.024 135.329 396.662 126.389 396.662 112.97H376.401C376.401 113.68 376.401 114.151 376.169 114.855C375.938 115.558 375.938 116.029 375.938 116.74C375.698 117.443 375.698 117.914 375.698 118.625V120.51C375.698 139.331 382.061 150.865 394.778 154.867C407.495 158.869 423.516 160.986 443.066 160.986H452.015C455.08 160.986 457.906 160.986 460.964 160.747C463.79 160.515 466.616 160.515 469.681 160.515C472.746 160.515 475.572 160.276 478.63 160.276C495.586 158.869 506.194 154.157 510.433 146.16C514.672 137.917 516.788 128.267 516.788 116.972C516.788 97.4401 510.194 85.9054 497.006 82.3746C483.818 78.8439 468.036 76.9661 449.428 76.7269H437.646C433.646 76.7269 429.639 76.4949 425.632 76.2556C413.625 75.5524 406.082 73.1961 402.785 68.9621C399.488 64.7209 397.843 58.6019 397.843 50.3659V47.0744C397.843 45.8926 398.075 44.7181 398.075 43.5436C398.594 40.8182 399.548 38.194 400.901 35.7716C402.314 33.1834 404.437 31.3056 407.495 29.6526C410.39 28.28 413.497 27.405 416.683 27.0644C420.451 26.3611 424.219 26.1219 428.226 25.6506C431.762 25.4186 434.82 25.4186 437.885 25.4186H456.254C470.623 25.4186 480.043 27.3036 484.521 30.8344C488.999 34.6044 491.586 41.8979 492.296 52.9542H513.02V49.4234H513.259V49.4307Z" fill="white"/>
</g>
</svg>
