<svg width="91" height="36" viewBox="0 0 91 36" fill="none" xmlns="http://www.w3.org/2000/svg">
<g clip-path="url(#clip0_481_12991)">
<path d="M11.8632 17.8631C12.7757 18.4106 13.6883 18.9591 14.6008 19.5057C15.5134 20.1436 16.5172 20.692 17.3385 21.4221C18.0685 22.0608 18.4335 23.0655 18.4335 24.0684C18.4335 25.9848 16.6084 27.1711 14.8746 26.4411C14.7833 26.3498 14.6008 26.3498 14.5096 26.2595C14.1455 27.0798 13.7795 27.8099 12.867 28.0846C11.2244 28.6321 9.67306 27.6283 9.12553 25.711C8.76051 24.4344 9.12553 23.1559 9.48964 21.9687C9.76431 21.1483 9.94682 20.3279 10.2206 19.5057C10.1284 19.5057 10.1284 19.5057 10.0381 19.4144C9.76431 20.2357 9.39929 21.057 9.12553 21.8783C8.48675 23.7947 7.84796 25.711 7.30043 27.6283C7.11792 28.1749 7.20918 28.8137 7.11792 29.3612C7.11792 29.9097 6.84416 30 6.38789 30C5.93161 30 5.84036 29.7262 5.84036 29.27C5.84036 27.3536 6.47914 25.7119 7.39169 24.0694C8.21298 22.6093 9.03427 21.057 9.85557 19.5979C10.8594 17.6815 10.0381 16.2214 8.39549 15.5827C7.5742 15.2176 6.66165 14.9439 5.83945 14.6701C5.01906 14.3954 4.19777 14.1217 3.19397 13.7567C4.83656 11.384 6.02287 8.92015 6.84416 6C9.21678 7.64259 11.7719 8.92015 14.6008 9.65019C13.232 11.6578 12.0457 13.6654 11.5894 15.9468C11.6807 15.8555 11.8632 15.673 11.9535 15.5817C12.7757 14.2129 13.6883 12.7529 14.5096 11.384C15.1483 10.4715 15.9705 9.8327 17.0656 9.55894C18.982 9.10266 20.8974 10.4715 20.3508 12.9354C20.8071 12.7529 20.8071 12.7529 21.7196 10.654C21.9934 11.2928 22.2671 11.9316 22.4496 12.5703C22.7234 13.2091 22.9059 13.7567 23.1797 14.3954C22.3575 14.1217 21.6274 13.8479 20.8061 13.5741C21.2624 14.3042 21.7187 14.8517 21.9924 15.3992C22.3575 16.4943 21.8099 17.7719 20.8974 18.3194C19.4373 19.2319 17.886 19.1407 16.3347 18.6844C14.9658 18.3194 13.6883 17.9544 12.3194 17.4981C11.8632 17.7719 11.8632 17.8631 11.8632 17.8631Z" fill="#720000"/>
<path d="M11.8632 17.8631C12.7757 18.4106 13.6883 18.9591 14.6008 19.5057C15.5134 20.1436 16.5172 20.692 17.3385 21.4221C18.0685 22.0608 18.4335 23.0655 18.4335 24.0684C18.4335 25.9848 16.6084 27.1711 14.8746 26.4411C14.7833 26.3498 14.6008 26.3498 14.5096 26.2595C14.1455 27.0798 13.7795 27.8099 12.867 28.0846C11.2244 28.6321 9.67306 27.6283 9.12553 25.711C8.76051 24.4344 9.12553 23.1559 9.48964 21.9687C9.76431 21.1483 9.94682 20.3279 10.2206 19.5057C10.1284 19.5057 10.1284 19.5057 10.0381 19.4144C9.76431 20.2357 9.39929 21.057 9.12553 21.8783C8.48675 23.7947 7.84796 25.711 7.30043 27.6283C7.11792 28.1749 7.20918 28.8137 7.11792 29.3612C7.11792 29.9097 6.84416 30 6.38789 30C5.93161 30 5.84036 29.7262 5.84036 29.27C5.84036 27.3536 6.47914 25.7119 7.39169 24.0694C8.21298 22.6093 9.03427 21.057 9.85557 19.5979C10.8594 17.6815 10.0381 16.2214 8.39549 15.5827C7.5742 15.2176 6.66165 14.9439 5.83945 14.6701C5.01906 14.3954 4.19777 14.1217 3.19397 13.7567C4.83656 11.384 6.02287 8.92015 6.84416 6C9.21678 7.64259 11.7719 8.92015 14.6008 9.65019C13.232 11.6578 12.0457 13.6654 11.5894 15.9468C11.6807 15.8555 11.8632 15.673 11.9535 15.5817C12.7757 14.2129 13.6883 12.7529 14.5096 11.384C15.1483 10.4715 15.9705 9.8327 17.0656 9.55894C18.982 9.10266 20.8974 10.4715 20.3508 12.9354C20.8071 12.7529 20.8071 12.7529 21.7196 10.654C21.9934 11.2928 22.2671 11.9316 22.4496 12.5703C22.7234 13.2091 22.9059 13.7567 23.1797 14.3954C22.3575 14.1217 21.6274 13.8479 20.8061 13.5741C21.2624 14.3042 21.7187 14.8517 21.9924 15.3992C22.3575 16.4943 21.8099 17.7719 20.8974 18.3194C19.4373 19.2319 17.886 19.1407 16.3347 18.6844C14.9658 18.3194 13.6883 17.9544 12.3194 17.4981C11.8632 17.7719 11.8632 17.8631 11.8632 17.8631Z" fill="#B13737"/>
<path d="M52.654 11.2015C52.654 13.0266 52.654 14.8517 52.654 16.6768C52.1978 15.4905 52.0152 14.1217 50.1901 14.3042C50.1901 15.673 50.1901 16.9506 50.1901 18.3194C50.1901 18.5028 50.6464 18.8669 50.9202 18.8669C53.1103 19.0494 54.7529 18.6844 55.4829 16.3118C55.4829 16.2205 55.5742 16.2205 55.7567 16.1293C55.5742 17.2243 55.4829 18.2281 55.3004 19.3232C52.289 19.3232 49.1863 19.3232 45.9924 19.3232C46.4487 19.231 46.7234 19.231 46.905 19.1407C47.1797 18.8669 47.5438 18.5932 47.5438 18.2281C47.6359 15.3992 47.5438 12.6616 47.5438 9.8327C47.5438 9.19391 47.1797 9.0114 46.6312 8.92015C46.4487 8.92015 46.2671 8.92015 46.0837 8.73764C49.0038 8.73764 51.9231 8.73764 54.9354 8.73764C54.9354 9.74144 54.9354 10.7452 54.9354 11.749C54.5704 10.8365 54.2966 9.8327 53.2016 9.55893C52.289 9.28517 51.194 9.28517 50.1901 9.10266C50.1901 10.7452 50.1901 12.2053 50.1901 13.7567C50.9202 13.8479 51.559 13.6654 51.9231 13.0266C52.1978 12.4791 52.3803 11.749 52.654 11.2015Z" fill="#720000"/>
<path d="M52.654 11.2015C52.654 13.0266 52.654 14.8517 52.654 16.6768C52.1978 15.4905 52.0152 14.1217 50.1901 14.3042C50.1901 15.673 50.1901 16.9506 50.1901 18.3194C50.1901 18.5028 50.6464 18.8669 50.9202 18.8669C53.1103 19.0494 54.7529 18.6844 55.4829 16.3118C55.4829 16.2205 55.5742 16.2205 55.7567 16.1293C55.5742 17.2243 55.4829 18.2281 55.3004 19.3232C52.289 19.3232 49.1863 19.3232 45.9924 19.3232C46.4487 19.231 46.7234 19.231 46.905 19.1407C47.1797 18.8669 47.5438 18.5932 47.5438 18.2281C47.6359 15.3992 47.5438 12.6616 47.5438 9.8327C47.5438 9.19391 47.1797 9.0114 46.6312 8.92015C46.4487 8.92015 46.2671 8.92015 46.0837 8.73764C49.0038 8.73764 51.9231 8.73764 54.9354 8.73764C54.9354 9.74144 54.9354 10.7452 54.9354 11.749C54.5704 10.8365 54.2966 9.8327 53.2016 9.55893C52.289 9.28517 51.194 9.28517 50.1901 9.10266C50.1901 10.7452 50.1901 12.2053 50.1901 13.7567C50.9202 13.8479 51.559 13.6654 51.9231 13.0266C52.1978 12.4791 52.3803 11.749 52.654 11.2015Z" fill="#B13737"/>
<path d="M86.692 13.1179C87.7871 14.7605 88.7909 16.2205 89.886 17.7719C90.3422 18.3194 90.8898 18.8669 91.2548 19.3232C89.7034 19.3232 88.0609 19.3232 86.4183 19.3232C86.4183 19.231 86.4183 19.231 86.5095 19.231C87.5133 18.8669 87.5133 18.7748 86.9658 17.8622C86.4183 16.9497 85.7795 16.1284 85.0495 15.0333C84.2282 16.1284 83.4981 17.1322 82.7681 18.136C82.4934 18.5922 82.8593 18.866 83.1322 18.9582C83.4069 19.1407 83.6806 19.1407 84.2282 19.3232C82.7681 19.3232 81.4905 19.3232 80.1217 19.3232C80.578 19.0494 81.2168 18.8669 81.4905 18.4106C82.5856 17.2243 83.5894 16.038 84.5932 14.8517C84.6844 14.7605 84.6844 14.4867 84.5932 14.3042C83.4981 12.6616 82.4031 11.019 81.3071 9.46768C81.1255 9.19391 80.7605 9.0114 80.3042 8.73764C82.1293 8.73764 83.7719 8.73764 85.5057 8.73764V8.8289C84.2282 9.0114 84.3194 9.46768 84.8669 10.289C85.4145 11.019 85.8707 11.8403 86.4183 12.6616C86.9658 11.9316 87.6046 11.2015 88.1521 10.4715C88.7909 9.65019 88.5171 9.10266 87.5133 8.92015C87.4221 8.92015 87.4221 8.8289 87.2396 8.73764C88.6084 8.73764 89.886 8.73764 91.1635 8.73764C90.0694 9.0114 89.5209 9.8327 88.8822 10.5627C88.1521 11.384 87.4221 12.2053 86.692 13.1179Z" fill="#720000"/>
<path d="M86.692 13.1179C87.7871 14.7605 88.7909 16.2205 89.886 17.7719C90.3422 18.3194 90.8898 18.8669 91.2548 19.3232C89.7034 19.3232 88.0609 19.3232 86.4183 19.3232C86.4183 19.231 86.4183 19.231 86.5095 19.231C87.5133 18.8669 87.5133 18.7748 86.9658 17.8622C86.4183 16.9497 85.7795 16.1284 85.0495 15.0333C84.2282 16.1284 83.4981 17.1322 82.7681 18.136C82.4934 18.5922 82.8593 18.866 83.1322 18.9582C83.4069 19.1407 83.6806 19.1407 84.2282 19.3232C82.7681 19.3232 81.4905 19.3232 80.1217 19.3232C80.578 19.0494 81.2168 18.8669 81.4905 18.4106C82.5856 17.2243 83.5894 16.038 84.5932 14.8517C84.6844 14.7605 84.6844 14.4867 84.5932 14.3042C83.4981 12.6616 82.4031 11.019 81.3071 9.46768C81.1255 9.19391 80.7605 9.0114 80.3042 8.73764C82.1293 8.73764 83.7719 8.73764 85.5057 8.73764V8.8289C84.2282 9.0114 84.3194 9.46768 84.8669 10.289C85.4145 11.019 85.8707 11.8403 86.4183 12.6616C86.9658 11.9316 87.6046 11.2015 88.1521 10.4715C88.7909 9.65019 88.5171 9.10266 87.5133 8.92015C87.4221 8.92015 87.4221 8.8289 87.2396 8.73764C88.6084 8.73764 89.886 8.73764 91.1635 8.73764C90.0694 9.0114 89.5209 9.8327 88.8822 10.5627C88.1521 11.384 87.4221 12.2053 86.692 13.1179Z" fill="#B13737"/>
<path d="M5.01901 17.1331C5.8403 16.4943 6.75285 16.3118 7.57414 16.9506C8.30418 17.4981 8.48669 18.1369 8.39544 18.9591C8.21293 20.1445 7.30038 20.5095 6.20532 20.6008C6.47909 21.9696 6.11407 22.7909 5.20152 23.2471C4.47148 23.6122 3.46768 23.5218 2.8289 22.8821C2.19011 22.2443 2.09886 21.2405 2.64639 20.1445C2.09886 20.4183 2.09886 20.4182 1.18631 22.2433C0.821293 21.1483 0.456274 20.1436 0 18.9582C0.821293 19.4154 1.46008 19.962 2.55513 19.6882C1.36882 19.1407 0.821293 18.4116 1.09506 17.2243C1.27665 16.403 2.0076 15.7643 2.73764 15.673C3.8327 15.4905 4.38023 15.9468 5.01901 17.1331Z" fill="#720000"/>
<path d="M5.01901 17.1331C5.8403 16.4943 6.75285 16.3118 7.57414 16.9506C8.30418 17.4981 8.48669 18.1369 8.39544 18.9591C8.21293 20.1445 7.30038 20.5095 6.20532 20.6008C6.47909 21.9696 6.11407 22.7909 5.20152 23.2471C4.47148 23.6122 3.46768 23.5218 2.8289 22.8821C2.19011 22.2443 2.09886 21.2405 2.64639 20.1445C2.09886 20.4183 2.09886 20.4182 1.18631 22.2433C0.821293 21.1483 0.456274 20.1436 0 18.9582C0.821293 19.4154 1.46008 19.962 2.55513 19.6882C1.36882 19.1407 0.821293 18.4116 1.09506 17.2243C1.27665 16.403 2.0076 15.7643 2.73764 15.673C3.8327 15.4905 4.38023 15.9468 5.01901 17.1331Z" fill="#B13737"/>
<path d="M38.2357 13.6654C39.7871 13.8479 40.2434 13.5741 40.9734 11.2928C40.9734 13.2091 40.9734 14.943 40.9734 16.6768C40.6996 16.1293 40.5171 15.3992 40.0608 14.943C39.6046 14.3954 38.8745 14.2129 38.1445 14.3954C38.1445 15.7643 38.1445 17.1331 38.1445 18.5019C38.1445 18.9582 38.6008 19.231 39.5133 19.4144C37.6882 19.4144 35.9544 19.4144 34.1293 19.4144C34.1293 19.4144 34.1293 19.4144 34.1293 19.3223C34.3118 19.3223 34.4943 19.2301 34.6777 19.2301C35.2253 19.1389 35.5903 18.7738 35.5903 18.1351C35.5903 15.4887 35.5903 12.8423 35.5903 10.1959C35.5903 9.19208 35.3165 9.00957 34.3127 8.91832C34.2215 8.91832 34.1302 8.91832 34.0389 8.73581C37.0503 8.73581 39.9705 8.73581 42.9819 8.73581C42.9819 9.73961 42.9819 10.6522 42.9819 11.656C42.2519 9.00957 40.3364 9.19208 38.1454 9.28334C38.2357 10.7452 38.2357 12.2053 38.2357 13.6654Z" fill="#720000"/>
<path d="M38.2357 13.6654C39.7871 13.8479 40.2434 13.5741 40.9734 11.2928C40.9734 13.2091 40.9734 14.943 40.9734 16.6768C40.6996 16.1293 40.5171 15.3992 40.0608 14.943C39.6046 14.3954 38.8745 14.2129 38.1445 14.3954C38.1445 15.7643 38.1445 17.1331 38.1445 18.5019C38.1445 18.9582 38.6008 19.231 39.5133 19.4144C37.6882 19.4144 35.9544 19.4144 34.1293 19.4144C34.1293 19.4144 34.1293 19.4144 34.1293 19.3223C34.3118 19.3223 34.4943 19.2301 34.6777 19.2301C35.2253 19.1389 35.5903 18.7738 35.5903 18.1351C35.5903 15.4887 35.5903 12.8423 35.5903 10.1959C35.5903 9.19208 35.3165 9.00957 34.3127 8.91832C34.2215 8.91832 34.1302 8.91832 34.0389 8.73581C37.0503 8.73581 39.9705 8.73581 42.9819 8.73581C42.9819 9.73961 42.9819 10.6522 42.9819 11.656C42.2519 9.00957 40.3364 9.19208 38.1454 9.28334C38.2357 10.7452 38.2357 12.2053 38.2357 13.6654Z" fill="#B13737"/>
<path d="M58.9506 8.73764C60.7757 8.73764 62.6929 8.73764 64.518 8.73764V8.8289C64.4258 8.8289 64.2433 8.92015 64.153 8.92015C63.2405 9.0114 62.9667 9.28517 62.8754 10.1977C62.8754 12.7528 62.8754 15.308 62.8754 17.7719C62.8754 18.4106 63.1501 18.8669 63.8801 18.7757C64.6102 18.7757 65.3402 18.7757 66.0693 18.6844C67.1644 18.5028 67.7128 17.6806 68.1691 16.7681C68.3507 16.403 68.4429 15.9468 68.6254 15.5817C68.7167 15.5817 68.7166 15.5817 68.807 15.673C68.7157 16.8593 68.5332 18.0456 68.4429 19.3232C65.249 19.3232 62.1463 19.3232 59.0436 19.3232V19.2319C60.3203 18.9591 60.4125 18.8678 60.4125 17.5903C60.4125 15.4002 60.4125 13.21 60.4125 11.0199C60.5019 9.28517 60.5019 9.28517 58.9506 8.73764Z" fill="#720000"/>
<path d="M58.9506 8.73764C60.7757 8.73764 62.6929 8.73764 64.518 8.73764V8.8289C64.4258 8.8289 64.2433 8.92015 64.153 8.92015C63.2405 9.0114 62.9667 9.28517 62.8754 10.1977C62.8754 12.7528 62.8754 15.308 62.8754 17.7719C62.8754 18.4106 63.1501 18.8669 63.8801 18.7757C64.6102 18.7757 65.3402 18.7757 66.0693 18.6844C67.1644 18.5028 67.7128 17.6806 68.1691 16.7681C68.3507 16.403 68.4429 15.9468 68.6254 15.5817C68.7167 15.5817 68.7166 15.5817 68.807 15.673C68.7157 16.8593 68.5332 18.0456 68.4429 19.3232C65.249 19.3232 62.1463 19.3232 59.0436 19.3232V19.2319C60.3203 18.9591 60.4125 18.8678 60.4125 17.5903C60.4125 15.4002 60.4125 13.21 60.4125 11.0199C60.5019 9.28517 60.5019 9.28517 58.9506 8.73764Z" fill="#B13737"/>
<path d="M77.4753 8.73764C75.8327 9.28517 75.8327 9.28517 75.8327 11.1103C75.8327 13.3004 75.8327 15.4905 75.8327 17.6806C75.8327 18.8669 76.0152 19.0494 77.2015 19.4154C76.3812 19.4154 75.4686 19.4154 74.6464 19.4154C73.7339 19.4154 72.9126 19.4154 72 19.4154C72.365 19.2319 72.9126 19.0503 73.0951 18.7757C73.3688 18.4116 73.2776 17.8631 73.2776 17.4068C73.2776 15.2167 73.2776 12.9354 73.2776 10.7452C73.2776 9.28517 73.1863 9.19391 71.8175 8.8289C73.7339 8.73764 75.559 8.73764 77.4753 8.73764Z" fill="#720000"/>
<path d="M77.4753 8.73764C75.8327 9.28517 75.8327 9.28517 75.8327 11.1103C75.8327 13.3004 75.8327 15.4905 75.8327 17.6806C75.8327 18.8669 76.0152 19.0494 77.2015 19.4154C76.3812 19.4154 75.4686 19.4154 74.6464 19.4154C73.7339 19.4154 72.9126 19.4154 72 19.4154C72.365 19.2319 72.9126 19.0503 73.0951 18.7757C73.3688 18.4116 73.2776 17.8631 73.2776 17.4068C73.2776 15.2167 73.2776 12.9354 73.2776 10.7452C73.2776 9.28517 73.1863 9.19391 71.8175 8.8289C73.7339 8.73764 75.559 8.73764 77.4753 8.73764Z" fill="#B13737"/>
<path d="M59.4068 27.0798C60.0456 25.6189 60.5931 24.25 61.0494 22.9734C61.2319 22.6093 61.4144 22.4249 61.7803 22.5171C62.4182 22.5171 63.1492 22.5171 63.8792 22.6093C62.9666 22.6093 63.0579 23.1568 63.0579 23.7034C63.0579 25.2547 63.0579 26.8061 63.0579 28.2662C63.0579 28.7224 63.1501 29.0874 63.6967 29.27C62.7841 29.27 61.8716 29.27 61.0503 29.27C61.1425 28.9971 61.4153 28.6321 61.4153 28.2662C61.4153 26.6236 61.4153 24.981 61.3241 23.2471C60.5028 25.2547 59.6806 27.172 58.768 29.3612C57.8555 27.2624 57.0351 25.2547 56.0304 23.1559C55.9391 23.5209 55.9391 23.7034 55.9391 23.7938C55.9391 25.2547 55.9391 26.6236 55.9391 28.0836C55.9391 28.6312 56.0304 29.0874 56.6692 29.269C56.1216 29.269 55.5741 29.269 54.8441 29.269C55.4828 28.9962 55.6654 28.6312 55.6654 28.0836C55.6654 26.6236 55.6654 25.1635 55.6654 23.7947C55.6654 22.8821 55.5732 22.8821 54.7528 22.6093C55.5732 22.6093 56.3954 22.6093 57.3079 22.6093C57.4904 22.6093 57.5817 22.9734 57.673 23.1568C58.2205 24.3422 58.768 25.6198 59.4068 27.0798Z" fill="#720000"/>
<path d="M59.4068 27.0798C60.0456 25.6189 60.5931 24.25 61.0494 22.9734C61.2319 22.6093 61.4144 22.4249 61.7803 22.5171C62.4182 22.5171 63.1492 22.5171 63.8792 22.6093C62.9666 22.6093 63.0579 23.1568 63.0579 23.7034C63.0579 25.2547 63.0579 26.8061 63.0579 28.2662C63.0579 28.7224 63.1501 29.0874 63.6967 29.27C62.7841 29.27 61.8716 29.27 61.0503 29.27C61.1425 28.9971 61.4153 28.6321 61.4153 28.2662C61.4153 26.6236 61.4153 24.981 61.3241 23.2471C60.5028 25.2547 59.6806 27.172 58.768 29.3612C57.8555 27.2624 57.0351 25.2547 56.0304 23.1559C55.9391 23.5209 55.9391 23.7034 55.9391 23.7938C55.9391 25.2547 55.9391 26.6236 55.9391 28.0836C55.9391 28.6312 56.0304 29.0874 56.6692 29.269C56.1216 29.269 55.5741 29.269 54.8441 29.269C55.4828 28.9962 55.6654 28.6312 55.6654 28.0836C55.6654 26.6236 55.6654 25.1635 55.6654 23.7947C55.6654 22.8821 55.5732 22.8821 54.7528 22.6093C55.5732 22.6093 56.3954 22.6093 57.3079 22.6093C57.4904 22.6093 57.5817 22.9734 57.673 23.1568C58.2205 24.3422 58.768 25.6198 59.4068 27.0798Z" fill="#B13737"/>
<path d="M40.7908 22.4258C40.7908 23.1568 40.7908 23.8868 40.7908 24.7072C40.4258 24.2509 40.2424 23.7947 39.8783 23.4306C39.2395 22.7005 38.4173 22.518 37.5048 22.7005C36.5922 22.9743 36.2281 23.7043 36.0447 24.5256C35.8622 25.5294 35.8622 26.6245 36.1359 27.6283C36.5922 28.9971 37.6873 29.1787 38.7823 28.9971C38.9648 28.9971 39.1464 28.7224 39.1464 28.5408C39.2386 28.1758 39.1464 27.8099 39.1464 27.4449C39.1464 26.8973 38.9648 26.6245 38.5086 26.5323C39.5124 26.5323 40.4249 26.5323 41.4278 26.5323C40.8821 26.7157 40.7908 27.0798 40.7908 27.5361C40.7908 28.9971 40.7908 29.0874 39.3298 29.3612C38.1435 29.5437 36.9572 29.635 35.7718 28.9971C34.4943 28.2661 33.7642 26.8061 34.1292 25.4372C34.4943 23.7937 35.7727 22.5171 37.2319 22.5171C38.0532 22.5171 38.7832 22.6093 39.6045 22.7909C40.0608 22.7909 40.4258 22.9734 40.7908 22.4258Z" fill="#720000"/>
<path d="M40.7908 22.4258C40.7908 23.1568 40.7908 23.8868 40.7908 24.7072C40.4258 24.2509 40.2424 23.7947 39.8783 23.4306C39.2395 22.7005 38.4173 22.518 37.5048 22.7005C36.5922 22.9743 36.2281 23.7043 36.0447 24.5256C35.8622 25.5294 35.8622 26.6245 36.1359 27.6283C36.5922 28.9971 37.6873 29.1787 38.7823 28.9971C38.9648 28.9971 39.1464 28.7224 39.1464 28.5408C39.2386 28.1758 39.1464 27.8099 39.1464 27.4449C39.1464 26.8973 38.9648 26.6245 38.5086 26.5323C39.5124 26.5323 40.4249 26.5323 41.4278 26.5323C40.8821 26.7157 40.7908 27.0798 40.7908 27.5361C40.7908 28.9971 40.7908 29.0874 39.3298 29.3612C38.1435 29.5437 36.9572 29.635 35.7718 28.9971C34.4943 28.2661 33.7642 26.8061 34.1292 25.4372C34.4943 23.7937 35.7727 22.5171 37.2319 22.5171C38.0532 22.5171 38.7832 22.6093 39.6045 22.7909C40.0608 22.7909 40.4258 22.9734 40.7908 22.4258Z" fill="#B13737"/>
<path d="M90.7073 22.6093C90.7073 23.1568 90.7073 23.8859 90.7073 24.7072C90.5248 24.3422 90.4335 24.1597 90.251 23.8859C89.7035 22.9734 88.8822 22.5171 87.788 22.6093C86.9667 22.7005 86.327 23.2471 86.1445 23.9781C85.8708 24.9819 85.8708 25.9848 85.8708 26.8973C85.8708 27.3536 86.0533 27.8099 86.2358 28.1749C86.6921 29.0874 87.8784 29.4525 88.7909 28.9962C88.8822 28.9962 88.9734 28.904 89.0647 28.904C89.521 28.4478 89.0647 26.8052 88.2443 26.5305C89.3384 26.5305 90.3432 26.5305 91.346 26.5305C90.7985 26.6236 90.7073 27.0798 90.7073 27.5361C90.7073 28.9049 90.7073 28.9971 89.3384 29.269C88.0609 29.5437 86.6921 29.5437 85.5057 28.7224C84.3185 27.9011 83.7719 26.4411 84.1369 24.8906C84.4107 23.6122 85.7795 22.4258 87.0571 22.3346C87.8784 22.3346 88.7909 22.5171 89.6131 22.6093C89.886 22.6996 90.251 22.6093 90.7073 22.6093Z" fill="#720000"/>
<path d="M90.7073 22.6093C90.7073 23.1568 90.7073 23.8859 90.7073 24.7072C90.5248 24.3422 90.4335 24.1597 90.251 23.8859C89.7035 22.9734 88.8822 22.5171 87.788 22.6093C86.9667 22.7005 86.327 23.2471 86.1445 23.9781C85.8708 24.9819 85.8708 25.9848 85.8708 26.8973C85.8708 27.3536 86.0533 27.8099 86.2358 28.1749C86.6921 29.0874 87.8784 29.4525 88.7909 28.9962C88.8822 28.9962 88.9734 28.904 89.0647 28.904C89.521 28.4478 89.0647 26.8052 88.2443 26.5305C89.3384 26.5305 90.3432 26.5305 91.346 26.5305C90.7985 26.6236 90.7073 27.0798 90.7073 27.5361C90.7073 28.9049 90.7073 28.9971 89.3384 29.269C88.0609 29.5437 86.6921 29.5437 85.5057 28.7224C84.3185 27.9011 83.7719 26.4411 84.1369 24.8906C84.4107 23.6122 85.7795 22.4258 87.0571 22.3346C87.8784 22.3346 88.7909 22.5171 89.6131 22.6093C89.886 22.6996 90.251 22.6093 90.7073 22.6093Z" fill="#B13737"/>
<path d="M73.9163 29.27C74.4639 29.0884 74.6464 28.8137 74.6464 28.2662C74.6464 26.7157 74.6464 25.1635 74.6464 23.7034C74.6464 23.0656 74.2813 22.7909 73.8251 22.6093C74.4639 22.6093 75.1939 22.6093 75.8327 22.6093C76.0152 22.6093 76.289 22.8821 76.4715 23.0656C77.4753 24.251 78.3878 25.5285 79.4829 26.8973C79.4829 25.6198 79.4829 24.5247 79.4829 23.3384C79.4829 23.0656 79.0266 22.7909 78.8441 22.6093C79.3925 22.6093 80.0313 22.6093 80.6692 22.6093C79.9391 22.6996 79.8479 23.2472 79.8479 23.8859C79.8479 25.711 79.8479 27.6283 79.6654 29.5437C78.114 27.6274 76.654 25.8023 75.1026 23.8859C75.0114 23.8859 75.0114 23.8859 74.9201 23.8859C74.9201 24.4344 74.9201 24.981 74.9201 25.5285C74.9201 26.3498 74.9201 27.172 74.9201 27.9011C74.9201 28.4496 74.9201 29.0884 75.7414 29.1787C75.1026 29.27 74.4639 29.27 73.9163 29.27Z" fill="#720000"/>
<path d="M73.9163 29.27C74.4639 29.0884 74.6464 28.8137 74.6464 28.2662C74.6464 26.7157 74.6464 25.1635 74.6464 23.7034C74.6464 23.0656 74.2813 22.7909 73.8251 22.6093C74.4639 22.6093 75.1939 22.6093 75.8327 22.6093C76.0152 22.6093 76.289 22.8821 76.4715 23.0656C77.4753 24.251 78.3878 25.5285 79.4829 26.8973C79.4829 25.6198 79.4829 24.5247 79.4829 23.3384C79.4829 23.0656 79.0266 22.7909 78.8441 22.6093C79.3925 22.6093 80.0313 22.6093 80.6692 22.6093C79.9391 22.6996 79.8479 23.2472 79.8479 23.8859C79.8479 25.711 79.8479 27.6283 79.6654 29.5437C78.114 27.6274 76.654 25.8023 75.1026 23.8859C75.0114 23.8859 75.0114 23.8859 74.9201 23.8859C74.9201 24.4344 74.9201 24.981 74.9201 25.5285C74.9201 26.3498 74.9201 27.172 74.9201 27.9011C74.9201 28.4496 74.9201 29.0884 75.7414 29.1787C75.1026 29.27 74.4639 29.27 73.9163 29.27Z" fill="#B13737"/>
<path d="M48.73 29.27C49.2775 29.0874 49.2775 28.8137 49.095 28.3574C48.8212 27.537 48.4562 27.2633 47.6349 27.3536C47.4524 27.3536 47.1787 27.3536 46.904 27.3536C46.2661 27.2624 45.9914 27.5361 45.8098 28.0846C45.6273 28.8137 45.6273 28.9971 46.4486 29.27C45.8108 29.27 45.172 29.27 44.7157 29.27C44.9895 28.8137 45.3545 28.3574 45.6282 27.8099C46.4486 25.9848 47.2708 24.2509 48.0921 22.3346C49.2784 24.7072 50.0085 27.172 51.286 29.27C50.5551 29.27 49.6425 29.27 48.73 29.27ZM46.3574 26.9886C47.1787 26.9886 47.8174 26.9886 48.5475 26.9886C48.1825 26.1673 47.8174 25.4373 47.4524 24.5247C46.9962 25.4373 46.7224 26.1673 46.3574 26.9886Z" fill="#720000"/>
<path d="M48.73 29.27C49.2775 29.0874 49.2775 28.8137 49.095 28.3574C48.8212 27.537 48.4562 27.2633 47.6349 27.3536C47.4524 27.3536 47.1787 27.3536 46.904 27.3536C46.2661 27.2624 45.9914 27.5361 45.8098 28.0846C45.6273 28.8137 45.6273 28.9971 46.4486 29.27C45.8108 29.27 45.172 29.27 44.7157 29.27C44.9895 28.8137 45.3545 28.3574 45.6282 27.8099C46.4486 25.9848 47.2708 24.2509 48.0921 22.3346C49.2784 24.7072 50.0085 27.172 51.286 29.27C50.5551 29.27 49.6425 29.27 48.73 29.27ZM46.3574 26.9886C47.1787 26.9886 47.8174 26.9886 48.5475 26.9886C48.1825 26.1673 47.8174 25.4373 47.4524 24.5247C46.9962 25.4373 46.7224 26.1673 46.3574 26.9886Z" fill="#B13737"/>
<path d="M28.1064 7.91635C28.1977 8.00761 28.3802 8.19012 28.4715 8.28137C28.5627 8.37263 28.4715 8.46388 28.4715 8.64639C28.4715 15.5818 28.4715 22.5171 28.4715 29.4534C28.4715 29.635 28.4715 29.7262 28.4715 29.9097C27.8327 30.1825 27.9239 29.7262 27.9239 29.4534C27.9239 27.0798 27.9239 24.7985 27.9239 22.4259C27.9239 17.8631 27.9239 13.2091 27.9239 8.64639C27.9239 8.46388 27.9239 8.19012 27.9239 8.00761C28.0152 8.00761 28.0152 8.00761 28.1064 7.91635Z" fill="#720000"/>
<path d="M28.1064 7.91635C28.1977 8.00761 28.3802 8.19012 28.4715 8.28137C28.5627 8.37263 28.4715 8.46388 28.4715 8.64639C28.4715 15.5818 28.4715 22.5171 28.4715 29.4534C28.4715 29.635 28.4715 29.7262 28.4715 29.9097C27.8327 30.1825 27.9239 29.7262 27.9239 29.4534C27.9239 27.0798 27.9239 24.7985 27.9239 22.4259C27.9239 17.8631 27.9239 13.2091 27.9239 8.64639C27.9239 8.46388 27.9239 8.19012 27.9239 8.00761C28.0152 8.00761 28.0152 8.00761 28.1064 7.91635Z" fill="#B13737"/>
<path d="M67.346 29.27C67.8935 29.1787 68.076 28.7224 67.9847 28.2662C67.9847 26.7157 67.9847 25.1635 67.9847 23.6122C67.9847 23.0646 67.8926 22.6084 67.1635 22.6084C68.1682 22.6084 69.1711 22.6084 70.1749 22.6084C69.4448 22.6996 69.5361 23.2472 69.5361 23.7034C69.5361 25.2548 69.5361 26.8061 69.5361 28.3574C69.5361 28.7224 69.8098 28.9971 69.9002 29.27C69.2623 29.27 68.3498 29.27 67.346 29.27Z" fill="#720000"/>
<path d="M67.346 29.27C67.8935 29.1787 68.076 28.7224 67.9847 28.2662C67.9847 26.7157 67.9847 25.1635 67.9847 23.6122C67.9847 23.0646 67.8926 22.6084 67.1635 22.6084C68.1682 22.6084 69.1711 22.6084 70.1749 22.6084C69.4448 22.6996 69.5361 23.2472 69.5361 23.7034C69.5361 25.2548 69.5361 26.8061 69.5361 28.3574C69.5361 28.7224 69.8098 28.9971 69.9002 29.27C69.2623 29.27 68.3498 29.27 67.346 29.27Z" fill="#B13737"/>
</g>
<defs>
<clipPath id="clip0_481_12991">
<rect width="91" height="36" fill="white"/>
</clipPath>
</defs>
</svg>
