<svg width="90" height="36" viewBox="0 0 90 36" fill="none" xmlns="http://www.w3.org/2000/svg">
<g clip-path="url(#clip0_481_13325)">
<path d="M28.08 26.18C28.08 26.18 28.08 26.27 28.08 26.36V26.45L27.99 27.44C27.9 27.53 27.72 27.53 27.72 27.53C27.63 27.53 27.54 27.53 27.45 27.53C27.18 27.53 27 27.4391 26.82 27.17C26.64 26.9 26.55 26.63 26.55 26.27C26.55 25.73 26.64 25.37 26.91 25.1C27.09 24.83 27.36 24.65 27.72 24.65C27.99 24.65 28.17 24.74 28.35 24.83C28.44 24.83 28.44 24.92 28.44 24.92C28.53 25.0109 28.53 25.1 28.62 25.1V24.38H28.44H28.35L28.08 24.29H27.9H27.72C27.27 24.29 26.82 24.47 26.55 24.8309C26.19 25.19 26.1 25.64 26.1 26.09C26.1 26.54 26.19 26.9 26.46 27.17C26.73 27.44 27 27.53 27.45 27.53C27.63 27.53 27.81 27.53 27.9 27.53C28.08 27.53 28.26 27.4391 28.44 27.4391L28.62 27.3491C28.62 27.3491 28.62 27.2591 28.62 27.1691V27.0791L28.71 26.1791C28.71 26.0882 28.71 25.9991 28.8 25.9991C28.8 25.9091 28.89 25.8191 28.89 25.8191H28.08V26.18Z" fill="#232020"/>
<path d="M27.99 25.46C27.9 25.37 27.9 25.37 27.72 25.37C27.63 25.37 27.54 25.37 27.45 25.4609H27.99C28.08 25.46 28.08 25.46 27.99 25.46Z" fill="#232020"/>
<path d="M27.1801 26.36C27.1801 26.63 27.1801 26.81 27.2701 26.9C27.2701 26.9 27.3601 26.99 27.4501 26.99L27.5401 26.3609L27.2701 25.9109C27.2701 26.09 27.1801 26.27 27.1801 26.36Z" fill="#232020"/>
<path d="M30.33 26.72C30.33 26.8109 30.33 26.8109 30.33 26.9C30.33 26.9 30.33 26.81 30.33 26.72L30.6 26C30.42 26.18 30.33 26.45 30.33 26.72Z" fill="#232020"/>
<path d="M21.7799 25.1C21.6899 25.1 21.5999 25.1 21.5099 25.1L21.3299 25.19L21.1499 25.28L20.9699 25.46L21.0599 25.1H20.4299C20.4299 25.19 20.5199 25.28 20.5199 25.37V25.55L20.2499 27.35C20.2499 27.44 20.2499 27.53 20.1599 27.62C20.1599 27.7109 20.0699 27.7109 20.0699 27.8H20.7899L20.6999 27.71V27.62V27.44L20.8799 26.1809C20.8799 26.0009 20.9699 25.8209 21.0599 25.7309C21.1499 25.64 21.2399 25.5509 21.4199 25.5509C21.5099 25.5509 21.5999 25.5509 21.5999 25.6409C21.6899 25.6409 21.6899 25.7318 21.7799 25.8209V25.1Z" fill="#232020"/>
<path d="M23.2199 25.01C22.7699 25.01 22.4099 25.1891 22.1399 25.46C21.8699 25.8191 21.6899 26.18 21.6899 26.63C21.6899 26.9891 21.7799 27.26 21.9599 27.4391C22.1399 27.6191 22.4099 27.71 22.7699 27.71C23.0399 27.71 23.3099 27.6191 23.5799 27.4391L23.7599 27.3491L23.9399 26.8991C23.8499 26.9891 23.8499 26.9891 23.7599 27.0791L23.5799 27.1691C23.3099 27.26 23.1299 27.3491 22.9499 27.3491C22.4999 27.3491 22.2299 27.0791 22.2299 26.5391V26.2691L22.3199 25.91H24.2099V25.73C24.2099 25.46 24.1199 25.28 23.9399 25.1C23.7599 25.1 23.4899 25.01 23.2199 25.01ZM23.5799 25.82L23.4899 25.91H22.3199L22.4099 25.6391C22.4999 25.5491 22.4999 25.5491 22.5899 25.46C22.7699 25.28 22.9499 25.28 23.1299 25.28C23.3099 25.28 23.3999 25.28 23.4899 25.37C23.5799 25.4609 23.6699 25.55 23.6699 25.64C23.6699 25.73 23.6699 25.82 23.5799 25.82Z" fill="#232020"/>
<path d="M22.8599 26.9H22.9499C23.0399 26.9 23.1299 26.9 23.3099 26.81L23.4899 26.7191H22.8599C22.7699 26.81 22.8599 26.9 22.8599 26.9Z" fill="#232020"/>
<path d="M39.51 25.01C39.24 25.01 38.97 25.1 38.79 25.28L38.61 25.37L38.7 25.1H38.07C38.07 25.19 38.16 25.28 38.16 25.37V25.55L37.89 27.35C37.89 27.44 37.89 27.53 37.8 27.62C37.8 27.62 37.71 27.7109 37.71 27.8H38.43C38.34 27.71 38.34 27.62 38.34 27.62V27.44L38.52 26.1809C38.52 26.0009 38.61 25.9109 38.61 25.8209C38.61 25.7309 38.7 25.6409 38.79 25.6409L38.88 25.5509L39.06 25.4609H39.24H39.42C39.69 25.4609 39.87 25.5509 39.87 25.9109V26.1809L39.69 27.0809C39.69 27.2609 39.6 27.3509 39.6 27.5309L39.51 27.89H40.14L40.05 27.8V27.71V27.53L40.32 26.0891V25.8191C40.32 25.6391 40.23 25.5491 40.14 25.46C40.05 25.37 39.69 25.01 39.51 25.01Z" fill="#232020"/>
<path d="M39.06 26C39.06 26.09 39.06 26.09 39.06 26.18L38.88 27.35V27.26C38.88 27.1691 38.97 26.9891 38.97 26.9L39.06 26Z" fill="#232020"/>
<path d="M37.71 24.2C37.71 24.11 37.71 24.02 37.62 23.93C37.53 23.84 37.53 23.84 37.44 23.84C37.35 23.84 37.26 23.84 37.17 23.9309C37.08 24.0209 37.08 24.1109 37.08 24.2009C37.08 24.2909 37.08 24.3809 37.17 24.3809C37.26 24.4709 37.26 24.4709 37.35 24.4709C37.44 24.4709 37.44 24.4709 37.53 24.4709C37.53 24.4709 37.62 24.4709 37.62 24.3809C37.71 24.38 37.71 24.29 37.71 24.2Z" fill="#232020"/>
<path d="M19.8 25.1H19.17C19.17 25.19 19.26 25.28 19.26 25.37V25.55L19.08 26.81C19.08 26.9891 18.99 27.08 18.99 27.08C18.99 27.17 18.9 27.17 18.9 27.26C18.81 27.35 18.72 27.35 18.63 27.4391C18.54 27.4391 18.45 27.53 18.27 27.53C17.91 27.53 17.73 27.35 17.73 27.08V26.9V26.72L18 25.1H17.37C17.46 25.19 17.46 25.28 17.46 25.37V25.55L17.28 26.9C17.28 26.99 17.28 27.08 17.28 27.17C17.28 27.17 17.28 27.2609 17.28 27.35C17.28 27.53 17.37 27.62 17.46 27.71C17.64 27.8 17.82 27.89 18 27.89C18.36 27.89 18.54 27.8 18.72 27.62L18.9 27.44V27.71H19.53C19.44 27.6191 19.44 27.53 19.44 27.53V27.35L19.8 25.1Z" fill="#232020"/>
<path d="M31.32 25.1C31.23 25.1 31.05 25.1 30.96 25.1C30.42 25.1 30.06 25.28 29.7 25.55C29.34 25.91 29.25 26.27 29.25 26.81C29.25 27.1691 29.34 27.35 29.52 27.53C29.7 27.71 29.88 27.8 30.15 27.8C30.24 27.8 30.24 27.8 30.33 27.8C30.42 27.8 30.42 27.8 30.51 27.71C30.6 27.6191 30.78 27.6191 30.87 27.53L30.96 27.4391L31.05 27.3491C31.05 27.4391 31.05 27.4391 31.05 27.5291V27.7091H31.5C31.5 27.7091 31.5 27.7091 31.5 27.6182V27.4382L31.77 25.6382L31.86 25.3682C31.86 25.3682 31.86 25.2782 31.95 25.2782C31.95 25.2782 31.95 25.2782 31.95 25.1873H31.77L31.32 25.1ZM31.23 25.73L31.05 26.72C31.05 26.9 30.96 26.99 30.96 27.08C30.96 27.17 30.87 27.17 30.87 27.26C30.69 27.4391 30.51 27.53 30.33 27.53C30.15 27.53 29.97 27.4391 29.88 27.35C29.79 27.26 29.7 26.99 29.7 26.72C29.7 26.3609 29.79 26 30.06 25.73C30.24 25.46 30.51 25.28 30.87 25.28C31.14 25.28 31.23 25.37 31.23 25.55V25.73Z" fill="#232020"/>
<path d="M37.53 25.1H36.9C36.9 25.1 36.9 25.19 36.99 25.19V25.28V25.46L36.72 27.26C36.72 27.4391 36.63 27.53 36.54 27.71H37.26C37.17 27.6191 37.17 27.53 37.17 27.53V27.35L37.53 25.1Z" fill="#232020"/>
<path d="M35.46 25.01C35.19 25.01 34.92 25.1 34.65 25.28L34.47 25.46C34.38 25.3691 34.38 25.28 34.29 25.1891C34.29 25.1891 34.29 25.0991 34.2 25.0991C34.11 25.0991 34.02 25.0091 33.84 25.0091C33.57 25.0091 33.39 25.0991 33.12 25.1882L32.94 25.3682L33.03 25.0982H32.4C32.4 25.1882 32.49 25.2782 32.49 25.3682V25.5482L32.22 27.3482C32.22 27.4382 32.22 27.5282 32.13 27.5282L32.0399 27.6182C32.0399 27.6182 32.04 27.7091 31.95 27.7091H32.67L32.58 27.62V27.53V27.35L32.76 26C32.76 25.82 32.85 25.73 32.85 25.73C32.85 25.6391 32.94 25.6391 33.03 25.55C33.21 25.46 33.39 25.37 33.57 25.37C33.84 25.37 34.02 25.55 34.02 25.82V26.18L33.84 27.08L33.66 27.8H34.29L34.2 27.71V27.62V27.44L34.38 26.09C34.38 25.9109 34.47 25.7309 34.65 25.55C34.83 25.46 34.92 25.37 35.19 25.37C35.28 25.37 35.46 25.37 35.55 25.4609C35.64 25.5509 35.64 25.64 35.64 25.82V26.09L35.46 26.99L35.37 27.35L35.28 27.8H36C35.91 27.71 35.91 27.62 35.91 27.53V27.35L36.18 25.91V25.55C36.18 25.37 36.09 25.28 36 25.19C35.91 25.1 35.73 25.01 35.46 25.01Z" fill="#232020"/>
<path d="M16.8301 24.38L16.2901 24.56L16.2001 25.1H16.0201L15.9301 25.37H16.2001L15.9301 27.08V27.44C15.9301 27.5309 15.9301 27.62 16.0201 27.7109C16.1101 27.8 16.2001 27.8 16.3801 27.8C16.5601 27.8 16.7401 27.71 16.9201 27.62L17.0101 27.2609C16.9201 27.3509 16.8301 27.44 16.6501 27.44C16.5601 27.44 16.4701 27.35 16.4701 27.2609V27.0809L16.7401 25.2809H17.1001L17.1901 25.0109H16.6501L16.8301 24.38Z" fill="#232020"/>
<path d="M16.65 21.05C18.99 21.05 21.42 21.05 23.76 21.05C25.56 21.05 26.46 20.33 26.82 18.53C26.91 18.17 26.91 17.81 27 17.5391C27.36 15.38 27.72 13.2191 28.17 10.9691H26.28C26.19 11.2391 26.19 11.5091 26.1 11.7791C25.74 13.9391 25.29 16.1891 24.93 18.3491C24.84 18.9791 24.48 19.5191 23.85 19.5191C21.51 19.5191 19.17 19.5191 16.92 19.5191C16.29 19.5191 16.02 19.16 16.11 18.5291C16.29 17.5382 16.47 16.5491 16.65 15.6491C16.92 14.1191 17.19 12.5891 17.46 10.9691H15.57C15.48 11.0591 15.48 11.2391 15.48 11.3291C15.12 13.5791 14.76 15.9191 14.31 18.1691C13.77 19.97 14.49 20.96 16.65 21.05Z" fill="#232020"/>
<path d="M41.76 26.72C41.76 26.8109 41.76 26.9 41.76 26.9C41.76 26.9 41.76 26.81 41.76 26.72L41.85 26.09C41.76 26.18 41.76 26.36 41.76 26.72Z" fill="#232020"/>
<path d="M11.52 15.38H3.59997C3.77997 14.3 3.95997 13.4 4.13997 12.41C4.49997 12.41 4.76997 12.41 5.03997 12.41C7.10997 12.41 9.17997 12.41 11.25 12.41C12.96 12.41 12.51 12.68 12.78 10.97H2.51997C1.88997 14.3 1.34997 17.63 0.719971 21.05H2.60997C2.87997 19.7 3.05997 18.35 3.32997 16.91H11.25C11.43 16.37 11.43 15.92 11.52 15.38Z" fill="#232020"/>
<path d="M44.37 21.05H44.46C45.09 21.05 45.54 20.78 45.99 20.15C46.8 19.25 47.52 18.26 48.3309 17.36C49.5009 15.92 50.7609 14.48 51.9309 13.04C52.1109 13.4 52.2009 13.67 52.3809 13.94C53.4609 16.1 54.4509 18.35 55.5309 20.51C55.6209 20.6891 55.89 21.05 56.0709 21.05C56.6118 21.14 57.2409 21.05 57.8709 21.05C57.7809 20.87 57.6909 20.69 57.6909 20.6C56.2509 17.63 54.8118 14.66 53.3709 11.69C52.9209 10.7 51.9309 10.61 51.2118 11.42C48.6909 14.48 46.0818 17.45 43.5618 20.5109C43.4718 20.69 43.2918 20.87 43.1118 21.0509C43.56 21.05 44.28 21.05 44.37 21.05Z" fill="#232020"/>
<path d="M31.6801 20.87C33.1201 21.05 34.4701 21.05 35.9101 21.05C37.0801 21.05 38.1601 21.05 39.3301 20.87C40.2301 20.78 41.1301 20.33 41.4001 19.34C41.7601 18.0809 41.9401 16.82 42.2101 15.47C41.7601 15.47 41.4001 15.47 41.0401 15.47C40.5001 15.38 40.1401 15.56 40.1401 16.19C40.0501 16.82 39.9601 17.54 39.7801 18.17C39.6001 19.1609 39.3301 19.43 38.3401 19.43C36.4501 19.43 34.5601 19.43 32.7601 19.43C31.8601 19.43 31.6801 19.16 31.8601 18.26C32.1301 16.8191 32.4001 15.29 32.6701 13.85C32.9401 12.5 33.1201 12.32 34.5601 12.32C36.8101 12.32 39.0601 12.32 41.3101 12.32C42.7501 12.32 42.7501 12.32 42.8401 10.88C42.7501 10.88 42.5701 10.88 42.4801 10.88C39.7801 10.88 37.1701 10.88 34.4701 10.88C33.7501 10.88 33.1201 11.06 32.4901 11.33C31.5901 11.6 31.1401 12.32 30.9601 13.22C30.6901 14.93 30.3301 16.64 30.0601 18.44C29.7001 19.97 30.1501 20.69 31.6801 20.87Z" fill="#232020"/>
<path d="M14.13 26.9C14.13 26.9 14.13 26.81 14.13 26.72L14.31 25.4609V25.37C14.31 25.37 14.31 25.37 14.31 25.28L14.13 26.9Z" fill="#232020"/>
<path d="M18.45 26.9C18.45 26.9 18.45 26.81 18.45 26.72L18.63 25.4609V25.37C18.63 25.37 18.63 25.37 18.63 25.28L18.45 26.9Z" fill="#232020"/>
<path d="M15.57 25.1H14.94C14.94 25.19 15.03 25.28 15.03 25.37V25.55L14.85 26.81C14.85 26.9891 14.76 27.08 14.76 27.08C14.76 27.08 14.67 27.17 14.67 27.26C14.58 27.35 14.49 27.35 14.4 27.4391C14.31 27.4391 14.22 27.53 14.04 27.53C13.68 27.53 13.5 27.35 13.5 27.08V26.9V26.72L13.77 25.1H13.14C13.23 25.19 13.23 25.28 13.23 25.37V25.55L13.05 26.9C13.05 26.99 13.05 27.08 13.05 27.17C13.05 27.17 13.05 27.2609 13.05 27.35C13.05 27.53 13.14 27.62 13.23 27.71C13.41 27.8 13.59 27.8891 13.77 27.8891C14.13 27.8891 14.31 27.7991 14.49 27.6191L14.67 27.4391L14.58 27.8H15.3C15.21 27.71 15.21 27.62 15.21 27.62V27.44L15.57 25.1Z" fill="#232020"/>
<path d="M10.71 23.48H10.8H10.89C10.89 23.48 10.89 23.48 10.98 23.48H11.07C11.16 23.48 11.16 23.48 11.25 23.3891C11.34 23.3891 11.43 23.3891 11.52 23.2991H11.61L11.79 23.2091V23.0291V22.94C11.79 22.85 11.79 22.85 11.79 22.7609C11.79 22.5809 11.79 22.49 11.79 22.3109C11.79 22.1309 11.79 21.9509 11.79 21.77C11.79 21.5891 11.79 21.4109 11.79 21.23C11.79 21.0491 11.79 20.87 11.79 20.6891C11.79 20.51 11.79 20.33 11.79 20.1491C11.79 20.0591 11.79 20.0591 11.79 19.9691V19.8791C11.88 19.8791 11.88 19.7882 11.97 19.7882C12.06 19.6982 12.15 19.6091 12.15 19.5182C12.15 19.3382 12.15 19.2482 12.06 19.0682C11.97 18.8882 11.79 18.8 11.61 18.8C11.52 18.8 11.43 18.8 11.34 18.89C11.25 18.9809 11.25 18.9809 11.16 19.07C11.07 19.25 11.07 19.43 11.07 19.6109C11.07 19.6109 11.07 19.7009 11.16 19.7009C11.16 19.7009 11.16 19.7009 11.16 19.7909C11.16 19.7909 11.16 19.8818 11.07 19.8818C10.98 19.9718 10.89 20.0618 10.8 20.2409C10.71 20.3318 10.71 20.3318 10.62 20.4209C10.62 20.4209 10.62 20.4209 10.53 20.4209C10.44 20.4209 10.44 20.4209 10.35 20.3309C10.26 20.24 10.26 20.24 10.26 20.1509C10.26 20.1509 10.26 20.1509 10.26 20.0609L10.17 19.97C10.17 19.88 10.17 19.88 10.08 19.79C10.08 19.79 10.17 19.7 10.17 19.6109C10.17 19.52 10.26 19.4309 10.26 19.34C10.26 19.25 10.26 19.07 10.17 19.07C10.08 18.98 9.99001 18.89 9.81001 18.89C9.63001 18.89 9.54001 18.89 9.45002 18.9809C9.36001 19.0709 9.27001 19.1609 9.18001 19.34C9.18001 19.4309 9.18001 19.4309 9.18001 19.52C9.18001 19.6109 9.18002 19.6109 9.27002 19.7C9.27002 19.79 9.36001 19.79 9.45002 19.88C9.45002 19.97 9.45002 19.97 9.45002 20.06C9.45002 20.15 9.36001 20.2391 9.36001 20.33C9.36001 20.42 9.27002 20.42 9.27002 20.51C9.27002 20.51 9.27001 20.51 9.18001 20.51H9.09002C9.00002 20.51 9.00001 20.4191 8.91001 20.33C8.82001 20.2391 8.73002 20.15 8.64002 20.06C8.46002 19.88 8.37001 19.79 8.28001 19.7C8.28001 19.61 8.19002 19.61 8.19002 19.52V19.43C8.19002 19.25 8.19001 19.16 8.10001 18.98C7.65001 18.89 7.56001 18.8 7.38001 18.8C7.29001 18.8 7.20001 18.8 7.11001 18.89C7.11001 18.89 7.11001 18.89 7.02002 18.89C6.93002 18.89 6.93001 18.9809 6.93001 18.9809C6.84001 19.0709 6.84001 19.1609 6.75001 19.2509C6.75001 19.3409 6.75001 19.4309 6.75001 19.5209C6.75001 19.6118 6.84001 19.7009 6.93001 19.7909C7.02001 19.88 7.02002 19.88 7.11001 19.88C7.11001 19.88 7.11001 19.88 7.11001 19.97C7.11001 20.0609 7.11001 20.0609 7.20001 20.15C7.20001 20.33 7.29002 20.42 7.29002 20.51C7.29002 20.78 7.29002 20.96 7.29002 21.1391C7.29002 21.23 7.29002 21.23 7.29002 21.3191C7.29002 21.41 7.20001 21.41 7.20001 21.41C7.11001 21.41 7.11001 21.41 7.02002 21.41H6.93001H6.84001C6.75001 21.41 6.66002 21.3191 6.57001 21.3191C6.48002 21.3191 6.48001 21.2291 6.39001 21.2291C6.39001 21.1382 6.39001 21.0491 6.30001 20.9591C6.30001 20.87 6.30001 20.87 6.30001 20.78C6.30001 20.69 6.21001 20.69 6.21001 20.69C6.12001 20.6 6.03001 20.6 5.94001 20.6C5.85001 20.6 5.67001 20.6 5.58001 20.69C5.40001 20.78 5.31001 20.96 5.31001 21.14C5.31001 21.2309 5.31001 21.4109 5.49001 21.5C5.58001 21.59 5.67001 21.68 5.76001 21.68C5.85001 21.68 5.85001 21.68 5.94001 21.68C5.94001 21.68 5.94001 21.77 6.03001 21.77C6.03001 21.77 6.03001 21.8609 6.12002 21.8609C6.12002 21.8609 6.12002 21.8609 6.12002 21.9509C6.12002 21.9509 6.12002 21.9509 6.12002 22.0409V22.13C6.12002 22.22 6.12002 22.22 6.12002 22.31C6.12002 22.31 6.12001 22.4 6.03001 22.4C6.03001 22.4 5.94001 22.4 5.94001 22.49C5.94001 22.49 5.94001 22.49 5.85001 22.49C5.67001 22.49 5.58001 22.49 5.49001 22.49C5.40001 22.49 5.22001 22.49 5.13001 22.4C5.13001 22.31 5.04001 22.22 4.95001 22.13C4.77001 22.04 4.68001 22.04 4.50001 22.04C4.41001 22.04 4.23001 22.1309 4.23001 22.3109C4.14001 22.4 4.14001 22.49 4.14001 22.67C4.14001 22.7609 4.14001 22.85 4.23001 22.94C4.32001 23.03 4.41001 23.12 4.59001 23.21C4.68001 23.21 4.77001 23.21 4.86001 23.21L5.04001 23.39L5.22001 23.3L5.31001 23.39L5.40001 23.48L5.49001 23.57L5.58001 23.66L5.67001 23.75L5.76001 23.84L5.85001 23.93L5.94001 24.02L6.03001 24.11C6.21001 24.2 6.21001 24.29 6.30001 24.29L6.39001 24.38L6.48001 24.47L6.57001 24.56L6.66001 24.65L6.75001 24.74L6.84001 24.83C6.93001 24.83 6.93002 24.92 7.02002 24.92L7.11001 25.01L7.20001 25.1C7.29001 25.19 7.38002 25.19 7.47002 25.19C7.47002 25.19 7.47001 25.19 7.56001 25.19C7.56001 25.19 7.56001 25.19 7.65001 25.19L7.74002 25.1C7.83002 25.01 7.92001 25.01 8.01001 24.92C8.10001 24.83 8.19001 24.83 8.28001 24.74L8.10001 24.65C8.19001 24.56 8.19001 24.56 8.28001 24.56C8.37001 24.56 8.46001 24.4691 8.55001 24.4691C8.64002 24.4691 8.64001 24.3791 8.73001 24.3791C8.73001 24.3791 8.82001 24.2882 8.91001 24.2882H9.00001C9.09001 24.2882 9.18001 24.1982 9.18001 24.1982C9.27001 24.1982 9.36001 24.1082 9.45002 24.1082L9.54002 24.0173H9.63001C9.72001 24.0173 9.81001 23.9273 9.90001 23.9273C9.90001 23.9273 9.90002 23.9273 9.99002 23.9273C10.08 23.9273 10.08 23.8364 10.17 23.8364H10.26H10.35H10.44H10.53H10.62C10.62 23.57 10.62 23.57 10.71 23.48C10.71 23.57 10.71 23.48 10.71 23.48ZM10.62 23.12C10.53 23.12 10.62 23.12 10.62 23.12C10.53 23.12 10.53 23.12 10.53 23.12H10.44H10.35H10.26H10.17H10.08L9.90001 23.39H9.81001C9.72001 23.39 9.63002 23.4809 9.54002 23.4809H9.45002L9.36001 23.5709C9.27001 23.5709 9.18002 23.6618 9.09002 23.6618C9.00002 23.6618 8.91002 23.7518 8.82001 23.7518H8.73001C8.64001 23.7518 8.64002 23.8418 8.55001 23.8418C8.46001 23.8418 8.46002 23.9327 8.37002 23.9327C8.28001 24.11 8.19001 24.2 8.10001 24.2C8.01001 24.2 8.01002 24.29 7.92002 24.29C7.92002 24.29 7.83001 24.29 7.83001 24.3809C7.74001 24.4709 7.65001 24.4709 7.56001 24.5609C7.47001 24.6509 7.38002 24.6509 7.29002 24.74C7.20002 24.74 7.20001 24.65 7.11001 24.65L7.02002 24.56L6.93001 24.47L6.84001 24.38L6.75001 24.29L6.66001 24.2L6.57001 24.11C6.48002 24.02 6.48001 24.02 6.39001 23.93L6.30001 23.84L6.21001 23.75L6.12002 23.66L6.03001 23.57L5.94001 23.48L5.76001 23.3L5.67001 23.21L5.58001 23.12L5.49001 23.03L5.40001 22.94L5.31001 22.85C5.40001 22.85 5.49001 22.85 5.58001 22.85C5.67001 22.85 5.85001 22.85 5.94001 22.85C6.03001 22.85 6.12002 22.85 6.12002 22.85C6.12002 22.85 6.12001 22.85 6.21001 22.85C6.30001 22.85 6.30001 22.76 6.39001 22.76C6.48001 22.67 6.57001 22.58 6.57001 22.4C6.57001 22.31 6.57001 22.13 6.57001 22.13V22.04C6.57001 22.04 6.57001 22.04 6.57001 21.95V21.86C6.57001 21.86 6.57001 21.86 6.57001 21.7691C6.57001 21.6791 6.57001 21.6791 6.48001 21.5891H6.57001C6.66002 21.68 6.84001 21.68 6.93001 21.68C6.93001 21.68 6.93002 21.68 7.02002 21.68H7.11001C7.29001 21.68 7.38002 21.68 7.47002 21.68C7.56001 21.59 7.65002 21.5 7.74002 21.41C7.74002 21.3191 7.83001 21.23 7.83001 21.1391C7.83001 20.96 7.83001 20.6891 7.83001 20.4191C7.83001 20.2391 7.83002 20.1491 7.74002 20.06C7.74002 19.9691 7.74002 19.9691 7.74002 19.88C7.74002 19.88 7.74001 19.97 7.83001 19.97C7.92001 20.0609 8.01002 20.24 8.19002 20.42C8.10002 20.6 8.19001 20.69 8.28001 20.78C8.37001 20.87 8.46002 20.96 8.64002 20.96C8.73002 20.96 8.82001 21.05 9.00001 20.96H9.09002C9.18002 20.96 9.18002 20.8691 9.27002 20.8691C9.36001 20.7791 9.45002 20.6891 9.45002 20.5991C9.45002 20.5091 9.54002 20.4191 9.54002 20.3291C9.54002 20.2382 9.54001 20.2382 9.63001 20.1491C9.63001 20.1491 9.63001 20.2391 9.72002 20.2391C9.72002 20.33 9.81001 20.33 9.81001 20.4191C9.81001 20.4191 9.81001 20.4191 9.81001 20.51C9.90001 20.6 9.90002 20.69 9.99002 20.78C10.08 20.87 10.26 20.96 10.44 20.96C10.53 20.96 10.62 20.96 10.62 20.96C10.8 20.8691 10.89 20.78 10.89 20.6891C10.98 20.51 11.16 20.4191 11.16 20.2391C11.16 20.2391 11.16 20.1491 11.25 20.1491C11.25 20.2391 11.25 20.3291 11.25 20.3291C11.25 20.5091 11.25 20.6882 11.25 20.8691C11.25 21.05 11.25 21.2291 11.25 21.41C11.25 21.5891 11.25 21.7691 11.25 22.0391C11.25 22.2191 11.25 22.3991 11.25 22.58C11.25 22.7609 11.25 22.85 11.25 23.03V23.12C11.16 23.12 11.07 23.12 11.07 23.2109C10.98 23.2109 10.89 23.2109 10.89 23.3009H10.8C10.8 23.3009 10.8 23.3009 10.71 23.3009C10.71 23.3009 10.71 23.3009 10.62 23.3009C10.71 23.12 10.62 23.12 10.62 23.12Z" fill="#232020"/>
<path d="M10.98 24.74C10.98 24.8309 10.98 24.8309 10.98 24.92V25.01L10.8 27.35C10.8 27.44 10.8 27.53 10.71 27.62L10.62 27.8H11.43L11.34 27.62C11.34 27.53 11.34 27.53 11.34 27.44V27.35L11.43 26.27H11.79C11.97 26.27 12.06 26.27 12.15 26.3609C12.24 26.3609 12.33 26.4509 12.33 26.54L12.42 25.82L12.33 25.91C12.33 25.91 12.24 26 12.15 26L11.97 26.09H11.7H11.34L11.43 25.0109H11.88C12.06 25.0109 12.24 25.0109 12.33 25.1009C12.42 25.1909 12.51 25.2809 12.6 25.3709L12.69 24.8309H10.8C10.98 24.65 10.98 24.74 10.98 24.74Z" fill="#232020"/>
<path d="M49.05 25.01C48.87 25.01 48.69 25.01 48.42 25.1C48.24 25.19 48.0609 25.28 47.88 25.37C47.52 25.64 47.34 26 47.34 26.36V26.54C47.34 26.9 47.4309 27.17 47.7 27.44C47.88 27.62 48.24 27.8 48.6 27.8C49.05 27.8 49.41 27.62 49.77 27.35C50.13 27.08 50.22 26.63 50.22 26.18C50.22 25.82 50.13 25.55 49.8609 25.37C49.68 25.1 49.32 25.01 49.05 25.01ZM49.32 27.26C49.14 27.53 48.87 27.62 48.6 27.62C48.42 27.62 48.24 27.53 48.15 27.44C48.06 27.26 47.97 27.08 47.88 26.81V26.63C47.88 26.18 47.97 25.91 48.15 25.6391C48.33 25.3691 48.6 25.1891 48.87 25.1891C49.14 25.1891 49.23 25.28 49.41 25.46C49.5 25.64 49.59 25.91 49.59 26.18C49.68 26.63 49.5 26.99 49.32 27.26Z" fill="#232020"/>
<path d="M58.68 25.01C58.5 25.01 58.32 25.01 58.05 25.1C57.87 25.19 57.69 25.28 57.51 25.37C57.15 25.64 56.97 26 56.97 26.36V26.54C56.97 26.9 57.0609 27.17 57.33 27.44C57.51 27.62 57.87 27.8 58.23 27.8C58.68 27.8 59.0391 27.62 59.4 27.35C59.76 26.99 59.85 26.63 59.85 26.18C59.85 25.82 59.76 25.55 59.49 25.37C59.31 25.1 59.04 25.01 58.68 25.01ZM59.04 27.26C58.86 27.53 58.59 27.62 58.32 27.62C58.14 27.62 57.9609 27.53 57.87 27.44C57.78 27.26 57.69 27.08 57.6 26.81V26.63C57.6 26.18 57.69 25.91 57.87 25.6391C58.05 25.3691 58.32 25.1891 58.59 25.1891C58.8609 25.1891 58.95 25.28 59.1309 25.46C59.2209 25.6391 59.3109 25.91 59.3109 26.18C59.31 26.63 59.22 26.99 59.04 27.26Z" fill="#232020"/>
<path d="M61.56 26C61.56 26.09 61.56 26.09 61.56 26.18L61.38 27.35V27.26C61.38 27.1691 61.47 26.9891 61.47 26.9L61.56 26Z" fill="#232020"/>
<path d="M58.68 25.82C58.5891 25.82 58.5 25.82 58.41 26C58.3191 26.18 58.23 26.36 58.23 26.63V26.72C58.23 26.8109 58.23 26.9 58.32 26.99C58.4109 26.99 58.5 26.99 58.59 26.8109C58.6809 26.6309 58.77 26.4509 58.77 26.1809C58.77 26 58.68 25.82 58.68 25.82Z" fill="#232020"/>
<path d="M61.92 25.01C61.65 25.01 61.38 25.1 61.2 25.28L61.02 25.37L61.11 25.1H60.48C60.48 25.19 60.57 25.28 60.57 25.37V25.55L60.3 27.35C60.3 27.44 60.3 27.53 60.21 27.62C60.21 27.62 60.1191 27.7109 60.1191 27.8H60.8391C60.7491 27.71 60.7491 27.62 60.7491 27.62V27.44L60.9291 26.1809C60.9291 26.0009 61.0191 25.9109 61.0191 25.8209C61.0191 25.7309 61.11 25.6409 61.1991 25.6409L61.2891 25.5509L61.4691 25.4609H61.6491H61.8291C62.0991 25.4609 62.2791 25.5509 62.2791 25.9109V26.1809L62.0991 27.0809C62.0991 27.2609 62.0091 27.3509 62.0091 27.5309L61.92 27.89H62.55L62.46 27.8V27.71V27.53L62.73 26.0891V25.8191C62.73 25.6391 62.6391 25.5491 62.55 25.46C62.37 25.1 62.19 25.01 61.92 25.01Z" fill="#232020"/>
<path d="M56.7 23.93C56.61 23.93 56.52 23.93 56.43 24.02C56.34 24.11 56.34 24.2 56.34 24.29C56.34 24.3809 56.34 24.47 56.4309 24.47C56.5209 24.5609 56.5209 24.5609 56.6109 24.5609C56.7009 24.5609 56.7009 24.5609 56.79 24.5609C56.79 24.5609 56.8809 24.5609 56.8809 24.47C56.9709 24.38 56.9709 24.29 56.9709 24.2C56.9709 24.11 56.9709 24.02 56.8809 23.93C56.88 23.93 56.79 23.93 56.7 23.93Z" fill="#232020"/>
<path d="M56.79 25.1H56.1601C56.1601 25.1 56.16 25.19 56.25 25.19V25.28V25.46L55.98 27.26C55.98 27.4391 55.8891 27.53 55.8 27.71H56.6101C56.5201 27.62 56.52 27.53 56.52 27.53V27.35L56.79 25.1Z" fill="#232020"/>
<path d="M86.85 10.97C84.33 10.88 81.81 10.97 79.29 10.97C77.67 10.97 76.5 11.69 76.2309 12.95C75.7809 14.93 75.4209 17 75.1509 19.07C75.0609 19.97 75.5109 20.6 76.3209 20.87C76.7709 21.05 77.2209 21.05 77.7618 21.14C78.9318 21.14 80.1018 21.14 81.2709 21.14C82.5309 21.14 83.7009 21.14 84.9618 21.14C86.8518 21.14 88.0209 20.24 88.2909 18.5309C88.56 17 88.83 15.38 89.1 13.76C89.46 11.87 88.74 10.97 86.85 10.97ZM87.21 13.49C86.94 15.11 86.67 16.82 86.4 18.44C86.31 19.16 85.77 19.43 85.05 19.43C83.88 19.43 82.71 19.43 81.54 19.43C80.37 19.43 79.2 19.43 78.12 19.43C77.3109 19.43 77.04 19.07 77.13 18.35C77.4 16.73 77.76 15.11 78.03 13.49C78.12 12.68 78.66 12.41 79.38 12.41C81.72 12.41 84.06 12.41 86.4 12.41C87.12 12.41 87.39 12.68 87.21 13.49Z" fill="#232020"/>
<path d="M55.08 27.26V27.08L55.35 25.28H55.8L55.89 25.01H55.35L55.44 24.2891L54.9 24.47L54.99 25.1H54.81L54.72 25.37H54.9L54.63 27.08V27.44C54.63 27.5309 54.63 27.62 54.72 27.7109C54.81 27.8 54.9 27.8 55.08 27.8C55.26 27.8 55.4391 27.71 55.62 27.62L55.71 27.26C55.62 27.35 55.53 27.44 55.35 27.44C55.17 27.53 55.08 27.44 55.08 27.26Z" fill="#232020"/>
<path d="M64.53 25.1C64.4391 25.1 64.4391 25.1 64.35 25.1H64.26C63.99 25.1 63.72 25.19 63.54 25.37C63.3609 25.55 63.27 25.73 63.27 26C63.27 26.09 63.3609 26.27 63.45 26.36C63.54 26.45 63.72 26.5391 63.9 26.7191L64.17 26.8991L64.2609 26.9891C64.3509 27.08 64.3509 27.1691 64.3509 27.26C64.3509 27.4391 64.2609 27.53 64.1709 27.6191C64.08 27.71 63.99 27.8 63.81 27.8C63.63 27.8 63.5391 27.71 63.45 27.62C63.36 27.53 63.27 27.35 63.18 27.17L63.09 27.8C63.27 27.89 63.3609 27.98 63.54 27.98C63.6309 27.98 63.72 27.98 63.8109 27.98C64.0809 27.98 64.3509 27.8891 64.62 27.71C64.8 27.53 64.98 27.26 64.98 26.9891C64.98 26.8991 64.98 26.7191 64.8891 26.63C64.8 26.54 64.71 26.45 64.53 26.36L64.35 26.27C64.26 26.18 64.17 26.09 64.08 26.09C63.99 26 63.99 26 63.99 25.91C63.99 25.8191 64.0809 25.6391 64.17 25.55C64.2609 25.46 64.44 25.37 64.53 25.37C64.71 25.37 64.8 25.4609 64.8891 25.55C64.98 25.64 64.98 25.73 65.0691 25.82L65.16 25.28C64.8 25.1 64.71 25.1 64.71 25.1C64.62 25.1 64.62 25.1 64.53 25.1Z" fill="#232020"/>
<path d="M63.81 10.97C61.7391 11.06 60.75 12.14 60.5691 14.21C60.4791 15.2 60.9291 15.92 61.9191 16.19C62.3691 16.28 62.8191 16.37 63.2691 16.37C65.16 16.37 66.96 16.37 68.8491 16.37C70.5591 16.37 70.6491 16.55 70.3791 18.17C70.1991 19.25 69.9291 19.52 68.7591 19.52C66.4182 19.52 64.0791 19.52 61.7382 19.52H60.03C59.94 20.06 59.85 20.6 59.76 21.05C59.85 21.05 60.93 21.05 62.55 21.05C63.99 21.05 65.88 21.05 67.41 21.05C67.86 21.05 68.31 21.05 68.6691 21.05C68.8491 21.05 68.9391 21.05 69.1191 21.05C71.01 20.96 71.9991 20.06 72.2691 18.17C72.2691 17.99 72.36 17.8109 72.36 17.63C72.63 15.92 72 15.02 70.2891 14.93C68.13 14.84 66.06 14.84 63.9 14.84C62.64 14.84 62.28 14.48 62.73 13.22C62.91 12.5 63.5391 12.41 64.17 12.41C66.69 12.41 69.12 12.41 71.64 12.41C72.99 12.41 72.99 12.32 72.9 10.88C69.84 10.88 66.87 10.88 63.81 10.97Z" fill="#232020"/>
<path d="M52.92 26.9C52.92 26.9 52.92 26.81 52.92 26.72L53.1 25.46V25.37C53.1 25.37 53.1 25.37 53.1 25.28L52.92 26.9C52.92 26.9 52.83 26.9 52.92 26.9Z" fill="#232020"/>
<path d="M46.71 24.65L46.4399 24.56C46.3499 24.56 46.2608 24.56 46.1699 24.56C45.8999 24.56 45.6299 24.65 45.4499 24.83C45.2699 25.01 45.1799 25.1891 45.1799 25.46C45.1799 25.6391 45.1799 25.73 45.2699 25.91C45.3599 26 45.5399 26.18 45.7199 26.36L45.9899 26.5391L46.0799 26.63L46.1699 26.72C46.2599 26.81 46.2599 26.9 46.2599 27.08C46.2599 27.26 46.1699 27.44 46.0799 27.53C45.989 27.62 45.8099 27.71 45.6299 27.71C45.4499 27.71 45.2699 27.6191 45.1799 27.53C45.0899 27.4391 45.0899 27.4391 45.0899 27.35C45.0899 27.35 45.0899 27.26 44.9999 27.26C44.9999 27.26 44.9999 27.1691 44.9099 27.08L44.8199 27.71L45.0899 27.8L45.3599 27.89C45.4499 27.89 45.5399 27.89 45.7199 27.89C46.0799 27.89 46.3499 27.8 46.5299 27.62C46.7999 27.44 46.8899 27.17 46.8899 26.9C46.8899 26.81 46.8899 26.63 46.7999 26.54C46.7099 26.45 46.6199 26.27 46.4399 26.1809L46.1699 26C45.9899 25.91 45.8999 25.73 45.8108 25.64C45.7199 25.55 45.7199 25.46 45.7199 25.37C45.7199 25.19 45.8108 25.1 45.8999 25.0109C45.9899 24.92 46.0799 24.92 46.2599 24.92C46.62 24.92 46.7999 25.1 46.8899 25.46L46.9799 24.74C46.889 24.74 46.889 24.74 46.889 24.74H46.71V24.65Z" fill="#232020"/>
<path d="M48.96 25.82C48.8691 25.82 48.78 25.82 48.6891 26C48.6 26.18 48.51 26.36 48.51 26.63V26.72C48.51 26.8109 48.51 26.9 48.6 26.99C48.69 26.99 48.78 26.99 48.87 26.8109C48.9609 26.6309 49.05 26.4509 49.05 26.1809C49.05 26 48.96 25.82 48.96 25.82Z" fill="#232020"/>
<path d="M53.73 25.37V25.55L53.55 26.81C53.55 26.9891 53.46 27.08 53.46 27.08C53.46 27.08 53.37 27.17 53.37 27.26C53.28 27.35 53.19 27.35 53.1 27.4391C53.01 27.4391 52.92 27.53 52.74 27.53C52.3809 27.53 52.2 27.35 52.2 27.08V26.9V26.72L52.47 25.1H51.84C51.9309 25.19 51.9309 25.28 51.9309 25.37V25.55L51.75 26.9C51.75 26.99 51.75 27.08 51.75 27.17C51.75 27.17 51.75 27.2609 51.75 27.35C51.75 27.53 51.84 27.62 51.93 27.71C52.11 27.8 52.29 27.89 52.47 27.89C52.83 27.89 53.0109 27.8 53.19 27.62L53.37 27.44L53.28 27.8H54C53.91 27.71 53.91 27.62 53.91 27.62V27.44L54.2691 25.19H53.6391C53.73 25.19 53.73 25.28 53.73 25.37Z" fill="#232020"/>
<path d="M42.66 25.1C42.57 25.1 42.39 25.1 42.3 25.1C41.76 25.1 41.4 25.28 41.04 25.55C40.68 25.82 40.59 26.27 40.59 26.81C40.59 27.08 40.68 27.35 40.86 27.53C41.04 27.71 41.22 27.8 41.49 27.8C41.76 27.8 42.03 27.71 42.21 27.53L42.39 27.35L42.21 28.16C42.21 28.43 42.03 28.61 41.94 28.7891C41.76 28.97 41.58 29.06 41.4 29.06C41.13 29.06 40.95 28.88 40.95 28.5191L40.5 28.88C40.59 28.97 40.68 29.06 40.77 29.15C40.77 29.15 40.86 29.15 40.86 29.24C40.86 29.24 40.95 29.24 41.04 29.3309C41.13 29.3309 41.31 29.4209 41.4 29.4209C41.76 29.4209 42.03 29.3309 42.3 29.0618C42.57 28.7909 42.75 28.4318 42.75 28.0709L43.11 25.8209L43.2 25.5509L43.29 25.3709H43.11L42.66 25.1ZM42.57 25.73L42.39 26.72C42.39 26.9 42.3 26.99 42.3 27.08C42.3 27.17 42.21 27.17 42.12 27.26C41.94 27.4391 41.76 27.53 41.58 27.53C41.4 27.53 41.22 27.4391 41.13 27.35C41.04 27.26 40.95 26.99 40.95 26.72C40.95 26.3609 41.04 26 41.31 25.73C41.58 25.46 41.76 25.28 42.12 25.28C42.39 25.28 42.48 25.37 42.48 25.6391L42.57 25.73Z" fill="#232020"/>
<path d="M45.63 26.9C45.63 26.9 45.63 26.99 45.63 26.9C45.63 26.99 45.63 26.99 45.63 26.9C45.72 26.99 45.72 26.99 45.72 26.9H45.63L45.54 26.81C45.54 26.81 45.63 26.81 45.63 26.9Z" fill="#232020"/>
<path d="M51.5701 23.57H50.9401C50.9401 23.6609 50.9401 23.6609 51.031 23.75V23.84V24.02L50.4901 27.26C50.4901 27.35 50.4001 27.4391 50.4001 27.53C50.4001 27.62 50.3101 27.62 50.3101 27.71H51.0301C51.0301 27.6191 50.9392 27.53 50.9392 27.53V27.35L51.5701 23.57Z" fill="#232020"/>
<path d="M86.31 12.41C83.9691 12.41 81.63 12.41 79.2891 12.41C78.5691 12.41 78.1191 12.77 77.9391 13.49C77.6691 15.11 77.31 16.73 77.0391 18.35C76.9491 19.16 77.13 19.43 78.03 19.43C79.2 19.43 80.37 19.43 81.45 19.43C82.62 19.43 83.79 19.43 84.96 19.43C85.68 19.43 86.13 19.16 86.31 18.4391C86.58 16.8191 86.85 15.1091 87.1191 13.4891C87.39 12.68 87.12 12.41 86.31 12.41ZM86.67 13.4C86.4 14.93 86.13 16.55 85.8609 18.35C85.77 18.71 85.6809 18.89 85.14 18.89C84.3309 18.89 83.52 18.89 82.62 18.89H81.54C81.1809 18.89 80.82 18.89 80.4609 18.89C79.6509 18.89 78.84 18.89 78.0309 18.89C77.7609 18.89 77.6709 18.89 77.6709 18.8C77.6709 18.8 77.6709 18.71 77.6709 18.44C77.7618 17.72 77.9409 17 78.0309 16.2809C78.2109 15.3809 78.39 14.4809 78.4809 13.5809C78.5709 13.1309 78.7509 12.9509 79.2009 12.9509H80.1909C82.1709 12.9509 84.1509 12.9509 86.1318 12.9509C86.3118 12.9509 86.4909 12.9509 86.4909 12.9509C86.67 13.13 86.67 13.22 86.67 13.4Z" fill="#DCDCDC"/>
<path d="M89.28 11.24C88.83 10.7 88.02 10.34 86.85 10.34C84.69 10.25 82.26 10.25 79.29 10.34C77.3109 10.34 75.9609 11.24 75.69 12.77C75.24 14.93 74.8809 17.09 74.6109 18.98C74.4309 20.06 75.0609 21.05 76.2309 21.41C76.7709 21.5891 77.3109 21.68 77.7609 21.68C78.57 21.68 79.47 21.68 80.2809 21.68C81.0009 21.68 81.7209 21.68 82.44 21.68C82.8 21.68 83.1609 21.68 83.6109 21.68C84.0609 21.68 84.6009 21.68 85.0509 21.68C87.2109 21.68 88.5609 20.51 88.9209 18.62C89.2809 16.73 89.5509 15.29 89.7309 13.85C89.91 12.68 89.73 11.87 89.28 11.24ZM89.19 13.76C88.92 15.38 88.65 16.91 88.3809 18.53C88.11 20.24 86.94 21.05 85.05 21.14C83.79 21.14 82.62 21.14 81.36 21.14C80.1891 21.14 79.0191 21.14 77.85 21.14C77.4 21.14 76.86 21.05 76.41 20.87C75.6 20.6 75.06 19.97 75.2391 19.07C75.51 17 75.8691 14.93 76.3191 12.95C76.5891 11.69 77.76 10.97 79.3791 10.97C81.8991 10.97 84.4191 10.88 86.9382 10.97C88.74 10.97 89.46 11.87 89.19 13.76Z" fill="#DCDCDC"/>
<path d="M73.44 10.34H72.9C72 10.34 71.1 10.34 70.2 10.34C68.13 10.34 65.97 10.34 63.81 10.34C61.4691 10.43 60.21 11.69 60.03 14.12C59.9391 15.47 60.57 16.37 61.83 16.73C62.28 16.82 62.82 16.91 63.36 16.91C64.71 16.91 66.06 16.91 67.41 16.91C67.95 16.91 68.4 16.91 68.9391 16.91C69.1191 16.91 69.7491 16.91 69.93 17C69.93 17.18 69.8391 17.81 69.8391 17.99C69.7491 18.44 69.66 18.62 69.5691 18.7109C69.48 18.8 69.21 18.8 68.76 18.8C67.1391 18.8 65.43 18.8 63.81 18.8C63.0891 18.8 62.46 18.8 61.7391 18.8H59.58L59.13 21.23L59.04 21.5C59.5809 21.5 59.94 21.5 60.0309 21.5C60.84 21.5 61.74 21.5 62.5509 21.5C63.5409 21.5 64.5309 21.5 65.5209 21.5C66.6909 21.5 67.8618 21.5 69.0309 21.5C71.19 21.41 72.4509 20.33 72.8109 18.17C72.8109 18.08 72.8109 17.99 72.8109 17.9C72.8109 17.81 72.8109 17.72 72.9009 17.63C73.0809 16.55 72.9909 15.74 72.4509 15.2C72.0009 14.66 71.2809 14.3 70.2909 14.3C68.76 14.3 67.23 14.3 65.7 14.3C65.07 14.3 64.53 14.3 63.9 14.3C63.27 14.3 63.18 14.21 63.18 14.21C63.18 14.21 63.0891 14.03 63.27 13.49C63.3609 13.22 63.45 13.13 64.08 13.13C65.97 13.13 67.86 13.13 69.75 13.13H71.55C72.18 13.13 72.81 13.13 73.17 12.77C73.53 12.41 73.53 11.78 73.44 11.06V10.34ZM71.55 12.41C69.03 12.41 66.6 12.41 64.08 12.41C63.45 12.41 62.91 12.5 62.6391 13.22C62.28 14.39 62.5491 14.84 63.81 14.84C65.9691 14.84 68.13 14.84 70.2 14.93C71.91 15.02 72.54 15.92 72.27 17.63C72.27 17.81 72.18 17.9891 72.18 18.17C71.91 20.0609 70.92 20.9609 69.03 21.05C68.85 21.05 68.76 21.05 68.58 21.05C68.13 21.05 67.68 21.05 67.32 21.05C65.79 21.05 63.99 21.05 62.4609 21.05C60.9309 21.05 59.7609 21.05 59.67 21.05C59.7609 20.6 59.85 20.06 59.94 19.52H61.65C63.99 19.52 66.33 19.52 68.67 19.52C69.75 19.52 70.1109 19.25 70.29 18.17C70.5609 16.55 70.47 16.37 68.7609 16.37C66.9609 16.37 65.07 16.37 63.1809 16.37C62.7309 16.37 62.2809 16.28 61.8309 16.19C60.84 15.92 60.39 15.2 60.48 14.21C60.66 12.14 61.65 10.97 63.72 10.97C66.69 10.88 69.75 10.97 72.8109 10.97C72.99 12.32 72.9 12.41 71.55 12.41Z" fill="#DCDCDC"/>
<path d="M31.68 21.5C32.94 21.59 34.11 21.68 35.37 21.68C35.55 21.68 35.64 21.68 35.82 21.68H36C36.99 21.68 38.25 21.68 39.51 21.5C40.86 21.32 41.85 20.69 42.12 19.61C42.39 18.71 42.48 17.9 42.66 16.91C42.75 16.55 42.84 16.1 42.93 15.65L43.11 14.93H42.39C42.3 14.93 41.58 14.93 41.04 14.93C40.95 14.93 40.77 14.93 40.59 15.02C40.41 15.11 40.23 15.11 40.14 15.29C39.87 15.56 39.69 15.83 39.69 16.37C39.69 16.82 39.6 17.27 39.51 17.72C39.51 17.9 39.42 18.08 39.42 18.2609C39.42 18.44 39.33 18.8009 39.24 18.89C39.15 18.98 38.97 18.98 38.61 18.98C36.72 18.98 34.83 18.98 33.03 18.98C32.76 18.98 32.67 18.98 32.67 18.98C32.67 18.8891 32.67 18.8 32.67 18.53C32.94 17.09 33.21 15.56 33.48 14.12C33.57 13.76 33.66 13.31 33.75 13.22C33.93 13.13 34.38 13.13 34.74 13.13C36.27 13.13 37.89 13.13 39.42 13.13H41.49C42.3 13.13 42.84 13.13 43.2 12.77C43.56 12.41 43.56 11.96 43.65 11.06L43.74 10.34C43.11 10.34 42.75 10.34 42.66 10.34C42.03 10.34 41.31 10.34 40.68 10.34C38.7 10.34 36.63 10.34 34.65 10.34C33.84 10.34 33.03 10.61 32.49 10.79C31.41 11.15 30.78 11.96 30.6 13.13C30.42 14.39 30.15 15.65 29.97 16.91C29.88 17.36 29.79 17.81 29.7 18.26C29.52 19.25 29.61 19.9691 30.06 20.51C30.06 21.05 30.69 21.41 31.68 21.5ZM29.97 18.44C30.24 16.7309 30.6 15.02 30.87 13.22C31.05 12.32 31.5 11.6 32.4 11.33C33.03 11.15 33.75 10.88 34.38 10.88C37.08 10.79 39.69 10.88 42.39 10.88C42.48 10.88 42.66 10.88 42.75 10.88C42.66 12.32 42.66 12.32 41.22 12.32C38.97 12.32 36.72 12.32 34.47 12.32C33.12 12.32 32.85 12.5 32.58 13.85C32.31 15.29 32.04 16.82 31.77 18.26C31.59 19.0691 31.77 19.43 32.67 19.43C34.56 19.43 36.45 19.43 38.25 19.43C39.24 19.43 39.51 19.16 39.69 18.17C39.78 17.54 39.96 16.82 40.05 16.19C40.05 15.56 40.41 15.38 40.95 15.47C41.31 15.47 41.67 15.47 42.12 15.47C41.85 16.82 41.67 18.08 41.31 19.34C41.04 20.3309 40.14 20.69 39.24 20.87C38.07 21.05 36.99 21.05 35.82 21.05C34.38 21.05 33.03 21.05 31.59 20.87C30.15 20.69 29.7 19.97 29.97 18.44Z" fill="#DCDCDC"/>
<path d="M13.95 20.6C14.49 21.23 15.39 21.59 16.65 21.59C17.73 21.59 18.72 21.59 19.8 21.59C20.97 21.59 22.05 21.59 23.22 21.59H23.85C25.92 21.59 27 20.69 27.45 18.62C27.54 18.35 27.54 17.99 27.63 17.72V17.54C27.9 15.92 28.17 14.3 28.44 12.6809L28.89 10.2509H25.83L25.74 10.7C25.74 10.79 25.74 10.88 25.65 10.97C25.65 11.15 25.56 11.33 25.56 11.51L25.29 12.77C25.02 14.48 24.66 16.37 24.39 18.08C24.3 18.71 24.03 18.71 23.85 18.71C21.6 18.71 19.26 18.71 16.92 18.71C16.74 18.71 16.65 18.71 16.65 18.6191C16.65 18.6191 16.65 18.5291 16.65 18.3491C16.83 17.4491 17.01 16.4591 17.19 15.4691C17.37 14.3891 17.55 13.3091 17.73 12.2291C17.82 11.7791 17.91 11.3291 18 10.7891L18.09 10.0691H14.94L14.76 10.8791C14.67 11.5991 14.49 12.3191 14.4 13.0391C14.13 14.5691 13.86 16.1891 13.5 17.7191C13.32 19.07 13.5 19.97 13.95 20.6ZM14.13 18.08C14.67 15.83 14.94 13.49 15.3 11.24C15.3 11.15 15.3 10.97 15.39 10.88H17.28C17.01 12.41 16.74 13.94 16.47 15.56C16.29 16.55 16.11 17.54 15.93 18.44C15.84 19.07 16.11 19.4309 16.74 19.4309C19.08 19.4309 21.42 19.4309 23.67 19.4309C24.39 19.4309 24.66 18.89 24.75 18.2609C25.11 16.0109 25.56 13.8509 25.92 11.6909C26.01 11.4209 26.01 11.1509 26.1 10.8809H27.99C27.63 13.1309 27.27 15.2909 26.82 17.4509C26.73 17.8109 26.73 18.1709 26.64 18.4409C26.28 20.2409 25.47 20.9618 23.58 20.9618C21.24 20.9618 18.81 20.9618 16.47 20.9618C14.49 20.96 13.77 19.97 14.13 18.08Z" fill="#DCDCDC"/>
<path d="M11.88 17.45L12.24 14.75H4.32L4.59 13.04H5.04C5.67 13.04 6.3 13.04 6.93 13.04C8.37 13.04 9.81 13.04 11.34 13.04C11.61 13.04 11.79 13.04 11.97 13.04C12.42 13.04 12.78 13.04 13.05 12.86C13.32 12.59 13.41 12.32 13.41 11.78C13.41 11.6 13.5 11.33 13.5 11.06L13.59 10.34H1.98L0 21.59H3.15L3.87 17.45H11.88ZM2.61 20.96H0.72C1.35 17.63 1.89 14.21 2.52 10.88H12.96C12.69 12.59 13.05 12.32 11.43 12.32C9.36 12.32 7.29 12.32 5.22 12.32C4.95 12.32 4.68 12.32 4.32 12.32C3.96 13.4 3.78 14.3 3.6 15.38H11.52C11.43 15.92 11.34 16.37 11.34 16.91H3.33C3.15 18.35 2.88 19.61 2.61 20.96Z" fill="#DCDCDC"/>
<path d="M41.85 21.59H43.11C43.29 21.59 44.19 21.59 44.37 21.59C45.18 21.59 45.8109 21.2309 46.35 20.5109C46.89 19.8809 47.43 19.1609 47.97 18.5309C48.24 18.2609 48.42 17.99 48.69 17.7209L51.75 14.1209C51.75 14.1209 51.75 14.1209 51.75 14.2109C52.02 14.7509 52.29 15.2909 52.56 15.8309C53.3691 17.4509 54.0891 19.0709 54.9 20.7809C55.08 21.0509 55.44 21.59 55.89 21.6809C56.34 21.7709 56.79 21.7709 57.24 21.6809C57.42 21.6809 57.6 21.6809 57.7809 21.6809H58.6809L58.5009 20.7809C58.5009 20.69 58.4109 20.6009 58.4109 20.6009C58.32 20.51 58.32 20.42 58.32 20.33L57.6 18.98C56.43 16.46 55.17 13.94 53.91 11.42C53.64 10.79 53.1 10.34 52.47 10.25C51.84 10.16 51.21 10.43 50.76 11.06C48.51 13.76 42.75 20.6 42.66 20.69L41.85 21.59ZM43.56 20.51C46.08 17.45 48.69 14.48 51.21 11.4191C51.93 10.6091 52.9191 10.6991 53.3691 11.6891C54.81 14.6591 56.2491 17.6291 57.6891 20.5991C57.78 20.6891 57.78 20.8691 57.8691 21.0491C57.2391 21.0491 56.61 21.1391 56.0691 21.0491C55.8891 21.0491 55.6191 20.7791 55.5291 20.5091C54.4491 18.3491 53.4591 16.0991 52.3791 13.9391C52.2882 13.6691 52.1091 13.3991 51.9291 13.0391C50.6691 14.4791 49.4991 15.9191 48.3291 17.3591C47.5191 18.2591 46.7991 19.2491 45.9882 20.1491C45.5382 20.6891 45.0882 21.0491 44.4582 21.0491H44.3682C44.2782 21.0491 43.5582 21.0491 43.1082 20.9591C43.29 20.78 43.47 20.6 43.56 20.51Z" fill="#DCDCDC"/>
<path d="M10.8 23.12C10.89 23.12 10.89 23.12 10.98 23.03C11.07 23.03 11.16 23.03 11.16 22.9391C11.25 22.9391 11.34 22.9391 11.34 22.8491V22.7591C11.34 22.5791 11.34 22.4882 11.34 22.3091C11.34 22.1291 11.34 21.9491 11.34 21.7682C11.34 21.5873 11.34 21.4091 11.34 21.1382C11.34 20.9591 11.34 20.7791 11.34 20.5982C11.34 20.4173 11.34 20.2382 11.34 20.0582C11.34 19.9673 11.34 19.8782 11.34 19.8782C11.34 19.8782 11.34 19.9682 11.25 19.9682C11.16 20.0591 11.07 20.2382 10.98 20.4182C10.89 20.51 10.8 20.6 10.71 20.69C10.62 20.69 10.53 20.69 10.53 20.69C10.35 20.69 10.26 20.6 10.08 20.5109C9.99 20.42 9.9 20.33 9.9 20.24C9.9 20.24 9.9 20.24 9.9 20.15C9.9 20.06 9.81 20.06 9.81 19.97C9.81 19.97 9.81 19.88 9.72 19.88C9.72 19.97 9.72 19.97 9.63 20.06C9.63 20.15 9.54 20.2391 9.54 20.33C9.45 20.42 9.45 20.51 9.36 20.6C9.27 20.69 9.27 20.69 9.18 20.69H9.09C9 20.69 8.91 20.69 8.73 20.69C8.55 20.6 8.46 20.51 8.37 20.51C8.19 20.69 8.1 20.6 8.01 20.42C7.83 20.24 7.74 20.15 7.65 19.97C7.65 19.97 7.65 19.88 7.56 19.88C7.56 19.97 7.56 19.97 7.56 20.06C7.56 20.15 7.65 20.33 7.65 20.4191C7.65 20.6891 7.65 20.8691 7.65 21.1391C7.65 21.23 7.65 21.3191 7.56 21.41C7.47 21.5 7.38 21.59 7.29 21.68C7.2 21.77 7.02 21.77 6.93 21.68H6.84H6.75C6.66 21.68 6.48 21.5891 6.39 21.5891H6.3C6.3 21.68 6.39 21.68 6.39 21.77C6.39 21.77 6.39 21.77 6.39 21.8609V21.9509C6.39 21.9509 6.39 21.9509 6.39 22.0409V22.13C6.39 22.22 6.48 22.31 6.39 22.4C6.39 22.58 6.3 22.67 6.21 22.76C6.12 22.76 6.12 22.85 6.03 22.85C6.03 22.85 6.03 22.85 5.94 22.85C5.94 22.85 5.85 22.85 5.76 22.85C5.58001 22.85 5.49 22.85 5.4 22.85C5.31001 22.85 5.22 22.85 5.13 22.85L5.4 22.94V23.03L5.49 23.12L5.58 23.21L5.67001 23.3L5.76 23.39L5.85 23.48L5.94 23.57L6.03 23.66L6.3 23.75L6.39 23.84C6.48 23.93 6.48 23.93 6.57 24.02L6.66 24.11L6.75 24.2L6.84 24.29L6.93 24.38L7.02 24.47L7.11 24.56C7.2 24.56 7.2 24.65 7.29 24.65C7.38 24.56 7.47 24.56 7.56 24.47C7.65 24.38 7.74 24.38 7.83 24.29C7.83 24.29 7.92 24.29 7.92 24.2C8.01 24.29 8.1 24.29 8.1 24.2C8.19 24.2 8.28 24.11 8.37 24.02C8.46 24.02 8.55 23.93 8.55 23.93C8.64 23.93 8.64 23.8391 8.73 23.8391H8.82C8.91 23.8391 9 23.7491 9.09 23.7491C9.18 23.7491 9.27 23.6591 9.36 23.6591L9.45 23.5682H9.54C9.63 23.5682 9.72 23.4782 9.81 23.4782H9.9L10.08 23.3873H10.17H10.26H10.35H10.44H10.53C10.53 23.3873 10.53 23.3873 10.62 23.3873H10.71C10.62 23.12 10.71 23.12 10.8 23.12ZM10.53 22.58H10.44H10.35L10.17 22.67H10.08L9.72 22.85H9.63C9.54 22.85 9.45 22.94 9.36 22.94L9.18 23.03C9.09 23.03 9 23.12 8.91 23.12C8.73 23.3 8.64 23.3 8.55 23.3H8.46C8.37 23.3 8.37 23.39 8.28 23.39C8.19 23.39 8.1 23.48 8.1 23.48C8.01 23.57 7.92 23.57 7.83 23.66C7.74 23.66 7.65 23.75 7.65 23.8391L7.56 23.93C7.47 23.93 7.47 24.02 7.38 24.02L7.29 23.93L7.02 23.66C6.93 23.57 6.93 23.57 6.84 23.48L6.75 23.39L6.66 23.3C6.75 23.3 6.75 23.21 6.84 23.21C7.02 23.03 7.2 22.76 7.2 22.49C7.38 22.49 7.56 22.49 7.65 22.4C7.92 22.31 8.1 22.13 8.19 21.86C8.28 21.77 8.28 21.59 8.28 21.5C8.28 21.5 8.37 21.5 8.46 21.5C8.64 21.59 8.91 21.59 9.09 21.59C9.18 21.59 9.27 21.59 9.36 21.5C9.45 21.41 9.63 21.32 9.72 21.23C9.72 21.23 9.72 21.23 9.81 21.1391C9.99 21.3191 10.17 21.3191 10.44 21.41C10.53 21.41 10.71 21.41 10.8 21.3191C10.8 21.4991 10.8 21.6791 10.8 21.7691C10.8 21.9491 10.8 22.1291 10.8 22.31C10.8 22.31 10.8 22.31 10.8 22.4H10.71L10.53 22.58Z" fill="#DCDCDC"/>
<path d="M24.7501 25.82C24.7501 25.73 24.7501 25.64 24.6601 25.37C24.6601 25.28 24.5701 25.19 24.4801 25.1C24.3901 25.01 24.3001 24.92 24.3001 24.83C24.0301 24.56 23.6701 24.47 23.2201 24.47H19.6201H17.4601L17.6401 23.57L15.8401 24.1109L15.7501 24.47H13.5001L13.5901 24.02H13.3201H13.0501H11.2501H11.3401C11.4301 24.02 11.4301 24.02 11.5201 23.93C11.6101 23.93 11.7001 23.93 11.7901 23.8391H11.8801L12.2401 23.7491C12.4201 23.7491 12.6001 23.5691 12.5101 23.3891V22.76C12.5101 22.6691 12.5101 22.4891 12.5101 22.4C12.5101 22.22 12.5101 22.04 12.5101 21.86C12.5101 21.68 12.5101 21.5 12.5101 21.3191C12.5101 21.1382 12.5101 20.96 12.5101 20.7791C12.5101 20.5982 12.5101 20.5091 12.5101 20.3291C12.6901 20.1491 12.7801 19.9691 12.7801 19.6991C12.7801 19.4291 12.7801 19.0691 12.6001 18.8891C12.5101 18.71 12.3301 18.6191 12.1501 18.53L11.7001 18.44H11.6101C11.4301 18.44 11.1601 18.5309 10.9801 18.62C10.8001 18.7109 10.7101 18.89 10.6201 18.98C10.4401 18.8 10.1701 18.62 9.90006 18.53C9.81006 18.53 9.81006 18.53 9.72006 18.53H9.54006C9.36006 18.53 9.27006 18.62 9.09006 18.71C8.82006 18.8891 8.64006 19.16 8.64006 19.43C8.64006 19.52 8.64006 19.61 8.64006 19.61C8.64006 19.5191 8.64006 19.5191 8.64006 19.43C8.64006 19.25 8.55006 19.07 8.55006 18.98L8.10006 18.53C7.92006 18.35 7.74006 18.26 7.47006 18.26C7.38006 18.26 7.29006 18.26 7.20006 18.26C7.11006 18.26 6.93006 18.26 6.84006 18.35L6.66006 18.53L6.57006 18.62C6.39006 18.8 6.30006 18.98 6.30006 19.16C6.30006 19.25 6.30006 19.25 6.30006 19.3391V19.43C6.30006 19.52 6.30006 19.61 6.30006 19.61V19.97C6.39006 20.0609 6.39006 20.15 6.48006 20.24C6.48006 20.24 6.48006 20.24 6.39006 20.24C6.30006 20.15 6.21006 20.15 6.03006 20.15C5.76006 20.06 5.40006 20.15 5.22006 20.33L5.13006 20.42L5.04006 20.51C4.86006 20.69 4.77006 20.96 4.77006 21.32C4.77006 21.4109 4.77006 21.5 4.77006 21.68C4.59006 21.68 4.50006 21.68 4.32006 21.77C4.05006 21.8609 3.87006 22.04 3.69006 22.22L3.60006 22.13C3.60006 22.31 3.51006 22.4891 3.60006 22.67C3.60006 22.85 3.69006 23.03 3.78006 23.12C3.96006 23.39 4.23006 23.57 4.50006 23.57C4.59006 23.57 4.68006 23.57 4.77006 23.57L5.22006 24.02L5.31006 24.11L5.40006 24.29L5.58006 24.47L5.67006 24.56C5.76006 24.56 5.76006 24.65 5.85006 24.65L6.75006 25.46C6.93006 25.6391 7.11006 25.73 7.29006 25.73C7.38006 25.73 7.47006 25.73 7.56006 25.6391C7.65006 25.6391 7.65006 25.5491 7.74006 25.5491L7.83006 25.4591C7.92006 25.37 8.01006 25.37 8.01006 25.28C8.10006 25.19 8.19006 25.19 8.28006 25.1L8.37006 25.01C8.55006 25.1 8.55006 25.1 8.64006 25.1C8.73006 25.1 8.82006 25.01 8.82006 25.01C8.91006 25.01 8.91006 24.9191 9.00006 24.9191C9.00006 24.9191 9.09006 24.9191 9.09006 24.8291H9.18006C9.27006 24.8291 9.27006 24.7382 9.36006 24.7382C9.45006 24.7382 9.54006 24.6482 9.63006 24.6482L9.81006 24.5582C9.90006 24.5582 9.99006 24.4673 10.0801 24.4673L10.4401 25.0082V25.1L10.2601 27.35L9.45006 28.34H12.6001L11.9701 27.35V26.81L12.5101 27.71C12.6001 27.8 12.6901 27.8891 12.7801 27.98C13.0501 28.16 13.3201 28.25 13.6801 28.25C13.8601 28.25 14.0401 28.25 14.1301 28.16H15.8401C15.9301 28.16 16.0201 28.25 16.2001 28.25C16.4701 28.25 16.7401 28.16 17.0101 27.98C17.2801 28.16 17.5501 28.25 17.9101 28.25C18.0901 28.25 18.2701 28.25 18.3601 28.16H18.4501H20.4301H21.6001L21.2401 27.35C21.3301 27.53 21.4201 27.62 21.5101 27.8C21.6901 27.98 22.1401 28.25 22.7701 28.25C23.1301 28.25 23.4901 28.25 23.9401 27.98C24.1201 27.8891 24.3001 27.53 24.5701 27.08L24.6601 26.72L24.9301 25.9109L24.7501 26.09C24.7501 26.09 24.7501 25.91 24.7501 25.82ZM10.5301 23.57H10.4401H10.3501H10.2601H10.1701C10.0801 23.57 10.0801 23.6609 9.99006 23.6609C9.99006 23.6609 9.99006 23.6609 9.90006 23.6609C9.81006 23.6609 9.72006 23.7509 9.63006 23.7509H9.54006L9.45006 23.8409C9.36006 23.8409 9.27006 23.9318 9.18006 23.9318C9.09006 23.9318 9.00006 24.0218 9.00006 24.0218H8.91006C8.82006 24.0218 8.82006 24.1127 8.73006 24.1127C8.64006 24.1127 8.64006 24.2027 8.55006 24.2027C8.46006 24.2927 8.37006 24.2927 8.28006 24.2927C8.19006 24.29 8.19006 24.38 8.10006 24.38V24.74C8.01006 24.83 7.92006 24.83 7.83006 24.92C7.74006 25.01 7.65006 25.01 7.56006 25.1L7.47006 25.19C7.47006 25.19 7.47006 25.19 7.38006 25.19C7.38006 25.19 7.38006 25.19 7.29006 25.19C7.29006 25.19 7.11006 25.2809 7.02006 25.1H7.11006C7.11006 25.1 7.02006 25.1 7.02006 25.01C6.93006 25.01 6.93006 24.9191 6.84006 24.9191L6.75006 24.8291L6.66006 24.74L6.57006 24.65L6.48006 24.56L6.39006 24.47L6.30006 24.29C6.21006 24.29 6.21006 24.2 6.12006 24.2L6.03006 24.11L5.94006 24.02L5.85006 23.93L5.76006 23.84L5.67006 23.75L5.58006 23.66L5.40006 23.48L5.31006 23.39L5.22006 23.3L5.13006 23.21L4.95006 23.03C4.86006 23.03 4.77006 23.12 4.68006 23.03C4.50006 23.03 4.41006 22.9391 4.32006 22.76C4.23006 22.67 4.23006 22.58 4.23006 22.49C4.23006 22.4 4.23006 22.3109 4.32006 22.1309C4.41006 22.04 4.50006 21.95 4.59006 21.86C4.77006 21.7691 4.95006 21.86 5.04006 21.95C5.13006 22.04 5.22006 22.13 5.22006 22.22C5.31006 22.22 5.49006 22.22 5.58006 22.3109C5.67006 22.3109 5.76006 22.3109 5.94006 22.3109C5.94006 22.3109 5.94006 22.3109 6.03006 22.3109C6.03006 22.3109 6.12006 22.3109 6.12006 22.22L6.21006 22.13C6.21006 22.13 6.21006 22.0391 6.21006 21.95V21.86C6.21006 21.86 6.21006 21.86 6.21006 21.7691C6.21006 21.7691 6.21006 21.7691 6.21006 21.6791C6.21006 21.6791 6.21006 21.5882 6.12006 21.5882C6.12006 21.5882 6.12006 21.4982 6.03006 21.4982C5.94006 21.4982 5.94006 21.4982 5.85006 21.4982C5.76006 21.4982 5.67006 21.4082 5.58006 21.3182C5.49006 21.23 5.40006 21.05 5.40006 20.96C5.40006 20.78 5.49006 20.6 5.67006 20.51C5.67006 20.6 5.85006 20.6 5.94006 20.6C6.03006 20.6 6.03006 20.6 6.12006 20.69C6.21006 20.69 6.21006 20.7809 6.21006 20.7809C6.21006 20.8709 6.30006 20.8709 6.30006 20.9609C6.30006 21.0509 6.39006 21.14 6.39006 21.2309C6.48006 21.3209 6.48006 21.3209 6.57006 21.3209C6.66006 21.3209 6.75006 21.4118 6.84006 21.4118H6.93006H7.02006C7.11006 21.4118 7.11006 21.4118 7.20006 21.4118C7.20006 21.4118 7.29006 21.4118 7.29006 21.3209C7.29006 21.2309 7.29006 21.2309 7.29006 21.1409C7.29006 20.9618 7.29006 20.7818 7.29006 20.5118C7.29006 20.4209 7.29006 20.2409 7.20006 20.1518C7.20006 20.0618 7.20006 20.0618 7.11006 19.9718C7.11006 19.9718 7.11006 19.9718 7.11006 19.8818C7.02006 19.8818 6.93006 19.7909 6.93006 19.7909C6.84006 19.7 6.75006 19.61 6.75006 19.52C6.75006 19.43 6.75006 19.34 6.75006 19.25C6.75006 19.16 6.84006 19.07 6.93006 18.98L7.02006 18.89C7.02006 18.89 7.02006 18.89 7.11006 18.89C7.20006 18.8 7.29006 18.8 7.38006 18.8C7.56006 18.8 7.65006 18.89 7.74006 19.07C7.83006 19.1609 7.83006 19.34 7.83006 19.52C7.83006 19.6109 7.83006 19.6109 7.83006 19.6109C7.83006 19.7 7.92006 19.7 7.92006 19.79C8.01006 19.88 8.10006 20.06 8.28006 20.15C8.37006 20.24 8.46006 20.33 8.55006 20.42C8.64006 20.51 8.73006 20.6 8.73006 20.6H8.82006H8.91006C9.00006 20.51 9.00006 20.51 9.00006 20.42C9.00006 20.33 9.09006 20.24 9.09006 20.15C9.09006 20.06 9.09006 20.06 9.09006 19.97C9.00006 19.97 9.00006 19.88 8.91006 19.79C8.91006 19.7 8.82006 19.7 8.82006 19.61C8.82006 19.5191 8.82006 19.43 8.82006 19.43C8.82006 19.25 8.91006 19.16 9.09006 19.07C9.18006 18.98 9.36006 18.98 9.45006 18.98C9.63006 18.98 9.72006 19.07 9.81006 19.16C9.90006 19.25 9.90006 19.34 9.90006 19.43C9.90006 19.52 9.90006 19.61 9.81006 19.7C9.81006 19.79 9.72006 19.79 9.72006 19.88C9.72006 19.97 9.72006 19.97 9.81006 20.06C9.81006 20.06 9.81006 20.15 9.90006 20.15C9.90006 20.15 9.90006 20.15 9.90006 20.24C9.90006 20.3309 9.99006 20.3309 9.99006 20.42C10.0801 20.5109 10.0801 20.5109 10.1701 20.5109C10.1701 20.5109 10.1701 20.5109 10.2601 20.5109C10.3501 20.5109 10.3501 20.42 10.4401 20.3309C10.5301 20.1509 10.6201 20.0609 10.7101 19.9709C10.7101 19.9709 10.7101 19.8809 10.8001 19.8809C10.8001 19.8809 10.8001 19.8809 10.8001 19.79L10.7101 19.7C10.6201 19.52 10.6201 19.34 10.8001 19.16C10.8001 19.0691 10.8901 19.0691 10.9801 18.98C11.0701 18.8891 11.1601 18.8891 11.2501 18.8891C11.4301 18.8891 11.6101 18.98 11.7001 19.16C11.7901 19.25 11.7901 19.43 11.7901 19.61C11.7901 19.7 11.7001 19.7891 11.6101 19.88C11.5201 19.88 11.5201 19.97 11.4301 19.97V20.06C11.4301 20.15 11.4301 20.15 11.4301 20.2391C11.4301 20.4191 11.4301 20.5991 11.4301 20.78C11.4301 20.9609 11.4301 21.1391 11.4301 21.32C11.4301 21.5009 11.4301 21.68 11.4301 21.8609C11.4301 22.04 11.4301 22.22 11.4301 22.4009C11.4301 22.5818 11.4301 22.6709 11.4301 22.8509C11.4301 22.9409 11.4301 22.9409 11.4301 23.0309V23.1209V23.3H11.6101H11.5201C11.4301 23.3 11.3401 23.3 11.2501 23.39C11.1601 23.39 11.0701 23.39 11.0701 23.4809H10.9801C10.9801 23.4809 10.9801 23.4809 10.8901 23.4809H10.8001H10.7101C10.7101 23.4809 10.7101 23.4809 10.6201 23.4809C10.6201 23.4809 10.6201 23.4809 10.5301 23.4809V23.57ZM12.7801 25.19C12.6901 25.1 12.6001 25.01 12.5101 24.92C12.4201 24.83 12.2401 24.83 12.0601 24.83H11.6101L11.5201 25.91H11.8801H12.1501L12.3301 25.8191C12.4201 25.8191 12.4201 25.7291 12.5101 25.7291L12.6001 25.64L12.5101 26.36C12.4201 26.2691 12.4201 26.18 12.3301 26.18C12.2401 26.18 12.1501 26.0891 11.9701 26.0891H11.6101L11.5201 27.1691V27.26C11.5201 27.35 11.5201 27.4391 11.5201 27.4391L11.6101 27.6191H10.8001L10.8901 27.4391C10.8901 27.3491 10.9801 27.26 10.9801 27.1691L11.1601 24.9191V24.8291C11.1601 24.7382 11.1601 24.7382 11.1601 24.6491C11.1601 24.56 11.0701 24.5591 11.0701 24.4691H12.9601L12.7801 25.19ZM15.3001 27.71H14.6701L14.7601 27.35L14.5801 27.53C14.4001 27.71 14.1301 27.8 13.8601 27.8C13.5901 27.8 13.4101 27.71 13.3201 27.62C13.1401 27.53 13.1401 27.35 13.1401 27.2609C13.1401 27.17 13.1401 27.17 13.1401 27.0809C13.1401 27.0809 13.1401 26.99 13.1401 26.8109L13.3201 25.4609V25.2809C13.3201 25.19 13.3201 25.1009 13.2301 25.0109H13.8601L13.5901 26.6309V26.8109V26.99C13.5901 27.2609 13.7701 27.44 14.1301 27.44C14.2201 27.44 14.4001 27.44 14.4901 27.35C14.5801 27.35 14.6701 27.26 14.7601 27.17C14.8501 27.08 14.8501 27.08 14.8501 26.99C14.8501 26.9 14.9401 26.8109 14.9401 26.72L15.1201 25.4609V25.2809C15.1201 25.19 15.1201 25.1009 15.0301 25.0109H15.6601L15.3001 27.26V27.44C15.2101 27.53 15.2101 27.62 15.3001 27.71ZM17.1001 25.37H16.6501L16.3801 27.17V27.35C16.3801 27.44 16.4701 27.53 16.5601 27.53C16.6501 27.53 16.7401 27.4391 16.9201 27.35L16.8301 27.71C16.6501 27.8 16.4701 27.89 16.2901 27.89C16.1101 27.89 16.0201 27.89 15.9301 27.8C15.8401 27.71 15.8401 27.62 15.8401 27.53V27.17L16.1101 25.4609H15.8401L15.9301 25.19H16.2001L16.2901 24.65L16.8301 24.47L16.7401 25.1H17.2801L17.1001 25.37ZM19.5301 27.71H18.9001L18.9901 27.35L18.8101 27.53C18.6301 27.71 18.3601 27.8 18.0001 27.8C17.7301 27.8 17.5501 27.71 17.4601 27.62C17.2801 27.53 17.2801 27.35 17.2801 27.2609C17.2801 27.17 17.2801 27.17 17.2801 27.0809C17.2801 27.0809 17.2801 26.99 17.2801 26.8109L17.4601 25.4609V25.2809C17.4601 25.19 17.4601 25.1009 17.3701 25.0109H18.0001L17.7301 26.6309V26.8109V26.99C17.7301 27.2609 17.9101 27.44 18.2701 27.44C18.3601 27.44 18.5401 27.44 18.6301 27.35C18.7201 27.35 18.8101 27.26 18.9001 27.17C18.9901 27.08 18.9901 27.08 18.9901 26.99C18.9901 26.9 19.0801 26.8109 19.0801 26.72L19.2601 25.4609V25.2809C19.2601 25.19 19.2601 25.1009 19.1701 25.0109H19.8001L19.4401 27.2609V27.44C19.4401 27.53 19.4401 27.62 19.5301 27.71ZM21.3301 25.46C21.1501 25.46 21.0601 25.55 20.9701 25.6391C20.8801 25.73 20.7901 25.91 20.7901 26.0891L20.6101 27.3491V27.5291V27.6191L20.7001 27.71H19.9801C20.0701 27.6191 20.0701 27.53 20.0701 27.53C20.0701 27.4391 20.0701 27.4391 20.1601 27.26L20.4301 25.46V25.28C20.4301 25.1891 20.4301 25.1 20.3401 25.01H20.9701L20.8801 25.37L21.0601 25.19L21.2401 25.1L21.4201 25.01C21.5101 25.01 21.6001 25.01 21.6901 25.01L21.6001 25.73C21.5101 25.6391 21.5101 25.55 21.4201 25.55C21.5101 25.46 21.4201 25.46 21.3301 25.46ZM24.2101 26.09H22.3201L22.2301 26.45V26.72C22.2301 27.2609 22.5001 27.53 22.9501 27.53C23.1301 27.53 23.4001 27.4391 23.5801 27.35L23.7601 27.26C23.8501 27.26 23.8501 27.1691 23.9401 27.08L23.7601 27.53L23.5801 27.62C23.3101 27.8 23.0401 27.89 22.7701 27.89C22.4101 27.89 22.1401 27.8 21.9601 27.62C21.7801 27.44 21.6901 27.17 21.6901 26.8109C21.6901 26.3609 21.8701 26.0009 22.1401 25.64C22.4101 25.2809 22.7701 25.19 23.2201 25.19C23.4901 25.19 23.7601 25.2809 23.9401 25.4609C24.1201 25.64 24.2101 25.82 24.2101 26.09Z" fill="#DCDCDC"/>
<path d="M23.1299 25.28C22.9499 25.28 22.7699 25.37 22.5899 25.46C22.4999 25.55 22.4999 25.55 22.4099 25.64L22.3199 25.91H23.4899C23.5799 25.91 23.5799 25.91 23.5799 25.8191C23.5799 25.8191 23.6699 25.7291 23.6699 25.6391C23.6699 25.5491 23.5799 25.3691 23.4899 25.3691C23.4899 25.28 23.3099 25.28 23.1299 25.28Z" fill="#DCDCDC"/>
<path d="M30.8699 25.19C30.5999 25.19 30.33 25.37 30.06 25.64C29.88 25.91 29.7 26.27 29.7 26.63C29.7 26.9 29.79 27.08 29.88 27.26C29.97 27.4391 30.15 27.4391 30.33 27.4391C30.51 27.4391 30.6899 27.3491 30.8699 27.1691C30.9599 27.0791 30.96 26.9891 30.96 26.9891C30.96 26.8991 31.0499 26.81 31.0499 26.63L31.2299 25.6391V25.46C31.2299 25.28 31.1399 25.19 30.8699 25.19Z" fill="#DCDCDC"/>
<path d="M42.21 25.19C41.94 25.19 41.67 25.37 41.4 25.64C41.13 25.9109 41.04 26.27 41.04 26.6309C41.04 26.9009 41.13 27.0809 41.22 27.2609C41.31 27.44 41.49 27.44 41.67 27.44C41.85 27.44 42.03 27.35 42.21 27.17C42.3 27.08 42.3 26.99 42.39 26.99C42.39 26.9 42.39 26.8109 42.48 26.6309L42.66 25.64V25.46C42.57 25.28 42.48 25.19 42.21 25.19Z" fill="#DCDCDC"/>
<path d="M42.8401 24.47C42.6601 24.47 42.4801 24.38 42.3901 24.38C41.7601 24.38 41.2201 24.56 40.7701 25.01C40.6801 24.83 40.5901 24.7391 40.4101 24.65C40.1401 24.47 39.8701 24.38 39.5101 24.38C39.3301 24.38 39.2401 24.38 39.0601 24.47H38.2501C38.2501 24.38 38.2501 24.29 38.2501 24.2C38.2501 23.93 38.1601 23.75 37.9801 23.57C37.8001 23.39 37.6201 23.3 37.3501 23.3C37.0801 23.3 36.9001 23.39 36.7201 23.57C36.5401 23.75 36.4501 24.02 36.4501 24.2C36.4501 24.29 36.4501 24.38 36.4501 24.47H35.8201C35.7301 24.47 35.5501 24.38 35.3701 24.38C35.1001 24.38 34.7401 24.47 34.4701 24.56C34.3801 24.47 34.2901 24.47 34.2001 24.47C33.9301 24.38 33.5701 24.38 33.2101 24.47H31.5001H31.4101C31.2301 24.47 31.0501 24.47 30.9601 24.47C30.3301 24.47 29.7001 24.65 29.3401 25.1C29.3401 25.1 29.3401 25.1 29.2501 25.19L29.3401 23.9309L28.5301 24.0209L28.0801 23.9309H27.8101C27.1801 23.9309 26.6401 24.2009 26.1901 24.6509C25.7401 25.1009 25.5601 25.7309 25.5601 26.3609C25.5601 26.99 25.7401 27.44 26.1001 27.8009C26.4601 28.1618 26.9101 28.3409 27.5401 28.3409C27.7201 28.3409 27.9001 28.3409 28.0801 28.3409C28.2601 28.3409 28.4401 28.2509 28.6201 28.2509L29.2501 28.0709C29.5201 28.3409 29.7901 28.4309 30.1501 28.4309C30.2401 28.4309 30.3301 28.4309 30.5101 28.4309H30.6001H31.1401H33.7501H35.5501H36.4501H38.3401H40.3201L39.6001 28.79L39.9601 29.24C40.1401 29.42 40.2301 29.5109 40.3201 29.6C40.4101 29.6 40.5001 29.69 40.5001 29.69C40.5901 29.69 40.6801 29.7809 40.6801 29.7809C40.8601 29.8709 41.0401 29.8709 41.2201 29.8709C41.7601 29.8709 42.2101 29.6909 42.5701 29.3309C42.9301 28.9709 43.1101 28.5209 43.2001 27.9809L43.5601 25.7309V25.5509L44.0101 24.7409L43.2001 24.56L42.8401 24.47ZM28.7101 26.27C28.7101 26.3609 28.7101 26.45 28.6201 26.45L28.5301 27.35V27.44C28.5301 27.5309 28.5301 27.5309 28.5301 27.62L28.3501 27.71C28.1701 27.8 27.9901 27.8 27.8101 27.8C27.6301 27.8 27.4501 27.8 27.3601 27.8C26.9101 27.8 26.6401 27.71 26.3701 27.44C26.1001 27.17 26.0101 26.81 26.0101 26.36C26.0101 25.8191 26.1901 25.46 26.4601 25.1C26.8201 24.74 27.1801 24.56 27.6301 24.56H27.9001H28.0801L28.3501 24.65H28.4401H28.6201V25.37C28.6201 25.28 28.5301 25.19 28.4401 25.19C28.4401 25.1 28.3501 25.1 28.3501 25.1C28.1701 25.01 27.9901 24.92 27.7201 24.92C27.3601 24.92 27.0901 25.1 26.9101 25.37C26.7301 25.64 26.5501 26.09 26.5501 26.54C26.5501 26.9 26.6401 27.17 26.8201 27.44C27.0001 27.71 27.1801 27.8 27.4501 27.8C27.5401 27.8 27.6301 27.8 27.7201 27.8C27.8101 27.8 27.9001 27.71 27.9901 27.71L28.0801 26.7191V26.6291C28.0801 26.5382 28.0801 26.4491 28.0801 26.4491L27.9901 26.2691H28.8001C28.8001 26.09 28.7101 26.18 28.7101 26.27ZM31.8601 25.28C31.8601 25.28 31.8601 25.37 31.7701 25.37L31.6801 25.64L31.4101 27.44V27.62V27.71H30.8701V27.53C30.8701 27.4391 30.8701 27.4391 30.8701 27.35L30.7801 27.44L30.6901 27.53C30.6001 27.62 30.5101 27.71 30.3301 27.71C30.2401 27.71 30.2401 27.71 30.1501 27.8C30.0601 27.8 30.0601 27.8 29.9701 27.8C29.7001 27.8 29.5201 27.71 29.3401 27.53C29.1601 27.35 29.0701 27.08 29.0701 26.81C29.0701 26.36 29.2501 25.91 29.5201 25.55C29.8801 25.19 30.2401 25.1 30.7801 25.1C30.8701 25.1 31.0501 25.1 31.1401 25.1L31.5001 25.19L31.8601 25.28C31.8601 25.28 31.8601 25.19 31.8601 25.28ZM36.1801 25.91L36.0001 27.35V27.53C36.0001 27.62 36.0001 27.71 36.0901 27.8H35.3701L35.4601 27.35L35.5501 26.99L35.7301 26.09V25.82C35.7301 25.73 35.7301 25.55 35.6401 25.4609C35.5501 25.37 35.4601 25.37 35.2801 25.37C35.1001 25.37 34.9201 25.4609 34.7401 25.55C34.5601 25.64 34.5601 25.82 34.4701 26.09L34.2901 27.44V27.62V27.71L34.3801 27.8H33.7501L33.9301 27.08L34.1101 26.18V25.82C34.1101 25.55 33.9301 25.37 33.6601 25.37C33.4801 25.37 33.3001 25.4609 33.1201 25.55C33.0301 25.64 33.0301 25.64 32.9401 25.73C32.9401 25.82 32.8501 25.91 32.8501 26L32.6701 27.35V27.53V27.62L32.7601 27.7109H32.0401C32.0401 27.7109 32.0401 27.62 32.1301 27.62L32.2201 27.53C32.2201 27.53 32.2201 27.4391 32.3101 27.35L32.5801 25.55V25.37C32.5801 25.28 32.5801 25.28 32.4901 25.1H33.1201L33.0301 25.37L33.2101 25.19C33.3901 25.1 33.6601 25.0109 33.9301 25.0109C34.0201 25.0109 34.1101 25.0109 34.2901 25.1009C34.3801 25.1009 34.4701 25.1909 34.4701 25.1909C34.5601 25.2818 34.5601 25.2818 34.6501 25.4618L34.8301 25.2818C35.1001 25.1018 35.2801 25.0118 35.6401 25.0118C35.8201 25.0118 36.0001 25.1018 36.1801 25.1909C36.3601 25.2818 36.3601 25.3709 36.3601 25.5509L36.1801 25.91ZM37.1701 27.71H36.4501C36.5401 27.6191 36.6301 27.4391 36.6301 27.26L36.9001 25.46V25.28V25.19C36.9001 25.19 36.9001 25.1 36.8101 25.1H37.4401L37.0801 27.35V27.53C37.0801 27.62 37.1701 27.62 37.1701 27.71ZM37.3501 24.56C37.2601 24.56 37.1701 24.56 37.1701 24.4691C37.0801 24.3791 37.0801 24.3791 37.0801 24.2891C37.0801 24.1991 37.0801 24.11 37.1701 24.0191C37.2601 23.9291 37.3501 23.9291 37.4401 23.9291C37.5301 23.9291 37.6201 23.9291 37.6201 24.0191C37.7101 24.11 37.7101 24.11 37.7101 24.2891C37.7101 24.38 37.7101 24.4691 37.6201 24.56L37.5301 24.65C37.4401 24.56 37.4401 24.56 37.3501 24.56ZM40.2301 25.91L39.9601 27.35V27.53C39.9601 27.62 39.9601 27.62 39.9601 27.62L40.0501 27.7109H39.4201L39.5101 27.3509C39.5101 27.1709 39.6001 27.0809 39.6001 26.9009L39.7801 26.0009V25.7309C39.7801 25.4609 39.6001 25.2809 39.3301 25.2809H39.1501H38.9701L38.7901 25.3709L38.7001 25.46C38.6101 25.55 38.6101 25.55 38.5201 25.6391C38.5201 25.73 38.4301 25.8191 38.4301 25.9991L38.2501 27.2591V27.44C38.2501 27.44 38.2501 27.5309 38.3401 27.62H37.6201C37.7101 27.53 37.7101 27.44 37.7101 27.44C37.7101 27.44 37.7101 27.35 37.8001 27.17L38.0701 25.37V25.19C38.0701 25.1 38.0701 25.0109 37.9801 24.92H38.6101L38.5201 25.19L38.7001 25.1C38.8801 24.92 39.1501 24.83 39.4201 24.83C39.6901 24.83 39.8701 24.92 39.9601 25.01C40.0501 25.1 40.1401 25.28 40.1401 25.3691L40.2301 25.91ZM43.1101 25.37L43.0201 25.64L42.6601 27.89C42.5701 28.34 42.4801 28.6109 42.2101 28.8809C41.9401 29.1509 41.6701 29.24 41.3101 29.24C41.2201 29.24 41.0401 29.24 40.9501 29.15C40.8601 29.15 40.8601 29.15 40.7701 29.06C40.7701 29.06 40.6801 29.06 40.6801 28.9691C40.5901 28.9691 40.5901 28.8791 40.4101 28.6991L40.8601 28.3391C40.8601 28.6991 41.0401 28.88 41.3101 28.88C41.4901 28.88 41.6701 28.7891 41.8501 28.61C42.0301 28.43 42.1201 28.25 42.1201 27.98L42.3001 27.17L42.1201 27.35C41.9401 27.53 41.6701 27.62 41.4001 27.62C41.1301 27.62 40.9501 27.53 40.7701 27.35C40.5901 27.17 40.5001 26.9 40.5001 26.63C40.5001 26.0891 40.6801 25.73 40.9501 25.37C41.2201 25.0109 41.6701 24.92 42.2101 24.92C42.3001 24.92 42.4801 24.92 42.5701 24.92L42.9301 25.0109H43.1101V25.37Z" fill="#DCDCDC"/>
<path d="M48.96 25.19C48.6891 25.19 48.4191 25.37 48.2391 25.64C48.06 25.91 47.97 26.27 47.97 26.63V26.81C47.97 27.08 48.0609 27.26 48.24 27.4391C48.3309 27.6191 48.5109 27.6191 48.69 27.6191C48.9609 27.6191 49.2309 27.5291 49.4109 27.26C49.59 26.9891 49.6809 26.63 49.6809 26.2691C49.6809 25.91 49.59 25.7291 49.5009 25.5491C49.32 25.28 49.14 25.19 48.96 25.19Z" fill="#DCDCDC"/>
<path d="M58.6799 25.19C58.4099 25.19 58.139 25.37 57.9599 25.64C57.7799 25.91 57.6899 26.27 57.6899 26.63V26.81C57.6899 27.08 57.7808 27.26 57.9608 27.4391C58.0508 27.6191 58.2308 27.6191 58.4108 27.6191C58.6808 27.6191 58.9508 27.5291 59.1308 27.26C59.3099 26.99 59.3999 26.63 59.3999 26.27C59.3999 25.9109 59.3099 25.73 59.2199 25.55C59.0399 25.28 58.8599 25.19 58.6799 25.19Z" fill="#DCDCDC"/>
<path d="M65.07 24.65C64.98 24.65 64.89 24.56 64.8 24.56C64.71 24.56 64.71 24.56 64.62 24.4691C64.53 24.4691 64.44 24.4691 64.35 24.4691H64.26C63.81 24.4691 63.45 24.56 63.0891 24.8291C63.0891 24.8291 62.9991 24.8291 62.9991 24.9191C62.9091 24.8291 62.8191 24.7391 62.8191 24.7391C62.5491 24.56 62.2791 24.4691 61.9191 24.4691C61.8291 24.4691 61.0191 24.4691 59.5791 24.56L59.6691 24.7391C59.3991 24.56 59.0391 24.4691 58.6791 24.4691C58.4091 24.4691 58.1382 24.56 57.8691 24.6491C57.6891 24.7391 57.51 24.8291 57.4191 24.9191V24.8291C57.6 24.56 57.6 24.38 57.6 24.2C57.6 23.93 57.51 23.75 57.33 23.57C57.15 23.39 56.97 23.3 56.7 23.3C56.43 23.3 56.25 23.39 56.07 23.57C56.07 23.57 56.07 23.57 55.98 23.6609L54.45 24.1109L54.36 24.47H52.02L52.29 23.03H50.13L50.49 23.84C50.49 23.84 50.49 23.84 50.49 23.9309V24.0209L50.31 25.01C49.95 24.65 49.5891 24.56 49.05 24.56C48.78 24.56 48.51 24.65 48.24 24.7391C47.97 24.83 47.79 25.01 47.52 25.1L47.6109 23.66L46.7109 24.11H46.5309C46.3509 24.11 46.2609 24.0191 46.0809 24.0191C45.6309 24.0191 45.2709 24.11 45.0009 24.3791C44.9109 24.4691 44.8209 24.6491 44.7309 24.8291C44.6409 25.1882 44.6409 25.7291 44.6409 26.6291L44.3709 26.2691L44.1909 28.0691L44.8209 28.4291L45.0909 28.5191C45.2709 28.5191 45.3609 28.61 45.5409 28.61C45.9909 28.61 46.3509 28.43 46.7118 28.16L46.89 27.89C46.89 27.9809 46.9809 27.9809 47.07 28.07C47.43 28.43 47.88 28.6109 48.33 28.6109C48.51 28.6109 48.6891 28.6109 48.87 28.52H51.75H51.84C52.02 28.52 52.1109 28.6109 52.29 28.6109C52.47 28.6109 52.65 28.6109 52.74 28.52H54H54.45C54.54 28.52 54.63 28.6109 54.81 28.6109C54.9 28.6109 55.08 28.6109 55.1691 28.52H57.2391H57.4191C57.6 28.61 57.78 28.61 57.96 28.61C58.1391 28.61 58.3191 28.61 58.5 28.5191H62.73C62.82 28.5191 62.82 28.5191 62.91 28.5191C63.0891 28.5191 63.18 28.5191 63.36 28.5191C63.81 28.5191 64.1691 28.3391 64.53 28.0691C64.62 27.9791 64.71 27.9791 64.71 27.8891L64.8 27.8C64.98 27.53 65.07 27.26 65.07 26.99C65.07 26.9 65.07 26.72 64.98 26.6309L65.25 24.9209L65.07 24.65ZM46.89 25.28C46.8 24.92 46.62 24.74 46.26 24.74C46.08 24.74 45.9891 24.74 45.9 24.8309C45.81 24.9209 45.72 25.0109 45.72 25.19C45.72 25.2809 45.72 25.37 45.8109 25.4609C45.9 25.55 45.99 25.64 46.17 25.82L46.44 26C46.62 26.09 46.7109 26.18 46.8 26.36C46.89 26.45 46.89 26.63 46.89 26.7191C46.89 26.9891 46.8 27.26 46.5309 27.4391C46.26 27.62 45.99 27.71 45.72 27.71C45.63 27.71 45.54 27.71 45.36 27.71L45.09 27.62L44.82 27.53L45 26.9C45 26.99 45 26.99 45.09 27.08C45.09 27.08 45.09 27.17 45.18 27.17C45.18 27.2609 45.27 27.2609 45.27 27.35C45.36 27.44 45.54 27.53 45.72 27.53C45.9 27.53 46.08 27.4391 46.17 27.35C46.2609 27.26 46.35 27.08 46.35 26.9C46.35 26.81 46.35 26.63 46.26 26.54L46.17 26.45L46.08 26.36L45.81 26.18C45.63 26 45.45 25.91 45.36 25.73C45.27 25.6391 45.27 25.46 45.27 25.28C45.27 25.01 45.36 24.83 45.54 24.65C45.72 24.47 45.99 24.38 46.2609 24.38C46.3509 24.38 46.44 24.38 46.5309 24.38L46.8009 24.47H46.8909V25.28H46.89ZM49.68 27.35C49.41 27.62 49.05 27.8 48.6 27.8C48.24 27.8 47.97 27.71 47.7 27.44C47.43 27.2609 47.34 26.9 47.34 26.54V26.36C47.43 26 47.61 25.64 47.88 25.37C48.06 25.28 48.2391 25.1 48.42 25.1C48.6 25.01 48.78 25.01 49.05 25.01C49.41 25.01 49.68 25.1 49.86 25.3691C50.0391 25.5491 50.2191 25.8191 50.2191 26.1791C50.22 26.63 50.04 26.99 49.68 27.35ZM51.03 27.71H50.31C50.4 27.62 50.4 27.62 50.4 27.53C50.4 27.4391 50.4 27.4391 50.49 27.26L51.03 24.02V23.84V23.75C51.03 23.66 51.03 23.66 50.9391 23.57H51.5691L51.03 27.26V27.44C51.03 27.53 51.03 27.62 51.03 27.71ZM53.91 27.35V27.53C53.91 27.62 53.91 27.62 54 27.71H53.37L53.4609 27.35L53.2809 27.53C53.1 27.71 52.83 27.8 52.47 27.8C52.2 27.8 52.02 27.71 51.93 27.62C51.75 27.53 51.75 27.35 51.75 27.2609C51.75 27.17 51.75 27.17 51.75 27.0809C51.75 27.0809 51.75 26.99 51.75 26.8109L51.93 25.4609V25.2809C51.93 25.19 51.93 25.1009 51.8391 25.0109H52.4691L52.2 26.63V26.81V26.99C52.2 27.2609 52.38 27.44 52.74 27.44C52.8309 27.44 53.0109 27.44 53.1 27.35C53.19 27.35 53.28 27.26 53.37 27.17C53.4609 27.08 53.4609 27.08 53.4609 26.99C53.4609 26.9 53.5509 26.8109 53.5509 26.72L53.7309 25.4609V25.2809C53.7309 25.19 53.7309 25.1009 53.64 25.0109H54.27L53.91 27.35ZM55.53 27.62C55.35 27.71 55.17 27.8 54.99 27.8C54.8109 27.8 54.72 27.8 54.6309 27.71C54.54 27.62 54.54 27.53 54.54 27.44V27.08L54.8109 25.37H54.54L54.63 25.1H54.81L54.9 24.56L55.44 24.38V25.1H55.98L55.89 25.37H55.44L55.17 27.17V27.35C55.17 27.44 55.2609 27.53 55.35 27.53C55.4391 27.53 55.53 27.4391 55.71 27.35L55.53 27.62ZM56.52 27.71H55.71C55.8 27.62 55.89 27.44 55.89 27.26L56.1609 25.46V25.28V25.19C56.1609 25.19 56.1609 25.1 56.07 25.1H56.7L56.34 27.35V27.53C56.43 27.62 56.43 27.62 56.52 27.71ZM56.88 24.47L56.79 24.56C56.7 24.56 56.7 24.56 56.6109 24.56C56.52 24.56 56.4309 24.56 56.4309 24.4691C56.34 24.38 56.34 24.38 56.34 24.29C56.34 24.2 56.34 24.1109 56.4309 24.02C56.5209 23.93 56.6109 23.93 56.7009 23.93C56.7909 23.93 56.8809 23.93 56.8809 24.02C56.9709 24.1109 56.9709 24.1109 56.9709 24.29C57.06 24.29 56.97 24.38 56.88 24.47ZM59.4 27.35C59.04 27.71 58.68 27.8 58.23 27.8C57.87 27.8 57.6 27.71 57.33 27.44C57.06 27.2609 56.97 26.9 56.97 26.54V26.36C57.06 26 57.24 25.64 57.51 25.37C57.69 25.28 57.87 25.1 58.05 25.1C58.23 25.01 58.41 25.01 58.68 25.01C59.0391 25.01 59.31 25.1 59.4891 25.3691C59.6691 25.5491 59.8491 25.8191 59.8491 26.1791C59.94 26.63 59.76 26.99 59.4 27.35ZM62.73 25.91L62.46 27.35V27.53C62.46 27.62 62.46 27.62 62.46 27.62L62.55 27.7109H61.92L62.0109 27.3509C62.0109 27.1709 62.1009 27.0809 62.1009 26.9009L62.2809 26.0009V25.7309C62.2809 25.4609 62.1009 25.2809 61.8309 25.2809H61.6509H61.4709L61.2909 25.3709L61.2 25.46C61.11 25.55 61.11 25.55 61.02 25.6391C61.02 25.73 60.93 25.8191 60.93 25.9991L60.75 27.2591V27.44C60.75 27.44 60.75 27.5309 60.84 27.62H60.12C60.2109 27.53 60.2109 27.44 60.2109 27.44C60.2109 27.44 60.2109 27.35 60.3009 27.17L60.5709 25.37V25.19C60.5709 25.1 60.5709 25.0109 60.4809 24.92H61.1109L61.02 25.19L61.2 25.1C61.38 24.92 61.65 24.83 61.92 24.83C62.19 24.83 62.37 24.92 62.4609 25.01C62.64 25.1 62.64 25.28 62.64 25.37L62.73 25.91ZM64.8 25.73C64.71 25.6391 64.71 25.46 64.62 25.46C64.53 25.3691 64.35 25.28 64.2609 25.28C64.17 25.28 63.99 25.37 63.9009 25.46C63.8109 25.55 63.7209 25.6391 63.7209 25.8191C63.7209 25.91 63.7209 25.9991 63.8118 25.9991C63.9018 26.0891 63.9909 26.0891 64.0818 26.1791L64.2618 26.2691C64.44 26.36 64.62 26.45 64.62 26.54C64.71 26.63 64.71 26.72 64.71 26.9C64.71 27.17 64.6191 27.44 64.35 27.62C64.17 27.8 63.9 27.89 63.54 27.89C63.45 27.89 63.3609 27.89 63.27 27.89C63.18 27.89 63 27.8 62.82 27.7109L62.9109 27.0809C63.0009 27.2609 63.09 27.44 63.1809 27.5309C63.2709 27.6209 63.4509 27.7109 63.54 27.7109C63.72 27.7109 63.8109 27.62 63.9 27.5309C63.99 27.44 64.08 27.2609 64.08 27.1709C64.08 27.0809 64.08 26.9909 63.9891 26.9009L63.9 26.81L63.63 26.63C63.45 26.5391 63.27 26.36 63.18 26.27C63.09 26.18 63 26 63 25.91C63 25.6391 63.09 25.46 63.27 25.28C63.45 25.1 63.72 25.01 63.99 25.01H64.08C64.17 25.01 64.17 25.01 64.26 25.01C64.35 25.01 64.35 25.01 64.4391 25.01C64.53 25.01 64.53 25.01 64.6191 25.1L64.8 25.73Z" fill="#DCDCDC"/>
</g>
<defs>
<clipPath id="clip0_481_13325">
<rect width="90" height="36" fill="white"/>
</clipPath>
</defs>
</svg>
