<svg width="70" height="36" viewBox="0 0 70 36" fill="none" xmlns="http://www.w3.org/2000/svg">
<path d="M0.217529 29.8724C0.217529 29.6629 0.217529 29.5233 0.217529 29.3836C0.217529 26.3806 0.217529 23.3776 0.217529 20.3744C0.217529 17.0223 2.80177 14.5081 6.1543 14.7176C6.99243 14.7875 7.83057 15.2065 8.6687 15.4859C9.01792 15.6255 9.08776 15.835 8.94807 16.1842C8.80839 16.6033 8.59885 16.9525 8.45916 17.4413C7.4115 16.6731 6.36383 16.3239 5.10664 16.5334C3.36053 16.8826 2.03349 18.3492 1.96364 20.165C1.8938 22.6792 1.96364 25.1933 1.96364 27.7774C8.59885 27.7774 15.234 27.7774 21.8692 27.7774C21.8692 27.5678 21.8692 27.4281 21.8692 27.2186C21.8692 25.1234 21.8692 22.9585 21.8692 20.8634C21.8692 20.584 22.0089 20.3047 22.2185 20.0951C22.5677 19.6761 22.9868 19.2571 23.4058 18.7682C23.4757 19.3968 23.6154 19.8856 23.6154 20.3744C23.6154 23.4473 23.6154 26.59 23.6154 29.6629C23.6154 29.7327 23.6154 29.8026 23.6154 29.9423C15.7928 29.8724 7.97025 29.8724 0.217529 29.8724Z" fill="white"/>
<path d="M23.4757 6.19741C23.4757 6.33709 23.4757 6.47677 23.4757 6.5466C23.4757 9.4798 23.4757 12.413 23.4757 15.3462C23.4059 19.6063 18.866 22.2601 15.0944 20.165C14.6753 19.9555 14.6055 19.746 14.7452 19.3269C14.8849 18.9777 15.0944 18.6286 15.2341 18.2095C16.1421 18.9079 17.0501 19.1873 18.0977 19.1174C19.9137 19.0476 21.6598 17.5112 21.6598 15.6954C21.7296 13.1114 21.6598 10.5972 21.6598 8.0132C21.6598 8.0132 21.6598 7.94337 21.5899 7.87352C15.0246 7.87352 8.38935 7.87352 1.75415 7.87352C1.75415 8.08304 1.75415 8.29255 1.75415 8.43223C1.75415 10.5274 1.75415 12.6923 1.75415 14.7875C1.75415 14.997 1.61446 15.2763 1.47477 15.4858C1.12555 15.9049 0.706479 16.3239 0.287414 16.8128C0.217569 16.2541 0.0778809 15.7652 0.0778809 15.2763C0.0778809 12.2733 0.0778809 9.27028 0.0778809 6.26725C0.0778809 6.19741 0.0778809 6.19741 0.147725 6.05774C7.97029 6.19741 15.723 6.19741 23.4757 6.19741Z" fill="white"/>
<path d="M3.15113 18.2794C5.94491 20.2348 8.52915 18.6984 9.36728 16.8826C10.2753 14.8573 9.29744 12.4828 7.27195 11.7844C6.85288 12.0638 6.57351 12.3431 6.22428 12.413C5.73537 12.6225 5.17662 12.4828 4.96709 12.0638C4.54802 11.2956 3.29082 11.0162 3.64004 9.89882C3.70989 9.54963 3.98927 9.13061 4.26864 9.06076C4.96709 8.78142 5.73537 8.64174 6.50366 8.5719C7.13226 8.50207 7.62117 9.06076 7.62117 9.68931C7.62117 9.96865 7.69102 10.1083 7.97039 10.248C10.9737 11.5749 12.2309 15.0668 10.7642 17.9302C9.29744 20.7237 5.73537 21.7713 2.9416 20.165C2.66222 20.0253 2.52253 19.8158 2.66222 19.5364C2.80191 19.1174 2.9416 18.6984 3.15113 18.2794Z" fill="white"/>
<path d="M16.5612 23.8663C17.539 22.749 18.3772 22.8887 19.1455 24.006C19.2153 24.1457 19.355 24.2156 19.4947 24.2854C19.9836 24.6346 20.263 25.1932 20.0534 25.8218C19.8439 26.4504 19.355 26.7995 18.7264 26.7995C18.5169 26.7995 18.3073 26.8694 18.0978 26.9392C17.2597 27.3583 16.212 26.8694 16.1422 25.9615C16.0723 25.5425 15.8628 25.4028 15.5834 25.2631C13.4182 24.1457 12.3007 22.3997 12.3705 20.0253C12.4404 17.7206 13.6277 16.1144 15.7231 15.1366C17.3994 14.3684 19.0756 14.5081 20.7519 15.3461C21.171 15.5557 21.2408 15.835 21.1011 16.1842C20.9614 16.5334 20.7519 16.8826 20.6122 17.3016C19.0058 16.1842 17.3994 15.9747 15.8628 17.0222C14.5357 17.8603 13.9769 19.1872 14.1865 20.7236C14.2563 22.2601 15.1643 23.2379 16.5612 23.8663Z" fill="white"/>
<path d="M12.58 16.8826C11.7419 14.2986 13.0689 11.4353 15.5834 10.248C15.9326 10.1083 16.0723 9.96867 16.0723 9.61948C16.1421 8.71159 17.1898 8.22272 18.0279 8.64175C18.2375 8.71159 18.447 8.78142 18.6565 8.78142C19.2851 8.78142 19.8439 9.20046 19.9836 9.75915C20.1233 10.3179 19.9137 10.9464 19.4248 11.2956C19.2851 11.3654 19.1455 11.4353 19.0756 11.5749C18.3073 12.7622 17.3993 12.832 16.4914 11.7146C15.0246 12.3432 14.2563 13.3907 13.9769 14.9272C13.9071 15.1367 13.7674 15.416 13.6277 15.5557C13.3483 16.0446 12.9991 16.4636 12.58 16.8826Z" fill="white"/>
<path d="M7.20194 23.8663C8.59882 23.2379 9.43695 22.1902 9.71633 20.6538C9.78617 20.3744 9.92586 20.0951 10.1354 19.8856C10.4846 19.4666 10.8338 19.0476 11.2529 18.6285C11.7418 20.165 11.5323 21.5618 10.764 22.9585C10.2052 24.006 9.29726 24.7743 8.17976 25.2631C7.90038 25.4028 7.69085 25.5425 7.69085 25.8917C7.621 26.7995 6.57334 27.2884 5.7352 26.9392C5.52567 26.8694 5.24629 26.7995 5.03676 26.7995C4.40816 26.7995 3.84941 26.3806 3.70972 25.8218C3.57003 25.2631 3.77956 24.6346 4.26847 24.2854C4.40816 24.2156 4.54785 24.1457 4.6177 24.006C5.31614 22.8887 6.22411 22.8188 7.20194 23.8663Z" fill="white"/>
<path d="M27.0378 19.6063V15.9747H27.6664L28.8538 18.419L30.0411 15.9747H30.6697V19.6063H30.0411V17.4413L28.9935 19.6063H28.7839L27.6664 17.4413V19.6063H27.0378Z" fill="white"/>
<path d="M31.1587 19.6063L32.2762 15.9747H33.3239L34.4414 19.6063H33.7429L32.7651 16.3937H32.9048L31.927 19.6063H31.1587ZM31.8571 18.8381V18.2095H33.8128V18.8381H31.8571Z" fill="white"/>
<path d="M36.1386 19.635C35.8592 19.635 35.6985 19.6063 35.489 19.5364C35.2795 19.4666 35.0699 19.3269 34.9303 19.1174C34.7906 18.9079 34.7207 18.6984 34.6509 18.4889L35.3493 18.3492C35.4192 18.5587 35.489 18.6984 35.6985 18.8381C35.8382 18.9777 36.0478 18.9777 36.2573 18.9777C36.397 18.9777 36.4668 18.9777 36.6065 18.9079C36.7462 18.8381 36.8161 18.8381 36.8859 18.7682C36.9557 18.6984 36.9557 18.6285 36.9557 18.4889C36.9557 18.419 36.9557 18.419 36.9557 18.3492C36.9557 18.3492 36.9412 18.311 36.8859 18.2794C36.8304 18.2477 36.8077 18.2319 36.7462 18.2095C36.6729 18.1829 36.5367 18.1397 36.5367 18.1397L35.5589 17.8603C35.489 17.8603 35.2795 17.7905 35.2795 17.7905C35.2795 17.7905 35.0699 17.7206 35.0001 17.6508C34.9303 17.581 34.8604 17.5111 34.7906 17.3715C34.7207 17.2318 34.7207 17.0921 34.7207 16.9524C34.7207 16.6731 34.7906 16.5334 34.9303 16.3239C35.0699 16.1144 35.2096 16.0445 35.4192 15.9747C35.6287 15.9049 35.8382 15.835 36.1176 15.835C36.397 15.835 36.6065 15.9049 36.8161 15.9747C37.0256 16.0445 37.1653 16.1842 37.305 16.3239C37.4446 16.4636 37.5145 16.6731 37.5843 16.8826L36.8161 17.0223C36.8161 16.8826 36.7462 16.8128 36.6764 16.7429C36.6065 16.6731 36.5367 16.6032 36.397 16.5334C36.3271 16.4636 36.1875 16.4636 36.0478 16.4636C35.9081 16.4636 35.8382 16.4636 35.7684 16.5334C35.6985 16.5334 35.6287 16.6032 35.5589 16.6731C35.489 16.7429 35.489 16.8128 35.489 16.8826C35.489 16.9524 35.489 17.0223 35.5589 17.0921C35.6287 17.162 35.6985 17.162 35.7684 17.2318C35.8382 17.2318 35.9081 17.3016 35.9779 17.3016L36.6065 17.4413C36.6764 17.4413 36.8161 17.5111 36.8859 17.5111C37.0256 17.581 37.0954 17.581 37.2351 17.6508C37.3748 17.7206 37.4446 17.7905 37.5145 17.9302C37.5843 18.0698 37.5843 18.2095 37.5843 18.419C37.5843 18.6285 37.5145 18.7682 37.4446 18.9079C37.3748 19.0476 37.2446 19.1659 37.1 19.2643C36.9669 19.355 36.9198 19.3874 36.6535 19.5201C36.3871 19.6529 36.2783 19.635 36.1386 19.635Z" fill="white"/>
<path d="M39.7493 19.6761C39.4001 19.6761 39.0508 19.6063 38.7715 19.4666C38.4921 19.3269 38.2826 19.1174 38.1429 18.7682C38.073 18.4889 38.0032 18.1397 38.0032 17.7905C38.0032 17.4413 38.073 17.0921 38.2127 16.8128C38.3524 16.5334 38.5619 16.3239 38.8413 16.1144C39.1207 15.9747 39.4001 15.9049 39.8191 15.9049C40.2382 15.9049 40.5876 15.9747 40.8669 16.1842C41.1463 16.3937 41.3558 16.6731 41.4955 17.0223L40.7971 17.2318C40.7272 17.0223 40.5876 16.8128 40.4479 16.7429C40.3082 16.6032 40.0985 16.5334 39.8191 16.5334C39.6096 16.5334 39.4001 16.6032 39.2604 16.6731C39.1207 16.7429 38.981 16.9524 38.9111 17.0921C38.8413 17.3016 38.7715 17.5112 38.7715 17.7207C38.7715 17.9302 38.8413 18.2095 38.9111 18.3492C38.981 18.5587 39.1207 18.6984 39.2604 18.7682C39.4001 18.8381 39.6096 18.9079 39.8191 18.9079C40.0985 18.9079 40.3082 18.8381 40.4479 18.6984C40.5876 18.5587 40.7272 18.419 40.7971 18.2095L41.4955 18.419C41.3558 18.7682 41.1463 19.0476 40.8669 19.2571C40.5876 19.4666 40.1685 19.6761 39.7493 19.6761Z" fill="white"/>
<path d="M43.521 19.6761C43.1718 19.6761 42.8226 19.6063 42.5432 19.4666C42.2638 19.3269 42.0543 19.1174 41.9146 18.7682C41.7749 18.4889 41.7051 18.1397 41.7051 17.7905C41.7051 17.4413 41.7749 17.0921 41.9146 16.8128C42.0543 16.5334 42.2638 16.3239 42.5432 16.1144C42.8226 15.9747 43.102 15.9049 43.521 15.9049C43.8703 15.9049 44.2195 15.9747 44.4988 16.1144C44.7782 16.2541 44.9878 16.4636 45.1274 16.8128C45.2671 17.0921 45.337 17.4413 45.337 17.7905C45.337 18.1397 45.2671 18.4889 45.1274 18.7682C44.9878 19.0476 44.7782 19.2571 44.4988 19.4666C44.2195 19.6063 43.9401 19.6761 43.521 19.6761ZM43.521 19.0476C43.7306 19.0476 43.9401 18.9777 44.0798 18.9079C44.2195 18.8381 44.3592 18.6285 44.429 18.4889C44.4988 18.2794 44.5687 18.0698 44.5687 17.7905C44.5687 17.5112 44.4988 17.3016 44.429 17.162C44.3592 16.9524 44.2195 16.8128 44.0798 16.7429C43.9401 16.6731 43.7306 16.6032 43.521 16.6032C43.3115 16.6032 43.102 16.6731 42.9623 16.7429C42.8226 16.8128 42.6829 17.0223 42.6131 17.162C42.5432 17.3715 42.4734 17.581 42.4734 17.8603C42.4734 18.1397 42.5432 18.3492 42.6131 18.4889C42.6829 18.6285 42.8226 18.8381 42.9623 18.9079C43.102 18.9777 43.3115 19.0476 43.521 19.0476Z" fill="white"/>
<path d="M46.5941 19.6063V16.6032H45.4067V15.9747H48.41V16.6032H47.2925V19.6063H46.5941Z" fill="white"/>
<path d="M51.2039 19.6761C50.9943 19.6761 50.7848 19.6063 50.5753 19.5364C50.3657 19.4666 50.1562 19.3269 50.0165 19.1872C49.8768 19.0476 49.7371 18.8381 49.6673 18.5587C49.5974 18.3492 49.5276 18.0698 49.5276 17.7206C49.5276 17.3016 49.5974 16.9524 49.7371 16.6731C49.8768 16.3937 50.0863 16.1842 50.3657 16.0445C50.6451 15.9049 50.9245 15.835 51.2039 15.835C51.6928 15.835 52.042 15.9747 52.3214 16.1842C52.6007 16.3937 52.7404 16.7429 52.8801 17.0921L52.1817 17.1619C52.1118 16.9524 52.042 16.8128 51.8324 16.6731C51.6928 16.5334 51.4832 16.4636 51.2737 16.4636C51.0642 16.4636 50.8546 16.5334 50.7149 16.6032C50.5753 16.6731 50.4356 16.8826 50.3657 17.0223C50.2959 17.2318 50.226 17.4413 50.226 17.7206C50.226 18 50.2959 18.2095 50.3657 18.3492C50.4356 18.4889 50.5753 18.6984 50.7149 18.7682C50.8546 18.8381 51.0642 18.9079 51.2737 18.9079C51.4134 18.9079 51.5531 18.9079 51.6928 18.8381C51.8325 18.7682 51.9023 18.6984 52.042 18.5587C52.1817 18.419 52.1817 18.2793 52.2515 18.0698H51.6928V17.5111H53.0198C53.0198 17.5111 53.0198 17.581 53.0198 17.6508C53.0198 17.7206 53.0198 17.7206 53.0198 17.7206C53.0198 18.0698 52.95 18.3492 52.8103 18.6285C52.6706 18.9079 52.461 19.1174 52.1817 19.2571C51.8324 19.6063 51.5531 19.6761 51.2039 19.6761Z" fill="white"/>
<path d="M53.0898 19.6063L54.2074 15.9747H55.255L56.3725 19.6063H55.6741L54.6963 16.3937H54.7661L53.7883 19.6063H53.0898ZM53.7883 18.8381V18.2095H55.7439V18.8381H53.7883Z" fill="white"/>
<path d="M56.7915 19.6063V15.9747H57.4201L58.6075 18.419L59.7948 15.9747H60.4234V19.6063H59.7948V17.4413L58.7471 19.6063H58.5376L57.4201 17.4413V19.6063H56.7915Z" fill="white"/>
<path d="M61.1917 19.6063V15.9747H61.8899V19.6063H61.1917Z" fill="white"/>
<path d="M62.6584 19.6063V15.9747H63.3569L64.9633 18.419V15.9747H65.6618V19.6063H64.9633L63.3569 17.162V19.6063H62.6584Z" fill="white"/>
<path d="M67.8967 19.6761C67.6872 19.6761 67.4777 19.6063 67.2681 19.5364C67.0586 19.4666 66.8491 19.3269 66.7094 19.1872C66.5697 19.0476 66.43 18.8381 66.3601 18.5587C66.2903 18.3492 66.2205 18.0698 66.2205 17.7206C66.2205 17.3016 66.2903 16.9524 66.43 16.6731C66.5697 16.3937 66.7792 16.1842 67.0586 16.0445C67.338 15.9049 67.6173 15.835 67.8967 15.835C68.3856 15.835 68.7349 15.9747 69.0142 16.1842C69.2936 16.3937 69.4333 16.7429 69.573 17.0921L68.8745 17.1619C68.8047 16.9524 68.7349 16.8128 68.5253 16.6731C68.3856 16.5334 68.1761 16.4636 67.9666 16.4636C67.757 16.4636 67.5475 16.5334 67.4078 16.6032C67.2681 16.6731 67.1284 16.8826 67.0586 17.0223C66.9887 17.2318 66.9189 17.4413 66.9189 17.7206C66.9189 18 66.9887 18.2095 67.0586 18.3492C67.1284 18.4889 67.2681 18.6984 67.4078 18.7682C67.5475 18.8381 67.757 18.9079 67.9666 18.9079C68.1063 18.9079 68.2459 18.9079 68.3856 18.8381C68.5253 18.7682 68.5952 18.6984 68.7349 18.5587C68.8745 18.419 68.8745 18.2793 68.9444 18.0698H68.3856V17.5111H69.7127C69.7127 17.5111 69.7127 17.581 69.7127 17.6508C69.7127 17.7206 69.7127 17.7206 69.7127 17.7206C69.7127 18.0698 69.6428 18.3492 69.5031 18.6285C69.3635 18.9079 69.1539 19.1174 68.8745 19.2571C68.5253 19.6063 68.2459 19.6761 67.8967 19.6761Z" fill="white"/>
</svg>
