<svg width="150" height="99" viewBox="0 0 1090 720" fill="none" xmlns="http://www.w3.org/2000/svg">
<path d="M199.467 588.779H241.008L293.879 714.848H248.561L242.038 698.015H198.094L191.571 714.848H146.939L199.467 588.779ZM231.395 668.474L220.066 637.901L208.736 668.474H231.395Z" fill="#A6CE3D"/>
<path d="M874.771 588.779H916.312L969.183 714.848H923.522L916.999 698.015H873.054L866.531 714.848H821.9L874.771 588.779ZM906.356 668.474L895.026 637.901L883.697 668.474H906.356Z" fill="#A6CE3D"/>
<path d="M1009.69 624.504H972.616V588.779H1089.34V624.504H1052.27V715.191H1010.04V624.504H1009.69Z" fill="#A6CE3D"/>
<path d="M317.225 588.779H361.169L388.291 633.092L415.413 588.779H459.358V715.191H417.473V652.672L388.291 697.672H387.604L358.423 652.672V715.191H317.225V588.779Z" fill="#A6CE3D"/>
<path d="M656.421 588.779H700.365L727.487 633.092L754.609 588.779H798.554V715.191H756.669V652.672L727.487 697.672H726.801L697.619 652.672V715.191H656.421V588.779Z" fill="#A6CE3D"/>
<path d="M557.889 583.97C520.124 583.97 489.913 614.542 489.913 651.985C489.913 689.771 520.468 720 557.889 720C595.654 720 625.866 689.428 625.866 651.985C625.866 614.199 595.654 583.97 557.889 583.97ZM557.889 678.779C543.127 678.779 531.111 666.756 531.111 651.985C531.111 637.214 543.127 625.191 557.889 625.191C572.652 625.191 584.668 637.214 584.668 651.985C584.668 666.756 572.652 678.779 557.889 678.779Z" fill="#A6CE3D"/>
<path d="M134.58 636.527H67.9767V666.412H94.0687C88.919 675.687 79.3061 681.87 67.9767 681.87C51.4975 681.87 38.1081 668.473 38.1081 651.985C38.1081 635.496 51.4975 622.099 67.9767 622.099C72.4398 622.099 76.9029 623.13 80.6794 624.847L98.1885 590.84C88.919 586.374 78.9628 583.626 67.9767 583.626C30.5552 583.969 0 614.199 0 651.985C0 689.771 30.5552 720 67.9767 720C105.741 720 135.953 689.428 135.953 651.985C136.297 646.832 135.61 641.679 134.58 636.527Z" fill="#A6CE3D"/>
<path d="M544.5 246.298V322.901C500.555 322.901 465.194 287.519 465.194 243.55C465.194 199.58 500.555 164.198 544.5 164.198C587.414 164.198 622.433 198.206 623.806 240.802V13.3969C599.087 4.80916 572.308 0 544.5 0C410.263 0 301.088 108.893 301.088 243.55C301.088 378.206 409.92 487.099 544.5 487.099C678.05 487.099 786.195 379.58 787.911 246.298H544.5Z" fill="#A6CE3D"/>
</svg>
