<svg width="71" height="36" viewBox="0 0 71 36" fill="none" xmlns="http://www.w3.org/2000/svg">
<g clip-path="url(#clip0_6482_530821)">
<path d="M28.8884 14.9138C28.8884 15.2701 29.2925 15.447 29.7015 15.447C30.0834 15.447 30.4874 15.2701 30.4874 14.9587C30.4874 14.4629 29.9158 14.4404 29.5413 14.418C28.6026 14.3582 27.6639 13.9795 27.6639 12.8981C27.6639 11.7719 28.61 11.1989 29.6596 11.1989C30.65 11.1989 31.6553 11.7694 31.6331 12.8981H30.379C30.3716 12.5418 30.0415 12.3948 29.6817 12.3948C29.3812 12.3948 28.9845 12.477 28.9845 12.8707C28.9845 13.2196 29.2777 13.3018 29.7705 13.3541C30.8644 13.4513 31.8179 13.7104 31.8179 14.9711C31.8179 16.0625 30.7683 16.633 29.7212 16.633C28.6346 16.633 27.5949 16.0849 27.617 14.9188H28.8884V14.9138Z" fill="white"/>
<path d="M37.1767 11.3035H37.6547V16.5109H36.3119V14.114L35.2179 15.2701H35.0627L33.9688 14.114V16.5109H32.626V11.3035H33.104L35.144 13.5509L37.1767 11.3035Z" fill="white"/>
<path d="M39.8079 15.8631L39.5147 16.5084H38.1128V16.3241L40.4682 11.2661H41.0842L43.4176 16.3241V16.5084H42.0302L41.7297 15.8631H39.8079ZM40.2415 14.7294H41.3059L40.7713 13.4762L40.2415 14.7294Z" fill="white"/>
<path d="M48.244 16.3091V16.501H46.8202L45.9405 14.8765H45.236V16.501H43.8931V11.311C44.6567 11.311 45.396 11.3035 46.1525 11.311C47.3915 11.311 48.0002 12.2379 48.0002 13.1498C47.9926 13.7428 47.7438 14.3133 47.2366 14.6622L48.244 16.3091ZM46.145 13.7727C46.5194 13.7727 46.7017 13.4463 46.7017 13.1199C46.7017 12.7935 46.527 12.4895 46.145 12.4895H45.2138V13.7727H46.145Z" fill="white"/>
<path d="M48.5078 12.5044V11.3184H52.3217V12.5044H51.0676V16.5109H49.7691V12.5044H48.5078Z" fill="white"/>
<path d="M54.029 14.9138C54.029 15.2701 54.4332 15.447 54.842 15.447C55.224 15.447 55.6283 15.2701 55.6283 14.9587C55.6283 14.4629 55.0565 14.4404 54.682 14.418C53.7433 14.3582 52.8046 13.9795 52.8046 12.8981C52.8046 11.7719 53.7508 11.1989 54.8001 11.1989C55.7908 11.1989 56.7961 11.7694 56.7739 12.8981H55.5198C55.5122 12.5418 55.1821 12.3948 54.8223 12.3948C54.522 12.3948 54.1253 12.4771 54.1253 12.8707C54.1253 13.2196 54.4185 13.3018 54.9111 13.3541C56.0052 13.4513 56.9586 13.7104 56.9586 14.9711C56.9586 16.0625 55.9089 16.633 54.8617 16.633C53.7751 16.633 52.7355 16.0849 52.7577 14.9188H54.029V14.9138Z" fill="white"/>
<path d="M60.1247 16.6056C58.7671 16.6056 57.4983 15.7161 57.4983 13.9122C57.4983 12.1183 58.8115 11.2113 60.1469 11.2113C61.46 11.2113 62.7661 12.1158 62.7661 13.9122C62.7636 15.5018 61.6795 16.6056 60.1247 16.6056ZM60.1322 15.3224C60.7702 15.3224 61.4232 14.8391 61.4232 13.9122C61.4232 12.9853 60.7848 12.502 60.1469 12.502C59.4792 12.502 58.8412 12.9629 58.8412 13.9122C58.8412 14.8416 59.4716 15.3224 60.1322 15.3224Z" fill="white"/>
<path d="M66.5775 14.8341H64.9342V16.5109H63.5913V11.3184H66.7966V12.497H64.9342V13.6456H66.5775V14.8341Z" fill="white"/>
<path d="M67.186 12.5044V11.3184H70.9999V12.5044H69.7458V16.5109H68.4473V12.5044H67.186Z" fill="white"/>
<path d="M30.2459 19.4211C31.2512 19.4211 32.2342 19.897 32.5274 20.9783H31.9262C31.6552 20.2284 31.0171 19.9842 30.2459 19.9842C29.051 19.9842 28.302 20.9036 28.302 22.0821C28.302 23.2905 29.051 24.18 30.2459 24.18C31.3029 24.18 32.0568 23.6095 32.1529 22.4808H30.3272V21.9551H32.7196C32.7418 22.4309 32.69 22.8894 32.5225 23.3055C32.1406 24.2623 31.2832 24.7581 30.2484 24.7581C28.7972 24.7581 27.6885 23.6892 27.6885 22.0796C27.6885 20.47 28.8144 19.4211 30.2459 19.4211Z" fill="white"/>
<path d="M34.1905 23.4052L33.5893 24.6884H32.9512V24.6061L35.3436 19.4734H35.622L37.9922 24.6061V24.6884H37.3614L36.7602 23.4052H34.1905ZM34.3974 22.872H36.5533L35.4741 20.4476L34.3974 22.872Z" fill="white"/>
<path d="M43.2128 19.4883H43.447V24.6883H42.8312V20.9435L41.1434 23.288H41.0473L39.3596 20.9435V24.6883H38.7437V19.4883H38.9851L41.0966 22.3886L43.2128 19.4883Z" fill="white"/>
<path d="M46.7904 24.1925V24.6883H44.3982V24.1925H45.285V19.9867H44.4573V19.4984H46.7313V19.9867H45.9032V24.1925H46.7904Z" fill="white"/>
<path d="M48.301 20.7641L48.3525 22.1893V24.6883H47.7439V19.4809H47.9558L51.3019 23.4126L51.2353 21.9227V19.4909H51.8514V24.6983H51.6541L48.301 20.7641Z" fill="white"/>
<path d="M55.461 19.4211C56.4659 19.4211 57.449 19.897 57.7422 20.9783H57.1411C56.8701 20.2284 56.2322 19.9842 55.461 19.9842C54.2659 19.9842 53.517 20.9036 53.517 22.0821C53.517 23.2905 54.2659 24.18 55.461 24.18C56.5178 24.18 57.2718 23.6095 57.3677 22.4808H55.5423V21.9551H57.9345C57.9567 22.4309 57.9047 22.8894 57.7372 23.3055C57.3556 24.2623 56.4981 24.7581 55.4631 24.7581C54.0121 24.7581 52.9033 23.6892 52.9033 22.0796C52.9033 20.47 54.0293 19.4211 55.461 19.4211Z" fill="white"/>
<path d="M11.6514 16.6804C10.6067 16.2369 9.81831 15.2377 9.81831 14.0169C9.81831 12.4496 11.0748 11.179 12.6246 11.179C13.0114 11.179 13.381 11.2487 13.7136 11.4007C15.9582 12.4297 22.5784 15.7635 22.5784 15.7635C23.7167 16.4287 24.4189 17.6571 24.4189 18.9876V23.6195C24.4189 24.6535 23.8744 25.6078 22.9874 26.126L13.243 31.5727C12.3585 32.0884 11.267 32.0884 10.3825 31.5727L0.687358 25.8096C0.455756 25.685 0.300537 25.4408 0.300537 25.1568C0.300537 24.9973 0.352277 24.8478 0.436047 24.7257L0.416337 24.7557C1.14809 23.6344 2.45392 22.9492 3.86815 23.0937C4.41757 23.1486 4.93254 23.3155 5.37107 23.5896C6.2975 24.1701 8.96086 26.0986 11.7499 26.0986C14.3419 26.0986 16.0099 24.6286 16.0099 24.6286C16.9535 23.8886 17.5621 22.4659 17.5621 21.1653V21.1702C17.5621 19.9469 16.8205 18.9004 15.766 18.4644L11.6514 16.6804Z" fill="#494F4F"/>
<path d="M10.3753 13.9097C10.3753 13.9097 10.3727 13.9174 10.3727 13.9277C10.3727 13.9226 10.3753 13.9174 10.3753 13.9123V13.9097Z" fill="url(#paint0_linear_6482_530821)"/>
<path d="M10.3383 13.8848C10.3383 13.8848 10.3358 13.8925 10.3358 13.9028C10.3358 13.8976 10.3383 13.8925 10.3383 13.8873V13.8848Z" fill="url(#paint1_linear_6482_530821)"/>
<path d="M13.243 31.5702C12.3585 32.0859 11.267 32.0859 10.3825 31.5702L0.687358 25.8071C0.455756 25.6825 0.300537 25.4383 0.300537 25.1543C0.300537 24.9948 0.352277 24.8453 0.436047 24.7232L0.416337 24.7531C1.14809 23.6319 2.45392 22.9467 3.86815 23.0912C4.41757 23.146 4.93254 23.313 5.37107 23.5871C6.2975 24.1676 8.96086 26.0961 11.7499 26.0961C14.3419 26.0961 16.0099 24.6261 16.0099 24.6261C16.9535 23.8861 17.5621 22.4634 17.5621 21.1628V21.1678C17.5621 19.9443 16.8205 18.8979 15.766 18.4619L11.6538 16.6804C10.6092 16.2369 9.82073 15.2377 9.82073 14.0169C9.82073 13.227 10.1386 12.5144 10.6511 12.0012C10.2273 12.4297 9.96613 13.0277 9.96613 13.6805C9.96613 14.6995 10.6018 15.5691 11.4937 15.9055L17.3255 18.1379C19.543 18.9776 21.1223 21.1428 21.1223 23.6792C21.1223 25.9067 19.9052 27.8477 18.1041 28.8568L13.243 31.5702Z" fill="url(#paint2_linear_6482_530821)"/>
<path d="M22.9407 9.73377C23.155 9.87831 23.2955 10.125 23.2955 10.404C23.2955 10.5137 23.2733 10.6183 23.2338 10.7155C22.7682 11.9289 21.7506 12.4671 21.7211 12.482C20.9893 12.8583 20.1171 12.8981 19.3509 12.634C19.102 12.5493 18.8384 12.4122 18.6265 12.2553C17.8627 11.6922 15.1328 9.81349 12.4201 9.81349C9.87009 9.81349 8.2267 11.2113 8.2267 11.2113C7.33972 11.8816 6.75828 13.1448 6.70655 14.3333L6.7016 14.5824C6.7016 15.7435 7.43334 16.7402 8.47061 17.1538L12.5655 18.853C13.5929 19.2766 14.3715 20.2234 14.3715 21.3845C14.3715 22.8745 13.1347 24.0804 11.6095 24.0804C11.2301 24.0804 10.863 24.0131 10.5378 23.8711C8.32773 22.8944 1.81091 19.7251 1.81091 19.7251C0.689869 19.0922 0 17.9262 0 16.6629V15.158V12.34C0 11.306 0.544505 10.3517 1.43148 9.83345L11.1759 4.38682C12.0604 3.87106 13.1519 3.87106 14.0364 4.38682L22.9407 9.73377Z" fill="#868A8A"/>
<path d="M22.9407 9.73377C23.155 9.87831 23.2955 10.125 23.2955 10.404C23.2955 10.5137 23.2733 10.6183 23.2338 10.7155C22.7682 11.9289 21.7506 12.4671 21.7211 12.482C20.9893 12.8583 20.1171 12.8981 19.3509 12.634C19.102 12.5493 18.8384 12.4122 18.6265 12.2553C17.8627 11.6922 15.1328 9.81349 12.4201 9.81349C9.87009 9.81349 8.2267 11.2113 8.2267 11.2113C7.33972 11.8816 6.75828 13.1448 6.70655 14.3333L6.7016 14.5824C6.7016 15.7435 7.43334 16.7402 8.47061 17.1538L12.5655 18.853C13.5929 19.2766 14.3715 20.2234 14.3715 21.3845C14.3715 22.8745 13.1347 24.0804 11.6095 24.0804C11.2301 24.0804 10.863 24.0131 10.5378 23.8711C8.32773 22.8944 1.81091 19.7251 1.81091 19.7251C0.689869 19.0922 0 17.9262 0 16.6629V15.158V12.34C0 11.306 0.544505 10.3517 1.43148 9.83345L11.1759 4.38682C12.0604 3.87106 13.1519 3.87106 14.0364 4.38682L22.9407 9.73377Z" fill="url(#paint3_linear_6482_530821)"/>
<path d="M23.2117 10.7728C22.6844 11.6448 21.7358 12.2278 20.6518 12.2278C19.9619 12.2278 19.3262 11.9887 18.8211 11.5925C16.8821 10.1 14.2828 8.93146 11.6268 8.93146H11.6218C7.74381 8.93146 4.49402 12.6066 4.49402 16.5284C4.49402 18.838 5.91318 21.4492 7.68219 22.553C7.68219 22.553 7.68466 22.553 7.68466 22.5555C8.82787 23.0962 9.87498 23.5845 10.5378 23.8785C10.863 24.0231 11.2301 24.0878 11.6095 24.0878C13.1346 24.0878 14.3715 22.8794 14.3715 21.3919C14.3715 20.4501 13.8762 19.6478 13.1346 19.1545C13.0755 19.1196 13.0188 19.0847 12.9622 19.0523C12.8414 18.9826 12.7133 18.9203 12.5852 18.8679L11.5208 18.4294L8.47308 17.1562C7.43581 16.7426 6.70407 15.7535 6.70407 14.5899L6.70897 14.3407C6.76074 13.1522 7.34219 11.889 8.22916 11.2188C8.22916 11.2188 9.87255 9.82098 12.4226 9.82098C12.8464 9.82098 13.2702 9.86584 13.689 9.94556C15.9434 10.3741 17.9933 11.7868 18.6388 12.2627C18.8507 12.4197 19.1143 12.5543 19.3632 12.6414C19.5061 12.6913 19.6515 12.7287 19.7993 12.7561C20.4448 12.8757 21.1298 12.791 21.7235 12.487C21.7482 12.472 22.7362 11.9513 23.2117 10.7728Z" fill="url(#paint4_linear_6482_530821)"/>
<path d="M23.2117 10.7728C22.6844 11.6448 21.7358 12.2278 20.6518 12.2278C19.9619 12.2278 19.3262 11.9887 18.8211 11.5925C16.8821 10.1 14.2828 8.93146 11.6268 8.93146H11.6218C7.74381 8.93146 4.49402 12.6066 4.49402 16.5284C4.49402 18.838 5.91318 21.4492 7.68219 22.553C7.68219 22.553 7.68466 22.553 7.68466 22.5555C8.82787 23.0962 9.87498 23.5845 10.5378 23.8785C10.863 24.0231 11.2301 24.0878 11.6095 24.0878C13.1346 24.0878 14.3715 22.8794 14.3715 21.3919C14.3715 20.4501 13.8762 19.6478 13.1346 19.1545C13.0755 19.1196 13.0188 19.0847 12.9622 19.0523C12.8414 18.9826 12.7133 18.9203 12.5852 18.8679L11.5208 18.4294L8.47308 17.1562C7.43581 16.7426 6.70407 15.7535 6.70407 14.5899L6.70897 14.3407C6.76074 13.1522 7.34219 11.889 8.22916 11.2188C8.22916 11.2188 9.87255 9.82098 12.4226 9.82098C12.8464 9.82098 13.2702 9.86584 13.689 9.94556C15.9434 10.3741 17.9933 11.7868 18.6388 12.2627C18.8507 12.4197 19.1143 12.5543 19.3632 12.6414C19.5061 12.6913 19.6515 12.7287 19.7993 12.7561C20.4448 12.8757 21.1298 12.791 21.7235 12.487C21.7482 12.472 22.7362 11.9513 23.2117 10.7728Z" fill="url(#paint5_linear_6482_530821)"/>
<path d="M23.2117 10.7728C22.6844 11.6448 21.7358 12.2278 20.6518 12.2278C19.9619 12.2278 19.3262 11.9887 18.8211 11.5925C16.8821 10.1 14.2828 8.93146 11.6268 8.93146H11.6218C7.74381 8.93146 4.49402 12.6066 4.49402 16.5284C4.49402 18.838 5.91318 21.4492 7.68219 22.553C7.68219 22.553 7.68466 22.553 7.68466 22.5555C8.82787 23.0962 9.87498 23.5845 10.5378 23.8785C10.863 24.0231 11.2301 24.0878 11.6095 24.0878C13.1346 24.0878 14.3715 22.8794 14.3715 21.3919C14.3715 20.4501 13.8762 19.6478 13.1346 19.1545C13.0755 19.1196 13.0188 19.0847 12.9622 19.0523C12.8414 18.9826 12.7133 18.9203 12.5852 18.8679L11.5208 18.4294L8.47308 17.1562C7.43581 16.7426 6.70407 15.7535 6.70407 14.5899L6.70897 14.3407C6.76074 13.1522 7.34219 11.889 8.22916 11.2188C8.22916 11.2188 9.87255 9.82098 12.4226 9.82098C12.8464 9.82098 13.2702 9.86584 13.689 9.94556C15.9434 10.3741 17.9933 11.7868 18.6388 12.2627C18.8507 12.4197 19.1143 12.5543 19.3632 12.6414C19.5061 12.6913 19.6515 12.7287 19.7993 12.7561C20.4448 12.8757 21.1298 12.791 21.7235 12.487C21.7482 12.472 22.7362 11.9513 23.2117 10.7728Z" fill="url(#paint6_linear_6482_530821)"/>
</g>
<defs>
<linearGradient id="paint0_linear_6482_530821" x1="11.4821" y1="26.9632" x2="10.3459" y2="13.7312" gradientUnits="userSpaceOnUse">
<stop stop-color="#097A94" stop-opacity="0"/>
<stop offset="0.1165" stop-color="#15758B" stop-opacity="0.1106"/>
<stop offset="0.3135" stop-color="#236976" stop-opacity="0.2978"/>
<stop offset="0.5668" stop-color="#285555" stop-opacity="0.5385"/>
<stop offset="0.8637" stop-color="#213A2E" stop-opacity="0.8206"/>
<stop offset="1" stop-color="#192C1A" stop-opacity="0.95"/>
</linearGradient>
<linearGradient id="paint1_linear_6482_530821" x1="11.4443" y1="26.938" x2="10.3082" y2="13.7058" gradientUnits="userSpaceOnUse">
<stop stop-color="#097A94" stop-opacity="0"/>
<stop offset="0.1165" stop-color="#15758B" stop-opacity="0.1106"/>
<stop offset="0.3135" stop-color="#236976" stop-opacity="0.2978"/>
<stop offset="0.5668" stop-color="#285555" stop-opacity="0.5385"/>
<stop offset="0.8637" stop-color="#213A2E" stop-opacity="0.8206"/>
<stop offset="1" stop-color="#192C1A" stop-opacity="0.95"/>
</linearGradient>
<linearGradient id="paint2_linear_6482_530821" x1="3.95594" y1="35.8897" x2="13.4332" y2="21.1834" gradientUnits="userSpaceOnUse">
<stop stop-color="#ED1B32" stop-opacity="0"/>
<stop offset="0.4613" stop-color="#E91D30" stop-opacity="0.9"/>
<stop offset="0.5848" stop-color="#D91D2D" stop-opacity="0.9229"/>
<stop offset="0.7927" stop-color="#B91D26" stop-opacity="0.9615"/>
<stop offset="1" stop-color="#941A1D"/>
</linearGradient>
<linearGradient id="paint3_linear_6482_530821" x1="11.6488" y1="0.861463" x2="11.6488" y2="26.1596" gradientUnits="userSpaceOnUse">
<stop stop-color="#E81D33" stop-opacity="0"/>
<stop offset="0.5062" stop-color="#E71D2E" stop-opacity="0"/>
<stop offset="0.7711" stop-color="#B91D25" stop-opacity="0.5365"/>
<stop offset="1" stop-color="#941A1D"/>
</linearGradient>
<linearGradient id="paint4_linear_6482_530821" x1="6.05082" y1="28.1186" x2="15.0888" y2="10.7329" gradientUnits="userSpaceOnUse">
<stop stop-color="#ED1B32" stop-opacity="0"/>
<stop offset="0.3135" stop-color="#E91D30" stop-opacity="0.9"/>
<stop offset="0.5062" stop-color="#E71D2E" stop-opacity="0.94"/>
<stop offset="0.7711" stop-color="#B91D25" stop-opacity="0.9722"/>
<stop offset="1" stop-color="#941A1D"/>
</linearGradient>
<linearGradient id="paint5_linear_6482_530821" x1="13.9548" y1="35.3663" x2="13.8569" y2="15.1932" gradientUnits="userSpaceOnUse">
<stop stop-color="#ED1B32" stop-opacity="0"/>
<stop offset="0.4613" stop-color="#E91D30" stop-opacity="0.9"/>
<stop offset="0.5848" stop-color="#D91D2D" stop-opacity="0.9229"/>
<stop offset="0.7927" stop-color="#B91D26" stop-opacity="0.9615"/>
<stop offset="1" stop-color="#941A1D"/>
</linearGradient>
<linearGradient id="paint6_linear_6482_530821" x1="12.6349" y1="15.1151" x2="-4.67434" y2="5.79626" gradientUnits="userSpaceOnUse">
<stop stop-color="#ED1B32" stop-opacity="0"/>
<stop offset="0.5062" stop-color="#E71D2E" stop-opacity="0"/>
<stop offset="0.6917" stop-color="#BC1C27" stop-opacity="0.3756"/>
<stop offset="1" stop-color="#7A1317"/>
</linearGradient>
<clipPath id="clip0_6482_530821">
<rect width="71" height="36" fill="white"/>
</clipPath>
</defs>
</svg>
