<svg width="64" height="36" viewBox="0 0 64 36" fill="none" xmlns="http://www.w3.org/2000/svg">
<g clip-path="url(#clip0_481_13843)">
<path d="M55.808 13.328C55.552 13.136 55.296 12.88 55.1034 12.688C54.7834 12.368 54.528 12.176 54.336 12.176C53.888 12.176 53.696 12.24 53.5034 12.688C53.3114 13.2 53.1834 13.2 52.8634 14.672H54.848L55.808 13.328ZM53.504 15.824C53.2487 15.824 52.9287 15.824 52.544 15.824L50.944 21.904C50.624 23.376 50.112 24.528 49.408 25.296C48.704 26.064 48.256 26.384 47.296 26.384C46.336 26.384 46.4 26.384 46.016 26.192C45.568 26 45.248 25.808 45.248 25.424C45.248 25.104 45.248 24.72 45.376 24.5286C45.5034 24.3366 45.9514 24.2086 46.208 24.2726C46.4634 24.3373 46.912 24.5926 47.04 24.7846C47.168 24.9773 47.488 25.1046 47.68 25.1046C47.872 25.1046 47.936 24.9126 48.064 24.5926C48.192 24.2726 48.32 23.8246 48.384 23.2486C49.4087 18.7686 49.8567 16.4006 49.8567 16.2086C49.8567 16.0166 49.664 15.8246 49.2807 15.5046C49.1527 15.3126 49.0247 15.1846 49.0247 15.0566C49.0247 14.9286 49.2807 14.8006 49.2807 14.8006C49.8567 14.7366 50.0487 14.8646 50.2407 14.8006C50.4327 14.7366 50.4967 14.4806 50.4967 14.4166C50.8167 13.2006 50.752 12.7526 51.584 11.8566C52.4167 10.9606 53.504 10.8966 54.6567 10.8966C55.104 10.8966 55.552 10.9606 55.9367 11.2806C56.192 11.5366 56.5767 12.1126 56.832 12.5606C57.024 12.6246 57.408 12.7526 57.664 12.7526C57.984 12.8166 57.7287 13.3286 57.7287 13.3926L57.0887 14.4806C57.1527 14.6726 57.2167 14.7366 57.2807 14.8006C57.4087 14.8646 57.5367 14.9286 57.7287 14.9286C57.7927 14.9286 58.0487 14.9286 58.0487 14.9926C58.0487 15.0566 58.1767 15.2486 58.1767 15.2486C58.1767 15.3766 58.1767 15.4406 58.0487 15.5686C57.984 15.6966 57.6007 15.6966 57.5367 15.6966C57.0887 15.8246 56.7687 15.8886 56.704 16.0166C56.64 16.1446 56.32 17.3606 55.872 19.7286C55.808 19.8566 55.744 19.984 55.872 20.0486C56 20.1126 56.064 19.984 56.128 19.984C56.192 19.984 56.7034 19.984 56.96 20.112C57.088 20.1766 57.024 20.4966 57.024 20.56C57.024 20.6234 56.8967 20.88 56.704 21.264C56.448 21.648 56.192 21.84 55.872 22.032C55.552 22.224 55.232 22.288 54.848 22.288C54.4 22.288 54.1434 22.288 53.696 21.84C53.248 21.456 53.3114 20.88 53.376 20.24L54.4634 16.016L53.504 15.824ZM12.736 11.984C12.672 12.304 11.904 12.24 11.712 12.368C11.584 12.56 11.392 12.88 11.328 13.264C10.176 18.064 9.60004 20.496 9.60004 20.56C9.60004 20.752 9.66404 21.008 9.79204 21.072C9.92004 21.2 10.368 21.392 10.368 21.648C10.368 21.9034 9.85604 21.968 9.28004 22.16C8.70404 22.288 8.57604 22.352 7.74404 22.224C6.97604 22.16 5.50404 21.904 5.50404 21.52C5.50404 21.136 6.33604 21.072 6.46404 20.88C6.59204 20.688 6.84804 20.304 6.97604 19.856L8.57604 13.264C8.57604 13.2 8.83204 12.624 8.51204 12.368C8.19204 12.112 7.93604 11.92 7.93604 11.728C7.93604 11.536 8.38404 11.344 9.02404 11.28C9.66404 11.216 10.048 11.216 10.432 11.216C10.816 11.216 11.2 11.216 11.776 11.28C12.224 11.472 12.8 11.6 12.736 11.984ZM26.88 16.208C27.264 15.696 27.648 15.44 28.352 15.056C29.056 14.672 29.696 14.672 30.464 14.672C31.552 14.672 32.064 14.992 32.64 15.376C33.216 15.824 33.536 16.272 33.6 17.04C33.664 17.616 33.664 18.256 33.472 18.896C33.28 19.536 33.088 20.048 32.704 20.496C32.32 21.008 31.8087 21.3914 31.296 21.776C30.784 22.096 30.272 22.16 29.44 22.288C28.544 22.352 27.52 22.032 27.008 21.5834C26.432 21.136 26.112 20.5594 26.048 19.7914C25.984 19.1514 25.984 18.3194 26.176 17.7434C26.176 17.6794 26.24 17.6154 26.24 17.4874C26.176 17.2954 26.112 17.1034 25.984 17.1034C25.792 17.1034 25.472 17.1674 25.216 17.1034C24.96 17.0394 24.768 17.0394 24.64 17.0394C24.32 17.0394 23.68 18.1274 23.296 18.8314C22.912 19.536 22.592 20.6874 22.144 21.9674C22.144 22.0314 21.632 22.2227 21.312 22.2874C20.992 22.3514 20.672 22.2874 20.544 22.2874C20.224 22.1594 20.032 22.0954 19.968 21.9674C19.84 21.8394 19.84 20.8794 19.968 20.4954C20.288 19.2794 20.864 18.0634 20.8 17.6154C20.608 16.8474 19.712 16.7834 19.648 16.7834C19.584 16.7834 19.52 16.7834 19.456 16.7194L18.368 16.7834C18.368 17.9994 18.048 18.8954 17.408 19.4074C16.704 19.9194 15.808 20.2394 14.592 20.2394C14.272 20.2394 14.464 20.6234 14.976 20.7514C15.488 20.9434 15.808 20.9434 16.192 21.0074C16.704 21.1354 17.152 21.3274 17.6 21.6474C18.048 21.9674 18.304 22.6074 18.304 23.1194C18.304 23.8874 17.728 24.7834 16.896 25.3594C16.064 25.9354 15.168 26.1914 14.272 26.1914C13.12 26.1914 12.288 25.8714 11.584 25.4874C10.88 25.104 10.496 24.72 10.496 24.144C10.496 23.5686 10.56 23.184 10.88 22.9286C11.2 22.6726 11.392 22.3526 12.096 22.0326C11.904 21.6486 11.84 21.6486 11.712 21.3286C11.584 20.944 11.456 20.6886 11.84 20.304C12.224 19.92 12.288 19.92 12.864 19.472C12.416 19.28 12.032 18 12.032 17.552C12.032 16.592 12.224 16.08 13.056 15.312C13.888 14.544 14.592 14.608 15.488 14.608C16.128 14.608 16.832 14.928 17.216 15.12C17.472 15.12 17.728 14.928 17.984 14.864C18.112 14.8 18.368 14.736 18.624 14.608C18.688 14.608 19.904 15.376 19.968 15.44C19.968 15.44 19.968 15.504 20.032 15.504L20.096 15.44C20.672 14.928 21.184 14.608 21.76 14.608C22.208 14.608 22.592 14.736 22.848 14.928C23.104 15.184 23.04 15.376 23.04 15.824C23.04 15.888 23.36 16.08 23.296 16.144C23.488 15.952 23.744 15.696 24 15.376C24.384 14.864 25.024 14.544 25.408 14.544C25.792 14.544 26.112 14.8 26.304 15.056C26.56 15.376 26.752 15.824 26.88 16.208ZM16.32 16.528C16.384 16.336 16.32 16.208 16.32 16.08C16.256 15.952 16.192 15.888 16.064 15.824C15.808 15.76 15.488 16.016 15.04 16.592C14.592 17.168 14.336 17.744 14.208 18.448C14.144 18.64 14.208 18.768 14.208 18.896C14.272 19.0234 14.336 19.088 14.528 19.1514C14.848 19.216 15.232 18.9594 15.616 18.3834C15.936 17.744 16.192 17.168 16.32 16.528ZM16 23.76C16 23.376 15.744 23.12 15.296 22.928C14.784 22.8 14.72 22.8 13.888 22.8C13.504 22.928 12.992 23.184 12.736 23.376C12.544 23.568 12.224 23.8234 12.224 24.016C12.224 24.208 12.352 24.528 12.672 24.72C12.992 24.976 13.376 24.976 14.016 24.976C14.592 24.976 14.976 24.72 15.296 24.4634C15.68 24.336 16 24.08 16 23.76ZM30.464 15.824C30.208 15.824 29.952 16.016 29.632 16.336C29.376 16.656 29.184 17.168 28.928 17.744C28.672 18.256 28.608 18.64 28.48 19.408C28.352 20.176 28.544 21.072 28.672 21.2C28.8 21.328 29.056 21.328 29.184 21.328C29.504 21.2634 29.696 21.136 30.016 20.752C30.336 20.368 30.4 20.1766 30.656 19.664C30.912 19.152 31.04 18.64 31.104 17.936C31.104 17.168 30.912 15.824 30.464 15.824ZM40.128 15.888C40.128 16.144 40.128 16.656 40.128 16.912C40.128 17.168 40.128 17.36 39.616 17.36C39.168 17.36 39.1034 17.04 39.04 16.784C38.9767 16.528 39.04 16.336 38.912 16.144C38.784 15.952 38.464 15.76 38.08 15.76C37.696 15.76 37.44 15.888 37.056 16.208C36.736 16.592 36.928 16.784 37.1834 17.04C37.4394 17.296 38.208 17.552 38.528 17.744C38.912 18 39.36 18.192 39.616 18.64C39.8714 19.152 39.8714 19.408 39.8714 20.048C39.8714 20.688 39.3594 21.328 38.7834 21.776C38.208 22.2234 37.1834 22.288 36.3514 22.288C35.9674 22.288 35.136 22.16 33.9834 21.9034C34.048 21.0714 34.1114 20.496 34.1114 20.2394C34.176 19.7914 34.0474 19.5354 34.176 19.5354C34.56 19.472 34.752 19.728 34.944 19.92C35.1367 20.112 35.264 20.304 35.392 20.496C35.52 20.688 35.7767 20.816 35.904 21.008C36.032 21.2 36.672 21.2 36.864 21.072C37.184 20.88 37.5687 20.4966 37.5687 20.304C37.5687 20.112 37.504 19.984 37.1207 19.7286C36.8007 19.4726 36.6087 19.344 36.2247 19.1526C35.8407 18.9606 35.3293 18.5126 35.1373 18.1286C34.8813 17.8086 34.8173 17.4886 34.8173 17.1686C34.8173 16.5926 34.9447 15.8886 35.4573 15.3766C35.9693 14.8646 36.2893 14.5446 37.6327 14.6086C38.2087 14.6726 39.3607 14.9926 39.9373 14.9926C40.128 15.504 40.128 15.568 40.128 15.888ZM48.064 17.424C48.064 18 48 18.96 47.8087 19.536C47.616 20.112 47.104 20.752 46.72 21.136C46.272 21.5834 45.824 21.776 45.312 22.096C44.8 22.352 44.096 22.48 43.2 22.416C42.304 22.3514 41.728 21.84 41.216 21.328C40.704 20.816 40.512 20.24 40.512 19.536C40.512 18.96 40.64 18.3834 40.832 17.8714C41.024 17.3594 41.344 16.8474 41.792 16.3354C42.1767 15.8874 42.688 15.5034 43.264 15.2474C43.84 14.9914 44.48 14.7994 45.2487 14.7994C46.0807 14.7994 46.784 15.0554 47.2327 15.5034C47.68 15.952 48.064 16.72 48.064 17.424ZM45.568 16.144C45.5034 15.888 45.44 15.824 45.312 15.824C45.0567 15.824 44.672 16.08 44.352 16.4C44.096 16.72 43.776 17.04 43.52 17.552C43.264 18.064 43.136 18.5766 43.008 19.088C42.88 19.5994 43.008 20.88 43.072 21.008C43.1367 21.136 43.264 21.328 43.4567 21.328C43.712 21.328 44.0967 21.136 44.4167 20.816C44.7367 20.496 44.992 20.048 45.2487 19.536C45.4407 19.0234 45.5687 18.896 45.6327 18.1914C45.632 17.36 45.632 16.4 45.568 16.144ZM32 2C53.184 2 64 10.448 64 18C64 25.552 51.328 34 32.256 34C13.184 34 0.0640366 26.064 3.65771e-05 18C-0.0639634 9.936 10.816 2 32 2ZM32.128 4.176C11.904 4.176 1.15204 11.856 1.34404 18.448C1.53604 25.04 13.888 31.76 32.128 31.76C50.368 31.76 62.528 24.272 62.528 18C62.528 11.728 52.416 4.176 32.128 4.176ZM62.464 6.928C62.784 6.544 62.976 6.032 62.976 5.456C62.976 4.176 61.9514 3.152 60.6714 3.152C60.1594 3.152 59.7114 3.344 59.3274 3.6C61.1194 3.472 62.0154 3.856 62.0154 4.688C62.0154 5.52 61.7594 5.2 61.7594 5.904C61.76 6.224 62.016 6.608 62.464 6.928ZM61.632 7.632C61.376 7.184 61.184 6.928 61.056 6.736C60.864 6.544 60.672 6.416 60.352 6.16C60.224 6.544 60.16 6.8 60.0967 6.992C60.032 7.184 59.904 7.312 59.712 7.568C60.032 7.76 60.416 7.824 60.8 7.824C60.992 7.824 61.312 7.76 61.632 7.632ZM58.752 6.8C58.944 6.608 59.072 6.288 59.072 5.968C59.1367 5.584 59.072 4.88 58.944 3.92C58.56 4.304 58.304 4.88 58.304 5.52C58.304 5.968 58.496 6.416 58.752 6.8ZM60.672 2C62.528 2 64 3.472 64 5.328C64 7.184 62.528 8.656 60.672 8.656C58.8167 8.656 57.344 7.184 57.344 5.328C57.344 3.472 58.816 2 60.672 2ZM60.224 4.496V5.2C60.608 5.136 60.8 5.008 60.8 4.752C60.8 4.496 60.608 4.432 60.224 4.496Z" fill="white"/>
</g>
<defs>
<clipPath id="clip0_481_13843">
<rect width="64" height="36" fill="white"/>
</clipPath>
</defs>
</svg>
