<svg width="138" height="36" viewBox="0 0 138 36" fill="none" xmlns="http://www.w3.org/2000/svg">
<path d="M17.0031 17.0296V19.0963C17.0031 23.1629 14.8604 27.0963 9.47843 27.0963C4.09643 27.0963 1.16211 23.3111 1.16211 18.0074C1.16211 12.7037 4.09642 8.9259 9.47116 8.9259C13.4151 8.9259 15.8918 11.037 16.5382 14.2518H12.805C12.4273 12.9481 11.316 12.1852 9.45664 12.1852C6.36979 12.1852 4.83727 14.6666 4.83727 17.9926C4.83727 21.3185 6.37706 23.8444 9.4639 23.8444C12.1222 23.8444 13.3134 22.2518 13.386 20.0148H9.33316V17.0222H17.0031V17.0296Z" fill="white"/>
<path d="M29.5975 22.037H23.0679L21.6734 26.7778H18.1362L23.5981 9.24445H29.1544L34.6454 26.7778H31.0138L29.5975 22.037ZM23.9831 18.8444H28.6533L26.852 12.7556H25.8061L23.9831 18.8444Z" fill="white"/>
<path d="M36.4756 9.24445H41.9883L44.8064 16.3185H45.4311L48.2274 9.24445H53.7619V26.7778H50.4136V13.7111H49.789L46.8982 20.7852H43.3102L40.4485 13.7111H39.8239V26.7704H36.4756V9.24445Z" fill="white"/>
<path d="M66.3418 23.5111L65.8188 26.7778H57.1321V9.24445H68.8258L68.2011 12.5111H60.7346V16.1926H67.6201L67.0753 19.3852H60.7346V23.5185H66.3418V23.5111Z" fill="white"/>
<path d="M80.5775 17.963C81.7759 18.6667 82.5095 19.9704 82.5022 21.3778C82.5022 25.037 79.5897 26.7778 76.2922 26.7778H68.8257L71.8399 9.24445H78.6527C81.0859 9.24445 83.3012 10.6222 83.3012 13.2444C83.3447 15.0593 82.3061 16.7185 80.6792 17.4444L80.5775 17.963ZM76.0162 25.3185C78.6382 25.3185 80.9043 24.1852 80.9043 21.3185C80.9043 19.1556 79.0232 18.3481 77.1711 18.3481H71.8544L70.6487 25.3185H76.0162ZM72.1304 16.8593H77.4471C79.7858 16.8593 81.7105 15.9778 81.7105 13.3704C81.7105 11.5037 80.0981 10.7185 78.4857 10.7185H73.1981L72.1304 16.8593Z" fill="#2BDC24"/>
<path d="M91.3851 25.2963L90.6297 26.7704H83.9622L86.9764 9.24445H99.6288L98.8734 10.7185H88.3201L87.2378 16.9111H95.6849L94.9295 18.3852H86.9909L85.7852 25.3111L91.3851 25.2963Z" fill="#2BDC24"/>
<path d="M108.998 26.7778H107.335L106.369 21.1037H98.6191L95.7284 26.7778H93.9998L103.006 9.24445H105.919L108.998 26.7778ZM99.3745 19.6296H106.129L104.684 10.963H103.769L99.3745 19.6296Z" fill="#2BDC24"/>
<path d="M122.37 10.7185H116.675L113.908 26.7704H112.317L115.085 10.7185H109.39L109.63 9.24445H122.631L122.37 10.7185Z" fill="#2BDC24"/>
<path d="M133.715 26.7704H124.382L127.454 9.24445H136.78L133.715 26.7704Z" fill="url(#paint0_linear_6482_530583)"/>
<path d="M128.805 26.7704H119.479L122.646 9.24445H131.979L128.805 26.7704Z" fill="url(#paint1_linear_6482_530583)"/>
<defs>
<linearGradient id="paint0_linear_6482_530583" x1="130.582" y1="26.9159" x2="130.582" y2="10.6071" gradientUnits="userSpaceOnUse">
<stop offset="0.2" stop-color="#2BDC24" stop-opacity="0"/>
<stop offset="1" stop-color="#2BDC24"/>
</linearGradient>
<linearGradient id="paint1_linear_6482_530583" x1="125.727" y1="9.16858" x2="125.727" y2="27.6988" gradientUnits="userSpaceOnUse">
<stop offset="0.2" stop-color="#2BDC24" stop-opacity="0"/>
<stop offset="1" stop-color="#2BDC24"/>
</linearGradient>
</defs>
</svg>
