<?xml version="1.0" encoding="utf-8"?>
<!-- Generator: Adobe Illustrator 24.1.3, SVG Export Plug-In . SVG Version: 6.00 Build 0)  -->
<svg version="1.1" id="Layer_1" xmlns="http://www.w3.org/2000/svg" xmlns:xlink="http://www.w3.org/1999/xlink" x="0px" y="0px"
	 viewBox="0 0 100 65" style="enable-background:new 0 0 100 65;" xml:space="preserve">
<style type="text/css">
	.st0{fill-rule:evenodd;clip-rule:evenodd;fill:#FFFFFF;}
	.st1{fill-rule:evenodd;clip-rule:evenodd;fill:#E6642B;}
</style>
<g>
	<path class="st0" d="M43.2,9.6c-0.4-1.2-0.9-2.4-1.2-3.6c-0.3-1.3-0.6-2.5-0.8-3.8c-0.1-0.7-0.1-0.7,0.6-1c1.4-0.5,2.8-0.9,4.3-1.1
		c0.7-0.1,0.7-0.1,0.8,0.6c0.4,2.9,1.2,5.7,2.5,8.4c0.1,0.3,0.2,0.8,0.5,0.8c0.4,0,0.5-0.5,0.6-0.8c1.2-2.6,2.1-5.4,2.4-8.3
		c0.1-0.8,0.1-0.8,0.9-0.7c1.5,0.2,2.9,0.6,4.3,1.1c0.6,0.2,0.6,0.2,0.5,0.9c-0.3,2.3-0.9,4.5-1.7,6.7c-0.1,0.2-0.4,0.5-0.1,0.8
		c0.2,0.2,0.5-0.1,0.7-0.1c2.3-0.9,4.3-2.3,6.1-4c0.1-0.1,0.2-0.2,0.2-0.2c0.6-0.6,0.6-0.6,1.4,0c1.1,0.9,2.1,1.8,3,2.9
		c0.5,0.5,0.4,0.5,0,1c-3.4,3.6-7.6,5.9-12.4,7.1c-0.2,0.1-0.4,0.1-0.7,0.2c-0.5,0.2-0.6,0.3-0.2,0.7c1.3,1.3,2.8,2.5,4.3,3.5
		c0.5,0.3,0.5,0.3,1.1-0.2c2.4-2.2,5.1-4,8.1-5.4c0.9-0.4,1.8-0.7,2.7-1.1c0.6-0.2,0.7-0.2,1,0.4c0.6,1.4,1.1,2.7,1.4,4.2
		c0.1,0.6,0.1,0.7-0.5,0.9c-1.5,0.5-2.9,1.1-4.2,1.9c-0.9,0.5-1.7,1-2.5,1.6c-0.2,0.2-0.6,0.3-0.5,0.6c0,0.4,0.5,0.4,0.8,0.4
		c2,0.6,4.1,1,6.3,1.2c1.6,0.1,1.3,0.1,1.2,1.4c-0.1,1.3-0.4,2.5-0.7,3.7C73.1,31,73.1,31,72.4,31c-2.3-0.2-4.6-0.6-6.9-1.2
		c-5.7-1.7-10.6-4.6-14.8-8.8c-0.8-0.8-0.7-0.9-1.6,0c-4.5,4.5-9.7,7.5-15.9,9.1c-1.8,0.5-3.7,0.8-5.6,0.9c-0.9,0.1-0.9,0-1.1-0.8
		c-0.4-1.3-0.6-2.6-0.7-4c-0.1-0.9-0.1-0.9,0.9-1c2.1-0.1,4.1-0.5,6.1-1.1c0.4-0.1,0.7-0.2,1.1-0.3c0.3-0.1,0.3-0.3,0.1-0.5
		c-0.3-0.3-0.7-0.5-1-0.8c-1.9-1.3-3.9-2.3-6.1-3.1c-0.8-0.3-0.8-0.3-0.6-1c0.3-1.4,0.7-2.7,1.3-4c0.3-0.7,0.3-0.7,1.1-0.5
		c2.5,0.8,4.8,2,6.9,3.4c1.4,0.9,2.7,1.9,3.9,3c0.5,0.5,0.5,0.5,1.1,0.1c1.4-0.9,2.7-2,3.9-3.2c0.1-0.1,0.3-0.3,0.4-0.4
		c0.2-0.2,0.1-0.4-0.2-0.5c-0.2-0.1-0.3-0.1-0.5-0.1c-4.9-1.1-9.1-3.5-12.6-7.1C31.7,9,31.6,9,31.5,8.9c-0.2-0.2-0.3-0.4,0-0.7
		c1.1-1.2,2.3-2.4,3.6-3.4c0.3-0.2,0.5-0.1,0.7,0.1c0.7,0.7,1.4,1.4,2.1,2c1.4,1.1,3,2,4.7,2.7C42.8,9.6,42.9,9.7,43.2,9.6z
		 M49.9,47.8c-0.7,0-1.4,0-2.1,0c-0.6,0-0.7-0.2-0.7-0.8c0-2.1,0-4.3,0-6.4c0-0.7-0.2-1.2-0.6-1.8c-2.4-3-4.7-6-7-9.1
		c-0.6-0.8-0.6-0.8,0.3-1.2c1.2-0.6,2.3-1.2,3.4-1.9c0.8-0.5,0.8-0.5,1.4,0.2c1.6,2,3.1,4.1,4.7,6.1c0.6,0.8,0.6,0.8,1.3,0
		c1.6-2.1,3.2-4.2,4.8-6.3c0.5-0.6,0.5-0.6,1.2-0.2c1.3,0.8,2.6,1.5,3.9,2.1c0.6,0.3,0.6,0.4,0.2,0.9c-2.4,3.1-4.8,6.3-7.3,9.4
		c-0.4,0.5-0.5,1-0.5,1.5c0,2.1,0,4.3,0,6.4c0,0.8,0,0.8-0.8,0.9C51.4,47.9,50.6,47.8,49.9,47.8L49.9,47.8z M20.4,61.7
		c0,0.5,0,1,0,1.5c0,0.3-0.1,0.5-0.3,0.6c-1.9,1.5-4.6,1.5-6.3,0.5c-1.6-1-2.2-2.4-2.1-4.2c0.1-3.1,2.8-4.9,5.5-4.5
		c1,0.1,1.8,0.4,2.6,1c0.3,0.2,0.3,0.4,0.1,0.6c-0.1,0.1-0.1,0.2-0.2,0.3c-0.3,0.3-0.4,0.7-0.8,0.8c-0.4,0.1-0.6-0.3-1-0.5
		c-1.1-0.5-2.3-0.4-3.1,0.3c-0.9,0.9-1.2,2.3-0.6,3.4c0.5,1,1.5,1.6,2.7,1.5c0.4,0,0.8-0.1,1.2-0.3c0.2-0.1,0.4-0.2,0.4-0.5
		c0.1-0.7,0-0.9-0.8-0.9c-1.5,0-1.2,0.3-1.3-1.3c0-0.3,0-0.5,0.5-0.5c1,0,2,0,3.1,0c0.4,0,0.5,0.1,0.5,0.5
		C20.3,60.6,20.4,61.1,20.4,61.7L20.4,61.7z M33.2,61.6c0,0.5,0,1,0,1.5c0,0.3-0.1,0.5-0.4,0.7c-1.6,1.3-4.3,1.5-6.1,0.5
		c-1.8-1-2.7-3.3-2.1-5.3c0.7-2.3,2.8-3.7,5.3-3.4c1,0.1,1.8,0.4,2.6,1c0.3,0.2,0.3,0.4,0.1,0.7c-0.1,0.1-0.1,0.2-0.2,0.3
		c-0.2,0.3-0.4,0.7-0.7,0.8c-0.4,0.2-0.6-0.3-0.9-0.4c-1.1-0.5-2.6-0.5-3.4,0.6c-0.9,1.1-0.9,2.7,0,3.8c0.7,0.9,2.4,1.2,3.5,0.6
		c0.4-0.2,0.6-0.9,0.4-1.2c-0.1-0.1-0.2-0.2-0.3-0.2c-0.2,0-0.3,0-0.5,0c-0.4,0-0.9,0.2-1.1-0.2c-0.2-0.4-0.1-0.9-0.1-1.4
		c0-0.2,0.1-0.2,0.3-0.2c1.1,0,2.3,0,3.4,0c0.2,0,0.3,0.1,0.3,0.4C33.2,60.5,33.2,61,33.2,61.6L33.2,61.6z M78.3,55.6
		c1.1-0.1,2.1,0.3,3,0.8c0.5,0.3,0.5,0.3,0.1,0.8c-0.2,0.3-0.4,0.8-0.8,1c-0.4,0.1-0.7-0.3-1.1-0.4c-0.3-0.1-0.6-0.2-1-0.3
		c-0.4-0.1-0.7,0-1.1,0.2c-0.5,0.3-0.5,0.9,0,1.2c0.3,0.2,0.7,0.3,1.1,0.4c0.7,0.2,1.4,0.4,2.1,0.7c0.9,0.5,1.3,1.2,1.2,2.2
		c0,1-0.4,1.8-1.3,2.3c-1.4,0.7-2.8,0.6-4.2,0.1c-0.5-0.2-1-0.5-1.5-0.8c-0.2-0.2-0.3-0.3,0-0.6c0.1-0.1,0.2-0.3,0.3-0.4
		c0.2-0.2,0.4-0.5,0.6-0.7c0.3-0.2,0.5,0.3,0.8,0.4c0.6,0.3,1.3,0.6,2,0.6c0.3,0,0.5,0,0.7-0.2c0.6-0.3,0.6-0.9,0.1-1.3
		c-0.5-0.3-1.1-0.4-1.6-0.6c-0.4-0.1-0.9-0.2-1.3-0.4c-0.9-0.4-1.5-1-1.5-2.1c-0.1-1.1,0.3-2,1.3-2.6C77,55.7,77.7,55.6,78.3,55.6z
		 M0,56.2c0.7-0.1,1.3,0,2-0.1c0.3,0,0.4,0.2,0.6,0.5c0.5,0.7,0.9,1,1.4,1.8c0.1,0.2,0.3,0.5,0.4,0.7c0.3,0,0.3-0.2,0.4-0.4
		c0.5-0.8,1.1-1.7,1.5-2.5c0.2-0.3,0.4-0.5,0.8-0.5c0.6,0,1.1,0,1.7,0c0.2,0.3,0,0.4-0.1,0.6c-0.9,1.4-1.8,2.8-2.7,4.2
		C5.7,61,5.5,61.4,5.5,62c0,0.7,0,1.5,0,2.2c0,0.6,0,0.6-0.6,0.6c-1.5,0.1-1.6,0.1-1.4-1.4c0.1-1.5-0.3-2.3-1.2-3.5
		c-0.7-1-1.3-2-2-3.1C0.2,56.7,0,56.5,0,56.2z M93.3,60.2c0-1.3,0-2.5,0-3.8c0-0.7,0-0.7,0.6-0.7c1.4,0,1.4,0,1.4,1.4
		c0,1.7,0,3.4,0,5.2c0,0.7,0,0.7,0.6,0.7c1.1,0,2.2,0,3.3,0c0.6,0,0.6,0,0.6,0.6c0,1.5,0.2,1.3-1.2,1.3c-1.6,0-3.2,0-4.8,0
		c-0.6,0-0.6,0-0.7-0.7C93.3,62.8,93.3,61.5,93.3,60.2L93.3,60.2z M88.5,60.3c0,1.3,0,2.6,0,3.9c0,0.7,0,0.7-0.6,0.7
		c-1.5,0-1.5,0-1.5-1.5c0-2.3,0-4.6,0-6.9c0-0.8,0-0.8,0.8-0.8c1.4,0,1.4,0,1.4,1.3C88.5,58.1,88.5,59.2,88.5,60.3z M55.3,59.9
		c0.5-0.2,0.8-0.7,0.8-1.2c0-0.5-0.3-0.9-0.9-1c-0.4-0.1-0.9-0.2-1.3-0.2c-1.5,0-1.2-0.2-1.3,1.1c0,0.4,0,0.7,0,1
		c0,0.2,0,0.4,0.3,0.4C53.7,60.1,54.5,60.2,55.3,59.9z M56.3,61.7c0.7,1,1.4,2,2.2,3.2c-0.9,0-1.5,0-2.2,0c-0.3,0-0.4-0.2-0.5-0.4
		c-0.4-0.7-0.9-1.3-1.3-2c-0.3-0.5-1.1-0.7-1.6-0.5c-0.2,0.1-0.2,0.3-0.2,0.4c0,0.6,0,1.2,0,1.9c0,0.4-0.1,0.6-0.5,0.5
		c-0.4,0-0.7,0-1.1,0c-0.4,0-0.5-0.2-0.5-0.5c0-2.7,0-5.4,0-8.1c0-0.3,0-0.5,0.4-0.5c1.5,0,3-0.1,4.5,0.1c1.6,0.2,2.5,0.9,2.7,2.3
		c0.3,1.4-0.2,2.7-1.5,3.4C56.5,61.5,56.5,61.5,56.3,61.7z M44,60.6c0.1-1.5-0.8-2.7-2.3-2.9c-0.3-0.1-0.7-0.1-1-0.1
		c-1,0-0.9-0.1-0.9,0.9c0,1.1,0,2.3,0,3.4c0,1.2-0.2,1.1,1.1,1.1c0.2,0,0.3,0,0.5,0C42.8,62.9,43.9,61.9,44,60.6z M42.3,55.8
		c3.5,0.6,5.1,4.4,3,7.3c-0.9,1.2-2.2,1.7-3.6,1.8c-0.6,0-1.1,0-1.7,0v0c-0.5,0-1.1,0-1.6,0c-0.4,0-0.6-0.1-0.6-0.5
		c0-2.7,0-5.4,0-8.1c0-0.3,0-0.5,0.4-0.5C39.5,55.7,40.9,55.6,42.3,55.8z M65.5,60.9h2.2c-0.3-0.9-0.6-1.7-1.1-2.7
		C66.2,59.2,65.9,60,65.5,60.9z M71.2,64.1c0.1,0.2,0.2,0.4,0.2,0.7c-0.6,0-1.2,0-1.7,0c-0.3,0-0.4-0.2-0.5-0.4
		c-0.2-0.4-0.3-0.8-0.5-1.2c-0.1-0.3-0.3-0.4-0.6-0.4c-0.9,0-1.9,0-2.8,0c-0.4,0-0.6,0.2-0.7,0.5c-0.1,0.4-0.3,0.7-0.4,1.1
		c-0.1,0.3-0.3,0.5-0.6,0.4c-0.5,0-1,0-1.6,0c-0.1-0.3,0.1-0.6,0.2-0.8c1.1-2.6,2.2-5.1,3.3-7.7c0.2-0.5,0.5-0.7,1-0.7
		c1.3,0.1,1.1-0.3,1.7,1.1C69.1,59.2,70.2,61.6,71.2,64.1z"/>
	<path class="st1" d="M43.2,9.6c-0.4-1.2-0.9-2.4-1.2-3.6c-0.3-1.3-0.6-2.5-0.8-3.8c-0.1-0.7-0.1-0.7,0.6-1c1.4-0.5,2.8-0.9,4.3-1.1
		c0.7-0.1,0.7-0.1,0.8,0.6c0.4,2.9,1.2,5.7,2.5,8.4c0.1,0.3,0.2,0.8,0.5,0.8c0.4,0,0.5-0.5,0.6-0.8c1.2-2.6,2.1-5.4,2.4-8.3
		c0.1-0.8,0.1-0.8,0.9-0.7c1.5,0.2,2.9,0.6,4.3,1.1c0.6,0.2,0.6,0.2,0.5,0.9c-0.3,2.3-0.9,4.5-1.7,6.7c-0.1,0.2-0.4,0.5-0.1,0.8
		c0.2,0.2,0.5-0.1,0.7-0.1c2.3-0.9,4.3-2.3,6.1-4c0.1-0.1,0.2-0.2,0.2-0.2c0.6-0.6,0.6-0.6,1.4,0c1.1,0.9,2.1,1.8,3,2.9
		c0.5,0.5,0.4,0.5,0,1c-3.4,3.6-7.6,5.9-12.4,7.1c-0.2,0.1-0.4,0.1-0.7,0.2c-0.5,0.2-0.6,0.3-0.2,0.7c1.3,1.3,2.8,2.5,4.3,3.5
		c0.5,0.3,0.5,0.3,1.1-0.2c2.4-2.2,5.1-4,8.1-5.4c0.9-0.4,1.8-0.7,2.7-1.1c0.6-0.2,0.7-0.2,1,0.4c0.6,1.4,1.1,2.7,1.4,4.2
		c0.1,0.6,0.1,0.7-0.5,0.9c-1.5,0.5-2.9,1.1-4.2,1.9c-0.9,0.5-1.7,1-2.5,1.6c-0.2,0.2-0.6,0.3-0.5,0.6c0,0.4,0.5,0.4,0.8,0.4
		c2,0.6,4.1,1,6.3,1.2c1.6,0.1,1.3,0.1,1.2,1.4c-0.1,1.3-0.4,2.5-0.7,3.7C73.1,31,73.1,31,72.4,31c-2.3-0.2-4.6-0.6-6.9-1.2
		c-5.7-1.7-10.6-4.6-14.8-8.8c-0.8-0.8-0.7-0.9-1.6,0c-4.5,4.5-9.7,7.5-15.9,9.1c-1.8,0.5-3.7,0.8-5.6,0.9c-0.9,0.1-0.9,0-1.1-0.8
		c-0.4-1.3-0.6-2.6-0.7-4c-0.1-0.9-0.1-0.9,0.9-1c2.1-0.1,4.1-0.5,6.1-1.1c0.4-0.1,0.7-0.2,1.1-0.3c0.3-0.1,0.3-0.3,0.1-0.5
		c-0.3-0.3-0.7-0.5-1-0.8c-1.9-1.3-3.9-2.3-6.1-3.1c-0.8-0.3-0.8-0.3-0.6-1c0.3-1.4,0.7-2.7,1.3-4c0.3-0.7,0.3-0.7,1.1-0.5
		c2.5,0.8,4.8,2,6.9,3.4c1.4,0.9,2.7,1.9,3.9,3c0.5,0.5,0.5,0.5,1.1,0.1c1.4-0.9,2.7-2,3.9-3.2c0.1-0.1,0.3-0.3,0.4-0.4
		c0.2-0.2,0.1-0.4-0.2-0.5c-0.2-0.1-0.3-0.1-0.5-0.1c-4.9-1.1-9.1-3.5-12.6-7.1C31.7,9,31.6,9,31.5,8.9c-0.2-0.2-0.3-0.4,0-0.7
		c1.1-1.2,2.3-2.4,3.6-3.4c0.3-0.2,0.5-0.1,0.7,0.1c0.7,0.7,1.4,1.4,2.1,2c1.4,1.1,3,2,4.7,2.7C42.8,9.6,42.9,9.7,43.2,9.6z
		 M49.9,47.8c-0.7,0-1.4,0-2.1,0c-0.6,0-0.7-0.2-0.7-0.8c0-2.1,0-4.3,0-6.4c0-0.7-0.2-1.2-0.6-1.8c-2.4-3-4.7-6-7-9.1
		c-0.6-0.8-0.6-0.8,0.3-1.2c1.2-0.6,2.3-1.2,3.4-1.9c0.8-0.5,0.8-0.5,1.4,0.2c1.6,2,3.1,4.1,4.7,6.1c0.6,0.8,0.6,0.8,1.3,0
		c1.6-2.1,3.2-4.2,4.8-6.3c0.5-0.6,0.5-0.6,1.2-0.2c1.3,0.8,2.6,1.5,3.9,2.1c0.6,0.3,0.6,0.4,0.2,0.9c-2.4,3.1-4.8,6.3-7.3,9.4
		c-0.4,0.5-0.5,1-0.5,1.5c0,2.1,0,4.3,0,6.4c0,0.8,0,0.8-0.8,0.9C51.4,47.9,50.6,47.8,49.9,47.8L49.9,47.8z"/>
</g>
</svg>
