<svg width="200" height="36" viewBox="0 0 200 36" fill="none" xmlns="http://www.w3.org/2000/svg">
<g clip-path="url(#clip0_481_13492)">
<path d="M18.5596 7.7995H32.5552L32.9175 12.5014H32.0888C31.7786 10.5398 31.7265 10.1755 30.9999 9.40083C30.2753 8.62418 28.8762 8.72827 27.7352 8.72827H24.1582C23.898 8.72827 23.6918 8.77831 23.4857 8.98648C23.3295 9.19466 23.2255 9.45087 23.2775 9.70909V15.7021H24.8328C25.6094 15.7021 26.3861 15.3918 26.8525 14.8233C27.423 14.0487 27.7332 13.0679 27.6832 12.033H28.5119V20.452H27.6832C27.6311 19.0589 27.3729 18.0761 26.8525 17.4575C26.282 16.833 25.5054 16.5268 24.6767 16.5268H23.2255V23.2904C23.2255 23.4986 23.3295 23.7528 23.4857 23.9129C23.7439 24.0671 24.0562 24.1711 24.3664 24.1211H27.2168C30.2733 24.1211 32.0368 23.1403 32.5552 19.213H33.436L33.1257 25.0499H18.5616V24.1211H19.3402C19.7025 24.1691 20.0668 24.0691 20.3771 23.8609C20.5853 23.6527 20.6873 23.3985 20.6873 23.1403V9.65704C20.6873 9.39883 20.6353 9.13861 20.4291 8.93644C20.221 8.78031 19.9107 8.67823 19.5984 8.67823H18.5616L18.5596 7.7995Z" fill="white"/>
<path d="M32.2949 13.5323H38.6182V14.359C38.1518 14.3089 37.6334 14.407 37.167 14.5671C36.9588 14.6692 36.8547 14.8754 36.8547 15.0836C36.8547 15.2397 36.9068 15.4479 36.9588 15.604L40.0174 22.4197L42.8677 15.8082C42.9198 15.7061 42.9198 15.602 42.9198 15.4459C42.9198 14.8233 42.3493 14.4671 41.1583 14.3109V13.4802H45.9783V14.3069C45.562 14.3069 45.1476 14.463 44.8374 14.7213C44.5271 14.9254 44.3189 15.2377 44.1628 15.598L39.9133 25.4082H39.2387L34.6789 15.3358C34.5748 15.0295 34.3686 14.7713 34.0564 14.5611C33.4859 14.405 32.9154 14.3029 32.347 14.353L32.2949 13.5323Z" fill="white"/>
<path d="M50.4361 13.168C51.9374 13.1199 53.3366 13.7364 54.3754 14.8754C55.4623 16.0644 56.0348 17.6677 55.9828 19.3171C56.0348 20.452 55.7746 21.5369 55.2582 22.5698C54.7938 23.4485 54.1192 24.1731 53.2365 24.6916C52.3577 25.208 51.3709 25.4662 50.3861 25.4662C48.9349 25.4662 47.5357 24.8457 46.5509 23.7588C44.4772 21.1766 44.4772 17.5096 46.5509 14.9254C47.5337 13.7905 48.9329 13.168 50.4361 13.168ZM50.4361 14.0487C49.5034 14.0487 48.6727 14.5111 48.1542 15.2877C47.5838 16.1144 47.2735 17.4575 47.2735 19.211C47.2735 21.0165 47.5838 22.3616 48.1542 23.2404C48.6206 24.015 49.5014 24.5354 50.4361 24.5354C51.3709 24.5354 52.2497 24.0711 52.7701 23.2424C53.3926 22.4177 53.6488 21.0245 53.6488 19.1129C53.6488 17.3054 53.3406 16.0664 52.7701 15.2397C52.2517 14.5131 51.3689 14.0487 50.4361 14.0487Z" fill="white"/>
<path d="M59.7639 7.59332V23.3965C59.7639 23.6027 59.816 23.7568 59.9721 23.9129C60.1803 24.067 60.4365 24.1711 60.7508 24.1711H61.4774V25.0999H55.8787V24.1711H56.5513C56.8635 24.1711 57.1738 24.1231 57.382 23.9129C57.5901 23.7047 57.6922 23.4505 57.6402 23.1383V9.9673C57.6922 9.65904 57.5381 9.29674 57.3299 9.09057C57.0177 8.83236 56.6073 8.68023 56.193 8.68023H55.1521V7.74545L59.7639 7.59332Z" fill="white"/>
<path d="M65.6769 13.3241V20.9685C65.6229 21.7431 65.8851 22.5138 66.3995 23.1383C66.8639 23.6547 67.5405 23.9129 68.215 23.9129C69.1478 23.9129 69.9765 23.4986 70.547 22.778C71.2195 22.0013 71.5318 21.0225 71.5318 19.9877V15.65C71.5318 15.2877 71.3756 14.9254 71.1174 14.7213C70.597 14.463 70.0305 14.3069 69.4561 14.357V13.4802L73.5515 13.2741V22.776C73.5515 23.1403 73.6555 23.4966 73.9158 23.8088C74.226 24.0691 74.5883 24.1731 74.9506 24.1731H75.6772V24.9958L71.792 25.0999L71.5338 22.826C70.9633 23.5486 70.2387 24.1711 69.4581 24.6876C68.8355 25.0999 68.0609 25.3121 67.3323 25.3121C66.3495 25.3601 65.4147 24.9478 64.6921 24.2752C63.9655 23.6027 63.6012 22.4157 63.6012 20.7623V15.7521C63.6532 15.3378 63.449 14.9234 63.0847 14.7193C62.6164 14.5111 62.0999 14.407 61.5835 14.461V13.5823L65.6769 13.3241Z" fill="white"/>
<path d="M78.0111 8.83035H78.8398V13.5323H85.8877V14.6652H78.8398V22.0514C78.7898 22.5678 78.9459 23.0842 79.3062 23.5486C79.6164 23.9129 80.0308 24.0671 80.4451 24.0671C81.0156 24.0671 81.532 23.7568 81.8963 23.2904C82.3607 22.5138 82.623 21.639 82.5689 20.7103H83.3976C83.3476 22.2555 82.9833 23.3965 82.3607 24.1191C81.7402 24.8397 80.8074 25.25 79.8206 25.25C78.9899 25.3041 78.2113 24.9918 77.5948 24.4754C77.0243 23.9109 76.7641 23.1863 76.7641 22.4137V14.6652H74.7444V13.7905C75.5731 13.6864 76.2977 13.2741 76.8161 12.6535C77.6468 11.5186 78.0611 10.1735 78.0111 8.83035Z" fill="white"/>
<path d="M83.3995 13.5323L88.0134 13.3781V23.2944C88.0134 23.5026 88.0654 23.7088 88.2215 23.8629C88.4297 24.015 88.6859 24.1231 88.9441 24.1231H89.7728V25.0519H84.1241V24.1211H84.8507C85.161 24.1691 85.4212 24.0691 85.6294 23.8609C85.8375 23.6527 85.8876 23.3985 85.8876 23.0822V16.0624C85.9376 15.7021 85.7815 15.2877 85.4732 15.0295C85.161 14.7713 84.6946 14.6632 84.2802 14.6632H83.3455V13.5323H83.3995ZM86.6142 8.05571C86.9765 8.05571 87.3368 8.20984 87.597 8.47005C87.8572 8.72827 88.0134 9.09057 88.0134 9.45087C88.0134 9.81117 87.8572 10.1715 87.597 10.4317C87.0285 10.9481 86.1998 10.9481 85.6294 10.4317C85.1089 9.86321 85.1089 9.03653 85.6294 8.47005C85.9396 8.20984 86.2499 8.05571 86.6142 8.05571Z" fill="white"/>
<path d="M95.5817 13.168C97.0829 13.1199 98.4841 13.7364 99.521 14.8754C100.608 16.0644 101.178 17.6677 101.128 19.3171C101.176 20.452 100.92 21.5369 100.402 22.5698C99.9353 23.4485 99.2627 24.1731 98.38 24.6916C97.5013 25.208 96.5144 25.4662 95.5296 25.4662C94.0784 25.4662 92.6772 24.8457 91.6944 23.7588C89.6227 21.1766 89.6227 17.5096 91.6944 14.9254C92.6752 13.7905 94.1285 13.168 95.5817 13.168ZM95.5817 14.0487C94.6449 14.0487 93.8182 14.5111 93.2998 15.2877C92.7253 16.1144 92.419 17.4575 92.419 19.211C92.419 21.0165 92.7293 22.3616 93.2998 23.2404C93.7662 24.015 94.6449 24.5354 95.5817 24.5354C96.5144 24.5354 97.3932 24.0711 97.9136 23.2424C98.5361 22.4177 98.7923 21.0245 98.7923 19.1129C98.7923 17.3054 98.4841 16.0664 97.9136 15.2397C97.4452 14.5131 96.5124 14.0487 95.5817 14.0487Z" fill="white"/>
<path d="M100.866 13.5323L104.705 13.2761C104.856 14.1007 105.012 14.9795 105.07 15.8062C105.528 15.0315 106.157 14.411 106.883 13.9466C107.604 13.5323 108.433 13.3241 109.265 13.3241C109.938 13.3241 110.614 13.4782 111.181 13.7885C111.751 14.1508 112.166 14.6132 112.428 15.2357C112.734 15.9062 112.886 16.6849 112.886 17.4035V23.0342C112.838 23.3424 112.94 23.7068 113.149 23.9109C113.407 24.1191 113.773 24.2192 114.081 24.1691H114.392V25.0979H109.359V24.1711H109.465C109.88 24.2212 110.246 24.1231 110.61 23.9129C110.819 23.7048 110.967 23.4505 110.915 23.1383V18.1801C110.965 17.3535 110.763 16.5288 110.398 15.8022C109.934 15.0796 109.155 14.6652 108.272 14.7193C107.338 14.7193 106.509 15.1296 105.938 15.8522C105.266 16.6789 104.956 17.7138 105.004 18.7967V23.0822C104.956 23.3945 105.056 23.7548 105.314 23.961C105.574 24.1671 105.938 24.2672 106.299 24.2192H106.611V25.15H101.427V24.2212H101.735C102.047 24.2212 102.412 24.1711 102.67 23.963C102.878 23.8068 102.978 23.5987 102.978 23.3404V15.8042C103.032 15.3918 102.876 14.9775 102.564 14.6672C102.255 14.409 101.841 14.2569 101.427 14.3069H100.854V13.5323H100.866Z" fill="white"/>
<path d="M129.48 9.2427L130.517 7.43719H131.345L131.81 14.7233H131.033C130.407 12.6555 129.68 11.1063 128.855 10.1775C127.979 9.09257 126.628 8.42001 125.176 8.37197C124.137 8.37197 123.105 8.68223 122.272 9.30275C121.395 9.97331 120.719 10.9041 120.352 11.989C119.836 13.4362 119.632 15.0355 119.68 16.5848C119.632 18.0841 119.836 19.6314 120.352 21.0786C120.719 22.1134 121.341 23.0402 122.224 23.7128C123.057 24.2792 123.987 24.5895 125.02 24.5394C126.263 24.6435 127.456 24.1751 128.389 23.3485C129.168 22.5218 129.63 21.3868 129.586 20.2499V18.5424C129.586 18.2842 129.48 18.0801 129.274 17.9219C128.961 17.7658 128.597 17.6637 128.233 17.7138H126.682V16.835H133.729V17.7138H133.211C132.841 17.6637 132.538 17.7618 132.228 17.972C132.02 18.1261 131.916 18.3863 131.916 18.6946V25.6163H131.083C130.775 24.5314 130.463 23.4946 130.152 22.5138C129.63 23.4465 128.859 24.2212 127.925 24.7897C127.042 25.3081 126.059 25.5643 125.024 25.5643C123.519 25.5643 122.018 25.152 120.721 24.3773C116.627 21.7932 115.278 16.4747 117.608 12.2392C118.335 10.848 119.426 9.65704 120.771 8.83035C121.964 8.00367 123.363 7.59332 124.814 7.53728C125.599 7.53728 126.319 7.64136 127.042 7.95162C127.919 8.15779 128.747 8.62418 129.48 9.2427Z" fill="white"/>
<path d="M146.062 24.1711L146.27 24.5354C146.27 25.206 145.495 25.0999 144.765 25.0999C144.198 25.0999 143.057 25.0519 142.697 24.7937C142.333 24.5354 142.176 24.1711 141.868 23.4005C141.298 24.0711 140.567 24.6395 139.792 25.0519C139.116 25.3601 138.393 25.4642 137.665 25.4642C136.68 25.5143 135.749 25.256 134.974 24.6876C134.346 24.2252 134.034 23.4986 134.034 22.7279C134.034 21.5389 134.758 20.5081 136.161 19.7314C137.921 18.8567 139.841 18.2862 141.814 18.1321V16.3746C141.814 15.7521 141.55 15.1857 141.03 14.7733C140.507 14.3089 139.835 14.1007 139.11 14.1007C138.489 14.1007 137.817 14.2549 137.242 14.5631C136.878 14.7713 136.672 15.0275 136.672 15.2357C136.722 15.4439 136.828 15.648 136.984 15.8022C137.192 16.0604 137.296 16.3706 137.35 16.6789C137.35 17.0412 137.242 17.3495 136.984 17.6097C136.722 17.8699 136.414 17.972 136.053 17.972C135.635 17.972 135.271 17.8178 135.017 17.5576C134.754 17.2494 134.598 16.8871 134.598 16.4747C134.598 15.648 135.067 14.9234 136.001 14.2549C137.088 13.5323 138.331 13.168 139.626 13.22C140.767 13.168 141.858 13.4782 142.789 14.0967C143.466 14.6132 143.876 15.4399 143.876 16.2666V22.5138C143.876 22.8781 143.93 23.2904 144.138 23.5987C144.294 23.8068 144.502 24.011 144.811 24.063C145.179 24.1211 145.653 24.1711 146.062 24.1711ZM141.758 18.9568C139.682 19.265 138.181 19.7294 137.3 20.348C136.624 20.8664 136.264 21.641 136.316 22.4697C136.268 23.0362 136.468 23.5526 136.832 23.967C137.198 24.3293 137.661 24.4834 138.129 24.4834C139.11 24.4834 139.995 24.0711 140.667 23.4005C141.394 22.6759 141.758 21.643 141.758 20.6082V18.9568Z" fill="white"/>
<path d="M145.654 13.5323L148.966 13.3241C149.118 14.1508 149.273 14.9755 149.329 15.8022C149.791 15.0275 150.468 14.407 151.198 13.8926C151.821 13.5283 152.547 13.3241 153.27 13.3241C153.996 13.2761 154.669 13.5323 155.238 13.9466C155.862 14.5131 156.276 15.1857 156.433 16.0103C156.895 15.2357 157.519 14.5131 158.24 13.9967C158.919 13.5823 159.697 13.3241 160.472 13.3241C161.349 13.2761 162.231 13.5823 162.854 14.2549C163.58 15.1857 163.941 16.2706 163.893 17.4595V23.1923C163.841 23.4505 163.941 23.7088 164.151 23.9129C164.463 24.1211 164.828 24.2212 165.19 24.1711H165.71V25.0999H159.905V24.1711H160.476C160.836 24.2212 161.199 24.1231 161.513 23.9129C161.721 23.7048 161.825 23.4505 161.825 23.1923V17.4055C161.875 16.6869 161.669 15.9603 161.198 15.3918C160.784 14.9254 160.16 14.6672 159.541 14.6672C159.025 14.6672 158.556 14.8233 158.142 15.0816C157.728 15.3918 157.363 15.8042 157.157 16.2726C156.845 16.837 156.689 17.4615 156.637 18.1321V23.0882C156.637 23.3485 156.687 23.6587 156.899 23.8669C157.157 24.019 157.419 24.1271 157.728 24.1271H158.506V25.0559H152.599V24.1231H153.272C153.584 24.1231 153.948 24.0711 154.209 23.8629C154.417 23.7088 154.515 23.4986 154.515 23.2404V17.974C154.565 17.0972 154.359 16.2686 153.896 15.4959C153.528 14.9775 152.908 14.7213 152.285 14.7213C151.506 14.6672 150.784 15.0295 150.263 15.598C149.591 16.4247 149.225 17.4595 149.279 18.5424V23.1403C149.229 23.3985 149.329 23.6567 149.541 23.8609C149.845 24.0691 150.209 24.1691 150.578 24.1211H151.202V25.0979H145.343V24.1691H146.222C146.48 24.1691 146.792 24.1211 147.001 23.9109C147.153 23.7548 147.259 23.4966 147.259 23.2884V15.7021C147.309 15.3358 147.153 15.0295 146.953 14.7713C146.586 14.5111 146.12 14.357 145.66 14.357V13.5323H145.654Z" fill="white"/>
<path d="M166.02 13.5323L170.158 13.3781V23.2944C170.158 23.5026 170.212 23.7088 170.366 23.8629C170.574 24.015 170.83 24.1231 171.093 24.1231H172.386V25.0999H165.34V24.1711H167.049C167.356 24.2212 167.614 24.1231 167.824 23.9129C168.032 23.7047 168.088 23.4505 168.088 23.1383V15.8542C168.136 15.4919 167.98 15.0776 167.67 14.8193C167.362 14.5611 166.893 14.459 166.475 14.459H166.016V13.5323H166.02ZM168.763 8.05571C169.127 8.05571 169.491 8.20984 169.75 8.47005C170.01 8.72827 170.16 9.09057 170.16 9.45087C170.16 9.81117 170.01 10.1715 169.75 10.4317C169.181 10.9481 168.352 10.9481 167.782 10.4317C167.265 9.86321 167.265 9.03653 167.782 8.47005C168.094 8.20984 168.404 8.05571 168.763 8.05571Z" fill="white"/>
<path d="M172.08 13.5323L175.915 13.2761C176.071 14.1007 176.227 14.9795 176.281 15.8062C176.747 15.0315 177.372 14.411 178.095 13.9466C178.819 13.5323 179.648 13.3241 180.477 13.3241C181.149 13.3241 181.826 13.4782 182.392 13.7885C182.965 14.1508 183.379 14.6132 183.639 15.2357C183.945 15.9062 184.102 16.6849 184.102 17.4035V23.0342C184.052 23.3444 184.154 23.7068 184.364 23.9129C184.622 24.1211 184.988 24.2212 185.295 24.1711H185.661V25.0999H180.531V24.1711H180.633C181.047 24.2212 181.413 24.1231 181.774 23.9129C181.982 23.7048 182.138 23.4505 182.086 23.1383V18.1801C182.136 17.3535 181.93 16.5288 181.565 15.8022C181.097 15.0796 180.322 14.6652 179.436 14.7193C178.505 14.7193 177.68 15.1296 177.106 15.8522C176.433 16.6789 176.125 17.7138 176.175 18.7967V23.0822C176.125 23.3945 176.225 23.7548 176.487 23.961C176.745 24.1691 177.106 24.2672 177.418 24.2192H177.73V25.15H172.078V24.2212H172.86C173.168 24.2212 173.533 24.1711 173.791 23.963C173.999 23.8068 174.103 23.5987 174.103 23.3404V15.8042C174.153 15.3918 173.997 14.9775 173.689 14.6672C173.377 14.409 172.958 14.2569 172.548 14.3069H171.921L172.08 13.5323Z" fill="white"/>
<path d="M194.47 14.1528C195.299 13.3261 197.581 12.0871 198.351 12.0871C198.77 12.037 199.184 12.1371 199.544 12.3953C199.807 12.6535 199.34 13.2741 199.34 13.6344C199.34 13.8946 199.238 14.2028 199.082 14.409C198.926 14.6172 198.664 14.7213 198.406 14.7213C197.941 14.7213 197.627 14.409 197.471 13.8425C197.421 13.5843 197.319 13.4802 197.162 13.4802C196.44 13.7384 195.711 14.1528 195.141 14.6672C195.453 15.0335 195.711 15.4959 195.863 15.9603C196.018 16.3206 196.072 16.7349 196.072 17.0932C196.072 17.7638 195.919 18.4384 195.555 19.0048C195.141 19.6254 194.516 20.1398 193.846 20.452C193.125 20.8644 192.34 21.0726 191.512 21.0726H190.167C189.49 21.0245 188.868 21.1226 188.247 21.3808C187.937 21.589 187.781 21.9012 187.781 22.2575C187.781 22.5658 187.937 22.824 188.145 22.9801C188.613 23.1883 189.076 23.2884 189.596 23.2384L192.657 23.1903C194.212 23.1903 195.299 23.4485 195.971 23.965C196.648 24.4274 197.058 25.256 197.008 26.0847C197.008 27.0635 196.594 27.9463 195.867 28.5628C194.78 29.4936 193.177 30.01 191.051 30.01C189.288 30.01 187.939 29.7017 187.11 29.0272C186.488 28.6649 186.129 27.9963 186.073 27.3218C186.073 26.8073 186.331 26.3429 186.746 25.9786C187.372 25.5163 188.145 25.204 188.924 25.1019C188.251 24.9498 187.627 24.6896 187.058 24.2252C186.644 23.8629 186.432 23.3485 186.432 22.778C186.432 22.2595 186.642 21.7972 186.954 21.3828C187.42 20.9224 188.041 20.5581 188.663 20.348C188.037 20.0417 187.468 19.5253 187.11 18.9568C186.744 18.3903 186.588 17.7178 186.588 17.0952C186.588 16.0103 187.054 14.9755 187.883 14.3049C188.864 13.5283 190.063 13.1159 191.304 13.168C191.87 13.168 192.445 13.2761 192.965 13.4262C193.487 13.5823 194.008 13.8405 194.47 14.1528ZM191.932 25.0999C190.427 25.0999 189.34 25.3081 188.667 25.7224C188.097 26.0327 187.733 26.5992 187.685 27.2217C187.685 27.7381 187.943 28.2545 188.409 28.5128C189.234 28.9751 190.217 29.2354 191.153 29.1353C192.244 29.1833 193.379 28.9791 194.368 28.4127C195.091 27.9523 195.455 27.4319 195.455 26.8674C195.455 26.5031 195.349 26.1928 195.143 25.9346C194.885 25.6284 194.52 25.3681 194.106 25.262C193.379 25.152 192.659 25.0479 191.932 25.0999ZM191.206 13.9466C190.529 13.9466 189.856 14.2048 189.388 14.7733C188.868 15.3938 188.613 16.2205 188.667 17.0452C188.619 17.9219 188.874 18.7506 189.388 19.4712C190.217 20.452 191.772 20.6062 192.765 19.7294C192.869 19.6253 192.973 19.5753 193.025 19.4712C193.541 18.8007 193.804 17.9239 193.746 17.0952C193.798 16.2706 193.537 15.4439 193.025 14.8213C192.611 14.2549 191.932 13.9466 191.206 13.9466Z" fill="white"/>
<path d="M198.774 12.1892C199.14 12.1892 199.496 12.3433 199.759 12.6035C200.017 12.8617 200.173 13.224 200.173 13.5823C200.173 13.9446 200.017 14.3049 199.759 14.5631C199.188 15.0796 198.355 15.0796 197.791 14.5631C197.269 13.9967 197.269 13.168 197.791 12.6035C198.101 12.3433 198.41 12.1892 198.774 12.1892Z" fill="white"/>
<path d="M13.6354 25.204H13.3772V24.7917H13.4813C13.5854 24.7917 13.6354 24.7917 13.7395 24.7917C13.7915 24.8437 13.8436 24.8957 13.8436 24.9478C13.8956 25.0999 13.7915 25.204 13.6354 25.204ZM14.1038 24.9958C14.1038 24.8937 14.0518 24.7376 13.9477 24.6876C13.8436 24.5835 13.6875 24.5835 13.5333 24.5835H13.117V25.9266H13.3772V25.4102H13.5854L13.8436 25.9266H14.1038L13.7915 25.4102C14.0518 25.3081 14.1558 25.152 14.1038 24.9958ZM13.6354 26.2889C13.0649 26.2889 12.5985 25.8245 12.5985 25.252C12.5985 24.6856 13.0649 24.2192 13.6354 24.2192C14.2059 24.2192 14.6743 24.6816 14.6743 25.252C14.6743 25.8225 14.2059 26.2889 13.6354 26.2889ZM13.6354 23.963C12.9108 23.963 12.3403 24.5314 12.3403 25.254C12.3403 25.9766 12.9108 26.5471 13.6354 26.5471C14.362 26.5471 14.9325 25.9786 14.9325 25.254C14.9325 24.5354 14.31 23.963 13.6354 23.963Z" fill="#A3A3A3"/>
<path d="M0.00610352 7.23107C6.17524 3.92832 14.1559 7.3852 14.7264 15.7542C3.32287 16.6289 1.9237 11.5186 0.00610352 7.23107Z" fill="url(#paint0_linear_481_13492)"/>
<path d="M0.00610352 25.0999C6.17524 28.4047 14.1039 24.8937 14.7264 16.5788C3.32287 15.65 1.9237 20.8123 0.00610352 25.0999Z" fill="url(#paint1_linear_481_13492)"/>
<path d="M12.6006 9.81317C9.64614 5.98999 4.25564 4.85504 0.00610352 7.23102C1.71553 11.0502 3.01061 15.602 11.4596 15.8582C12.4965 14.0487 12.9109 11.9309 12.6006 9.81317ZM2.07783 20.8664C2.33605 20.8664 2.54422 20.9184 2.80243 20.9184C6.1192 20.9184 9.17775 19.265 11.0453 16.5288C5.96507 16.787 3.58108 18.5945 2.07783 20.8664Z" fill="url(#paint2_radial_481_13492)"/>
</g>
<defs>
<linearGradient id="paint0_linear_481_13492" x1="7.26976" y1="12.376" x2="6.04053" y2="23.8609" gradientUnits="userSpaceOnUse">
<stop stop-color="#DADCDF"/>
<stop offset="1" stop-color="#A8A8A8"/>
</linearGradient>
<linearGradient id="paint1_linear_481_13492" x1="8.26479" y1="12.4786" x2="7.03536" y2="23.9682" gradientUnits="userSpaceOnUse">
<stop stop-color="#DADCDF"/>
<stop offset="1" stop-color="#A8A8A8"/>
</linearGradient>
<radialGradient id="paint2_radial_481_13492" cx="0" cy="0" r="1" gradientUnits="userSpaceOnUse" gradientTransform="translate(3.85562 13.802) scale(11.7708 11.7295)">
<stop stop-color="#C2C2C2"/>
<stop offset="0.22" stop-color="#BDBDBD"/>
<stop offset="0.46" stop-color="#B0B0B0"/>
<stop offset="0.72" stop-color="#999999"/>
<stop offset="0.99" stop-color="#7A7A7A"/>
<stop offset="1" stop-color="#787878"/>
</radialGradient>
<clipPath id="clip0_481_13492">
<rect width="200" height="36" fill="white"/>
</clipPath>
</defs>
</svg>
