<svg width="45" height="36" viewBox="0 0 45 36" fill="none" xmlns="http://www.w3.org/2000/svg">
<path d="M1.85185 25.5185C1.92593 25.5185 2 25.4444 1.92593 25.3704C1.92593 25.2963 1.92593 25.2222 1.92593 25.2222C1.92593 25.1481 1.92593 25.0741 1.92593 25C1.92593 24.9259 1.92593 24.8519 1.85185 24.8519C1.11111 24.4815 0.666667 23.8148 0.666667 23.0741C0.666667 22.5556 0.888889 22.037 1.33333 21.5926C1.77778 21.1481 2.37037 21 3.03704 21C3.55556 21 4 21.1481 4.37037 21.2963H4.44444L5.92593 21C6 21 6.07407 21.0741 6.07407 21.1481L6.14815 22.3333C6.14815 22.4074 6.07407 22.4815 6 22.4815L5.48148 22.6296C5.40741 22.6296 5.33333 22.7037 5.33333 22.7778C5.33333 22.9259 5.33333 23 5.33333 23.0741C5.33333 23.5926 5.11111 24.037 4.74074 24.4815C4.37037 24.8519 3.92593 25.0741 3.25926 25.0741C3.18519 25.0741 3.11111 25.1481 3.11111 25.2222V25.2963C3.11111 25.3704 3.18519 25.4444 3.25926 25.4444C4 25.5185 4.59259 25.6667 5.03704 25.963C5.55556 26.2593 5.77778 26.7037 5.77778 27.2222C5.77778 27.8148 5.55556 28.2593 4.96296 28.5556C4.44444 28.8519 3.77778 29 2.88889 29C2.07407 29 1.40741 28.8519 0.814815 28.5556C0.296296 28.2593 0 27.8148 0 27.2222C0.222222 26.3333 0.814815 25.7407 1.85185 25.5185ZM3.03704 27.5185C3.85185 27.5185 4.22222 27.3704 4.22222 27.1481C4.22222 26.9259 3.85185 26.7778 3.03704 26.7778C2.22222 26.7778 1.85185 26.9259 1.85185 27.1481C1.85185 27.3704 2.2963 27.5185 3.03704 27.5185ZM3.77778 23.0741C3.77778 22.7037 3.55556 22.4815 3.03704 22.4815C2.14815 22.4074 2.07407 23.7407 3.03704 23.6667C3.48148 23.6667 3.77778 23.4444 3.77778 23.0741Z" fill="white"/>
<path d="M7.03707 21.6667C7.03707 21.5926 7.03707 21.5185 7.11115 21.5185C7.62967 21.2963 8.29633 21.0741 8.963 21.0741C10.5186 21.0741 11.1852 21.8148 11.1852 23.3704V26.4074C11.1852 26.4815 11.1111 26.5556 11.0371 26.5556H9.77781C9.70374 26.5556 9.62967 26.4815 9.62967 26.4074C9.62967 26.2593 9.48152 26.2593 9.40744 26.2593C9.11115 26.4815 8.74078 26.5556 8.22226 26.5556C7.2593 26.5556 6.51855 25.963 6.51855 24.8519C6.51855 23.6667 7.33337 23.0741 8.44448 23.0741C8.74078 23.0741 9.03707 23.1482 9.2593 23.2222C9.33337 23.2963 9.48152 23.2222 9.48152 23.0741C9.40744 22.6297 9.18522 22.4074 8.74078 22.4074C8.44448 22.4074 8.00004 22.4815 7.48152 22.7037C7.40744 22.7037 7.33337 22.7037 7.33337 22.6297L7.03707 21.6667ZM9.55559 24.7778V24.5556C9.55559 24.4815 9.55559 24.4815 9.48152 24.4074C9.33337 24.3334 9.11115 24.2593 8.88892 24.2593C8.59263 24.2593 8.37041 24.4074 8.37041 24.7037C8.37041 24.9259 8.59263 25.0741 8.88892 25.0741C9.18522 25.0741 9.40744 25 9.55559 24.7778Z" fill="white"/>
<path d="M20.5184 26.4815H19.0369C18.9629 26.4815 18.8888 26.4074 18.8888 26.3333V23.4445C18.8888 22.9259 18.6666 22.7037 18.2221 22.7037C17.8517 22.7037 17.5554 22.8519 17.4073 23.1482V23.2222V26.3333C17.4073 26.4074 17.3332 26.4815 17.2592 26.4815H15.7777C15.7036 26.4815 15.6295 26.4074 15.6295 26.3333V23.4445C15.6295 22.9259 15.4073 22.7037 15.0369 22.7037C14.6666 22.7037 14.4443 22.8519 14.2221 23.0741V23.1482V26.3333C14.2221 26.4074 14.148 26.4815 14.074 26.4815H12.5925C12.5184 26.4815 12.4443 26.4074 12.4443 26.3333V21.2222C12.4443 21.1482 12.5184 21.0741 12.5925 21.0741H14.074C14.148 21.0741 14.2221 21.1482 14.2221 21.2222V21.2963C14.2221 21.4445 14.3703 21.4445 14.4443 21.4445C14.8147 21.1482 15.2592 21 15.7777 21C16.4443 21 16.9629 21.2222 17.1851 21.5926C17.2592 21.6667 17.3332 21.6667 17.4073 21.5926C17.8517 21.1482 18.3703 20.9259 18.9629 20.9259C20.074 20.9259 20.6666 21.5926 20.6666 22.8519V26.1852C20.6666 26.4074 20.5925 26.4815 20.5184 26.4815Z" fill="white"/>
<path d="M26.5185 25.963C26.5185 26.037 26.5185 26.1111 26.4444 26.1111C25.9259 26.4815 25.2592 26.6296 24.4444 26.6296C23.5555 26.6296 22.8889 26.4074 22.2963 25.8148C21.7777 25.2963 21.4814 24.6296 21.4814 23.7407C21.4814 22.9259 21.7037 22.2593 22.2963 21.7407C22.8148 21.2222 23.5555 20.9259 24.4444 20.9259C25.1851 20.9259 25.7777 21.1482 26.2963 21.6667C26.8148 22.1111 27.037 22.7778 27.037 23.4445C27.037 23.7407 27.037 24.037 26.9629 24.2593C26.9629 24.3333 26.8889 24.4074 26.8148 24.4074H23.6296C23.4814 24.4074 23.4814 24.5556 23.4814 24.6296C23.7037 25 24.074 25.1482 24.6666 25.1482C25.1851 25.1482 25.5555 25 25.9259 24.8519C26 24.7778 26.074 24.8519 26.074 24.9259L26.5185 25.963ZM23.5555 23.2222H25.1111C25.1851 23.2222 25.2592 23.1482 25.2592 23.0741C25.1851 22.7778 24.8889 22.4815 24.4444 22.4815C24 22.4815 23.6296 22.6296 23.4814 23C23.4074 23.0741 23.4814 23.2222 23.5555 23.2222Z" fill="white"/>
<path d="M29.6296 24.4815C28.8148 24.3333 27.7777 23.963 27.7777 22.7778C27.7777 21.6667 28.6666 21 29.8518 21C30.7407 21 31.4814 21.2222 31.9999 21.6667C32.074 21.7407 32.074 21.8148 32.074 21.8148L31.5555 22.8519C31.4814 22.9259 31.4074 23 31.3333 22.9259C30.8888 22.6296 30.4444 22.4815 29.9999 22.4815C29.7777 22.4815 29.5555 22.6296 29.5555 22.7037C29.5555 23.2222 32.3703 22.9259 32.3703 24.8519C32.3703 25.963 31.4814 26.6296 30.074 26.6296C29.5555 26.6296 29.037 26.4815 28.5925 26.3333C28.1481 26.1111 27.9259 25.963 27.7777 25.7407C27.7036 25.6667 27.7036 25.5926 27.7777 25.5926L28.4444 24.6296C28.5185 24.5556 28.5925 24.5556 28.6666 24.6296C28.8148 24.7778 29.037 24.8519 29.3333 25C29.7036 25.1481 29.9999 25.2222 30.2222 25.2222C30.5185 25.2222 30.6666 25.1481 30.6666 25C30.5925 24.7037 30.1481 24.5556 29.6296 24.4815Z" fill="white"/>
<path d="M1.48149 9.66667L1.40742 10.1111C1.33334 10.7037 1.77779 11.2222 2.37038 11.2222H8.22223L1.48149 13.4444C1.11112 13.5926 0.8889 13.8889 0.814826 14.2593L0.51853 16.037L0.370382 16.7778C0.296308 17.3704 0.740752 17.8889 1.33334 17.8889H7.77779C8.29631 17.8889 8.66668 17.5185 8.74075 17.0741L8.81483 16.6296C8.8889 16.037 8.44446 15.5185 7.85186 15.5185H2.44446L8.81483 13.4444C9.1852 13.2963 9.40742 13 9.48149 12.6296L9.77779 10.8519L9.92594 10.037C9.92594 9.37037 9.40742 8.85185 8.81483 8.85185H2.37038C1.92594 8.85185 1.48149 9.22222 1.48149 9.66667ZM10.963 9.66667L9.92594 16.7037C9.85186 17.2963 10.2963 17.8148 10.8889 17.8148H11.3333C11.8519 17.8148 12.2222 17.4444 12.2963 17L13.3333 9.96296C13.4074 9.37037 12.963 8.85185 12.3704 8.85185H11.9259C11.4074 8.85185 11.037 9.22222 10.963 9.66667ZM12.7408 5.96296H12.2963C11.7778 5.96296 11.4074 6.33333 11.3333 6.77778C11.2593 7.37037 11.7037 7.88889 12.2963 7.88889H12.7408C13.2593 7.88889 13.6296 7.51852 13.7037 7.07407C13.7778 6.55556 13.3333 5.96296 12.7408 5.96296ZM23.0371 5.96296H22.5926C22.0741 5.96296 21.7037 6.33333 21.6296 6.77778C21.5556 7.37037 22 7.88889 22.5926 7.88889H23.0371C23.5556 7.88889 23.9259 7.51852 24 7.07407C24.1482 6.55556 23.6296 5.96296 23.0371 5.96296ZM21.1111 17.8148H21.5556C22.0741 17.8148 22.4445 17.4444 22.5185 17L23.5556 9.96296C23.7037 9.37037 23.2593 8.85185 22.5926 8.85185H22.1482C21.6296 8.85185 21.2593 9.22222 21.1852 9.66667L20.1482 16.7037C20.0741 17.2963 20.5926 17.8148 21.1111 17.8148ZM25.037 9.66667L24 16.7037C23.9259 17.2963 24.3704 17.8148 24.963 17.8148H32C32.5185 17.8148 32.8889 17.4444 32.963 17L34 9.96296C34.1482 9.37037 33.6296 8.85185 33.037 8.85185H26C25.5556 8.85185 25.1111 9.22222 25.037 9.66667ZM30.6667 15.4444H26.6667C26.5926 15.4444 26.5185 15.3704 26.5185 15.2963L27.1111 11.2963C27.1111 11.2222 27.1852 11.2222 27.2593 11.2222H31.2593C31.3333 11.2222 31.4074 11.2963 31.4074 11.3704L30.8148 15.3704C30.8148 15.4444 30.7408 15.4444 30.6667 15.4444ZM14.963 5.81481L13.3333 16.7037C13.2593 17.2963 13.7037 17.8148 14.2963 17.8148H14.7408C15.2593 17.8148 15.6296 17.4444 15.7037 17L17.3333 6.11111C17.4074 5.51852 16.963 5 16.3704 5H15.9259C15.4815 5 15.0371 5.37037 14.963 5.81481ZM18.3704 5.81481L16.7408 16.7037C16.6667 17.2963 17.1111 17.8148 17.7037 17.8148H18.1482C18.6667 17.8148 19.037 17.4444 19.1111 17L20.7408 6.11111C20.8148 5.51852 20.3704 5 19.7778 5H19.3333C18.8148 5 18.4445 5.37037 18.3704 5.81481ZM42.2963 9.66667L41.2593 16.3333L40 9.59259C39.8519 9.14815 39.4815 8.85185 39.037 8.85185H36.2222C35.7037 8.85185 35.3333 9.22222 35.2593 9.66667L34.2222 16.7778C34.1482 17.3704 34.5926 17.8889 35.1852 17.8889H35.7778C36.2963 17.8889 36.6667 17.5185 36.7408 17.0741L37.7037 10.8519L38.963 17.1481C39.037 17.5926 39.4815 17.963 39.9259 17.963H42.8889C43.4074 17.963 43.7778 17.5926 43.8519 17.1481L44.8148 9.96296C44.963 9.37037 44.4445 8.85185 43.8519 8.85185H43.2593C42.8148 8.85185 42.3704 9.22222 42.2963 9.66667Z" fill="#EF7D0F"/>
</svg>
