<svg width="78" height="36" viewBox="0 0 78 36" fill="none" xmlns="http://www.w3.org/2000/svg">
<path d="M0 18.1955C0.0781759 18.2736 0.156352 18.2736 0.156352 18.2736C0.547231 18.5082 0.938111 18.6645 1.32899 18.899C1.48534 18.9772 1.48534 18.899 1.48534 18.7419C1.48534 17.57 1.56352 16.3192 1.56352 15.1466C1.56352 15.0684 1.56352 14.9902 1.64169 14.9121C2.11153 14.1303 2.5798 13.3485 2.97068 12.5668C3.36156 11.785 3.90879 11.1596 4.5342 10.5342C5.39414 9.67428 6.25407 8.81435 7.11401 7.95441C7.34853 7.87623 7.34853 7.87623 7.42671 8.03259C7.58306 8.57982 7.73863 9.04887 7.89577 9.5961C7.97394 9.83063 7.97394 9.83063 8.20847 9.67428C8.443 9.51793 8.52117 9.36158 8.52117 9.04887C8.75648 8.03259 8.99101 7.09448 9.30293 6.07819C9.38111 5.92184 9.45928 6.00001 9.53746 6.00001C9.85016 6.15636 10.0847 6.39089 10.3974 6.54724C11.2573 7.09448 12.1173 7.56353 13.0554 8.03259C13.6808 8.34529 14.228 8.81435 14.6971 9.36158C15.3225 10.0652 16.0261 10.7687 16.7296 11.4723C16.8086 11.5505 16.886 11.5505 17.0423 11.5505C17.5896 11.316 18.215 11.1596 18.7622 10.9251C18.8404 10.9251 18.9186 11.0033 18.9967 11.0033C19.2313 11.5505 19.4658 12.0977 19.7785 12.645C20.1694 13.5049 20.5603 14.3648 21.0293 15.2248C21.342 15.9284 21.7329 16.6319 22.0464 17.2573C22.0464 17.2573 22.0464 17.3355 22.0464 17.4137C21.9674 17.9609 21.8111 18.5082 21.7329 19.0554C21.5765 19.8371 21.4984 20.6189 21.342 21.4007C21.2638 21.7134 21.2638 21.9479 21.1857 22.2606C21.1857 22.417 21.2638 22.417 21.342 22.417C21.7329 22.338 22.202 22.2598 22.5928 22.1042C22.6718 22.1042 22.6718 22.1042 22.7492 22.0261C22.7492 22.1042 22.671 22.1816 22.671 22.1816C22.3583 22.417 22.2801 22.7289 22.2012 23.0416C21.7321 24.2142 21.2638 25.3869 20.794 26.5595C20.5603 27.1075 20.1694 27.2639 19.7003 27.4984C18.7622 27.8111 17.9023 28.123 16.9642 28.5139C16.0261 28.8266 15.0879 29.2175 14.1491 29.531C13.7582 29.6865 13.4463 29.8437 13.0554 29.9218C12.9764 29.9218 12.899 30 12.8201 29.9218C12.351 29.9218 11.8827 29.8437 11.4129 29.7655C10.553 29.6865 9.77121 29.6865 8.91127 29.6865C8.20847 29.6091 7.50489 29.4528 6.87948 29.1401C6.4886 28.9837 6.09772 28.8274 5.70684 28.7492C5.00326 28.5139 4.2215 28.202 3.51792 27.9674C3.43896 27.9674 3.36156 27.8893 3.36156 27.8111C2.81433 26.873 2.18893 25.9356 1.64169 24.996C1.25081 24.2932 0.938893 23.5114 0.859935 22.6507C0.781759 22.0261 0.625407 21.4007 0.547231 20.7753C0.469055 20.228 0.390879 19.6808 0.234528 19.1328C0.156352 18.8209 0.0781759 18.5863 0 18.2736C0 18.3518 0 18.2736 0 18.1955ZM11.1792 15.3029C9.14658 15.3029 6.95765 15.3029 4.76873 15.3029C4.61238 15.3029 4.5342 15.3811 4.5342 15.5375C4.5342 16.9446 4.61238 18.3518 4.61238 19.6808C4.61238 19.8371 4.69055 19.9145 4.84691 19.9145C6.1759 19.8371 7.58306 19.8371 8.91205 19.759C9.14736 19.759 9.14736 19.759 9.14736 19.9935C9.14736 20.3844 9.14736 20.8542 9.22554 21.2451C9.30371 22.0269 9.38189 22.7297 9.46006 23.5114C9.46006 24.6841 9.46006 25.8567 9.46006 27.0293C9.46006 27.2639 9.46007 27.3412 9.77277 27.3412C10.5545 27.3412 11.2573 27.3412 12.0391 27.3412C12.3518 27.3412 12.6653 27.3412 12.8998 27.4202C13.1343 27.4202 13.2117 27.4202 13.2117 27.1857C13.2899 26.4821 13.4463 25.8567 13.4463 25.1531C13.5244 24.3713 13.5244 23.6678 13.5244 22.886C13.5244 21.9479 13.5244 20.9316 13.5244 19.9935C13.5244 19.9145 13.5244 19.8371 13.6026 19.8371C13.8379 19.759 14.1498 19.6026 14.3844 19.6026C15.4014 19.6026 16.3388 19.6026 17.3558 19.5237C17.5114 19.5237 17.6678 19.5237 17.8249 19.5237C17.982 19.5237 18.0594 19.4455 18.0594 19.2117C18.0594 17.8827 18.1384 16.5538 18.1384 15.3029C18.1384 15.1466 18.0594 15.0684 17.982 15.0684C17.9031 15.0684 17.7475 15.0684 17.6693 15.0684C15.557 15.2248 13.4463 15.2248 11.1792 15.3029Z" fill="white"/>
<path d="M40.5732 22.9642C40.5732 24.2932 40.5732 25.6222 40.5732 26.9512C40.5732 27.1083 40.4951 27.1865 40.3387 27.1865C39.8697 27.1865 39.4006 27.1865 38.9315 27.1865C38.7752 27.1865 38.697 27.1083 38.6188 26.9512C38.4625 26.3257 38.228 25.7003 38.0716 25.0749C37.9934 24.7622 37.9153 24.4495 37.8371 24.1368C37.7589 23.9813 37.6815 23.8241 37.4462 23.8241H37.368C37.0553 23.7459 37.0553 23.7459 37.0553 24.0594C37.1343 24.9968 37.2906 26.0138 37.368 26.9512C37.368 27.1075 37.2898 27.1857 37.2117 27.1075C36.7426 27.1075 36.1954 27.0293 35.7263 27.0293C35.57 27.0293 35.57 26.9504 35.57 26.7948C35.57 26.0912 35.57 25.3869 35.57 24.6051C35.57 24.2142 35.491 23.9023 35.491 23.5114C35.4128 22.5733 35.4128 21.636 35.4128 20.6963C35.4128 20.1499 35.4128 19.5237 35.4128 18.9772C35.4128 18.899 35.4128 18.7419 35.5692 18.7419C35.9601 18.6637 36.4291 18.5863 36.82 18.43C36.9764 18.43 37.2898 18.5863 37.2898 18.7419C37.368 19.1328 37.5244 19.5237 37.6018 19.9145C37.8363 20.6181 37.9926 21.2443 38.2272 21.9479V22.0261C38.3061 22.417 38.4625 22.4951 38.8534 22.3388C38.9315 22.3388 38.9315 22.1824 38.9315 22.1824C38.9315 21.557 38.8534 20.8542 38.7752 20.228C38.7752 19.9935 38.697 19.759 38.697 19.5244C38.697 19.2117 38.6188 18.899 38.6188 18.5863C38.6188 18.43 38.6978 18.3518 38.7752 18.3518C39.245 18.3518 39.7915 18.3518 40.2605 18.43C40.4169 18.5089 40.4951 18.5863 40.4951 18.7419C40.5732 20.3844 40.5732 21.7134 40.5732 22.9642Z" fill="white"/>
<path d="M72.3127 22.886C72.3127 21.557 72.3127 20.228 72.3127 18.8209C72.3127 18.5863 72.3127 18.5863 72.5473 18.5089C73.0945 18.5089 73.5636 18.43 74.1108 18.43C74.2671 18.43 74.3453 18.5089 74.3453 18.5863C74.3453 19.3681 74.3453 20.1498 74.2671 20.9316C74.2671 21.1661 74.1882 21.3225 74.1108 21.557C74.0326 21.7134 74.1108 21.7915 74.2671 21.7915C74.7362 21.7134 75.1271 21.4007 75.2053 20.8542C75.3616 20.1498 75.3616 19.5237 75.3616 18.8209C75.3616 18.5863 75.3616 18.5089 75.6743 18.5089C76.2215 18.5089 76.7688 18.43 77.316 18.43C77.4724 18.43 77.5513 18.5089 77.6287 18.6645C77.7851 20.1498 77.3942 21.557 76.2997 22.6515C76.0652 22.9642 75.9878 22.9642 76.2997 23.1995C76.7696 23.8241 77.2378 24.4503 77.5513 25.2321C77.7069 25.7011 77.8632 26.2483 77.8632 26.7174C77.8632 26.7956 77.7851 26.873 77.7069 26.873C77.316 26.9511 76.847 26.9511 76.4561 26.9511C76.0652 26.9511 75.987 26.873 75.9088 26.5603C75.6743 25.9356 75.3616 25.3095 75.1271 24.6848C74.9707 24.3713 74.7362 24.3713 74.5017 24.3713L74.4235 24.5277C74.4235 24.9968 74.4235 25.3876 74.4235 25.8567C74.4235 26.1686 74.3445 26.4821 74.2671 26.7948C74.2671 26.873 74.1108 26.9504 74.1108 26.9504C73.6417 26.9504 73.1727 27.0293 72.7036 27.0293C72.5473 27.0293 72.4691 26.9504 72.4691 26.7948C72.3909 25.6222 72.3909 24.2932 72.3127 22.886C72.3909 22.886 72.3127 22.886 72.3127 22.886Z" fill="white"/>
<path d="M28.6906 23.1987C28.6906 24.5269 28.6906 25.8559 28.6906 27.1857C28.6906 27.4202 28.6906 27.4202 28.4553 27.4202C27.9862 27.3412 27.518 27.2639 27.0481 27.2639C26.8918 27.2639 26.8136 27.1857 26.8136 26.9511C26.8136 26.2483 26.8136 25.4666 26.7354 24.763C26.7354 24.684 26.6565 24.6059 26.5791 24.5277C26.5001 24.4495 26.3445 24.3721 26.2664 24.215C26.1882 24.1368 26.11 24.1368 26.11 24.294C26.0318 24.4503 25.9544 24.6059 25.8755 24.8412C25.8755 24.9194 25.8755 25.0757 25.8755 25.2321C25.9544 25.9356 26.0318 26.6392 26.11 27.342C26.11 27.4992 26.0318 27.4992 25.9544 27.4992C25.4072 27.4992 24.9374 27.4992 24.3909 27.4992C24.2346 27.4984 24.1564 27.4202 24.1564 27.2639C24.1564 25.8567 24.1564 24.3721 24.1564 22.9642C24.1564 22.0269 24.0008 21.088 23.9219 20.1498C23.9219 19.6808 23.9219 19.2117 23.9219 18.8209C23.9219 18.7419 24.0008 18.6645 24.0782 18.6645C24.6255 18.6645 25.1727 18.6645 25.6417 18.6645C25.7981 18.6645 25.7981 18.7427 25.7981 18.8998C25.7981 19.5244 25.8763 20.0725 25.8763 20.6971C25.8763 21.3233 25.8763 21.9487 25.8763 22.4959C25.8763 22.5741 25.9552 22.6515 26.0326 22.6515C26.189 22.6515 26.4235 22.7304 26.5799 22.7304C26.7362 22.7304 26.8144 22.7304 26.8144 22.4959C26.8144 21.4014 26.8144 20.3062 26.8144 19.2907C26.8144 19.0554 26.8144 19.0554 27.1271 19.0554C27.5961 19.0554 28.0644 19.0554 28.5343 19.0554C28.7688 19.0554 28.7688 19.1336 28.7688 19.2907C28.6906 20.5407 28.6906 21.8689 28.6906 23.1987Z" fill="white"/>
<path d="M59.57 24.4495C59.57 24.7622 59.4911 25.0749 59.4911 25.3869C59.4911 25.8567 59.4911 26.4039 59.4911 26.8722C59.4911 27.0285 59.4129 27.0285 59.3347 27.1075C58.9439 27.1857 58.4748 27.3413 58.0839 27.4194C57.9276 27.4194 57.8494 27.4194 57.8494 27.2631C57.772 26.3257 57.6938 25.4658 57.6157 24.5277C57.5375 22.8078 57.5375 21.1661 57.5375 19.4463C57.5375 19.2907 57.5375 19.2117 57.5375 19.0554C57.5375 18.7427 57.5375 18.7427 57.8502 18.7427C58.3974 18.7427 58.8665 18.7427 59.4137 18.7427C59.5701 18.7427 59.57 18.8216 59.57 18.8998C59.57 19.5244 59.4911 20.1506 59.4911 20.8542C59.4911 21.1661 59.4911 21.4788 59.4129 21.7915C59.4129 21.9479 59.4911 21.9479 59.5693 21.9479C60.0383 21.9479 60.1157 21.8689 60.2721 21.4007C60.5848 20.5407 60.7419 19.759 60.8193 18.8209C60.8193 18.6645 60.8975 18.5863 61.132 18.5863C61.5229 18.5863 61.9919 18.5863 62.3828 18.5863C62.5392 18.5863 62.6173 18.6645 62.6173 18.7419C62.6173 19.2899 62.6173 19.9145 62.5392 20.4626C62.4626 21.0872 62.1499 21.6352 61.8372 22.1824C61.6026 22.4951 61.4463 22.8086 61.2899 23.1205C61.2117 23.2769 61.2117 23.3551 61.3689 23.4325C61.9153 24.0586 62.228 24.7622 62.4626 25.544C62.6189 26.013 62.6979 26.4813 62.8534 26.9504C62.8534 27.0293 62.8534 27.1075 62.7753 27.1075C62.228 27.1075 61.6808 27.1075 61.1336 27.1075C61.0554 27.1075 60.9772 26.9504 60.899 26.873C60.7427 26.1686 60.5082 25.544 60.1955 24.996C60.0391 24.7622 59.8828 24.5277 59.6482 24.3713C59.5701 24.4495 59.57 24.4495 59.57 24.4495Z" fill="white"/>
<path d="M31.5831 21.9479C31.5831 23.1205 31.662 24.2932 31.662 25.5448C31.662 25.6229 31.662 25.7003 31.662 25.7785C31.662 25.8575 31.7402 25.8575 31.8184 25.8575C31.8184 25.8575 31.8184 25.8575 31.8965 25.8575C32.6001 25.7011 32.522 25.7785 32.6001 25.0757C32.6001 23.7467 32.6001 22.4185 32.6783 21.088C32.6783 20.228 32.6783 19.4463 32.6783 18.5871C32.6783 18.3526 32.6783 18.2744 32.991 18.2744C33.3819 18.2744 33.7728 18.1962 34.1636 18.1962C34.3982 18.1962 34.3982 18.1962 34.3982 18.4308C34.3982 19.2125 34.3982 19.9943 34.3982 20.6971C34.3982 21.7915 34.3982 22.8086 34.3982 23.9031C34.3982 24.5285 34.3982 25.1547 34.1636 25.7785C33.8502 26.7948 33.3029 27.1075 32.2085 27.1857C31.5831 27.2639 31.0358 27.1075 30.4886 26.7948C30.0188 26.4821 29.7068 26.013 29.7068 25.4658C29.6287 23.5114 29.6287 21.6352 29.6287 19.6808C29.6287 19.3681 29.6287 19.0546 29.6287 18.6637C29.6287 18.5081 29.7068 18.5081 29.785 18.5081C30.2548 18.5081 30.8013 18.5863 31.2704 18.5863C31.5823 18.5863 31.5823 18.5863 31.5823 18.899C31.6612 19.9145 31.6612 20.9316 31.5831 21.9479C31.6612 21.9479 31.5831 21.9479 31.5831 21.9479Z" fill="white"/>
<path d="M53.6286 25.6222C53.6286 26.013 53.6286 26.4039 53.6286 26.873C53.6286 27.0293 53.5505 27.1083 53.3941 27.1083C53.0814 27.1083 52.7687 27.1083 52.456 27.1083C52.2996 27.1083 52.2215 27.0293 52.2215 26.873C52.1433 25.7003 52.1433 24.6059 52.0651 23.4332C51.9869 21.8697 51.9869 20.3852 51.9869 18.8216C51.9869 18.6653 51.9869 18.5871 52.1433 18.5871C52.8469 18.5082 53.4723 18.5082 54.1759 18.43C54.7231 18.43 55.3485 18.5089 55.8176 18.8998C56.2866 19.2117 56.443 19.6026 56.5993 20.0717C56.8338 20.7753 56.912 21.4781 56.6775 22.1824C56.6775 22.7297 56.443 23.1205 56.0521 23.5114C55.8957 23.6678 55.8957 23.8233 55.8957 24.0586C56.1303 24.8404 56.2866 25.544 56.443 26.3257C56.5211 26.5595 56.5211 26.7166 56.5211 26.9504C56.5211 27.1075 56.443 27.1075 56.3648 27.1075C55.9739 27.1075 55.662 27.1857 55.2711 27.1857C55.1921 27.1857 55.1148 27.1075 55.0358 27.0293C54.8795 26.3257 54.7231 25.6222 54.5667 24.9186C54.4886 24.7622 54.4886 24.5277 54.4104 24.3713C54.4104 24.2924 54.3322 24.2142 54.3322 24.2142C54.0977 24.2142 53.8624 24.136 53.6286 24.136C53.6286 24.136 53.5505 24.2924 53.5505 24.3713C53.6286 24.8404 53.6286 25.2313 53.6286 25.6222ZM53.6286 21.4007C53.6286 21.7915 53.6286 22.1042 53.6286 22.4951C53.6286 22.6507 53.6286 22.7297 53.785 22.6507C54.254 22.5725 54.7231 22.4169 55.114 22.1816C55.1922 22.1035 55.2703 22.0261 55.2703 21.9471C55.3485 21.3999 55.1914 20.8534 55.035 20.3836C54.9568 20.2272 54.8795 20.1491 54.6441 20.1491C54.4096 20.1491 54.0977 20.1491 53.8624 20.1491C53.7068 20.1491 53.7068 20.2272 53.7068 20.3046C53.6286 20.6963 53.6286 21.0098 53.6286 21.4007Z" fill="white"/>
<path d="M41.6678 21.478C41.6678 20.7752 41.6678 19.759 41.6678 18.7419C41.6678 18.5863 41.7459 18.5081 41.9023 18.5081C42.6059 18.5863 43.3876 18.5863 44.0912 18.6637C44.2476 18.6637 44.4039 18.7419 44.561 18.8201C45.2638 19.132 45.8119 19.6018 46.1246 20.3046C46.2027 20.5399 46.2809 20.7745 46.2809 21.0082C46.2809 21.8681 46.3591 22.7281 46.3591 23.5888C46.3591 24.2916 46.2027 24.917 45.89 25.5432C45.6547 26.0123 45.2638 26.4031 44.7174 26.5587C43.8567 26.9504 42.9967 27.1075 42.0586 27.1075C41.6678 27.1075 41.4332 26.873 41.4332 26.4821C41.5114 24.9186 41.5896 23.3551 41.6678 21.478ZM44.6384 22.4169C44.6384 21.9471 44.6384 21.478 44.4821 21.0872C44.4039 20.6181 44.0912 20.3054 43.6222 20.1498C43.3876 20.0717 43.3876 20.1498 43.3876 20.3844C43.3876 21.0872 43.3876 21.8689 43.3087 22.5733C43.3087 23.2769 43.2305 23.9812 43.2305 24.684C43.2305 24.9186 43.2305 25.2313 43.3087 25.4658C43.3087 25.6222 43.465 25.6222 43.465 25.5448C43.8559 25.2321 44.1686 24.9186 44.3257 24.3721C44.5603 23.7459 44.6384 23.1205 44.6384 22.4169Z" fill="white"/>
<path d="M68.1693 22.9642C68.1693 23.6678 68.1693 24.2932 68.1693 24.9968C68.1693 25.3095 68.3249 25.6229 68.5602 25.8575C68.6384 25.9364 68.7158 26.0138 68.7947 26.0138C69.1067 26.2483 69.1067 26.2483 69.342 26.0138C69.6539 25.7011 69.811 25.3102 69.811 24.8412C69.811 24.6848 69.8892 24.6059 70.0456 24.6059C70.3583 24.6059 70.7491 24.6059 71.0618 24.6059C71.2182 24.6059 71.2972 24.6059 71.2972 24.763C71.2972 25.1539 71.2972 25.5448 71.2182 25.8567C71.14 26.4821 70.8273 26.873 70.2019 27.1075C69.342 27.4194 68.4039 27.4984 67.5439 27.0285C66.9185 26.7166 66.5276 26.1678 66.4503 25.465C66.2939 24.2924 66.3713 23.0408 66.4503 21.8682C66.4503 21.3991 66.4503 21.0082 66.5284 20.5399C66.5284 20.1491 66.763 19.8364 66.9983 19.5229C67.7011 18.7411 68.4828 18.4292 69.4991 18.6629C70.2809 18.8193 70.9071 19.2891 71.2979 19.9919C71.4535 20.3039 71.5325 20.6173 71.4535 20.93C71.4535 21.0856 71.3753 21.1646 71.219 21.1646C70.8281 21.1646 70.4372 21.1646 69.9682 21.1646C69.8118 21.1646 69.7336 21.0856 69.8118 20.93C69.89 20.3828 69.3428 19.9919 68.8737 20.1483C68.4828 20.2265 68.1709 20.5392 68.1709 21.0856C68.1693 21.7134 68.1693 22.3388 68.1693 22.9642Z" fill="white"/>
<path d="M47.14 23.0416C47.14 21.7134 47.14 20.3844 47.14 19.0546C47.14 18.899 47.2182 18.8201 47.3745 18.8201C48.5472 18.8201 49.6416 18.8201 50.8143 18.8201C51.1262 18.8201 51.2052 18.8201 51.2052 19.211C51.2052 19.5229 51.2052 19.8364 51.2052 20.1491C51.2052 20.3046 51.1262 20.3836 50.9706 20.3836C50.4234 20.3836 49.798 20.3836 49.2508 20.3836C49.0162 20.3836 48.9381 20.4626 48.9381 20.6181C48.9381 21.2443 48.9381 21.7908 48.9381 22.417C48.9381 22.5725 49.017 22.6507 49.1726 22.6507C49.5635 22.6507 49.9543 22.5725 50.3452 22.5725C50.5016 22.5725 50.5805 22.5725 50.5805 22.7289C50.5805 23.1198 50.5805 23.4317 50.5016 23.8226C50.5016 23.9023 50.3452 23.9805 50.2671 23.9805C49.8762 23.9805 49.5635 24.0587 49.1726 24.0587C49.017 24.0587 48.9381 24.1368 48.9381 24.2932C48.9381 24.763 48.9381 25.2313 48.9381 25.7777C48.9381 25.9349 49.017 26.013 49.1726 26.013C49.7988 26.013 50.3452 26.013 50.9714 25.9349C51.127 25.9349 51.2059 25.9349 51.2059 26.1686C51.2059 26.4813 51.2059 26.7948 51.2059 27.1857C51.2059 27.3413 51.127 27.4202 50.9714 27.4202C49.7988 27.4202 48.6261 27.4202 47.4535 27.4202C47.2182 27.4202 47.2182 27.4202 47.2182 27.1857C47.2182 25.8567 47.2182 24.5277 47.2182 23.2769C47.2182 23.0416 47.2182 23.0416 47.14 23.0416Z" fill="white"/>
<path d="M63.557 22.8078C63.557 21.4781 63.557 20.1499 63.557 18.899C63.557 18.7419 63.6352 18.6637 63.7916 18.6637C64.2614 18.5856 64.8079 18.5082 65.2769 18.351C65.4333 18.351 65.4333 18.351 65.5114 18.5082C65.5114 19.2899 65.5896 20.1499 65.5896 20.9316C65.5896 22.7297 65.5896 24.6051 65.5896 26.4039C65.5896 26.873 65.5896 26.7948 65.1987 26.873C64.7297 26.873 64.2614 26.9512 63.7916 26.9512C63.6352 26.9512 63.557 26.873 63.557 26.7174C63.4789 25.4658 63.4789 24.1368 63.557 22.8078C63.4789 22.8078 63.4789 22.8078 63.557 22.8078Z" fill="white"/>
</svg>
