<svg width="134" height="36" viewBox="0 0 134 36" fill="none" xmlns="http://www.w3.org/2000/svg">
<path d="M51.258 15C50.8202 15 50.3823 15.0858 49.9782 15.2404C49.5572 15.395 49.1867 15.6183 48.8499 15.9103C48.5299 16.2023 48.2605 16.563 48.0584 16.9753C47.8563 17.3875 47.7553 17.8684 47.7553 18.4181C47.7553 18.9505 47.8563 19.4487 48.0584 19.8609C48.2605 20.2731 48.5131 20.6338 48.8499 20.9258C49.1699 21.2178 49.5572 21.4411 49.9782 21.5957C50.3992 21.7503 50.8202 21.8362 51.258 21.8362C51.6959 21.8362 52.1337 21.7503 52.5379 21.5957C52.9589 21.4411 53.3293 21.2178 53.6661 20.9258C53.9861 20.6338 54.2555 20.2731 54.4576 19.8609C54.6597 19.4487 54.7607 18.9677 54.7607 18.4181C54.7607 17.8856 54.6597 17.4047 54.4576 16.9753C54.2555 16.563 53.9861 16.2023 53.6661 15.9103C53.3462 15.6183 52.9589 15.395 52.5379 15.2404C52.1337 15.0858 51.6959 15 51.258 15ZM51.258 23.7943C50.4665 23.7943 49.7087 23.6912 49.0015 23.5023C48.2942 23.2962 47.6711 22.9698 47.1322 22.5232C46.6102 22.0766 46.1892 21.4926 45.8692 20.8228C45.5661 20.1357 45.4146 19.3456 45.4146 18.4352C45.4146 17.5249 45.5661 16.7176 45.8692 16.0306C46.1723 15.3435 46.5933 14.7767 47.1322 14.3301C47.6543 13.8835 48.2773 13.54 48.9846 13.3167C49.6919 13.0934 50.4497 12.9731 51.2412 12.9731C52.0327 12.9731 52.7905 13.0934 53.4977 13.3167C54.205 13.54 54.8281 13.8835 55.3501 14.3301C55.8722 14.7767 56.31 15.3607 56.6131 16.0306C56.9162 16.7176 57.0678 17.5249 57.0678 18.4352C57.0678 19.3456 56.9162 20.1529 56.6131 20.8228C56.31 21.5098 55.889 22.0766 55.3501 22.5232C54.8281 22.9698 54.205 23.2962 53.4809 23.5023C52.8073 23.6912 52.0495 23.7943 51.258 23.7943Z" fill="#EEEEEE"/>
<path d="M73.8403 15C73.4024 15 72.9646 15.0858 72.5605 15.2404C72.1395 15.395 71.769 15.6183 71.4322 15.9103C71.1122 16.2023 70.8428 16.563 70.6407 16.9753C70.4386 17.3875 70.3376 17.8684 70.3376 18.4181C70.3376 18.9677 70.4386 19.4487 70.6407 19.8609C70.8428 20.2731 71.0954 20.6338 71.4322 20.9258C71.7521 21.2178 72.1395 21.4411 72.5605 21.5957C72.9814 21.7503 73.4193 21.8362 73.8403 21.8362C74.2781 21.8362 74.716 21.7503 75.1201 21.5957C75.5411 21.4411 75.9116 21.2178 76.2484 20.9258C76.5684 20.6338 76.8378 20.2731 77.0399 19.8609C77.242 19.4487 77.343 18.9677 77.343 18.4181C77.343 17.8684 77.242 17.4047 77.0399 16.9753C76.8378 16.563 76.5684 16.2023 76.2484 15.9103C75.9284 15.6183 75.5411 15.395 75.1201 15.2404C74.716 15.0858 74.2781 15 73.8403 15ZM73.8403 23.7943C73.0488 23.7943 72.291 23.6912 71.5837 23.5023C70.8765 23.2962 70.2534 22.9698 69.7145 22.5232C69.1925 22.0766 68.7715 21.4926 68.4515 20.8228C68.1484 20.1357 67.98 19.3456 67.98 18.4352C67.98 17.5249 68.1315 16.7176 68.4515 16.0306C68.7546 15.3435 69.1756 14.7767 69.7145 14.3301C70.2365 13.8835 70.8596 13.54 71.5669 13.3167C72.2742 13.0934 73.032 12.9731 73.8234 12.9731C74.6149 12.9731 75.3727 13.0934 76.08 13.3167C76.7873 13.54 77.4104 13.8835 77.9324 14.3301C78.4544 14.7767 78.8923 15.3607 79.1954 16.0306C79.4985 16.7176 79.6501 17.5249 79.6501 18.4352C79.6501 19.3456 79.4985 20.1529 79.1954 20.8228C78.8923 21.5098 78.4713 22.0766 77.9324 22.5232C77.4104 22.9698 76.7873 23.2962 76.0632 23.5023C75.4064 23.6912 74.6486 23.7943 73.8403 23.7943Z" fill="#EEEEEE"/>
<path d="M41.4403 24.9794L33.1045 15.1545V24.9794H30.5785V11.1868H33.2224L41.2382 20.6338V11.1868H43.7642V24.9794H41.4403Z" fill="#EEEEEE"/>
<path d="M63.6354 23.7083H61.4294L56.9163 13.0933H59.4254L62.5408 20.4792L65.6394 13.0933H68.1485L63.6354 23.7083Z" fill="#EEEEEE"/>
<path d="M107.907 23.7083V15.1201H104.27V13.0933H113.886V15.1201H110.248V23.7083H107.907Z" fill="#EEEEEE"/>
<path d="M117.995 13.0933H115.62V23.7083H117.995V13.0933Z" fill="#EEEEEE"/>
<path d="M101.138 19.1051L99.7066 15.687L98.2752 19.1051H101.138ZM103.075 23.7083L101.997 21.1319H97.45L96.3722 23.7083H94.0315L98.6288 13.0933H100.818L105.415 23.7083H103.075Z" fill="#EEEEEE"/>
<path d="M127.425 25.0653C126.432 25.0653 125.455 24.9279 124.529 24.6531C123.602 24.3783 122.777 23.9317 122.07 23.3477C121.363 22.7637 120.79 22.0251 120.386 21.1491C119.965 20.2903 119.763 19.2425 119.763 18.0745C119.763 16.9237 119.965 15.8931 120.386 15.0171C120.79 14.1411 121.363 13.3854 122.07 12.8014C122.777 12.2174 123.602 11.7536 124.529 11.4616C125.455 11.1696 126.415 11.015 127.425 11.015C129.463 11.015 131.349 11.7021 132.578 12.2345C132.713 12.3032 133.538 12.6639 133.538 12.6639L132.258 14.8454L132.073 14.7251C130.81 13.9522 129.379 13.4541 128.065 13.2995C127.829 13.2651 127.627 13.2651 127.425 13.2651H127.324H127.257C126.65 13.2823 126.044 13.3854 125.489 13.5743C124.882 13.7804 124.343 14.0896 123.889 14.5018C123.434 14.8969 123.064 15.4122 122.794 15.979C122.525 16.563 122.39 17.2329 122.39 17.9886C122.39 18.7444 122.525 19.4143 122.794 19.9983C123.064 20.5823 123.434 21.0804 123.889 21.4754C124.343 21.8705 124.882 22.1797 125.489 22.403C126.095 22.6091 126.752 22.7122 127.425 22.7122C129.597 22.7122 131.416 21.6987 132.561 20.8399L132.763 20.7025L133.909 22.7122L133.74 22.8324C132.309 23.7599 130.12 24.9107 127.846 25.0482C127.695 25.0482 127.56 25.0653 127.425 25.0653Z" fill="#EEEEEE"/>
<path d="M90.4278 13.0933L87.043 19.3971L83.6413 13.0933H81.3511V23.7083H83.4224V17.1126L87.043 23.7427L90.6636 17.1126V23.7083H92.7349V13.0933H90.4278Z" fill="#EEEEEE"/>
<path d="M21.4159 9.01306C20.7401 7.94643 19.3884 7.19907 17.2685 6.73468C15.6394 6.37188 13.5977 6.18323 11.3498 6.18323C9.1089 6.18323 7.06011 6.37188 5.43815 6.73468C3.32534 7.20632 1.96659 7.94643 1.29789 9.01306C0.188125 10.7618 0.451337 13.3086 0.743005 16.2618C0.799916 16.806 0.856827 17.3647 0.89951 17.9089C0.99199 18.9973 1.20541 21.1451 1.59667 23.213C2.16578 26.2243 2.77757 27.2837 3.19017 27.8206C4.94729 30.0845 9.88431 30.2586 11.3569 30.2586C12.8294 30.2586 17.7665 30.0845 19.5236 27.8206C19.9362 27.2837 20.5551 26.2315 21.1171 23.213C21.5084 21.1378 21.7218 18.9973 21.8143 17.9089C21.8569 17.3647 21.9138 16.806 21.9708 16.2618C22.2624 13.3086 22.5185 10.7545 21.4159 9.01306ZM21.1527 16.1747C21.0958 16.7189 21.0388 17.2849 20.9962 17.8364C20.9037 18.9102 20.6974 21.0217 20.3132 23.0607C19.7797 25.8978 19.239 26.841 18.8762 27.3054C17.3112 29.3298 12.3315 29.4314 11.3498 29.4314C10.3681 29.4314 5.38835 29.3298 3.82331 27.3054C3.4605 26.841 2.91985 25.8905 2.38631 23.0607C2.00216 21.0217 1.79586 18.9175 1.70338 17.8364C1.65358 17.2849 1.60378 16.7189 1.54687 16.1747C1.26232 13.3739 1.02045 10.9577 1.9737 9.45568C2.52858 8.58496 3.7166 7.95369 5.60888 7.5401C7.18105 7.19181 9.16581 7.01041 11.3498 7.01041C13.5337 7.01041 15.5185 7.19181 17.0906 7.5401C18.9829 7.96095 20.1709 8.58496 20.7258 9.45568C21.6791 10.9649 21.4372 13.3812 21.1527 16.1747ZM11.3569 8.20039C15.5754 8.20039 18.9972 8.91148 19.7583 10.1087C20.6476 11.5164 20.1069 14.6582 19.8437 17.742C19.5805 20.8258 18.9474 25.31 17.9728 26.5798C17.1191 27.6827 14.0673 28.2487 11.3569 28.2487C8.65361 28.2487 5.59466 27.6755 4.74099 26.5798C3.75928 25.3173 3.12615 20.8258 2.87005 17.742C2.61395 14.6582 2.06618 11.5164 2.95542 10.1087C3.7166 8.91148 7.13836 8.20039 11.3569 8.20039ZM5.13226 12.4814C5.01843 12.5467 4.96864 12.7572 4.96864 12.7572L4.8477 13.3014C4.8477 13.3014 4.80502 13.4392 4.88327 13.6061C4.96864 13.773 5.50218 13.8746 5.50218 13.8746C5.50218 13.8746 6.43409 14.0197 6.81113 14.4913C7.18816 14.963 7.03877 15.6088 7.03877 15.6088L6.02149 20.6952C6.02149 20.6952 5.92189 21.1886 5.66579 21.4281C5.41681 21.6603 5.00421 21.6748 5.00421 21.6748C5.00421 21.6748 4.76234 21.682 4.60583 21.7473C4.47067 21.8054 4.42798 22.0303 4.42798 22.0303L4.36396 22.3641C4.36396 22.3641 4.32839 22.502 4.40664 22.6253C4.48489 22.7487 4.70542 22.7777 4.70542 22.7777L9.84874 22.814C9.84874 22.814 10.0052 22.8067 10.0906 22.7196C10.176 22.6326 10.1973 22.4512 10.1973 22.4512L10.2827 21.9723C10.2827 21.9723 10.3183 21.8271 10.2471 21.7401C10.1618 21.6385 10.0906 21.6457 9.85586 21.5877C9.61399 21.5296 9.47171 21.4571 9.23695 21.2612C8.94528 21.0145 9.04488 20.5428 9.04488 20.5428L9.49305 17.996C9.49305 17.996 9.54996 17.8073 9.6709 17.8146C9.84874 17.8218 9.90565 17.9887 9.90565 17.9887L12.3599 22.4657C12.3599 22.4657 12.4453 22.618 12.5733 22.7196C12.7014 22.8212 12.9931 22.8285 12.9931 22.8285L17.1333 22.7922C17.1333 22.7922 17.3396 22.7994 17.4535 22.7051C17.5886 22.589 17.6242 22.4076 17.6242 22.4076L17.7024 22.0376C17.7024 22.0376 17.7594 21.8634 17.6811 21.6965C17.5886 21.5006 17.2329 21.4571 16.8274 21.3337C16.5287 21.2394 16.1374 21.0217 16.0022 20.8186C15.9097 20.6734 16.0022 20.3759 16.0022 20.3759L17.3823 14.5857C17.3823 14.5857 17.425 14.3462 17.6598 14.0995C17.8732 13.8746 18.4565 13.7512 18.4565 13.7512C18.4565 13.7512 18.6059 13.7222 18.6984 13.6351C18.7624 13.5698 18.7909 13.432 18.7909 13.432L18.9474 12.8079C18.9474 12.8079 18.9901 12.6483 18.8976 12.5395C18.8193 12.4451 18.5988 12.4451 18.5988 12.4451H13.8681C13.8681 12.4451 13.7116 12.4379 13.5622 12.5612C13.427 12.6773 13.4057 12.7934 13.4057 12.7934L13.2918 13.3159C13.2918 13.3159 13.2563 13.4465 13.299 13.5481C13.3559 13.6787 13.4839 13.6859 13.4839 13.6859L13.6831 13.7222C13.6831 13.7222 14.053 13.7948 14.2451 13.9907C14.4372 14.1866 14.3447 14.6945 14.3447 14.6945L13.6547 18.0685L11.1506 13.1998C11.1506 13.1998 11.0794 12.9748 10.802 12.6991C10.5317 12.4234 10.112 12.4451 10.112 12.4451H5.43815C5.44527 12.4089 5.24608 12.4161 5.13226 12.4814Z" fill="#EEEEEE"/>
</svg>
