<?xml version="1.0" encoding="utf-8"?>
<!-- Generator: Adobe Illustrator 22.1.0, SVG Export Plug-In . SVG Version: 6.00 Build 0)  -->
<svg version="1.1" id="Слой_1" xmlns="http://www.w3.org/2000/svg" xmlns:xlink="http://www.w3.org/1999/xlink" x="0px" y="0px"
	 width="100px" height="17px" viewBox="0 0 100 17" style="enable-background:new 0 0 100 17;" xml:space="preserve">
<style type="text/css">
	.st0{fill:#FFFFFF;}
	.st1{fill:url(#SVGID_1_);}
</style>
<title>D41A1E93-A54C-4EB8-A439-D29FDBC2B901</title>
<desc>Created with sketchtool.</desc>
<path class="st0" d="M35.3,7.4c-1.1,0-2,0.4-2.5,1.4V7.6H32V16h0.8v-3.6c0.5,1,1.3,1.4,2.5,1.4c1,0,1.8-0.3,2.3-1
	c0.5-0.6,0.8-1.3,0.8-2.2c0-0.9-0.3-1.7-0.8-2.3C37,7.7,36.3,7.4,35.3,7.4z M37.3,12.5c-0.5,0.5-1.1,0.8-2,0.8
	c-0.8,0-1.4-0.2-1.8-0.7c-0.4-0.5-0.7-1.1-0.7-1.8v-0.1c0-0.7,0.2-1.3,0.6-1.8C33.9,8.3,34.5,8,35.3,8c0.8,0,1.5,0.3,2,0.8
	c0.4,0.5,0.6,1.1,0.6,1.8C37.9,11.4,37.7,12,37.3,12.5z"/>
<path class="st0" d="M95.4,8.9c-0.6-0.9-1.4-1.3-2.4-1.3c-0.9,0-1.6,0.3-2.2,0.9c-0.6,0.6-0.9,1.3-0.9,2.2s0.3,1.6,0.9,2.2
	c0.6,0.6,1.4,0.9,2.2,0.9c1.1,0,1.9-0.4,2.4-1.3v1.2h0.8V7.8h-0.8V8.9z M94.7,12.4c-0.5,0.4-1,0.7-1.7,0.7c-0.7,0-1.2-0.2-1.7-0.7
	c-0.5-0.5-0.7-1-0.7-1.7s0.2-1.2,0.7-1.7c0.5-0.5,1-0.7,1.7-0.7c0.7,0,1.2,0.2,1.7,0.7c0.5,0.4,0.7,1,0.7,1.7S95.1,11.9,94.7,12.4z"
	/>
<path class="st0" d="M47.5,7.4c-0.5,0-0.9,0.1-1.3,0.3c-0.4,0.2-0.7,0.5-0.9,0.9v-1h-0.8v6.1h0.8V10c0-0.6,0.2-1.1,0.6-1.4
	C46.3,8.2,46.7,8,47.3,8c1.3,0,1.9,0.6,1.9,1.9v3.7h0.8V9.9C49.9,8.2,49.1,7.4,47.5,7.4z"/>
<path class="st0" d="M55.8,7.4c-0.9,0-1.7,0.3-2.2,1C53,9,52.8,9.8,52.8,10.6s0.3,1.6,0.8,2.2c0.6,0.6,1.3,1,2.2,1s1.7-0.3,2.2-1
	c0.5-0.6,0.8-1.3,0.8-2.2S58.5,9,58,8.4C57.4,7.7,56.7,7.4,55.8,7.4z M57.5,12.4c-0.4,0.5-1,0.8-1.7,0.8s-1.3-0.3-1.7-0.8
	c-0.4-0.5-0.6-1.1-0.6-1.8c0-0.7,0.2-1.3,0.6-1.8C54.5,8.3,55,8,55.8,8s1.3,0.3,1.7,0.8c0.4,0.5,0.6,1.1,0.6,1.8
	C58,11.4,57.8,12,57.5,12.4z"/>
<path class="st0" d="M68.2,7.4c-0.4,0-0.8,0.1-1.1,0.3c-0.3,0.2-0.6,0.5-0.8,0.9c-0.3-0.8-1-1.3-2-1.3c-0.8,0-1.4,0.4-1.8,1.1V7.6
	h-0.7v6.1h0.7V9.9c0-0.5,0.2-1,0.5-1.3C63.3,8.2,63.7,8,64.2,8c1,0,1.6,0.6,1.6,1.8v3.9h0.7V9.8c0-0.5,0.1-0.9,0.5-1.3
	C67.2,8.2,67.6,8,68.1,8c0.6,0,1,0.2,1.2,0.5c0.2,0.3,0.4,0.7,0.4,1.3v3.9h0.7v-4c0-0.7-0.2-1.3-0.6-1.7C69.4,7.6,68.9,7.4,68.2,7.4
	z"/>
<path class="st0" d="M78.4,8.4c-0.5-0.7-1.2-1-2.2-1c-0.9,0-1.6,0.3-2.1,1c-0.5,0.6-0.8,1.4-0.8,2.3c0,1,0.3,1.8,0.8,2.3
	c0.5,0.6,1.2,0.9,2.1,0.9c0.8,0,1.4-0.2,2-0.7c0.4-0.4,0.7-0.9,0.8-1.5h-0.7c-0.2,0.5-0.4,0.8-0.7,1.1c-0.4,0.3-0.8,0.4-1.4,0.4
	c-0.7,0-1.2-0.2-1.6-0.6c-0.4-0.4-0.6-1-0.6-1.8h5.1C79.1,9.8,78.9,9,78.4,8.4z M74.1,10.3c0.1-0.7,0.3-1.2,0.7-1.6
	C75.1,8.2,75.6,8,76.2,8c1.3,0,2,0.7,2.2,2.2H74.1z"/>
<path class="st0" d="M28.6,9.8c-0.4-0.2-1.2-0.5-2.4-0.8c-0.9-0.2-1.5-0.4-1.8-0.5c-0.6-0.3-0.9-0.6-0.9-1.1c0-0.5,0.2-0.9,0.7-1.2
	c0.4-0.2,1-0.4,1.8-0.4c0.8,0,1.4,0.2,1.9,0.5s0.7,0.8,0.8,1.5h0.8c-0.1-0.9-0.4-1.5-1-2c-0.6-0.4-1.4-0.7-2.4-0.7
	c-0.9,0-1.7,0.2-2.3,0.5c-0.7,0.4-1,0.9-1,1.7c0,0.7,0.4,1.2,1.1,1.6c0.3,0.2,1,0.4,2.1,0.7c1.1,0.3,1.7,0.5,2,0.6
	c0.6,0.3,0.9,0.8,0.9,1.3c0,0.5-0.3,0.9-0.8,1.2c-0.5,0.3-1.2,0.4-2,0.4c-0.9,0-1.5-0.2-2-0.5c-0.5-0.4-0.8-1-0.9-1.8h-0.8
	c0.1,1,0.5,1.8,1.2,2.3c0.6,0.4,1.5,0.7,2.5,0.7c1.1,0,1.9-0.2,2.5-0.6c0.7-0.4,1-1,1-1.7C29.8,10.8,29.4,10.2,28.6,9.8z"/>
<linearGradient id="SVGID_1_" gradientUnits="userSpaceOnUse" x1="2.003283e-05" y1="8.5" x2="16.9757" y2="8.5">
	<stop  offset="0" style="stop-color:#78C7DC"/>
	<stop  offset="1" style="stop-color:#A568AE"/>
</linearGradient>
<path class="st1" d="M17,8.6c0-0.8-0.5-1.6-0.7-1.8C15.4,6,14.6,6,13.9,6c-0.6,0-3.6,0-8.9,0V4.9c4.7,0,7.4,0,8,0c1,0,1.4,0,2.3,0.3
	c0.8,0.3,1.4,1.2,1.5,1c0.1-0.2-0.3-1.1-1.1-2.1c-0.6-0.6-1.6-1.6-2.4-2.3C11.6,0.4,8.8,0,7.6,0C5.4,0,2.9,0,0,0c0,5,0,7.6,0,8
	c0,0.6,0.1,1.5,1,2.2c0.8,0.6,1.5,0.6,2.6,0.7c1.1,0,3.9,0,8.3,0V12c-5.2,0-7.9,0-8,0c-1,0-1.5-0.1-1.9-0.2c-0.3-0.1-0.7-0.3-1-0.5
	c-0.5-0.3-0.9-0.7-1-0.7c-0.2,0.1,0.8,1.8,1.3,2.5c1.1,1.4,2.5,2.3,3,2.6c2.1,1.3,4,1.3,5,1.3c1.2,0,3.6,0,7.1,0
	c0.3,0,0.5-0.2,0.5-0.5h0C17,12.3,17,9.7,17,8.6z"/>
<path class="st0" d="M41.3,5.4c-0.2,0-0.3,0.1-0.4,0.2c-0.1,0.1-0.2,0.2-0.2,0.4c0,0.2,0.1,0.3,0.2,0.4c0.1,0.1,0.3,0.2,0.4,0.2
	c0.2,0,0.3-0.1,0.4-0.2c0.1-0.1,0.2-0.3,0.2-0.4c0-0.2-0.1-0.3-0.2-0.4C41.6,5.5,41.5,5.4,41.3,5.4z"/>
<rect x="99.3" y="5.1" class="st0" width="0.7" height="8.6"/>
<path class="st0" d="M84.6,7.4c-0.4,0-0.8,0.1-1.2,0.3c-0.4,0.2-0.6,0.5-0.8,0.9v-1h-0.7v6.1h0.7V10c0-0.6,0.2-1.1,0.6-1.4
	C83.5,8.2,84,8,84.5,8c1.2,0,1.8,0.6,1.8,1.9v3.7H87V9.9C87,8.3,86.2,7.4,84.6,7.4z"/>
<rect x="40.9" y="7.6" class="st0" width="0.7" height="6.1"/>
</svg>
