<?xml version="1.0" encoding="utf-8"?>
<!-- Generator: Adobe Illustrator 22.1.0, SVG Export Plug-In . SVG Version: 6.00 Build 0)  -->
<svg version="1.1" id="Слой_1" xmlns="http://www.w3.org/2000/svg" xmlns:xlink="http://www.w3.org/1999/xlink" x="0px" y="0px"
	 width="69px" height="33px" viewBox="0 0 69 33" style="enable-background:new 0 0 69 33;" xml:space="preserve">
<style type="text/css">
	.st0{fill:#EE3524;}
</style>
<title>8187FFCB-C305-4DA7-9BF7-96E3B993097F</title>
<desc>Created with sketchtool.</desc>
<g id="Icons">
	<g id="Artboard" transform="translate(-272.000000, -135.000000)">
		<g id="Group-9" transform="translate(272.000000, 135.000000)">
			<path id="Shape" class="st0" d="M10.9,8.2h6.3l-0.6,2.1h-4.1l-0.7,2.4h4.1l-0.6,2h-4.1l-0.9,3.1h4.1l-0.6,2H7.5L10.9,8.2z
				 M37.5,0C56,2.6,69,8.7,69,15.8C69,25.3,45.6,33,17,33c-5.9,0-11.7-0.4-17-1c1.7,0.1,3.5,0.1,5.3,0.1c28.6,0,52-8.1,52-18
				C57.2,8.4,49.5,3.3,37.5,0z M49.8,20c3.3,0,6-2.7,6-6s-2.7-6-6-6s-6,2.7-6,6S46.5,20,49.8,20z M31.6,8.2h7.1l-0.6,2.1h-2.5
				l-2.8,9.6h-2.1l2.8-9.6H31L31.6,8.2z M29.3,10.4l-2,1.2c-0.4-0.6-0.9-1-1.3-1.2c-0.5-0.3-1-0.4-1.6-0.4c-1.3,0-2.5,0.5-3.5,1.6
				c-0.8,0.9-1.3,1.8-1.5,2.9c-0.2,1,0,1.9,0.6,2.6c0.6,0.7,1.4,1.1,2.4,1.1c0.8,0,1.5-0.2,2.1-0.6c0.7-0.4,1.3-0.9,1.8-1.6h-3.6
				l0.6-2.1h3.6H29c-0.4,1.9-1.2,3.5-2.5,4.6c-1.3,1.1-2.8,1.7-4.6,1.7c-1.9,0-3.3-0.7-4.1-2c-0.7-1-0.9-2.3-0.7-3.7
				c0.3-1.8,1.2-3.3,2.7-4.6c1.5-1.3,3.1-1.9,4.9-1.9c0.7,0,1.3,0.1,1.9,0.3C27.1,8.4,27.6,8.6,28,9C28.5,9.3,28.9,9.8,29.3,10.4z"
				/>
		</g>
	</g>
</g>
</svg>
