<svg width="84" height="36" viewBox="0 0 84 36" fill="none" xmlns="http://www.w3.org/2000/svg">
<g clip-path="url(#clip0_481_13677)">
<path d="M2.17678 9.2093C3.8512 10.4651 5.10701 10.9674 7.20003 11.9721C8.70701 12.6419 11.5535 13.7302 13.7303 14.8186C10.9675 13.1442 7.70236 11.0512 7.70236 7.36744C7.70236 1.5907 22.6047 2.0093 29.721 7.36744C29.721 7.36744 25.1163 0.586044 14.8186 0.586044C8.03724 0.586044 2.51166 3.76744 0.6698 6.44651L0.753521 6.61395C0.753521 6.53023 0.502358 7.95349 2.17678 9.2093Z" fill="url(#paint0_linear_481_13677)"/>
<path d="M7.7861 29.0512C7.7861 25.7023 10.4652 23.693 12.9768 22.1861C9.96284 23.693 4.85587 25.6186 3.68377 26.2884C2.51168 26.9581 1.84191 27.0419 1.33959 28.0465C1.0047 28.6326 0.837261 29.5535 0.75354 30.1395C2.67912 32.8186 8.12098 35.8326 14.9024 35.8326C25.2001 35.8326 29.8047 29.0512 29.8047 29.0512C22.7721 34.4093 7.7861 34.8279 7.7861 29.0512Z" fill="url(#paint1_linear_481_13677)"/>
<path d="M3.68372 26.2884C4.85581 25.6178 9.96279 23.6922 12.9767 22.1861C15.2372 20.7628 17.414 19.6744 17.414 18.2512C17.414 16.9954 15.7395 15.9907 13.814 14.8186C11.6372 13.7302 8.70698 12.6419 7.28372 11.9721C5.1907 10.9674 3.93488 10.4651 2.26047 9.20931C0.586047 7.95349 0.837209 6.61396 0.837209 6.61396L0.669767 6.44652C0.251163 7.03256 0 7.70233 0 8.20466C0 11.4698 6.44651 13.1442 6.44651 18.1674C6.44651 23.107 0 24.9488 0 28.1302C0 28.7163 0.251163 29.3861 0.753488 30.0567C0.837209 29.4698 0.92093 28.5488 1.25581 27.9628C1.84186 27.0419 2.51163 26.9581 3.68372 26.2884Z" fill="url(#paint2_linear_481_13677)"/>
<path d="M15.5721 16.8279C15.5721 16.8279 16.4931 17.414 16.6605 17.9163C16.8279 18.4186 16.2419 19.2558 15.7396 19.5907C15.2372 19.9247 14.4838 20.0093 14.4 19.8419C14.1489 19.3387 15.4047 19.0047 15.2372 18.2512C15.0698 17.4977 14.5675 17.1628 14.2326 16.9116C13.9814 16.5768 13.6465 16.2419 13.814 16.1581C13.8977 15.907 15.5721 16.8279 15.5721 16.8279Z" fill="url(#paint3_linear_481_13677)"/>
<path fill-rule="evenodd" clip-rule="evenodd" d="M38.1693 15.9957C38.1693 15.6834 38.1693 15.4038 38.1693 15.125C38.1693 14.8529 38.1693 14.5808 38.1693 14.3071C38.1693 14.0308 38.1684 13.7537 38.1693 13.4707C38.3124 13.5084 38.4347 13.5494 38.5602 13.5695C38.7009 13.5913 38.8449 13.5921 38.9864 13.6072C39.0885 13.6172 39.1898 13.6273 39.2894 13.6432C39.4761 13.6733 39.59 13.7914 39.6603 13.9588C39.7214 14.1053 39.7415 14.2602 39.7524 14.4167C39.7574 14.4988 39.7566 14.58 39.7566 14.6629C39.7566 16.6714 39.7566 18.6798 39.7566 20.69C39.7566 20.7243 39.7549 20.7578 39.7566 20.7913C39.7608 20.8566 39.7357 20.9076 39.698 20.9587C39.528 21.1931 39.2987 21.3455 39.0366 21.4552C38.7762 21.5648 38.5016 21.6101 38.2245 21.6469C37.6761 21.7214 37.1253 21.7407 36.5735 21.6904C36.206 21.6561 35.8468 21.5883 35.5019 21.4501C34.9519 21.2316 34.5718 20.8482 34.3574 20.2965C34.2327 19.9767 34.1624 19.6451 34.1306 19.3044C34.0979 18.9528 34.0812 18.5986 34.1172 18.2453C34.1532 17.8811 34.2377 17.5337 34.3876 17.2013C34.5785 16.7777 34.8815 16.4554 35.2734 16.2134C35.625 15.9949 36.0059 15.8576 36.4178 15.8032C36.7987 15.7513 37.1772 15.7487 37.5573 15.8032C37.7272 15.8266 37.8888 15.8727 38.0445 15.9472C38.0755 15.9622 38.1073 15.9723 38.1693 15.9957ZM38.1575 20.1575C38.1617 20.1064 38.1718 20.0537 38.1718 20.0001C38.1718 19.1219 38.1701 18.2453 38.1676 17.3654C38.1676 17.3269 38.1584 17.2875 38.1525 17.249C38.114 17.2314 38.083 17.2164 38.0512 17.208C37.7046 17.1209 37.3521 17.0841 36.998 17.1209C36.5551 17.1703 36.0151 17.4022 35.8259 18.0779C35.7397 18.3843 35.7254 18.6949 35.7489 19.008C35.7606 19.1654 35.8008 19.3161 35.8586 19.4626C36.0059 19.8368 36.2738 20.0729 36.6598 20.186C36.9938 20.2839 37.3312 20.294 37.6711 20.2571C37.831 20.2412 37.996 20.2303 38.1575 20.1575Z" fill="white"/>
<path fill-rule="evenodd" clip-rule="evenodd" d="M55.63 21.5339C55.62 21.8168 55.625 22.0822 55.6242 22.3476C55.6233 22.6189 55.6242 22.8918 55.6242 23.1656C55.6242 23.4301 55.6242 23.6955 55.6242 23.9576C55.5974 23.9609 55.5806 23.9685 55.5714 23.9634C55.332 23.8462 55.0733 23.8337 54.8146 23.822C54.7459 23.8178 54.679 23.8169 54.6111 23.8169C54.473 23.8178 54.3608 23.76 54.2679 23.662C54.1699 23.5607 54.1088 23.4385 54.0837 23.3029C54.0611 23.1631 54.0418 23.0191 54.0393 22.8776C54.0326 22.5444 54.036 22.2095 54.036 21.8763C54.036 20.1659 54.0385 18.4563 54.0335 16.745C54.0326 16.5918 54.0745 16.4738 54.18 16.3633C54.396 16.1339 54.6614 15.9848 54.9603 15.9003C55.1629 15.8442 55.3713 15.8073 55.5798 15.7772C56.1223 15.6993 56.6673 15.6927 57.2123 15.7353C57.579 15.7647 57.9382 15.8367 58.2831 15.974C58.8332 16.1916 59.215 16.5742 59.4301 17.126C59.5657 17.4709 59.6361 17.8309 59.6662 18.1984C59.6938 18.5233 59.6997 18.8523 59.6729 19.178C59.6403 19.589 59.5398 19.9833 59.3472 20.3509C59.1689 20.69 58.9228 20.9629 58.5979 21.1705C58.1391 21.4644 57.6385 21.6209 57.0993 21.6544C56.7368 21.6762 56.3768 21.672 56.0185 21.6117C55.8996 21.5916 55.7807 21.564 55.63 21.5339ZM55.6376 20.1851C55.6819 20.2002 55.7188 20.2169 55.7573 20.2278C55.9624 20.2822 56.1734 20.2956 56.3818 20.3241C56.7887 20.3793 57.1496 20.2713 57.4895 20.0595C57.6301 19.9708 57.7465 19.8553 57.821 19.7071C57.8771 19.5982 57.9257 19.4852 57.9642 19.3697C58.0554 19.0867 58.0621 18.7937 58.0504 18.4998C58.0378 18.2152 57.9466 17.9548 57.7925 17.7145C57.667 17.5178 57.4962 17.3771 57.2768 17.3009C57.0123 17.2097 56.7393 17.1377 56.458 17.1578C56.2202 17.1753 55.9842 17.2097 55.7464 17.2381C55.7079 17.244 55.6727 17.2658 55.6392 17.2783C55.6183 17.4399 55.6158 19.9281 55.6376 20.1851Z" fill="white"/>
<path fill-rule="evenodd" clip-rule="evenodd" d="M62.815 15.9154C62.8384 15.912 62.8669 15.9128 62.8903 15.9053C63.2444 15.794 63.6111 15.7621 63.9787 15.7412C64.2307 15.727 64.4835 15.7261 64.7347 15.7354C65.1231 15.7496 65.4848 15.8576 65.8163 16.0644C66.0298 16.1975 66.1989 16.3691 66.3145 16.5952C66.4828 16.9267 66.5933 17.2741 66.5916 17.6509C66.5899 18.6999 66.5899 19.7489 66.5874 20.7988C66.5874 21.0299 66.5874 21.2626 66.5874 21.4928C66.5874 21.5397 66.5807 21.5866 66.5765 21.6402C66.3689 21.6913 66.1671 21.6996 65.9637 21.6762C65.8373 21.6603 65.7058 21.6394 65.5853 21.5983C65.2856 21.4954 65.0947 21.2852 65.0344 20.9704C65.0143 20.8574 65.0026 20.741 65.0009 20.6263C64.9967 19.9926 64.9976 19.3588 64.9942 18.725C64.9917 18.4186 64.9582 18.1147 64.9214 17.81C64.8829 17.4826 64.6911 17.3152 64.3897 17.2448C64.0683 17.1695 63.7417 17.1661 63.4152 17.2147C63.2076 17.2448 63 17.2842 62.7957 17.388C62.7932 17.4659 62.7898 17.5454 62.7898 17.6266C62.7898 18.6279 62.7898 19.6292 62.789 20.6305C62.789 20.7268 62.7898 20.8222 62.779 20.916C62.7421 21.2199 62.5948 21.4426 62.2942 21.5364C62.1644 21.5766 62.0313 21.6084 61.8974 21.631C61.6755 21.6687 61.4511 21.6569 61.2184 21.6486C61.2109 21.6 61.2008 21.5615 61.1991 21.5221C61.1966 21.4686 61.1983 21.4133 61.1983 21.3597C61.1983 18.7836 61.1983 16.2075 61.1983 13.6331C61.1983 13.5519 61.1983 13.4707 61.1983 13.3912C61.2234 13.387 61.2385 13.3778 61.2485 13.382C61.4696 13.4858 61.7056 13.5126 61.9451 13.5209C62.0263 13.5243 62.1083 13.5293 62.1896 13.5276C62.3788 13.5209 62.5144 13.6122 62.6216 13.7579C62.7245 13.901 62.7622 14.0676 62.7781 14.2376C62.789 14.3523 62.789 14.4678 62.789 14.5842C62.7907 14.9593 62.789 15.3343 62.7907 15.7086C62.7898 15.7755 62.7739 15.8442 62.815 15.9154Z" fill="white"/>
<path fill-rule="evenodd" clip-rule="evenodd" d="M21.8889 19.6217C21.8813 19.8226 21.9768 19.9557 22.1258 20.057C22.2514 20.1424 22.3937 20.1935 22.541 20.222C22.6742 20.2479 22.8106 20.268 22.9454 20.2722C23.4226 20.2873 23.899 20.2672 24.372 20.1994C24.6818 20.155 24.9924 20.1148 25.303 20.0754C25.3432 20.0704 25.3842 20.0746 25.4336 20.0746C25.4403 20.1131 25.452 20.1516 25.4537 20.1901C25.4612 20.4304 25.4403 20.6657 25.3683 20.8967C25.2645 21.2316 25.0544 21.4619 24.7203 21.5782C24.4541 21.6728 24.1795 21.7189 23.9007 21.7323C23.4511 21.7541 23.0015 21.7557 22.5544 21.6938C22.2028 21.6452 21.8596 21.5648 21.5314 21.4242C20.9462 21.173 20.5544 20.7469 20.3501 20.1458C20.2404 19.8209 20.1801 19.4861 20.1567 19.1453C20.1232 18.6555 20.1299 18.1666 20.227 17.681C20.2839 17.3989 20.3718 17.1285 20.5125 16.8748C20.6531 16.6203 20.844 16.4127 21.0877 16.2502C21.4393 16.0167 21.8286 15.8802 22.2438 15.8166C22.7244 15.742 23.2075 15.7354 23.6905 15.7789C23.9827 15.8048 24.2682 15.8676 24.5428 15.9781C25.0627 16.1858 25.4051 16.5575 25.5726 17.0916C25.7032 17.5077 25.7266 17.9347 25.6923 18.365C25.6814 18.494 25.6437 18.6187 25.5877 18.7359C25.4696 18.9829 25.2846 19.152 25.0217 19.2341C24.8124 19.2977 24.5981 19.3362 24.3812 19.3563C24.0832 19.3839 23.7843 19.3965 23.4837 19.3864C23.0275 19.3714 22.5729 19.409 22.1275 19.5279C22.0479 19.5447 21.9659 19.5564 21.8889 19.6217ZM21.8411 18.4504C21.8596 18.4487 21.8813 18.4504 21.8989 18.4421C22.1149 18.3491 22.3426 18.3165 22.5754 18.3031C22.8064 18.2905 23.0375 18.2771 23.2694 18.2646C23.4687 18.2545 23.6554 18.2009 23.8362 18.113C24.1058 17.9816 24.2431 17.5496 23.8756 17.3127C23.7483 17.2306 23.6118 17.172 23.467 17.1293C23.0944 17.0188 22.7269 17.0347 22.3703 17.1938C22.2045 17.2683 22.0664 17.3763 21.9659 17.527C21.8051 17.7689 21.7532 18.1457 21.8411 18.4504Z" fill="white"/>
<path fill-rule="evenodd" clip-rule="evenodd" d="M47.2915 18.6932C47.2915 18.8087 47.2915 18.9243 47.2915 19.0398C47.2932 19.3554 47.2472 19.666 47.1584 19.9666C46.9558 20.6531 46.5389 21.1529 45.8582 21.415C45.525 21.5431 45.1793 21.6176 44.8243 21.6377C44.1813 21.6737 43.5459 21.6218 42.9222 21.4476C42.5672 21.348 42.2591 21.1722 42.0021 20.9051C41.7844 20.6799 41.6262 20.4229 41.5332 20.1232C41.4269 19.7782 41.3574 19.4241 41.3222 19.0641C41.3164 19.003 41.3122 18.9419 41.3038 18.8807C41.2369 18.4203 41.2938 17.9707 41.4261 17.5278C41.5324 17.1712 41.7199 16.8547 41.9669 16.5759C42.1921 16.3206 42.4709 16.1431 42.784 16.0141C43.2043 15.84 43.6447 15.7605 44.0968 15.7404C44.5899 15.7194 45.0755 15.7646 45.5535 15.8944C46.0274 16.0225 46.4217 16.277 46.7415 16.6487C46.8202 16.7408 46.8955 16.8421 46.95 16.9501C47.1358 17.3177 47.2622 17.7045 47.2823 18.1197C47.2916 18.3106 47.2991 18.5015 47.3075 18.6907C47.3024 18.6924 47.2966 18.6932 47.2915 18.6932ZM45.7703 18.797C45.7821 18.5124 45.7519 18.2311 45.6489 17.959C45.5192 17.6132 45.2789 17.3805 44.9289 17.2599C44.7724 17.2063 44.6108 17.182 44.4484 17.1745C44.0892 17.1561 43.7418 17.1988 43.4186 17.3671C43.2378 17.4617 43.0971 17.5948 43.0134 17.7832C42.9406 17.9447 42.8828 18.1155 42.8711 18.2913C42.846 18.6589 42.8602 19.0273 42.9598 19.3839C43.0611 19.7447 43.2629 20.0252 43.6447 20.129C44.0373 20.2362 44.4367 20.2697 44.8369 20.1818C45.2663 20.0872 45.5694 19.8444 45.6992 19.4057C45.7578 19.2064 45.7795 19.0072 45.7703 18.797Z" fill="white"/>
<path fill-rule="evenodd" clip-rule="evenodd" d="M78.7095 17.2005C78.6626 16.8271 78.7137 16.4964 78.9012 16.1966C79.0502 15.9539 79.288 15.8383 79.5526 15.7772C79.6698 15.7487 79.7945 15.7362 79.9159 15.7345C80.4408 15.7261 80.9649 15.7219 81.4882 15.7688C81.8875 15.804 82.2685 15.9078 82.6184 16.0962C83.0395 16.3222 83.3083 16.6839 83.4707 17.1285C83.5712 17.4047 83.6256 17.6944 83.6298 17.9891C83.6373 18.54 83.6373 19.0909 83.6323 19.6434C83.6281 19.8963 83.5779 20.1433 83.4966 20.3844C83.284 21.029 82.8344 21.4133 82.1789 21.5648C81.9177 21.6226 81.6556 21.6519 81.3885 21.6486C80.9465 21.6444 80.5019 21.646 80.0607 21.6486C79.8548 21.6494 79.6547 21.6184 79.4529 21.5757C79.2152 21.5255 79.005 21.4183 78.8099 21.2752C78.5086 21.0525 78.3512 20.7393 78.2909 20.3802C78.2214 19.9708 78.2599 19.5647 78.3721 19.1671C78.4901 18.7485 78.7497 18.4521 79.1448 18.2679C79.4286 18.1381 79.7275 18.0837 80.0356 18.0636C80.2265 18.0527 80.4165 18.0561 80.6074 18.0502C80.9005 18.0427 81.1935 18.0352 81.4823 17.9807C81.5811 17.9623 81.6807 17.9322 81.7753 17.8937C81.8356 17.8702 81.8951 17.8292 81.9445 17.7832C82.0759 17.6534 82.0859 17.4633 81.9629 17.3219C81.9143 17.2683 81.8524 17.2189 81.7862 17.1887C81.6816 17.1393 81.5711 17.0983 81.4597 17.0724C81.0319 16.9786 80.5991 16.9476 80.1604 16.9719C79.7861 16.992 79.4144 17.0322 79.0486 17.1142C78.9414 17.1385 78.8384 17.1678 78.7095 17.2005ZM82.0859 18.8916C82.0474 18.8983 82.0307 18.8966 82.024 18.9033C81.7025 19.162 81.3392 19.2834 80.9264 19.2809C80.7715 19.2801 80.6141 19.301 80.4592 19.3261C80.3044 19.3513 80.1553 19.399 80.0222 19.4869C79.8899 19.574 79.8364 19.6962 79.8581 19.8544C79.8807 20.0252 79.9745 20.1483 80.126 20.2136C80.2315 20.2588 80.3462 20.2881 80.4584 20.304C80.7774 20.3492 81.098 20.3467 81.4179 20.335C81.4723 20.3333 81.5259 20.3258 81.5786 20.3157C81.8524 20.2588 81.9913 20.1148 82.0416 19.841C82.0993 19.5313 82.0918 19.219 82.0859 18.8916Z" fill="white"/>
<path fill-rule="evenodd" clip-rule="evenodd" d="M28.7765 17.3051C28.7715 17.3403 28.764 17.3595 28.7648 17.3796C28.7698 17.8903 28.7782 18.4019 28.7816 18.9126C28.7849 19.5053 28.7858 20.0972 28.7849 20.6908C28.7849 20.7846 28.7765 20.8825 28.7581 20.9754C28.7054 21.24 28.5614 21.4376 28.2993 21.528C28.1712 21.5732 28.0381 21.605 27.905 21.6318C27.7267 21.667 27.3809 21.6603 27.2034 21.6276C27.1992 21.5715 27.1917 21.5113 27.1917 21.4518C27.1909 19.8167 27.1925 18.1817 27.1884 16.5474C27.1884 16.3055 27.2905 16.1456 27.4931 16.0351C27.7183 15.9137 27.9628 15.8542 28.2123 15.814C28.9013 15.7044 29.5953 15.6876 30.2902 15.7379C30.6569 15.7647 31.0194 15.8316 31.3635 15.9714C31.4698 16.0158 31.577 16.0619 31.6775 16.118C32.225 16.4269 32.513 16.9016 32.5674 17.5228C32.5783 17.6383 32.58 17.7539 32.58 17.8702C32.5808 19.0407 32.5808 20.2127 32.58 21.3848C32.58 21.4652 32.5917 21.5473 32.5582 21.636C32.5197 21.641 32.4804 21.6502 32.441 21.6511C32.2099 21.6527 31.9772 21.6661 31.7495 21.61C31.6498 21.5849 31.5511 21.5581 31.4556 21.523C31.2187 21.4359 31.078 21.2609 31.0261 21.0173C31.0018 20.9051 30.991 20.7879 30.9901 20.6724C30.9884 19.774 30.9901 18.8749 30.9893 17.9757C30.9893 17.882 30.9851 17.784 30.9591 17.6936C30.9031 17.5019 30.7733 17.3629 30.5933 17.275C30.4376 17.1988 30.2718 17.1653 30.1002 17.1536C29.813 17.136 29.5292 17.1712 29.2462 17.2139C29.093 17.2381 28.9364 17.2474 28.7765 17.3051Z" fill="white"/>
<path fill-rule="evenodd" clip-rule="evenodd" d="M72.9411 17.311C72.9378 17.3386 72.9302 17.3579 72.9302 17.378C72.9378 17.6082 72.952 17.8409 72.952 18.0712C72.9562 18.936 72.9562 19.8017 72.952 20.6665C72.952 20.782 72.9403 20.8993 72.916 21.0114C72.8608 21.2609 72.7117 21.4367 72.4698 21.5288C72.304 21.5933 72.1315 21.6352 71.9541 21.6452C71.7916 21.6553 71.6275 21.6502 71.4634 21.6494C71.4383 21.6494 71.4124 21.6402 71.3831 21.6343C71.3554 21.5489 71.3647 21.4677 71.3647 21.3873C71.3647 20.0922 71.3647 18.7979 71.3647 17.5035C71.3647 17.1762 71.3722 16.8497 71.3621 16.5223C71.3554 16.3038 71.4517 16.1598 71.6292 16.0535C71.795 15.953 71.9775 15.8994 72.1634 15.8567C72.4572 15.7873 72.7544 15.7521 73.0533 15.7362C73.4895 15.7102 73.9248 15.6968 74.3619 15.7287C74.7294 15.7546 75.0911 15.8149 75.441 15.9354C75.6344 16.0024 75.8186 16.0895 75.9886 16.205C76.4072 16.4897 76.6449 16.8882 76.7186 17.3847C76.7421 17.5462 76.7521 17.7112 76.7521 17.8736C76.7546 19.0448 76.7538 20.2161 76.7529 21.3899C76.7529 21.4702 76.7663 21.5523 76.7287 21.6394C76.3461 21.6687 75.9693 21.6636 75.6051 21.5163C75.3556 21.4141 75.2259 21.2166 75.1815 20.957C75.1656 20.8708 75.1631 20.7812 75.1631 20.6933C75.1631 19.7933 75.1647 18.8941 75.1647 17.995C75.1647 17.9272 75.1673 17.8585 75.1547 17.7915C75.1095 17.5571 74.9797 17.383 74.7621 17.275C74.6063 17.198 74.4414 17.1653 74.2689 17.1536C73.9885 17.136 73.7122 17.1712 73.4359 17.2097C73.3003 17.2281 73.1672 17.2532 73.0332 17.2767C73.0014 17.2833 72.9704 17.3009 72.9411 17.311Z" fill="white"/>
<path fill-rule="evenodd" clip-rule="evenodd" d="M52.7083 15.7471C52.7577 16.1012 52.7484 16.4386 52.6346 16.7651C52.5442 17.0246 52.3416 17.1494 52.0845 17.1929C51.9899 17.2097 51.8928 17.2055 51.7974 17.2105C51.6132 17.2197 51.4307 17.2273 51.2473 17.2373C51.0958 17.2473 50.9535 17.29 50.8195 17.3604C50.6395 17.4558 50.524 17.6007 50.4805 17.7982C50.4562 17.9029 50.4419 18.0117 50.4336 18.1206C50.4244 18.2428 50.4252 18.3659 50.4252 18.4881C50.4244 19.5087 50.4252 20.53 50.4244 21.5523C50.4244 21.6234 50.421 21.6971 50.4185 21.7674C50.39 21.77 50.3725 21.7775 50.3641 21.7725C50.0727 21.6159 49.7504 21.5573 49.4314 21.4895C49.2782 21.4568 49.1501 21.3915 49.0438 21.2785C48.9258 21.1554 48.8663 21.0056 48.8479 20.8398C48.8379 20.7594 48.8362 20.6766 48.8362 20.5953C48.8362 19.656 48.8362 18.7158 48.8362 17.7765C48.8362 17.599 48.8454 17.4232 48.8822 17.249C49.0371 16.5073 49.4624 16.0192 50.2017 15.8191C50.3934 15.768 50.5901 15.7395 50.786 15.7387C51.3938 15.7353 51.9991 15.7379 52.6044 15.7379C52.6321 15.7379 52.6589 15.7429 52.7083 15.7471Z" fill="white"/>
<path fill-rule="evenodd" clip-rule="evenodd" d="M68.1848 15.66C68.292 15.6977 68.3732 15.732 68.4569 15.7529C68.5431 15.7755 68.631 15.7898 68.719 15.7965C68.8621 15.809 69.0044 15.8174 69.1484 15.8149C69.3988 15.8107 69.5562 15.9388 69.6625 16.1489C69.732 16.2854 69.7537 16.4353 69.7663 16.5851C69.773 16.6722 69.773 16.7618 69.773 16.8505C69.773 18.1239 69.7747 19.3981 69.7713 20.6724C69.7713 20.7938 69.7596 20.9177 69.7345 21.0374C69.6851 21.2743 69.5361 21.4351 69.3109 21.5213C69.1183 21.5967 68.9157 21.6318 68.7123 21.6452C68.5431 21.6569 68.3749 21.662 68.2074 21.6419C68.1974 21.6101 68.1857 21.5908 68.1857 21.5724C68.1848 19.6108 68.1848 17.6501 68.1848 15.66Z" fill="white"/>
<path fill-rule="evenodd" clip-rule="evenodd" d="M68.9904 15.3594C68.5224 15.3737 68.1398 14.9835 68.1389 14.5072C68.1372 14.1179 68.4713 13.6674 68.9854 13.6666C69.4425 13.6649 69.8435 14.035 69.8376 14.5222C69.8309 15.0547 69.3738 15.3812 68.9904 15.3594Z" fill="white"/>
</g>
<defs>
<linearGradient id="paint0_linear_481_13677" x1="15.195" y1="14.7893" x2="15.195" y2="0.624389" gradientUnits="userSpaceOnUse">
<stop stop-color="#161B60"/>
<stop offset="0.0355" stop-color="#14266B"/>
<stop offset="0.1871" stop-color="#0E4F93"/>
<stop offset="0.3423" stop-color="#0971B4"/>
<stop offset="0.4995" stop-color="#058CCE"/>
<stop offset="0.6595" stop-color="#029FE0"/>
<stop offset="0.824" stop-color="#01AAEB"/>
<stop offset="1" stop-color="#00AEEF"/>
</linearGradient>
<linearGradient id="paint1_linear_481_13677" x1="15.2795" y1="22.1309" x2="15.2795" y2="35.7772" gradientUnits="userSpaceOnUse">
<stop stop-color="#4E0900"/>
<stop offset="0.0923" stop-color="#6D2505"/>
<stop offset="0.2404" stop-color="#984B0C"/>
<stop offset="0.3908" stop-color="#BC6B11"/>
<stop offset="0.5415" stop-color="#D78415"/>
<stop offset="0.6928" stop-color="#EB9619"/>
<stop offset="0.8451" stop-color="#F7A01A"/>
<stop offset="1" stop-color="#FBA41B"/>
</linearGradient>
<linearGradient id="paint2_linear_481_13677" x1="8.70656" y1="30.1244" x2="8.70647" y2="6.42316" gradientUnits="userSpaceOnUse">
<stop stop-color="#660308"/>
<stop offset="0.4381" stop-color="#DE1A23"/>
<stop offset="0.6237" stop-color="#DE1A23"/>
<stop offset="1" stop-color="#660308"/>
</linearGradient>
<linearGradient id="paint3_linear_481_13677" x1="15.2293" y1="19.9508" x2="15.2293" y2="16.0473" gradientUnits="userSpaceOnUse">
<stop stop-color="#DE1A22"/>
<stop offset="1" stop-color="#F9D7D8"/>
</linearGradient>
<clipPath id="clip0_481_13677">
<rect width="83.7209" height="36" fill="white"/>
</clipPath>
</defs>
</svg>
