<svg width="84" height="36" viewBox="0 0 84 36" fill="none" xmlns="http://www.w3.org/2000/svg">
<path d="M65 13.7C64.7 13.7 64.4 13.7 64.1 13.7C63.701 13.7 63.701 13.7 63.701 13.3C63.6 12.7 63.401 12.2 63.1 11.8C62.701 11.2 62 10.9 61.3 10.8C60.6 10.7 59.901 10.8 59.3 11.1C58.5 11.5 58 12.2 57.901 13.1C57.8 13.7 57.8 13.7 57.201 13.7C56.6 13.7 56.1 13.7 55.501 13.7C55.301 13.7 55.201 13.6 55.201 13.4C55.1 12.7 54.801 12 54.201 11.4C53.501 10.8 52.701 10.6 51.801 10.7C50.301 10.9 49.501 11.8 49.301 13.2C49.201 13.6 49.201 13.6 48.801 13.6C48.201 13.6 47.601 13.6 46.902 13.6C46.702 13.6 46.601 13.5 46.702 13.3C46.902 12.4 47.101 11.5 47.601 10.7C48.202 9.7 49.001 8.9 50.101 8.5C51.4 8 52.7 7.9 53.9 8.4C54.7 8.7 55.299 9.2 55.9 9.8C56.099 10 56.2 10.2 56.4 10.3C56.5 10.5 56.599 10.4 56.799 10.3C57.299 9.7 57.799 9.2 58.4 8.8C59.4 8.2 60.4 8 61.5 8.1C62.2 8.2 62.8 8.3 63.4 8.6C64.299 9 65 9.7 65.5 10.6C66 11.4 66.2 12.4 66.4 13.3C66.4 13.5 66.4 13.6 66.099 13.6C65.7 13.7 65.4 13.7 65 13.7Z" fill="#FFFE00"/>
<path d="M14.7 14.5C15 14.5 15.4 14.5 15.7 14.5C15.9 14.5 16 14.6 16 14.8C16 15.3 16.1 15.9 16.2 16.4C16.5 17.7 17.9 18.8 19.2 18.8C20 18.8 20.8 18.8 21.5 18.5C22.5 18.1 23.2 17.4 23.6 16.4C23.8 15.9 23.8 15.4 23.8 14.8C23.8 14.6 23.8 14.5 24.1 14.5C24.8 14.5 25.4 14.5 26.1 14.5C26.3 14.5 26.3 14.6 26.4 14.8C26.5 16.3 26.1 17.7 25.3 19C24.6 20.1 23.6 20.8 22.3 21.1C20.5 21.6 18.7 21.6 16.9 20.8C15.8 20.3 15 19.5 14.4 18.5C13.7 17.4 13.4 16.1 13.5 14.8C13.5 14.6 13.6 14.5 13.8 14.5C14 14.5 14.4 14.4 14.7 14.5C14.7 14.4 14.7 14.4 14.7 14.5Z" fill="#FFFE00"/>
<path d="M25.0999 13.7C24.7999 13.7 24.4999 13.7 24.1999 13.7C23.9999 13.7 23.7999 13.6 23.7999 13.4C23.6999 12.7 23.2999 12.1 22.7999 11.6C22.2999 11.2 21.7999 11 21.1999 10.8C20.1999 10.6 19.0999 10.6 18.0999 11C17.0999 11.4 16.3999 12.2 16.0999 13.3C15.9999 13.6 15.8999 13.7 15.5999 13.7C14.9999 13.7 14.2999 13.7 13.6999 13.7C13.4999 13.7 13.3999 13.6 13.4999 13.4C13.6999 12.6 13.8999 11.7 14.3999 11C14.9999 10 15.7999 9.2 16.8999 8.8C18.0999 8.3 19.3999 8.1 20.6999 8.2C22.0999 8.3 23.3999 8.7 24.3999 9.7C24.9999 10.3 25.5999 11 25.8999 11.8C26.0999 12.3 26.1999 12.9 26.3999 13.4C26.4999 13.7 26.3999 13.7 26.0999 13.7C25.6999 13.7 25.3999 13.7 25.0999 13.7Z" fill="#FFFE00"/>
<path d="M3.19995 8.3C3.99995 8.3 4.79995 8.3 5.59995 8.3C6.99995 8.4 8.19995 8.9 9.19995 9.8C10.3 10.8 10.7 12 10.8 13.4C10.8 13.6 10.7 13.7 10.5 13.7C9.79995 13.7 9.19995 13.7 8.49995 13.7C8.29995 13.7 8.19995 13.6 8.19995 13.4C8.09995 12.6 7.89995 11.9 7.19995 11.4C6.79995 11.1 6.29995 10.9 5.79995 10.8C4.89995 10.8 3.99995 10.8 3.09995 10.8C2.89995 10.8 2.79995 10.9 2.79995 11.1C2.79995 11.8 2.79995 12.6 2.79995 13.3C2.79995 13.7 2.79995 13.7 2.39995 13.7C1.79995 13.7 1.19995 13.7 0.499951 13.7C0.299951 13.7 0.199951 13.6 0.199951 13.4C0.199951 11.8 0.199951 10.2 0.199951 8.6C0.199951 8.3 0.299951 8.2 0.499951 8.2C1.49995 8.3 2.39995 8.3 3.19995 8.3Z" fill="#FFFE00"/>
<path d="M33.2 21.3C32 21.3 30.7999 21.3 29.5999 21.3C29.1999 21.3 29.2 21.3 29.2 20.901C29.2 18.8 29.2 16.8 29.2 14.701C29.2 14.501 29.3 14.401 29.5 14.401C30.2 14.401 30.9 14.401 31.5 14.401C31.7 14.401 31.7 14.501 31.7 14.601C31.7 15.801 31.7 17.001 31.7 18.301C31.7 18.701 31.6999 18.701 32.0999 18.701C33.6999 18.701 35.2 18.701 36.8 18.701C37 18.701 37.1 18.801 37.1 19.001C37.1 19.701 37.1 20.401 37.1 21.001C37.1 21.201 37 21.301 36.8 21.301C35.7 21.3 34.4 21.3 33.2 21.3Z" fill="#FFFE00"/>
<path d="M79.3 8.2C80.6 8.2 82 8.2 83.3 8.2C83.5 8.2 83.6 8.3 83.5 8.5C83.5 9.2 83.5 9.9 83.5 10.6C83.5 10.8 83.4 10.9 83.2 10.9C82.4 10.9 81.599 10.9 80.8 10.9C80.6 10.9 80.5 11 80.5 11.2C80.5 11.9 80.5 12.7 80.5 13.4C80.5 13.8 80.5 13.8 80.1 13.8C79.5 13.8 78.901 13.8 78.201 13.8C78.001 13.8 77.901 13.7 77.901 13.5C77.901 12.7 77.901 11.9 77.901 11.1C77.901 10.9 77.901 10.8 77.6 10.8C76.8 10.8 75.901 10.8 75.1 10.8C74.901 10.8 74.8 10.7 74.8 10.5C74.8 9.9 74.8 9.2 74.8 8.6C74.8 8.2 74.8 8.2 75.2 8.2C76.7 8.2 78 8.2 79.3 8.2Z" fill="#FFFE00"/>
<path d="M78 17.9C78 16.9 78 15.8 78 14.8C78 14.5 78.1 14.4 78.3 14.4C79 14.4 79.6 14.4 80.3 14.4C80.5 14.4 80.6 14.5 80.6 14.7C80.6 16.8 80.6 18.9 80.6 21C80.6 21.2 80.5 21.3 80.3 21.3C79.7 21.3 79 21.3 78.401 21.3C78.201 21.3 78.1 21.2 78.1 21C78 20 78 18.9 78 17.9Z" fill="#FFFE00"/>
<path d="M40.5 17.9C40.5 16.9 40.5 15.9 40.5 14.8C40.5 14.5 40.6 14.4 40.9 14.4C41.5 14.4 42.2 14.4 42.8 14.4C43 14.4 43.1 14.5 43.1 14.7C43.1 16.8 43.1 18.9 43.1 21C43.1 21.2 43 21.3 42.8 21.3C42.2 21.3 41.5 21.3 40.9 21.3C40.6 21.3 40.6 21.2 40.6 21C40.5 19.9 40.5 18.9 40.5 17.9Z" fill="#FFFE00"/>
<path d="M46.6 17.9C46.6 16.8 46.6 15.8 46.6 14.7C46.6 14.5 46.701 14.4 46.901 14.4C47.6 14.4 48.3 14.4 48.901 14.4C49.1 14.4 49.1 14.5 49.1 14.6C49.1 14.8 49.1 15.1 49.1 15.3C49.1 17.1 49.1 18.8 49.1 20.6C49.1 20.701 49.1 20.901 49.1 21C49.1 21.2 49 21.2 48.8 21.2C48.1 21.2 47.5 21.2 46.8 21.2C46.6 21.2 46.5 21.099 46.5 20.9C46.6 20 46.6 18.9 46.6 17.9Z" fill="#FFFE00"/>
<path d="M69.5 17.9C69.5 16.8 69.5 15.8 69.5 14.7C69.5 14.5 69.5 14.4 69.8 14.4C70.5 14.4 71.2 14.4 71.901 14.4C72.1 14.4 72.1 14.5 72.1 14.6C72.1 14.8 72.1 15 72.1 15.3C72.1 17.2 72.1 19.1 72.1 21C72.1 21.3 72 21.3 71.8 21.3C71.2 21.3 70.5 21.3 69.901 21.3C69.701 21.3 69.6 21.2 69.6 21C69.5 20 69.5 18.9 69.5 17.9Z" fill="#FFFE00"/>
<path d="M55.2 17.9C55.2 16.9 55.2 15.8 55.2 14.8C55.2 14.5 55.3 14.5 55.4999 14.5C56.1999 14.5 56.7999 14.5 57.4999 14.5C57.6999 14.5 57.7999 14.6 57.7999 14.8C57.7999 15.2 57.7999 15.5 57.7999 15.9C57.7999 17.6 57.7999 19.3 57.7999 21C57.7999 21.3 57.7999 21.4 57.4009 21.4C56.7999 21.4 56.2009 21.4 55.5999 21.4C55.2999 21.4 55.2 21.3 55.2 21C55.2 19.9 55.2 18.9 55.2 17.9Z" fill="#FFFE00"/>
<path d="M66.3001 17.8C66.3001 18.901 66.3001 19.901 66.3001 21C66.3001 21.3 66.2 21.3 66 21.3C65.4 21.3 64.7 21.3 64.1 21.3C63.901 21.3 63.8 21.2 63.8 21C63.8 19.1 63.8 17.2 63.8 15.3C63.8 15.1 63.8 14.9 63.8 14.7C63.8 14.5 63.901 14.5 64 14.5C64.7 14.5 65.4 14.5 66.1 14.5C66.3 14.5 66.3001 14.6 66.3001 14.8C66.3001 15.7 66.3001 16.8 66.3001 17.8Z" fill="#FFFE00"/>
<path d="M8.19998 17.9C8.19998 16.9 8.19998 15.9 8.19998 14.9C8.19998 14.7 8.29998 14.6 8.49998 14.6C9.09998 14.6 9.79998 14.6 10.4 14.6C10.6 14.6 10.7 14.7 10.7 14.9C10.7 16.9 10.7 18.9 10.7 20.9C10.7 21.4 10.8 21.5 10.1 21.5C9.49998 21.5 8.99998 21.5 8.39998 21.5C8.19997 21.5 8.09998 21.4 8.09998 21.2C8.29998 20 8.19998 18.9 8.19998 17.9Z" fill="#FFFE00"/>
<path d="M2.8999 17.9C2.8999 18.9 2.8999 19.9 2.8999 21C2.8999 21.3 2.7999 21.3 2.5999 21.3C1.9999 21.3 1.2999 21.3 0.699903 21.3C0.399903 21.3 0.399902 21.2 0.399902 20.901C0.399902 18.8 0.399902 16.8 0.399902 14.701C0.399902 14.501 0.499903 14.401 0.699903 14.401C1.2999 14.401 1.9999 14.401 2.5999 14.401C2.8999 14.401 2.8999 14.501 2.8999 14.801C2.8999 15.8 2.8999 16.8 2.8999 17.9Z" fill="#FFFE00"/>
<path d="M40.5 11C40.5 10.2 40.5 9.4 40.5 8.5C40.5 8.3 40.6 8.2 40.8 8.2C41.5 8.2 42.1 8.2 42.8 8.2C43 8.2 43.1 8.3 43.1 8.5C43.1 10.2 43.1 11.8 43.1 13.5C43.1 13.7 43 13.8 42.8 13.8C42.1 13.8 41.4 13.8 40.7 13.8C40.5 13.8 40.5 13.7 40.5 13.5C40.5 12.6 40.5 11.8 40.5 11Z" fill="#FFFE00"/>
<path d="M69.5 10.9C69.5 10.1 69.5 9.3 69.5 8.5C69.5 8.3 69.6 8.2 69.8 8.2C70.401 8.2 71.1 8.2 71.7 8.2C72 8.2 72.1 8.3 72.1 8.5C72.1 9.9 72.1 11.3 72.1 12.7C72.1 12.9 72.1 13.2 72.1 13.4C72.1 13.6 72 13.7 71.8 13.7C71.1 13.7 70.5 13.7 69.8 13.7C69.6 13.7 69.5 13.6 69.5 13.4C69.5 12.6 69.5 11.8 69.5 10.9Z" fill="#FFFE00"/>
<path d="M29.2 11C29.2 10.2 29.2 9.3 29.2 8.5C29.2 8.3 29.3 8.2 29.5 8.2C30.2 8.2 30.9 8.2 31.5 8.2C31.7 8.2 31.7 8.3 31.7 8.4C31.7 10.1 31.7 11.7 31.7 13.4C31.7 13.6 31.6 13.7 31.4 13.7C30.7 13.7 30.1 13.7 29.4 13.7C29.2 13.7 29.1 13.6 29.1 13.4C29.2 12.6 29.2 11.8 29.2 11Z" fill="#FFFE00"/>
<path d="M21.3999 29.4C21.3999 29.599 21.3999 29.799 21.3999 30C21.3999 30.1 21.2999 30.1 21.2999 30.1C20.4999 30.3 19.6999 30.4 18.9999 29.9C18.6999 29.7 18.4999 29.299 18.3999 29C18.0999 28.1 18.0999 27.2 18.6999 26.4C18.9999 25.9 19.4999 25.7 20.0999 25.599C20.5999 25.499 21.0999 25.599 21.4999 25.799H21.5999C21.7999 26.099 21.4999 26.299 21.4999 26.499C21.4999 26.499 21.2999 26.599 21.1999 26.599C20.8999 26.599 20.5999 26.4 20.3999 26.4C19.8999 26.4 19.4999 26.799 19.3999 27.299C19.2999 27.799 19.2999 28.299 19.4999 28.799C19.5999 29.099 19.9999 29.4 20.2999 29.4C20.4999 29.5 20.8999 29.5 21.3999 29.4Z" fill="white"/>
<path d="M62.8999 27.6C62.9999 27.4 63.0999 27.3 63.0999 27.2C63.2999 26.8 63.4999 26.4 63.7009 26C63.8009 25.9 63.9009 25.8 64.0009 25.8C64.2009 25.8 64.4009 25.8 64.6009 25.8C64.8009 25.8 64.8009 25.901 64.7019 26C64.3019 26.7 63.9019 27.5 63.5019 28.2C63.4019 28.4 63.3019 28.599 63.3019 28.9C63.3019 29.299 63.3019 29.7 63.3019 30C63.3019 30.2 63.2019 30.3 63.0019 30.3C62.3019 30.3 62.3019 30.3 62.3019 29.6C62.4029 28.8 62.2019 28.201 61.8019 27.5C61.5019 27 61.2019 26.5 61.0019 26C60.9019 25.8 60.9019 25.7 61.2019 25.7H61.3019C61.9029 25.599 62.1019 25.9 62.3019 26.4C62.4029 26.7 62.6019 27 62.8019 27.299C62.6999 27.4 62.7999 27.5 62.8999 27.6Z" fill="white"/>
<path d="M47.3999 28.4C47.3999 27.9 47.3999 27.299 47.3999 26.799C47.3999 26.599 47.2989 26.599 47.1999 26.599C46.9999 26.599 46.6999 26.599 46.4999 26.599C46.2999 26.599 46.1999 26.599 46.1999 26.4C46.1999 25.799 46.0989 25.799 46.7999 25.799C47.6999 25.799 48.4999 25.799 49.4009 25.799C49.5999 25.799 49.7009 25.9 49.7009 26.099C49.7009 26.599 49.7009 26.599 49.2009 26.599C48.5009 26.599 48.5009 26.599 48.5009 27.299C48.5009 28.199 48.5009 29.199 48.5009 30.099C48.5009 30.299 48.4009 30.299 48.3009 30.299C48.2009 30.299 48.2009 30.299 48.1009 30.299C47.6009 30.299 47.6009 30.299 47.6009 29.799C47.3999 29.3 47.3999 28.9 47.3999 28.4Z" fill="white"/>
<path d="M34.4 28C34.4 28.7 34.4 29.3 34.4 30C34.4 30.2 34.3 30.3 34.1 30.3C33.3 30.3 33.4 30.401 33.4 29.6C33.4 28.401 33.4 27.201 33.4 26C33.4 25.8 33.5 25.8 33.6 25.8C33.7 25.8 33.8 25.8 34 25.8C34.4 25.8 34.4 25.8 34.4 26.2C34.4 26.8 34.4 27.4 34.4 28Z" fill="white"/>
</svg>
